<?xml version="1.0" encoding="UTF-8" standalone="no"?>
<!DOCTYPE svg PUBLIC "-//W3C//DTD SVG 1.1//EN"
 "http://www.w3.org/Graphics/SVG/1.1/DTD/svg11.dtd">
<!-- Generated by graphviz version 2.43.0 (0)
 -->
<!-- Title: lcd_writeVoltage Pages: 1 -->
<svg width="558pt" height="104pt"
 viewBox="0.00 0.00 558.00 104.00" xmlns="http://www.w3.org/2000/svg" xmlns:xlink="http://www.w3.org/1999/xlink">
<g id="graph0" class="graph" transform="scale(1 1) rotate(0) translate(4 100)">
<title>lcd_writeVoltage</title>
<polygon fill="white" stroke="transparent" points="-4,4 -4,-100 554,-100 554,4 -4,4"/>
<!-- Node1 -->
<g id="node1" class="node">
<title>Node1</title>
<g id="a_node1"><a xlink:title="Write a voltage with valueUpperBound as float voltage with voltUpperBound.">
<polygon fill="#bfbfbf" stroke="black" points="0,-38.5 0,-57.5 98,-57.5 98,-38.5 0,-38.5"/>
<text text-anchor="middle" x="49" y="-45.5" font-family="FreeSans" font-size="10.00">lcd_writeVoltage</text>
</a>
</g>
</g>
<!-- Node2 -->
<g id="node2" class="node">
<title>Node2</title>
<g id="a_node2"><a xlink:href="lcd_8h.html#a93cd5600fa3b27381a4cf57d21f27ebf" target="_top" xlink:title="Write one character.">
<polygon fill="white" stroke="black" points="250,-38.5 250,-57.5 333,-57.5 333,-38.5 250,-38.5"/>
<text text-anchor="middle" x="291.5" y="-45.5" font-family="FreeSans" font-size="10.00">lcd_writeChar</text>
</a>
</g>
</g>
<!-- Node1&#45;&gt;Node2 -->
<g id="edge1" class="edge">
<title>Node1&#45;&gt;Node2</title>
<path fill="none" stroke="midnightblue" d="M98.09,-48C139.03,-48 197.69,-48 239.46,-48"/>
<polygon fill="midnightblue" stroke="midnightblue" points="239.69,-51.5 249.69,-48 239.69,-44.5 239.69,-51.5"/>
</g>
<!-- Node7 -->
<g id="node7" class="node">
<title>Node7</title>
<g id="a_node7"><a xlink:href="lcd_8h.html#a1415b995427583a289b6089b5e4785e5" target="_top" xlink:title="Write a byte as a decimal number without prefixes.">
<polygon fill="white" stroke="black" points="134,-19.5 134,-38.5 214,-38.5 214,-19.5 134,-19.5"/>
<text text-anchor="middle" x="174" y="-26.5" font-family="FreeSans" font-size="10.00">lcd_writeDec</text>
</a>
</g>
</g>
<!-- Node1&#45;&gt;Node7 -->
<g id="edge8" class="edge">
<title>Node1&#45;&gt;Node7</title>
<path fill="none" stroke="midnightblue" d="M98.26,-40.55C106.68,-39.24 115.45,-37.89 123.89,-36.59"/>
<polygon fill="midnightblue" stroke="midnightblue" points="124.64,-40.01 133.99,-35.03 123.57,-33.09 124.64,-40.01"/>
</g>
<!-- Node3 -->
<g id="node3" class="node">
<title>Node3</title>
<g id="a_node3"><a xlink:href="lcd_8h.html#ad235a86241458b1e7b8771688bfdaf9a" target="_top" xlink:title="Clear all data from display.">
<polygon fill="white" stroke="black" points="369,-76.5 369,-95.5 429,-95.5 429,-76.5 369,-76.5"/>
<text text-anchor="middle" x="399" y="-83.5" font-family="FreeSans" font-size="10.00">lcd_clear</text>
</a>
</g>
</g>
<!-- Node2&#45;&gt;Node3 -->
<g id="edge2" class="edge">
<title>Node2&#45;&gt;Node3</title>
<path fill="none" stroke="midnightblue" d="M319.12,-57.59C331.99,-62.22 347.64,-67.86 361.59,-72.89"/>
<polygon fill="midnightblue" stroke="midnightblue" points="360.79,-76.32 371.39,-76.41 363.16,-69.73 360.79,-76.32"/>
</g>
<!-- Node5 -->
<g id="node5" class="node">
<title>Node5</title>
<g id="a_node5"><a xlink:href="lcd_8h.html#a016fe1471f1d20196b5ca3d2634c927a" target="_top" xlink:title="Next output will be written to line 1.">
<polygon fill="white" stroke="black" points="369,-38.5 369,-57.5 429,-57.5 429,-38.5 369,-38.5"/>
<text text-anchor="middle" x="399" y="-45.5" font-family="FreeSans" font-size="10.00">lcd_line1</text>
</a>
</g>
</g>
<!-- Node2&#45;&gt;Node5 -->
<g id="edge4" class="edge">
<title>Node2&#45;&gt;Node5</title>
<path fill="none" stroke="midnightblue" d="M333.29,-48C341.61,-48 350.34,-48 358.61,-48"/>
<polygon fill="midnightblue" stroke="midnightblue" points="358.76,-51.5 368.76,-48 358.76,-44.5 358.76,-51.5"/>
</g>
<!-- Node6 -->
<g id="node6" class="node">
<title>Node6</title>
<g id="a_node6"><a xlink:href="lcd_8h.html#ad9ccaf30ea478fef726c058ff4ee7dd1" target="_top" xlink:title="Next output will be written to line 2.">
<polygon fill="white" stroke="black" points="369,-0.5 369,-19.5 429,-19.5 429,-0.5 369,-0.5"/>
<text text-anchor="middle" x="399" y="-7.5" font-family="FreeSans" font-size="10.00">lcd_line2</text>
</a>
</g>
</g>
<!-- Node2&#45;&gt;Node6 -->
<g id="edge6" class="edge">
<title>Node2&#45;&gt;Node6</title>
<path fill="none" stroke="midnightblue" d="M319.12,-38.41C331.99,-33.78 347.64,-28.14 361.59,-23.11"/>
<polygon fill="midnightblue" stroke="midnightblue" points="363.16,-26.27 371.39,-19.59 360.79,-19.68 363.16,-26.27"/>
</g>
<!-- Node4 -->
<g id="node4" class="node">
<title>Node4</title>
<g id="a_node4"><a xlink:href="lcd_8h.html#acb116d89c358367b8fd1164120d320e3" target="_top" xlink:title="Send command to LCD.">
<polygon fill="white" stroke="black" points="465,-38.5 465,-57.5 550,-57.5 550,-38.5 465,-38.5"/>
<text text-anchor="middle" x="507.5" y="-45.5" font-family="FreeSans" font-size="10.00">lcd_command</text>
</a>
</g>
</g>
<!-- Node3&#45;&gt;Node4 -->
<g id="edge3" class="edge">
<title>Node3&#45;&gt;Node4</title>
<path fill="none" stroke="midnightblue" d="M426.87,-76.41C439.99,-71.73 455.97,-66.03 470.15,-60.97"/>
<polygon fill="midnightblue" stroke="midnightblue" points="471.39,-64.24 479.63,-57.59 469.04,-57.65 471.39,-64.24"/>
</g>
<!-- Node5&#45;&gt;Node4 -->
<g id="edge5" class="edge">
<title>Node5&#45;&gt;Node4</title>
<path fill="none" stroke="midnightblue" d="M429.1,-48C436.98,-48 445.76,-48 454.49,-48"/>
<polygon fill="midnightblue" stroke="midnightblue" points="454.66,-51.5 464.66,-48 454.66,-44.5 454.66,-51.5"/>
</g>
<!-- Node6&#45;&gt;Node4 -->
<g id="edge7" class="edge">
<title>Node6&#45;&gt;Node4</title>
<path fill="none" stroke="midnightblue" d="M426.87,-19.59C439.99,-24.27 455.97,-29.97 470.15,-35.03"/>
<polygon fill="midnightblue" stroke="midnightblue" points="469.04,-38.35 479.63,-38.41 471.39,-31.76 469.04,-38.35"/>
</g>
<!-- Node7&#45;&gt;Node2 -->
<g id="edge9" class="edge">
<title>Node7&#45;&gt;Node2</title>
<path fill="none" stroke="midnightblue" d="M214.1,-35.43C222.38,-36.79 231.23,-38.25 239.87,-39.67"/>
<polygon fill="midnightblue" stroke="midnightblue" points="239.42,-43.14 249.86,-41.31 240.56,-36.24 239.42,-43.14"/>
</g>
</g>
</svg>
