<?xml version="1.0" encoding="UTF-8" standalone="no"?>
<!DOCTYPE svg PUBLIC "-//W3C//DTD SVG 1.1//EN"
 "http://www.w3.org/Graphics/SVG/1.1/DTD/svg11.dtd">
<!-- Generated by graphviz version 2.43.0 (0)
 -->
<!-- Title: lcd_init Pages: 1 -->
<svg width="579pt" height="180pt"
 viewBox="0.00 0.00 579.00 180.00" xmlns="http://www.w3.org/2000/svg" xmlns:xlink="http://www.w3.org/1999/xlink">
<g id="graph0" class="graph" transform="scale(1 1) rotate(0) translate(4 176)">
<title>lcd_init</title>
<polygon fill="white" stroke="transparent" points="-4,4 -4,-176 575,-176 575,4 -4,4"/>
<!-- Node1 -->
<g id="node1" class="node">
<title>Node1</title>
<g id="a_node1"><a xlink:title="Initialize LCD.">
<polygon fill="#bfbfbf" stroke="black" points="0,-76.5 0,-95.5 52,-95.5 52,-76.5 0,-76.5"/>
<text text-anchor="middle" x="26" y="-83.5" font-family="FreeSans" font-size="10.00">lcd_init</text>
</a>
</g>
</g>
<!-- Node2 -->
<g id="node2" class="node">
<title>Node2</title>
<g id="a_node2"><a xlink:href="util_8c.html#a6203c4722e9cbe1542b6ccbe98362dd2" target="_top" xlink:title="Waits for some milliseconds.">
<polygon fill="white" stroke="black" points="126,-152.5 126,-171.5 184,-171.5 184,-152.5 126,-152.5"/>
<text text-anchor="middle" x="155" y="-159.5" font-family="FreeSans" font-size="10.00">delayMs</text>
</a>
</g>
</g>
<!-- Node1&#45;&gt;Node2 -->
<g id="edge1" class="edge">
<title>Node1&#45;&gt;Node2</title>
<path fill="none" stroke="midnightblue" d="M34.65,-95.53C45.3,-108.19 65.81,-130.42 88,-143 96.62,-147.89 106.6,-151.61 116.15,-154.4"/>
<polygon fill="midnightblue" stroke="midnightblue" points="115.31,-157.8 125.87,-156.98 117.11,-151.03 115.31,-157.8"/>
</g>
<!-- Node5 -->
<g id="node5" class="node">
<title>Node5</title>
<g id="a_node5"><a xlink:href="lcd_8h.html#ad235a86241458b1e7b8771688bfdaf9a" target="_top" xlink:title="Clear all data from display.">
<polygon fill="white" stroke="black" points="125,-114.5 125,-133.5 185,-133.5 185,-114.5 125,-114.5"/>
<text text-anchor="middle" x="155" y="-121.5" font-family="FreeSans" font-size="10.00">lcd_clear</text>
</a>
</g>
</g>
<!-- Node1&#45;&gt;Node5 -->
<g id="edge4" class="edge">
<title>Node1&#45;&gt;Node5</title>
<path fill="none" stroke="midnightblue" d="M52.09,-93.51C70.11,-98.9 94.73,-106.27 115.26,-112.41"/>
<polygon fill="midnightblue" stroke="midnightblue" points="114.38,-115.8 124.96,-115.31 116.38,-109.09 114.38,-115.8"/>
</g>
<!-- Node6 -->
<g id="node6" class="node">
<title>Node6</title>
<g id="a_node6"><a xlink:href="lcd_8h.html#acb116d89c358367b8fd1164120d320e3" target="_top" xlink:title="Send command to LCD.">
<polygon fill="white" stroke="black" points="282.5,-76.5 282.5,-95.5 367.5,-95.5 367.5,-76.5 282.5,-76.5"/>
<text text-anchor="middle" x="325" y="-83.5" font-family="FreeSans" font-size="10.00">lcd_command</text>
</a>
</g>
</g>
<!-- Node1&#45;&gt;Node6 -->
<g id="edge6" class="edge">
<title>Node1&#45;&gt;Node6</title>
<path fill="none" stroke="midnightblue" d="M52.07,-86C100.42,-86 207.48,-86 271.9,-86"/>
<polygon fill="midnightblue" stroke="midnightblue" points="272.25,-89.5 282.25,-86 272.25,-82.5 272.25,-89.5"/>
</g>
<!-- Node7 -->
<g id="node7" class="node">
<title>Node7</title>
<g id="a_node7"><a xlink:href="lcd_8h.html#aca4a9d0155c7c7ec0c5ce4c2f5347847" target="_top" xlink:title="Enable LCD.">
<polygon fill="white" stroke="black" points="120.5,-38.5 120.5,-57.5 189.5,-57.5 189.5,-38.5 120.5,-38.5"/>
<text text-anchor="middle" x="155" y="-45.5" font-family="FreeSans" font-size="10.00">lcd_enable</text>
</a>
</g>
</g>
<!-- Node1&#45;&gt;Node7 -->
<g id="edge7" class="edge">
<title>Node1&#45;&gt;Node7</title>
<path fill="none" stroke="midnightblue" d="M52.09,-78.49C69.28,-73.35 92.49,-66.4 112.42,-60.44"/>
<polygon fill="midnightblue" stroke="midnightblue" points="113.61,-63.74 122.19,-57.52 111.61,-57.03 113.61,-63.74"/>
</g>
<!-- Node8 -->
<g id="node8" class="node">
<title>Node8</title>
<g id="a_node8"><a xlink:href="lcd_8h.html#a9145ad7b7dd6a45f9a84cf3d424c5cf2" target="_top" xlink:title="Register a customly designed character with the LCD.">
<polygon fill="white" stroke="black" points="88,-0.5 88,-19.5 222,-19.5 222,-0.5 88,-0.5"/>
<text text-anchor="middle" x="155" y="-7.5" font-family="FreeSans" font-size="10.00">lcd_registerCustomChar</text>
</a>
</g>
</g>
<!-- Node1&#45;&gt;Node8 -->
<g id="edge8" class="edge">
<title>Node1&#45;&gt;Node8</title>
<path fill="none" stroke="midnightblue" d="M34.65,-76.47C45.3,-63.81 65.81,-41.58 88,-29 91.9,-26.79 96.07,-24.82 100.36,-23.06"/>
<polygon fill="midnightblue" stroke="midnightblue" points="101.69,-26.3 109.86,-19.56 99.27,-19.74 101.69,-26.3"/>
</g>
<!-- Node3 -->
<g id="node3" class="node">
<title>Node3</title>
<g id="a_node3"><a xlink:href="util_8c.html#a0ed4ceac216999d297c20ed56cd2f2e0" target="_top" xlink:title="Precise system time in ms.">
<polygon fill="white" stroke="black" points="258,-152.5 258,-171.5 392,-171.5 392,-152.5 258,-152.5"/>
<text text-anchor="middle" x="325" y="-159.5" font-family="FreeSans" font-size="10.00">os_systemTime_precise</text>
</a>
</g>
</g>
<!-- Node2&#45;&gt;Node3 -->
<g id="edge2" class="edge">
<title>Node2&#45;&gt;Node3</title>
<path fill="none" stroke="midnightblue" d="M184.12,-162C201.54,-162 224.82,-162 247.38,-162"/>
<polygon fill="midnightblue" stroke="midnightblue" points="247.67,-165.5 257.67,-162 247.67,-158.5 247.67,-165.5"/>
</g>
<!-- Node4 -->
<g id="node4" class="node">
<title>Node4</title>
<g id="a_node4"><a xlink:href="util_8c.html#aa7568de3711b151bbc57bb3517a5cb0a" target="_top" xlink:title=" ">
<polygon fill="white" stroke="black" points="428,-152.5 428,-171.5 571,-171.5 571,-152.5 428,-152.5"/>
<text text-anchor="middle" x="499.5" y="-159.5" font-family="FreeSans" font-size="10.00">os_systemTime_augment</text>
</a>
</g>
</g>
<!-- Node3&#45;&gt;Node4 -->
<g id="edge3" class="edge">
<title>Node3&#45;&gt;Node4</title>
<path fill="none" stroke="midnightblue" d="M392.2,-162C400.6,-162 409.27,-162 417.86,-162"/>
<polygon fill="midnightblue" stroke="midnightblue" points="417.89,-165.5 427.89,-162 417.89,-158.5 417.89,-165.5"/>
</g>
<!-- Node5&#45;&gt;Node6 -->
<g id="edge5" class="edge">
<title>Node5&#45;&gt;Node6</title>
<path fill="none" stroke="midnightblue" d="M185.26,-117.38C209.31,-111.94 243.97,-104.1 272.63,-97.62"/>
<polygon fill="midnightblue" stroke="midnightblue" points="273.5,-101.01 282.49,-95.39 271.96,-94.18 273.5,-101.01"/>
</g>
<!-- Node8&#45;&gt;Node6 -->
<g id="edge9" class="edge">
<title>Node8&#45;&gt;Node6</title>
<path fill="none" stroke="midnightblue" d="M194.9,-19.59C203.94,-22.26 213.42,-25.42 222,-29 250.25,-40.78 280.64,-58.47 300.82,-71.02"/>
<polygon fill="midnightblue" stroke="midnightblue" points="299.01,-74.01 309.34,-76.38 302.74,-68.09 299.01,-74.01"/>
</g>
</g>
</svg>
