<?xml version="1.0" encoding="UTF-8" standalone="no"?>
<!DOCTYPE svg PUBLIC "-//W3C//DTD SVG 1.1//EN"
 "http://www.w3.org/Graphics/SVG/1.1/DTD/svg11.dtd">
<!-- Generated by graphviz version 2.43.0 (0)
 -->
<!-- Title: lcd_writeChar Pages: 1 -->
<svg width="308pt" height="104pt"
 viewBox="0.00 0.00 308.00 104.00" xmlns="http://www.w3.org/2000/svg" xmlns:xlink="http://www.w3.org/1999/xlink">
<g id="graph0" class="graph" transform="scale(1 1) rotate(0) translate(4 100)">
<title>lcd_writeChar</title>
<polygon fill="white" stroke="transparent" points="-4,4 -4,-100 304,-100 304,4 -4,4"/>
<!-- Node1 -->
<g id="node1" class="node">
<title>Node1</title>
<g id="a_node1"><a xlink:title="Write one character.">
<polygon fill="#bfbfbf" stroke="black" points="0,-38.5 0,-57.5 83,-57.5 83,-38.5 0,-38.5"/>
<text text-anchor="middle" x="41.5" y="-45.5" font-family="FreeSans" font-size="10.00">lcd_writeChar</text>
</a>
</g>
</g>
<!-- Node2 -->
<g id="node2" class="node">
<title>Node2</title>
<g id="a_node2"><a xlink:href="lcd_8h.html#ad235a86241458b1e7b8771688bfdaf9a" target="_top" xlink:title="Clear all data from display.">
<polygon fill="white" stroke="black" points="119,-76.5 119,-95.5 179,-95.5 179,-76.5 119,-76.5"/>
<text text-anchor="middle" x="149" y="-83.5" font-family="FreeSans" font-size="10.00">lcd_clear</text>
</a>
</g>
</g>
<!-- Node1&#45;&gt;Node2 -->
<g id="edge1" class="edge">
<title>Node1&#45;&gt;Node2</title>
<path fill="none" stroke="midnightblue" d="M69.12,-57.59C81.99,-62.22 97.64,-67.86 111.59,-72.89"/>
<polygon fill="midnightblue" stroke="midnightblue" points="110.79,-76.32 121.39,-76.41 113.16,-69.73 110.79,-76.32"/>
</g>
<!-- Node4 -->
<g id="node4" class="node">
<title>Node4</title>
<g id="a_node4"><a xlink:href="lcd_8h.html#a016fe1471f1d20196b5ca3d2634c927a" target="_top" xlink:title="Next output will be written to line 1.">
<polygon fill="white" stroke="black" points="119,-38.5 119,-57.5 179,-57.5 179,-38.5 119,-38.5"/>
<text text-anchor="middle" x="149" y="-45.5" font-family="FreeSans" font-size="10.00">lcd_line1</text>
</a>
</g>
</g>
<!-- Node1&#45;&gt;Node4 -->
<g id="edge3" class="edge">
<title>Node1&#45;&gt;Node4</title>
<path fill="none" stroke="midnightblue" d="M83.29,-48C91.61,-48 100.34,-48 108.61,-48"/>
<polygon fill="midnightblue" stroke="midnightblue" points="108.76,-51.5 118.76,-48 108.76,-44.5 108.76,-51.5"/>
</g>
<!-- Node5 -->
<g id="node5" class="node">
<title>Node5</title>
<g id="a_node5"><a xlink:href="lcd_8h.html#ad9ccaf30ea478fef726c058ff4ee7dd1" target="_top" xlink:title="Next output will be written to line 2.">
<polygon fill="white" stroke="black" points="119,-0.5 119,-19.5 179,-19.5 179,-0.5 119,-0.5"/>
<text text-anchor="middle" x="149" y="-7.5" font-family="FreeSans" font-size="10.00">lcd_line2</text>
</a>
</g>
</g>
<!-- Node1&#45;&gt;Node5 -->
<g id="edge5" class="edge">
<title>Node1&#45;&gt;Node5</title>
<path fill="none" stroke="midnightblue" d="M69.12,-38.41C81.99,-33.78 97.64,-28.14 111.59,-23.11"/>
<polygon fill="midnightblue" stroke="midnightblue" points="113.16,-26.27 121.39,-19.59 110.79,-19.68 113.16,-26.27"/>
</g>
<!-- Node3 -->
<g id="node3" class="node">
<title>Node3</title>
<g id="a_node3"><a xlink:href="lcd_8h.html#acb116d89c358367b8fd1164120d320e3" target="_top" xlink:title="Send command to LCD.">
<polygon fill="white" stroke="black" points="215,-38.5 215,-57.5 300,-57.5 300,-38.5 215,-38.5"/>
<text text-anchor="middle" x="257.5" y="-45.5" font-family="FreeSans" font-size="10.00">lcd_command</text>
</a>
</g>
</g>
<!-- Node2&#45;&gt;Node3 -->
<g id="edge2" class="edge">
<title>Node2&#45;&gt;Node3</title>
<path fill="none" stroke="midnightblue" d="M176.87,-76.41C189.99,-71.73 205.97,-66.03 220.15,-60.97"/>
<polygon fill="midnightblue" stroke="midnightblue" points="221.39,-64.24 229.63,-57.59 219.04,-57.65 221.39,-64.24"/>
</g>
<!-- Node4&#45;&gt;Node3 -->
<g id="edge4" class="edge">
<title>Node4&#45;&gt;Node3</title>
<path fill="none" stroke="midnightblue" d="M179.1,-48C186.98,-48 195.76,-48 204.49,-48"/>
<polygon fill="midnightblue" stroke="midnightblue" points="204.66,-51.5 214.66,-48 204.66,-44.5 204.66,-51.5"/>
</g>
<!-- Node5&#45;&gt;Node3 -->
<g id="edge6" class="edge">
<title>Node5&#45;&gt;Node3</title>
<path fill="none" stroke="midnightblue" d="M176.87,-19.59C189.99,-24.27 205.97,-29.97 220.15,-35.03"/>
<polygon fill="midnightblue" stroke="midnightblue" points="219.04,-38.35 229.63,-38.41 221.39,-31.76 219.04,-38.35"/>
</g>
</g>
</svg>
