<?xml version="1.0" encoding="UTF-8" standalone="no"?>
<!DOCTYPE svg PUBLIC "-//W3C//DTD SVG 1.1//EN"
 "http://www.w3.org/Graphics/SVG/1.1/DTD/svg11.dtd">
<!-- Generated by graphviz version 2.43.0 (0)
 -->
<!-- Title: os_free Pages: 1 -->
<svg width="654pt" height="199pt"
 viewBox="0.00 0.00 654.00 199.00" xmlns="http://www.w3.org/2000/svg" xmlns:xlink="http://www.w3.org/1999/xlink">
<g id="graph0" class="graph" transform="scale(1 1) rotate(0) translate(4 195)">
<title>os_free</title>
<polygon fill="white" stroke="transparent" points="-4,4 -4,-195 650,-195 650,4 -4,4"/>
<!-- Node1 -->
<g id="node1" class="node">
<title>Node1</title>
<g id="a_node1"><a xlink:title="Function used by processes to free their own allocated memory.">
<polygon fill="#bfbfbf" stroke="black" points="0,-76.5 0,-95.5 53,-95.5 53,-76.5 0,-76.5"/>
<text text-anchor="middle" x="26.5" y="-83.5" font-family="FreeSans" font-size="10.00">os_free</text>
</a>
</g>
</g>
<!-- Node2 -->
<g id="node2" class="node">
<title>Node2</title>
<g id="a_node2"><a xlink:href="os__memory_8c.html#ae30934b438eca830815f445a1144a8c2" target="_top" xlink:title=" ">
<polygon fill="white" stroke="black" points="89,-95.5 89,-114.5 223,-114.5 223,-95.5 89,-95.5"/>
<text text-anchor="middle" x="156" y="-102.5" font-family="FreeSans" font-size="10.00">os_freeOwnerRestricted</text>
</a>
</g>
</g>
<!-- Node1&#45;&gt;Node2 -->
<g id="edge1" class="edge">
<title>Node1&#45;&gt;Node2</title>
<path fill="none" stroke="midnightblue" d="M53.3,-89.84C61.54,-91.07 71.11,-92.5 81.02,-93.98"/>
<polygon fill="midnightblue" stroke="midnightblue" points="80.6,-97.45 91.01,-95.46 81.63,-90.53 80.6,-97.45"/>
</g>
<!-- Node12 -->
<g id="node12" class="node">
<title>Node12</title>
<g id="a_node12"><a xlink:href="os__scheduler_8c.html#a917313bbbb324677f26dfdf2ad80de3d" target="_top" xlink:title="returns the currently active process">
<polygon fill="white" stroke="black" points="103,-57.5 103,-76.5 209,-76.5 209,-57.5 103,-57.5"/>
<text text-anchor="middle" x="156" y="-64.5" font-family="FreeSans" font-size="10.00">os_getCurrentProc</text>
</a>
</g>
</g>
<!-- Node1&#45;&gt;Node12 -->
<g id="edge12" class="edge">
<title>Node1&#45;&gt;Node12</title>
<path fill="none" stroke="midnightblue" d="M53.3,-82.16C64.78,-80.44 78.83,-78.35 92.79,-76.27"/>
<polygon fill="midnightblue" stroke="midnightblue" points="93.52,-79.7 102.9,-74.76 92.49,-72.78 93.52,-79.7"/>
</g>
<!-- Node3 -->
<g id="node3" class="node">
<title>Node3</title>
<g id="a_node3"><a xlink:href="os__scheduler_8c.html#a9d27b2dbf45ce6648916ed5ceb0a38df" target="_top" xlink:title="enters a critical code section">
<polygon fill="white" stroke="black" points="261.5,-171.5 261.5,-190.5 390.5,-190.5 390.5,-171.5 261.5,-171.5"/>
<text text-anchor="middle" x="326" y="-178.5" font-family="FreeSans" font-size="10.00">os_enterCriticalSection</text>
</a>
</g>
</g>
<!-- Node2&#45;&gt;Node3 -->
<g id="edge2" class="edge">
<title>Node2&#45;&gt;Node3</title>
<path fill="none" stroke="midnightblue" d="M171.66,-114.62C191.01,-126.97 226.42,-148.42 259,-162 264.5,-164.29 270.37,-166.41 276.25,-168.34"/>
<polygon fill="midnightblue" stroke="midnightblue" points="275.51,-171.78 286.1,-171.41 277.59,-165.1 275.51,-171.78"/>
</g>
<!-- Node4 -->
<g id="node4" class="node">
<title>Node4</title>
<g id="a_node4"><a xlink:href="os__memory_8c.html#a292385f9ee19516237f51ab76c76405e" target="_top" xlink:title="Get the address of the first byte of chunk.">
<polygon fill="white" stroke="black" points="259,-133.5 259,-152.5 393,-152.5 393,-133.5 259,-133.5"/>
<text text-anchor="middle" x="326" y="-140.5" font-family="FreeSans" font-size="10.00">os_getFirstByteOfChunk</text>
</a>
</g>
</g>
<!-- Node2&#45;&gt;Node4 -->
<g id="edge3" class="edge">
<title>Node2&#45;&gt;Node4</title>
<path fill="none" stroke="midnightblue" d="M199.39,-114.59C221.76,-119.65 249.4,-125.9 273.05,-131.25"/>
<polygon fill="midnightblue" stroke="midnightblue" points="272.39,-134.69 282.91,-133.48 273.93,-127.86 272.39,-134.69"/>
</g>
<!-- Node5 -->
<g id="node5" class="node">
<title>Node5</title>
<g id="a_node5"><a xlink:href="os__memory_8c.html#a29ccc3e0a668c0be4b285bc74ef6d920" target="_top" xlink:title="Function used to get the value of a single map entry, this is made public so the allocation strategie...">
<polygon fill="white" stroke="black" points="429,-114.5 429,-133.5 524,-133.5 524,-114.5 429,-114.5"/>
<text text-anchor="middle" x="476.5" y="-121.5" font-family="FreeSans" font-size="10.00">os_getMapEntry</text>
</a>
</g>
</g>
<!-- Node2&#45;&gt;Node5 -->
<g id="edge7" class="edge">
<title>Node2&#45;&gt;Node5</title>
<path fill="none" stroke="midnightblue" d="M223.38,-108.96C281.1,-112.4 363.84,-117.34 418.58,-120.6"/>
<polygon fill="midnightblue" stroke="midnightblue" points="418.61,-124.11 428.81,-121.21 419.03,-117.13 418.61,-124.11"/>
</g>
<!-- Node8 -->
<g id="node8" class="node">
<title>Node8</title>
<g id="a_node8"><a xlink:href="os__scheduler_8c.html#a21546fdd22e5e6818e50856a119d98e0" target="_top" xlink:title="leaves a critical code section">
<polygon fill="white" stroke="black" points="260.5,-57.5 260.5,-76.5 391.5,-76.5 391.5,-57.5 260.5,-57.5"/>
<text text-anchor="middle" x="326" y="-64.5" font-family="FreeSans" font-size="10.00">os_leaveCriticalSection</text>
</a>
</g>
</g>
<!-- Node2&#45;&gt;Node8 -->
<g id="edge8" class="edge">
<title>Node2&#45;&gt;Node8</title>
<path fill="none" stroke="midnightblue" d="M199.39,-95.41C221.76,-90.35 249.4,-84.1 273.05,-78.75"/>
<polygon fill="midnightblue" stroke="midnightblue" points="273.93,-82.14 282.91,-76.52 272.39,-75.31 273.93,-82.14"/>
</g>
<!-- Node9 -->
<g id="node9" class="node">
<title>Node9</title>
<g id="a_node9"><a xlink:href="os__memory_8c.html#aa0082364f445ac8cfacf8d0e873bcfb5" target="_top" xlink:title="This function is used to set a heap map entry on a specific heap.">
<polygon fill="white" stroke="black" points="287,-19.5 287,-38.5 365,-38.5 365,-19.5 287,-19.5"/>
<text text-anchor="middle" x="326" y="-26.5" font-family="FreeSans" font-size="10.00">setMapEntry</text>
</a>
</g>
</g>
<!-- Node2&#45;&gt;Node9 -->
<g id="edge9" class="edge">
<title>Node2&#45;&gt;Node9</title>
<path fill="none" stroke="midnightblue" d="M202.38,-95.42C209.56,-92.94 216.68,-89.84 223,-86 242.88,-73.91 239.12,-60.09 259,-48 264.55,-44.63 270.72,-41.83 277.01,-39.51"/>
<polygon fill="midnightblue" stroke="midnightblue" points="278.49,-42.71 286.9,-36.26 276.31,-36.06 278.49,-42.71"/>
</g>
<!-- Node4&#45;&gt;Node5 -->
<g id="edge4" class="edge">
<title>Node4&#45;&gt;Node5</title>
<path fill="none" stroke="midnightblue" d="M393.43,-134.5C401.89,-133.42 410.48,-132.32 418.76,-131.26"/>
<polygon fill="midnightblue" stroke="midnightblue" points="419.21,-134.73 428.68,-129.99 418.32,-127.79 419.21,-134.73"/>
</g>
<!-- Node6 -->
<g id="node6" class="node">
<title>Node6</title>
<g id="a_node6"><a xlink:href="os__memory_8c.html#ae420976ba4abbd069aff795935b9636c" target="_top" xlink:title="Reads the value of the higher nibble of the given address.">
<polygon fill="white" stroke="black" points="560,-133.5 560,-152.5 646,-152.5 646,-133.5 560,-133.5"/>
<text text-anchor="middle" x="603" y="-140.5" font-family="FreeSans" font-size="10.00">getHighNibble</text>
</a>
</g>
</g>
<!-- Node5&#45;&gt;Node6 -->
<g id="edge5" class="edge">
<title>Node5&#45;&gt;Node6</title>
<path fill="none" stroke="midnightblue" d="M524.21,-131.13C532.64,-132.42 541.48,-133.76 550.05,-135.07"/>
<polygon fill="midnightblue" stroke="midnightblue" points="549.53,-138.53 559.95,-136.58 550.59,-131.61 549.53,-138.53"/>
</g>
<!-- Node7 -->
<g id="node7" class="node">
<title>Node7</title>
<g id="a_node7"><a xlink:href="os__memory_8c.html#a01bd9b56dbbeb0af404043ceca5c8818" target="_top" xlink:title="Reads the value of the lower nibble of the given address.">
<polygon fill="white" stroke="black" points="561.5,-95.5 561.5,-114.5 644.5,-114.5 644.5,-95.5 561.5,-95.5"/>
<text text-anchor="middle" x="603" y="-102.5" font-family="FreeSans" font-size="10.00">getLowNibble</text>
</a>
</g>
</g>
<!-- Node5&#45;&gt;Node7 -->
<g id="edge6" class="edge">
<title>Node5&#45;&gt;Node7</title>
<path fill="none" stroke="midnightblue" d="M524.21,-116.87C533.04,-115.52 542.3,-114.11 551.25,-112.75"/>
<polygon fill="midnightblue" stroke="midnightblue" points="551.8,-116.2 561.16,-111.23 550.75,-109.28 551.8,-116.2"/>
</g>
<!-- Node10 -->
<g id="node10" class="node">
<title>Node10</title>
<g id="a_node10"><a xlink:href="os__memory_8c.html#a211f98b56ba22e7ec073c1b09b35d0ff" target="_top" xlink:title="Writes a value from 0x0 to 0xF to the higher nibble of the given address.">
<polygon fill="white" stroke="black" points="433.5,-38.5 433.5,-57.5 519.5,-57.5 519.5,-38.5 433.5,-38.5"/>
<text text-anchor="middle" x="476.5" y="-45.5" font-family="FreeSans" font-size="10.00">setHighNibble</text>
</a>
</g>
</g>
<!-- Node9&#45;&gt;Node10 -->
<g id="edge10" class="edge">
<title>Node9&#45;&gt;Node10</title>
<path fill="none" stroke="midnightblue" d="M365.24,-33.89C382.94,-36.16 404.25,-38.88 423.39,-41.33"/>
<polygon fill="midnightblue" stroke="midnightblue" points="423.11,-44.82 433.47,-42.62 423.99,-37.88 423.11,-44.82"/>
</g>
<!-- Node11 -->
<g id="node11" class="node">
<title>Node11</title>
<g id="a_node11"><a xlink:href="os__memory_8c.html#a79edcf2881c1b78d097495d05e7cec4f" target="_top" xlink:title="Writes a value from 0x0 to 0xF to the lower nibble of the given address.">
<polygon fill="white" stroke="black" points="435,-0.5 435,-19.5 518,-19.5 518,-0.5 435,-0.5"/>
<text text-anchor="middle" x="476.5" y="-7.5" font-family="FreeSans" font-size="10.00">setLowNibble</text>
</a>
</g>
</g>
<!-- Node9&#45;&gt;Node11 -->
<g id="edge11" class="edge">
<title>Node9&#45;&gt;Node11</title>
<path fill="none" stroke="midnightblue" d="M365.24,-24.11C383.39,-21.78 405.33,-18.98 424.84,-16.48"/>
<polygon fill="midnightblue" stroke="midnightblue" points="425.31,-19.95 434.79,-15.21 424.42,-13.01 425.31,-19.95"/>
</g>
</g>
</svg>
