<?xml version="1.0" encoding="UTF-8" standalone="no"?>
<!DOCTYPE svg PUBLIC "-//W3C//DTD SVG 1.1//EN"
 "http://www.w3.org/Graphics/SVG/1.1/DTD/svg11.dtd">
<!-- Generated by graphviz version 2.43.0 (0)
 -->
<!-- Title: os_scheduler.c Pages: 1 -->
<svg width="752pt" height="308pt"
 viewBox="0.00 0.00 751.57 308.00" xmlns="http://www.w3.org/2000/svg" xmlns:xlink="http://www.w3.org/1999/xlink">
<g id="graph0" class="graph" transform="scale(1 1) rotate(0) translate(4 304)">
<title>os_scheduler.c</title>
<polygon fill="white" stroke="transparent" points="-4,4 -4,-304 747.57,-304 747.57,4 -4,4"/>
<!-- Node1 -->
<g id="node1" class="node">
<title>Node1</title>
<g id="a_node1"><a xlink:title=" ">
<polygon fill="#bfbfbf" stroke="black" points="335.07,-280.5 335.07,-299.5 423.07,-299.5 423.07,-280.5 335.07,-280.5"/>
<text text-anchor="middle" x="379.07" y="-287.5" font-family="FreeSans" font-size="10.00">os_scheduler.c</text>
</a>
</g>
</g>
<!-- Node2 -->
<g id="node2" class="node">
<title>Node2</title>
<g id="a_node2"><a xlink:href="os__scheduler_8h.html" target="_top" xlink:title="Scheduling module for the OS.">
<polygon fill="white" stroke="black" points="113.57,-168.5 113.57,-187.5 202.57,-187.5 202.57,-168.5 113.57,-168.5"/>
<text text-anchor="middle" x="158.07" y="-175.5" font-family="FreeSans" font-size="10.00">os_scheduler.h</text>
</a>
</g>
</g>
<!-- Node1&#45;&gt;Node2 -->
<g id="edge1" class="edge">
<title>Node1&#45;&gt;Node2</title>
<path fill="none" stroke="midnightblue" d="M334.6,-286.55C275.88,-282.27 177.32,-271.16 155.07,-244 144.58,-231.19 147.09,-211.73 151.15,-197.44"/>
<polygon fill="midnightblue" stroke="midnightblue" points="154.55,-198.31 154.37,-187.72 147.9,-196.11 154.55,-198.31"/>
</g>
<!-- Node3 -->
<g id="node3" class="node">
<title>Node3</title>
<g id="a_node3"><a xlink:title=" ">
<polygon fill="white" stroke="#bfbfbf" points="73.07,-56.5 73.07,-75.5 135.07,-75.5 135.07,-56.5 73.07,-56.5"/>
<text text-anchor="middle" x="104.07" y="-63.5" font-family="FreeSans" font-size="10.00">stdbool.h</text>
</a>
</g>
</g>
<!-- Node1&#45;&gt;Node3 -->
<g id="edge37" class="edge">
<title>Node1&#45;&gt;Node3</title>
<path fill="none" stroke="midnightblue" d="M334.93,-286.78C242.43,-281.68 35.03,-267.71 14.07,-244 -31.15,-192.86 47.44,-114.93 85.36,-82.25"/>
<polygon fill="midnightblue" stroke="midnightblue" points="87.8,-84.77 93.19,-75.65 83.29,-79.42 87.8,-84.77"/>
</g>
<!-- Node9 -->
<g id="node9" class="node">
<title>Node9</title>
<g id="a_node9"><a xlink:href="util_8h.html" target="_top" xlink:title="Little helpers that don&#39;t fit elsewhere.">
<polygon fill="white" stroke="black" points="364.57,-112.5 364.57,-131.5 405.57,-131.5 405.57,-112.5 364.57,-112.5"/>
<text text-anchor="middle" x="385.07" y="-119.5" font-family="FreeSans" font-size="10.00">util.h</text>
</a>
</g>
</g>
<!-- Node1&#45;&gt;Node9 -->
<g id="edge9" class="edge">
<title>Node1&#45;&gt;Node9</title>
<path fill="none" stroke="midnightblue" d="M379.39,-280.08C380.34,-253.95 383.11,-177.21 384.4,-141.58"/>
<polygon fill="midnightblue" stroke="midnightblue" points="387.9,-141.69 384.76,-131.57 380.9,-141.44 387.9,-141.69"/>
</g>
<!-- Node11 -->
<g id="node11" class="node">
<title>Node11</title>
<g id="a_node11"><a xlink:href="os__input_8h.html" target="_top" xlink:title="Input library for the OS.">
<polygon fill="white" stroke="black" points="407.57,-168.5 407.57,-187.5 474.57,-187.5 474.57,-168.5 407.57,-168.5"/>
<text text-anchor="middle" x="441.07" y="-175.5" font-family="FreeSans" font-size="10.00">os_input.h</text>
</a>
</g>
</g>
<!-- Node1&#45;&gt;Node11 -->
<g id="edge13" class="edge">
<title>Node1&#45;&gt;Node11</title>
<path fill="none" stroke="midnightblue" d="M383.94,-280.37C394.12,-262.3 417.86,-220.18 431.32,-196.31"/>
<polygon fill="midnightblue" stroke="midnightblue" points="434.37,-198.02 436.23,-187.59 428.27,-194.58 434.37,-198.02"/>
</g>
<!-- Node12 -->
<g id="node12" class="node">
<title>Node12</title>
<g id="a_node12"><a xlink:href="os__scheduling__strategies_8h.html" target="_top" xlink:title="Scheduling library for the OS.">
<polygon fill="white" stroke="black" points="164.57,-224.5 164.57,-243.5 313.57,-243.5 313.57,-224.5 164.57,-224.5"/>
<text text-anchor="middle" x="239.07" y="-231.5" font-family="FreeSans" font-size="10.00">os_scheduling_strategies.h</text>
</a>
</g>
</g>
<!-- Node1&#45;&gt;Node12 -->
<g id="edge15" class="edge">
<title>Node1&#45;&gt;Node12</title>
<path fill="none" stroke="midnightblue" d="M356.89,-280.44C333.64,-271.48 296.92,-257.31 270.66,-247.18"/>
<polygon fill="midnightblue" stroke="midnightblue" points="271.74,-243.85 261.15,-243.52 269.22,-250.38 271.74,-243.85"/>
</g>
<!-- Node13 -->
<g id="node13" class="node">
<title>Node13</title>
<g id="a_node13"><a xlink:href="os__taskman_8h.html" target="_top" xlink:title="TaskManager library for the OS.">
<polygon fill="white" stroke="black" points="23.57,-224.5 23.57,-243.5 108.57,-243.5 108.57,-224.5 23.57,-224.5"/>
<text text-anchor="middle" x="66.07" y="-231.5" font-family="FreeSans" font-size="10.00">os_taskman.h</text>
</a>
</g>
</g>
<!-- Node1&#45;&gt;Node13 -->
<g id="edge18" class="edge">
<title>Node1&#45;&gt;Node13</title>
<path fill="none" stroke="midnightblue" d="M334.89,-281.38C278.18,-271.59 179.88,-254.64 119.17,-244.16"/>
<polygon fill="midnightblue" stroke="midnightblue" points="119.47,-240.66 109.02,-242.41 118.28,-247.56 119.47,-240.66"/>
</g>
<!-- Node14 -->
<g id="node14" class="node">
<title>Node14</title>
<g id="a_node14"><a xlink:href="os__core_8h.html" target="_top" xlink:title="Core of the OS.">
<polygon fill="white" stroke="black" points="492.57,-168.5 492.57,-187.5 555.57,-187.5 555.57,-168.5 492.57,-168.5"/>
<text text-anchor="middle" x="524.07" y="-175.5" font-family="FreeSans" font-size="10.00">os_core.h</text>
</a>
</g>
</g>
<!-- Node1&#45;&gt;Node14 -->
<g id="edge20" class="edge">
<title>Node1&#45;&gt;Node14</title>
<path fill="none" stroke="midnightblue" d="M390.45,-280.37C415.12,-261.65 473.78,-217.15 504.52,-193.83"/>
<polygon fill="midnightblue" stroke="midnightblue" points="506.9,-196.42 512.75,-187.59 502.66,-190.85 506.9,-196.42"/>
</g>
<!-- Node15 -->
<g id="node15" class="node">
<title>Node15</title>
<g id="a_node15"><a xlink:href="lcd_8h.html" target="_top" xlink:title="Library for LCD use.">
<polygon fill="white" stroke="black" points="311.07,-168.5 311.07,-187.5 351.07,-187.5 351.07,-168.5 311.07,-168.5"/>
<text text-anchor="middle" x="331.07" y="-175.5" font-family="FreeSans" font-size="10.00">lcd.h</text>
</a>
</g>
</g>
<!-- Node1&#45;&gt;Node15 -->
<g id="edge22" class="edge">
<title>Node1&#45;&gt;Node15</title>
<path fill="none" stroke="midnightblue" d="M375.31,-280.37C367.49,-262.46 349.37,-220.92 338.9,-196.95"/>
<polygon fill="midnightblue" stroke="midnightblue" points="342.03,-195.36 334.82,-187.59 335.61,-198.16 342.03,-195.36"/>
</g>
<!-- Node16 -->
<g id="node16" class="node">
<title>Node16</title>
<g id="a_node16"><a xlink:href="os__memheap__drivers_8h.html" target="_top" xlink:title="Drivers for OS heap management.">
<polygon fill="white" stroke="black" points="612.57,-168.5 612.57,-187.5 743.57,-187.5 743.57,-168.5 612.57,-168.5"/>
<text text-anchor="middle" x="678.07" y="-175.5" font-family="FreeSans" font-size="10.00">os_memheap_drivers.h</text>
</a>
</g>
</g>
<!-- Node1&#45;&gt;Node16 -->
<g id="edge28" class="edge">
<title>Node1&#45;&gt;Node16</title>
<path fill="none" stroke="midnightblue" d="M423.34,-283.08C463.72,-276.68 524.48,-264.54 574.07,-244 590.89,-237.03 631.64,-210.37 656.85,-193.44"/>
<polygon fill="midnightblue" stroke="midnightblue" points="659.03,-196.19 665.36,-187.69 655.12,-190.38 659.03,-196.19"/>
</g>
<!-- Node20 -->
<g id="node20" class="node">
<title>Node20</title>
<g id="a_node20"><a xlink:href="os__memory_8h.html" target="_top" xlink:title="Library for OS memory management.">
<polygon fill="white" stroke="black" points="483.07,-224.5 483.07,-243.5 565.07,-243.5 565.07,-224.5 483.07,-224.5"/>
<text text-anchor="middle" x="524.07" y="-231.5" font-family="FreeSans" font-size="10.00">os_memory.h</text>
</a>
</g>
</g>
<!-- Node1&#45;&gt;Node20 -->
<g id="edge32" class="edge">
<title>Node1&#45;&gt;Node20</title>
<path fill="none" stroke="midnightblue" d="M402.05,-280.44C426.23,-271.44 464.49,-257.19 491.72,-247.05"/>
<polygon fill="midnightblue" stroke="midnightblue" points="493.05,-250.29 501.2,-243.52 490.61,-243.73 493.05,-250.29"/>
</g>
<!-- Node21 -->
<g id="node21" class="node">
<title>Node21</title>
<g id="a_node21"><a xlink:title=" ">
<polygon fill="white" stroke="#bfbfbf" points="621.07,-224.5 621.07,-243.5 707.07,-243.5 707.07,-224.5 621.07,-224.5"/>
<text text-anchor="middle" x="664.07" y="-231.5" font-family="FreeSans" font-size="10.00">avr/interrupt.h</text>
</a>
</g>
</g>
<!-- Node1&#45;&gt;Node21 -->
<g id="edge36" class="edge">
<title>Node1&#45;&gt;Node21</title>
<path fill="none" stroke="midnightblue" d="M423.29,-280.62C473.82,-271.05 556.49,-255.38 610.6,-245.13"/>
<polygon fill="midnightblue" stroke="midnightblue" points="611.51,-248.52 620.68,-243.22 610.21,-241.64 611.51,-248.52"/>
</g>
<!-- Node2&#45;&gt;Node3 -->
<g id="edge2" class="edge">
<title>Node2&#45;&gt;Node3</title>
<path fill="none" stroke="midnightblue" d="M139.99,-168.39C126.51,-160.87 109.1,-148.57 101.07,-132 94.07,-117.55 95.77,-99.1 98.67,-85.55"/>
<polygon fill="midnightblue" stroke="midnightblue" points="102.15,-86.07 101.22,-75.52 95.36,-84.35 102.15,-86.07"/>
</g>
<!-- Node4 -->
<g id="node4" class="node">
<title>Node4</title>
<g id="a_node4"><a xlink:href="defines_8h.html" target="_top" xlink:title="Simple definitions and assembler&#45;macros, mostly 8/16&#45;Bit values.">
<polygon fill="white" stroke="black" points="208.57,-112.5 208.57,-131.5 269.57,-131.5 269.57,-112.5 208.57,-112.5"/>
<text text-anchor="middle" x="239.07" y="-119.5" font-family="FreeSans" font-size="10.00">defines.h</text>
</a>
</g>
</g>
<!-- Node2&#45;&gt;Node4 -->
<g id="edge3" class="edge">
<title>Node2&#45;&gt;Node4</title>
<path fill="none" stroke="midnightblue" d="M171.09,-168.32C183.6,-159.98 202.75,-147.21 217.54,-137.35"/>
<polygon fill="midnightblue" stroke="midnightblue" points="219.71,-140.11 226.09,-131.65 215.83,-134.29 219.71,-140.11"/>
</g>
<!-- Node7 -->
<g id="node7" class="node">
<title>Node7</title>
<g id="a_node7"><a xlink:href="os__process_8h.html" target="_top" xlink:title="Struct specifying a process.">
<polygon fill="white" stroke="black" points="110.07,-112.5 110.07,-131.5 190.07,-131.5 190.07,-112.5 110.07,-112.5"/>
<text text-anchor="middle" x="150.07" y="-119.5" font-family="FreeSans" font-size="10.00">os_process.h</text>
</a>
</g>
</g>
<!-- Node2&#45;&gt;Node7 -->
<g id="edge6" class="edge">
<title>Node2&#45;&gt;Node7</title>
<path fill="none" stroke="midnightblue" d="M156.75,-168.08C155.69,-160.93 154.17,-150.64 152.84,-141.69"/>
<polygon fill="midnightblue" stroke="midnightblue" points="156.3,-141.13 151.37,-131.75 149.37,-142.16 156.3,-141.13"/>
</g>
<!-- Node5 -->
<g id="node5" class="node">
<title>Node5</title>
<g id="a_node5"><a xlink:href="atmega644constants_8h.html" target="_top" xlink:title="Constants for ATMega644 and EVA board. Defines several useful constants for the ATMega644.">
<polygon fill="white" stroke="black" points="175.07,-56.5 175.07,-75.5 303.07,-75.5 303.07,-56.5 175.07,-56.5"/>
<text text-anchor="middle" x="239.07" y="-63.5" font-family="FreeSans" font-size="10.00">atmega644constants.h</text>
</a>
</g>
</g>
<!-- Node4&#45;&gt;Node5 -->
<g id="edge4" class="edge">
<title>Node4&#45;&gt;Node5</title>
<path fill="none" stroke="midnightblue" d="M239.07,-112.08C239.07,-105.01 239.07,-94.86 239.07,-85.99"/>
<polygon fill="midnightblue" stroke="midnightblue" points="242.57,-85.75 239.07,-75.75 235.57,-85.75 242.57,-85.75"/>
</g>
<!-- Node6 -->
<g id="node6" class="node">
<title>Node6</title>
<g id="a_node6"><a xlink:title=" ">
<polygon fill="white" stroke="#bfbfbf" points="212.57,-0.5 212.57,-19.5 265.57,-19.5 265.57,-0.5 212.57,-0.5"/>
<text text-anchor="middle" x="239.07" y="-7.5" font-family="FreeSans" font-size="10.00">avr/io.h</text>
</a>
</g>
</g>
<!-- Node5&#45;&gt;Node6 -->
<g id="edge5" class="edge">
<title>Node5&#45;&gt;Node6</title>
<path fill="none" stroke="midnightblue" d="M239.07,-56.08C239.07,-49.01 239.07,-38.86 239.07,-29.99"/>
<polygon fill="midnightblue" stroke="midnightblue" points="242.57,-29.75 239.07,-19.75 235.57,-29.75 242.57,-29.75"/>
</g>
<!-- Node7&#45;&gt;Node3 -->
<g id="edge8" class="edge">
<title>Node7&#45;&gt;Node3</title>
<path fill="none" stroke="midnightblue" d="M142.48,-112.08C135.84,-104.3 126.05,-92.8 118.01,-83.37"/>
<polygon fill="midnightblue" stroke="midnightblue" points="120.68,-81.09 111.53,-75.75 115.35,-85.63 120.68,-81.09"/>
</g>
<!-- Node8 -->
<g id="node8" class="node">
<title>Node8</title>
<g id="a_node8"><a xlink:title=" ">
<polygon fill="white" stroke="#bfbfbf" points="337.57,-56.5 337.57,-75.5 390.57,-75.5 390.57,-56.5 337.57,-56.5"/>
<text text-anchor="middle" x="364.07" y="-63.5" font-family="FreeSans" font-size="10.00">stdint.h</text>
</a>
</g>
</g>
<!-- Node7&#45;&gt;Node8 -->
<g id="edge7" class="edge">
<title>Node7&#45;&gt;Node8</title>
<path fill="none" stroke="midnightblue" d="M183.98,-112.44C223.12,-102.57 287.25,-86.38 327.49,-76.23"/>
<polygon fill="midnightblue" stroke="midnightblue" points="328.58,-79.57 337.42,-73.73 326.87,-72.78 328.58,-79.57"/>
</g>
<!-- Node9&#45;&gt;Node3 -->
<g id="edge11" class="edge">
<title>Node9&#45;&gt;Node3</title>
<path fill="none" stroke="midnightblue" d="M364.41,-117.03C318.28,-108.16 206.19,-86.62 145.22,-74.91"/>
<polygon fill="midnightblue" stroke="midnightblue" points="145.65,-71.43 135.17,-72.98 144.33,-78.3 145.65,-71.43"/>
</g>
<!-- Node9&#45;&gt;Node8 -->
<g id="edge10" class="edge">
<title>Node9&#45;&gt;Node8</title>
<path fill="none" stroke="midnightblue" d="M381.6,-112.08C378.76,-104.77 374.64,-94.18 371.11,-85.1"/>
<polygon fill="midnightblue" stroke="midnightblue" points="374.36,-83.8 367.48,-75.75 367.84,-86.34 374.36,-83.8"/>
</g>
<!-- Node10 -->
<g id="node10" class="node">
<title>Node10</title>
<g id="a_node10"><a xlink:title=" ">
<polygon fill="white" stroke="#bfbfbf" points="424.57,-56.5 424.57,-75.5 519.57,-75.5 519.57,-56.5 424.57,-56.5"/>
<text text-anchor="middle" x="472.07" y="-63.5" font-family="FreeSans" font-size="10.00">avr/pgmspace.h</text>
</a>
</g>
</g>
<!-- Node9&#45;&gt;Node10 -->
<g id="edge12" class="edge">
<title>Node9&#45;&gt;Node10</title>
<path fill="none" stroke="midnightblue" d="M399.05,-112.32C412.62,-103.9 433.45,-90.97 449.4,-81.07"/>
<polygon fill="midnightblue" stroke="midnightblue" points="451.48,-83.9 458.13,-75.65 447.79,-77.95 451.48,-83.9"/>
</g>
<!-- Node11&#45;&gt;Node8 -->
<g id="edge14" class="edge">
<title>Node11&#45;&gt;Node8</title>
<path fill="none" stroke="midnightblue" d="M438.83,-168.4C435.15,-155.35 426.92,-130.15 414.07,-112 406.04,-100.65 394.65,-90.12 384.78,-82.1"/>
<polygon fill="midnightblue" stroke="midnightblue" points="386.65,-79.12 376.61,-75.75 382.36,-84.65 386.65,-79.12"/>
</g>
<!-- Node12&#45;&gt;Node2 -->
<g id="edge16" class="edge">
<title>Node12&#45;&gt;Node2</title>
<path fill="none" stroke="midnightblue" d="M226.06,-224.32C213.54,-215.98 194.39,-203.21 179.6,-193.35"/>
<polygon fill="midnightblue" stroke="midnightblue" points="181.32,-190.29 171.05,-187.65 177.43,-196.11 181.32,-190.29"/>
</g>
<!-- Node12&#45;&gt;Node4 -->
<g id="edge17" class="edge">
<title>Node12&#45;&gt;Node4</title>
<path fill="none" stroke="midnightblue" d="M239.07,-224.37C239.07,-206.62 239.07,-165.67 239.07,-141.6"/>
<polygon fill="midnightblue" stroke="midnightblue" points="242.57,-141.59 239.07,-131.59 235.57,-141.59 242.57,-141.59"/>
</g>
<!-- Node13&#45;&gt;Node3 -->
<g id="edge19" class="edge">
<title>Node13&#45;&gt;Node3</title>
<path fill="none" stroke="midnightblue" d="M67.91,-224.48C72.2,-204.69 83.22,-154.13 93.07,-112 95.11,-103.28 97.46,-93.63 99.46,-85.51"/>
<polygon fill="midnightblue" stroke="midnightblue" points="102.9,-86.16 101.91,-75.61 96.11,-84.48 102.9,-86.16"/>
</g>
<!-- Node14&#45;&gt;Node10 -->
<g id="edge21" class="edge">
<title>Node14&#45;&gt;Node10</title>
<path fill="none" stroke="midnightblue" d="M519.99,-168.37C511.52,-150.46 491.89,-108.92 480.56,-84.95"/>
<polygon fill="midnightblue" stroke="midnightblue" points="483.57,-83.14 476.13,-75.59 477.24,-86.13 483.57,-83.14"/>
</g>
<!-- Node15&#45;&gt;Node3 -->
<g id="edge23" class="edge">
<title>Node15&#45;&gt;Node3</title>
<path fill="none" stroke="midnightblue" d="M326.47,-168.36C318.52,-154.3 300.87,-126.61 278.07,-112 256.2,-97.98 189.15,-83.16 144.96,-74.51"/>
<polygon fill="midnightblue" stroke="midnightblue" points="145.56,-71.06 135.08,-72.61 144.24,-77.94 145.56,-71.06"/>
</g>
<!-- Node15&#45;&gt;Node4 -->
<g id="edge26" class="edge">
<title>Node15&#45;&gt;Node4</title>
<path fill="none" stroke="midnightblue" d="M316.29,-168.32C301.8,-159.82 279.5,-146.73 262.58,-136.8"/>
<polygon fill="midnightblue" stroke="midnightblue" points="264.21,-133.7 253.82,-131.65 260.67,-139.74 264.21,-133.7"/>
</g>
<!-- Node15&#45;&gt;Node8 -->
<g id="edge24" class="edge">
<title>Node15&#45;&gt;Node8</title>
<path fill="none" stroke="midnightblue" d="M333.66,-168.37C339.01,-150.54 351.38,-109.3 358.59,-85.27"/>
<polygon fill="midnightblue" stroke="midnightblue" points="361.97,-86.18 361.49,-75.59 355.27,-84.16 361.97,-86.18"/>
</g>
<!-- Node15&#45;&gt;Node9 -->
<g id="edge27" class="edge">
<title>Node15&#45;&gt;Node9</title>
<path fill="none" stroke="midnightblue" d="M339.99,-168.08C347.85,-160.22 359.5,-148.57 368.99,-139.08"/>
<polygon fill="midnightblue" stroke="midnightblue" points="371.72,-141.3 376.32,-131.75 366.77,-136.35 371.72,-141.3"/>
</g>
<!-- Node15&#45;&gt;Node10 -->
<g id="edge25" class="edge">
<title>Node15&#45;&gt;Node10</title>
<path fill="none" stroke="midnightblue" d="M351.36,-168.41C368.94,-160.43 394.54,-147.46 414.07,-132 431.78,-117.99 448.56,-98.21 459.47,-84.16"/>
<polygon fill="midnightblue" stroke="midnightblue" points="462.5,-85.96 465.75,-75.87 456.92,-81.73 462.5,-85.96"/>
</g>
<!-- Node17 -->
<g id="node17" class="node">
<title>Node17</title>
<g id="a_node17"><a xlink:href="os__mem__drivers_8h.html" target="_top" xlink:title="Drivers for OS memory management.">
<polygon fill="white" stroke="black" points="538.57,-112.5 538.57,-131.5 645.57,-131.5 645.57,-112.5 538.57,-112.5"/>
<text text-anchor="middle" x="592.07" y="-119.5" font-family="FreeSans" font-size="10.00">os_mem_drivers.h</text>
</a>
</g>
</g>
<!-- Node16&#45;&gt;Node17 -->
<g id="edge29" class="edge">
<title>Node16&#45;&gt;Node17</title>
<path fill="none" stroke="midnightblue" d="M664.25,-168.32C650.84,-159.9 630.25,-146.97 614.49,-137.07"/>
<polygon fill="midnightblue" stroke="midnightblue" points="616.19,-134.01 605.86,-131.65 612.46,-139.94 616.19,-134.01"/>
</g>
<!-- Node19 -->
<g id="node19" class="node">
<title>Node19</title>
<g id="a_node19"><a xlink:title=" ">
<polygon fill="white" stroke="#bfbfbf" points="664.07,-112.5 664.07,-131.5 720.07,-131.5 720.07,-112.5 664.07,-112.5"/>
<text text-anchor="middle" x="692.07" y="-119.5" font-family="FreeSans" font-size="10.00">stddef.h</text>
</a>
</g>
</g>
<!-- Node16&#45;&gt;Node19 -->
<g id="edge31" class="edge">
<title>Node16&#45;&gt;Node19</title>
<path fill="none" stroke="midnightblue" d="M680.38,-168.08C682.24,-160.93 684.91,-150.64 687.23,-141.69"/>
<polygon fill="midnightblue" stroke="midnightblue" points="690.68,-142.31 689.8,-131.75 683.91,-140.55 690.68,-142.31"/>
</g>
<!-- Node18 -->
<g id="node18" class="node">
<title>Node18</title>
<g id="a_node18"><a xlink:title=" ">
<polygon fill="white" stroke="#bfbfbf" points="559.57,-56.5 559.57,-75.5 624.57,-75.5 624.57,-56.5 559.57,-56.5"/>
<text text-anchor="middle" x="592.07" y="-63.5" font-family="FreeSans" font-size="10.00">inttypes.h</text>
</a>
</g>
</g>
<!-- Node17&#45;&gt;Node18 -->
<g id="edge30" class="edge">
<title>Node17&#45;&gt;Node18</title>
<path fill="none" stroke="midnightblue" d="M592.07,-112.08C592.07,-105.01 592.07,-94.86 592.07,-85.99"/>
<polygon fill="midnightblue" stroke="midnightblue" points="595.57,-85.75 592.07,-75.75 588.57,-85.75 595.57,-85.75"/>
</g>
<!-- Node20&#45;&gt;Node2 -->
<g id="edge35" class="edge">
<title>Node20&#45;&gt;Node2</title>
<path fill="none" stroke="midnightblue" d="M482.8,-226.91C416.56,-217.14 286.47,-197.94 212.64,-187.05"/>
<polygon fill="midnightblue" stroke="midnightblue" points="213.01,-183.57 202.61,-185.57 211.99,-190.49 213.01,-183.57"/>
</g>
<!-- Node20&#45;&gt;Node16 -->
<g id="edge34" class="edge">
<title>Node20&#45;&gt;Node16</title>
<path fill="none" stroke="midnightblue" d="M548.47,-224.44C574.27,-215.4 615.15,-201.06 644.09,-190.92"/>
<polygon fill="midnightblue" stroke="midnightblue" points="645.51,-194.13 653.78,-187.52 643.19,-187.52 645.51,-194.13"/>
</g>
<!-- Node20&#45;&gt;Node17 -->
<g id="edge33" class="edge">
<title>Node20&#45;&gt;Node17</title>
<path fill="none" stroke="midnightblue" d="M533.56,-224.46C542.59,-215.93 556.11,-202.09 565.07,-188 574.38,-173.35 581.67,-154.95 586.32,-141.47"/>
<polygon fill="midnightblue" stroke="midnightblue" points="589.67,-142.47 589.47,-131.88 583.02,-140.29 589.67,-142.47"/>
</g>
</g>
</svg>
