<?xml version="1.0" encoding="UTF-8" standalone="no"?>
<!DOCTYPE svg PUBLIC "-//W3C//DTD SVG 1.1//EN"
 "http://www.w3.org/Graphics/SVG/1.1/DTD/svg11.dtd">
<!-- Generated by graphviz version 2.43.0 (0)
 -->
<!-- Title: os_getFirstByteOfChunk Pages: 1 -->
<svg width="395pt" height="66pt"
 viewBox="0.00 0.00 395.00 66.00" xmlns="http://www.w3.org/2000/svg" xmlns:xlink="http://www.w3.org/1999/xlink">
<g id="graph0" class="graph" transform="scale(1 1) rotate(0) translate(4 62)">
<title>os_getFirstByteOfChunk</title>
<polygon fill="white" stroke="transparent" points="-4,4 -4,-62 391,-62 391,4 -4,4"/>
<!-- Node1 -->
<g id="node1" class="node">
<title>Node1</title>
<g id="a_node1"><a xlink:title="Get the address of the first byte of chunk.">
<polygon fill="#bfbfbf" stroke="black" points="0,-19.5 0,-38.5 134,-38.5 134,-19.5 0,-19.5"/>
<text text-anchor="middle" x="67" y="-26.5" font-family="FreeSans" font-size="10.00">os_getFirstByteOfChunk</text>
</a>
</g>
</g>
<!-- Node2 -->
<g id="node2" class="node">
<title>Node2</title>
<g id="a_node2"><a xlink:href="os__memory_8c.html#a29ccc3e0a668c0be4b285bc74ef6d920" target="_top" xlink:title="Function used to get the value of a single map entry, this is made public so the allocation strategie...">
<polygon fill="white" stroke="black" points="170,-19.5 170,-38.5 265,-38.5 265,-19.5 170,-19.5"/>
<text text-anchor="middle" x="217.5" y="-26.5" font-family="FreeSans" font-size="10.00">os_getMapEntry</text>
</a>
</g>
</g>
<!-- Node1&#45;&gt;Node2 -->
<g id="edge1" class="edge">
<title>Node1&#45;&gt;Node2</title>
<path fill="none" stroke="midnightblue" d="M134.43,-29C142.79,-29 151.29,-29 159.49,-29"/>
<polygon fill="midnightblue" stroke="midnightblue" points="159.68,-32.5 169.68,-29 159.68,-25.5 159.68,-32.5"/>
</g>
<!-- Node3 -->
<g id="node3" class="node">
<title>Node3</title>
<g id="a_node3"><a xlink:href="os__memory_8c.html#ae420976ba4abbd069aff795935b9636c" target="_top" xlink:title="Reads the value of the higher nibble of the given address.">
<polygon fill="white" stroke="black" points="301,-38.5 301,-57.5 387,-57.5 387,-38.5 301,-38.5"/>
<text text-anchor="middle" x="344" y="-45.5" font-family="FreeSans" font-size="10.00">getHighNibble</text>
</a>
</g>
</g>
<!-- Node2&#45;&gt;Node3 -->
<g id="edge2" class="edge">
<title>Node2&#45;&gt;Node3</title>
<path fill="none" stroke="midnightblue" d="M265.21,-36.13C273.64,-37.42 282.48,-38.76 291.05,-40.07"/>
<polygon fill="midnightblue" stroke="midnightblue" points="290.53,-43.53 300.95,-41.58 291.59,-36.61 290.53,-43.53"/>
</g>
<!-- Node4 -->
<g id="node4" class="node">
<title>Node4</title>
<g id="a_node4"><a xlink:href="os__memory_8c.html#a01bd9b56dbbeb0af404043ceca5c8818" target="_top" xlink:title="Reads the value of the lower nibble of the given address.">
<polygon fill="white" stroke="black" points="302.5,-0.5 302.5,-19.5 385.5,-19.5 385.5,-0.5 302.5,-0.5"/>
<text text-anchor="middle" x="344" y="-7.5" font-family="FreeSans" font-size="10.00">getLowNibble</text>
</a>
</g>
</g>
<!-- Node2&#45;&gt;Node4 -->
<g id="edge3" class="edge">
<title>Node2&#45;&gt;Node4</title>
<path fill="none" stroke="midnightblue" d="M265.21,-21.87C274.04,-20.52 283.3,-19.11 292.25,-17.75"/>
<polygon fill="midnightblue" stroke="midnightblue" points="292.8,-21.2 302.16,-16.23 291.75,-14.28 292.8,-21.2"/>
</g>
</g>
</svg>
