<?xml version="1.0" encoding="UTF-8" standalone="no"?>
<!DOCTYPE svg PUBLIC "-//W3C//DTD SVG 1.1//EN"
 "http://www.w3.org/Graphics/SVG/1.1/DTD/svg11.dtd">
<!-- Generated by graphviz version 2.43.0 (0)
 -->
<!-- Title: os_memory.c Pages: 1 -->
<svg width="598pt" height="308pt"
 viewBox="0.00 0.00 597.50 308.00" xmlns="http://www.w3.org/2000/svg" xmlns:xlink="http://www.w3.org/1999/xlink">
<g id="graph0" class="graph" transform="scale(1 1) rotate(0) translate(4 304)">
<title>os_memory.c</title>
<polygon fill="white" stroke="transparent" points="-4,4 -4,-304 593.5,-304 593.5,4 -4,4"/>
<!-- Node1 -->
<g id="node1" class="node">
<title>Node1</title>
<g id="a_node1"><a xlink:title=" ">
<polygon fill="#bfbfbf" stroke="black" points="308.5,-280.5 308.5,-299.5 389.5,-299.5 389.5,-280.5 308.5,-280.5"/>
<text text-anchor="middle" x="349" y="-287.5" font-family="FreeSans" font-size="10.00">os_memory.c</text>
</a>
</g>
</g>
<!-- Node2 -->
<g id="node2" class="node">
<title>Node2</title>
<g id="a_node2"><a xlink:href="os__memory_8h.html" target="_top" xlink:title="Library for OS memory management.">
<polygon fill="white" stroke="black" points="243,-224.5 243,-243.5 325,-243.5 325,-224.5 243,-224.5"/>
<text text-anchor="middle" x="284" y="-231.5" font-family="FreeSans" font-size="10.00">os_memory.h</text>
</a>
</g>
</g>
<!-- Node1&#45;&gt;Node2 -->
<g id="edge1" class="edge">
<title>Node1&#45;&gt;Node2</title>
<path fill="none" stroke="midnightblue" d="M338.56,-280.32C328.85,-272.26 314.18,-260.08 302.5,-250.37"/>
<polygon fill="midnightblue" stroke="midnightblue" points="304.56,-247.53 294.63,-243.83 300.09,-252.92 304.56,-247.53"/>
</g>
<!-- Node14 -->
<g id="node14" class="node">
<title>Node14</title>
<g id="a_node14"><a xlink:href="os__memory__strategies_8h.html" target="_top" xlink:title="Memory allocation library for the OS.">
<polygon fill="white" stroke="black" points="68.5,-224.5 68.5,-243.5 205.5,-243.5 205.5,-224.5 68.5,-224.5"/>
<text text-anchor="middle" x="137" y="-231.5" font-family="FreeSans" font-size="10.00">os_memory_strategies.h</text>
</a>
</g>
</g>
<!-- Node1&#45;&gt;Node14 -->
<g id="edge15" class="edge">
<title>Node1&#45;&gt;Node14</title>
<path fill="none" stroke="midnightblue" d="M315.41,-280.44C278.81,-271.12 220.16,-256.18 180.17,-246"/>
<polygon fill="midnightblue" stroke="midnightblue" points="180.99,-242.59 170.43,-243.52 179.26,-249.38 180.99,-242.59"/>
</g>
<!-- Node15 -->
<g id="node15" class="node">
<title>Node15</title>
<g id="a_node15"><a xlink:href="util_8h.html" target="_top" xlink:title="Little helpers that don&#39;t fit elsewhere.">
<polygon fill="white" stroke="black" points="418.5,-224.5 418.5,-243.5 459.5,-243.5 459.5,-224.5 418.5,-224.5"/>
<text text-anchor="middle" x="439" y="-231.5" font-family="FreeSans" font-size="10.00">util.h</text>
</a>
</g>
</g>
<!-- Node1&#45;&gt;Node15 -->
<g id="edge17" class="edge">
<title>Node1&#45;&gt;Node15</title>
<path fill="none" stroke="midnightblue" d="M363.46,-280.32C377.5,-271.9 399.05,-258.97 415.54,-249.07"/>
<polygon fill="midnightblue" stroke="midnightblue" points="417.8,-251.8 424.58,-243.65 414.2,-245.8 417.8,-251.8"/>
</g>
<!-- Node17 -->
<g id="node17" class="node">
<title>Node17</title>
<g id="a_node17"><a xlink:href="os__core_8h.html" target="_top" xlink:title="Core of the OS.">
<polygon fill="white" stroke="black" points="499.5,-224.5 499.5,-243.5 562.5,-243.5 562.5,-224.5 499.5,-224.5"/>
<text text-anchor="middle" x="531" y="-231.5" font-family="FreeSans" font-size="10.00">os_core.h</text>
</a>
</g>
</g>
<!-- Node1&#45;&gt;Node17 -->
<g id="edge21" class="edge">
<title>Node1&#45;&gt;Node17</title>
<path fill="none" stroke="midnightblue" d="M377.84,-280.44C408.86,-271.24 458.33,-256.56 492.62,-246.39"/>
<polygon fill="midnightblue" stroke="midnightblue" points="493.71,-249.72 502.3,-243.52 491.71,-243.01 493.71,-249.72"/>
</g>
<!-- Node3 -->
<g id="node3" class="node">
<title>Node3</title>
<g id="a_node3"><a xlink:href="os__mem__drivers_8h.html" target="_top" xlink:title="Drivers for OS memory management.">
<polygon fill="white" stroke="black" points="74.5,-112.5 74.5,-131.5 181.5,-131.5 181.5,-112.5 74.5,-112.5"/>
<text text-anchor="middle" x="128" y="-119.5" font-family="FreeSans" font-size="10.00">os_mem_drivers.h</text>
</a>
</g>
</g>
<!-- Node2&#45;&gt;Node3 -->
<g id="edge2" class="edge">
<title>Node2&#45;&gt;Node3</title>
<path fill="none" stroke="midnightblue" d="M273.8,-224.41C258.42,-211.59 228.18,-186.93 201,-168 185.07,-156.9 166.42,-145.43 151.96,-136.85"/>
<polygon fill="midnightblue" stroke="midnightblue" points="153.53,-133.71 143.13,-131.66 149.98,-139.74 153.53,-133.71"/>
</g>
<!-- Node5 -->
<g id="node5" class="node">
<title>Node5</title>
<g id="a_node5"><a xlink:href="os__memheap__drivers_8h.html" target="_top" xlink:title="Drivers for OS heap management.">
<polygon fill="white" stroke="black" points="61.5,-168.5 61.5,-187.5 192.5,-187.5 192.5,-168.5 61.5,-168.5"/>
<text text-anchor="middle" x="127" y="-175.5" font-family="FreeSans" font-size="10.00">os_memheap_drivers.h</text>
</a>
</g>
</g>
<!-- Node2&#45;&gt;Node5 -->
<g id="edge4" class="edge">
<title>Node2&#45;&gt;Node5</title>
<path fill="none" stroke="midnightblue" d="M259.12,-224.44C232.71,-215.36 190.78,-200.94 161.26,-190.78"/>
<polygon fill="midnightblue" stroke="midnightblue" points="162.36,-187.46 151.76,-187.52 160.08,-194.08 162.36,-187.46"/>
</g>
<!-- Node7 -->
<g id="node7" class="node">
<title>Node7</title>
<g id="a_node7"><a xlink:href="os__scheduler_8h.html" target="_top" xlink:title="Scheduling module for the OS.">
<polygon fill="white" stroke="black" points="249.5,-168.5 249.5,-187.5 338.5,-187.5 338.5,-168.5 249.5,-168.5"/>
<text text-anchor="middle" x="294" y="-175.5" font-family="FreeSans" font-size="10.00">os_scheduler.h</text>
</a>
</g>
</g>
<!-- Node2&#45;&gt;Node7 -->
<g id="edge7" class="edge">
<title>Node2&#45;&gt;Node7</title>
<path fill="none" stroke="midnightblue" d="M285.65,-224.08C286.98,-216.93 288.88,-206.64 290.54,-197.69"/>
<polygon fill="midnightblue" stroke="midnightblue" points="294,-198.22 292.38,-187.75 287.12,-196.95 294,-198.22"/>
</g>
<!-- Node4 -->
<g id="node4" class="node">
<title>Node4</title>
<g id="a_node4"><a xlink:title=" ">
<polygon fill="white" stroke="#bfbfbf" points="90.5,-56.5 90.5,-75.5 155.5,-75.5 155.5,-56.5 90.5,-56.5"/>
<text text-anchor="middle" x="123" y="-63.5" font-family="FreeSans" font-size="10.00">inttypes.h</text>
</a>
</g>
</g>
<!-- Node3&#45;&gt;Node4 -->
<g id="edge3" class="edge">
<title>Node3&#45;&gt;Node4</title>
<path fill="none" stroke="midnightblue" d="M127.17,-112.08C126.52,-105.01 125.58,-94.86 124.76,-85.99"/>
<polygon fill="midnightblue" stroke="midnightblue" points="128.22,-85.39 123.81,-75.75 121.25,-86.03 128.22,-85.39"/>
</g>
<!-- Node5&#45;&gt;Node3 -->
<g id="edge5" class="edge">
<title>Node5&#45;&gt;Node3</title>
<path fill="none" stroke="midnightblue" d="M127.17,-168.08C127.3,-161.01 127.48,-150.86 127.65,-141.99"/>
<polygon fill="midnightblue" stroke="midnightblue" points="131.15,-141.81 127.84,-131.75 124.15,-141.68 131.15,-141.81"/>
</g>
<!-- Node6 -->
<g id="node6" class="node">
<title>Node6</title>
<g id="a_node6"><a xlink:title=" ">
<polygon fill="white" stroke="#bfbfbf" points="0,-112.5 0,-131.5 56,-131.5 56,-112.5 0,-112.5"/>
<text text-anchor="middle" x="28" y="-119.5" font-family="FreeSans" font-size="10.00">stddef.h</text>
</a>
</g>
</g>
<!-- Node5&#45;&gt;Node6 -->
<g id="edge6" class="edge">
<title>Node5&#45;&gt;Node6</title>
<path fill="none" stroke="midnightblue" d="M111.09,-168.32C95.36,-159.74 71.06,-146.49 52.79,-136.52"/>
<polygon fill="midnightblue" stroke="midnightblue" points="54.32,-133.37 43.87,-131.65 50.97,-139.52 54.32,-133.37"/>
</g>
<!-- Node8 -->
<g id="node8" class="node">
<title>Node8</title>
<g id="a_node8"><a xlink:title=" ">
<polygon fill="white" stroke="#bfbfbf" points="329,-56.5 329,-75.5 391,-75.5 391,-56.5 329,-56.5"/>
<text text-anchor="middle" x="360" y="-63.5" font-family="FreeSans" font-size="10.00">stdbool.h</text>
</a>
</g>
</g>
<!-- Node7&#45;&gt;Node8 -->
<g id="edge8" class="edge">
<title>Node7&#45;&gt;Node8</title>
<path fill="none" stroke="midnightblue" d="M294.7,-168.41C296.08,-155.37 300.05,-130.19 311,-112 318,-100.37 328.91,-89.93 338.65,-82.04"/>
<polygon fill="midnightblue" stroke="midnightblue" points="340.99,-84.66 346.79,-75.8 336.73,-79.11 340.99,-84.66"/>
</g>
<!-- Node9 -->
<g id="node9" class="node">
<title>Node9</title>
<g id="a_node9"><a xlink:href="defines_8h.html" target="_top" xlink:title="Simple definitions and assembler&#45;macros, mostly 8/16&#45;Bit values.">
<polygon fill="white" stroke="black" points="202.5,-112.5 202.5,-131.5 263.5,-131.5 263.5,-112.5 202.5,-112.5"/>
<text text-anchor="middle" x="233" y="-119.5" font-family="FreeSans" font-size="10.00">defines.h</text>
</a>
</g>
</g>
<!-- Node7&#45;&gt;Node9 -->
<g id="edge9" class="edge">
<title>Node7&#45;&gt;Node9</title>
<path fill="none" stroke="midnightblue" d="M284.2,-168.32C275.18,-160.34 261.59,-148.31 250.68,-138.65"/>
<polygon fill="midnightblue" stroke="midnightblue" points="252.79,-135.84 242.98,-131.83 248.15,-141.08 252.79,-135.84"/>
</g>
<!-- Node12 -->
<g id="node12" class="node">
<title>Node12</title>
<g id="a_node12"><a xlink:href="os__process_8h.html" target="_top" xlink:title="Struct specifying a process.">
<polygon fill="white" stroke="black" points="320,-112.5 320,-131.5 400,-131.5 400,-112.5 320,-112.5"/>
<text text-anchor="middle" x="360" y="-119.5" font-family="FreeSans" font-size="10.00">os_process.h</text>
</a>
</g>
</g>
<!-- Node7&#45;&gt;Node12 -->
<g id="edge12" class="edge">
<title>Node7&#45;&gt;Node12</title>
<path fill="none" stroke="midnightblue" d="M304.6,-168.32C314.46,-160.26 329.35,-148.08 341.22,-138.37"/>
<polygon fill="midnightblue" stroke="midnightblue" points="343.68,-140.88 349.2,-131.83 339.25,-135.46 343.68,-140.88"/>
</g>
<!-- Node10 -->
<g id="node10" class="node">
<title>Node10</title>
<g id="a_node10"><a xlink:href="atmega644constants_8h.html" target="_top" xlink:title="Constants for ATMega644 and EVA board. Defines several useful constants for the ATMega644.">
<polygon fill="white" stroke="black" points="174,-56.5 174,-75.5 302,-75.5 302,-56.5 174,-56.5"/>
<text text-anchor="middle" x="238" y="-63.5" font-family="FreeSans" font-size="10.00">atmega644constants.h</text>
</a>
</g>
</g>
<!-- Node9&#45;&gt;Node10 -->
<g id="edge10" class="edge">
<title>Node9&#45;&gt;Node10</title>
<path fill="none" stroke="midnightblue" d="M233.83,-112.08C234.48,-105.01 235.42,-94.86 236.24,-85.99"/>
<polygon fill="midnightblue" stroke="midnightblue" points="239.75,-86.03 237.19,-75.75 232.78,-85.39 239.75,-86.03"/>
</g>
<!-- Node11 -->
<g id="node11" class="node">
<title>Node11</title>
<g id="a_node11"><a xlink:title=" ">
<polygon fill="white" stroke="#bfbfbf" points="211.5,-0.5 211.5,-19.5 264.5,-19.5 264.5,-0.5 211.5,-0.5"/>
<text text-anchor="middle" x="238" y="-7.5" font-family="FreeSans" font-size="10.00">avr/io.h</text>
</a>
</g>
</g>
<!-- Node10&#45;&gt;Node11 -->
<g id="edge11" class="edge">
<title>Node10&#45;&gt;Node11</title>
<path fill="none" stroke="midnightblue" d="M238,-56.08C238,-49.01 238,-38.86 238,-29.99"/>
<polygon fill="midnightblue" stroke="midnightblue" points="241.5,-29.75 238,-19.75 234.5,-29.75 241.5,-29.75"/>
</g>
<!-- Node12&#45;&gt;Node8 -->
<g id="edge14" class="edge">
<title>Node12&#45;&gt;Node8</title>
<path fill="none" stroke="midnightblue" d="M360,-112.08C360,-105.01 360,-94.86 360,-85.99"/>
<polygon fill="midnightblue" stroke="midnightblue" points="363.5,-85.75 360,-75.75 356.5,-85.75 363.5,-85.75"/>
</g>
<!-- Node13 -->
<g id="node13" class="node">
<title>Node13</title>
<g id="a_node13"><a xlink:title=" ">
<polygon fill="white" stroke="#bfbfbf" points="424.5,-56.5 424.5,-75.5 477.5,-75.5 477.5,-56.5 424.5,-56.5"/>
<text text-anchor="middle" x="451" y="-63.5" font-family="FreeSans" font-size="10.00">stdint.h</text>
</a>
</g>
</g>
<!-- Node12&#45;&gt;Node13 -->
<g id="edge13" class="edge">
<title>Node12&#45;&gt;Node13</title>
<path fill="none" stroke="midnightblue" d="M374.62,-112.32C388.95,-103.82 411.01,-90.73 427.75,-80.8"/>
<polygon fill="midnightblue" stroke="midnightblue" points="429.6,-83.77 436.42,-75.65 426.03,-77.75 429.6,-83.77"/>
</g>
<!-- Node14&#45;&gt;Node5 -->
<g id="edge16" class="edge">
<title>Node14&#45;&gt;Node5</title>
<path fill="none" stroke="midnightblue" d="M135.35,-224.08C134.02,-216.93 132.12,-206.64 130.46,-197.69"/>
<polygon fill="midnightblue" stroke="midnightblue" points="133.88,-196.95 128.62,-187.75 127,-198.22 133.88,-196.95"/>
</g>
<!-- Node15&#45;&gt;Node8 -->
<g id="edge19" class="edge">
<title>Node15&#45;&gt;Node8</title>
<path fill="none" stroke="midnightblue" d="M438.56,-224.45C437.15,-203.73 431.42,-149.79 409,-112 402.07,-100.32 391.17,-89.88 381.41,-82"/>
<polygon fill="midnightblue" stroke="midnightblue" points="383.33,-79.06 373.25,-75.77 379.08,-84.62 383.33,-79.06"/>
</g>
<!-- Node15&#45;&gt;Node13 -->
<g id="edge18" class="edge">
<title>Node15&#45;&gt;Node13</title>
<path fill="none" stroke="midnightblue" d="M439.65,-224.08C441.53,-197.95 447.08,-121.21 449.66,-85.58"/>
<polygon fill="midnightblue" stroke="midnightblue" points="453.15,-85.79 450.38,-75.57 446.17,-85.29 453.15,-85.79"/>
</g>
<!-- Node16 -->
<g id="node16" class="node">
<title>Node16</title>
<g id="a_node16"><a xlink:title=" ">
<polygon fill="white" stroke="#bfbfbf" points="494.5,-168.5 494.5,-187.5 589.5,-187.5 589.5,-168.5 494.5,-168.5"/>
<text text-anchor="middle" x="542" y="-175.5" font-family="FreeSans" font-size="10.00">avr/pgmspace.h</text>
</a>
</g>
</g>
<!-- Node15&#45;&gt;Node16 -->
<g id="edge20" class="edge">
<title>Node15&#45;&gt;Node16</title>
<path fill="none" stroke="midnightblue" d="M455.55,-224.32C471.99,-215.7 497.43,-202.36 516.47,-192.39"/>
<polygon fill="midnightblue" stroke="midnightblue" points="518.26,-195.4 525.49,-187.65 515.01,-189.2 518.26,-195.4"/>
</g>
<!-- Node17&#45;&gt;Node16 -->
<g id="edge22" class="edge">
<title>Node17&#45;&gt;Node16</title>
<path fill="none" stroke="midnightblue" d="M532.82,-224.08C534.27,-216.93 536.37,-206.64 538.19,-197.69"/>
<polygon fill="midnightblue" stroke="midnightblue" points="541.65,-198.25 540.22,-187.75 534.79,-196.85 541.65,-198.25"/>
</g>
</g>
</svg>
