<?xml version="1.0" encoding="UTF-8" standalone="no"?>
<!DOCTYPE svg PUBLIC "-//W3C//DTD SVG 1.1//EN"
 "http://www.w3.org/Graphics/SVG/1.1/DTD/svg11.dtd">
<!-- Generated by graphviz version 2.43.0 (0)
 -->
<!-- Title: os_memory_strategies.c Pages: 1 -->
<svg width="518pt" height="308pt"
 viewBox="0.00 0.00 517.50 308.00" xmlns="http://www.w3.org/2000/svg" xmlns:xlink="http://www.w3.org/1999/xlink">
<g id="graph0" class="graph" transform="scale(1 1) rotate(0) translate(4 304)">
<title>os_memory_strategies.c</title>
<polygon fill="white" stroke="transparent" points="-4,4 -4,-304 513.5,-304 513.5,4 -4,4"/>
<!-- Node1 -->
<g id="node1" class="node">
<title>Node1</title>
<g id="a_node1"><a xlink:title=" ">
<polygon fill="#bfbfbf" stroke="black" points="64,-280.5 64,-299.5 201,-299.5 201,-280.5 64,-280.5"/>
<text text-anchor="middle" x="132.5" y="-287.5" font-family="FreeSans" font-size="10.00">os_memory_strategies.c</text>
</a>
</g>
</g>
<!-- Node2 -->
<g id="node2" class="node">
<title>Node2</title>
<g id="a_node2"><a xlink:href="os__memory__strategies_8h.html" target="_top" xlink:title="Memory allocation library for the OS.">
<polygon fill="white" stroke="black" points="0,-224.5 0,-243.5 137,-243.5 137,-224.5 0,-224.5"/>
<text text-anchor="middle" x="68.5" y="-231.5" font-family="FreeSans" font-size="10.00">os_memory_strategies.h</text>
</a>
</g>
</g>
<!-- Node1&#45;&gt;Node2 -->
<g id="edge1" class="edge">
<title>Node1&#45;&gt;Node2</title>
<path fill="none" stroke="midnightblue" d="M122.22,-280.32C112.66,-272.26 98.22,-260.08 86.72,-250.37"/>
<polygon fill="midnightblue" stroke="midnightblue" points="88.87,-247.61 78.97,-243.83 84.36,-252.96 88.87,-247.61"/>
</g>
<!-- Node7 -->
<g id="node7" class="node">
<title>Node7</title>
<g id="a_node7"><a xlink:href="os__memory_8h.html" target="_top" xlink:title="Library for OS memory management.">
<polygon fill="white" stroke="black" points="155.5,-224.5 155.5,-243.5 237.5,-243.5 237.5,-224.5 155.5,-224.5"/>
<text text-anchor="middle" x="196.5" y="-231.5" font-family="FreeSans" font-size="10.00">os_memory.h</text>
</a>
</g>
</g>
<!-- Node1&#45;&gt;Node7 -->
<g id="edge6" class="edge">
<title>Node1&#45;&gt;Node7</title>
<path fill="none" stroke="midnightblue" d="M142.78,-280.32C152.34,-272.26 166.78,-260.08 178.28,-250.37"/>
<polygon fill="midnightblue" stroke="midnightblue" points="180.64,-252.96 186.03,-243.83 176.13,-247.61 180.64,-252.96"/>
</g>
<!-- Node3 -->
<g id="node3" class="node">
<title>Node3</title>
<g id="a_node3"><a xlink:href="os__memheap__drivers_8h.html" target="_top" xlink:title="Drivers for OS heap management.">
<polygon fill="white" stroke="black" points="20,-168.5 20,-187.5 151,-187.5 151,-168.5 20,-168.5"/>
<text text-anchor="middle" x="85.5" y="-175.5" font-family="FreeSans" font-size="10.00">os_memheap_drivers.h</text>
</a>
</g>
</g>
<!-- Node2&#45;&gt;Node3 -->
<g id="edge2" class="edge">
<title>Node2&#45;&gt;Node3</title>
<path fill="none" stroke="midnightblue" d="M71.31,-224.08C73.58,-216.85 76.87,-206.41 79.71,-197.4"/>
<polygon fill="midnightblue" stroke="midnightblue" points="83.08,-198.34 82.75,-187.75 76.4,-196.24 83.08,-198.34"/>
</g>
<!-- Node4 -->
<g id="node4" class="node">
<title>Node4</title>
<g id="a_node4"><a xlink:href="os__mem__drivers_8h.html" target="_top" xlink:title="Drivers for OS memory management.">
<polygon fill="white" stroke="black" points="125,-112.5 125,-131.5 232,-131.5 232,-112.5 125,-112.5"/>
<text text-anchor="middle" x="178.5" y="-119.5" font-family="FreeSans" font-size="10.00">os_mem_drivers.h</text>
</a>
</g>
</g>
<!-- Node3&#45;&gt;Node4 -->
<g id="edge3" class="edge">
<title>Node3&#45;&gt;Node4</title>
<path fill="none" stroke="midnightblue" d="M100.44,-168.32C115.09,-159.82 137.63,-146.73 154.74,-136.8"/>
<polygon fill="midnightblue" stroke="midnightblue" points="156.7,-139.7 163.6,-131.65 153.19,-133.65 156.7,-139.7"/>
</g>
<!-- Node6 -->
<g id="node6" class="node">
<title>Node6</title>
<g id="a_node6"><a xlink:title=" ">
<polygon fill="white" stroke="#bfbfbf" points="50.5,-112.5 50.5,-131.5 106.5,-131.5 106.5,-112.5 50.5,-112.5"/>
<text text-anchor="middle" x="78.5" y="-119.5" font-family="FreeSans" font-size="10.00">stddef.h</text>
</a>
</g>
</g>
<!-- Node3&#45;&gt;Node6 -->
<g id="edge5" class="edge">
<title>Node3&#45;&gt;Node6</title>
<path fill="none" stroke="midnightblue" d="M84.34,-168.08C83.42,-160.93 82.08,-150.64 80.92,-141.69"/>
<polygon fill="midnightblue" stroke="midnightblue" points="84.39,-141.22 79.63,-131.75 77.45,-142.12 84.39,-141.22"/>
</g>
<!-- Node5 -->
<g id="node5" class="node">
<title>Node5</title>
<g id="a_node5"><a xlink:title=" ">
<polygon fill="white" stroke="#bfbfbf" points="146,-56.5 146,-75.5 211,-75.5 211,-56.5 146,-56.5"/>
<text text-anchor="middle" x="178.5" y="-63.5" font-family="FreeSans" font-size="10.00">inttypes.h</text>
</a>
</g>
</g>
<!-- Node4&#45;&gt;Node5 -->
<g id="edge4" class="edge">
<title>Node4&#45;&gt;Node5</title>
<path fill="none" stroke="midnightblue" d="M178.5,-112.08C178.5,-105.01 178.5,-94.86 178.5,-85.99"/>
<polygon fill="midnightblue" stroke="midnightblue" points="182,-85.75 178.5,-75.75 175,-85.75 182,-85.75"/>
</g>
<!-- Node7&#45;&gt;Node3 -->
<g id="edge8" class="edge">
<title>Node7&#45;&gt;Node3</title>
<path fill="none" stroke="midnightblue" d="M178.67,-224.32C160.78,-215.62 133.02,-202.12 112.45,-192.11"/>
<polygon fill="midnightblue" stroke="midnightblue" points="113.81,-188.88 103.29,-187.65 110.75,-195.18 113.81,-188.88"/>
</g>
<!-- Node7&#45;&gt;Node4 -->
<g id="edge7" class="edge">
<title>Node7&#45;&gt;Node4</title>
<path fill="none" stroke="midnightblue" d="M195.09,-224.37C192.18,-206.62 185.48,-165.67 181.54,-141.6"/>
<polygon fill="midnightblue" stroke="midnightblue" points="184.97,-140.89 179.91,-131.59 178.07,-142.03 184.97,-140.89"/>
</g>
<!-- Node8 -->
<g id="node8" class="node">
<title>Node8</title>
<g id="a_node8"><a xlink:href="os__scheduler_8h.html" target="_top" xlink:title="Scheduling module for the OS.">
<polygon fill="white" stroke="black" points="250,-168.5 250,-187.5 339,-187.5 339,-168.5 250,-168.5"/>
<text text-anchor="middle" x="294.5" y="-175.5" font-family="FreeSans" font-size="10.00">os_scheduler.h</text>
</a>
</g>
</g>
<!-- Node7&#45;&gt;Node8 -->
<g id="edge9" class="edge">
<title>Node7&#45;&gt;Node8</title>
<path fill="none" stroke="midnightblue" d="M212.25,-224.32C227.82,-215.74 251.88,-202.49 269.96,-192.52"/>
<polygon fill="midnightblue" stroke="midnightblue" points="271.72,-195.55 278.79,-187.65 268.35,-189.42 271.72,-195.55"/>
</g>
<!-- Node9 -->
<g id="node9" class="node">
<title>Node9</title>
<g id="a_node9"><a xlink:title=" ">
<polygon fill="white" stroke="#bfbfbf" points="229.5,-56.5 229.5,-75.5 291.5,-75.5 291.5,-56.5 229.5,-56.5"/>
<text text-anchor="middle" x="260.5" y="-63.5" font-family="FreeSans" font-size="10.00">stdbool.h</text>
</a>
</g>
</g>
<!-- Node8&#45;&gt;Node9 -->
<g id="edge10" class="edge">
<title>Node8&#45;&gt;Node9</title>
<path fill="none" stroke="midnightblue" d="M291.53,-168.4C288.43,-159.37 283.48,-144.73 279.5,-132 274.62,-116.4 269.44,-98.56 265.72,-85.53"/>
<polygon fill="midnightblue" stroke="midnightblue" points="269.07,-84.53 262.98,-75.86 262.34,-86.44 269.07,-84.53"/>
</g>
<!-- Node10 -->
<g id="node10" class="node">
<title>Node10</title>
<g id="a_node10"><a xlink:href="defines_8h.html" target="_top" xlink:title="Simple definitions and assembler&#45;macros, mostly 8/16&#45;Bit values.">
<polygon fill="white" stroke="black" points="401,-112.5 401,-131.5 462,-131.5 462,-112.5 401,-112.5"/>
<text text-anchor="middle" x="431.5" y="-119.5" font-family="FreeSans" font-size="10.00">defines.h</text>
</a>
</g>
</g>
<!-- Node8&#45;&gt;Node10 -->
<g id="edge11" class="edge">
<title>Node8&#45;&gt;Node10</title>
<path fill="none" stroke="midnightblue" d="M316.21,-168.44C338.85,-159.52 374.57,-145.44 400.25,-135.32"/>
<polygon fill="midnightblue" stroke="midnightblue" points="401.87,-138.44 409.89,-131.52 399.31,-131.93 401.87,-138.44"/>
</g>
<!-- Node13 -->
<g id="node13" class="node">
<title>Node13</title>
<g id="a_node13"><a xlink:href="os__process_8h.html" target="_top" xlink:title="Struct specifying a process.">
<polygon fill="white" stroke="black" points="288.5,-112.5 288.5,-131.5 368.5,-131.5 368.5,-112.5 288.5,-112.5"/>
<text text-anchor="middle" x="328.5" y="-119.5" font-family="FreeSans" font-size="10.00">os_process.h</text>
</a>
</g>
</g>
<!-- Node8&#45;&gt;Node13 -->
<g id="edge14" class="edge">
<title>Node8&#45;&gt;Node13</title>
<path fill="none" stroke="midnightblue" d="M300.11,-168.08C304.87,-160.53 311.82,-149.49 317.65,-140.23"/>
<polygon fill="midnightblue" stroke="midnightblue" points="320.62,-142.08 322.99,-131.75 314.7,-138.35 320.62,-142.08"/>
</g>
<!-- Node11 -->
<g id="node11" class="node">
<title>Node11</title>
<g id="a_node11"><a xlink:href="atmega644constants_8h.html" target="_top" xlink:title="Constants for ATMega644 and EVA board. Defines several useful constants for the ATMega644.">
<polygon fill="white" stroke="black" points="381.5,-56.5 381.5,-75.5 509.5,-75.5 509.5,-56.5 381.5,-56.5"/>
<text text-anchor="middle" x="445.5" y="-63.5" font-family="FreeSans" font-size="10.00">atmega644constants.h</text>
</a>
</g>
</g>
<!-- Node10&#45;&gt;Node11 -->
<g id="edge12" class="edge">
<title>Node10&#45;&gt;Node11</title>
<path fill="none" stroke="midnightblue" d="M433.81,-112.08C435.67,-104.93 438.34,-94.64 440.65,-85.69"/>
<polygon fill="midnightblue" stroke="midnightblue" points="444.11,-86.31 443.23,-75.75 437.33,-84.55 444.11,-86.31"/>
</g>
<!-- Node12 -->
<g id="node12" class="node">
<title>Node12</title>
<g id="a_node12"><a xlink:title=" ">
<polygon fill="white" stroke="#bfbfbf" points="419,-0.5 419,-19.5 472,-19.5 472,-0.5 419,-0.5"/>
<text text-anchor="middle" x="445.5" y="-7.5" font-family="FreeSans" font-size="10.00">avr/io.h</text>
</a>
</g>
</g>
<!-- Node11&#45;&gt;Node12 -->
<g id="edge13" class="edge">
<title>Node11&#45;&gt;Node12</title>
<path fill="none" stroke="midnightblue" d="M445.5,-56.08C445.5,-49.01 445.5,-38.86 445.5,-29.99"/>
<polygon fill="midnightblue" stroke="midnightblue" points="449,-29.75 445.5,-19.75 442,-29.75 449,-29.75"/>
</g>
<!-- Node13&#45;&gt;Node9 -->
<g id="edge16" class="edge">
<title>Node13&#45;&gt;Node9</title>
<path fill="none" stroke="midnightblue" d="M317.57,-112.32C307.33,-104.18 291.78,-91.84 279.5,-82.09"/>
<polygon fill="midnightblue" stroke="midnightblue" points="281.63,-79.31 271.62,-75.83 277.28,-84.79 281.63,-79.31"/>
</g>
<!-- Node14 -->
<g id="node14" class="node">
<title>Node14</title>
<g id="a_node14"><a xlink:title=" ">
<polygon fill="white" stroke="#bfbfbf" points="310,-56.5 310,-75.5 363,-75.5 363,-56.5 310,-56.5"/>
<text text-anchor="middle" x="336.5" y="-63.5" font-family="FreeSans" font-size="10.00">stdint.h</text>
</a>
</g>
</g>
<!-- Node13&#45;&gt;Node14 -->
<g id="edge15" class="edge">
<title>Node13&#45;&gt;Node14</title>
<path fill="none" stroke="midnightblue" d="M329.82,-112.08C330.88,-104.93 332.41,-94.64 333.73,-85.69"/>
<polygon fill="midnightblue" stroke="midnightblue" points="337.2,-86.16 335.2,-75.75 330.28,-85.13 337.2,-86.16"/>
</g>
</g>
</svg>
