<?xml version="1.0" encoding="UTF-8" standalone="no"?>
<!DOCTYPE svg PUBLIC "-//W3C//DTD SVG 1.1//EN"
 "http://www.w3.org/Graphics/SVG/1.1/DTD/svg11.dtd">
<!-- Generated by graphviz version 2.43.0 (0)
 -->
<!-- Title: os_input.h Pages: 1 -->
<svg width="422pt" height="84pt"
 viewBox="0.00 0.00 421.50 84.00" xmlns="http://www.w3.org/2000/svg" xmlns:xlink="http://www.w3.org/1999/xlink">
<g id="graph0" class="graph" transform="scale(1 1) rotate(0) translate(4 80)">
<title>os_input.h</title>
<polygon fill="white" stroke="transparent" points="-4,4 -4,-80 417.5,-80 417.5,4 -4,4"/>
<!-- Node1 -->
<g id="node1" class="node">
<title>Node1</title>
<g id="a_node1"><a xlink:title="Input library for the OS.">
<polygon fill="#bfbfbf" stroke="black" points="174.5,-56.5 174.5,-75.5 241.5,-75.5 241.5,-56.5 174.5,-56.5"/>
<text text-anchor="middle" x="208" y="-63.5" font-family="FreeSans" font-size="10.00">os_input.h</text>
</a>
</g>
</g>
<!-- Node2 -->
<g id="node2" class="node">
<title>Node2</title>
<g id="a_node2"><a xlink:href="os__core_8c.html" target="_top" xlink:title=" ">
<polygon fill="white" stroke="black" points="0,-0.5 0,-19.5 62,-19.5 62,-0.5 0,-0.5"/>
<text text-anchor="middle" x="31" y="-7.5" font-family="FreeSans" font-size="10.00">os_core.c</text>
</a>
</g>
</g>
<!-- Node1&#45;&gt;Node2 -->
<g id="edge1" class="edge">
<title>Node1&#45;&gt;Node2</title>
<path fill="none" stroke="midnightblue" d="M170.1,-53.44C136.72,-43.26 88.9,-28.66 58.91,-19.52"/>
<polygon fill="midnightblue" stroke="midnightblue" points="169.37,-56.87 179.95,-56.44 171.41,-50.18 169.37,-56.87"/>
</g>
<!-- Node3 -->
<g id="node3" class="node">
<title>Node3</title>
<g id="a_node3"><a xlink:href="os__input_8c.html" target="_top" xlink:title=" ">
<polygon fill="white" stroke="black" points="80,-0.5 80,-19.5 146,-19.5 146,-0.5 80,-0.5"/>
<text text-anchor="middle" x="113" y="-7.5" font-family="FreeSans" font-size="10.00">os_input.c</text>
</a>
</g>
</g>
<!-- Node1&#45;&gt;Node3 -->
<g id="edge2" class="edge">
<title>Node1&#45;&gt;Node3</title>
<path fill="none" stroke="midnightblue" d="M183.68,-51.18C166.2,-41.24 143.17,-28.15 128.23,-19.65"/>
<polygon fill="midnightblue" stroke="midnightblue" points="182.31,-54.43 192.74,-56.32 185.77,-48.34 182.31,-54.43"/>
</g>
<!-- Node4 -->
<g id="node4" class="node">
<title>Node4</title>
<g id="a_node4"><a xlink:href="os__scheduler_8c.html" target="_top" xlink:title=" ">
<polygon fill="white" stroke="black" points="164,-0.5 164,-19.5 252,-19.5 252,-0.5 164,-0.5"/>
<text text-anchor="middle" x="208" y="-7.5" font-family="FreeSans" font-size="10.00">os_scheduler.c</text>
</a>
</g>
</g>
<!-- Node1&#45;&gt;Node4 -->
<g id="edge3" class="edge">
<title>Node1&#45;&gt;Node4</title>
<path fill="none" stroke="midnightblue" d="M208,-45.8C208,-36.91 208,-26.78 208,-19.75"/>
<polygon fill="midnightblue" stroke="midnightblue" points="204.5,-46.08 208,-56.08 211.5,-46.08 204.5,-46.08"/>
</g>
<!-- Node5 -->
<g id="node5" class="node">
<title>Node5</title>
<g id="a_node5"><a xlink:href="os__taskman_8c.html" target="_top" xlink:title=" ">
<polygon fill="white" stroke="black" points="270,-0.5 270,-19.5 354,-19.5 354,-0.5 270,-0.5"/>
<text text-anchor="middle" x="312" y="-7.5" font-family="FreeSans" font-size="10.00">os_taskman.c</text>
</a>
</g>
</g>
<!-- Node1&#45;&gt;Node5 -->
<g id="edge4" class="edge">
<title>Node1&#45;&gt;Node5</title>
<path fill="none" stroke="midnightblue" d="M233.83,-51.59C253.06,-41.61 278.74,-28.27 295.33,-19.65"/>
<polygon fill="midnightblue" stroke="midnightblue" points="231.97,-48.61 224.71,-56.32 235.2,-54.82 231.97,-48.61"/>
</g>
<!-- Node6 -->
<g id="node6" class="node">
<title>Node6</title>
<g id="a_node6"><a xlink:href="util_8c.html" target="_top" xlink:title=" ">
<polygon fill="white" stroke="black" points="372.5,-0.5 372.5,-19.5 413.5,-19.5 413.5,-0.5 372.5,-0.5"/>
<text text-anchor="middle" x="393" y="-7.5" font-family="FreeSans" font-size="10.00">util.c</text>
</a>
</g>
</g>
<!-- Node1&#45;&gt;Node6 -->
<g id="edge5" class="edge">
<title>Node1&#45;&gt;Node6</title>
<path fill="none" stroke="midnightblue" d="M247.41,-53.66C278.76,-44.62 323.71,-31.6 363,-20 366.02,-19.11 369.22,-18.16 372.35,-17.22"/>
<polygon fill="midnightblue" stroke="midnightblue" points="246.38,-50.32 237.74,-56.45 248.32,-57.04 246.38,-50.32"/>
</g>
</g>
</svg>
