<?xml version="1.0" encoding="UTF-8" standalone="no"?>
<!DOCTYPE svg PUBLIC "-//W3C//DTD SVG 1.1//EN"
 "http://www.w3.org/Graphics/SVG/1.1/DTD/svg11.dtd">
<!-- Generated by graphviz version 2.43.0 (0)
 -->
<!-- Title: os_memory.h Pages: 1 -->
<svg width="512pt" height="140pt"
 viewBox="0.00 0.00 511.50 140.00" xmlns="http://www.w3.org/2000/svg" xmlns:xlink="http://www.w3.org/1999/xlink">
<g id="graph0" class="graph" transform="scale(1 1) rotate(0) translate(4 136)">
<title>os_memory.h</title>
<polygon fill="white" stroke="transparent" points="-4,4 -4,-136 507.5,-136 507.5,4 -4,4"/>
<!-- Node1 -->
<g id="node1" class="node">
<title>Node1</title>
<g id="a_node1"><a xlink:title="Library for OS memory management.">
<polygon fill="#bfbfbf" stroke="black" points="257.5,-112.5 257.5,-131.5 339.5,-131.5 339.5,-112.5 257.5,-112.5"/>
<text text-anchor="middle" x="298.5" y="-119.5" font-family="FreeSans" font-size="10.00">os_memory.h</text>
</a>
</g>
</g>
<!-- Node2 -->
<g id="node2" class="node">
<title>Node2</title>
<g id="a_node2"><a xlink:href="os__memory_8c.html" target="_top" xlink:title=" ">
<polygon fill="white" stroke="black" points="0,-56.5 0,-75.5 81,-75.5 81,-56.5 0,-56.5"/>
<text text-anchor="middle" x="40.5" y="-63.5" font-family="FreeSans" font-size="10.00">os_memory.c</text>
</a>
</g>
</g>
<!-- Node1&#45;&gt;Node2 -->
<g id="edge1" class="edge">
<title>Node1&#45;&gt;Node2</title>
<path fill="none" stroke="midnightblue" d="M247.6,-110.35C198.84,-100.14 126.21,-84.94 81.19,-75.52"/>
<polygon fill="midnightblue" stroke="midnightblue" points="247.11,-113.82 257.62,-112.44 248.55,-106.97 247.11,-113.82"/>
</g>
<!-- Node3 -->
<g id="node3" class="node">
<title>Node3</title>
<g id="a_node3"><a xlink:href="os__memory__strategies_8c.html" target="_top" xlink:title=" ">
<polygon fill="white" stroke="black" points="99,-56.5 99,-75.5 236,-75.5 236,-56.5 99,-56.5"/>
<text text-anchor="middle" x="167.5" y="-63.5" font-family="FreeSans" font-size="10.00">os_memory_strategies.c</text>
</a>
</g>
</g>
<!-- Node1&#45;&gt;Node3 -->
<g id="edge2" class="edge">
<title>Node1&#45;&gt;Node3</title>
<path fill="none" stroke="midnightblue" d="M268.18,-108.5C243.62,-98.38 209.68,-84.39 188.16,-75.52"/>
<polygon fill="midnightblue" stroke="midnightblue" points="267.16,-111.87 277.74,-112.44 269.83,-105.4 267.16,-111.87"/>
</g>
<!-- Node4 -->
<g id="node4" class="node">
<title>Node4</title>
<g id="a_node4"><a xlink:href="os__scheduler_8c.html" target="_top" xlink:title=" ">
<polygon fill="white" stroke="black" points="254.5,-56.5 254.5,-75.5 342.5,-75.5 342.5,-56.5 254.5,-56.5"/>
<text text-anchor="middle" x="298.5" y="-63.5" font-family="FreeSans" font-size="10.00">os_scheduler.c</text>
</a>
</g>
</g>
<!-- Node1&#45;&gt;Node4 -->
<g id="edge3" class="edge">
<title>Node1&#45;&gt;Node4</title>
<path fill="none" stroke="midnightblue" d="M298.5,-101.8C298.5,-92.91 298.5,-82.78 298.5,-75.75"/>
<polygon fill="midnightblue" stroke="midnightblue" points="295,-102.08 298.5,-112.08 302,-102.08 295,-102.08"/>
</g>
<!-- Node5 -->
<g id="node5" class="node">
<title>Node5</title>
<g id="a_node5"><a xlink:href="os__user__privileges_8h.html" target="_top" xlink:title="User privileges specification used in part by the Taskman.">
<polygon fill="white" stroke="black" points="360.5,-56.5 360.5,-75.5 476.5,-75.5 476.5,-56.5 360.5,-56.5"/>
<text text-anchor="middle" x="418.5" y="-63.5" font-family="FreeSans" font-size="10.00">os_user_privileges.h</text>
</a>
</g>
</g>
<!-- Node1&#45;&gt;Node5 -->
<g id="edge4" class="edge">
<title>Node1&#45;&gt;Node5</title>
<path fill="none" stroke="midnightblue" d="M326.87,-108.23C349.32,-98.13 380.04,-84.31 399.57,-75.52"/>
<polygon fill="midnightblue" stroke="midnightblue" points="325.2,-105.15 317.51,-112.44 328.07,-111.53 325.2,-105.15"/>
</g>
<!-- Node6 -->
<g id="node6" class="node">
<title>Node6</title>
<g id="a_node6"><a xlink:href="os__taskman_8c.html" target="_top" xlink:title=" ">
<polygon fill="white" stroke="black" points="419.5,-0.5 419.5,-19.5 503.5,-19.5 503.5,-0.5 419.5,-0.5"/>
<text text-anchor="middle" x="461.5" y="-7.5" font-family="FreeSans" font-size="10.00">os_taskman.c</text>
</a>
</g>
</g>
<!-- Node1&#45;&gt;Node6 -->
<g id="edge6" class="edge">
<title>Node1&#45;&gt;Node6</title>
<path fill="none" stroke="midnightblue" d="M349.73,-115.74C399.15,-109.48 468.86,-97.12 485.5,-76 499.05,-58.8 481.2,-33.2 469.75,-19.84"/>
<polygon fill="midnightblue" stroke="midnightblue" points="349.02,-112.3 339.52,-116.98 349.87,-119.25 349.02,-112.3"/>
</g>
<!-- Node5&#45;&gt;Node6 -->
<g id="edge5" class="edge">
<title>Node5&#45;&gt;Node6</title>
<path fill="none" stroke="midnightblue" d="M431.92,-48.14C439.41,-38.74 448.44,-27.4 454.53,-19.75"/>
<polygon fill="midnightblue" stroke="midnightblue" points="429.09,-46.08 425.6,-56.08 434.57,-50.44 429.09,-46.08"/>
</g>
</g>
</svg>
