<?xml version="1.0" encoding="UTF-8" standalone="no"?>
<!DOCTYPE svg PUBLIC "-//W3C//DTD SVG 1.1//EN"
 "http://www.w3.org/Graphics/SVG/1.1/DTD/svg11.dtd">
<!-- Generated by graphviz version 2.43.0 (0)
 -->
<!-- Title: os_memheap_drivers.h Pages: 1 -->
<svg width="671pt" height="196pt"
 viewBox="0.00 0.00 671.00 196.00" xmlns="http://www.w3.org/2000/svg" xmlns:xlink="http://www.w3.org/1999/xlink">
<g id="graph0" class="graph" transform="scale(1 1) rotate(0) translate(4 192)">
<title>os_memheap_drivers.h</title>
<polygon fill="white" stroke="transparent" points="-4,4 -4,-192 667,-192 667,4 -4,4"/>
<!-- Node1 -->
<g id="node1" class="node">
<title>Node1</title>
<g id="a_node1"><a xlink:title="Drivers for OS heap management.">
<polygon fill="#bfbfbf" stroke="black" points="147.5,-168.5 147.5,-187.5 278.5,-187.5 278.5,-168.5 147.5,-168.5"/>
<text text-anchor="middle" x="213" y="-175.5" font-family="FreeSans" font-size="10.00">os_memheap_drivers.h</text>
</a>
</g>
</g>
<!-- Node2 -->
<g id="node2" class="node">
<title>Node2</title>
<g id="a_node2"><a xlink:href="os__core_8c.html" target="_top" xlink:title=" ">
<polygon fill="white" stroke="black" points="26,-112.5 26,-131.5 88,-131.5 88,-112.5 26,-112.5"/>
<text text-anchor="middle" x="57" y="-119.5" font-family="FreeSans" font-size="10.00">os_core.c</text>
</a>
</g>
</g>
<!-- Node1&#45;&gt;Node2 -->
<g id="edge1" class="edge">
<title>Node1&#45;&gt;Node2</title>
<path fill="none" stroke="midnightblue" d="M178.83,-165.17C149.46,-155 107.8,-140.59 81.6,-131.52"/>
<polygon fill="midnightblue" stroke="midnightblue" points="177.69,-168.48 188.28,-168.44 179.98,-161.86 177.69,-168.48"/>
</g>
<!-- Node3 -->
<g id="node3" class="node">
<title>Node3</title>
<g id="a_node3"><a xlink:href="os__memheap__drivers_8c.html" target="_top" xlink:title=" ">
<polygon fill="white" stroke="black" points="0,-56.5 0,-75.5 130,-75.5 130,-56.5 0,-56.5"/>
<text text-anchor="middle" x="65" y="-63.5" font-family="FreeSans" font-size="10.00">os_memheap_drivers.c</text>
</a>
</g>
</g>
<!-- Node1&#45;&gt;Node3 -->
<g id="edge2" class="edge">
<title>Node1&#45;&gt;Node3</title>
<path fill="none" stroke="midnightblue" d="M186.51,-163.64C170.96,-155.34 151.25,-143.99 135,-132 110.72,-114.08 85.58,-88.78 73.08,-75.66"/>
<polygon fill="midnightblue" stroke="midnightblue" points="185.09,-166.85 195.58,-168.39 188.34,-160.65 185.09,-166.85"/>
</g>
<!-- Node4 -->
<g id="node4" class="node">
<title>Node4</title>
<g id="a_node4"><a xlink:href="os__memory__strategies_8h.html" target="_top" xlink:title="Memory allocation library for the OS.">
<polygon fill="white" stroke="black" points="144.5,-112.5 144.5,-131.5 281.5,-131.5 281.5,-112.5 144.5,-112.5"/>
<text text-anchor="middle" x="213" y="-119.5" font-family="FreeSans" font-size="10.00">os_memory_strategies.h</text>
</a>
</g>
</g>
<!-- Node1&#45;&gt;Node4 -->
<g id="edge3" class="edge">
<title>Node1&#45;&gt;Node4</title>
<path fill="none" stroke="midnightblue" d="M213,-157.8C213,-148.91 213,-138.78 213,-131.75"/>
<polygon fill="midnightblue" stroke="midnightblue" points="209.5,-158.08 213,-168.08 216.5,-158.08 209.5,-158.08"/>
</g>
<!-- Node7 -->
<g id="node7" class="node">
<title>Node7</title>
<g id="a_node7"><a xlink:href="os__memory_8h.html" target="_top" xlink:title="Library for OS memory management.">
<polygon fill="white" stroke="black" points="348,-112.5 348,-131.5 430,-131.5 430,-112.5 348,-112.5"/>
<text text-anchor="middle" x="389" y="-119.5" font-family="FreeSans" font-size="10.00">os_memory.h</text>
</a>
</g>
</g>
<!-- Node1&#45;&gt;Node7 -->
<g id="edge7" class="edge">
<title>Node1&#45;&gt;Node7</title>
<path fill="none" stroke="midnightblue" d="M250.69,-165.44C283.87,-155.26 331.43,-140.66 361.24,-131.52"/>
<polygon fill="midnightblue" stroke="midnightblue" points="249.42,-162.16 240.89,-168.44 251.47,-168.86 249.42,-162.16"/>
</g>
<!-- Node8 -->
<g id="node8" class="node">
<title>Node8</title>
<g id="a_node8"><a xlink:href="os__scheduler_8c.html" target="_top" xlink:title=" ">
<polygon fill="white" stroke="black" points="575,-56.5 575,-75.5 663,-75.5 663,-56.5 575,-56.5"/>
<text text-anchor="middle" x="619" y="-63.5" font-family="FreeSans" font-size="10.00">os_scheduler.c</text>
</a>
</g>
</g>
<!-- Node1&#45;&gt;Node8 -->
<g id="edge14" class="edge">
<title>Node1&#45;&gt;Node8</title>
<path fill="none" stroke="midnightblue" d="M277.91,-166.74C323.41,-158.9 385.43,-146.91 439,-132 498.05,-115.56 565.48,-89.05 598.54,-75.53"/>
<polygon fill="midnightblue" stroke="midnightblue" points="277.15,-163.32 267.88,-168.44 278.33,-170.22 277.15,-163.32"/>
</g>
<!-- Node4&#45;&gt;Node3 -->
<g id="edge4" class="edge">
<title>Node4&#45;&gt;Node3</title>
<path fill="none" stroke="midnightblue" d="M179.85,-108.91C152.03,-98.75 112.98,-84.51 88.34,-75.52"/>
<polygon fill="midnightblue" stroke="midnightblue" points="178.96,-112.3 189.55,-112.44 181.35,-105.73 178.96,-112.3"/>
</g>
<!-- Node5 -->
<g id="node5" class="node">
<title>Node5</title>
<g id="a_node5"><a xlink:href="os__memory_8c.html" target="_top" xlink:title=" ">
<polygon fill="white" stroke="black" points="148.5,-56.5 148.5,-75.5 229.5,-75.5 229.5,-56.5 148.5,-56.5"/>
<text text-anchor="middle" x="189" y="-63.5" font-family="FreeSans" font-size="10.00">os_memory.c</text>
</a>
</g>
</g>
<!-- Node4&#45;&gt;Node5 -->
<g id="edge5" class="edge">
<title>Node4&#45;&gt;Node5</title>
<path fill="none" stroke="midnightblue" d="M204.86,-102.69C200.82,-93.59 196.12,-83.01 192.89,-75.75"/>
<polygon fill="midnightblue" stroke="midnightblue" points="201.78,-104.37 209.04,-112.08 208.17,-101.52 201.78,-104.37"/>
</g>
<!-- Node6 -->
<g id="node6" class="node">
<title>Node6</title>
<g id="a_node6"><a xlink:href="os__memory__strategies_8c.html" target="_top" xlink:title=" ">
<polygon fill="white" stroke="black" points="247.5,-56.5 247.5,-75.5 384.5,-75.5 384.5,-56.5 247.5,-56.5"/>
<text text-anchor="middle" x="316" y="-63.5" font-family="FreeSans" font-size="10.00">os_memory_strategies.c</text>
</a>
</g>
</g>
<!-- Node4&#45;&gt;Node6 -->
<g id="edge6" class="edge">
<title>Node4&#45;&gt;Node6</title>
<path fill="none" stroke="midnightblue" d="M238.58,-107.59C257.62,-97.61 283.06,-84.27 299.49,-75.65"/>
<polygon fill="midnightblue" stroke="midnightblue" points="236.78,-104.58 229.55,-112.32 240.03,-110.78 236.78,-104.58"/>
</g>
<!-- Node7&#45;&gt;Node5 -->
<g id="edge8" class="edge">
<title>Node7&#45;&gt;Node5</title>
<path fill="none" stroke="midnightblue" d="M347.63,-109.83C309.86,-99.63 254.86,-84.78 220.54,-75.52"/>
<polygon fill="midnightblue" stroke="midnightblue" points="346.74,-113.22 357.31,-112.44 348.57,-106.46 346.74,-113.22"/>
</g>
<!-- Node7&#45;&gt;Node6 -->
<g id="edge9" class="edge">
<title>Node7&#45;&gt;Node6</title>
<path fill="none" stroke="midnightblue" d="M368.86,-106.1C355.72,-96.38 339.02,-84.03 327.94,-75.83"/>
<polygon fill="midnightblue" stroke="midnightblue" points="367.15,-109.19 377.27,-112.32 371.31,-103.56 367.15,-109.19"/>
</g>
<!-- Node7&#45;&gt;Node8 -->
<g id="edge10" class="edge">
<title>Node7&#45;&gt;Node8</title>
<path fill="none" stroke="midnightblue" d="M435.2,-110.15C478.66,-99.95 542.84,-84.88 582.73,-75.52"/>
<polygon fill="midnightblue" stroke="midnightblue" points="434.38,-106.75 425.44,-112.44 435.98,-113.57 434.38,-106.75"/>
</g>
<!-- Node9 -->
<g id="node9" class="node">
<title>Node9</title>
<g id="a_node9"><a xlink:href="os__user__privileges_8h.html" target="_top" xlink:title="User privileges specification used in part by the Taskman.">
<polygon fill="white" stroke="black" points="441,-56.5 441,-75.5 557,-75.5 557,-56.5 441,-56.5"/>
<text text-anchor="middle" x="499" y="-63.5" font-family="FreeSans" font-size="10.00">os_user_privileges.h</text>
</a>
</g>
</g>
<!-- Node7&#45;&gt;Node9 -->
<g id="edge11" class="edge">
<title>Node7&#45;&gt;Node9</title>
<path fill="none" stroke="midnightblue" d="M415.76,-107.86C436.16,-97.85 463.67,-84.35 481.37,-75.65"/>
<polygon fill="midnightblue" stroke="midnightblue" points="414.11,-104.78 406.67,-112.32 417.19,-111.06 414.11,-104.78"/>
</g>
<!-- Node10 -->
<g id="node10" class="node">
<title>Node10</title>
<g id="a_node10"><a xlink:href="os__taskman_8c.html" target="_top" xlink:title=" ">
<polygon fill="white" stroke="black" points="414,-0.5 414,-19.5 498,-19.5 498,-0.5 414,-0.5"/>
<text text-anchor="middle" x="456" y="-7.5" font-family="FreeSans" font-size="10.00">os_taskman.c</text>
</a>
</g>
</g>
<!-- Node7&#45;&gt;Node10 -->
<g id="edge13" class="edge">
<title>Node7&#45;&gt;Node10</title>
<path fill="none" stroke="midnightblue" d="M399.57,-103.64C414.13,-79.74 439.78,-37.63 450.77,-19.59"/>
<polygon fill="midnightblue" stroke="midnightblue" points="396.47,-102.01 394.26,-112.37 402.45,-105.65 396.47,-102.01"/>
</g>
<!-- Node9&#45;&gt;Node10 -->
<g id="edge12" class="edge">
<title>Node9&#45;&gt;Node10</title>
<path fill="none" stroke="midnightblue" d="M485.58,-48.14C478.09,-38.74 469.06,-27.4 462.97,-19.75"/>
<polygon fill="midnightblue" stroke="midnightblue" points="482.93,-50.44 491.9,-56.08 488.41,-46.08 482.93,-50.44"/>
</g>
</g>
</svg>
