<?xml version="1.0" encoding="UTF-8" standalone="no"?>
<!DOCTYPE svg PUBLIC "-//W3C//DTD SVG 1.1//EN"
 "http://www.w3.org/Graphics/SVG/1.1/DTD/svg11.dtd">
<!-- Generated by graphviz version 2.43.0 (0)
 -->
<!-- Title: os_freeProcessMemory Pages: 1 -->
<svg width="732pt" height="203pt"
 viewBox="0.00 0.00 732.00 203.41" xmlns="http://www.w3.org/2000/svg" xmlns:xlink="http://www.w3.org/1999/xlink">
<g id="graph0" class="graph" transform="scale(1 1) rotate(0) translate(4 199.41)">
<title>os_freeProcessMemory</title>
<polygon fill="white" stroke="transparent" points="-4,4 -4,-199.41 728,-199.41 728,4 -4,4"/>
<!-- Node1 -->
<g id="node1" class="node">
<title>Node1</title>
<g id="a_node1"><a xlink:title="Function that realises the garbage collection.">
<polygon fill="#bfbfbf" stroke="black" points="0,-105.5 0,-124.5 131,-124.5 131,-105.5 0,-105.5"/>
<text text-anchor="middle" x="65.5" y="-112.5" font-family="FreeSans" font-size="10.00">os_freeProcessMemory</text>
</a>
</g>
</g>
<!-- Node2 -->
<g id="node2" class="node">
<title>Node2</title>
<g id="a_node2"><a xlink:href="os__scheduler_8c.html#a9d27b2dbf45ce6648916ed5ceb0a38df" target="_top" xlink:title="enters a critical code section">
<polygon fill="white" stroke="black" points="339.5,-152.5 339.5,-171.5 468.5,-171.5 468.5,-152.5 339.5,-152.5"/>
<text text-anchor="middle" x="404" y="-159.5" font-family="FreeSans" font-size="10.00">os_enterCriticalSection</text>
</a>
</g>
</g>
<!-- Node1&#45;&gt;Node2 -->
<g id="edge1" class="edge">
<title>Node1&#45;&gt;Node2</title>
<path fill="none" stroke="midnightblue" d="M131.38,-124.06C188.07,-131.98 270.32,-143.47 329.44,-151.73"/>
<polygon fill="midnightblue" stroke="midnightblue" points="329.07,-155.21 339.46,-153.13 330.04,-148.28 329.07,-155.21"/>
</g>
<!-- Node3 -->
<g id="node3" class="node">
<title>Node3</title>
<g id="a_node3"><a xlink:href="os__memory_8c.html#ae30934b438eca830815f445a1144a8c2" target="_top" xlink:title=" ">
<polygon fill="white" stroke="black" points="167,-86.5 167,-105.5 301,-105.5 301,-86.5 167,-86.5"/>
<text text-anchor="middle" x="234" y="-93.5" font-family="FreeSans" font-size="10.00">os_freeOwnerRestricted</text>
</a>
</g>
</g>
<!-- Node1&#45;&gt;Node3 -->
<g id="edge2" class="edge">
<title>Node1&#45;&gt;Node3</title>
<path fill="none" stroke="midnightblue" d="M131.35,-107.6C139.75,-106.64 148.41,-105.65 156.97,-104.68"/>
<polygon fill="midnightblue" stroke="midnightblue" points="157.42,-108.15 166.96,-103.54 156.62,-101.19 157.42,-108.15"/>
</g>
<!-- Node5 -->
<g id="node5" class="node">
<title>Node5</title>
<g id="a_node5"><a xlink:href="os__memory_8c.html#a29ccc3e0a668c0be4b285bc74ef6d920" target="_top" xlink:title="Function used to get the value of a single map entry, this is made public so the allocation strategie...">
<polygon fill="white" stroke="black" points="507,-114.5 507,-133.5 602,-133.5 602,-114.5 507,-114.5"/>
<text text-anchor="middle" x="554.5" y="-121.5" font-family="FreeSans" font-size="10.00">os_getMapEntry</text>
</a>
</g>
</g>
<!-- Node1&#45;&gt;Node5 -->
<g id="edge13" class="edge">
<title>Node1&#45;&gt;Node5</title>
<path fill="none" stroke="midnightblue" d="M86.32,-124.54C145.82,-151.88 327.67,-225.7 471,-181 496.24,-173.13 520.57,-154.53 536.18,-140.71"/>
<polygon fill="midnightblue" stroke="midnightblue" points="538.91,-142.96 543.91,-133.62 534.18,-137.8 538.91,-142.96"/>
</g>
<!-- Node8 -->
<g id="node8" class="node">
<title>Node8</title>
<g id="a_node8"><a xlink:href="os__scheduler_8c.html#a21546fdd22e5e6818e50856a119d98e0" target="_top" xlink:title="leaves a critical code section">
<polygon fill="white" stroke="black" points="338.5,-0.5 338.5,-19.5 469.5,-19.5 469.5,-0.5 338.5,-0.5"/>
<text text-anchor="middle" x="404" y="-7.5" font-family="FreeSans" font-size="10.00">os_leaveCriticalSection</text>
</a>
</g>
</g>
<!-- Node1&#45;&gt;Node8 -->
<g id="edge14" class="edge">
<title>Node1&#45;&gt;Node8</title>
<path fill="none" stroke="midnightblue" d="M90.26,-105.36C110.49,-97.31 140.43,-85.78 167,-77 231.75,-55.61 307.82,-34.77 355.73,-22.16"/>
<polygon fill="midnightblue" stroke="midnightblue" points="356.72,-25.51 365.51,-19.59 354.95,-18.74 356.72,-25.51"/>
</g>
<!-- Node3&#45;&gt;Node2 -->
<g id="edge3" class="edge">
<title>Node3&#45;&gt;Node2</title>
<path fill="none" stroke="midnightblue" d="M257.58,-105.61C278.17,-114.31 309.5,-127.34 337,-138 346.45,-141.66 356.72,-145.48 366.29,-148.96"/>
<polygon fill="midnightblue" stroke="midnightblue" points="365.34,-152.34 375.93,-152.45 367.72,-145.75 365.34,-152.34"/>
</g>
<!-- Node4 -->
<g id="node4" class="node">
<title>Node4</title>
<g id="a_node4"><a xlink:href="os__memory_8c.html#a292385f9ee19516237f51ab76c76405e" target="_top" xlink:title="Get the address of the first byte of chunk.">
<polygon fill="white" stroke="black" points="337,-76.5 337,-95.5 471,-95.5 471,-76.5 337,-76.5"/>
<text text-anchor="middle" x="404" y="-83.5" font-family="FreeSans" font-size="10.00">os_getFirstByteOfChunk</text>
</a>
</g>
</g>
<!-- Node3&#45;&gt;Node4 -->
<g id="edge4" class="edge">
<title>Node3&#45;&gt;Node4</title>
<path fill="none" stroke="midnightblue" d="M301.4,-92.05C309.68,-91.55 318.2,-91.05 326.62,-90.55"/>
<polygon fill="midnightblue" stroke="midnightblue" points="327.03,-94.03 336.81,-89.94 326.62,-87.04 327.03,-94.03"/>
</g>
<!-- Node3&#45;&gt;Node5 -->
<g id="edge8" class="edge">
<title>Node3&#45;&gt;Node5</title>
<path fill="none" stroke="midnightblue" d="M301.12,-101.84C313.06,-102.89 325.4,-103.98 337,-105 391.11,-109.76 452.83,-115.18 496.48,-119"/>
<polygon fill="midnightblue" stroke="midnightblue" points="496.35,-122.51 506.62,-119.89 496.97,-115.53 496.35,-122.51"/>
</g>
<!-- Node3&#45;&gt;Node8 -->
<g id="edge9" class="edge">
<title>Node3&#45;&gt;Node8</title>
<path fill="none" stroke="midnightblue" d="M246.86,-86.48C265.19,-72.17 301.96,-45.1 337,-29 342.01,-26.7 347.37,-24.61 352.78,-22.73"/>
<polygon fill="midnightblue" stroke="midnightblue" points="354.08,-25.98 362.51,-19.57 351.92,-19.32 354.08,-25.98"/>
</g>
<!-- Node9 -->
<g id="node9" class="node">
<title>Node9</title>
<g id="a_node9"><a xlink:href="os__memory_8c.html#aa0082364f445ac8cfacf8d0e873bcfb5" target="_top" xlink:title="This function is used to set a heap map entry on a specific heap.">
<polygon fill="white" stroke="black" points="365,-38.5 365,-57.5 443,-57.5 443,-38.5 365,-38.5"/>
<text text-anchor="middle" x="404" y="-45.5" font-family="FreeSans" font-size="10.00">setMapEntry</text>
</a>
</g>
</g>
<!-- Node3&#45;&gt;Node9 -->
<g id="edge10" class="edge">
<title>Node3&#45;&gt;Node9</title>
<path fill="none" stroke="midnightblue" d="M268.59,-86.4C294.8,-78.91 331.41,-68.46 359.8,-60.34"/>
<polygon fill="midnightblue" stroke="midnightblue" points="360.81,-63.69 369.46,-57.58 358.89,-56.96 360.81,-63.69"/>
</g>
<!-- Node4&#45;&gt;Node5 -->
<g id="edge5" class="edge">
<title>Node4&#45;&gt;Node5</title>
<path fill="none" stroke="midnightblue" d="M442.47,-95.59C461.89,-100.56 485.8,-106.68 506.45,-111.96"/>
<polygon fill="midnightblue" stroke="midnightblue" points="505.74,-115.39 516.3,-114.48 507.48,-108.61 505.74,-115.39"/>
</g>
<!-- Node6 -->
<g id="node6" class="node">
<title>Node6</title>
<g id="a_node6"><a xlink:href="os__memory_8c.html#ae420976ba4abbd069aff795935b9636c" target="_top" xlink:title="Reads the value of the higher nibble of the given address.">
<polygon fill="white" stroke="black" points="638,-133.5 638,-152.5 724,-152.5 724,-133.5 638,-133.5"/>
<text text-anchor="middle" x="681" y="-140.5" font-family="FreeSans" font-size="10.00">getHighNibble</text>
</a>
</g>
</g>
<!-- Node5&#45;&gt;Node6 -->
<g id="edge6" class="edge">
<title>Node5&#45;&gt;Node6</title>
<path fill="none" stroke="midnightblue" d="M602.21,-131.13C610.64,-132.42 619.48,-133.76 628.05,-135.07"/>
<polygon fill="midnightblue" stroke="midnightblue" points="627.53,-138.53 637.95,-136.58 628.59,-131.61 627.53,-138.53"/>
</g>
<!-- Node7 -->
<g id="node7" class="node">
<title>Node7</title>
<g id="a_node7"><a xlink:href="os__memory_8c.html#a01bd9b56dbbeb0af404043ceca5c8818" target="_top" xlink:title="Reads the value of the lower nibble of the given address.">
<polygon fill="white" stroke="black" points="639.5,-95.5 639.5,-114.5 722.5,-114.5 722.5,-95.5 639.5,-95.5"/>
<text text-anchor="middle" x="681" y="-102.5" font-family="FreeSans" font-size="10.00">getLowNibble</text>
</a>
</g>
</g>
<!-- Node5&#45;&gt;Node7 -->
<g id="edge7" class="edge">
<title>Node5&#45;&gt;Node7</title>
<path fill="none" stroke="midnightblue" d="M602.21,-116.87C611.04,-115.52 620.3,-114.11 629.25,-112.75"/>
<polygon fill="midnightblue" stroke="midnightblue" points="629.8,-116.2 639.16,-111.23 628.75,-109.28 629.8,-116.2"/>
</g>
<!-- Node10 -->
<g id="node10" class="node">
<title>Node10</title>
<g id="a_node10"><a xlink:href="os__memory_8c.html#a211f98b56ba22e7ec073c1b09b35d0ff" target="_top" xlink:title="Writes a value from 0x0 to 0xF to the higher nibble of the given address.">
<polygon fill="white" stroke="black" points="511.5,-19.5 511.5,-38.5 597.5,-38.5 597.5,-19.5 511.5,-19.5"/>
<text text-anchor="middle" x="554.5" y="-26.5" font-family="FreeSans" font-size="10.00">setHighNibble</text>
</a>
</g>
</g>
<!-- Node9&#45;&gt;Node10 -->
<g id="edge11" class="edge">
<title>Node9&#45;&gt;Node10</title>
<path fill="none" stroke="midnightblue" d="M443.24,-43.11C460.94,-40.84 482.25,-38.12 501.39,-35.67"/>
<polygon fill="midnightblue" stroke="midnightblue" points="501.99,-39.12 511.47,-34.38 501.11,-32.18 501.99,-39.12"/>
</g>
<!-- Node11 -->
<g id="node11" class="node">
<title>Node11</title>
<g id="a_node11"><a xlink:href="os__memory_8c.html#a79edcf2881c1b78d097495d05e7cec4f" target="_top" xlink:title="Writes a value from 0x0 to 0xF to the lower nibble of the given address.">
<polygon fill="white" stroke="black" points="513,-57.5 513,-76.5 596,-76.5 596,-57.5 513,-57.5"/>
<text text-anchor="middle" x="554.5" y="-64.5" font-family="FreeSans" font-size="10.00">setLowNibble</text>
</a>
</g>
</g>
<!-- Node9&#45;&gt;Node11 -->
<g id="edge12" class="edge">
<title>Node9&#45;&gt;Node11</title>
<path fill="none" stroke="midnightblue" d="M443.24,-52.89C461.39,-55.22 483.33,-58.02 502.84,-60.52"/>
<polygon fill="midnightblue" stroke="midnightblue" points="502.42,-63.99 512.79,-61.79 503.31,-57.05 502.42,-63.99"/>
</g>
</g>
</svg>
