<?xml version="1.0" encoding="UTF-8" standalone="no"?>
<!DOCTYPE svg PUBLIC "-//W3C//DTD SVG 1.1//EN"
 "http://www.w3.org/Graphics/SVG/1.1/DTD/svg11.dtd">
<!-- Generated by graphviz version 2.43.0 (0)
 -->
<!-- Title: os_memory.h Pages: 1 -->
<svg width="479pt" height="252pt"
 viewBox="0.00 0.00 478.50 252.00" xmlns="http://www.w3.org/2000/svg" xmlns:xlink="http://www.w3.org/1999/xlink">
<g id="graph0" class="graph" transform="scale(1 1) rotate(0) translate(4 248)">
<title>os_memory.h</title>
<polygon fill="white" stroke="transparent" points="-4,4 -4,-248 474.5,-248 474.5,4 -4,4"/>
<!-- Node1 -->
<g id="node1" class="node">
<title>Node1</title>
<g id="a_node1"><a xlink:title="Library for OS memory management.">
<polygon fill="#bfbfbf" stroke="black" points="110.5,-224.5 110.5,-243.5 192.5,-243.5 192.5,-224.5 110.5,-224.5"/>
<text text-anchor="middle" x="151.5" y="-231.5" font-family="FreeSans" font-size="10.00">os_memory.h</text>
</a>
</g>
</g>
<!-- Node2 -->
<g id="node2" class="node">
<title>Node2</title>
<g id="a_node2"><a xlink:href="os__mem__drivers_8h.html" target="_top" xlink:title="Drivers for OS memory management.">
<polygon fill="white" stroke="black" points="0,-112.5 0,-131.5 107,-131.5 107,-112.5 0,-112.5"/>
<text text-anchor="middle" x="53.5" y="-119.5" font-family="FreeSans" font-size="10.00">os_mem_drivers.h</text>
</a>
</g>
</g>
<!-- Node1&#45;&gt;Node2 -->
<g id="edge1" class="edge">
<title>Node1&#45;&gt;Node2</title>
<path fill="none" stroke="midnightblue" d="M128.94,-224.42C112.34,-217.05 90.34,-204.93 76.5,-188 65.62,-174.69 59.71,-155.86 56.62,-141.89"/>
<polygon fill="midnightblue" stroke="midnightblue" points="60.03,-141.08 54.7,-131.93 53.15,-142.41 60.03,-141.08"/>
</g>
<!-- Node4 -->
<g id="node4" class="node">
<title>Node4</title>
<g id="a_node4"><a xlink:href="os__memheap__drivers_8h.html" target="_top" xlink:title="Drivers for OS heap management.">
<polygon fill="white" stroke="black" points="86,-168.5 86,-187.5 217,-187.5 217,-168.5 86,-168.5"/>
<text text-anchor="middle" x="151.5" y="-175.5" font-family="FreeSans" font-size="10.00">os_memheap_drivers.h</text>
</a>
</g>
</g>
<!-- Node1&#45;&gt;Node4 -->
<g id="edge3" class="edge">
<title>Node1&#45;&gt;Node4</title>
<path fill="none" stroke="midnightblue" d="M151.5,-224.08C151.5,-217.01 151.5,-206.86 151.5,-197.99"/>
<polygon fill="midnightblue" stroke="midnightblue" points="155,-197.75 151.5,-187.75 148,-197.75 155,-197.75"/>
</g>
<!-- Node6 -->
<g id="node6" class="node">
<title>Node6</title>
<g id="a_node6"><a xlink:href="os__scheduler_8h.html" target="_top" xlink:title="Scheduling module for the OS.">
<polygon fill="white" stroke="black" points="249,-168.5 249,-187.5 338,-187.5 338,-168.5 249,-168.5"/>
<text text-anchor="middle" x="293.5" y="-175.5" font-family="FreeSans" font-size="10.00">os_scheduler.h</text>
</a>
</g>
</g>
<!-- Node1&#45;&gt;Node6 -->
<g id="edge6" class="edge">
<title>Node1&#45;&gt;Node6</title>
<path fill="none" stroke="midnightblue" d="M174,-224.44C197.58,-215.48 234.82,-201.31 261.46,-191.18"/>
<polygon fill="midnightblue" stroke="midnightblue" points="263,-194.34 271.1,-187.52 260.51,-187.8 263,-194.34"/>
</g>
<!-- Node3 -->
<g id="node3" class="node">
<title>Node3</title>
<g id="a_node3"><a xlink:title=" ">
<polygon fill="white" stroke="#bfbfbf" points="21,-56.5 21,-75.5 86,-75.5 86,-56.5 21,-56.5"/>
<text text-anchor="middle" x="53.5" y="-63.5" font-family="FreeSans" font-size="10.00">inttypes.h</text>
</a>
</g>
</g>
<!-- Node2&#45;&gt;Node3 -->
<g id="edge2" class="edge">
<title>Node2&#45;&gt;Node3</title>
<path fill="none" stroke="midnightblue" d="M53.5,-112.08C53.5,-105.01 53.5,-94.86 53.5,-85.99"/>
<polygon fill="midnightblue" stroke="midnightblue" points="57,-85.75 53.5,-75.75 50,-85.75 57,-85.75"/>
</g>
<!-- Node4&#45;&gt;Node2 -->
<g id="edge4" class="edge">
<title>Node4&#45;&gt;Node2</title>
<path fill="none" stroke="midnightblue" d="M135.75,-168.32C120.18,-159.74 96.12,-146.49 78.04,-136.52"/>
<polygon fill="midnightblue" stroke="midnightblue" points="79.65,-133.42 69.21,-131.65 76.28,-139.55 79.65,-133.42"/>
</g>
<!-- Node5 -->
<g id="node5" class="node">
<title>Node5</title>
<g id="a_node5"><a xlink:title=" ">
<polygon fill="white" stroke="#bfbfbf" points="125.5,-112.5 125.5,-131.5 181.5,-131.5 181.5,-112.5 125.5,-112.5"/>
<text text-anchor="middle" x="153.5" y="-119.5" font-family="FreeSans" font-size="10.00">stddef.h</text>
</a>
</g>
</g>
<!-- Node4&#45;&gt;Node5 -->
<g id="edge5" class="edge">
<title>Node4&#45;&gt;Node5</title>
<path fill="none" stroke="midnightblue" d="M151.83,-168.08C152.09,-161.01 152.47,-150.86 152.8,-141.99"/>
<polygon fill="midnightblue" stroke="midnightblue" points="156.3,-141.87 153.18,-131.75 149.31,-141.61 156.3,-141.87"/>
</g>
<!-- Node7 -->
<g id="node7" class="node">
<title>Node7</title>
<g id="a_node7"><a xlink:title=" ">
<polygon fill="white" stroke="#bfbfbf" points="262.5,-56.5 262.5,-75.5 324.5,-75.5 324.5,-56.5 262.5,-56.5"/>
<text text-anchor="middle" x="293.5" y="-63.5" font-family="FreeSans" font-size="10.00">stdbool.h</text>
</a>
</g>
</g>
<!-- Node6&#45;&gt;Node7 -->
<g id="edge7" class="edge">
<title>Node6&#45;&gt;Node7</title>
<path fill="none" stroke="midnightblue" d="M293.5,-168.37C293.5,-150.62 293.5,-109.67 293.5,-85.6"/>
<polygon fill="midnightblue" stroke="midnightblue" points="297,-85.59 293.5,-75.59 290,-85.59 297,-85.59"/>
</g>
<!-- Node8 -->
<g id="node8" class="node">
<title>Node8</title>
<g id="a_node8"><a xlink:href="defines_8h.html" target="_top" xlink:title="Simple definitions and assembler&#45;macros, mostly 8/16&#45;Bit values.">
<polygon fill="white" stroke="black" points="363,-112.5 363,-131.5 424,-131.5 424,-112.5 363,-112.5"/>
<text text-anchor="middle" x="393.5" y="-119.5" font-family="FreeSans" font-size="10.00">defines.h</text>
</a>
</g>
</g>
<!-- Node6&#45;&gt;Node8 -->
<g id="edge8" class="edge">
<title>Node6&#45;&gt;Node8</title>
<path fill="none" stroke="midnightblue" d="M309.57,-168.32C325.46,-159.74 350.01,-146.49 368.46,-136.52"/>
<polygon fill="midnightblue" stroke="midnightblue" points="370.34,-139.49 377.47,-131.65 367.01,-133.33 370.34,-139.49"/>
</g>
<!-- Node11 -->
<g id="node11" class="node">
<title>Node11</title>
<g id="a_node11"><a xlink:href="os__process_8h.html" target="_top" xlink:title="Struct specifying a process.">
<polygon fill="white" stroke="black" points="199.5,-112.5 199.5,-131.5 279.5,-131.5 279.5,-112.5 199.5,-112.5"/>
<text text-anchor="middle" x="239.5" y="-119.5" font-family="FreeSans" font-size="10.00">os_process.h</text>
</a>
</g>
</g>
<!-- Node6&#45;&gt;Node11 -->
<g id="edge11" class="edge">
<title>Node6&#45;&gt;Node11</title>
<path fill="none" stroke="midnightblue" d="M284.58,-168.08C276.72,-160.22 265.07,-148.57 255.58,-139.08"/>
<polygon fill="midnightblue" stroke="midnightblue" points="257.8,-136.35 248.25,-131.75 252.85,-141.3 257.8,-136.35"/>
</g>
<!-- Node9 -->
<g id="node9" class="node">
<title>Node9</title>
<g id="a_node9"><a xlink:href="atmega644constants_8h.html" target="_top" xlink:title="Constants for ATMega644 and EVA board. Defines several useful constants for the ATMega644.">
<polygon fill="white" stroke="black" points="342.5,-56.5 342.5,-75.5 470.5,-75.5 470.5,-56.5 342.5,-56.5"/>
<text text-anchor="middle" x="406.5" y="-63.5" font-family="FreeSans" font-size="10.00">atmega644constants.h</text>
</a>
</g>
</g>
<!-- Node8&#45;&gt;Node9 -->
<g id="edge9" class="edge">
<title>Node8&#45;&gt;Node9</title>
<path fill="none" stroke="midnightblue" d="M395.65,-112.08C397.37,-104.93 399.85,-94.64 402,-85.69"/>
<polygon fill="midnightblue" stroke="midnightblue" points="405.46,-86.29 404.39,-75.75 398.65,-84.65 405.46,-86.29"/>
</g>
<!-- Node10 -->
<g id="node10" class="node">
<title>Node10</title>
<g id="a_node10"><a xlink:title=" ">
<polygon fill="white" stroke="#bfbfbf" points="380,-0.5 380,-19.5 433,-19.5 433,-0.5 380,-0.5"/>
<text text-anchor="middle" x="406.5" y="-7.5" font-family="FreeSans" font-size="10.00">avr/io.h</text>
</a>
</g>
</g>
<!-- Node9&#45;&gt;Node10 -->
<g id="edge10" class="edge">
<title>Node9&#45;&gt;Node10</title>
<path fill="none" stroke="midnightblue" d="M406.5,-56.08C406.5,-49.01 406.5,-38.86 406.5,-29.99"/>
<polygon fill="midnightblue" stroke="midnightblue" points="410,-29.75 406.5,-19.75 403,-29.75 410,-29.75"/>
</g>
<!-- Node11&#45;&gt;Node7 -->
<g id="edge13" class="edge">
<title>Node11&#45;&gt;Node7</title>
<path fill="none" stroke="midnightblue" d="M248.42,-112.08C256.28,-104.22 267.93,-92.57 277.42,-83.08"/>
<polygon fill="midnightblue" stroke="midnightblue" points="280.15,-85.3 284.75,-75.75 275.2,-80.35 280.15,-85.3"/>
</g>
<!-- Node12 -->
<g id="node12" class="node">
<title>Node12</title>
<g id="a_node12"><a xlink:title=" ">
<polygon fill="white" stroke="#bfbfbf" points="191,-56.5 191,-75.5 244,-75.5 244,-56.5 191,-56.5"/>
<text text-anchor="middle" x="217.5" y="-63.5" font-family="FreeSans" font-size="10.00">stdint.h</text>
</a>
</g>
</g>
<!-- Node11&#45;&gt;Node12 -->
<g id="edge12" class="edge">
<title>Node11&#45;&gt;Node12</title>
<path fill="none" stroke="midnightblue" d="M235.87,-112.08C232.89,-104.77 228.57,-94.18 224.88,-85.1"/>
<polygon fill="midnightblue" stroke="midnightblue" points="228.08,-83.69 221.07,-75.75 221.6,-86.33 228.08,-83.69"/>
</g>
</g>
</svg>
