<?xml version="1.0" encoding="UTF-8" standalone="no"?>
<!DOCTYPE svg PUBLIC "-//W3C//DTD SVG 1.1//EN"
 "http://www.w3.org/Graphics/SVG/1.1/DTD/svg11.dtd">
<!-- Generated by graphviz version 2.43.0 (0)
 -->
<!-- Title: os_errorPStr Pages: 1 -->
<svg width="567pt" height="142pt"
 viewBox="0.00 0.00 567.00 142.00" xmlns="http://www.w3.org/2000/svg" xmlns:xlink="http://www.w3.org/1999/xlink">
<g id="graph0" class="graph" transform="scale(1 1) rotate(0) translate(4 138)">
<title>os_errorPStr</title>
<polygon fill="white" stroke="transparent" points="-4,4 -4,-138 563,-138 563,4 -4,4"/>
<!-- Node1 -->
<g id="node1" class="node">
<title>Node1</title>
<g id="a_node1"><a xlink:title="Shows error on display and terminates program.">
<polygon fill="#bfbfbf" stroke="black" points="0,-57.5 0,-76.5 76,-76.5 76,-57.5 0,-57.5"/>
<text text-anchor="middle" x="38" y="-64.5" font-family="FreeSans" font-size="10.00">os_errorPStr</text>
</a>
</g>
</g>
<!-- Node2 -->
<g id="node2" class="node">
<title>Node2</title>
<g id="a_node2"><a xlink:href="lcd_8h.html#ad235a86241458b1e7b8771688bfdaf9a" target="_top" xlink:title="Clear all data from display.">
<polygon fill="white" stroke="black" points="378,-114.5 378,-133.5 438,-133.5 438,-114.5 378,-114.5"/>
<text text-anchor="middle" x="408" y="-121.5" font-family="FreeSans" font-size="10.00">lcd_clear</text>
</a>
</g>
</g>
<!-- Node1&#45;&gt;Node2 -->
<g id="edge1" class="edge">
<title>Node1&#45;&gt;Node2</title>
<path fill="none" stroke="midnightblue" d="M53.07,-76.6C67.26,-85.71 90.12,-98.89 112,-105 200.88,-129.8 310.44,-129.14 367.78,-126.54"/>
<polygon fill="midnightblue" stroke="midnightblue" points="368.05,-130.04 377.86,-126.04 367.7,-123.04 368.05,-130.04"/>
</g>
<!-- Node4 -->
<g id="node4" class="node">
<title>Node4</title>
<g id="a_node4"><a xlink:href="lcd_8h.html#a12c915502d2f5eb5bca74e503ad88669" target="_top" xlink:title="Write char PROGMEM* string.">
<polygon fill="white" stroke="black" points="112,-76.5 112,-95.5 223,-95.5 223,-76.5 112,-76.5"/>
<text text-anchor="middle" x="167.5" y="-83.5" font-family="FreeSans" font-size="10.00">lcd_writeProgString</text>
</a>
</g>
</g>
<!-- Node1&#45;&gt;Node4 -->
<g id="edge3" class="edge">
<title>Node1&#45;&gt;Node4</title>
<path fill="none" stroke="midnightblue" d="M76.22,-72.55C84.34,-73.76 93.15,-75.07 101.99,-76.39"/>
<polygon fill="midnightblue" stroke="midnightblue" points="101.53,-79.86 111.94,-77.87 102.56,-72.93 101.53,-79.86"/>
</g>
<!-- Node8 -->
<g id="node8" class="node">
<title>Node8</title>
<g id="a_node8"><a xlink:href="os__input_8c.html#a137e8a89b9524ec791fffccedb04fef0" target="_top" xlink:title="Refreshes the button states.">
<polygon fill="white" stroke="black" points="263.5,-19.5 263.5,-38.5 337.5,-38.5 337.5,-19.5 263.5,-19.5"/>
<text text-anchor="middle" x="300.5" y="-26.5" font-family="FreeSans" font-size="10.00">os_getInput</text>
</a>
</g>
</g>
<!-- Node1&#45;&gt;Node8 -->
<g id="edge10" class="edge">
<title>Node1&#45;&gt;Node8</title>
<path fill="none" stroke="midnightblue" d="M76.05,-61.6C122.7,-54.79 202.85,-43.1 253.41,-35.72"/>
<polygon fill="midnightblue" stroke="midnightblue" points="254.03,-39.17 263.42,-34.26 253.02,-32.24 254.03,-39.17"/>
</g>
<!-- Node9 -->
<g id="node9" class="node">
<title>Node9</title>
<g id="a_node9"><a xlink:href="os__input_8c.html#ad2eb8a84abf9fcfe88654e1118b351f5" target="_top" xlink:title="Waits for all buttons to be released.">
<polygon fill="white" stroke="black" points="114,-0.5 114,-19.5 221,-19.5 221,-0.5 114,-0.5"/>
<text text-anchor="middle" x="167.5" y="-7.5" font-family="FreeSans" font-size="10.00">os_waitForNoInput</text>
</a>
</g>
</g>
<!-- Node1&#45;&gt;Node9 -->
<g id="edge11" class="edge">
<title>Node1&#45;&gt;Node9</title>
<path fill="none" stroke="midnightblue" d="M60.06,-57.41C74.63,-50.8 94.47,-41.82 112,-34 119.57,-30.62 127.74,-27.01 135.4,-23.64"/>
<polygon fill="midnightblue" stroke="midnightblue" points="136.99,-26.76 144.73,-19.53 134.17,-20.35 136.99,-26.76"/>
</g>
<!-- Node3 -->
<g id="node3" class="node">
<title>Node3</title>
<g id="a_node3"><a xlink:href="lcd_8h.html#acb116d89c358367b8fd1164120d320e3" target="_top" xlink:title="Send command to LCD.">
<polygon fill="white" stroke="black" points="474,-76.5 474,-95.5 559,-95.5 559,-76.5 474,-76.5"/>
<text text-anchor="middle" x="516.5" y="-83.5" font-family="FreeSans" font-size="10.00">lcd_command</text>
</a>
</g>
</g>
<!-- Node2&#45;&gt;Node3 -->
<g id="edge2" class="edge">
<title>Node2&#45;&gt;Node3</title>
<path fill="none" stroke="midnightblue" d="M435.87,-114.41C448.99,-109.73 464.97,-104.03 479.15,-98.97"/>
<polygon fill="midnightblue" stroke="midnightblue" points="480.39,-102.24 488.63,-95.59 478.04,-95.65 480.39,-102.24"/>
</g>
<!-- Node5 -->
<g id="node5" class="node">
<title>Node5</title>
<g id="a_node5"><a xlink:href="lcd_8h.html#a93cd5600fa3b27381a4cf57d21f27ebf" target="_top" xlink:title="Write one character.">
<polygon fill="white" stroke="black" points="259,-76.5 259,-95.5 342,-95.5 342,-76.5 259,-76.5"/>
<text text-anchor="middle" x="300.5" y="-83.5" font-family="FreeSans" font-size="10.00">lcd_writeChar</text>
</a>
</g>
</g>
<!-- Node4&#45;&gt;Node5 -->
<g id="edge4" class="edge">
<title>Node4&#45;&gt;Node5</title>
<path fill="none" stroke="midnightblue" d="M223.3,-86C231.77,-86 240.49,-86 248.87,-86"/>
<polygon fill="midnightblue" stroke="midnightblue" points="248.88,-89.5 258.88,-86 248.88,-82.5 248.88,-89.5"/>
</g>
<!-- Node5&#45;&gt;Node2 -->
<g id="edge5" class="edge">
<title>Node5&#45;&gt;Node2</title>
<path fill="none" stroke="midnightblue" d="M328.12,-95.59C340.99,-100.22 356.64,-105.86 370.59,-110.89"/>
<polygon fill="midnightblue" stroke="midnightblue" points="369.79,-114.32 380.39,-114.41 372.16,-107.73 369.79,-114.32"/>
</g>
<!-- Node6 -->
<g id="node6" class="node">
<title>Node6</title>
<g id="a_node6"><a xlink:href="lcd_8h.html#a016fe1471f1d20196b5ca3d2634c927a" target="_top" xlink:title="Next output will be written to line 1.">
<polygon fill="white" stroke="black" points="378,-76.5 378,-95.5 438,-95.5 438,-76.5 378,-76.5"/>
<text text-anchor="middle" x="408" y="-83.5" font-family="FreeSans" font-size="10.00">lcd_line1</text>
</a>
</g>
</g>
<!-- Node5&#45;&gt;Node6 -->
<g id="edge6" class="edge">
<title>Node5&#45;&gt;Node6</title>
<path fill="none" stroke="midnightblue" d="M342.29,-86C350.61,-86 359.34,-86 367.61,-86"/>
<polygon fill="midnightblue" stroke="midnightblue" points="367.76,-89.5 377.76,-86 367.76,-82.5 367.76,-89.5"/>
</g>
<!-- Node7 -->
<g id="node7" class="node">
<title>Node7</title>
<g id="a_node7"><a xlink:href="lcd_8h.html#ad9ccaf30ea478fef726c058ff4ee7dd1" target="_top" xlink:title="Next output will be written to line 2.">
<polygon fill="white" stroke="black" points="378,-38.5 378,-57.5 438,-57.5 438,-38.5 378,-38.5"/>
<text text-anchor="middle" x="408" y="-45.5" font-family="FreeSans" font-size="10.00">lcd_line2</text>
</a>
</g>
</g>
<!-- Node5&#45;&gt;Node7 -->
<g id="edge8" class="edge">
<title>Node5&#45;&gt;Node7</title>
<path fill="none" stroke="midnightblue" d="M328.12,-76.41C340.99,-71.78 356.64,-66.14 370.59,-61.11"/>
<polygon fill="midnightblue" stroke="midnightblue" points="372.16,-64.27 380.39,-57.59 369.79,-57.68 372.16,-64.27"/>
</g>
<!-- Node6&#45;&gt;Node3 -->
<g id="edge7" class="edge">
<title>Node6&#45;&gt;Node3</title>
<path fill="none" stroke="midnightblue" d="M438.1,-86C445.98,-86 454.76,-86 463.49,-86"/>
<polygon fill="midnightblue" stroke="midnightblue" points="463.66,-89.5 473.66,-86 463.66,-82.5 463.66,-89.5"/>
</g>
<!-- Node7&#45;&gt;Node3 -->
<g id="edge9" class="edge">
<title>Node7&#45;&gt;Node3</title>
<path fill="none" stroke="midnightblue" d="M435.87,-57.59C448.99,-62.27 464.97,-67.97 479.15,-73.03"/>
<polygon fill="midnightblue" stroke="midnightblue" points="478.04,-76.35 488.63,-76.41 480.39,-69.76 478.04,-76.35"/>
</g>
<!-- Node9&#45;&gt;Node8 -->
<g id="edge12" class="edge">
<title>Node9&#45;&gt;Node8</title>
<path fill="none" stroke="midnightblue" d="M221.03,-17.62C231.71,-19.17 242.86,-20.79 253.3,-22.3"/>
<polygon fill="midnightblue" stroke="midnightblue" points="253.06,-25.8 263.45,-23.77 254.06,-18.87 253.06,-25.8"/>
</g>
</g>
</svg>
