<?xml version="1.0" encoding="UTF-8" standalone="no"?>
<!DOCTYPE svg PUBLIC "-//W3C//DTD SVG 1.1//EN"
 "http://www.w3.org/Graphics/SVG/1.1/DTD/svg11.dtd">
<!-- Generated by graphviz version 2.43.0 (0)
 -->
<!-- Title: os_freeOwnerRestricted Pages: 1 -->
<svg width="565pt" height="199pt"
 viewBox="0.00 0.00 565.00 199.00" xmlns="http://www.w3.org/2000/svg" xmlns:xlink="http://www.w3.org/1999/xlink">
<g id="graph0" class="graph" transform="scale(1 1) rotate(0) translate(4 195)">
<title>os_freeOwnerRestricted</title>
<polygon fill="white" stroke="transparent" points="-4,4 -4,-195 561,-195 561,4 -4,4"/>
<!-- Node1 -->
<g id="node1" class="node">
<title>Node1</title>
<g id="a_node1"><a xlink:title=" ">
<polygon fill="#bfbfbf" stroke="black" points="0,-95.5 0,-114.5 134,-114.5 134,-95.5 0,-95.5"/>
<text text-anchor="middle" x="67" y="-102.5" font-family="FreeSans" font-size="10.00">os_freeOwnerRestricted</text>
</a>
</g>
</g>
<!-- Node2 -->
<g id="node2" class="node">
<title>Node2</title>
<g id="a_node2"><a xlink:href="os__scheduler_8c.html#a9d27b2dbf45ce6648916ed5ceb0a38df" target="_top" xlink:title="enters a critical code section">
<polygon fill="white" stroke="black" points="172.5,-171.5 172.5,-190.5 301.5,-190.5 301.5,-171.5 172.5,-171.5"/>
<text text-anchor="middle" x="237" y="-178.5" font-family="FreeSans" font-size="10.00">os_enterCriticalSection</text>
</a>
</g>
</g>
<!-- Node1&#45;&gt;Node2 -->
<g id="edge1" class="edge">
<title>Node1&#45;&gt;Node2</title>
<path fill="none" stroke="midnightblue" d="M82.66,-114.62C102.01,-126.97 137.42,-148.42 170,-162 175.5,-164.29 181.37,-166.41 187.25,-168.34"/>
<polygon fill="midnightblue" stroke="midnightblue" points="186.51,-171.78 197.1,-171.41 188.59,-165.1 186.51,-171.78"/>
</g>
<!-- Node3 -->
<g id="node3" class="node">
<title>Node3</title>
<g id="a_node3"><a xlink:href="os__memory_8c.html#a292385f9ee19516237f51ab76c76405e" target="_top" xlink:title="Get the address of the first byte of chunk.">
<polygon fill="white" stroke="black" points="170,-133.5 170,-152.5 304,-152.5 304,-133.5 170,-133.5"/>
<text text-anchor="middle" x="237" y="-140.5" font-family="FreeSans" font-size="10.00">os_getFirstByteOfChunk</text>
</a>
</g>
</g>
<!-- Node1&#45;&gt;Node3 -->
<g id="edge2" class="edge">
<title>Node1&#45;&gt;Node3</title>
<path fill="none" stroke="midnightblue" d="M110.39,-114.59C132.76,-119.65 160.4,-125.9 184.05,-131.25"/>
<polygon fill="midnightblue" stroke="midnightblue" points="183.39,-134.69 193.91,-133.48 184.93,-127.86 183.39,-134.69"/>
</g>
<!-- Node4 -->
<g id="node4" class="node">
<title>Node4</title>
<g id="a_node4"><a xlink:href="os__memory_8c.html#a29ccc3e0a668c0be4b285bc74ef6d920" target="_top" xlink:title="Function used to get the value of a single map entry, this is made public so the allocation strategie...">
<polygon fill="white" stroke="black" points="340,-114.5 340,-133.5 435,-133.5 435,-114.5 340,-114.5"/>
<text text-anchor="middle" x="387.5" y="-121.5" font-family="FreeSans" font-size="10.00">os_getMapEntry</text>
</a>
</g>
</g>
<!-- Node1&#45;&gt;Node4 -->
<g id="edge6" class="edge">
<title>Node1&#45;&gt;Node4</title>
<path fill="none" stroke="midnightblue" d="M134.38,-108.96C192.1,-112.4 274.84,-117.34 329.58,-120.6"/>
<polygon fill="midnightblue" stroke="midnightblue" points="329.61,-124.11 339.81,-121.21 330.03,-117.13 329.61,-124.11"/>
</g>
<!-- Node7 -->
<g id="node7" class="node">
<title>Node7</title>
<g id="a_node7"><a xlink:href="os__scheduler_8c.html#a21546fdd22e5e6818e50856a119d98e0" target="_top" xlink:title="leaves a critical code section">
<polygon fill="white" stroke="black" points="171.5,-57.5 171.5,-76.5 302.5,-76.5 302.5,-57.5 171.5,-57.5"/>
<text text-anchor="middle" x="237" y="-64.5" font-family="FreeSans" font-size="10.00">os_leaveCriticalSection</text>
</a>
</g>
</g>
<!-- Node1&#45;&gt;Node7 -->
<g id="edge7" class="edge">
<title>Node1&#45;&gt;Node7</title>
<path fill="none" stroke="midnightblue" d="M110.39,-95.41C132.76,-90.35 160.4,-84.1 184.05,-78.75"/>
<polygon fill="midnightblue" stroke="midnightblue" points="184.93,-82.14 193.91,-76.52 183.39,-75.31 184.93,-82.14"/>
</g>
<!-- Node8 -->
<g id="node8" class="node">
<title>Node8</title>
<g id="a_node8"><a xlink:href="os__memory_8c.html#aa0082364f445ac8cfacf8d0e873bcfb5" target="_top" xlink:title="This function is used to set a heap map entry on a specific heap.">
<polygon fill="white" stroke="black" points="198,-19.5 198,-38.5 276,-38.5 276,-19.5 198,-19.5"/>
<text text-anchor="middle" x="237" y="-26.5" font-family="FreeSans" font-size="10.00">setMapEntry</text>
</a>
</g>
</g>
<!-- Node1&#45;&gt;Node8 -->
<g id="edge8" class="edge">
<title>Node1&#45;&gt;Node8</title>
<path fill="none" stroke="midnightblue" d="M82.66,-95.38C102.01,-83.03 137.42,-61.58 170,-48 175.78,-45.59 181.96,-43.37 188.14,-41.36"/>
<polygon fill="midnightblue" stroke="midnightblue" points="189.27,-44.68 197.79,-38.39 187.2,-37.99 189.27,-44.68"/>
</g>
<!-- Node3&#45;&gt;Node4 -->
<g id="edge3" class="edge">
<title>Node3&#45;&gt;Node4</title>
<path fill="none" stroke="midnightblue" d="M304.43,-134.5C312.89,-133.42 321.48,-132.32 329.76,-131.26"/>
<polygon fill="midnightblue" stroke="midnightblue" points="330.21,-134.73 339.68,-129.99 329.32,-127.79 330.21,-134.73"/>
</g>
<!-- Node5 -->
<g id="node5" class="node">
<title>Node5</title>
<g id="a_node5"><a xlink:href="os__memory_8c.html#ae420976ba4abbd069aff795935b9636c" target="_top" xlink:title="Reads the value of the higher nibble of the given address.">
<polygon fill="white" stroke="black" points="471,-133.5 471,-152.5 557,-152.5 557,-133.5 471,-133.5"/>
<text text-anchor="middle" x="514" y="-140.5" font-family="FreeSans" font-size="10.00">getHighNibble</text>
</a>
</g>
</g>
<!-- Node4&#45;&gt;Node5 -->
<g id="edge4" class="edge">
<title>Node4&#45;&gt;Node5</title>
<path fill="none" stroke="midnightblue" d="M435.21,-131.13C443.64,-132.42 452.48,-133.76 461.05,-135.07"/>
<polygon fill="midnightblue" stroke="midnightblue" points="460.53,-138.53 470.95,-136.58 461.59,-131.61 460.53,-138.53"/>
</g>
<!-- Node6 -->
<g id="node6" class="node">
<title>Node6</title>
<g id="a_node6"><a xlink:href="os__memory_8c.html#a01bd9b56dbbeb0af404043ceca5c8818" target="_top" xlink:title="Reads the value of the lower nibble of the given address.">
<polygon fill="white" stroke="black" points="472.5,-95.5 472.5,-114.5 555.5,-114.5 555.5,-95.5 472.5,-95.5"/>
<text text-anchor="middle" x="514" y="-102.5" font-family="FreeSans" font-size="10.00">getLowNibble</text>
</a>
</g>
</g>
<!-- Node4&#45;&gt;Node6 -->
<g id="edge5" class="edge">
<title>Node4&#45;&gt;Node6</title>
<path fill="none" stroke="midnightblue" d="M435.21,-116.87C444.04,-115.52 453.3,-114.11 462.25,-112.75"/>
<polygon fill="midnightblue" stroke="midnightblue" points="462.8,-116.2 472.16,-111.23 461.75,-109.28 462.8,-116.2"/>
</g>
<!-- Node9 -->
<g id="node9" class="node">
<title>Node9</title>
<g id="a_node9"><a xlink:href="os__memory_8c.html#a211f98b56ba22e7ec073c1b09b35d0ff" target="_top" xlink:title="Writes a value from 0x0 to 0xF to the higher nibble of the given address.">
<polygon fill="white" stroke="black" points="344.5,-38.5 344.5,-57.5 430.5,-57.5 430.5,-38.5 344.5,-38.5"/>
<text text-anchor="middle" x="387.5" y="-45.5" font-family="FreeSans" font-size="10.00">setHighNibble</text>
</a>
</g>
</g>
<!-- Node8&#45;&gt;Node9 -->
<g id="edge9" class="edge">
<title>Node8&#45;&gt;Node9</title>
<path fill="none" stroke="midnightblue" d="M276.24,-33.89C293.94,-36.16 315.25,-38.88 334.39,-41.33"/>
<polygon fill="midnightblue" stroke="midnightblue" points="334.11,-44.82 344.47,-42.62 334.99,-37.88 334.11,-44.82"/>
</g>
<!-- Node10 -->
<g id="node10" class="node">
<title>Node10</title>
<g id="a_node10"><a xlink:href="os__memory_8c.html#a79edcf2881c1b78d097495d05e7cec4f" target="_top" xlink:title="Writes a value from 0x0 to 0xF to the lower nibble of the given address.">
<polygon fill="white" stroke="black" points="346,-0.5 346,-19.5 429,-19.5 429,-0.5 346,-0.5"/>
<text text-anchor="middle" x="387.5" y="-7.5" font-family="FreeSans" font-size="10.00">setLowNibble</text>
</a>
</g>
</g>
<!-- Node8&#45;&gt;Node10 -->
<g id="edge10" class="edge">
<title>Node8&#45;&gt;Node10</title>
<path fill="none" stroke="midnightblue" d="M276.24,-24.11C294.39,-21.78 316.33,-18.98 335.84,-16.48"/>
<polygon fill="midnightblue" stroke="midnightblue" points="336.31,-19.95 345.79,-15.21 335.42,-13.01 336.31,-19.95"/>
</g>
</g>
</svg>
