<?xml version="1.0" encoding="UTF-8" standalone="no"?>
<!DOCTYPE svg PUBLIC "-//W3C//DTD SVG 1.1//EN"
 "http://www.w3.org/Graphics/SVG/1.1/DTD/svg11.dtd">
<!-- Generated by graphviz version 2.43.0 (0)
 -->
<!-- Title: os_Memory_FirstFit Pages: 1 -->
<svg width="373pt" height="66pt"
 viewBox="0.00 0.00 373.00 66.00" xmlns="http://www.w3.org/2000/svg" xmlns:xlink="http://www.w3.org/1999/xlink">
<g id="graph0" class="graph" transform="scale(1 1) rotate(0) translate(4 62)">
<title>os_Memory_FirstFit</title>
<polygon fill="white" stroke="transparent" points="-4,4 -4,-62 369,-62 369,4 -4,4"/>
<!-- Node1 -->
<g id="node1" class="node">
<title>Node1</title>
<g id="a_node1"><a xlink:title="This function realises the first&#45;fit strategy as described in the corresponding exercise document.">
<polygon fill="#bfbfbf" stroke="black" points="0,-19.5 0,-38.5 112,-38.5 112,-19.5 0,-19.5"/>
<text text-anchor="middle" x="56" y="-26.5" font-family="FreeSans" font-size="10.00">os_Memory_FirstFit</text>
</a>
</g>
</g>
<!-- Node2 -->
<g id="node2" class="node">
<title>Node2</title>
<g id="a_node2"><a xlink:href="os__memory_8c.html#a29ccc3e0a668c0be4b285bc74ef6d920" target="_top" xlink:title="Function used to get the value of a single map entry, this is made public so the allocation strategie...">
<polygon fill="white" stroke="black" points="148,-19.5 148,-38.5 243,-38.5 243,-19.5 148,-19.5"/>
<text text-anchor="middle" x="195.5" y="-26.5" font-family="FreeSans" font-size="10.00">os_getMapEntry</text>
</a>
</g>
</g>
<!-- Node1&#45;&gt;Node2 -->
<g id="edge1" class="edge">
<title>Node1&#45;&gt;Node2</title>
<path fill="none" stroke="midnightblue" d="M112.13,-29C120.53,-29 129.2,-29 137.63,-29"/>
<polygon fill="midnightblue" stroke="midnightblue" points="137.75,-32.5 147.75,-29 137.75,-25.5 137.75,-32.5"/>
</g>
<!-- Node3 -->
<g id="node3" class="node">
<title>Node3</title>
<g id="a_node3"><a xlink:href="os__memory_8c.html#ae420976ba4abbd069aff795935b9636c" target="_top" xlink:title="Reads the value of the higher nibble of the given address.">
<polygon fill="white" stroke="black" points="279,-38.5 279,-57.5 365,-57.5 365,-38.5 279,-38.5"/>
<text text-anchor="middle" x="322" y="-45.5" font-family="FreeSans" font-size="10.00">getHighNibble</text>
</a>
</g>
</g>
<!-- Node2&#45;&gt;Node3 -->
<g id="edge2" class="edge">
<title>Node2&#45;&gt;Node3</title>
<path fill="none" stroke="midnightblue" d="M243.21,-36.13C251.64,-37.42 260.48,-38.76 269.05,-40.07"/>
<polygon fill="midnightblue" stroke="midnightblue" points="268.53,-43.53 278.95,-41.58 269.59,-36.61 268.53,-43.53"/>
</g>
<!-- Node4 -->
<g id="node4" class="node">
<title>Node4</title>
<g id="a_node4"><a xlink:href="os__memory_8c.html#a01bd9b56dbbeb0af404043ceca5c8818" target="_top" xlink:title="Reads the value of the lower nibble of the given address.">
<polygon fill="white" stroke="black" points="280.5,-0.5 280.5,-19.5 363.5,-19.5 363.5,-0.5 280.5,-0.5"/>
<text text-anchor="middle" x="322" y="-7.5" font-family="FreeSans" font-size="10.00">getLowNibble</text>
</a>
</g>
</g>
<!-- Node2&#45;&gt;Node4 -->
<g id="edge3" class="edge">
<title>Node2&#45;&gt;Node4</title>
<path fill="none" stroke="midnightblue" d="M243.21,-21.87C252.04,-20.52 261.3,-19.11 270.25,-17.75"/>
<polygon fill="midnightblue" stroke="midnightblue" points="270.8,-21.2 280.16,-16.23 269.75,-14.28 270.8,-21.2"/>
</g>
</g>
</svg>
