<?xml version="1.0" encoding="UTF-8" standalone="no"?>
<!DOCTYPE svg PUBLIC "-//W3C//DTD SVG 1.1//EN"
 "http://www.w3.org/Graphics/SVG/1.1/DTD/svg11.dtd">
<!-- Generated by graphviz version 2.43.0 (0)
 -->
<!-- Title: delayMs Pages: 1 -->
<svg width="415pt" height="28pt"
 viewBox="0.00 0.00 415.00 28.00" xmlns="http://www.w3.org/2000/svg" xmlns:xlink="http://www.w3.org/1999/xlink">
<g id="graph0" class="graph" transform="scale(1 1) rotate(0) translate(4 24)">
<title>delayMs</title>
<polygon fill="white" stroke="transparent" points="-4,4 -4,-24 411,-24 411,4 -4,4"/>
<!-- Node1 -->
<g id="node1" class="node">
<title>Node1</title>
<g id="a_node1"><a xlink:title="Waits for some milliseconds.">
<polygon fill="#bfbfbf" stroke="black" points="0,-0.5 0,-19.5 58,-19.5 58,-0.5 0,-0.5"/>
<text text-anchor="middle" x="29" y="-7.5" font-family="FreeSans" font-size="10.00">delayMs</text>
</a>
</g>
</g>
<!-- Node2 -->
<g id="node2" class="node">
<title>Node2</title>
<g id="a_node2"><a xlink:href="util_8c.html#a0ed4ceac216999d297c20ed56cd2f2e0" target="_top" xlink:title="Precise system time in ms.">
<polygon fill="white" stroke="black" points="94,-0.5 94,-19.5 228,-19.5 228,-0.5 94,-0.5"/>
<text text-anchor="middle" x="161" y="-7.5" font-family="FreeSans" font-size="10.00">os_systemTime_precise</text>
</a>
</g>
</g>
<!-- Node1&#45;&gt;Node2 -->
<g id="edge1" class="edge">
<title>Node1&#45;&gt;Node2</title>
<path fill="none" stroke="midnightblue" d="M58.21,-10C65.91,-10 74.65,-10 83.68,-10"/>
<polygon fill="midnightblue" stroke="midnightblue" points="83.97,-13.5 93.97,-10 83.97,-6.5 83.97,-13.5"/>
</g>
<!-- Node3 -->
<g id="node3" class="node">
<title>Node3</title>
<g id="a_node3"><a xlink:href="util_8c.html#aa7568de3711b151bbc57bb3517a5cb0a" target="_top" xlink:title=" ">
<polygon fill="white" stroke="black" points="264,-0.5 264,-19.5 407,-19.5 407,-0.5 264,-0.5"/>
<text text-anchor="middle" x="335.5" y="-7.5" font-family="FreeSans" font-size="10.00">os_systemTime_augment</text>
</a>
</g>
</g>
<!-- Node2&#45;&gt;Node3 -->
<g id="edge2" class="edge">
<title>Node2&#45;&gt;Node3</title>
<path fill="none" stroke="midnightblue" d="M228.2,-10C236.6,-10 245.27,-10 253.86,-10"/>
<polygon fill="midnightblue" stroke="midnightblue" points="253.89,-13.5 263.89,-10 253.89,-6.5 253.89,-13.5"/>
</g>
</g>
</svg>
