<?xml version="1.0" encoding="UTF-8" standalone="no"?>
<!DOCTYPE svg PUBLIC "-//W3C//DTD SVG 1.1//EN"
 "http://www.w3.org/Graphics/SVG/1.1/DTD/svg11.dtd">
<!-- Generated by graphviz version 2.43.0 (0)
 -->
<!-- Title: util.h Pages: 1 -->
<svg width="382pt" height="140pt"
 viewBox="0.00 0.00 381.50 140.00" xmlns="http://www.w3.org/2000/svg" xmlns:xlink="http://www.w3.org/1999/xlink">
<g id="graph0" class="graph" transform="scale(1 1) rotate(0) translate(4 136)">
<title>util.h</title>
<polygon fill="white" stroke="transparent" points="-4,4 -4,-136 377.5,-136 377.5,4 -4,4"/>
<!-- Node1 -->
<g id="node1" class="node">
<title>Node1</title>
<g id="a_node1"><a xlink:title="Little helpers that don&#39;t fit elsewhere.">
<polygon fill="#bfbfbf" stroke="black" points="181.5,-112.5 181.5,-131.5 222.5,-131.5 222.5,-112.5 181.5,-112.5"/>
<text text-anchor="middle" x="202" y="-119.5" font-family="FreeSans" font-size="10.00">util.h</text>
</a>
</g>
</g>
<!-- Node2 -->
<g id="node2" class="node">
<title>Node2</title>
<g id="a_node2"><a xlink:href="lcd_8h.html" target="_top" xlink:title="Library for LCD use.">
<polygon fill="white" stroke="black" points="158,-56.5 158,-75.5 198,-75.5 198,-56.5 158,-56.5"/>
<text text-anchor="middle" x="178" y="-63.5" font-family="FreeSans" font-size="10.00">lcd.h</text>
</a>
</g>
</g>
<!-- Node1&#45;&gt;Node2 -->
<g id="edge1" class="edge">
<title>Node1&#45;&gt;Node2</title>
<path fill="none" stroke="midnightblue" d="M193.86,-102.69C189.82,-93.59 185.12,-83.01 181.89,-75.75"/>
<polygon fill="midnightblue" stroke="midnightblue" points="190.78,-104.37 198.04,-112.08 197.17,-101.52 190.78,-104.37"/>
</g>
<!-- Node3 -->
<g id="node3" class="node">
<title>Node3</title>
<g id="a_node3"><a xlink:href="os__core_8c.html" target="_top" xlink:title=" ">
<polygon fill="white" stroke="black" points="0,-0.5 0,-19.5 62,-19.5 62,-0.5 0,-0.5"/>
<text text-anchor="middle" x="31" y="-7.5" font-family="FreeSans" font-size="10.00">os_core.c</text>
</a>
</g>
</g>
<!-- Node1&#45;&gt;Node3 -->
<g id="edge6" class="edge">
<title>Node1&#45;&gt;Node3</title>
<path fill="none" stroke="midnightblue" d="M179.79,-106.71C143.76,-83.53 73.64,-38.43 44.36,-19.59"/>
<polygon fill="midnightblue" stroke="midnightblue" points="178.28,-109.9 188.58,-112.37 182.07,-104.01 178.28,-109.9"/>
</g>
<!-- Node4 -->
<g id="node4" class="node">
<title>Node4</title>
<g id="a_node4"><a xlink:href="os__scheduler_8c.html" target="_top" xlink:title=" ">
<polygon fill="white" stroke="black" points="80,-0.5 80,-19.5 168,-19.5 168,-0.5 80,-0.5"/>
<text text-anchor="middle" x="124" y="-7.5" font-family="FreeSans" font-size="10.00">os_scheduler.c</text>
</a>
</g>
</g>
<!-- Node1&#45;&gt;Node4 -->
<g id="edge8" class="edge">
<title>Node1&#45;&gt;Node4</title>
<path fill="none" stroke="midnightblue" d="M180.2,-106.46C169.61,-98.5 157.4,-87.84 149,-76 136.27,-58.05 129,-32.77 125.87,-19.65"/>
<polygon fill="midnightblue" stroke="midnightblue" points="178.42,-109.49 188.59,-112.48 182.5,-103.81 178.42,-109.49"/>
</g>
<!-- Node5 -->
<g id="node5" class="node">
<title>Node5</title>
<g id="a_node5"><a xlink:href="os__taskman_8c.html" target="_top" xlink:title=" ">
<polygon fill="white" stroke="black" points="186,-0.5 186,-19.5 270,-19.5 270,-0.5 186,-0.5"/>
<text text-anchor="middle" x="228" y="-7.5" font-family="FreeSans" font-size="10.00">os_taskman.c</text>
</a>
</g>
</g>
<!-- Node1&#45;&gt;Node5 -->
<g id="edge9" class="edge">
<title>Node1&#45;&gt;Node5</title>
<path fill="none" stroke="midnightblue" d="M206.41,-102.35C212.1,-78.25 221.78,-37.31 225.97,-19.59"/>
<polygon fill="midnightblue" stroke="midnightblue" points="202.93,-101.83 204.04,-112.37 209.75,-103.44 202.93,-101.83"/>
</g>
<!-- Node6 -->
<g id="node6" class="node">
<title>Node6</title>
<g id="a_node6"><a xlink:href="util_8c.html" target="_top" xlink:title=" ">
<polygon fill="white" stroke="black" points="288.5,-0.5 288.5,-19.5 329.5,-19.5 329.5,-0.5 288.5,-0.5"/>
<text text-anchor="middle" x="309" y="-7.5" font-family="FreeSans" font-size="10.00">util.c</text>
</a>
</g>
</g>
<!-- Node1&#45;&gt;Node6 -->
<g id="edge10" class="edge">
<title>Node1&#45;&gt;Node6</title>
<path fill="none" stroke="midnightblue" d="M217.66,-104.9C240.67,-81.25 282.79,-37.95 300.64,-19.59"/>
<polygon fill="midnightblue" stroke="midnightblue" points="214.86,-102.76 210.4,-112.37 219.88,-107.64 214.86,-102.76"/>
</g>
<!-- Node7 -->
<g id="node7" class="node">
<title>Node7</title>
<g id="a_node7"><a xlink:href="os__memory_8c.html" target="_top" xlink:title=" ">
<polygon fill="white" stroke="black" points="292.5,-56.5 292.5,-75.5 373.5,-75.5 373.5,-56.5 292.5,-56.5"/>
<text text-anchor="middle" x="333" y="-63.5" font-family="FreeSans" font-size="10.00">os_memory.c</text>
</a>
</g>
</g>
<!-- Node1&#45;&gt;Node7 -->
<g id="edge7" class="edge">
<title>Node1&#45;&gt;Node7</title>
<path fill="none" stroke="midnightblue" d="M232.32,-108.5C256.88,-98.38 290.82,-84.39 312.34,-75.52"/>
<polygon fill="midnightblue" stroke="midnightblue" points="230.67,-105.4 222.76,-112.44 233.34,-111.87 230.67,-105.4"/>
</g>
<!-- Node2&#45;&gt;Node3 -->
<g id="edge2" class="edge">
<title>Node2&#45;&gt;Node3</title>
<path fill="none" stroke="midnightblue" d="M148.29,-54.09C120.56,-43.9 79.72,-28.9 54.28,-19.55"/>
<polygon fill="midnightblue" stroke="midnightblue" points="147.27,-57.44 157.87,-57.6 149.69,-50.87 147.27,-57.44"/>
</g>
<!-- Node2&#45;&gt;Node4 -->
<g id="edge3" class="edge">
<title>Node2&#45;&gt;Node4</title>
<path fill="none" stroke="midnightblue" d="M162,-49C152.43,-39.43 140.64,-27.64 132.75,-19.75"/>
<polygon fill="midnightblue" stroke="midnightblue" points="159.54,-51.49 169.08,-56.08 164.49,-46.54 159.54,-51.49"/>
</g>
<!-- Node2&#45;&gt;Node5 -->
<g id="edge4" class="edge">
<title>Node2&#45;&gt;Node5</title>
<path fill="none" stroke="midnightblue" d="M193.08,-48.72C201.89,-39.2 212.67,-27.56 219.9,-19.75"/>
<polygon fill="midnightblue" stroke="midnightblue" points="190.48,-46.37 186.26,-56.08 195.62,-51.12 190.48,-46.37"/>
</g>
<!-- Node2&#45;&gt;Node6 -->
<g id="edge5" class="edge">
<title>Node2&#45;&gt;Node6</title>
<path fill="none" stroke="midnightblue" d="M207.71,-52.75C232.24,-42.64 266.44,-28.55 288.15,-19.6"/>
<polygon fill="midnightblue" stroke="midnightblue" points="206.09,-49.63 198.18,-56.68 208.76,-56.11 206.09,-49.63"/>
</g>
</g>
</svg>
