<?xml version="1.0" encoding="UTF-8" standalone="no"?>
<!DOCTYPE svg PUBLIC "-//W3C//DTD SVG 1.1//EN"
 "http://www.w3.org/Graphics/SVG/1.1/DTD/svg11.dtd">
<!-- Generated by graphviz version 2.43.0 (0)
 -->
<!-- Title: atmega644constants.h Pages: 1 -->
<svg width="973pt" height="308pt"
 viewBox="0.00 0.00 972.67 308.00" xmlns="http://www.w3.org/2000/svg" xmlns:xlink="http://www.w3.org/1999/xlink">
<g id="graph0" class="graph" transform="scale(1 1) rotate(0) translate(4 304)">
<title>atmega644constants.h</title>
<polygon fill="white" stroke="transparent" points="-4,4 -4,-304 968.67,-304 968.67,4 -4,4"/>
<!-- Node1 -->
<g id="node1" class="node">
<title>Node1</title>
<g id="a_node1"><a xlink:title="Constants for ATMega644 and EVA board. Defines several useful constants for the ATMega644.">
<polygon fill="#bfbfbf" stroke="black" points="715.17,-280.5 715.17,-299.5 843.17,-299.5 843.17,-280.5 715.17,-280.5"/>
<text text-anchor="middle" x="779.17" y="-287.5" font-family="FreeSans" font-size="10.00">atmega644constants.h</text>
</a>
</g>
</g>
<!-- Node2 -->
<g id="node2" class="node">
<title>Node2</title>
<g id="a_node2"><a xlink:href="defines_8h.html" target="_top" xlink:title="Simple definitions and assembler&#45;macros, mostly 8/16&#45;Bit values.">
<polygon fill="white" stroke="black" points="545.67,-224.5 545.67,-243.5 606.67,-243.5 606.67,-224.5 545.67,-224.5"/>
<text text-anchor="middle" x="576.17" y="-231.5" font-family="FreeSans" font-size="10.00">defines.h</text>
</a>
</g>
</g>
<!-- Node1&#45;&gt;Node2 -->
<g id="edge1" class="edge">
<title>Node1&#45;&gt;Node2</title>
<path fill="none" stroke="midnightblue" d="M737.06,-277.8C698.24,-267.47 641.55,-252.39 606.86,-243.16"/>
<polygon fill="midnightblue" stroke="midnightblue" points="736.44,-281.26 747.01,-280.44 738.24,-274.49 736.44,-281.26"/>
</g>
<!-- Node7 -->
<g id="node7" class="node">
<title>Node7</title>
<g id="a_node7"><a xlink:href="util_8c.html" target="_top" xlink:title=" ">
<polygon fill="white" stroke="black" points="923.67,-112.5 923.67,-131.5 964.67,-131.5 964.67,-112.5 923.67,-112.5"/>
<text text-anchor="middle" x="944.17" y="-119.5" font-family="FreeSans" font-size="10.00">util.c</text>
</a>
</g>
</g>
<!-- Node1&#45;&gt;Node7 -->
<g id="edge29" class="edge">
<title>Node1&#45;&gt;Node7</title>
<path fill="none" stroke="midnightblue" d="M819.89,-277.12C859.86,-263.04 918.58,-235.31 945.17,-188 955.24,-170.09 950.49,-144.8 946.9,-131.67"/>
<polygon fill="midnightblue" stroke="midnightblue" points="818.52,-273.89 810.16,-280.41 820.76,-280.52 818.52,-273.89"/>
</g>
<!-- Node3 -->
<g id="node3" class="node">
<title>Node3</title>
<g id="a_node3"><a xlink:href="lcd_8h.html" target="_top" xlink:title="Library for LCD use.">
<polygon fill="white" stroke="black" points="876.17,-168.5 876.17,-187.5 916.17,-187.5 916.17,-168.5 876.17,-168.5"/>
<text text-anchor="middle" x="896.17" y="-175.5" font-family="FreeSans" font-size="10.00">lcd.h</text>
</a>
</g>
</g>
<!-- Node2&#45;&gt;Node3 -->
<g id="edge2" class="edge">
<title>Node2&#45;&gt;Node3</title>
<path fill="none" stroke="midnightblue" d="M617.03,-228.61C673.67,-222.09 779.02,-208.38 867.17,-188 870.05,-187.34 873.06,-186.53 876,-185.68"/>
<polygon fill="midnightblue" stroke="midnightblue" points="616.58,-225.14 607.04,-229.74 617.37,-232.09 616.58,-225.14"/>
</g>
<!-- Node4 -->
<g id="node4" class="node">
<title>Node4</title>
<g id="a_node4"><a xlink:href="os__core_8c.html" target="_top" xlink:title=" ">
<polygon fill="white" stroke="black" points="714.17,-112.5 714.17,-131.5 776.17,-131.5 776.17,-112.5 714.17,-112.5"/>
<text text-anchor="middle" x="745.17" y="-119.5" font-family="FreeSans" font-size="10.00">os_core.c</text>
</a>
</g>
</g>
<!-- Node2&#45;&gt;Node4 -->
<g id="edge21" class="edge">
<title>Node2&#45;&gt;Node4</title>
<path fill="none" stroke="midnightblue" d="M577.01,-213.82C578.65,-199.39 583.15,-180.11 595.17,-168 626.88,-136.07 680.28,-126.62 714.08,-123.92"/>
<polygon fill="midnightblue" stroke="midnightblue" points="573.5,-213.87 576.22,-224.11 580.48,-214.41 573.5,-213.87"/>
</g>
<!-- Node6 -->
<g id="node6" class="node">
<title>Node6</title>
<g id="a_node6"><a xlink:href="os__taskman_8c.html" target="_top" xlink:title=" ">
<polygon fill="white" stroke="black" points="274.17,-0.5 274.17,-19.5 358.17,-19.5 358.17,-0.5 274.17,-0.5"/>
<text text-anchor="middle" x="316.17" y="-7.5" font-family="FreeSans" font-size="10.00">os_taskman.c</text>
</a>
</g>
</g>
<!-- Node2&#45;&gt;Node6 -->
<g id="edge26" class="edge">
<title>Node2&#45;&gt;Node6</title>
<path fill="none" stroke="midnightblue" d="M535.31,-228.46C414.9,-214.13 66.01,-165.41 4.17,-76 -0.88,-68.69 -1.65,-62.72 4.17,-56 38.61,-16.24 197.28,-10.82 274.17,-10.58"/>
<polygon fill="midnightblue" stroke="midnightblue" points="535.24,-231.98 545.58,-229.66 536.05,-225.02 535.24,-231.98"/>
</g>
<!-- Node2&#45;&gt;Node7 -->
<g id="edge28" class="edge">
<title>Node2&#45;&gt;Node7</title>
<path fill="none" stroke="midnightblue" d="M617.01,-233.16C698.98,-232.62 879.63,-226.93 925.17,-188 941.8,-173.79 944.29,-145.92 944.42,-131.73"/>
<polygon fill="midnightblue" stroke="midnightblue" points="616.8,-229.66 606.82,-233.2 616.83,-236.66 616.8,-229.66"/>
</g>
<!-- Node8 -->
<g id="node8" class="node">
<title>Node8</title>
<g id="a_node8"><a xlink:href="os__scheduler_8h.html" target="_top" xlink:title="Scheduling module for the OS.">
<polygon fill="white" stroke="black" points="310.67,-168.5 310.67,-187.5 399.67,-187.5 399.67,-168.5 310.67,-168.5"/>
<text text-anchor="middle" x="355.17" y="-175.5" font-family="FreeSans" font-size="10.00">os_scheduler.h</text>
</a>
</g>
</g>
<!-- Node2&#45;&gt;Node8 -->
<g id="edge7" class="edge">
<title>Node2&#45;&gt;Node8</title>
<path fill="none" stroke="midnightblue" d="M535.61,-223.09C493.87,-212.89 429.52,-197.17 390.01,-187.51"/>
<polygon fill="midnightblue" stroke="midnightblue" points="534.9,-226.52 545.44,-225.49 536.56,-219.72 534.9,-226.52"/>
</g>
<!-- Node12 -->
<g id="node12" class="node">
<title>Node12</title>
<g id="a_node12"><a xlink:href="os__user__privileges_8h.html" target="_top" xlink:title="User privileges specification used in part by the Taskman.">
<polygon fill="white" stroke="black" points="344.17,-56.5 344.17,-75.5 460.17,-75.5 460.17,-56.5 344.17,-56.5"/>
<text text-anchor="middle" x="402.17" y="-63.5" font-family="FreeSans" font-size="10.00">os_user_privileges.h</text>
</a>
</g>
</g>
<!-- Node2&#45;&gt;Node12 -->
<g id="edge27" class="edge">
<title>Node2&#45;&gt;Node12</title>
<path fill="none" stroke="midnightblue" d="M554.26,-218.6C527.57,-200.41 481.99,-167.21 449.17,-132 431.89,-113.46 415.43,-88.43 407.35,-75.51"/>
<polygon fill="midnightblue" stroke="midnightblue" points="552.61,-221.71 562.86,-224.38 556.52,-215.9 552.61,-221.71"/>
</g>
<!-- Node13 -->
<g id="node13" class="node">
<title>Node13</title>
<g id="a_node13"><a xlink:href="os__scheduling__strategies_8h.html" target="_top" xlink:title="Scheduling library for the OS.">
<polygon fill="white" stroke="black" points="457.67,-112.5 457.67,-131.5 606.67,-131.5 606.67,-112.5 457.67,-112.5"/>
<text text-anchor="middle" x="532.17" y="-119.5" font-family="FreeSans" font-size="10.00">os_scheduling_strategies.h</text>
</a>
</g>
</g>
<!-- Node2&#45;&gt;Node13 -->
<g id="edge24" class="edge">
<title>Node2&#45;&gt;Node13</title>
<path fill="none" stroke="midnightblue" d="M551.8,-218.73C541.23,-211.09 529.95,-200.64 524.17,-188 515.67,-169.39 523.08,-144.81 528.23,-131.86"/>
<polygon fill="midnightblue" stroke="midnightblue" points="550.13,-221.82 560.39,-224.47 554.02,-216 550.13,-221.82"/>
</g>
<!-- Node14 -->
<g id="node14" class="node">
<title>Node14</title>
<g id="a_node14"><a xlink:href="os__scheduling__strategies_8c.html" target="_top" xlink:title=" ">
<polygon fill="white" stroke="black" points="584.17,-56.5 584.17,-75.5 732.17,-75.5 732.17,-56.5 584.17,-56.5"/>
<text text-anchor="middle" x="658.17" y="-63.5" font-family="FreeSans" font-size="10.00">os_scheduling_strategies.c</text>
</a>
</g>
</g>
<!-- Node2&#45;&gt;Node14 -->
<g id="edge25" class="edge">
<title>Node2&#45;&gt;Node14</title>
<path fill="none" stroke="midnightblue" d="M573.48,-214.12C572.4,-200.67 572.66,-182.49 579.17,-168 588.58,-147.07 601.63,-149.75 616.17,-132 631.5,-113.29 646.04,-88.76 653.32,-75.84"/>
<polygon fill="midnightblue" stroke="midnightblue" points="570.01,-214.57 574.6,-224.12 576.97,-213.79 570.01,-214.57"/>
</g>
<!-- Node15 -->
<g id="node15" class="node">
<title>Node15</title>
<g id="a_node15"><a xlink:href="os__mem__drivers_8c.html" target="_top" xlink:title=" ">
<polygon fill="white" stroke="black" points="604.17,-168.5 604.17,-187.5 710.17,-187.5 710.17,-168.5 604.17,-168.5"/>
<text text-anchor="middle" x="657.17" y="-175.5" font-family="FreeSans" font-size="10.00">os_mem_drivers.c</text>
</a>
</g>
</g>
<!-- Node2&#45;&gt;Node15 -->
<g id="edge22" class="edge">
<title>Node2&#45;&gt;Node15</title>
<path fill="none" stroke="midnightblue" d="M597.74,-218.62C612.54,-208.76 631.69,-195.99 644.19,-187.65"/>
<polygon fill="midnightblue" stroke="midnightblue" points="595.57,-215.86 589.19,-224.32 599.45,-221.69 595.57,-215.86"/>
</g>
<!-- Node16 -->
<g id="node16" class="node">
<title>Node16</title>
<g id="a_node16"><a xlink:href="os__memheap__drivers_8c.html" target="_top" xlink:title=" ">
<polygon fill="white" stroke="black" points="728.17,-168.5 728.17,-187.5 858.17,-187.5 858.17,-168.5 728.17,-168.5"/>
<text text-anchor="middle" x="793.17" y="-175.5" font-family="FreeSans" font-size="10.00">os_memheap_drivers.c</text>
</a>
</g>
</g>
<!-- Node2&#45;&gt;Node16 -->
<g id="edge23" class="edge">
<title>Node2&#45;&gt;Node16</title>
<path fill="none" stroke="midnightblue" d="M616.72,-222.91C657.65,-212.73 720.17,-197.17 758.76,-187.56"/>
<polygon fill="midnightblue" stroke="midnightblue" points="615.66,-219.57 606.8,-225.38 617.35,-226.36 615.66,-219.57"/>
</g>
<!-- Node3&#45;&gt;Node4 -->
<g id="edge3" class="edge">
<title>Node3&#45;&gt;Node4</title>
<path fill="none" stroke="midnightblue" d="M866.68,-166.45C838.16,-156.25 795.49,-140.99 769.05,-131.54"/>
<polygon fill="midnightblue" stroke="midnightblue" points="865.53,-169.76 876.12,-169.83 867.88,-163.17 865.53,-169.76"/>
</g>
<!-- Node5 -->
<g id="node5" class="node">
<title>Node5</title>
<g id="a_node5"><a xlink:href="os__scheduler_8c.html" target="_top" xlink:title=" ">
<polygon fill="white" stroke="black" points="478.17,-56.5 478.17,-75.5 566.17,-75.5 566.17,-56.5 478.17,-56.5"/>
<text text-anchor="middle" x="522.17" y="-63.5" font-family="FreeSans" font-size="10.00">os_scheduler.c</text>
</a>
</g>
</g>
<!-- Node3&#45;&gt;Node5 -->
<g id="edge4" class="edge">
<title>Node3&#45;&gt;Node5</title>
<path fill="none" stroke="midnightblue" d="M876.66,-162.61C855.3,-147.59 819.5,-124.52 785.17,-112 783.89,-111.53 640.77,-87.16 566.23,-74.49"/>
<polygon fill="midnightblue" stroke="midnightblue" points="874.71,-165.52 884.88,-168.5 878.79,-159.83 874.71,-165.52"/>
</g>
<!-- Node3&#45;&gt;Node6 -->
<g id="edge5" class="edge">
<title>Node3&#45;&gt;Node6</title>
<path fill="none" stroke="midnightblue" d="M881.71,-160.58C856.39,-133.16 801.02,-78.8 741.17,-56 671.84,-29.58 451.44,-16.98 358.33,-12.73"/>
<polygon fill="midnightblue" stroke="midnightblue" points="879.26,-163.1 888.57,-168.16 884.45,-158.4 879.26,-163.1"/>
</g>
<!-- Node3&#45;&gt;Node7 -->
<g id="edge6" class="edge">
<title>Node3&#45;&gt;Node7</title>
<path fill="none" stroke="midnightblue" d="M910.9,-160.43C919.31,-150.97 929.52,-139.48 936.4,-131.75"/>
<polygon fill="midnightblue" stroke="midnightblue" points="908.13,-158.28 904.1,-168.08 913.36,-162.93 908.13,-158.28"/>
</g>
<!-- Node8&#45;&gt;Node5 -->
<g id="edge15" class="edge">
<title>Node8&#45;&gt;Node5</title>
<path fill="none" stroke="midnightblue" d="M375.36,-162.59C394.25,-149.2 423.36,-128.86 449.17,-112 469.24,-98.89 492.94,-84.47 507.77,-75.58"/>
<polygon fill="midnightblue" stroke="midnightblue" points="373.33,-159.73 367.2,-168.38 377.38,-165.44 373.33,-159.73"/>
</g>
<!-- Node8&#45;&gt;Node6 -->
<g id="edge19" class="edge">
<title>Node8&#45;&gt;Node6</title>
<path fill="none" stroke="midnightblue" d="M350.69,-157.93C342.23,-121.92 324.22,-45.23 318.19,-19.57"/>
<polygon fill="midnightblue" stroke="midnightblue" points="347.38,-159.14 353.08,-168.08 354.2,-157.54 347.38,-159.14"/>
</g>
<!-- Node9 -->
<g id="node9" class="node">
<title>Node9</title>
<g id="a_node9"><a xlink:href="os__memory_8h.html" target="_top" xlink:title="Library for OS memory management.">
<polygon fill="white" stroke="black" points="206.17,-112.5 206.17,-131.5 288.17,-131.5 288.17,-112.5 206.17,-112.5"/>
<text text-anchor="middle" x="247.17" y="-119.5" font-family="FreeSans" font-size="10.00">os_memory.h</text>
</a>
</g>
</g>
<!-- Node8&#45;&gt;Node9 -->
<g id="edge8" class="edge">
<title>Node8&#45;&gt;Node9</title>
<path fill="none" stroke="midnightblue" d="M328.63,-163.73C308.63,-153.73 281.79,-140.31 264.48,-131.65"/>
<polygon fill="midnightblue" stroke="midnightblue" points="327.31,-166.98 337.82,-168.32 330.44,-160.72 327.31,-166.98"/>
</g>
<!-- Node8&#45;&gt;Node12 -->
<g id="edge20" class="edge">
<title>Node8&#45;&gt;Node12</title>
<path fill="none" stroke="midnightblue" d="M360.84,-158.68C365.12,-145.5 371.39,-127.4 378.17,-112 383.89,-99.04 391.83,-84.7 396.99,-75.77"/>
<polygon fill="midnightblue" stroke="midnightblue" points="357.44,-157.84 357.75,-168.43 364.11,-159.95 357.44,-157.84"/>
</g>
<!-- Node8&#45;&gt;Node13 -->
<g id="edge16" class="edge">
<title>Node8&#45;&gt;Node13</title>
<path fill="none" stroke="midnightblue" d="M393.08,-165.44C426.45,-155.26 474.28,-140.66 504.26,-131.52"/>
<polygon fill="midnightblue" stroke="midnightblue" points="391.76,-162.18 383.22,-168.44 393.81,-168.87 391.76,-162.18"/>
</g>
<!-- Node9&#45;&gt;Node5 -->
<g id="edge11" class="edge">
<title>Node9&#45;&gt;Node5</title>
<path fill="none" stroke="midnightblue" d="M298.33,-110.96C350.15,-100.78 429.46,-85.21 478.45,-75.59"/>
<polygon fill="midnightblue" stroke="midnightblue" points="297.48,-107.55 288.34,-112.92 298.83,-114.42 297.48,-107.55"/>
</g>
<!-- Node9&#45;&gt;Node6 -->
<g id="edge14" class="edge">
<title>Node9&#45;&gt;Node6</title>
<path fill="none" stroke="midnightblue" d="M258.06,-103.64C273.05,-79.74 299.47,-37.63 310.78,-19.59"/>
<polygon fill="midnightblue" stroke="midnightblue" points="254.94,-102.04 252.59,-112.37 260.87,-105.76 254.94,-102.04"/>
</g>
<!-- Node10 -->
<g id="node10" class="node">
<title>Node10</title>
<g id="a_node10"><a xlink:href="os__memory_8c.html" target="_top" xlink:title=" ">
<polygon fill="white" stroke="black" points="168.67,-56.5 168.67,-75.5 249.67,-75.5 249.67,-56.5 168.67,-56.5"/>
<text text-anchor="middle" x="209.17" y="-63.5" font-family="FreeSans" font-size="10.00">os_memory.c</text>
</a>
</g>
</g>
<!-- Node9&#45;&gt;Node10 -->
<g id="edge9" class="edge">
<title>Node9&#45;&gt;Node10</title>
<path fill="none" stroke="midnightblue" d="M235.11,-103.86C228.53,-94.5 220.66,-83.33 215.33,-75.75"/>
<polygon fill="midnightblue" stroke="midnightblue" points="232.28,-105.92 240.9,-112.08 238.01,-101.89 232.28,-105.92"/>
</g>
<!-- Node11 -->
<g id="node11" class="node">
<title>Node11</title>
<g id="a_node11"><a xlink:href="os__memory__strategies_8c.html" target="_top" xlink:title=" ">
<polygon fill="white" stroke="black" points="13.67,-56.5 13.67,-75.5 150.67,-75.5 150.67,-56.5 13.67,-56.5"/>
<text text-anchor="middle" x="82.17" y="-63.5" font-family="FreeSans" font-size="10.00">os_memory_strategies.c</text>
</a>
</g>
</g>
<!-- Node9&#45;&gt;Node11 -->
<g id="edge10" class="edge">
<title>Node9&#45;&gt;Node11</title>
<path fill="none" stroke="midnightblue" d="M211.44,-109.3C180.35,-99.13 136.03,-84.62 108.2,-75.52"/>
<polygon fill="midnightblue" stroke="midnightblue" points="210.44,-112.66 221.03,-112.44 212.61,-106.01 210.44,-112.66"/>
</g>
<!-- Node9&#45;&gt;Node12 -->
<g id="edge12" class="edge">
<title>Node9&#45;&gt;Node12</title>
<path fill="none" stroke="midnightblue" d="M281.51,-109.04C310.67,-98.88 351.81,-84.55 377.73,-75.52"/>
<polygon fill="midnightblue" stroke="midnightblue" points="280.03,-105.85 271.73,-112.44 282.33,-112.46 280.03,-105.85"/>
</g>
<!-- Node12&#45;&gt;Node6 -->
<g id="edge13" class="edge">
<title>Node12&#45;&gt;Node6</title>
<path fill="none" stroke="midnightblue" d="M379.72,-50.9C363.95,-41 343.36,-28.07 329.96,-19.65"/>
<polygon fill="midnightblue" stroke="midnightblue" points="378.03,-53.97 388.36,-56.32 381.75,-48.04 378.03,-53.97"/>
</g>
<!-- Node13&#45;&gt;Node5 -->
<g id="edge17" class="edge">
<title>Node13&#45;&gt;Node5</title>
<path fill="none" stroke="midnightblue" d="M528.67,-102.1C527.01,-93.14 525.11,-82.86 523.79,-75.75"/>
<polygon fill="midnightblue" stroke="midnightblue" points="525.26,-102.89 530.52,-112.08 532.14,-101.61 525.26,-102.89"/>
</g>
<!-- Node13&#45;&gt;Node14 -->
<g id="edge18" class="edge">
<title>Node13&#45;&gt;Node14</title>
<path fill="none" stroke="midnightblue" d="M561.33,-108.5C584.95,-98.38 617.6,-84.39 638.3,-75.52"/>
<polygon fill="midnightblue" stroke="midnightblue" points="559.95,-105.29 552.14,-112.44 562.71,-111.72 559.95,-105.29"/>
</g>
</g>
</svg>
