<?xml version="1.0" encoding="UTF-8" standalone="no"?>
<!DOCTYPE svg PUBLIC "-//W3C//DTD SVG 1.1//EN"
 "http://www.w3.org/Graphics/SVG/1.1/DTD/svg11.dtd">
<!-- Generated by graphviz version 2.43.0 (0)
 -->
<!-- Title: defines.h Pages: 1 -->
<svg width="949pt" height="252pt"
 viewBox="0.00 0.00 948.67 252.00" xmlns="http://www.w3.org/2000/svg" xmlns:xlink="http://www.w3.org/1999/xlink">
<g id="graph0" class="graph" transform="scale(1 1) rotate(0) translate(4 248)">
<title>defines.h</title>
<polygon fill="white" stroke="transparent" points="-4,4 -4,-248 944.67,-248 944.67,4 -4,4"/>
<!-- Node1 -->
<g id="node1" class="node">
<title>Node1</title>
<g id="a_node1"><a xlink:title="Simple definitions and assembler&#45;macros, mostly 8/16&#45;Bit values.">
<polygon fill="#bfbfbf" stroke="black" points="263.17,-224.5 263.17,-243.5 324.17,-243.5 324.17,-224.5 263.17,-224.5"/>
<text text-anchor="middle" x="293.67" y="-231.5" font-family="FreeSans" font-size="10.00">defines.h</text>
</a>
</g>
</g>
<!-- Node2 -->
<g id="node2" class="node">
<title>Node2</title>
<g id="a_node2"><a xlink:href="lcd_8h.html" target="_top" xlink:title="Library for LCD use.">
<polygon fill="white" stroke="black" points="133.67,-168.5 133.67,-187.5 173.67,-187.5 173.67,-168.5 133.67,-168.5"/>
<text text-anchor="middle" x="153.67" y="-175.5" font-family="FreeSans" font-size="10.00">lcd.h</text>
</a>
</g>
</g>
<!-- Node1&#45;&gt;Node2 -->
<g id="edge1" class="edge">
<title>Node1&#45;&gt;Node2</title>
<path fill="none" stroke="midnightblue" d="M262.09,-220.82C235.08,-210.4 197.03,-195.73 173.93,-186.82"/>
<polygon fill="midnightblue" stroke="midnightblue" points="260.9,-224.11 271.49,-224.44 263.42,-217.58 260.9,-224.11"/>
</g>
<!-- Node3 -->
<g id="node3" class="node">
<title>Node3</title>
<g id="a_node3"><a xlink:href="os__core_8c.html" target="_top" xlink:title=" ">
<polygon fill="white" stroke="black" points="14.67,-112.5 14.67,-131.5 76.67,-131.5 76.67,-112.5 14.67,-112.5"/>
<text text-anchor="middle" x="45.67" y="-119.5" font-family="FreeSans" font-size="10.00">os_core.c</text>
</a>
</g>
</g>
<!-- Node1&#45;&gt;Node3 -->
<g id="edge20" class="edge">
<title>Node1&#45;&gt;Node3</title>
<path fill="none" stroke="midnightblue" d="M252.98,-227.19C217.6,-220.99 165.72,-209.08 124.67,-188 95.28,-172.91 66.9,-145.43 53.57,-131.54"/>
<polygon fill="midnightblue" stroke="midnightblue" points="252.51,-230.66 262.95,-228.86 253.67,-223.76 252.51,-230.66"/>
</g>
<!-- Node5 -->
<g id="node5" class="node">
<title>Node5</title>
<g id="a_node5"><a xlink:href="os__taskman_8c.html" target="_top" xlink:title=" ">
<polygon fill="white" stroke="black" points="100.67,-0.5 100.67,-19.5 184.67,-19.5 184.67,-0.5 100.67,-0.5"/>
<text text-anchor="middle" x="142.67" y="-7.5" font-family="FreeSans" font-size="10.00">os_taskman.c</text>
</a>
</g>
</g>
<!-- Node1&#45;&gt;Node5 -->
<g id="edge25" class="edge">
<title>Node1&#45;&gt;Node5</title>
<path fill="none" stroke="midnightblue" d="M252.92,-228.4C210.96,-222.66 144.3,-210.7 90.67,-188 49.01,-170.37 27.13,-171.83 5.67,-132 -23.38,-78.08 69.24,-36.69 116.59,-19.58"/>
<polygon fill="midnightblue" stroke="midnightblue" points="252.66,-231.9 263.03,-229.73 253.58,-224.96 252.66,-231.9"/>
</g>
<!-- Node6 -->
<g id="node6" class="node">
<title>Node6</title>
<g id="a_node6"><a xlink:href="util_8c.html" target="_top" xlink:title=" ">
<polygon fill="white" stroke="black" points="133.17,-112.5 133.17,-131.5 174.17,-131.5 174.17,-112.5 133.17,-112.5"/>
<text text-anchor="middle" x="153.67" y="-119.5" font-family="FreeSans" font-size="10.00">util.c</text>
</a>
</g>
</g>
<!-- Node1&#45;&gt;Node6 -->
<g id="edge27" class="edge">
<title>Node1&#45;&gt;Node6</title>
<path fill="none" stroke="midnightblue" d="M271.17,-218.98C257.91,-210.45 240.98,-199.09 226.67,-188 202.53,-169.29 176.25,-144.75 162.77,-131.84"/>
<polygon fill="midnightblue" stroke="midnightblue" points="269.37,-221.98 279.69,-224.39 273.13,-216.07 269.37,-221.98"/>
</g>
<!-- Node7 -->
<g id="node7" class="node">
<title>Node7</title>
<g id="a_node7"><a xlink:href="os__scheduler_8h.html" target="_top" xlink:title="Scheduling module for the OS.">
<polygon fill="white" stroke="black" points="286.17,-168.5 286.17,-187.5 375.17,-187.5 375.17,-168.5 286.17,-168.5"/>
<text text-anchor="middle" x="330.67" y="-175.5" font-family="FreeSans" font-size="10.00">os_scheduler.h</text>
</a>
</g>
</g>
<!-- Node1&#45;&gt;Node7 -->
<g id="edge6" class="edge">
<title>Node1&#45;&gt;Node7</title>
<path fill="none" stroke="midnightblue" d="M305.62,-215.57C311.98,-206.27 319.54,-195.25 324.67,-187.75"/>
<polygon fill="midnightblue" stroke="midnightblue" points="302.55,-213.86 299.78,-224.08 308.32,-217.81 302.55,-213.86"/>
</g>
<!-- Node11 -->
<g id="node11" class="node">
<title>Node11</title>
<g id="a_node11"><a xlink:href="os__user__privileges_8h.html" target="_top" xlink:title="User privileges specification used in part by the Taskman.">
<polygon fill="white" stroke="black" points="170.67,-56.5 170.67,-75.5 286.67,-75.5 286.67,-56.5 170.67,-56.5"/>
<text text-anchor="middle" x="228.67" y="-63.5" font-family="FreeSans" font-size="10.00">os_user_privileges.h</text>
</a>
</g>
</g>
<!-- Node1&#45;&gt;Node11 -->
<g id="edge26" class="edge">
<title>Node1&#45;&gt;Node11</title>
<path fill="none" stroke="midnightblue" d="M286.39,-214.39C272.36,-178.59 242.12,-101.34 232.03,-75.57"/>
<polygon fill="midnightblue" stroke="midnightblue" points="283.27,-216.04 290.18,-224.08 289.79,-213.49 283.27,-216.04"/>
</g>
<!-- Node12 -->
<g id="node12" class="node">
<title>Node12</title>
<g id="a_node12"><a xlink:href="os__scheduling__strategies_8h.html" target="_top" xlink:title="Scheduling library for the OS.">
<polygon fill="white" stroke="black" points="482.17,-112.5 482.17,-131.5 631.17,-131.5 631.17,-112.5 482.17,-112.5"/>
<text text-anchor="middle" x="556.67" y="-119.5" font-family="FreeSans" font-size="10.00">os_scheduling_strategies.h</text>
</a>
</g>
</g>
<!-- Node1&#45;&gt;Node12 -->
<g id="edge23" class="edge">
<title>Node1&#45;&gt;Node12</title>
<path fill="none" stroke="midnightblue" d="M323.69,-220.45C377.7,-197.86 489.94,-150.91 536.13,-131.59"/>
<polygon fill="midnightblue" stroke="midnightblue" points="322.18,-217.28 314.31,-224.37 324.88,-223.74 322.18,-217.28"/>
</g>
<!-- Node13 -->
<g id="node13" class="node">
<title>Node13</title>
<g id="a_node13"><a xlink:href="os__scheduling__strategies_8c.html" target="_top" xlink:title=" ">
<polygon fill="white" stroke="black" points="703.67,-56.5 703.67,-75.5 851.67,-75.5 851.67,-56.5 703.67,-56.5"/>
<text text-anchor="middle" x="777.67" y="-63.5" font-family="FreeSans" font-size="10.00">os_scheduling_strategies.c</text>
</a>
</g>
</g>
<!-- Node1&#45;&gt;Node13 -->
<g id="edge24" class="edge">
<title>Node1&#45;&gt;Node13</title>
<path fill="none" stroke="midnightblue" d="M334.3,-223.42C399.81,-207.47 532.39,-173.14 640.67,-132 685.71,-114.89 736.36,-89.03 761.59,-75.67"/>
<polygon fill="midnightblue" stroke="midnightblue" points="333.27,-220.07 324.38,-225.82 334.92,-226.87 333.27,-220.07"/>
</g>
<!-- Node14 -->
<g id="node14" class="node">
<title>Node14</title>
<g id="a_node14"><a xlink:href="os__mem__drivers_8c.html" target="_top" xlink:title=" ">
<polygon fill="white" stroke="black" points="686.67,-168.5 686.67,-187.5 792.67,-187.5 792.67,-168.5 686.67,-168.5"/>
<text text-anchor="middle" x="739.67" y="-175.5" font-family="FreeSans" font-size="10.00">os_mem_drivers.c</text>
</a>
</g>
</g>
<!-- Node1&#45;&gt;Node14 -->
<g id="edge21" class="edge">
<title>Node1&#45;&gt;Node14</title>
<path fill="none" stroke="midnightblue" d="M334.74,-228.33C404.32,-220.38 549.8,-203.55 672.67,-188 677.21,-187.43 681.92,-186.82 686.65,-186.2"/>
<polygon fill="midnightblue" stroke="midnightblue" points="334.18,-224.87 324.64,-229.49 334.97,-231.83 334.18,-224.87"/>
</g>
<!-- Node15 -->
<g id="node15" class="node">
<title>Node15</title>
<g id="a_node15"><a xlink:href="os__memheap__drivers_8c.html" target="_top" xlink:title=" ">
<polygon fill="white" stroke="black" points="810.67,-168.5 810.67,-187.5 940.67,-187.5 940.67,-168.5 810.67,-168.5"/>
<text text-anchor="middle" x="875.67" y="-175.5" font-family="FreeSans" font-size="10.00">os_memheap_drivers.c</text>
</a>
</g>
</g>
<!-- Node1&#45;&gt;Node15 -->
<g id="edge22" class="edge">
<title>Node1&#45;&gt;Node15</title>
<path fill="none" stroke="midnightblue" d="M334.5,-229.84C420.82,-223.05 628.17,-206.23 801.67,-188 804.5,-187.7 807.39,-187.39 810.31,-187.07"/>
<polygon fill="midnightblue" stroke="midnightblue" points="334.04,-226.36 324.34,-230.63 334.58,-233.34 334.04,-226.36"/>
</g>
<!-- Node2&#45;&gt;Node3 -->
<g id="edge2" class="edge">
<title>Node2&#45;&gt;Node3</title>
<path fill="none" stroke="midnightblue" d="M127.12,-163.73C107.12,-153.73 80.28,-140.31 62.98,-131.65"/>
<polygon fill="midnightblue" stroke="midnightblue" points="125.81,-166.98 136.32,-168.32 128.94,-160.72 125.81,-166.98"/>
</g>
<!-- Node4 -->
<g id="node4" class="node">
<title>Node4</title>
<g id="a_node4"><a xlink:href="os__scheduler_8c.html" target="_top" xlink:title=" ">
<polygon fill="white" stroke="black" points="597.67,-56.5 597.67,-75.5 685.67,-75.5 685.67,-56.5 597.67,-56.5"/>
<text text-anchor="middle" x="641.67" y="-63.5" font-family="FreeSans" font-size="10.00">os_scheduler.c</text>
</a>
</g>
</g>
<!-- Node2&#45;&gt;Node4 -->
<g id="edge3" class="edge">
<title>Node2&#45;&gt;Node4</title>
<path fill="none" stroke="midnightblue" d="M184.09,-174.93C231.21,-170.96 324.09,-160 397.67,-132 413.7,-125.9 414.73,-118.32 430.67,-112 486.03,-90.05 554.02,-78.01 597.59,-72.03"/>
<polygon fill="midnightblue" stroke="midnightblue" points="183.63,-171.46 173.94,-175.74 184.19,-178.44 183.63,-171.46"/>
</g>
<!-- Node2&#45;&gt;Node5 -->
<g id="edge4" class="edge">
<title>Node2&#45;&gt;Node5</title>
<path fill="none" stroke="midnightblue" d="M139.17,-160.4C133.12,-152.39 126.79,-142.3 123.67,-132 111.28,-91.09 130.06,-39.83 138.7,-19.69"/>
<polygon fill="midnightblue" stroke="midnightblue" points="136.45,-162.6 145.46,-168.18 141.9,-158.2 136.45,-162.6"/>
</g>
<!-- Node2&#45;&gt;Node6 -->
<g id="edge5" class="edge">
<title>Node2&#45;&gt;Node6</title>
<path fill="none" stroke="midnightblue" d="M153.67,-157.8C153.67,-148.91 153.67,-138.78 153.67,-131.75"/>
<polygon fill="midnightblue" stroke="midnightblue" points="150.17,-158.08 153.67,-168.08 157.17,-158.08 150.17,-158.08"/>
</g>
<!-- Node7&#45;&gt;Node4 -->
<g id="edge14" class="edge">
<title>Node7&#45;&gt;Node4</title>
<path fill="none" stroke="midnightblue" d="M359.07,-164.33C379.11,-155.37 406.57,-143.03 430.67,-132 449.84,-123.23 453.86,-119.2 473.67,-112 516.66,-96.38 567.61,-83.49 602.04,-75.56"/>
<polygon fill="midnightblue" stroke="midnightblue" points="357.57,-161.17 349.87,-168.44 360.43,-167.56 357.57,-161.17"/>
</g>
<!-- Node7&#45;&gt;Node5 -->
<g id="edge18" class="edge">
<title>Node7&#45;&gt;Node5</title>
<path fill="none" stroke="midnightblue" d="M295.03,-164.76C256.58,-149.76 196.22,-120.68 161.67,-76 148.58,-59.07 144.5,-33.36 143.23,-19.91"/>
<polygon fill="midnightblue" stroke="midnightblue" points="294.19,-168.19 304.78,-168.45 296.67,-161.64 294.19,-168.19"/>
</g>
<!-- Node8 -->
<g id="node8" class="node">
<title>Node8</title>
<g id="a_node8"><a xlink:href="os__memory_8h.html" target="_top" xlink:title="Library for OS memory management.">
<polygon fill="white" stroke="black" points="306.67,-112.5 306.67,-131.5 388.67,-131.5 388.67,-112.5 306.67,-112.5"/>
<text text-anchor="middle" x="347.67" y="-119.5" font-family="FreeSans" font-size="10.00">os_memory.h</text>
</a>
</g>
</g>
<!-- Node7&#45;&gt;Node8 -->
<g id="edge7" class="edge">
<title>Node7&#45;&gt;Node8</title>
<path fill="none" stroke="midnightblue" d="M336.53,-158.4C339.37,-149.36 342.65,-138.94 344.92,-131.75"/>
<polygon fill="midnightblue" stroke="midnightblue" points="333.14,-157.49 333.48,-168.08 339.82,-159.6 333.14,-157.49"/>
</g>
<!-- Node7&#45;&gt;Node11 -->
<g id="edge19" class="edge">
<title>Node7&#45;&gt;Node11</title>
<path fill="none" stroke="midnightblue" d="M315.74,-160.9C293.81,-137.25 253.66,-93.95 236.64,-75.59"/>
<polygon fill="midnightblue" stroke="midnightblue" points="313.3,-163.42 322.67,-168.37 318.43,-158.66 313.3,-163.42"/>
</g>
<!-- Node7&#45;&gt;Node12 -->
<g id="edge15" class="edge">
<title>Node7&#45;&gt;Node12</title>
<path fill="none" stroke="midnightblue" d="M376.34,-166.09C419.03,-155.89 481.92,-140.86 521.03,-131.52"/>
<polygon fill="midnightblue" stroke="midnightblue" points="375.39,-162.72 366.48,-168.44 377.02,-169.52 375.39,-162.72"/>
</g>
<!-- Node8&#45;&gt;Node4 -->
<g id="edge10" class="edge">
<title>Node8&#45;&gt;Node4</title>
<path fill="none" stroke="midnightblue" d="M398.94,-111.58C455.09,-101.27 544.19,-84.9 597.4,-75.13"/>
<polygon fill="midnightblue" stroke="midnightblue" points="398.06,-108.19 388.86,-113.43 399.33,-115.07 398.06,-108.19"/>
</g>
<!-- Node8&#45;&gt;Node5 -->
<g id="edge13" class="edge">
<title>Node8&#45;&gt;Node5</title>
<path fill="none" stroke="midnightblue" d="M398.73,-111.33C457.27,-100 545.85,-82 550.67,-76 556.23,-69.07 556.6,-62.62 550.67,-56 526.54,-29.06 284.13,-16.55 184.79,-12.52"/>
<polygon fill="midnightblue" stroke="midnightblue" points="398.05,-107.89 388.9,-113.22 399.38,-114.77 398.05,-107.89"/>
</g>
<!-- Node9 -->
<g id="node9" class="node">
<title>Node9</title>
<g id="a_node9"><a xlink:href="os__memory_8c.html" target="_top" xlink:title=" ">
<polygon fill="white" stroke="black" points="305.17,-56.5 305.17,-75.5 386.17,-75.5 386.17,-56.5 305.17,-56.5"/>
<text text-anchor="middle" x="345.67" y="-63.5" font-family="FreeSans" font-size="10.00">os_memory.c</text>
</a>
</g>
</g>
<!-- Node8&#45;&gt;Node9 -->
<g id="edge8" class="edge">
<title>Node8&#45;&gt;Node9</title>
<path fill="none" stroke="midnightblue" d="M346.96,-101.8C346.63,-92.91 346.25,-82.78 345.99,-75.75"/>
<polygon fill="midnightblue" stroke="midnightblue" points="343.47,-102.22 347.34,-112.08 350.47,-101.96 343.47,-102.22"/>
</g>
<!-- Node10 -->
<g id="node10" class="node">
<title>Node10</title>
<g id="a_node10"><a xlink:href="os__memory__strategies_8c.html" target="_top" xlink:title=" ">
<polygon fill="white" stroke="black" points="404.17,-56.5 404.17,-75.5 541.17,-75.5 541.17,-56.5 404.17,-56.5"/>
<text text-anchor="middle" x="472.67" y="-63.5" font-family="FreeSans" font-size="10.00">os_memory_strategies.c</text>
</a>
</g>
</g>
<!-- Node8&#45;&gt;Node10 -->
<g id="edge9" class="edge">
<title>Node8&#45;&gt;Node10</title>
<path fill="none" stroke="midnightblue" d="M376.91,-108.37C400.32,-98.26 432.51,-84.35 452.96,-75.52"/>
<polygon fill="midnightblue" stroke="midnightblue" points="375.27,-105.26 367.48,-112.44 378.04,-111.69 375.27,-105.26"/>
</g>
<!-- Node8&#45;&gt;Node11 -->
<g id="edge11" class="edge">
<title>Node8&#45;&gt;Node11</title>
<path fill="none" stroke="midnightblue" d="M319.53,-108.23C297.27,-98.13 266.81,-84.31 247.44,-75.52"/>
<polygon fill="midnightblue" stroke="midnightblue" points="318.26,-111.5 328.81,-112.44 321.15,-105.12 318.26,-111.5"/>
</g>
<!-- Node11&#45;&gt;Node5 -->
<g id="edge12" class="edge">
<title>Node11&#45;&gt;Node5</title>
<path fill="none" stroke="midnightblue" d="M206.22,-50.9C190.45,-41 169.86,-28.07 156.45,-19.65"/>
<polygon fill="midnightblue" stroke="midnightblue" points="204.52,-53.97 214.85,-56.32 208.25,-48.04 204.52,-53.97"/>
</g>
<!-- Node12&#45;&gt;Node4 -->
<g id="edge16" class="edge">
<title>Node12&#45;&gt;Node4</title>
<path fill="none" stroke="midnightblue" d="M578.86,-106.9C594.45,-97 614.8,-84.07 628.05,-75.65"/>
<polygon fill="midnightblue" stroke="midnightblue" points="576.89,-104.01 570.33,-112.32 580.64,-109.92 576.89,-104.01"/>
</g>
<!-- Node12&#45;&gt;Node13 -->
<g id="edge17" class="edge">
<title>Node12&#45;&gt;Node13</title>
<path fill="none" stroke="midnightblue" d="M601.59,-110.02C643.34,-99.82 704.65,-84.84 742.82,-75.52"/>
<polygon fill="midnightblue" stroke="midnightblue" points="600.57,-106.67 591.69,-112.44 602.23,-113.47 600.57,-106.67"/>
</g>
</g>
</svg>
