<?xml version="1.0" encoding="UTF-8" standalone="no"?>
<!DOCTYPE svg PUBLIC "-//W3C//DTD SVG 1.1//EN"
 "http://www.w3.org/Graphics/SVG/1.1/DTD/svg11.dtd">
<!-- Generated by graphviz version 2.43.0 (0)
 -->
<!-- Title: lcd_writeHex Pages: 1 -->
<svg width="572pt" height="104pt"
 viewBox="0.00 0.00 572.00 104.00" xmlns="http://www.w3.org/2000/svg" xmlns:xlink="http://www.w3.org/1999/xlink">
<g id="graph0" class="graph" transform="scale(1 1) rotate(0) translate(4 100)">
<title>lcd_writeHex</title>
<polygon fill="white" stroke="transparent" points="-4,4 -4,-100 568,-100 568,4 -4,4"/>
<!-- Node1 -->
<g id="node1" class="node">
<title>Node1</title>
<g id="a_node1"><a xlink:title="Write one hexadecimal word without prefixes.">
<polygon fill="#bfbfbf" stroke="black" points="0,-38.5 0,-57.5 80,-57.5 80,-38.5 0,-38.5"/>
<text text-anchor="middle" x="40" y="-45.5" font-family="FreeSans" font-size="10.00">lcd_writeHex</text>
</a>
</g>
</g>
<!-- Node2 -->
<g id="node2" class="node">
<title>Node2</title>
<g id="a_node2"><a xlink:href="lcd_8h.html#a01b53b89b0c268d2324d86f3fe33405d" target="_top" xlink:title="Write a half&#45;byte (a nibble)">
<polygon fill="white" stroke="black" points="116,-38.5 116,-57.5 228,-57.5 228,-38.5 116,-38.5"/>
<text text-anchor="middle" x="172" y="-45.5" font-family="FreeSans" font-size="10.00">lcd_writeHexNibble</text>
</a>
</g>
</g>
<!-- Node1&#45;&gt;Node2 -->
<g id="edge1" class="edge">
<title>Node1&#45;&gt;Node2</title>
<path fill="none" stroke="midnightblue" d="M80,-48C88.07,-48 96.77,-48 105.48,-48"/>
<polygon fill="midnightblue" stroke="midnightblue" points="105.68,-51.5 115.68,-48 105.68,-44.5 105.68,-51.5"/>
</g>
<!-- Node3 -->
<g id="node3" class="node">
<title>Node3</title>
<g id="a_node3"><a xlink:href="lcd_8h.html#a93cd5600fa3b27381a4cf57d21f27ebf" target="_top" xlink:title="Write one character.">
<polygon fill="white" stroke="black" points="264,-38.5 264,-57.5 347,-57.5 347,-38.5 264,-38.5"/>
<text text-anchor="middle" x="305.5" y="-45.5" font-family="FreeSans" font-size="10.00">lcd_writeChar</text>
</a>
</g>
</g>
<!-- Node2&#45;&gt;Node3 -->
<g id="edge2" class="edge">
<title>Node2&#45;&gt;Node3</title>
<path fill="none" stroke="midnightblue" d="M228.01,-48C236.51,-48 245.26,-48 253.67,-48"/>
<polygon fill="midnightblue" stroke="midnightblue" points="253.72,-51.5 263.72,-48 253.72,-44.5 253.72,-51.5"/>
</g>
<!-- Node4 -->
<g id="node4" class="node">
<title>Node4</title>
<g id="a_node4"><a xlink:href="lcd_8h.html#ad235a86241458b1e7b8771688bfdaf9a" target="_top" xlink:title="Clear all data from display.">
<polygon fill="white" stroke="black" points="383,-76.5 383,-95.5 443,-95.5 443,-76.5 383,-76.5"/>
<text text-anchor="middle" x="413" y="-83.5" font-family="FreeSans" font-size="10.00">lcd_clear</text>
</a>
</g>
</g>
<!-- Node3&#45;&gt;Node4 -->
<g id="edge3" class="edge">
<title>Node3&#45;&gt;Node4</title>
<path fill="none" stroke="midnightblue" d="M333.12,-57.59C345.99,-62.22 361.64,-67.86 375.59,-72.89"/>
<polygon fill="midnightblue" stroke="midnightblue" points="374.79,-76.32 385.39,-76.41 377.16,-69.73 374.79,-76.32"/>
</g>
<!-- Node6 -->
<g id="node6" class="node">
<title>Node6</title>
<g id="a_node6"><a xlink:href="lcd_8h.html#a016fe1471f1d20196b5ca3d2634c927a" target="_top" xlink:title="Next output will be written to line 1.">
<polygon fill="white" stroke="black" points="383,-38.5 383,-57.5 443,-57.5 443,-38.5 383,-38.5"/>
<text text-anchor="middle" x="413" y="-45.5" font-family="FreeSans" font-size="10.00">lcd_line1</text>
</a>
</g>
</g>
<!-- Node3&#45;&gt;Node6 -->
<g id="edge5" class="edge">
<title>Node3&#45;&gt;Node6</title>
<path fill="none" stroke="midnightblue" d="M347.29,-48C355.61,-48 364.34,-48 372.61,-48"/>
<polygon fill="midnightblue" stroke="midnightblue" points="372.76,-51.5 382.76,-48 372.76,-44.5 372.76,-51.5"/>
</g>
<!-- Node7 -->
<g id="node7" class="node">
<title>Node7</title>
<g id="a_node7"><a xlink:href="lcd_8h.html#ad9ccaf30ea478fef726c058ff4ee7dd1" target="_top" xlink:title="Next output will be written to line 2.">
<polygon fill="white" stroke="black" points="383,-0.5 383,-19.5 443,-19.5 443,-0.5 383,-0.5"/>
<text text-anchor="middle" x="413" y="-7.5" font-family="FreeSans" font-size="10.00">lcd_line2</text>
</a>
</g>
</g>
<!-- Node3&#45;&gt;Node7 -->
<g id="edge7" class="edge">
<title>Node3&#45;&gt;Node7</title>
<path fill="none" stroke="midnightblue" d="M333.12,-38.41C345.99,-33.78 361.64,-28.14 375.59,-23.11"/>
<polygon fill="midnightblue" stroke="midnightblue" points="377.16,-26.27 385.39,-19.59 374.79,-19.68 377.16,-26.27"/>
</g>
<!-- Node5 -->
<g id="node5" class="node">
<title>Node5</title>
<g id="a_node5"><a xlink:href="lcd_8h.html#acb116d89c358367b8fd1164120d320e3" target="_top" xlink:title="Send command to LCD.">
<polygon fill="white" stroke="black" points="479,-38.5 479,-57.5 564,-57.5 564,-38.5 479,-38.5"/>
<text text-anchor="middle" x="521.5" y="-45.5" font-family="FreeSans" font-size="10.00">lcd_command</text>
</a>
</g>
</g>
<!-- Node4&#45;&gt;Node5 -->
<g id="edge4" class="edge">
<title>Node4&#45;&gt;Node5</title>
<path fill="none" stroke="midnightblue" d="M440.87,-76.41C453.99,-71.73 469.97,-66.03 484.15,-60.97"/>
<polygon fill="midnightblue" stroke="midnightblue" points="485.39,-64.24 493.63,-57.59 483.04,-57.65 485.39,-64.24"/>
</g>
<!-- Node6&#45;&gt;Node5 -->
<g id="edge6" class="edge">
<title>Node6&#45;&gt;Node5</title>
<path fill="none" stroke="midnightblue" d="M443.1,-48C450.98,-48 459.76,-48 468.49,-48"/>
<polygon fill="midnightblue" stroke="midnightblue" points="468.66,-51.5 478.66,-48 468.66,-44.5 468.66,-51.5"/>
</g>
<!-- Node7&#45;&gt;Node5 -->
<g id="edge8" class="edge">
<title>Node7&#45;&gt;Node5</title>
<path fill="none" stroke="midnightblue" d="M440.87,-19.59C453.99,-24.27 469.97,-29.97 484.15,-35.03"/>
<polygon fill="midnightblue" stroke="midnightblue" points="483.04,-38.35 493.63,-38.41 485.39,-31.76 483.04,-38.35"/>
</g>
</g>
</svg>
