<?xml version="1.0" encoding="UTF-8" standalone="no"?>
<!DOCTYPE svg PUBLIC "-//W3C//DTD SVG 1.1//EN"
 "http://www.w3.org/Graphics/SVG/1.1/DTD/svg11.dtd">
<!-- Generated by graphviz version 2.43.0 (0)
 -->
<!-- Title: lcd_writeHexNibble Pages: 1 -->
<svg width="456pt" height="104pt"
 viewBox="0.00 0.00 456.00 104.00" xmlns="http://www.w3.org/2000/svg" xmlns:xlink="http://www.w3.org/1999/xlink">
<g id="graph0" class="graph" transform="scale(1 1) rotate(0) translate(4 100)">
<title>lcd_writeHexNibble</title>
<polygon fill="white" stroke="transparent" points="-4,4 -4,-100 452,-100 452,4 -4,4"/>
<!-- Node1 -->
<g id="node1" class="node">
<title>Node1</title>
<g id="a_node1"><a xlink:title="Write a half&#45;byte (a nibble)">
<polygon fill="#bfbfbf" stroke="black" points="0,-38.5 0,-57.5 112,-57.5 112,-38.5 0,-38.5"/>
<text text-anchor="middle" x="56" y="-45.5" font-family="FreeSans" font-size="10.00">lcd_writeHexNibble</text>
</a>
</g>
</g>
<!-- Node2 -->
<g id="node2" class="node">
<title>Node2</title>
<g id="a_node2"><a xlink:href="lcd_8h.html#a93cd5600fa3b27381a4cf57d21f27ebf" target="_top" xlink:title="Write one character.">
<polygon fill="white" stroke="black" points="148,-38.5 148,-57.5 231,-57.5 231,-38.5 148,-38.5"/>
<text text-anchor="middle" x="189.5" y="-45.5" font-family="FreeSans" font-size="10.00">lcd_writeChar</text>
</a>
</g>
</g>
<!-- Node1&#45;&gt;Node2 -->
<g id="edge1" class="edge">
<title>Node1&#45;&gt;Node2</title>
<path fill="none" stroke="midnightblue" d="M112.01,-48C120.51,-48 129.26,-48 137.67,-48"/>
<polygon fill="midnightblue" stroke="midnightblue" points="137.72,-51.5 147.72,-48 137.72,-44.5 137.72,-51.5"/>
</g>
<!-- Node3 -->
<g id="node3" class="node">
<title>Node3</title>
<g id="a_node3"><a xlink:href="lcd_8h.html#ad235a86241458b1e7b8771688bfdaf9a" target="_top" xlink:title="Clear all data from display.">
<polygon fill="white" stroke="black" points="267,-76.5 267,-95.5 327,-95.5 327,-76.5 267,-76.5"/>
<text text-anchor="middle" x="297" y="-83.5" font-family="FreeSans" font-size="10.00">lcd_clear</text>
</a>
</g>
</g>
<!-- Node2&#45;&gt;Node3 -->
<g id="edge2" class="edge">
<title>Node2&#45;&gt;Node3</title>
<path fill="none" stroke="midnightblue" d="M217.12,-57.59C229.99,-62.22 245.64,-67.86 259.59,-72.89"/>
<polygon fill="midnightblue" stroke="midnightblue" points="258.79,-76.32 269.39,-76.41 261.16,-69.73 258.79,-76.32"/>
</g>
<!-- Node5 -->
<g id="node5" class="node">
<title>Node5</title>
<g id="a_node5"><a xlink:href="lcd_8h.html#a016fe1471f1d20196b5ca3d2634c927a" target="_top" xlink:title="Next output will be written to line 1.">
<polygon fill="white" stroke="black" points="267,-38.5 267,-57.5 327,-57.5 327,-38.5 267,-38.5"/>
<text text-anchor="middle" x="297" y="-45.5" font-family="FreeSans" font-size="10.00">lcd_line1</text>
</a>
</g>
</g>
<!-- Node2&#45;&gt;Node5 -->
<g id="edge4" class="edge">
<title>Node2&#45;&gt;Node5</title>
<path fill="none" stroke="midnightblue" d="M231.29,-48C239.61,-48 248.34,-48 256.61,-48"/>
<polygon fill="midnightblue" stroke="midnightblue" points="256.76,-51.5 266.76,-48 256.76,-44.5 256.76,-51.5"/>
</g>
<!-- Node6 -->
<g id="node6" class="node">
<title>Node6</title>
<g id="a_node6"><a xlink:href="lcd_8h.html#ad9ccaf30ea478fef726c058ff4ee7dd1" target="_top" xlink:title="Next output will be written to line 2.">
<polygon fill="white" stroke="black" points="267,-0.5 267,-19.5 327,-19.5 327,-0.5 267,-0.5"/>
<text text-anchor="middle" x="297" y="-7.5" font-family="FreeSans" font-size="10.00">lcd_line2</text>
</a>
</g>
</g>
<!-- Node2&#45;&gt;Node6 -->
<g id="edge6" class="edge">
<title>Node2&#45;&gt;Node6</title>
<path fill="none" stroke="midnightblue" d="M217.12,-38.41C229.99,-33.78 245.64,-28.14 259.59,-23.11"/>
<polygon fill="midnightblue" stroke="midnightblue" points="261.16,-26.27 269.39,-19.59 258.79,-19.68 261.16,-26.27"/>
</g>
<!-- Node4 -->
<g id="node4" class="node">
<title>Node4</title>
<g id="a_node4"><a xlink:href="lcd_8h.html#acb116d89c358367b8fd1164120d320e3" target="_top" xlink:title="Send command to LCD.">
<polygon fill="white" stroke="black" points="363,-38.5 363,-57.5 448,-57.5 448,-38.5 363,-38.5"/>
<text text-anchor="middle" x="405.5" y="-45.5" font-family="FreeSans" font-size="10.00">lcd_command</text>
</a>
</g>
</g>
<!-- Node3&#45;&gt;Node4 -->
<g id="edge3" class="edge">
<title>Node3&#45;&gt;Node4</title>
<path fill="none" stroke="midnightblue" d="M324.87,-76.41C337.99,-71.73 353.97,-66.03 368.15,-60.97"/>
<polygon fill="midnightblue" stroke="midnightblue" points="369.39,-64.24 377.63,-57.59 367.04,-57.65 369.39,-64.24"/>
</g>
<!-- Node5&#45;&gt;Node4 -->
<g id="edge5" class="edge">
<title>Node5&#45;&gt;Node4</title>
<path fill="none" stroke="midnightblue" d="M327.1,-48C334.98,-48 343.76,-48 352.49,-48"/>
<polygon fill="midnightblue" stroke="midnightblue" points="352.66,-51.5 362.66,-48 352.66,-44.5 352.66,-51.5"/>
</g>
<!-- Node6&#45;&gt;Node4 -->
<g id="edge7" class="edge">
<title>Node6&#45;&gt;Node4</title>
<path fill="none" stroke="midnightblue" d="M324.87,-19.59C337.99,-24.27 353.97,-29.97 368.15,-35.03"/>
<polygon fill="midnightblue" stroke="midnightblue" points="367.04,-38.35 377.63,-38.41 369.39,-31.76 367.04,-38.35"/>
</g>
</g>
</svg>
