<?xml version="1.0" encoding="UTF-8" standalone="no"?>
<!DOCTYPE svg PUBLIC "-//W3C//DTD SVG 1.1//EN"
 "http://www.w3.org/Graphics/SVG/1.1/DTD/svg11.dtd">
<!-- Generated by graphviz version 2.43.0 (0)
 -->
<!-- Title: os_process.h Pages: 1 -->
<svg width="716pt" height="252pt"
 viewBox="0.00 0.00 716.00 252.00" xmlns="http://www.w3.org/2000/svg" xmlns:xlink="http://www.w3.org/1999/xlink">
<g id="graph0" class="graph" transform="scale(1 1) rotate(0) translate(4 248)">
<title>os_process.h</title>
<polygon fill="white" stroke="transparent" points="-4,4 -4,-248 712,-248 712,4 -4,4"/>
<!-- Node1 -->
<g id="node1" class="node">
<title>Node1</title>
<g id="a_node1"><a xlink:title="Struct specifying a process.">
<polygon fill="#bfbfbf" stroke="black" points="513,-224.5 513,-243.5 593,-243.5 593,-224.5 513,-224.5"/>
<text text-anchor="middle" x="553" y="-231.5" font-family="FreeSans" font-size="10.00">os_process.h</text>
</a>
</g>
</g>
<!-- Node2 -->
<g id="node2" class="node">
<title>Node2</title>
<g id="a_node2"><a xlink:href="os__scheduler_8h.html" target="_top" xlink:title="Scheduling module for the OS.">
<polygon fill="white" stroke="black" points="446.5,-168.5 446.5,-187.5 535.5,-187.5 535.5,-168.5 446.5,-168.5"/>
<text text-anchor="middle" x="491" y="-175.5" font-family="FreeSans" font-size="10.00">os_scheduler.h</text>
</a>
</g>
</g>
<!-- Node1&#45;&gt;Node2 -->
<g id="edge1" class="edge">
<title>Node1&#45;&gt;Node2</title>
<path fill="none" stroke="midnightblue" d="M535.25,-217.54C524.19,-207.91 510.37,-195.87 501.14,-187.83"/>
<polygon fill="midnightblue" stroke="midnightblue" points="533.2,-220.4 543.04,-224.32 537.8,-215.12 533.2,-220.4"/>
</g>
<!-- Node8 -->
<g id="node8" class="node">
<title>Node8</title>
<g id="a_node8"><a xlink:href="os__taskman_8c.html" target="_top" xlink:title=" ">
<polygon fill="white" stroke="black" points="624,-0.5 624,-19.5 708,-19.5 708,-0.5 624,-0.5"/>
<text text-anchor="middle" x="666" y="-7.5" font-family="FreeSans" font-size="10.00">os_taskman.c</text>
</a>
</g>
</g>
<!-- Node1&#45;&gt;Node8 -->
<g id="edge15" class="edge">
<title>Node1&#45;&gt;Node8</title>
<path fill="none" stroke="midnightblue" d="M575.8,-218.78C611.89,-194.67 680.61,-141.93 705,-76 713.04,-54.28 691.59,-31.7 677.4,-19.71"/>
<polygon fill="midnightblue" stroke="midnightblue" points="573.83,-215.88 567.37,-224.28 577.66,-221.74 573.83,-215.88"/>
</g>
<!-- Node3 -->
<g id="node3" class="node">
<title>Node3</title>
<g id="a_node3"><a xlink:href="os__memory_8h.html" target="_top" xlink:title="Library for OS memory management.">
<polygon fill="white" stroke="black" points="389,-112.5 389,-131.5 471,-131.5 471,-112.5 389,-112.5"/>
<text text-anchor="middle" x="430" y="-119.5" font-family="FreeSans" font-size="10.00">os_memory.h</text>
</a>
</g>
</g>
<!-- Node2&#45;&gt;Node3 -->
<g id="edge2" class="edge">
<title>Node2&#45;&gt;Node3</title>
<path fill="none" stroke="midnightblue" d="M473.53,-161.54C462.66,-151.91 449.06,-139.87 439.98,-131.83"/>
<polygon fill="midnightblue" stroke="midnightblue" points="471.39,-164.32 481.2,-168.32 476.03,-159.07 471.39,-164.32"/>
</g>
<!-- Node6 -->
<g id="node6" class="node">
<title>Node6</title>
<g id="a_node6"><a xlink:href="os__scheduler_8c.html" target="_top" xlink:title=" ">
<polygon fill="white" stroke="black" points="166,-56.5 166,-75.5 254,-75.5 254,-56.5 166,-56.5"/>
<text text-anchor="middle" x="210" y="-63.5" font-family="FreeSans" font-size="10.00">os_scheduler.c</text>
</a>
</g>
</g>
<!-- Node2&#45;&gt;Node6 -->
<g id="edge9" class="edge">
<title>Node2&#45;&gt;Node6</title>
<path fill="none" stroke="midnightblue" d="M459.29,-164.59C401.72,-142.05 281.4,-94.95 231.95,-75.59"/>
<polygon fill="midnightblue" stroke="midnightblue" points="458.36,-167.98 468.95,-168.37 460.91,-161.46 458.36,-167.98"/>
</g>
<!-- Node7 -->
<g id="node7" class="node">
<title>Node7</title>
<g id="a_node7"><a xlink:href="os__user__privileges_8h.html" target="_top" xlink:title="User privileges specification used in part by the Taskman.">
<polygon fill="white" stroke="black" points="565,-56.5 565,-75.5 681,-75.5 681,-56.5 565,-56.5"/>
<text text-anchor="middle" x="623" y="-63.5" font-family="FreeSans" font-size="10.00">os_user_privileges.h</text>
</a>
</g>
</g>
<!-- Node2&#45;&gt;Node7 -->
<g id="edge14" class="edge">
<title>Node2&#45;&gt;Node7</title>
<path fill="none" stroke="midnightblue" d="M509.22,-161.82C537.34,-138.39 590.37,-94.19 612.69,-75.59"/>
<polygon fill="midnightblue" stroke="midnightblue" points="506.8,-159.28 501.36,-168.37 511.28,-164.66 506.8,-159.28"/>
</g>
<!-- Node2&#45;&gt;Node8 -->
<g id="edge13" class="edge">
<title>Node2&#45;&gt;Node8</title>
<path fill="none" stroke="midnightblue" d="M545.69,-165.9C593.08,-153.08 658.78,-126.86 690,-76 701.33,-57.55 684.86,-32.91 674.09,-19.91"/>
<polygon fill="midnightblue" stroke="midnightblue" points="544.69,-162.55 535.88,-168.44 546.44,-169.33 544.69,-162.55"/>
</g>
<!-- Node9 -->
<g id="node9" class="node">
<title>Node9</title>
<g id="a_node9"><a xlink:href="os__scheduling__strategies_8h.html" target="_top" xlink:title="Scheduling library for the OS.">
<polygon fill="white" stroke="black" points="135.5,-112.5 135.5,-131.5 284.5,-131.5 284.5,-112.5 135.5,-112.5"/>
<text text-anchor="middle" x="210" y="-119.5" font-family="FreeSans" font-size="10.00">os_scheduling_strategies.h</text>
</a>
</g>
</g>
<!-- Node2&#45;&gt;Node9 -->
<g id="edge10" class="edge">
<title>Node2&#45;&gt;Node9</title>
<path fill="none" stroke="midnightblue" d="M436.55,-166.54C383.45,-156.33 303.66,-141 254.32,-131.52"/>
<polygon fill="midnightblue" stroke="midnightblue" points="435.99,-169.99 446.47,-168.44 437.31,-163.12 435.99,-169.99"/>
</g>
<!-- Node4 -->
<g id="node4" class="node">
<title>Node4</title>
<g id="a_node4"><a xlink:href="os__memory_8c.html" target="_top" xlink:title=" ">
<polygon fill="white" stroke="black" points="310.5,-56.5 310.5,-75.5 391.5,-75.5 391.5,-56.5 310.5,-56.5"/>
<text text-anchor="middle" x="351" y="-63.5" font-family="FreeSans" font-size="10.00">os_memory.c</text>
</a>
</g>
</g>
<!-- Node3&#45;&gt;Node4 -->
<g id="edge3" class="edge">
<title>Node3&#45;&gt;Node4</title>
<path fill="none" stroke="midnightblue" d="M408.97,-106.62C394.53,-96.76 375.86,-83.99 363.66,-75.65"/>
<polygon fill="midnightblue" stroke="midnightblue" points="407.08,-109.57 417.31,-112.32 411.03,-103.79 407.08,-109.57"/>
</g>
<!-- Node5 -->
<g id="node5" class="node">
<title>Node5</title>
<g id="a_node5"><a xlink:href="os__memory__strategies_8c.html" target="_top" xlink:title=" ">
<polygon fill="white" stroke="black" points="409.5,-56.5 409.5,-75.5 546.5,-75.5 546.5,-56.5 409.5,-56.5"/>
<text text-anchor="middle" x="478" y="-63.5" font-family="FreeSans" font-size="10.00">os_memory_strategies.c</text>
</a>
</g>
</g>
<!-- Node3&#45;&gt;Node5 -->
<g id="edge4" class="edge">
<title>Node3&#45;&gt;Node5</title>
<path fill="none" stroke="midnightblue" d="M444.73,-104.43C453.14,-94.97 463.35,-83.48 470.22,-75.75"/>
<polygon fill="midnightblue" stroke="midnightblue" points="441.95,-102.28 437.93,-112.08 447.19,-106.93 441.95,-102.28"/>
</g>
<!-- Node3&#45;&gt;Node6 -->
<g id="edge5" class="edge">
<title>Node3&#45;&gt;Node6</title>
<path fill="none" stroke="midnightblue" d="M385.28,-110.02C343.72,-99.82 282.69,-84.84 244.7,-75.52"/>
<polygon fill="midnightblue" stroke="midnightblue" points="384.59,-113.46 395.14,-112.44 386.26,-106.66 384.59,-113.46"/>
</g>
<!-- Node3&#45;&gt;Node7 -->
<g id="edge6" class="edge">
<title>Node3&#45;&gt;Node7</title>
<path fill="none" stroke="midnightblue" d="M470.39,-109.7C506.82,-99.51 559.59,-84.74 592.56,-75.52"/>
<polygon fill="midnightblue" stroke="midnightblue" points="469.27,-106.38 460.58,-112.44 471.15,-113.12 469.27,-106.38"/>
</g>
<!-- Node3&#45;&gt;Node8 -->
<g id="edge8" class="edge">
<title>Node3&#45;&gt;Node8</title>
<path fill="none" stroke="midnightblue" d="M378.59,-113.24C331.96,-104.09 274.3,-86.19 301,-56 322.12,-32.12 532.5,-18.11 623.94,-13.1"/>
<polygon fill="midnightblue" stroke="midnightblue" points="378.16,-116.72 388.63,-115.11 379.44,-109.84 378.16,-116.72"/>
</g>
<!-- Node7&#45;&gt;Node8 -->
<g id="edge7" class="edge">
<title>Node7&#45;&gt;Node8</title>
<path fill="none" stroke="midnightblue" d="M636.42,-48.14C643.91,-38.74 652.94,-27.4 659.03,-19.75"/>
<polygon fill="midnightblue" stroke="midnightblue" points="633.59,-46.08 630.1,-56.08 639.07,-50.44 633.59,-46.08"/>
</g>
<!-- Node9&#45;&gt;Node6 -->
<g id="edge11" class="edge">
<title>Node9&#45;&gt;Node6</title>
<path fill="none" stroke="midnightblue" d="M210,-101.8C210,-92.91 210,-82.78 210,-75.75"/>
<polygon fill="midnightblue" stroke="midnightblue" points="206.5,-102.08 210,-112.08 213.5,-102.08 206.5,-102.08"/>
</g>
<!-- Node10 -->
<g id="node10" class="node">
<title>Node10</title>
<g id="a_node10"><a xlink:href="os__scheduling__strategies_8c.html" target="_top" xlink:title=" ">
<polygon fill="white" stroke="black" points="0,-56.5 0,-75.5 148,-75.5 148,-56.5 0,-56.5"/>
<text text-anchor="middle" x="74" y="-63.5" font-family="FreeSans" font-size="10.00">os_scheduling_strategies.c</text>
</a>
</g>
</g>
<!-- Node9&#45;&gt;Node10 -->
<g id="edge12" class="edge">
<title>Node9&#45;&gt;Node10</title>
<path fill="none" stroke="midnightblue" d="M178.87,-108.64C153.34,-98.5 117.89,-84.43 95.45,-75.52"/>
<polygon fill="midnightblue" stroke="midnightblue" points="177.86,-112.01 188.45,-112.44 180.45,-105.5 177.86,-112.01"/>
</g>
</g>
</svg>
