<?xml version="1.0" encoding="UTF-8" standalone="no"?>
<!DOCTYPE svg PUBLIC "-//W3C//DTD SVG 1.1//EN"
 "http://www.w3.org/Graphics/SVG/1.1/DTD/svg11.dtd">
<!-- Generated by graphviz version 2.43.0 (0)
 -->
<!-- Title: os_init Pages: 1 -->
<svg width="855pt" height="351pt"
 viewBox="0.00 0.00 855.00 351.00" xmlns="http://www.w3.org/2000/svg" xmlns:xlink="http://www.w3.org/1999/xlink">
<g id="graph0" class="graph" transform="scale(1 1) rotate(0) translate(4 347)">
<title>os_init</title>
<polygon fill="white" stroke="transparent" points="-4,4 -4,-347 851,-347 851,4 -4,4"/>
<!-- Node1 -->
<g id="node1" class="node">
<title>Node1</title>
<g id="a_node1"><a xlink:title="Initializes OS.">
<polygon fill="#bfbfbf" stroke="black" points="0,-133.5 0,-152.5 49,-152.5 49,-133.5 0,-133.5"/>
<text text-anchor="middle" x="24.5" y="-140.5" font-family="FreeSans" font-size="10.00">os_init</text>
</a>
</g>
</g>
<!-- Node2 -->
<g id="node2" class="node">
<title>Node2</title>
<g id="a_node2"><a xlink:href="os__mem__drivers_8c.html#a7b4035516f05b473e63dcccfdcbb5ca3" target="_top" xlink:title="Function that needs to be called once in order to initialise all used memories such as the internal S...">
<polygon fill="white" stroke="black" points="91,-266.5 91,-285.5 203,-285.5 203,-266.5 91,-266.5"/>
<text text-anchor="middle" x="147" y="-273.5" font-family="FreeSans" font-size="10.00">initMemoryDevices</text>
</a>
</g>
</g>
<!-- Node1&#45;&gt;Node2 -->
<g id="edge1" class="edge">
<title>Node1&#45;&gt;Node2</title>
<path fill="none" stroke="midnightblue" d="M28.25,-152.58C34.72,-173.49 52.83,-223.61 85,-252 89.54,-256 94.82,-259.38 100.35,-262.22"/>
<polygon fill="midnightblue" stroke="midnightblue" points="99.23,-265.55 109.78,-266.49 102.12,-259.18 99.23,-265.55"/>
</g>
<!-- Node3 -->
<g id="node3" class="node">
<title>Node3</title>
<g id="a_node3"><a xlink:href="lcd_8h.html#a6842775ba83d166f02b8fef8bb63b1e6" target="_top" xlink:title="Initialize LCD.">
<polygon fill="white" stroke="black" points="260.5,-228.5 260.5,-247.5 312.5,-247.5 312.5,-228.5 260.5,-228.5"/>
<text text-anchor="middle" x="286.5" y="-235.5" font-family="FreeSans" font-size="10.00">lcd_init</text>
</a>
</g>
</g>
<!-- Node1&#45;&gt;Node3 -->
<g id="edge2" class="edge">
<title>Node1&#45;&gt;Node3</title>
<path fill="none" stroke="midnightblue" d="M29.76,-152.5C37.82,-169.26 57.07,-203.72 85,-219 137.03,-247.46 208.14,-246.55 250.2,-242.69"/>
<polygon fill="midnightblue" stroke="midnightblue" points="250.64,-246.16 260.24,-241.66 249.93,-239.2 250.64,-246.16"/>
</g>
<!-- Node11 -->
<g id="node11" class="node">
<title>Node11</title>
<g id="a_node11"><a xlink:href="lcd_8h.html#a12c915502d2f5eb5bca74e503ad88669" target="_top" xlink:title="Write char PROGMEM* string.">
<polygon fill="white" stroke="black" points="91.5,-190.5 91.5,-209.5 202.5,-209.5 202.5,-190.5 91.5,-190.5"/>
<text text-anchor="middle" x="147" y="-197.5" font-family="FreeSans" font-size="10.00">lcd_writeProgString</text>
</a>
</g>
</g>
<!-- Node1&#45;&gt;Node11 -->
<g id="edge12" class="edge">
<title>Node1&#45;&gt;Node11</title>
<path fill="none" stroke="midnightblue" d="M38.16,-152.5C49.83,-160.91 67.88,-173.04 85,-181 89.72,-183.19 94.76,-185.22 99.84,-187.07"/>
<polygon fill="midnightblue" stroke="midnightblue" points="99,-190.48 109.6,-190.4 101.26,-183.86 99,-190.48"/>
</g>
<!-- Node15 -->
<g id="node15" class="node">
<title>Node15</title>
<g id="a_node15"><a xlink:href="os__core_8c.html#a6e2cb65995e0266255572244baf860f3" target="_top" xlink:title="Initializes timers.">
<polygon fill="white" stroke="black" points="107,-152.5 107,-171.5 187,-171.5 187,-152.5 107,-152.5"/>
<text text-anchor="middle" x="147" y="-159.5" font-family="FreeSans" font-size="10.00">os_init_timer</text>
</a>
</g>
</g>
<!-- Node1&#45;&gt;Node15 -->
<g id="edge19" class="edge">
<title>Node1&#45;&gt;Node15</title>
<path fill="none" stroke="midnightblue" d="M49.02,-146.71C62.63,-148.85 80.29,-151.64 96.8,-154.24"/>
<polygon fill="midnightblue" stroke="midnightblue" points="96.46,-157.73 106.89,-155.83 97.55,-150.82 96.46,-157.73"/>
</g>
<!-- Node16 -->
<g id="node16" class="node">
<title>Node16</title>
<g id="a_node16"><a xlink:href="os__memheap__drivers_8c.html#a1735427417a3f887402129714eadcba0" target="_top" xlink:title="Initialises all Heaps.">
<polygon fill="white" stroke="black" points="107,-114.5 107,-133.5 187,-133.5 187,-114.5 107,-114.5"/>
<text text-anchor="middle" x="147" y="-121.5" font-family="FreeSans" font-size="10.00">os_initHeaps</text>
</a>
</g>
</g>
<!-- Node1&#45;&gt;Node16 -->
<g id="edge20" class="edge">
<title>Node1&#45;&gt;Node16</title>
<path fill="none" stroke="midnightblue" d="M49.02,-139.29C62.63,-137.15 80.29,-134.36 96.8,-131.76"/>
<polygon fill="midnightblue" stroke="midnightblue" points="97.55,-135.18 106.89,-130.17 96.46,-128.27 97.55,-135.18"/>
</g>
<!-- Node17 -->
<g id="node17" class="node">
<title>Node17</title>
<g id="a_node17"><a xlink:href="os__input_8c.html#a47d043a57e87cffbb40be4e33609175a" target="_top" xlink:title="Initializes PIN and PORT for input.">
<polygon fill="white" stroke="black" points="110,-76.5 110,-95.5 184,-95.5 184,-76.5 110,-76.5"/>
<text text-anchor="middle" x="147" y="-83.5" font-family="FreeSans" font-size="10.00">os_initInput</text>
</a>
</g>
</g>
<!-- Node1&#45;&gt;Node17 -->
<g id="edge21" class="edge">
<title>Node1&#45;&gt;Node17</title>
<path fill="none" stroke="midnightblue" d="M38.16,-133.5C49.83,-125.09 67.88,-112.96 85,-105 89.9,-102.72 95.15,-100.62 100.43,-98.71"/>
<polygon fill="midnightblue" stroke="midnightblue" points="101.57,-102.02 109.92,-95.49 99.32,-95.39 101.57,-102.02"/>
</g>
<!-- Node18 -->
<g id="node18" class="node">
<title>Node18</title>
<g id="a_node18"><a xlink:href="os__core_8c.html#afcd3b8ded93499847533d52c2b08772a" target="_top" xlink:title=" ">
<polygon fill="white" stroke="black" points="98.5,-38.5 98.5,-57.5 195.5,-57.5 195.5,-38.5 98.5,-38.5"/>
<text text-anchor="middle" x="147" y="-45.5" font-family="FreeSans" font-size="10.00">os_initScheduler</text>
</a>
</g>
</g>
<!-- Node1&#45;&gt;Node18 -->
<g id="edge22" class="edge">
<title>Node1&#45;&gt;Node18</title>
<path fill="none" stroke="midnightblue" d="M30.52,-133.29C39.35,-117.15 59.21,-84.8 85,-67 87.87,-65.02 90.96,-63.24 94.16,-61.63"/>
<polygon fill="midnightblue" stroke="midnightblue" points="95.67,-64.8 103.43,-57.59 92.87,-58.38 95.67,-64.8"/>
</g>
<!-- Node19 -->
<g id="node19" class="node">
<title>Node19</title>
<g id="a_node19"><a xlink:href="util_8c.html#a6370606c3e897e0d3064a0f154a536a2" target="_top" xlink:title="Resets system time back to 0.">
<polygon fill="white" stroke="black" points="85,-0.5 85,-19.5 209,-19.5 209,-0.5 85,-0.5"/>
<text text-anchor="middle" x="147" y="-7.5" font-family="FreeSans" font-size="10.00">os_systemTime_reset</text>
</a>
</g>
</g>
<!-- Node1&#45;&gt;Node19 -->
<g id="edge23" class="edge">
<title>Node1&#45;&gt;Node19</title>
<path fill="none" stroke="midnightblue" d="M27.79,-133.46C33.52,-111.64 50.56,-57.77 85,-29 87.05,-27.29 89.25,-25.73 91.56,-24.31"/>
<polygon fill="midnightblue" stroke="midnightblue" points="93.6,-27.2 100.9,-19.51 90.4,-20.97 93.6,-27.2"/>
</g>
<!-- Node4 -->
<g id="node4" class="node">
<title>Node4</title>
<g id="a_node4"><a xlink:href="util_8c.html#a6203c4722e9cbe1542b6ccbe98362dd2" target="_top" xlink:title="Waits for some milliseconds.">
<polygon fill="white" stroke="black" points="402,-323.5 402,-342.5 460,-342.5 460,-323.5 402,-323.5"/>
<text text-anchor="middle" x="431" y="-330.5" font-family="FreeSans" font-size="10.00">delayMs</text>
</a>
</g>
</g>
<!-- Node3&#45;&gt;Node4 -->
<g id="edge3" class="edge">
<title>Node3&#45;&gt;Node4</title>
<path fill="none" stroke="midnightblue" d="M295.5,-247.56C308.48,-262.54 335.55,-291.62 364,-309 372.65,-314.28 382.64,-318.67 392.19,-322.18"/>
<polygon fill="midnightblue" stroke="midnightblue" points="391.31,-325.58 401.91,-325.52 393.59,-318.96 391.31,-325.58"/>
</g>
<!-- Node7 -->
<g id="node7" class="node">
<title>Node7</title>
<g id="a_node7"><a xlink:href="lcd_8h.html#ad235a86241458b1e7b8771688bfdaf9a" target="_top" xlink:title="Clear all data from display.">
<polygon fill="white" stroke="black" points="401,-171.5 401,-190.5 461,-190.5 461,-171.5 401,-171.5"/>
<text text-anchor="middle" x="431" y="-178.5" font-family="FreeSans" font-size="10.00">lcd_clear</text>
</a>
</g>
</g>
<!-- Node3&#45;&gt;Node7 -->
<g id="edge6" class="edge">
<title>Node3&#45;&gt;Node7</title>
<path fill="none" stroke="midnightblue" d="M304.42,-228.49C319.66,-220.19 342.85,-208.22 364,-200 372.56,-196.67 381.94,-193.63 390.88,-191"/>
<polygon fill="midnightblue" stroke="midnightblue" points="392.04,-194.31 400.71,-188.21 390.13,-187.57 392.04,-194.31"/>
</g>
<!-- Node8 -->
<g id="node8" class="node">
<title>Node8</title>
<g id="a_node8"><a xlink:href="lcd_8h.html#acb116d89c358367b8fd1164120d320e3" target="_top" xlink:title="Send command to LCD.">
<polygon fill="white" stroke="black" points="558.5,-171.5 558.5,-190.5 643.5,-190.5 643.5,-171.5 558.5,-171.5"/>
<text text-anchor="middle" x="601" y="-178.5" font-family="FreeSans" font-size="10.00">lcd_command</text>
</a>
</g>
</g>
<!-- Node3&#45;&gt;Node8 -->
<g id="edge8" class="edge">
<title>Node3&#45;&gt;Node8</title>
<path fill="none" stroke="midnightblue" d="M301.68,-247.56C316.49,-256.92 340.76,-270.54 364,-276 421.98,-289.61 442.58,-297.81 498,-276 537.36,-260.51 570.52,-221.88 587.6,-198.94"/>
<polygon fill="midnightblue" stroke="midnightblue" points="590.52,-200.88 593.53,-190.72 584.84,-196.78 590.52,-200.88"/>
</g>
<!-- Node9 -->
<g id="node9" class="node">
<title>Node9</title>
<g id="a_node9"><a xlink:href="lcd_8h.html#aca4a9d0155c7c7ec0c5ce4c2f5347847" target="_top" xlink:title="Enable LCD.">
<polygon fill="white" stroke="black" points="396.5,-247.5 396.5,-266.5 465.5,-266.5 465.5,-247.5 396.5,-247.5"/>
<text text-anchor="middle" x="431" y="-254.5" font-family="FreeSans" font-size="10.00">lcd_enable</text>
</a>
</g>
</g>
<!-- Node3&#45;&gt;Node9 -->
<g id="edge9" class="edge">
<title>Node3&#45;&gt;Node9</title>
<path fill="none" stroke="midnightblue" d="M312.65,-241.35C332.99,-244.07 362.13,-247.95 386.27,-251.17"/>
<polygon fill="midnightblue" stroke="midnightblue" points="385.9,-254.65 396.28,-252.5 386.83,-247.71 385.9,-254.65"/>
</g>
<!-- Node10 -->
<g id="node10" class="node">
<title>Node10</title>
<g id="a_node10"><a xlink:href="lcd_8h.html#a9145ad7b7dd6a45f9a84cf3d424c5cf2" target="_top" xlink:title="Register a customly designed character with the LCD.">
<polygon fill="white" stroke="black" points="364,-209.5 364,-228.5 498,-228.5 498,-209.5 364,-209.5"/>
<text text-anchor="middle" x="431" y="-216.5" font-family="FreeSans" font-size="10.00">lcd_registerCustomChar</text>
</a>
</g>
</g>
<!-- Node3&#45;&gt;Node10 -->
<g id="edge10" class="edge">
<title>Node3&#45;&gt;Node10</title>
<path fill="none" stroke="midnightblue" d="M312.65,-234.65C324.27,-233.1 338.76,-231.17 353.54,-229.19"/>
<polygon fill="midnightblue" stroke="midnightblue" points="354.35,-232.62 363.8,-227.83 353.42,-225.68 354.35,-232.62"/>
</g>
<!-- Node5 -->
<g id="node5" class="node">
<title>Node5</title>
<g id="a_node5"><a xlink:href="util_8c.html#a0ed4ceac216999d297c20ed56cd2f2e0" target="_top" xlink:title="Precise system time in ms.">
<polygon fill="white" stroke="black" points="534,-323.5 534,-342.5 668,-342.5 668,-323.5 534,-323.5"/>
<text text-anchor="middle" x="601" y="-330.5" font-family="FreeSans" font-size="10.00">os_systemTime_precise</text>
</a>
</g>
</g>
<!-- Node4&#45;&gt;Node5 -->
<g id="edge4" class="edge">
<title>Node4&#45;&gt;Node5</title>
<path fill="none" stroke="midnightblue" d="M460.12,-333C477.54,-333 500.82,-333 523.38,-333"/>
<polygon fill="midnightblue" stroke="midnightblue" points="523.67,-336.5 533.67,-333 523.67,-329.5 523.67,-336.5"/>
</g>
<!-- Node6 -->
<g id="node6" class="node">
<title>Node6</title>
<g id="a_node6"><a xlink:href="util_8c.html#aa7568de3711b151bbc57bb3517a5cb0a" target="_top" xlink:title=" ">
<polygon fill="white" stroke="black" points="704,-323.5 704,-342.5 847,-342.5 847,-323.5 704,-323.5"/>
<text text-anchor="middle" x="775.5" y="-330.5" font-family="FreeSans" font-size="10.00">os_systemTime_augment</text>
</a>
</g>
</g>
<!-- Node5&#45;&gt;Node6 -->
<g id="edge5" class="edge">
<title>Node5&#45;&gt;Node6</title>
<path fill="none" stroke="midnightblue" d="M668.2,-333C676.6,-333 685.27,-333 693.86,-333"/>
<polygon fill="midnightblue" stroke="midnightblue" points="693.89,-336.5 703.89,-333 693.89,-329.5 693.89,-336.5"/>
</g>
<!-- Node7&#45;&gt;Node8 -->
<g id="edge7" class="edge">
<title>Node7&#45;&gt;Node8</title>
<path fill="none" stroke="midnightblue" d="M461.26,-181C485.21,-181 519.67,-181 548.25,-181"/>
<polygon fill="midnightblue" stroke="midnightblue" points="548.49,-184.5 558.49,-181 548.49,-177.5 548.49,-184.5"/>
</g>
<!-- Node10&#45;&gt;Node8 -->
<g id="edge11" class="edge">
<title>Node10&#45;&gt;Node8</title>
<path fill="none" stroke="midnightblue" d="M474.39,-209.41C496.93,-204.31 524.82,-198.01 548.59,-192.63"/>
<polygon fill="midnightblue" stroke="midnightblue" points="549.51,-196.01 558.49,-190.39 547.97,-189.18 549.51,-196.01"/>
</g>
<!-- Node12 -->
<g id="node12" class="node">
<title>Node12</title>
<g id="a_node12"><a xlink:href="lcd_8h.html#a93cd5600fa3b27381a4cf57d21f27ebf" target="_top" xlink:title="Write one character.">
<polygon fill="white" stroke="black" points="245,-152.5 245,-171.5 328,-171.5 328,-152.5 245,-152.5"/>
<text text-anchor="middle" x="286.5" y="-159.5" font-family="FreeSans" font-size="10.00">lcd_writeChar</text>
</a>
</g>
</g>
<!-- Node11&#45;&gt;Node12 -->
<g id="edge13" class="edge">
<title>Node11&#45;&gt;Node12</title>
<path fill="none" stroke="midnightblue" d="M182.7,-190.41C200.37,-185.53 222.05,-179.54 240.94,-174.32"/>
<polygon fill="midnightblue" stroke="midnightblue" points="242.11,-177.62 250.81,-171.59 240.24,-170.88 242.11,-177.62"/>
</g>
<!-- Node12&#45;&gt;Node7 -->
<g id="edge14" class="edge">
<title>Node12&#45;&gt;Node7</title>
<path fill="none" stroke="midnightblue" d="M328.33,-167.44C347.99,-170.07 371.46,-173.19 390.89,-175.78"/>
<polygon fill="midnightblue" stroke="midnightblue" points="390.55,-179.27 400.93,-177.12 391.48,-172.33 390.55,-179.27"/>
</g>
<!-- Node13 -->
<g id="node13" class="node">
<title>Node13</title>
<g id="a_node13"><a xlink:href="lcd_8h.html#a016fe1471f1d20196b5ca3d2634c927a" target="_top" xlink:title="Next output will be written to line 1.">
<polygon fill="white" stroke="black" points="401,-133.5 401,-152.5 461,-152.5 461,-133.5 401,-133.5"/>
<text text-anchor="middle" x="431" y="-140.5" font-family="FreeSans" font-size="10.00">lcd_line1</text>
</a>
</g>
</g>
<!-- Node12&#45;&gt;Node13 -->
<g id="edge15" class="edge">
<title>Node12&#45;&gt;Node13</title>
<path fill="none" stroke="midnightblue" d="M328.33,-156.56C347.99,-153.93 371.46,-150.81 390.89,-148.22"/>
<polygon fill="midnightblue" stroke="midnightblue" points="391.48,-151.67 400.93,-146.88 390.55,-144.73 391.48,-151.67"/>
</g>
<!-- Node14 -->
<g id="node14" class="node">
<title>Node14</title>
<g id="a_node14"><a xlink:href="lcd_8h.html#ad9ccaf30ea478fef726c058ff4ee7dd1" target="_top" xlink:title="Next output will be written to line 2.">
<polygon fill="white" stroke="black" points="401,-95.5 401,-114.5 461,-114.5 461,-95.5 401,-95.5"/>
<text text-anchor="middle" x="431" y="-102.5" font-family="FreeSans" font-size="10.00">lcd_line2</text>
</a>
</g>
</g>
<!-- Node12&#45;&gt;Node14 -->
<g id="edge17" class="edge">
<title>Node12&#45;&gt;Node14</title>
<path fill="none" stroke="midnightblue" d="M304.42,-152.49C319.66,-144.19 342.85,-132.22 364,-124 372.56,-120.67 381.94,-117.63 390.88,-115"/>
<polygon fill="midnightblue" stroke="midnightblue" points="392.04,-118.31 400.71,-112.21 390.13,-111.57 392.04,-118.31"/>
</g>
<!-- Node13&#45;&gt;Node8 -->
<g id="edge16" class="edge">
<title>Node13&#45;&gt;Node8</title>
<path fill="none" stroke="midnightblue" d="M461.26,-149.62C485.31,-155.06 519.97,-162.9 548.63,-169.38"/>
<polygon fill="midnightblue" stroke="midnightblue" points="547.96,-172.82 558.49,-171.61 549.5,-165.99 547.96,-172.82"/>
</g>
<!-- Node14&#45;&gt;Node8 -->
<g id="edge18" class="edge">
<title>Node14&#45;&gt;Node8</title>
<path fill="none" stroke="midnightblue" d="M461.08,-111.83C472.76,-114.97 486.22,-119.09 498,-124 526.25,-135.78 556.64,-153.47 576.82,-166.02"/>
<polygon fill="midnightblue" stroke="midnightblue" points="575.01,-169.01 585.34,-171.38 578.74,-163.09 575.01,-169.01"/>
</g>
</g>
</svg>
