<?xml version="1.0" encoding="UTF-8" standalone="no"?>
<!DOCTYPE svg PUBLIC "-//W3C//DTD SVG 1.1//EN"
 "http://www.w3.org/Graphics/SVG/1.1/DTD/svg11.dtd">
<!-- Generated by graphviz version 2.43.0 (0)
 -->
<!-- Title: os_scheduling_strategies.h Pages: 1 -->
<svg width="262pt" height="84pt"
 viewBox="0.00 0.00 262.00 84.00" xmlns="http://www.w3.org/2000/svg" xmlns:xlink="http://www.w3.org/1999/xlink">
<g id="graph0" class="graph" transform="scale(1 1) rotate(0) translate(4 80)">
<title>os_scheduling_strategies.h</title>
<polygon fill="white" stroke="transparent" points="-4,4 -4,-80 258,-80 258,4 -4,4"/>
<!-- Node1 -->
<g id="node1" class="node">
<title>Node1</title>
<g id="a_node1"><a xlink:title="Scheduling library for the OS.">
<polygon fill="#bfbfbf" stroke="black" points="37.5,-56.5 37.5,-75.5 186.5,-75.5 186.5,-56.5 37.5,-56.5"/>
<text text-anchor="middle" x="112" y="-63.5" font-family="FreeSans" font-size="10.00">os_scheduling_strategies.h</text>
</a>
</g>
</g>
<!-- Node2 -->
<g id="node2" class="node">
<title>Node2</title>
<g id="a_node2"><a xlink:href="os__scheduler_8c.html" target="_top" xlink:title=" ">
<polygon fill="white" stroke="black" points="0,-0.5 0,-19.5 88,-19.5 88,-0.5 0,-0.5"/>
<text text-anchor="middle" x="44" y="-7.5" font-family="FreeSans" font-size="10.00">os_scheduler.c</text>
</a>
</g>
</g>
<!-- Node1&#45;&gt;Node2 -->
<g id="edge1" class="edge">
<title>Node1&#45;&gt;Node2</title>
<path fill="none" stroke="midnightblue" d="M93.24,-50.1C81,-40.38 65.44,-28.03 55.12,-19.83"/>
<polygon fill="midnightblue" stroke="midnightblue" points="91.07,-52.85 101.07,-56.32 95.42,-47.36 91.07,-52.85"/>
</g>
<!-- Node3 -->
<g id="node3" class="node">
<title>Node3</title>
<g id="a_node3"><a xlink:href="os__scheduling__strategies_8c.html" target="_top" xlink:title=" ">
<polygon fill="white" stroke="black" points="106,-0.5 106,-19.5 254,-19.5 254,-0.5 106,-0.5"/>
<text text-anchor="middle" x="180" y="-7.5" font-family="FreeSans" font-size="10.00">os_scheduling_strategies.c</text>
</a>
</g>
</g>
<!-- Node1&#45;&gt;Node3 -->
<g id="edge2" class="edge">
<title>Node1&#45;&gt;Node3</title>
<path fill="none" stroke="midnightblue" d="M130.76,-50.1C143,-40.38 158.56,-28.03 168.88,-19.83"/>
<polygon fill="midnightblue" stroke="midnightblue" points="128.58,-47.36 122.93,-56.32 132.93,-52.85 128.58,-47.36"/>
</g>
</g>
</svg>
