<?xml version="1.0" encoding="UTF-8" standalone="no"?>
<!DOCTYPE svg PUBLIC "-//W3C//DTD SVG 1.1//EN"
 "http://www.w3.org/Graphics/SVG/1.1/DTD/svg11.dtd">
<!-- Generated by graphviz version 2.43.0 (0)
 -->
<!-- Title: os_scheduler.h Pages: 1 -->
<svg width="710pt" height="196pt"
 viewBox="0.00 0.00 710.37 196.00" xmlns="http://www.w3.org/2000/svg" xmlns:xlink="http://www.w3.org/1999/xlink">
<g id="graph0" class="graph" transform="scale(1 1) rotate(0) translate(4 192)">
<title>os_scheduler.h</title>
<polygon fill="white" stroke="transparent" points="-4,4 -4,-192 706.37,-192 706.37,4 -4,4"/>
<!-- Node1 -->
<g id="node1" class="node">
<title>Node1</title>
<g id="a_node1"><a xlink:title="Scheduling module for the OS.">
<polygon fill="#bfbfbf" stroke="black" points="408.5,-168.5 408.5,-187.5 497.5,-187.5 497.5,-168.5 408.5,-168.5"/>
<text text-anchor="middle" x="453" y="-175.5" font-family="FreeSans" font-size="10.00">os_scheduler.h</text>
</a>
</g>
</g>
<!-- Node2 -->
<g id="node2" class="node">
<title>Node2</title>
<g id="a_node2"><a xlink:href="os__memory_8h.html" target="_top" xlink:title="Library for OS memory management.">
<polygon fill="white" stroke="black" points="307,-112.5 307,-131.5 389,-131.5 389,-112.5 307,-112.5"/>
<text text-anchor="middle" x="348" y="-119.5" font-family="FreeSans" font-size="10.00">os_memory.h</text>
</a>
</g>
</g>
<!-- Node1&#45;&gt;Node2 -->
<g id="edge1" class="edge">
<title>Node1&#45;&gt;Node2</title>
<path fill="none" stroke="midnightblue" d="M427.19,-163.73C407.75,-153.73 381.65,-140.31 364.83,-131.65"/>
<polygon fill="midnightblue" stroke="midnightblue" points="425.64,-166.86 436.13,-168.32 428.84,-160.64 425.64,-166.86"/>
</g>
<!-- Node5 -->
<g id="node5" class="node">
<title>Node5</title>
<g id="a_node5"><a xlink:href="os__scheduler_8c.html" target="_top" xlink:title=" ">
<polygon fill="white" stroke="black" points="427,-56.5 427,-75.5 515,-75.5 515,-56.5 427,-56.5"/>
<text text-anchor="middle" x="471" y="-63.5" font-family="FreeSans" font-size="10.00">os_scheduler.c</text>
</a>
</g>
</g>
<!-- Node1&#45;&gt;Node5 -->
<g id="edge8" class="edge">
<title>Node1&#45;&gt;Node5</title>
<path fill="none" stroke="midnightblue" d="M456.05,-158.35C459.99,-134.25 466.7,-93.31 469.59,-75.59"/>
<polygon fill="midnightblue" stroke="midnightblue" points="452.57,-157.93 454.41,-168.37 459.48,-159.06 452.57,-157.93"/>
</g>
<!-- Node6 -->
<g id="node6" class="node">
<title>Node6</title>
<g id="a_node6"><a xlink:href="os__user__privileges_8h.html" target="_top" xlink:title="User privileges specification used in part by the Taskman.">
<polygon fill="white" stroke="black" points="0,-56.5 0,-75.5 116,-75.5 116,-56.5 0,-56.5"/>
<text text-anchor="middle" x="58" y="-63.5" font-family="FreeSans" font-size="10.00">os_user_privileges.h</text>
</a>
</g>
</g>
<!-- Node1&#45;&gt;Node6 -->
<g id="edge13" class="edge">
<title>Node1&#45;&gt;Node6</title>
<path fill="none" stroke="midnightblue" d="M412.23,-165.65C332.84,-143.54 159.15,-95.17 88.65,-75.53"/>
<polygon fill="midnightblue" stroke="midnightblue" points="411.76,-169.15 422.33,-168.46 413.64,-162.41 411.76,-169.15"/>
</g>
<!-- Node7 -->
<g id="node7" class="node">
<title>Node7</title>
<g id="a_node7"><a xlink:href="os__taskman_8c.html" target="_top" xlink:title=" ">
<polygon fill="white" stroke="black" points="357,-0.5 357,-19.5 441,-19.5 441,-0.5 357,-0.5"/>
<text text-anchor="middle" x="399" y="-7.5" font-family="FreeSans" font-size="10.00">os_taskman.c</text>
</a>
</g>
</g>
<!-- Node1&#45;&gt;Node7 -->
<g id="edge12" class="edge">
<title>Node1&#45;&gt;Node7</title>
<path fill="none" stroke="midnightblue" d="M507.5,-169.68C593.7,-155.95 746.25,-121.62 690,-56 658.43,-19.18 513.79,-12.22 441.04,-11.08"/>
<polygon fill="midnightblue" stroke="midnightblue" points="506.93,-166.23 497.59,-171.22 508,-173.15 506.93,-166.23"/>
</g>
<!-- Node8 -->
<g id="node8" class="node">
<title>Node8</title>
<g id="a_node8"><a xlink:href="os__scheduling__strategies_8h.html" target="_top" xlink:title="Scheduling library for the OS.">
<polygon fill="white" stroke="black" points="480.5,-112.5 480.5,-131.5 629.5,-131.5 629.5,-112.5 480.5,-112.5"/>
<text text-anchor="middle" x="555" y="-119.5" font-family="FreeSans" font-size="10.00">os_scheduling_strategies.h</text>
</a>
</g>
</g>
<!-- Node1&#45;&gt;Node8 -->
<g id="edge9" class="edge">
<title>Node1&#45;&gt;Node8</title>
<path fill="none" stroke="midnightblue" d="M478.33,-163.59C497.19,-153.61 522.38,-140.27 538.65,-131.65"/>
<polygon fill="midnightblue" stroke="midnightblue" points="476.59,-160.55 469.39,-168.32 479.86,-166.74 476.59,-160.55"/>
</g>
<!-- Node3 -->
<g id="node3" class="node">
<title>Node3</title>
<g id="a_node3"><a xlink:href="os__memory_8c.html" target="_top" xlink:title=" ">
<polygon fill="white" stroke="black" points="289.5,-56.5 289.5,-75.5 370.5,-75.5 370.5,-56.5 289.5,-56.5"/>
<text text-anchor="middle" x="330" y="-63.5" font-family="FreeSans" font-size="10.00">os_memory.c</text>
</a>
</g>
</g>
<!-- Node2&#45;&gt;Node3 -->
<g id="edge2" class="edge">
<title>Node2&#45;&gt;Node3</title>
<path fill="none" stroke="midnightblue" d="M341.8,-102.4C338.79,-93.36 335.31,-82.94 332.92,-75.75"/>
<polygon fill="midnightblue" stroke="midnightblue" points="338.54,-103.7 345.03,-112.08 345.19,-101.49 338.54,-103.7"/>
</g>
<!-- Node4 -->
<g id="node4" class="node">
<title>Node4</title>
<g id="a_node4"><a xlink:href="os__memory__strategies_8c.html" target="_top" xlink:title=" ">
<polygon fill="white" stroke="black" points="134.5,-56.5 134.5,-75.5 271.5,-75.5 271.5,-56.5 134.5,-56.5"/>
<text text-anchor="middle" x="203" y="-63.5" font-family="FreeSans" font-size="10.00">os_memory_strategies.c</text>
</a>
</g>
</g>
<!-- Node2&#45;&gt;Node4 -->
<g id="edge3" class="edge">
<title>Node2&#45;&gt;Node4</title>
<path fill="none" stroke="midnightblue" d="M315.52,-108.91C288.26,-98.75 250.01,-84.51 225.87,-75.52"/>
<polygon fill="midnightblue" stroke="midnightblue" points="314.43,-112.23 325.02,-112.44 316.87,-105.67 314.43,-112.23"/>
</g>
<!-- Node2&#45;&gt;Node5 -->
<g id="edge4" class="edge">
<title>Node2&#45;&gt;Node5</title>
<path fill="none" stroke="midnightblue" d="M376.77,-108.37C399.81,-98.26 431.48,-84.35 451.6,-75.52"/>
<polygon fill="midnightblue" stroke="midnightblue" points="375.24,-105.22 367.49,-112.44 378.05,-111.63 375.24,-105.22"/>
</g>
<!-- Node2&#45;&gt;Node6 -->
<g id="edge5" class="edge">
<title>Node2&#45;&gt;Node6</title>
<path fill="none" stroke="midnightblue" d="M296.6,-111.43C241.95,-101.25 156.33,-85.31 103.88,-75.54"/>
<polygon fill="midnightblue" stroke="midnightblue" points="296.29,-114.93 306.76,-113.32 297.57,-108.05 296.29,-114.93"/>
</g>
<!-- Node2&#45;&gt;Node7 -->
<g id="edge7" class="edge">
<title>Node2&#45;&gt;Node7</title>
<path fill="none" stroke="midnightblue" d="M361.37,-104.24C367.39,-96.08 374.2,-85.91 379,-76 388.26,-56.87 394.39,-32.51 397.21,-19.73"/>
<polygon fill="midnightblue" stroke="midnightblue" points="358.57,-102.13 355.28,-112.2 364.13,-106.38 358.57,-102.13"/>
</g>
<!-- Node6&#45;&gt;Node7 -->
<g id="edge6" class="edge">
<title>Node6&#45;&gt;Node7</title>
<path fill="none" stroke="midnightblue" d="M122.3,-54.82C191.03,-43.93 298.02,-26.99 356.79,-17.68"/>
<polygon fill="midnightblue" stroke="midnightblue" points="121.36,-51.42 112.03,-56.44 122.46,-58.34 121.36,-51.42"/>
</g>
<!-- Node8&#45;&gt;Node5 -->
<g id="edge10" class="edge">
<title>Node8&#45;&gt;Node5</title>
<path fill="none" stroke="midnightblue" d="M533.07,-106.9C517.66,-97 497.55,-84.07 484.46,-75.65"/>
<polygon fill="midnightblue" stroke="midnightblue" points="531.2,-109.86 541.5,-112.32 534.98,-103.97 531.2,-109.86"/>
</g>
<!-- Node9 -->
<g id="node9" class="node">
<title>Node9</title>
<g id="a_node9"><a xlink:href="os__scheduling__strategies_8c.html" target="_top" xlink:title=" ">
<polygon fill="white" stroke="black" points="533,-56.5 533,-75.5 681,-75.5 681,-56.5 533,-56.5"/>
<text text-anchor="middle" x="607" y="-63.5" font-family="FreeSans" font-size="10.00">os_scheduling_strategies.c</text>
</a>
</g>
</g>
<!-- Node8&#45;&gt;Node9 -->
<g id="edge11" class="edge">
<title>Node8&#45;&gt;Node9</title>
<path fill="none" stroke="midnightblue" d="M570.68,-104.72C579.84,-95.2 591.05,-83.56 598.57,-75.75"/>
<polygon fill="midnightblue" stroke="midnightblue" points="568,-102.45 563.59,-112.08 573.04,-107.31 568,-102.45"/>
</g>
</g>
</svg>
