<?xml version="1.0" encoding="UTF-8" standalone="no"?>
<!DOCTYPE svg PUBLIC "-//W3C//DTD SVG 1.1//EN"
 "http://www.w3.org/Graphics/SVG/1.1/DTD/svg11.dtd">
<!-- Generated by graphviz version 2.43.0 (0)
 -->
<!-- Title: os_input.c Pages: 1 -->
<svg width="185pt" height="140pt"
 viewBox="0.00 0.00 185.00 140.00" xmlns="http://www.w3.org/2000/svg" xmlns:xlink="http://www.w3.org/1999/xlink">
<g id="graph0" class="graph" transform="scale(1 1) rotate(0) translate(4 136)">
<title>os_input.c</title>
<polygon fill="white" stroke="transparent" points="-4,4 -4,-136 181,-136 181,4 -4,4"/>
<!-- Node1 -->
<g id="node1" class="node">
<title>Node1</title>
<g id="a_node1"><a xlink:title=" ">
<polygon fill="#bfbfbf" stroke="black" points="62.5,-112.5 62.5,-131.5 128.5,-131.5 128.5,-112.5 62.5,-112.5"/>
<text text-anchor="middle" x="95.5" y="-119.5" font-family="FreeSans" font-size="10.00">os_input.c</text>
</a>
</g>
</g>
<!-- Node2 -->
<g id="node2" class="node">
<title>Node2</title>
<g id="a_node2"><a xlink:href="os__input_8h.html" target="_top" xlink:title="Input library for the OS.">
<polygon fill="white" stroke="black" points="0,-56.5 0,-75.5 67,-75.5 67,-56.5 0,-56.5"/>
<text text-anchor="middle" x="33.5" y="-63.5" font-family="FreeSans" font-size="10.00">os_input.h</text>
</a>
</g>
</g>
<!-- Node1&#45;&gt;Node2 -->
<g id="edge1" class="edge">
<title>Node1&#45;&gt;Node2</title>
<path fill="none" stroke="midnightblue" d="M85.54,-112.32C76.37,-104.34 62.56,-92.31 51.47,-82.65"/>
<polygon fill="midnightblue" stroke="midnightblue" points="53.48,-79.76 43.64,-75.83 48.88,-85.04 53.48,-79.76"/>
</g>
<!-- Node3 -->
<g id="node3" class="node">
<title>Node3</title>
<g id="a_node3"><a xlink:title=" ">
<polygon fill="white" stroke="#bfbfbf" points="38,-0.5 38,-19.5 91,-19.5 91,-0.5 38,-0.5"/>
<text text-anchor="middle" x="64.5" y="-7.5" font-family="FreeSans" font-size="10.00">stdint.h</text>
</a>
</g>
</g>
<!-- Node1&#45;&gt;Node3 -->
<g id="edge4" class="edge">
<title>Node1&#45;&gt;Node3</title>
<path fill="none" stroke="midnightblue" d="M93.07,-112.37C88.04,-94.54 76.42,-53.3 69.65,-29.27"/>
<polygon fill="midnightblue" stroke="midnightblue" points="73,-28.27 66.92,-19.59 66.27,-30.17 73,-28.27"/>
</g>
<!-- Node4 -->
<g id="node4" class="node">
<title>Node4</title>
<g id="a_node4"><a xlink:title=" ">
<polygon fill="white" stroke="#bfbfbf" points="124,-56.5 124,-75.5 177,-75.5 177,-56.5 124,-56.5"/>
<text text-anchor="middle" x="150.5" y="-63.5" font-family="FreeSans" font-size="10.00">avr/io.h</text>
</a>
</g>
</g>
<!-- Node1&#45;&gt;Node4 -->
<g id="edge3" class="edge">
<title>Node1&#45;&gt;Node4</title>
<path fill="none" stroke="midnightblue" d="M104.58,-112.08C112.67,-104.14 124.7,-92.34 134.41,-82.8"/>
<polygon fill="midnightblue" stroke="midnightblue" points="136.9,-85.25 141.59,-75.75 132,-80.26 136.9,-85.25"/>
</g>
<!-- Node2&#45;&gt;Node3 -->
<g id="edge2" class="edge">
<title>Node2&#45;&gt;Node3</title>
<path fill="none" stroke="midnightblue" d="M38.62,-56.08C42.91,-48.61 49.16,-37.72 54.44,-28.52"/>
<polygon fill="midnightblue" stroke="midnightblue" points="57.53,-30.17 59.48,-19.75 51.46,-26.68 57.53,-30.17"/>
</g>
</g>
</svg>
