<?xml version="1.0" encoding="UTF-8" standalone="no"?>
<!DOCTYPE svg PUBLIC "-//W3C//DTD SVG 1.1//EN"
 "http://www.w3.org/Graphics/SVG/1.1/DTD/svg11.dtd">
<!-- Generated by graphviz version 2.43.0 (0)
 -->
<!-- Title: os_core.c Pages: 1 -->
<svg width="596pt" height="252pt"
 viewBox="0.00 0.00 595.50 252.00" xmlns="http://www.w3.org/2000/svg" xmlns:xlink="http://www.w3.org/1999/xlink">
<g id="graph0" class="graph" transform="scale(1 1) rotate(0) translate(4 248)">
<title>os_core.c</title>
<polygon fill="white" stroke="transparent" points="-4,4 -4,-248 591.5,-248 591.5,4 -4,4"/>
<!-- Node1 -->
<g id="node1" class="node">
<title>Node1</title>
<g id="a_node1"><a xlink:title=" ">
<polygon fill="#bfbfbf" stroke="black" points="230.5,-224.5 230.5,-243.5 292.5,-243.5 292.5,-224.5 230.5,-224.5"/>
<text text-anchor="middle" x="261.5" y="-231.5" font-family="FreeSans" font-size="10.00">os_core.c</text>
</a>
</g>
</g>
<!-- Node2 -->
<g id="node2" class="node">
<title>Node2</title>
<g id="a_node2"><a xlink:href="os__core_8h.html" target="_top" xlink:title="Core of the OS.">
<polygon fill="white" stroke="black" points="0,-112.5 0,-131.5 63,-131.5 63,-112.5 0,-112.5"/>
<text text-anchor="middle" x="31.5" y="-119.5" font-family="FreeSans" font-size="10.00">os_core.h</text>
</a>
</g>
</g>
<!-- Node1&#45;&gt;Node2 -->
<g id="edge1" class="edge">
<title>Node1&#45;&gt;Node2</title>
<path fill="none" stroke="midnightblue" d="M236.16,-224.39C212.35,-216.02 175.93,-202.48 145.5,-188 112.59,-172.34 76.3,-150.87 53.7,-136.97"/>
<polygon fill="midnightblue" stroke="midnightblue" points="55.53,-133.98 45.18,-131.69 51.84,-139.93 55.53,-133.98"/>
</g>
<!-- Node4 -->
<g id="node4" class="node">
<title>Node4</title>
<g id="a_node4"><a xlink:href="defines_8h.html" target="_top" xlink:title="Simple definitions and assembler&#45;macros, mostly 8/16&#45;Bit values.">
<polygon fill="white" stroke="black" points="294,-112.5 294,-131.5 355,-131.5 355,-112.5 294,-112.5"/>
<text text-anchor="middle" x="324.5" y="-119.5" font-family="FreeSans" font-size="10.00">defines.h</text>
</a>
</g>
</g>
<!-- Node1&#45;&gt;Node4 -->
<g id="edge3" class="edge">
<title>Node1&#45;&gt;Node4</title>
<path fill="none" stroke="midnightblue" d="M271.85,-224.34C281.3,-215.94 295.05,-202.37 303.5,-188 311.96,-173.63 317.46,-155.43 320.7,-141.95"/>
<polygon fill="midnightblue" stroke="midnightblue" points="324.18,-142.44 322.91,-131.92 317.34,-140.93 324.18,-142.44"/>
</g>
<!-- Node7 -->
<g id="node7" class="node">
<title>Node7</title>
<g id="a_node7"><a xlink:href="util_8h.html" target="_top" xlink:title="Little helpers that don&#39;t fit elsewhere.">
<polygon fill="white" stroke="black" points="120,-112.5 120,-131.5 161,-131.5 161,-112.5 120,-112.5"/>
<text text-anchor="middle" x="140.5" y="-119.5" font-family="FreeSans" font-size="10.00">util.h</text>
</a>
</g>
</g>
<!-- Node1&#45;&gt;Node7 -->
<g id="edge6" class="edge">
<title>Node1&#45;&gt;Node7</title>
<path fill="none" stroke="midnightblue" d="M230.48,-226.45C208.09,-220.18 178.71,-208.55 160.5,-188 149.13,-175.17 144.23,-155.99 142.11,-141.78"/>
<polygon fill="midnightblue" stroke="midnightblue" points="145.56,-141.21 140.94,-131.67 138.61,-142.01 145.56,-141.21"/>
</g>
<!-- Node10 -->
<g id="node10" class="node">
<title>Node10</title>
<g id="a_node10"><a xlink:href="lcd_8h.html" target="_top" xlink:title="Library for LCD use.">
<polygon fill="white" stroke="black" points="169.5,-168.5 169.5,-187.5 209.5,-187.5 209.5,-168.5 169.5,-168.5"/>
<text text-anchor="middle" x="189.5" y="-175.5" font-family="FreeSans" font-size="10.00">lcd.h</text>
</a>
</g>
</g>
<!-- Node1&#45;&gt;Node10 -->
<g id="edge10" class="edge">
<title>Node1&#45;&gt;Node10</title>
<path fill="none" stroke="midnightblue" d="M249.93,-224.32C239.08,-216.18 222.62,-203.84 209.62,-194.09"/>
<polygon fill="midnightblue" stroke="midnightblue" points="211.38,-191.03 201.28,-187.83 207.18,-196.63 211.38,-191.03"/>
</g>
<!-- Node11 -->
<g id="node11" class="node">
<title>Node11</title>
<g id="a_node11"><a xlink:href="os__input_8h.html" target="_top" xlink:title="Input library for the OS.">
<polygon fill="white" stroke="black" points="228,-168.5 228,-187.5 295,-187.5 295,-168.5 228,-168.5"/>
<text text-anchor="middle" x="261.5" y="-175.5" font-family="FreeSans" font-size="10.00">os_input.h</text>
</a>
</g>
</g>
<!-- Node1&#45;&gt;Node11 -->
<g id="edge16" class="edge">
<title>Node1&#45;&gt;Node11</title>
<path fill="none" stroke="midnightblue" d="M261.5,-224.08C261.5,-217.01 261.5,-206.86 261.5,-197.99"/>
<polygon fill="midnightblue" stroke="midnightblue" points="265,-197.75 261.5,-187.75 258,-197.75 265,-197.75"/>
</g>
<!-- Node12 -->
<g id="node12" class="node">
<title>Node12</title>
<g id="a_node12"><a xlink:href="os__memheap__drivers_8h.html" target="_top" xlink:title="Drivers for OS heap management.">
<polygon fill="white" stroke="black" points="352,-168.5 352,-187.5 483,-187.5 483,-168.5 352,-168.5"/>
<text text-anchor="middle" x="417.5" y="-175.5" font-family="FreeSans" font-size="10.00">os_memheap_drivers.h</text>
</a>
</g>
</g>
<!-- Node1&#45;&gt;Node12 -->
<g id="edge18" class="edge">
<title>Node1&#45;&gt;Node12</title>
<path fill="none" stroke="midnightblue" d="M286.22,-224.44C312.35,-215.4 353.76,-201.06 383.08,-190.92"/>
<polygon fill="midnightblue" stroke="midnightblue" points="384.59,-194.1 392.9,-187.52 382.3,-187.48 384.59,-194.1"/>
</g>
<!-- Node16 -->
<g id="node16" class="node">
<title>Node16</title>
<g id="a_node16"><a xlink:title=" ">
<polygon fill="white" stroke="#bfbfbf" points="501.5,-168.5 501.5,-187.5 587.5,-187.5 587.5,-168.5 501.5,-168.5"/>
<text text-anchor="middle" x="544.5" y="-175.5" font-family="FreeSans" font-size="10.00">avr/interrupt.h</text>
</a>
</g>
</g>
<!-- Node1&#45;&gt;Node16 -->
<g id="edge22" class="edge">
<title>Node1&#45;&gt;Node16</title>
<path fill="none" stroke="midnightblue" d="M292.6,-227.07C340.41,-217.94 432.59,-200.35 491.2,-189.17"/>
<polygon fill="midnightblue" stroke="midnightblue" points="492.21,-192.54 501.37,-187.23 490.89,-185.67 492.21,-192.54"/>
</g>
<!-- Node3 -->
<g id="node3" class="node">
<title>Node3</title>
<g id="a_node3"><a xlink:title=" ">
<polygon fill="white" stroke="#bfbfbf" points="7,-56.5 7,-75.5 102,-75.5 102,-56.5 7,-56.5"/>
<text text-anchor="middle" x="54.5" y="-63.5" font-family="FreeSans" font-size="10.00">avr/pgmspace.h</text>
</a>
</g>
</g>
<!-- Node2&#45;&gt;Node3 -->
<g id="edge2" class="edge">
<title>Node2&#45;&gt;Node3</title>
<path fill="none" stroke="midnightblue" d="M35.3,-112.08C38.41,-104.77 42.92,-94.18 46.79,-85.1"/>
<polygon fill="midnightblue" stroke="midnightblue" points="50.07,-86.32 50.77,-75.75 43.63,-83.58 50.07,-86.32"/>
</g>
<!-- Node5 -->
<g id="node5" class="node">
<title>Node5</title>
<g id="a_node5"><a xlink:href="atmega644constants_8h.html" target="_top" xlink:title="Constants for ATMega644 and EVA board. Defines several useful constants for the ATMega644.">
<polygon fill="white" stroke="black" points="272.5,-56.5 272.5,-75.5 400.5,-75.5 400.5,-56.5 272.5,-56.5"/>
<text text-anchor="middle" x="336.5" y="-63.5" font-family="FreeSans" font-size="10.00">atmega644constants.h</text>
</a>
</g>
</g>
<!-- Node4&#45;&gt;Node5 -->
<g id="edge4" class="edge">
<title>Node4&#45;&gt;Node5</title>
<path fill="none" stroke="midnightblue" d="M326.48,-112.08C328.07,-104.93 330.36,-94.64 332.35,-85.69"/>
<polygon fill="midnightblue" stroke="midnightblue" points="335.8,-86.27 334.56,-75.75 328.97,-84.75 335.8,-86.27"/>
</g>
<!-- Node6 -->
<g id="node6" class="node">
<title>Node6</title>
<g id="a_node6"><a xlink:title=" ">
<polygon fill="white" stroke="#bfbfbf" points="310,-0.5 310,-19.5 363,-19.5 363,-0.5 310,-0.5"/>
<text text-anchor="middle" x="336.5" y="-7.5" font-family="FreeSans" font-size="10.00">avr/io.h</text>
</a>
</g>
</g>
<!-- Node5&#45;&gt;Node6 -->
<g id="edge5" class="edge">
<title>Node5&#45;&gt;Node6</title>
<path fill="none" stroke="midnightblue" d="M336.5,-56.08C336.5,-49.01 336.5,-38.86 336.5,-29.99"/>
<polygon fill="midnightblue" stroke="midnightblue" points="340,-29.75 336.5,-19.75 333,-29.75 340,-29.75"/>
</g>
<!-- Node7&#45;&gt;Node3 -->
<g id="edge9" class="edge">
<title>Node7&#45;&gt;Node3</title>
<path fill="none" stroke="midnightblue" d="M126.68,-112.32C113.27,-103.9 92.68,-90.97 76.91,-81.07"/>
<polygon fill="midnightblue" stroke="midnightblue" points="78.61,-78.01 68.28,-75.65 74.89,-83.94 78.61,-78.01"/>
</g>
<!-- Node8 -->
<g id="node8" class="node">
<title>Node8</title>
<g id="a_node8"><a xlink:title=" ">
<polygon fill="white" stroke="#bfbfbf" points="201,-56.5 201,-75.5 254,-75.5 254,-56.5 201,-56.5"/>
<text text-anchor="middle" x="227.5" y="-63.5" font-family="FreeSans" font-size="10.00">stdint.h</text>
</a>
</g>
</g>
<!-- Node7&#45;&gt;Node8 -->
<g id="edge7" class="edge">
<title>Node7&#45;&gt;Node8</title>
<path fill="none" stroke="midnightblue" d="M154.48,-112.32C168.05,-103.9 188.88,-90.97 204.82,-81.07"/>
<polygon fill="midnightblue" stroke="midnightblue" points="206.91,-83.9 213.56,-75.65 203.21,-77.95 206.91,-83.9"/>
</g>
<!-- Node9 -->
<g id="node9" class="node">
<title>Node9</title>
<g id="a_node9"><a xlink:title=" ">
<polygon fill="white" stroke="#bfbfbf" points="120.5,-56.5 120.5,-75.5 182.5,-75.5 182.5,-56.5 120.5,-56.5"/>
<text text-anchor="middle" x="151.5" y="-63.5" font-family="FreeSans" font-size="10.00">stdbool.h</text>
</a>
</g>
</g>
<!-- Node7&#45;&gt;Node9 -->
<g id="edge8" class="edge">
<title>Node7&#45;&gt;Node9</title>
<path fill="none" stroke="midnightblue" d="M142.32,-112.08C143.77,-104.93 145.87,-94.64 147.69,-85.69"/>
<polygon fill="midnightblue" stroke="midnightblue" points="151.15,-86.25 149.72,-75.75 144.29,-84.85 151.15,-86.25"/>
</g>
<!-- Node10&#45;&gt;Node3 -->
<g id="edge13" class="edge">
<title>Node10&#45;&gt;Node3</title>
<path fill="none" stroke="midnightblue" d="M170.48,-168.46C153.72,-160.42 129.15,-147.35 110.5,-132 93.33,-117.87 77.14,-98.11 66.63,-84.1"/>
<polygon fill="midnightblue" stroke="midnightblue" points="69.31,-81.84 60.59,-75.83 63.66,-85.97 69.31,-81.84"/>
</g>
<!-- Node10&#45;&gt;Node4 -->
<g id="edge14" class="edge">
<title>Node10&#45;&gt;Node4</title>
<path fill="none" stroke="midnightblue" d="M209.71,-168.92C231.89,-160.05 267.75,-145.7 293.49,-135.4"/>
<polygon fill="midnightblue" stroke="midnightblue" points="294.82,-138.64 302.81,-131.68 292.22,-132.14 294.82,-138.64"/>
</g>
<!-- Node10&#45;&gt;Node7 -->
<g id="edge15" class="edge">
<title>Node10&#45;&gt;Node7</title>
<path fill="none" stroke="midnightblue" d="M181.41,-168.08C174.34,-160.3 163.91,-148.8 155.35,-139.37"/>
<polygon fill="midnightblue" stroke="midnightblue" points="157.75,-136.8 148.44,-131.75 152.57,-141.51 157.75,-136.8"/>
</g>
<!-- Node10&#45;&gt;Node8 -->
<g id="edge12" class="edge">
<title>Node10&#45;&gt;Node8</title>
<path fill="none" stroke="midnightblue" d="M192.48,-168.37C198.64,-150.54 212.89,-109.3 221.19,-85.27"/>
<polygon fill="midnightblue" stroke="midnightblue" points="224.57,-86.19 224.53,-75.59 217.96,-83.9 224.57,-86.19"/>
</g>
<!-- Node10&#45;&gt;Node9 -->
<g id="edge11" class="edge">
<title>Node10&#45;&gt;Node9</title>
<path fill="none" stroke="midnightblue" d="M187.01,-168.09C183.43,-155.5 176.5,-131.82 169.5,-112 166.31,-102.96 162.39,-93.06 159.03,-84.85"/>
<polygon fill="midnightblue" stroke="midnightblue" points="162.23,-83.44 155.16,-75.55 155.77,-86.12 162.23,-83.44"/>
</g>
<!-- Node11&#45;&gt;Node8 -->
<g id="edge17" class="edge">
<title>Node11&#45;&gt;Node8</title>
<path fill="none" stroke="midnightblue" d="M258.79,-168.17C254.95,-155.66 247.71,-132.08 241.5,-112 238.78,-103.2 235.74,-93.43 233.19,-85.25"/>
<polygon fill="midnightblue" stroke="midnightblue" points="236.51,-84.13 230.19,-75.62 229.83,-86.21 236.51,-84.13"/>
</g>
<!-- Node13 -->
<g id="node13" class="node">
<title>Node13</title>
<g id="a_node13"><a xlink:href="os__mem__drivers_8h.html" target="_top" xlink:title="Drivers for OS memory management.">
<polygon fill="white" stroke="black" points="456,-112.5 456,-131.5 563,-131.5 563,-112.5 456,-112.5"/>
<text text-anchor="middle" x="509.5" y="-119.5" font-family="FreeSans" font-size="10.00">os_mem_drivers.h</text>
</a>
</g>
</g>
<!-- Node12&#45;&gt;Node13 -->
<g id="edge19" class="edge">
<title>Node12&#45;&gt;Node13</title>
<path fill="none" stroke="midnightblue" d="M432.28,-168.32C446.77,-159.82 469.07,-146.73 485.99,-136.8"/>
<polygon fill="midnightblue" stroke="midnightblue" points="487.9,-139.74 494.76,-131.65 484.36,-133.7 487.9,-139.74"/>
</g>
<!-- Node15 -->
<g id="node15" class="node">
<title>Node15</title>
<g id="a_node15"><a xlink:title=" ">
<polygon fill="white" stroke="#bfbfbf" points="381.5,-112.5 381.5,-131.5 437.5,-131.5 437.5,-112.5 381.5,-112.5"/>
<text text-anchor="middle" x="409.5" y="-119.5" font-family="FreeSans" font-size="10.00">stddef.h</text>
</a>
</g>
</g>
<!-- Node12&#45;&gt;Node15 -->
<g id="edge21" class="edge">
<title>Node12&#45;&gt;Node15</title>
<path fill="none" stroke="midnightblue" d="M416.18,-168.08C415.12,-160.93 413.59,-150.64 412.27,-141.69"/>
<polygon fill="midnightblue" stroke="midnightblue" points="415.72,-141.13 410.8,-131.75 408.8,-142.16 415.72,-141.13"/>
</g>
<!-- Node14 -->
<g id="node14" class="node">
<title>Node14</title>
<g id="a_node14"><a xlink:title=" ">
<polygon fill="white" stroke="#bfbfbf" points="477,-56.5 477,-75.5 542,-75.5 542,-56.5 477,-56.5"/>
<text text-anchor="middle" x="509.5" y="-63.5" font-family="FreeSans" font-size="10.00">inttypes.h</text>
</a>
</g>
</g>
<!-- Node13&#45;&gt;Node14 -->
<g id="edge20" class="edge">
<title>Node13&#45;&gt;Node14</title>
<path fill="none" stroke="midnightblue" d="M509.5,-112.08C509.5,-105.01 509.5,-94.86 509.5,-85.99"/>
<polygon fill="midnightblue" stroke="midnightblue" points="513,-85.75 509.5,-75.75 506,-85.75 513,-85.75"/>
</g>
</g>
</svg>
