<?xml version="1.0" encoding="UTF-8" standalone="no"?>
<!DOCTYPE svg PUBLIC "-//W3C//DTD SVG 1.1//EN"
 "http://www.w3.org/Graphics/SVG/1.1/DTD/svg11.dtd">
<!-- Generated by graphviz version 2.43.0 (0)
 -->
<!-- Title: os_memheap_drivers.c Pages: 1 -->
<svg width="404pt" height="252pt"
 viewBox="0.00 0.00 404.00 252.00" xmlns="http://www.w3.org/2000/svg" xmlns:xlink="http://www.w3.org/1999/xlink">
<g id="graph0" class="graph" transform="scale(1 1) rotate(0) translate(4 248)">
<title>os_memheap_drivers.c</title>
<polygon fill="white" stroke="transparent" points="-4,4 -4,-248 400,-248 400,4 -4,4"/>
<!-- Node1 -->
<g id="node1" class="node">
<title>Node1</title>
<g id="a_node1"><a xlink:title=" ">
<polygon fill="#bfbfbf" stroke="black" points="128.5,-224.5 128.5,-243.5 258.5,-243.5 258.5,-224.5 128.5,-224.5"/>
<text text-anchor="middle" x="193.5" y="-231.5" font-family="FreeSans" font-size="10.00">os_memheap_drivers.c</text>
</a>
</g>
</g>
<!-- Node2 -->
<g id="node2" class="node">
<title>Node2</title>
<g id="a_node2"><a xlink:href="os__memheap__drivers_8h.html" target="_top" xlink:title="Drivers for OS heap management.">
<polygon fill="white" stroke="black" points="0,-112.5 0,-131.5 131,-131.5 131,-112.5 0,-112.5"/>
<text text-anchor="middle" x="65.5" y="-119.5" font-family="FreeSans" font-size="10.00">os_memheap_drivers.h</text>
</a>
</g>
</g>
<!-- Node1&#45;&gt;Node2 -->
<g id="edge1" class="edge">
<title>Node1&#45;&gt;Node2</title>
<path fill="none" stroke="midnightblue" d="M128.3,-227.74C101.88,-222.01 73.81,-210.58 57.5,-188 47.74,-174.49 51.78,-155.13 57.02,-141.06"/>
<polygon fill="midnightblue" stroke="midnightblue" points="60.39,-142.08 61.05,-131.51 53.94,-139.36 60.39,-142.08"/>
</g>
<!-- Node6 -->
<g id="node6" class="node">
<title>Node6</title>
<g id="a_node6"><a xlink:href="defines_8h.html" target="_top" xlink:title="Simple definitions and assembler&#45;macros, mostly 8/16&#45;Bit values.">
<polygon fill="white" stroke="black" points="222,-168.5 222,-187.5 283,-187.5 283,-168.5 222,-168.5"/>
<text text-anchor="middle" x="252.5" y="-175.5" font-family="FreeSans" font-size="10.00">defines.h</text>
</a>
</g>
</g>
<!-- Node1&#45;&gt;Node6 -->
<g id="edge5" class="edge">
<title>Node1&#45;&gt;Node6</title>
<path fill="none" stroke="midnightblue" d="M202.98,-224.32C211.7,-216.34 224.84,-204.31 235.4,-194.65"/>
<polygon fill="midnightblue" stroke="midnightblue" points="237.83,-197.17 242.85,-187.83 233.11,-192 237.83,-197.17"/>
</g>
<!-- Node9 -->
<g id="node9" class="node">
<title>Node9</title>
<g id="a_node9"><a xlink:href="os__memory__strategies_8h.html" target="_top" xlink:title="Memory allocation library for the OS.">
<polygon fill="white" stroke="black" points="67,-168.5 67,-187.5 204,-187.5 204,-168.5 67,-168.5"/>
<text text-anchor="middle" x="135.5" y="-175.5" font-family="FreeSans" font-size="10.00">os_memory_strategies.h</text>
</a>
</g>
</g>
<!-- Node1&#45;&gt;Node9 -->
<g id="edge8" class="edge">
<title>Node1&#45;&gt;Node9</title>
<path fill="none" stroke="midnightblue" d="M184.18,-224.32C175.61,-216.34 162.69,-204.31 152.31,-194.65"/>
<polygon fill="midnightblue" stroke="midnightblue" points="154.69,-192.09 144.99,-187.83 149.92,-197.21 154.69,-192.09"/>
</g>
<!-- Node10 -->
<g id="node10" class="node">
<title>Node10</title>
<g id="a_node10"><a xlink:title=" ">
<polygon fill="white" stroke="#bfbfbf" points="301,-168.5 301,-187.5 396,-187.5 396,-168.5 301,-168.5"/>
<text text-anchor="middle" x="348.5" y="-175.5" font-family="FreeSans" font-size="10.00">avr/pgmspace.h</text>
</a>
</g>
</g>
<!-- Node1&#45;&gt;Node10 -->
<g id="edge10" class="edge">
<title>Node1&#45;&gt;Node10</title>
<path fill="none" stroke="midnightblue" d="M218.06,-224.44C244.02,-215.4 285.17,-201.06 314.3,-190.92"/>
<polygon fill="midnightblue" stroke="midnightblue" points="315.76,-194.11 324.05,-187.52 313.46,-187.5 315.76,-194.11"/>
</g>
<!-- Node3 -->
<g id="node3" class="node">
<title>Node3</title>
<g id="a_node3"><a xlink:href="os__mem__drivers_8h.html" target="_top" xlink:title="Drivers for OS memory management.">
<polygon fill="white" stroke="black" points="0,-56.5 0,-75.5 107,-75.5 107,-56.5 0,-56.5"/>
<text text-anchor="middle" x="53.5" y="-63.5" font-family="FreeSans" font-size="10.00">os_mem_drivers.h</text>
</a>
</g>
</g>
<!-- Node2&#45;&gt;Node3 -->
<g id="edge2" class="edge">
<title>Node2&#45;&gt;Node3</title>
<path fill="none" stroke="midnightblue" d="M63.52,-112.08C61.93,-104.93 59.64,-94.64 57.65,-85.69"/>
<polygon fill="midnightblue" stroke="midnightblue" points="61.03,-84.75 55.44,-75.75 54.2,-86.27 61.03,-84.75"/>
</g>
<!-- Node5 -->
<g id="node5" class="node">
<title>Node5</title>
<g id="a_node5"><a xlink:title=" ">
<polygon fill="white" stroke="#bfbfbf" points="125.5,-56.5 125.5,-75.5 181.5,-75.5 181.5,-56.5 125.5,-56.5"/>
<text text-anchor="middle" x="153.5" y="-63.5" font-family="FreeSans" font-size="10.00">stddef.h</text>
</a>
</g>
</g>
<!-- Node2&#45;&gt;Node5 -->
<g id="edge4" class="edge">
<title>Node2&#45;&gt;Node5</title>
<path fill="none" stroke="midnightblue" d="M79.64,-112.32C93.37,-103.9 114.44,-90.97 130.56,-81.07"/>
<polygon fill="midnightblue" stroke="midnightblue" points="132.7,-83.87 139.4,-75.65 129.04,-77.9 132.7,-83.87"/>
</g>
<!-- Node4 -->
<g id="node4" class="node">
<title>Node4</title>
<g id="a_node4"><a xlink:title=" ">
<polygon fill="white" stroke="#bfbfbf" points="21,-0.5 21,-19.5 86,-19.5 86,-0.5 21,-0.5"/>
<text text-anchor="middle" x="53.5" y="-7.5" font-family="FreeSans" font-size="10.00">inttypes.h</text>
</a>
</g>
</g>
<!-- Node3&#45;&gt;Node4 -->
<g id="edge3" class="edge">
<title>Node3&#45;&gt;Node4</title>
<path fill="none" stroke="midnightblue" d="M53.5,-56.08C53.5,-49.01 53.5,-38.86 53.5,-29.99"/>
<polygon fill="midnightblue" stroke="midnightblue" points="57,-29.75 53.5,-19.75 50,-29.75 57,-29.75"/>
</g>
<!-- Node7 -->
<g id="node7" class="node">
<title>Node7</title>
<g id="a_node7"><a xlink:href="atmega644constants_8h.html" target="_top" xlink:title="Constants for ATMega644 and EVA board. Defines several useful constants for the ATMega644.">
<polygon fill="white" stroke="black" points="188.5,-112.5 188.5,-131.5 316.5,-131.5 316.5,-112.5 188.5,-112.5"/>
<text text-anchor="middle" x="252.5" y="-119.5" font-family="FreeSans" font-size="10.00">atmega644constants.h</text>
</a>
</g>
</g>
<!-- Node6&#45;&gt;Node7 -->
<g id="edge6" class="edge">
<title>Node6&#45;&gt;Node7</title>
<path fill="none" stroke="midnightblue" d="M252.5,-168.08C252.5,-161.01 252.5,-150.86 252.5,-141.99"/>
<polygon fill="midnightblue" stroke="midnightblue" points="256,-141.75 252.5,-131.75 249,-141.75 256,-141.75"/>
</g>
<!-- Node8 -->
<g id="node8" class="node">
<title>Node8</title>
<g id="a_node8"><a xlink:title=" ">
<polygon fill="white" stroke="#bfbfbf" points="226,-56.5 226,-75.5 279,-75.5 279,-56.5 226,-56.5"/>
<text text-anchor="middle" x="252.5" y="-63.5" font-family="FreeSans" font-size="10.00">avr/io.h</text>
</a>
</g>
</g>
<!-- Node7&#45;&gt;Node8 -->
<g id="edge7" class="edge">
<title>Node7&#45;&gt;Node8</title>
<path fill="none" stroke="midnightblue" d="M252.5,-112.08C252.5,-105.01 252.5,-94.86 252.5,-85.99"/>
<polygon fill="midnightblue" stroke="midnightblue" points="256,-85.75 252.5,-75.75 249,-85.75 256,-85.75"/>
</g>
<!-- Node9&#45;&gt;Node2 -->
<g id="edge9" class="edge">
<title>Node9&#45;&gt;Node2</title>
<path fill="none" stroke="midnightblue" d="M124.25,-168.32C113.7,-160.18 97.7,-147.84 85.06,-138.09"/>
<polygon fill="midnightblue" stroke="midnightblue" points="87.01,-135.17 76.95,-131.83 82.73,-140.71 87.01,-135.17"/>
</g>
</g>
</svg>
