<?xml version="1.0" encoding="UTF-8" standalone="no"?>
<!DOCTYPE svg PUBLIC "-//W3C//DTD SVG 1.1//EN"
 "http://www.w3.org/Graphics/SVG/1.1/DTD/svg11.dtd">
<!-- Generated by graphviz version 2.43.0 (0)
 -->
<!-- Title: priorityConstText Pages: 1 -->
<svg width="591pt" height="133pt"
 viewBox="0.00 0.00 591.00 133.00" xmlns="http://www.w3.org/2000/svg" xmlns:xlink="http://www.w3.org/1999/xlink">
<g id="graph0" class="graph" transform="scale(1 1) rotate(0) translate(4 129)">
<title>priorityConstText</title>
<polygon fill="white" stroke="transparent" points="-4,4 -4,-129 587,-129 587,4 -4,4"/>
<!-- Node1 -->
<g id="node1" class="node">
<title>Node1</title>
<g id="a_node1"><a xlink:title=" ">
<polygon fill="#bfbfbf" stroke="black" points="0,-57.5 0,-76.5 100,-76.5 100,-57.5 0,-57.5"/>
<text text-anchor="middle" x="50" y="-64.5" font-family="FreeSans" font-size="10.00">priorityConstText</text>
</a>
</g>
</g>
<!-- Node2 -->
<g id="node2" class="node">
<title>Node2</title>
<g id="a_node2"><a xlink:href="lcd_8h.html#ad9ccaf30ea478fef726c058ff4ee7dd1" target="_top" xlink:title="Next output will be written to line 2.">
<polygon fill="white" stroke="black" points="402,-105.5 402,-124.5 462,-124.5 462,-105.5 402,-105.5"/>
<text text-anchor="middle" x="432" y="-112.5" font-family="FreeSans" font-size="10.00">lcd_line2</text>
</a>
</g>
</g>
<!-- Node1&#45;&gt;Node2 -->
<g id="edge1" class="edge">
<title>Node1&#45;&gt;Node2</title>
<path fill="none" stroke="midnightblue" d="M100.38,-75.55C112.04,-77.45 124.45,-79.38 136,-81 227.32,-93.78 335.05,-105.3 391.67,-111.08"/>
<polygon fill="midnightblue" stroke="midnightblue" points="391.33,-114.56 401.63,-112.09 392.04,-107.6 391.33,-114.56"/>
</g>
<!-- Node4 -->
<g id="node4" class="node">
<title>Node4</title>
<g id="a_node4"><a xlink:href="lcd_8h.html#a93cd5600fa3b27381a4cf57d21f27ebf" target="_top" xlink:title="Write one character.">
<polygon fill="white" stroke="black" points="283,-57.5 283,-76.5 366,-76.5 366,-57.5 283,-57.5"/>
<text text-anchor="middle" x="324.5" y="-64.5" font-family="FreeSans" font-size="10.00">lcd_writeChar</text>
</a>
</g>
</g>
<!-- Node1&#45;&gt;Node4 -->
<g id="edge3" class="edge">
<title>Node1&#45;&gt;Node4</title>
<path fill="none" stroke="midnightblue" d="M100.03,-67C148.81,-67 223.33,-67 272.72,-67"/>
<polygon fill="midnightblue" stroke="midnightblue" points="272.86,-70.5 282.86,-67 272.86,-63.5 272.86,-70.5"/>
</g>
<!-- Node7 -->
<g id="node7" class="node">
<title>Node7</title>
<g id="a_node7"><a xlink:href="lcd_8h.html#a1415b995427583a289b6089b5e4785e5" target="_top" xlink:title="Write a byte as a decimal number without prefixes.">
<polygon fill="white" stroke="black" points="151.5,-38.5 151.5,-57.5 231.5,-57.5 231.5,-38.5 151.5,-38.5"/>
<text text-anchor="middle" x="191.5" y="-45.5" font-family="FreeSans" font-size="10.00">lcd_writeDec</text>
</a>
</g>
</g>
<!-- Node1&#45;&gt;Node7 -->
<g id="edge9" class="edge">
<title>Node1&#45;&gt;Node7</title>
<path fill="none" stroke="midnightblue" d="M100.18,-60.3C113.56,-58.48 128.04,-56.51 141.42,-54.69"/>
<polygon fill="midnightblue" stroke="midnightblue" points="141.95,-58.14 151.39,-53.33 141.01,-51.21 141.95,-58.14"/>
</g>
<!-- Node8 -->
<g id="node8" class="node">
<title>Node8</title>
<g id="a_node8"><a xlink:href="lcd_8h.html#a12c915502d2f5eb5bca74e503ad88669" target="_top" xlink:title="Write char PROGMEM* string.">
<polygon fill="white" stroke="black" points="136,-0.5 136,-19.5 247,-19.5 247,-0.5 136,-0.5"/>
<text text-anchor="middle" x="191.5" y="-7.5" font-family="FreeSans" font-size="10.00">lcd_writeProgString</text>
</a>
</g>
</g>
<!-- Node1&#45;&gt;Node8 -->
<g id="edge11" class="edge">
<title>Node1&#45;&gt;Node8</title>
<path fill="none" stroke="midnightblue" d="M71.06,-57.45C88.16,-49.46 113.46,-37.95 136,-29 141.18,-26.94 146.68,-24.88 152.12,-22.92"/>
<polygon fill="midnightblue" stroke="midnightblue" points="153.5,-26.14 161.76,-19.51 151.17,-19.54 153.5,-26.14"/>
</g>
<!-- Node3 -->
<g id="node3" class="node">
<title>Node3</title>
<g id="a_node3"><a xlink:href="lcd_8h.html#acb116d89c358367b8fd1164120d320e3" target="_top" xlink:title="Send command to LCD.">
<polygon fill="white" stroke="black" points="498,-67.5 498,-86.5 583,-86.5 583,-67.5 498,-67.5"/>
<text text-anchor="middle" x="540.5" y="-74.5" font-family="FreeSans" font-size="10.00">lcd_command</text>
</a>
</g>
</g>
<!-- Node2&#45;&gt;Node3 -->
<g id="edge2" class="edge">
<title>Node2&#45;&gt;Node3</title>
<path fill="none" stroke="midnightblue" d="M459.87,-105.41C472.99,-100.73 488.97,-95.03 503.15,-89.97"/>
<polygon fill="midnightblue" stroke="midnightblue" points="504.39,-93.24 512.63,-86.59 502.04,-86.65 504.39,-93.24"/>
</g>
<!-- Node4&#45;&gt;Node2 -->
<g id="edge8" class="edge">
<title>Node4&#45;&gt;Node2</title>
<path fill="none" stroke="midnightblue" d="M346.6,-76.6C362.12,-83.66 383.45,-93.37 400.78,-101.25"/>
<polygon fill="midnightblue" stroke="midnightblue" points="399.39,-104.46 409.94,-105.42 402.29,-98.09 399.39,-104.46"/>
</g>
<!-- Node5 -->
<g id="node5" class="node">
<title>Node5</title>
<g id="a_node5"><a xlink:href="lcd_8h.html#ad235a86241458b1e7b8771688bfdaf9a" target="_top" xlink:title="Clear all data from display.">
<polygon fill="white" stroke="black" points="402,-67.5 402,-86.5 462,-86.5 462,-67.5 402,-67.5"/>
<text text-anchor="middle" x="432" y="-74.5" font-family="FreeSans" font-size="10.00">lcd_clear</text>
</a>
</g>
</g>
<!-- Node4&#45;&gt;Node5 -->
<g id="edge4" class="edge">
<title>Node4&#45;&gt;Node5</title>
<path fill="none" stroke="midnightblue" d="M366.29,-70.87C374.61,-71.65 383.34,-72.48 391.61,-73.27"/>
<polygon fill="midnightblue" stroke="midnightblue" points="391.48,-76.77 401.76,-74.23 392.14,-69.8 391.48,-76.77"/>
</g>
<!-- Node6 -->
<g id="node6" class="node">
<title>Node6</title>
<g id="a_node6"><a xlink:href="lcd_8h.html#a016fe1471f1d20196b5ca3d2634c927a" target="_top" xlink:title="Next output will be written to line 1.">
<polygon fill="white" stroke="black" points="402,-29.5 402,-48.5 462,-48.5 462,-29.5 402,-29.5"/>
<text text-anchor="middle" x="432" y="-36.5" font-family="FreeSans" font-size="10.00">lcd_line1</text>
</a>
</g>
</g>
<!-- Node4&#45;&gt;Node6 -->
<g id="edge6" class="edge">
<title>Node4&#45;&gt;Node6</title>
<path fill="none" stroke="midnightblue" d="M361.51,-57.44C371.36,-54.83 382.08,-51.98 392.08,-49.33"/>
<polygon fill="midnightblue" stroke="midnightblue" points="393.02,-52.7 401.79,-46.75 391.23,-45.93 393.02,-52.7"/>
</g>
<!-- Node5&#45;&gt;Node3 -->
<g id="edge5" class="edge">
<title>Node5&#45;&gt;Node3</title>
<path fill="none" stroke="midnightblue" d="M462.1,-77C469.98,-77 478.76,-77 487.49,-77"/>
<polygon fill="midnightblue" stroke="midnightblue" points="487.66,-80.5 497.66,-77 487.66,-73.5 487.66,-80.5"/>
</g>
<!-- Node6&#45;&gt;Node3 -->
<g id="edge7" class="edge">
<title>Node6&#45;&gt;Node3</title>
<path fill="none" stroke="midnightblue" d="M459.87,-48.59C472.99,-53.27 488.97,-58.97 503.15,-64.03"/>
<polygon fill="midnightblue" stroke="midnightblue" points="502.04,-67.35 512.63,-67.41 504.39,-60.76 502.04,-67.35"/>
</g>
<!-- Node7&#45;&gt;Node4 -->
<g id="edge10" class="edge">
<title>Node7&#45;&gt;Node4</title>
<path fill="none" stroke="midnightblue" d="M231.8,-53.7C244.66,-55.56 259.12,-57.66 272.69,-59.63"/>
<polygon fill="midnightblue" stroke="midnightblue" points="272.46,-63.13 282.86,-61.11 273.47,-56.21 272.46,-63.13"/>
</g>
<!-- Node8&#45;&gt;Node4 -->
<g id="edge12" class="edge">
<title>Node8&#45;&gt;Node4</title>
<path fill="none" stroke="midnightblue" d="M222.17,-19.59C230.3,-22.42 239.06,-25.66 247,-29 263.93,-36.12 282.39,-45.25 296.93,-52.77"/>
<polygon fill="midnightblue" stroke="midnightblue" points="295.38,-55.91 305.87,-57.45 298.63,-49.71 295.38,-55.91"/>
</g>
</g>
</svg>
