<?xml version="1.0" encoding="UTF-8" standalone="no"?>
<!DOCTYPE svg PUBLIC "-//W3C//DTD SVG 1.1//EN"
 "http://www.w3.org/Graphics/SVG/1.1/DTD/svg11.dtd">
<!-- Generated by graphviz version 2.43.0 (0)
 -->
<!-- Title: os_user_privileges.h Pages: 1 -->
<svg width="480pt" height="308pt"
 viewBox="0.00 0.00 479.50 308.00" xmlns="http://www.w3.org/2000/svg" xmlns:xlink="http://www.w3.org/1999/xlink">
<g id="graph0" class="graph" transform="scale(1 1) rotate(0) translate(4 304)">
<title>os_user_privileges.h</title>
<polygon fill="white" stroke="transparent" points="-4,4 -4,-304 475.5,-304 475.5,4 -4,4"/>
<!-- Node1 -->
<g id="node1" class="node">
<title>Node1</title>
<g id="a_node1"><a xlink:title="User privileges specification used in part by the Taskman.">
<polygon fill="#bfbfbf" stroke="black" points="120,-280.5 120,-299.5 236,-299.5 236,-280.5 120,-280.5"/>
<text text-anchor="middle" x="178" y="-287.5" font-family="FreeSans" font-size="10.00">os_user_privileges.h</text>
</a>
</g>
</g>
<!-- Node2 -->
<g id="node2" class="node">
<title>Node2</title>
<g id="a_node2"><a xlink:title=" ">
<polygon fill="white" stroke="#bfbfbf" points="149.5,-56.5 149.5,-75.5 202.5,-75.5 202.5,-56.5 149.5,-56.5"/>
<text text-anchor="middle" x="176" y="-63.5" font-family="FreeSans" font-size="10.00">stdint.h</text>
</a>
</g>
</g>
<!-- Node1&#45;&gt;Node2 -->
<g id="edge1" class="edge">
<title>Node1&#45;&gt;Node2</title>
<path fill="none" stroke="midnightblue" d="M173.1,-280.33C159.06,-254.3 120.97,-174.73 142,-112 145.6,-101.25 152.9,-91.02 159.82,-83.04"/>
<polygon fill="midnightblue" stroke="midnightblue" points="162.48,-85.32 166.71,-75.61 157.35,-80.56 162.48,-85.32"/>
</g>
<!-- Node3 -->
<g id="node3" class="node">
<title>Node3</title>
<g id="a_node3"><a xlink:title=" ">
<polygon fill="white" stroke="#bfbfbf" points="306.5,-224.5 306.5,-243.5 401.5,-243.5 401.5,-224.5 306.5,-224.5"/>
<text text-anchor="middle" x="354" y="-231.5" font-family="FreeSans" font-size="10.00">avr/pgmspace.h</text>
</a>
</g>
</g>
<!-- Node1&#45;&gt;Node3 -->
<g id="edge2" class="edge">
<title>Node1&#45;&gt;Node3</title>
<path fill="none" stroke="midnightblue" d="M205.89,-280.44C235.75,-271.28 283.31,-256.69 316.46,-246.52"/>
<polygon fill="midnightblue" stroke="midnightblue" points="317.71,-249.8 326.24,-243.52 315.66,-243.1 317.71,-249.8"/>
</g>
<!-- Node4 -->
<g id="node4" class="node">
<title>Node4</title>
<g id="a_node4"><a xlink:href="os__scheduler_8h.html" target="_top" xlink:title="Scheduling module for the OS.">
<polygon fill="white" stroke="black" points="151.5,-168.5 151.5,-187.5 240.5,-187.5 240.5,-168.5 151.5,-168.5"/>
<text text-anchor="middle" x="196" y="-175.5" font-family="FreeSans" font-size="10.00">os_scheduler.h</text>
</a>
</g>
</g>
<!-- Node1&#45;&gt;Node4 -->
<g id="edge3" class="edge">
<title>Node1&#45;&gt;Node4</title>
<path fill="none" stroke="midnightblue" d="M179.41,-280.37C182.32,-262.62 189.02,-221.67 192.96,-197.6"/>
<polygon fill="midnightblue" stroke="midnightblue" points="196.43,-198.03 194.59,-187.59 189.53,-196.89 196.43,-198.03"/>
</g>
<!-- Node6 -->
<g id="node6" class="node">
<title>Node6</title>
<g id="a_node6"><a xlink:href="defines_8h.html" target="_top" xlink:title="Simple definitions and assembler&#45;macros, mostly 8/16&#45;Bit values.">
<polygon fill="white" stroke="black" points="33.5,-112.5 33.5,-131.5 94.5,-131.5 94.5,-112.5 33.5,-112.5"/>
<text text-anchor="middle" x="64" y="-119.5" font-family="FreeSans" font-size="10.00">defines.h</text>
</a>
</g>
</g>
<!-- Node1&#45;&gt;Node6 -->
<g id="edge11" class="edge">
<title>Node1&#45;&gt;Node6</title>
<path fill="none" stroke="midnightblue" d="M158.27,-280.4C142.93,-272.82 122.13,-260.42 109,-244 84.24,-213.03 72.21,-167.08 67.14,-141.65"/>
<polygon fill="midnightblue" stroke="midnightblue" points="70.53,-140.73 65.28,-131.53 63.65,-142 70.53,-140.73"/>
</g>
<!-- Node10 -->
<g id="node10" class="node">
<title>Node10</title>
<g id="a_node10"><a xlink:href="os__memory_8h.html" target="_top" xlink:title="Library for OS memory management.">
<polygon fill="white" stroke="black" points="206,-224.5 206,-243.5 288,-243.5 288,-224.5 206,-224.5"/>
<text text-anchor="middle" x="247" y="-231.5" font-family="FreeSans" font-size="10.00">os_memory.h</text>
</a>
</g>
</g>
<!-- Node1&#45;&gt;Node10 -->
<g id="edge12" class="edge">
<title>Node1&#45;&gt;Node10</title>
<path fill="none" stroke="midnightblue" d="M189.09,-280.32C199.49,-272.18 215.26,-259.84 227.72,-250.09"/>
<polygon fill="midnightblue" stroke="midnightblue" points="229.99,-252.75 235.71,-243.83 225.68,-247.24 229.99,-252.75"/>
</g>
<!-- Node5 -->
<g id="node5" class="node">
<title>Node5</title>
<g id="a_node5"><a xlink:title=" ">
<polygon fill="white" stroke="#bfbfbf" points="223,-56.5 223,-75.5 285,-75.5 285,-56.5 223,-56.5"/>
<text text-anchor="middle" x="254" y="-63.5" font-family="FreeSans" font-size="10.00">stdbool.h</text>
</a>
</g>
</g>
<!-- Node4&#45;&gt;Node5 -->
<g id="edge4" class="edge">
<title>Node4&#45;&gt;Node5</title>
<path fill="none" stroke="midnightblue" d="M207.6,-168.32C217.73,-160.1 232.03,-146.82 240,-132 247.77,-117.54 251.23,-99.09 252.77,-85.55"/>
<polygon fill="midnightblue" stroke="midnightblue" points="256.26,-85.79 253.66,-75.51 249.29,-85.16 256.26,-85.79"/>
</g>
<!-- Node4&#45;&gt;Node6 -->
<g id="edge5" class="edge">
<title>Node4&#45;&gt;Node6</title>
<path fill="none" stroke="midnightblue" d="M175.08,-168.44C153.26,-159.52 118.85,-145.44 94.11,-135.32"/>
<polygon fill="midnightblue" stroke="midnightblue" points="95.4,-132.06 84.82,-131.52 92.75,-138.54 95.4,-132.06"/>
</g>
<!-- Node9 -->
<g id="node9" class="node">
<title>Node9</title>
<g id="a_node9"><a xlink:href="os__process_8h.html" target="_top" xlink:title="Struct specifying a process.">
<polygon fill="white" stroke="black" points="151,-112.5 151,-131.5 231,-131.5 231,-112.5 151,-112.5"/>
<text text-anchor="middle" x="191" y="-119.5" font-family="FreeSans" font-size="10.00">os_process.h</text>
</a>
</g>
</g>
<!-- Node4&#45;&gt;Node9 -->
<g id="edge8" class="edge">
<title>Node4&#45;&gt;Node9</title>
<path fill="none" stroke="midnightblue" d="M195.17,-168.08C194.52,-161.01 193.58,-150.86 192.76,-141.99"/>
<polygon fill="midnightblue" stroke="midnightblue" points="196.22,-141.39 191.81,-131.75 189.25,-142.03 196.22,-141.39"/>
</g>
<!-- Node7 -->
<g id="node7" class="node">
<title>Node7</title>
<g id="a_node7"><a xlink:href="atmega644constants_8h.html" target="_top" xlink:title="Constants for ATMega644 and EVA board. Defines several useful constants for the ATMega644.">
<polygon fill="white" stroke="black" points="0,-56.5 0,-75.5 128,-75.5 128,-56.5 0,-56.5"/>
<text text-anchor="middle" x="64" y="-63.5" font-family="FreeSans" font-size="10.00">atmega644constants.h</text>
</a>
</g>
</g>
<!-- Node6&#45;&gt;Node7 -->
<g id="edge6" class="edge">
<title>Node6&#45;&gt;Node7</title>
<path fill="none" stroke="midnightblue" d="M64,-112.08C64,-105.01 64,-94.86 64,-85.99"/>
<polygon fill="midnightblue" stroke="midnightblue" points="67.5,-85.75 64,-75.75 60.5,-85.75 67.5,-85.75"/>
</g>
<!-- Node8 -->
<g id="node8" class="node">
<title>Node8</title>
<g id="a_node8"><a xlink:title=" ">
<polygon fill="white" stroke="#bfbfbf" points="37.5,-0.5 37.5,-19.5 90.5,-19.5 90.5,-0.5 37.5,-0.5"/>
<text text-anchor="middle" x="64" y="-7.5" font-family="FreeSans" font-size="10.00">avr/io.h</text>
</a>
</g>
</g>
<!-- Node7&#45;&gt;Node8 -->
<g id="edge7" class="edge">
<title>Node7&#45;&gt;Node8</title>
<path fill="none" stroke="midnightblue" d="M64,-56.08C64,-49.01 64,-38.86 64,-29.99"/>
<polygon fill="midnightblue" stroke="midnightblue" points="67.5,-29.75 64,-19.75 60.5,-29.75 67.5,-29.75"/>
</g>
<!-- Node9&#45;&gt;Node2 -->
<g id="edge9" class="edge">
<title>Node9&#45;&gt;Node2</title>
<path fill="none" stroke="midnightblue" d="M188.52,-112.08C186.51,-104.85 183.61,-94.41 181.11,-85.4"/>
<polygon fill="midnightblue" stroke="midnightblue" points="184.48,-84.45 178.43,-75.75 177.74,-86.32 184.48,-84.45"/>
</g>
<!-- Node9&#45;&gt;Node5 -->
<g id="edge10" class="edge">
<title>Node9&#45;&gt;Node5</title>
<path fill="none" stroke="midnightblue" d="M201.12,-112.32C210.53,-104.26 224.74,-92.08 236.07,-82.37"/>
<polygon fill="midnightblue" stroke="midnightblue" points="238.38,-85 243.69,-75.83 233.82,-79.68 238.38,-85"/>
</g>
<!-- Node10&#45;&gt;Node4 -->
<g id="edge18" class="edge">
<title>Node10&#45;&gt;Node4</title>
<path fill="none" stroke="midnightblue" d="M238.58,-224.08C231.15,-216.22 220.15,-204.57 211.19,-195.08"/>
<polygon fill="midnightblue" stroke="midnightblue" points="213.68,-192.62 204.26,-187.75 208.59,-197.42 213.68,-192.62"/>
</g>
<!-- Node11 -->
<g id="node11" class="node">
<title>Node11</title>
<g id="a_node11"><a xlink:href="os__mem__drivers_8h.html" target="_top" xlink:title="Drivers for OS memory management.">
<polygon fill="white" stroke="black" points="364.5,-112.5 364.5,-131.5 471.5,-131.5 471.5,-112.5 364.5,-112.5"/>
<text text-anchor="middle" x="418" y="-119.5" font-family="FreeSans" font-size="10.00">os_mem_drivers.h</text>
</a>
</g>
</g>
<!-- Node10&#45;&gt;Node11 -->
<g id="edge13" class="edge">
<title>Node10&#45;&gt;Node11</title>
<path fill="none" stroke="midnightblue" d="M288.17,-225.42C327.62,-217.36 383.41,-203.64 399,-188 411.05,-175.91 415.54,-156.63 417.17,-142.2"/>
<polygon fill="midnightblue" stroke="midnightblue" points="420.69,-142.13 417.96,-131.9 413.71,-141.6 420.69,-142.13"/>
</g>
<!-- Node13 -->
<g id="node13" class="node">
<title>Node13</title>
<g id="a_node13"><a xlink:href="os__memheap__drivers_8h.html" target="_top" xlink:title="Drivers for OS heap management.">
<polygon fill="white" stroke="black" points="258.5,-168.5 258.5,-187.5 389.5,-187.5 389.5,-168.5 258.5,-168.5"/>
<text text-anchor="middle" x="324" y="-175.5" font-family="FreeSans" font-size="10.00">os_memheap_drivers.h</text>
</a>
</g>
</g>
<!-- Node10&#45;&gt;Node13 -->
<g id="edge15" class="edge">
<title>Node10&#45;&gt;Node13</title>
<path fill="none" stroke="midnightblue" d="M259.37,-224.32C271.16,-216.06 289.13,-203.45 303.14,-193.63"/>
<polygon fill="midnightblue" stroke="midnightblue" points="305.48,-196.26 311.66,-187.65 301.46,-190.53 305.48,-196.26"/>
</g>
<!-- Node12 -->
<g id="node12" class="node">
<title>Node12</title>
<g id="a_node12"><a xlink:title=" ">
<polygon fill="white" stroke="#bfbfbf" points="385.5,-56.5 385.5,-75.5 450.5,-75.5 450.5,-56.5 385.5,-56.5"/>
<text text-anchor="middle" x="418" y="-63.5" font-family="FreeSans" font-size="10.00">inttypes.h</text>
</a>
</g>
</g>
<!-- Node11&#45;&gt;Node12 -->
<g id="edge14" class="edge">
<title>Node11&#45;&gt;Node12</title>
<path fill="none" stroke="midnightblue" d="M418,-112.08C418,-105.01 418,-94.86 418,-85.99"/>
<polygon fill="midnightblue" stroke="midnightblue" points="421.5,-85.75 418,-75.75 414.5,-85.75 421.5,-85.75"/>
</g>
<!-- Node13&#45;&gt;Node11 -->
<g id="edge16" class="edge">
<title>Node13&#45;&gt;Node11</title>
<path fill="none" stroke="midnightblue" d="M339.1,-168.32C353.9,-159.82 376.69,-146.73 393.98,-136.8"/>
<polygon fill="midnightblue" stroke="midnightblue" points="396.01,-139.67 402.93,-131.65 392.52,-133.6 396.01,-139.67"/>
</g>
<!-- Node14 -->
<g id="node14" class="node">
<title>Node14</title>
<g id="a_node14"><a xlink:title=" ">
<polygon fill="white" stroke="#bfbfbf" points="290,-112.5 290,-131.5 346,-131.5 346,-112.5 290,-112.5"/>
<text text-anchor="middle" x="318" y="-119.5" font-family="FreeSans" font-size="10.00">stddef.h</text>
</a>
</g>
</g>
<!-- Node13&#45;&gt;Node14 -->
<g id="edge17" class="edge">
<title>Node13&#45;&gt;Node14</title>
<path fill="none" stroke="midnightblue" d="M323.01,-168.08C322.21,-160.93 321.07,-150.64 320.08,-141.69"/>
<polygon fill="midnightblue" stroke="midnightblue" points="323.56,-141.3 318.97,-131.75 316.6,-142.08 323.56,-141.3"/>
</g>
</g>
</svg>
