<?xml version="1.0" encoding="UTF-8" standalone="no"?>
<!DOCTYPE svg PUBLIC "-//W3C//DTD SVG 1.1//EN"
 "http://www.w3.org/Graphics/SVG/1.1/DTD/svg11.dtd">
<!-- Generated by graphviz version 2.43.0 (0)
 -->
<!-- Title: os_core.h Pages: 1 -->
<svg width="336pt" height="84pt"
 viewBox="0.00 0.00 335.50 84.00" xmlns="http://www.w3.org/2000/svg" xmlns:xlink="http://www.w3.org/1999/xlink">
<g id="graph0" class="graph" transform="scale(1 1) rotate(0) translate(4 80)">
<title>os_core.h</title>
<polygon fill="white" stroke="transparent" points="-4,4 -4,-80 331.5,-80 331.5,4 -4,4"/>
<!-- Node1 -->
<g id="node1" class="node">
<title>Node1</title>
<g id="a_node1"><a xlink:title="Core of the OS.">
<polygon fill="#bfbfbf" stroke="black" points="140.5,-56.5 140.5,-75.5 203.5,-75.5 203.5,-56.5 140.5,-56.5"/>
<text text-anchor="middle" x="172" y="-63.5" font-family="FreeSans" font-size="10.00">os_core.h</text>
</a>
</g>
</g>
<!-- Node2 -->
<g id="node2" class="node">
<title>Node2</title>
<g id="a_node2"><a xlink:href="os__core_8c.html" target="_top" xlink:title=" ">
<polygon fill="white" stroke="black" points="0,-0.5 0,-19.5 62,-19.5 62,-0.5 0,-0.5"/>
<text text-anchor="middle" x="31" y="-7.5" font-family="FreeSans" font-size="10.00">os_core.c</text>
</a>
</g>
</g>
<!-- Node1&#45;&gt;Node2 -->
<g id="edge1" class="edge">
<title>Node1&#45;&gt;Node2</title>
<path fill="none" stroke="midnightblue" d="M140.07,-52.77C113.59,-42.63 76.61,-28.47 53.24,-19.52"/>
<polygon fill="midnightblue" stroke="midnightblue" points="139.07,-56.14 149.66,-56.44 141.57,-49.6 139.07,-56.14"/>
</g>
<!-- Node3 -->
<g id="node3" class="node">
<title>Node3</title>
<g id="a_node3"><a xlink:href="os__memory_8c.html" target="_top" xlink:title=" ">
<polygon fill="white" stroke="black" points="80.5,-0.5 80.5,-19.5 161.5,-19.5 161.5,-0.5 80.5,-0.5"/>
<text text-anchor="middle" x="121" y="-7.5" font-family="FreeSans" font-size="10.00">os_memory.c</text>
</a>
</g>
</g>
<!-- Node1&#45;&gt;Node3 -->
<g id="edge2" class="edge">
<title>Node1&#45;&gt;Node3</title>
<path fill="none" stroke="midnightblue" d="M156.62,-48.72C147.63,-39.2 136.64,-27.56 129.26,-19.75"/>
<polygon fill="midnightblue" stroke="midnightblue" points="154.17,-51.22 163.58,-56.08 159.26,-46.41 154.17,-51.22"/>
</g>
<!-- Node4 -->
<g id="node4" class="node">
<title>Node4</title>
<g id="a_node4"><a xlink:href="os__scheduler_8c.html" target="_top" xlink:title=" ">
<polygon fill="white" stroke="black" points="180,-0.5 180,-19.5 268,-19.5 268,-0.5 180,-0.5"/>
<text text-anchor="middle" x="224" y="-7.5" font-family="FreeSans" font-size="10.00">os_scheduler.c</text>
</a>
</g>
</g>
<!-- Node1&#45;&gt;Node4 -->
<g id="edge3" class="edge">
<title>Node1&#45;&gt;Node4</title>
<path fill="none" stroke="midnightblue" d="M187.68,-48.72C196.84,-39.2 208.05,-27.56 215.57,-19.75"/>
<polygon fill="midnightblue" stroke="midnightblue" points="185,-46.45 180.59,-56.08 190.04,-51.31 185,-46.45"/>
</g>
<!-- Node5 -->
<g id="node5" class="node">
<title>Node5</title>
<g id="a_node5"><a xlink:href="util_8c.html" target="_top" xlink:title=" ">
<polygon fill="white" stroke="black" points="286.5,-0.5 286.5,-19.5 327.5,-19.5 327.5,-0.5 286.5,-0.5"/>
<text text-anchor="middle" x="307" y="-7.5" font-family="FreeSans" font-size="10.00">util.c</text>
</a>
</g>
</g>
<!-- Node1&#45;&gt;Node5 -->
<g id="edge4" class="edge">
<title>Node1&#45;&gt;Node5</title>
<path fill="none" stroke="midnightblue" d="M202.97,-52.61C228.46,-42.41 263.92,-28.23 286.15,-19.34"/>
<polygon fill="midnightblue" stroke="midnightblue" points="201.38,-49.48 193.39,-56.44 203.98,-55.98 201.38,-49.48"/>
</g>
</g>
</svg>
