<?xml version="1.0" encoding="UTF-8" standalone="no"?>
<!DOCTYPE svg PUBLIC "-//W3C//DTD SVG 1.1//EN"
 "http://www.w3.org/Graphics/SVG/1.1/DTD/svg11.dtd">
<!-- Generated by graphviz version 2.43.0 (0)
 -->
<!-- Title: os_taskman.c Pages: 1 -->
<svg width="900pt" height="364pt"
 viewBox="0.00 0.00 900.00 364.00" xmlns="http://www.w3.org/2000/svg" xmlns:xlink="http://www.w3.org/1999/xlink">
<g id="graph0" class="graph" transform="scale(1 1) rotate(0) translate(4 360)">
<title>os_taskman.c</title>
<polygon fill="white" stroke="transparent" points="-4,4 -4,-360 896,-360 896,4 -4,4"/>
<!-- Node1 -->
<g id="node1" class="node">
<title>Node1</title>
<g id="a_node1"><a xlink:title=" ">
<polygon fill="#bfbfbf" stroke="black" points="346.5,-336.5 346.5,-355.5 430.5,-355.5 430.5,-336.5 346.5,-336.5"/>
<text text-anchor="middle" x="388.5" y="-343.5" font-family="FreeSans" font-size="10.00">os_taskman.c</text>
</a>
</g>
</g>
<!-- Node2 -->
<g id="node2" class="node">
<title>Node2</title>
<g id="a_node2"><a xlink:href="os__taskman_8h.html" target="_top" xlink:title="TaskManager library for the OS.">
<polygon fill="white" stroke="black" points="0,-224.5 0,-243.5 85,-243.5 85,-224.5 0,-224.5"/>
<text text-anchor="middle" x="42.5" y="-231.5" font-family="FreeSans" font-size="10.00">os_taskman.h</text>
</a>
</g>
</g>
<!-- Node1&#45;&gt;Node2 -->
<g id="edge1" class="edge">
<title>Node1&#45;&gt;Node2</title>
<path fill="none" stroke="midnightblue" d="M346.24,-341.83C277.01,-336.08 143,-322.39 101.5,-300 80.84,-288.86 63.68,-267.59 53.29,-252.42"/>
<polygon fill="midnightblue" stroke="midnightblue" points="56.13,-250.36 47.73,-243.9 50.27,-254.19 56.13,-250.36"/>
</g>
<!-- Node4 -->
<g id="node4" class="node">
<title>Node4</title>
<g id="a_node4"><a xlink:href="defines_8h.html" target="_top" xlink:title="Simple definitions and assembler&#45;macros, mostly 8/16&#45;Bit values.">
<polygon fill="white" stroke="black" points="596,-112.5 596,-131.5 657,-131.5 657,-112.5 596,-112.5"/>
<text text-anchor="middle" x="626.5" y="-119.5" font-family="FreeSans" font-size="10.00">defines.h</text>
</a>
</g>
</g>
<!-- Node1&#45;&gt;Node4 -->
<g id="edge3" class="edge">
<title>Node1&#45;&gt;Node4</title>
<path fill="none" stroke="midnightblue" d="M430.64,-343.57C493.97,-340.42 609.03,-330.56 634.5,-300 672.7,-254.18 648.43,-176.2 634.42,-141.09"/>
<polygon fill="midnightblue" stroke="midnightblue" points="637.56,-139.53 630.48,-131.65 631.1,-142.22 637.56,-139.53"/>
</g>
<!-- Node7 -->
<g id="node7" class="node">
<title>Node7</title>
<g id="a_node7"><a xlink:href="util_8h.html" target="_top" xlink:title="Little helpers that don&#39;t fit elsewhere.">
<polygon fill="white" stroke="black" points="106,-112.5 106,-131.5 147,-131.5 147,-112.5 106,-112.5"/>
<text text-anchor="middle" x="126.5" y="-119.5" font-family="FreeSans" font-size="10.00">util.h</text>
</a>
</g>
</g>
<!-- Node1&#45;&gt;Node7 -->
<g id="edge6" class="edge">
<title>Node1&#45;&gt;Node7</title>
<path fill="none" stroke="midnightblue" d="M359.7,-336.5C336.82,-328.97 304.61,-316.59 279.5,-300 220.25,-260.84 209.46,-243.79 165.5,-188 153.82,-173.17 142.98,-154.56 135.71,-141.05"/>
<polygon fill="midnightblue" stroke="midnightblue" points="138.64,-139.09 130.89,-131.87 132.44,-142.35 138.64,-139.09"/>
</g>
<!-- Node8 -->
<g id="node8" class="node">
<title>Node8</title>
<g id="a_node8"><a xlink:title=" ">
<polygon fill="white" stroke="#bfbfbf" points="327,-56.5 327,-75.5 380,-75.5 380,-56.5 327,-56.5"/>
<text text-anchor="middle" x="353.5" y="-63.5" font-family="FreeSans" font-size="10.00">stdint.h</text>
</a>
</g>
</g>
<!-- Node1&#45;&gt;Node8 -->
<g id="edge16" class="edge">
<title>Node1&#45;&gt;Node8</title>
<path fill="none" stroke="midnightblue" d="M385.9,-336.47C383.28,-327.49 379.37,-312.89 377.5,-300 365.51,-217.21 383.87,-194.23 368.5,-112 366.82,-102.99 363.76,-93.32 360.85,-85.25"/>
<polygon fill="midnightblue" stroke="midnightblue" points="364.07,-83.86 357.22,-75.77 357.53,-86.36 364.07,-83.86"/>
</g>
<!-- Node10 -->
<g id="node10" class="node">
<title>Node10</title>
<g id="a_node10"><a xlink:href="lcd_8h.html" target="_top" xlink:title="Library for LCD use.">
<polygon fill="white" stroke="black" points="174.5,-168.5 174.5,-187.5 214.5,-187.5 214.5,-168.5 174.5,-168.5"/>
<text text-anchor="middle" x="194.5" y="-175.5" font-family="FreeSans" font-size="10.00">lcd.h</text>
</a>
</g>
</g>
<!-- Node1&#45;&gt;Node10 -->
<g id="edge10" class="edge">
<title>Node1&#45;&gt;Node10</title>
<path fill="none" stroke="midnightblue" d="M368.26,-336.34C350.72,-328.32 325.14,-315.33 305.5,-300 264.67,-268.14 225.88,-220.55 206.81,-195.61"/>
<polygon fill="midnightblue" stroke="midnightblue" points="209.52,-193.4 200.7,-187.52 203.93,-197.61 209.52,-193.4"/>
</g>
<!-- Node11 -->
<g id="node11" class="node">
<title>Node11</title>
<g id="a_node11"><a xlink:href="os__process_8h.html" target="_top" xlink:title="Struct specifying a process.">
<polygon fill="white" stroke="black" points="279.5,-112.5 279.5,-131.5 359.5,-131.5 359.5,-112.5 279.5,-112.5"/>
<text text-anchor="middle" x="319.5" y="-119.5" font-family="FreeSans" font-size="10.00">os_process.h</text>
</a>
</g>
</g>
<!-- Node1&#45;&gt;Node11 -->
<g id="edge17" class="edge">
<title>Node1&#45;&gt;Node11</title>
<path fill="none" stroke="midnightblue" d="M375.95,-336.2C365.42,-328.09 350.96,-315.05 343.5,-300 317.39,-247.31 316.79,-175.55 318.24,-141.89"/>
<polygon fill="midnightblue" stroke="midnightblue" points="321.75,-141.84 318.8,-131.67 314.76,-141.46 321.75,-141.84"/>
</g>
<!-- Node12 -->
<g id="node12" class="node">
<title>Node12</title>
<g id="a_node12"><a xlink:href="os__scheduler_8h.html" target="_top" xlink:title="Scheduling module for the OS.">
<polygon fill="white" stroke="black" points="450,-168.5 450,-187.5 539,-187.5 539,-168.5 450,-168.5"/>
<text text-anchor="middle" x="494.5" y="-175.5" font-family="FreeSans" font-size="10.00">os_scheduler.h</text>
</a>
</g>
</g>
<!-- Node1&#45;&gt;Node12 -->
<g id="edge20" class="edge">
<title>Node1&#45;&gt;Node12</title>
<path fill="none" stroke="midnightblue" d="M411.85,-336.35C428.35,-329.08 449.72,-317.11 462.5,-300 485.5,-269.2 491.99,-223.19 493.81,-197.69"/>
<polygon fill="midnightblue" stroke="midnightblue" points="497.31,-197.73 494.36,-187.55 490.32,-197.35 497.31,-197.73"/>
</g>
<!-- Node13 -->
<g id="node13" class="node">
<title>Node13</title>
<g id="a_node13"><a xlink:href="os__input_8h.html" target="_top" xlink:title="Input library for the OS.">
<polygon fill="white" stroke="black" points="386,-280.5 386,-299.5 453,-299.5 453,-280.5 386,-280.5"/>
<text text-anchor="middle" x="419.5" y="-287.5" font-family="FreeSans" font-size="10.00">os_input.h</text>
</a>
</g>
</g>
<!-- Node1&#45;&gt;Node13 -->
<g id="edge24" class="edge">
<title>Node1&#45;&gt;Node13</title>
<path fill="none" stroke="midnightblue" d="M393.62,-336.08C397.91,-328.61 404.16,-317.72 409.44,-308.52"/>
<polygon fill="midnightblue" stroke="midnightblue" points="412.53,-310.17 414.48,-299.75 406.46,-306.68 412.53,-310.17"/>
</g>
<!-- Node14 -->
<g id="node14" class="node">
<title>Node14</title>
<g id="a_node14"><a xlink:href="os__user__privileges_8h.html" target="_top" xlink:title="User privileges specification used in part by the Taskman.">
<polygon fill="white" stroke="black" points="509.5,-280.5 509.5,-299.5 625.5,-299.5 625.5,-280.5 509.5,-280.5"/>
<text text-anchor="middle" x="567.5" y="-287.5" font-family="FreeSans" font-size="10.00">os_user_privileges.h</text>
</a>
</g>
</g>
<!-- Node1&#45;&gt;Node14 -->
<g id="edge26" class="edge">
<title>Node1&#45;&gt;Node14</title>
<path fill="none" stroke="midnightblue" d="M416.86,-336.44C447.24,-327.28 495.61,-312.69 529.32,-302.52"/>
<polygon fill="midnightblue" stroke="midnightblue" points="530.71,-305.76 539.27,-299.52 528.68,-299.05 530.71,-305.76"/>
</g>
<!-- Node15 -->
<g id="node15" class="node">
<title>Node15</title>
<g id="a_node15"><a xlink:href="os__memory_8h.html" target="_top" xlink:title="Library for OS memory management.">
<polygon fill="white" stroke="black" points="678.5,-224.5 678.5,-243.5 760.5,-243.5 760.5,-224.5 678.5,-224.5"/>
<text text-anchor="middle" x="719.5" y="-231.5" font-family="FreeSans" font-size="10.00">os_memory.h</text>
</a>
</g>
</g>
<!-- Node1&#45;&gt;Node15 -->
<g id="edge38" class="edge">
<title>Node1&#45;&gt;Node15</title>
<path fill="none" stroke="midnightblue" d="M430.56,-341.92C498.31,-336.36 628.03,-323.02 667.5,-300 686.55,-288.89 701.36,-267.93 710.22,-252.82"/>
<polygon fill="midnightblue" stroke="midnightblue" points="713.39,-254.33 715.17,-243.88 707.26,-250.94 713.39,-254.33"/>
</g>
<!-- Node3 -->
<g id="node3" class="node">
<title>Node3</title>
<g id="a_node3"><a xlink:title=" ">
<polygon fill="white" stroke="#bfbfbf" points="144.5,-56.5 144.5,-75.5 206.5,-75.5 206.5,-56.5 144.5,-56.5"/>
<text text-anchor="middle" x="175.5" y="-63.5" font-family="FreeSans" font-size="10.00">stdbool.h</text>
</a>
</g>
</g>
<!-- Node2&#45;&gt;Node3 -->
<g id="edge2" class="edge">
<title>Node2&#45;&gt;Node3</title>
<path fill="none" stroke="midnightblue" d="M44.38,-224.35C49.41,-202.96 64.98,-146.77 96.5,-112 109.14,-98.05 127.15,-87.34 142.78,-79.87"/>
<polygon fill="midnightblue" stroke="midnightblue" points="144.46,-82.94 152.13,-75.63 141.58,-76.57 144.46,-82.94"/>
</g>
<!-- Node5 -->
<g id="node5" class="node">
<title>Node5</title>
<g id="a_node5"><a xlink:href="atmega644constants_8h.html" target="_top" xlink:title="Constants for ATMega644 and EVA board. Defines several useful constants for the ATMega644.">
<polygon fill="white" stroke="black" points="562.5,-56.5 562.5,-75.5 690.5,-75.5 690.5,-56.5 562.5,-56.5"/>
<text text-anchor="middle" x="626.5" y="-63.5" font-family="FreeSans" font-size="10.00">atmega644constants.h</text>
</a>
</g>
</g>
<!-- Node4&#45;&gt;Node5 -->
<g id="edge4" class="edge">
<title>Node4&#45;&gt;Node5</title>
<path fill="none" stroke="midnightblue" d="M626.5,-112.08C626.5,-105.01 626.5,-94.86 626.5,-85.99"/>
<polygon fill="midnightblue" stroke="midnightblue" points="630,-85.75 626.5,-75.75 623,-85.75 630,-85.75"/>
</g>
<!-- Node6 -->
<g id="node6" class="node">
<title>Node6</title>
<g id="a_node6"><a xlink:title=" ">
<polygon fill="white" stroke="#bfbfbf" points="600,-0.5 600,-19.5 653,-19.5 653,-0.5 600,-0.5"/>
<text text-anchor="middle" x="626.5" y="-7.5" font-family="FreeSans" font-size="10.00">avr/io.h</text>
</a>
</g>
</g>
<!-- Node5&#45;&gt;Node6 -->
<g id="edge5" class="edge">
<title>Node5&#45;&gt;Node6</title>
<path fill="none" stroke="midnightblue" d="M626.5,-56.08C626.5,-49.01 626.5,-38.86 626.5,-29.99"/>
<polygon fill="midnightblue" stroke="midnightblue" points="630,-29.75 626.5,-19.75 623,-29.75 630,-29.75"/>
</g>
<!-- Node7&#45;&gt;Node3 -->
<g id="edge8" class="edge">
<title>Node7&#45;&gt;Node3</title>
<path fill="none" stroke="midnightblue" d="M134.59,-112.08C141.66,-104.3 152.09,-92.8 160.65,-83.37"/>
<polygon fill="midnightblue" stroke="midnightblue" points="163.43,-85.51 167.56,-75.75 158.25,-80.8 163.43,-85.51"/>
</g>
<!-- Node7&#45;&gt;Node8 -->
<g id="edge7" class="edge">
<title>Node7&#45;&gt;Node8</title>
<path fill="none" stroke="midnightblue" d="M147.05,-116.11C185.48,-106.97 268.71,-87.17 316.94,-75.7"/>
<polygon fill="midnightblue" stroke="midnightblue" points="318.04,-79.03 326.95,-73.31 316.42,-72.22 318.04,-79.03"/>
</g>
<!-- Node9 -->
<g id="node9" class="node">
<title>Node9</title>
<g id="a_node9"><a xlink:title=" ">
<polygon fill="white" stroke="#bfbfbf" points="30,-56.5 30,-75.5 125,-75.5 125,-56.5 30,-56.5"/>
<text text-anchor="middle" x="77.5" y="-63.5" font-family="FreeSans" font-size="10.00">avr/pgmspace.h</text>
</a>
</g>
</g>
<!-- Node7&#45;&gt;Node9 -->
<g id="edge9" class="edge">
<title>Node7&#45;&gt;Node9</title>
<path fill="none" stroke="midnightblue" d="M118.41,-112.08C111.34,-104.3 100.91,-92.8 92.35,-83.37"/>
<polygon fill="midnightblue" stroke="midnightblue" points="94.75,-80.8 85.44,-75.75 89.57,-85.51 94.75,-80.8"/>
</g>
<!-- Node10&#45;&gt;Node3 -->
<g id="edge11" class="edge">
<title>Node10&#45;&gt;Node3</title>
<path fill="none" stroke="midnightblue" d="M193.01,-168.37C189.94,-150.62 182.87,-109.67 178.71,-85.6"/>
<polygon fill="midnightblue" stroke="midnightblue" points="182.14,-84.85 176.98,-75.59 175.24,-86.04 182.14,-84.85"/>
</g>
<!-- Node10&#45;&gt;Node4 -->
<g id="edge14" class="edge">
<title>Node10&#45;&gt;Node4</title>
<path fill="none" stroke="midnightblue" d="M214.76,-174.47C281.51,-166.12 495.42,-139.38 585.7,-128.1"/>
<polygon fill="midnightblue" stroke="midnightblue" points="586.33,-131.55 595.82,-126.83 585.46,-124.6 586.33,-131.55"/>
</g>
<!-- Node10&#45;&gt;Node7 -->
<g id="edge15" class="edge">
<title>Node10&#45;&gt;Node7</title>
<path fill="none" stroke="midnightblue" d="M183.57,-168.32C173.33,-160.18 157.78,-147.84 145.5,-138.09"/>
<polygon fill="midnightblue" stroke="midnightblue" points="147.63,-135.31 137.62,-131.83 143.28,-140.79 147.63,-135.31"/>
</g>
<!-- Node10&#45;&gt;Node8 -->
<g id="edge12" class="edge">
<title>Node10&#45;&gt;Node8</title>
<path fill="none" stroke="midnightblue" d="M203.35,-168.33C217.03,-155.2 244.46,-129.9 270.5,-112 288.12,-99.89 309.32,-88.44 325.89,-80.12"/>
<polygon fill="midnightblue" stroke="midnightblue" points="327.63,-83.17 335.05,-75.6 324.53,-76.89 327.63,-83.17"/>
</g>
<!-- Node10&#45;&gt;Node9 -->
<g id="edge13" class="edge">
<title>Node10&#45;&gt;Node9</title>
<path fill="none" stroke="midnightblue" d="M174.21,-172.95C151.99,-167.46 116.81,-155.52 96.5,-132 85.34,-119.08 80.73,-99.91 78.83,-85.73"/>
<polygon fill="midnightblue" stroke="midnightblue" points="82.3,-85.25 77.81,-75.65 75.33,-85.95 82.3,-85.25"/>
</g>
<!-- Node11&#45;&gt;Node3 -->
<g id="edge19" class="edge">
<title>Node11&#45;&gt;Node3</title>
<path fill="none" stroke="midnightblue" d="M296.68,-112.44C272.67,-103.44 234.67,-89.19 207.63,-79.05"/>
<polygon fill="midnightblue" stroke="midnightblue" points="208.8,-75.75 198.21,-75.52 206.34,-82.3 208.8,-75.75"/>
</g>
<!-- Node11&#45;&gt;Node8 -->
<g id="edge18" class="edge">
<title>Node11&#45;&gt;Node8</title>
<path fill="none" stroke="midnightblue" d="M325.11,-112.08C329.87,-104.53 336.82,-93.49 342.65,-84.23"/>
<polygon fill="midnightblue" stroke="midnightblue" points="345.62,-86.08 347.99,-75.75 339.7,-82.35 345.62,-86.08"/>
</g>
<!-- Node12&#45;&gt;Node3 -->
<g id="edge21" class="edge">
<title>Node12&#45;&gt;Node3</title>
<path fill="none" stroke="midnightblue" d="M449.59,-173.31C403.23,-168.29 329.52,-156.9 270.5,-132 241.07,-119.59 211.35,-97.33 193.18,-82.37"/>
<polygon fill="midnightblue" stroke="midnightblue" points="195.15,-79.45 185.24,-75.68 190.64,-84.8 195.15,-79.45"/>
</g>
<!-- Node12&#45;&gt;Node4 -->
<g id="edge22" class="edge">
<title>Node12&#45;&gt;Node4</title>
<path fill="none" stroke="midnightblue" d="M515.42,-168.44C537.24,-159.52 571.65,-145.44 596.39,-135.32"/>
<polygon fill="midnightblue" stroke="midnightblue" points="597.75,-138.54 605.68,-131.52 595.1,-132.06 597.75,-138.54"/>
</g>
<!-- Node12&#45;&gt;Node11 -->
<g id="edge23" class="edge">
<title>Node12&#45;&gt;Node11</title>
<path fill="none" stroke="midnightblue" d="M466.77,-168.44C437.07,-159.28 389.78,-144.69 356.83,-134.52"/>
<polygon fill="midnightblue" stroke="midnightblue" points="357.69,-131.12 347.1,-131.52 355.62,-137.81 357.69,-131.12"/>
</g>
<!-- Node13&#45;&gt;Node8 -->
<g id="edge25" class="edge">
<title>Node13&#45;&gt;Node8</title>
<path fill="none" stroke="midnightblue" d="M420.66,-280.31C423.83,-253.56 430.54,-170.69 401.5,-112 395.54,-99.96 384.94,-89.49 375.2,-81.69"/>
<polygon fill="midnightblue" stroke="midnightblue" points="377.12,-78.75 367.02,-75.54 372.91,-84.34 377.12,-78.75"/>
</g>
<!-- Node14&#45;&gt;Node4 -->
<g id="edge30" class="edge">
<title>Node14&#45;&gt;Node4</title>
<path fill="none" stroke="midnightblue" d="M570.67,-280.08C580,-253.83 607.47,-176.55 620.06,-141.12"/>
<polygon fill="midnightblue" stroke="midnightblue" points="623.4,-142.16 623.45,-131.57 616.81,-139.82 623.4,-142.16"/>
</g>
<!-- Node14&#45;&gt;Node8 -->
<g id="edge27" class="edge">
<title>Node14&#45;&gt;Node8</title>
<path fill="none" stroke="midnightblue" d="M568.61,-280.41C570.87,-259.13 573.86,-203.2 548.5,-168 510.15,-114.76 435.24,-87.46 390.25,-75.28"/>
<polygon fill="midnightblue" stroke="midnightblue" points="390.87,-71.83 380.32,-72.71 389.12,-78.6 390.87,-71.83"/>
</g>
<!-- Node14&#45;&gt;Node9 -->
<g id="edge28" class="edge">
<title>Node14&#45;&gt;Node9</title>
<path fill="none" stroke="midnightblue" d="M509.17,-280.86C429.04,-268.25 281.64,-239.85 165.5,-188 124.86,-169.86 104.88,-170.46 82.5,-132 74.41,-118.09 73.76,-99.58 74.79,-85.87"/>
<polygon fill="midnightblue" stroke="midnightblue" points="78.29,-86.02 75.91,-75.69 71.33,-85.24 78.29,-86.02"/>
</g>
<!-- Node14&#45;&gt;Node12 -->
<g id="edge29" class="edge">
<title>Node14&#45;&gt;Node12</title>
<path fill="none" stroke="midnightblue" d="M561.77,-280.37C549.72,-262.22 521.58,-219.8 505.78,-195.99"/>
<polygon fill="midnightblue" stroke="midnightblue" points="508.65,-193.99 500.2,-187.59 502.81,-197.86 508.65,-193.99"/>
</g>
<!-- Node14&#45;&gt;Node15 -->
<g id="edge31" class="edge">
<title>Node14&#45;&gt;Node15</title>
<path fill="none" stroke="midnightblue" d="M591.58,-280.44C617.04,-271.4 657.39,-257.06 685.96,-246.92"/>
<polygon fill="midnightblue" stroke="midnightblue" points="687.28,-250.16 695.53,-243.52 684.93,-243.57 687.28,-250.16"/>
</g>
<!-- Node15&#45;&gt;Node12 -->
<g id="edge37" class="edge">
<title>Node15&#45;&gt;Node12</title>
<path fill="none" stroke="midnightblue" d="M683.85,-224.44C644.84,-215.08 582.23,-200.06 539.78,-189.87"/>
<polygon fill="midnightblue" stroke="midnightblue" points="540.53,-186.45 529.99,-187.52 538.89,-193.25 540.53,-186.45"/>
</g>
<!-- Node16 -->
<g id="node16" class="node">
<title>Node16</title>
<g id="a_node16"><a xlink:href="os__mem__drivers_8h.html" target="_top" xlink:title="Drivers for OS memory management.">
<polygon fill="white" stroke="black" points="785,-112.5 785,-131.5 892,-131.5 892,-112.5 785,-112.5"/>
<text text-anchor="middle" x="838.5" y="-119.5" font-family="FreeSans" font-size="10.00">os_mem_drivers.h</text>
</a>
</g>
</g>
<!-- Node15&#45;&gt;Node16 -->
<g id="edge32" class="edge">
<title>Node15&#45;&gt;Node16</title>
<path fill="none" stroke="midnightblue" d="M757.01,-224.44C778.11,-217.81 803.38,-206.53 819.5,-188 830.71,-175.12 835.31,-155.95 837.2,-141.76"/>
<polygon fill="midnightblue" stroke="midnightblue" points="840.7,-141.96 838.21,-131.66 833.73,-141.26 840.7,-141.96"/>
</g>
<!-- Node18 -->
<g id="node18" class="node">
<title>Node18</title>
<g id="a_node18"><a xlink:href="os__memheap__drivers_8h.html" target="_top" xlink:title="Drivers for OS heap management.">
<polygon fill="white" stroke="black" points="679,-168.5 679,-187.5 810,-187.5 810,-168.5 679,-168.5"/>
<text text-anchor="middle" x="744.5" y="-175.5" font-family="FreeSans" font-size="10.00">os_memheap_drivers.h</text>
</a>
</g>
</g>
<!-- Node15&#45;&gt;Node18 -->
<g id="edge34" class="edge">
<title>Node15&#45;&gt;Node18</title>
<path fill="none" stroke="midnightblue" d="M723.63,-224.08C727.01,-216.77 731.92,-206.18 736.12,-197.1"/>
<polygon fill="midnightblue" stroke="midnightblue" points="739.42,-198.3 740.45,-187.75 733.07,-195.36 739.42,-198.3"/>
</g>
<!-- Node17 -->
<g id="node17" class="node">
<title>Node17</title>
<g id="a_node17"><a xlink:title=" ">
<polygon fill="white" stroke="#bfbfbf" points="806,-56.5 806,-75.5 871,-75.5 871,-56.5 806,-56.5"/>
<text text-anchor="middle" x="838.5" y="-63.5" font-family="FreeSans" font-size="10.00">inttypes.h</text>
</a>
</g>
</g>
<!-- Node16&#45;&gt;Node17 -->
<g id="edge33" class="edge">
<title>Node16&#45;&gt;Node17</title>
<path fill="none" stroke="midnightblue" d="M838.5,-112.08C838.5,-105.01 838.5,-94.86 838.5,-85.99"/>
<polygon fill="midnightblue" stroke="midnightblue" points="842,-85.75 838.5,-75.75 835,-85.75 842,-85.75"/>
</g>
<!-- Node18&#45;&gt;Node16 -->
<g id="edge35" class="edge">
<title>Node18&#45;&gt;Node16</title>
<path fill="none" stroke="midnightblue" d="M759.6,-168.32C774.4,-159.82 797.19,-146.73 814.48,-136.8"/>
<polygon fill="midnightblue" stroke="midnightblue" points="816.51,-139.67 823.43,-131.65 813.02,-133.6 816.51,-139.67"/>
</g>
<!-- Node19 -->
<g id="node19" class="node">
<title>Node19</title>
<g id="a_node19"><a xlink:title=" ">
<polygon fill="white" stroke="#bfbfbf" points="710.5,-112.5 710.5,-131.5 766.5,-131.5 766.5,-112.5 710.5,-112.5"/>
<text text-anchor="middle" x="738.5" y="-119.5" font-family="FreeSans" font-size="10.00">stddef.h</text>
</a>
</g>
</g>
<!-- Node18&#45;&gt;Node19 -->
<g id="edge36" class="edge">
<title>Node18&#45;&gt;Node19</title>
<path fill="none" stroke="midnightblue" d="M743.51,-168.08C742.71,-160.93 741.57,-150.64 740.58,-141.69"/>
<polygon fill="midnightblue" stroke="midnightblue" points="744.06,-141.3 739.47,-131.75 737.1,-142.08 744.06,-141.3"/>
</g>
</g>
</svg>
