<?xml version="1.0" encoding="UTF-8" standalone="no"?>
<!DOCTYPE svg PUBLIC "-//W3C//DTD SVG 1.1//EN"
 "http://www.w3.org/Graphics/SVG/1.1/DTD/svg11.dtd">
<!-- Generated by graphviz version 2.43.0 (0)
 -->
<!-- Title: assertPstr Pages: 1 -->
<svg width="668pt" height="142pt"
 viewBox="0.00 0.00 668.00 142.00" xmlns="http://www.w3.org/2000/svg" xmlns:xlink="http://www.w3.org/1999/xlink">
<g id="graph0" class="graph" transform="scale(1 1) rotate(0) translate(4 138)">
<title>assertPstr</title>
<polygon fill="white" stroke="transparent" points="-4,4 -4,-138 664,-138 664,4 -4,4"/>
<!-- Node1 -->
<g id="node1" class="node">
<title>Node1</title>
<g id="a_node1"><a xlink:title="Simple assertion function that calls os_error if given expression is not true.">
<polygon fill="#bfbfbf" stroke="black" points="0,-57.5 0,-76.5 65,-76.5 65,-57.5 0,-57.5"/>
<text text-anchor="middle" x="32.5" y="-64.5" font-family="FreeSans" font-size="10.00">assertPstr</text>
</a>
</g>
</g>
<!-- Node2 -->
<g id="node2" class="node">
<title>Node2</title>
<g id="a_node2"><a xlink:href="os__core_8c.html#a1ed51c8da9054e49d1f14175945cc563" target="_top" xlink:title="Shows error on display and terminates program.">
<polygon fill="white" stroke="black" points="101,-57.5 101,-76.5 177,-76.5 177,-57.5 101,-57.5"/>
<text text-anchor="middle" x="139" y="-64.5" font-family="FreeSans" font-size="10.00">os_errorPStr</text>
</a>
</g>
</g>
<!-- Node1&#45;&gt;Node2 -->
<g id="edge1" class="edge">
<title>Node1&#45;&gt;Node2</title>
<path fill="none" stroke="midnightblue" d="M65.14,-67C73.25,-67 82.16,-67 90.88,-67"/>
<polygon fill="midnightblue" stroke="midnightblue" points="90.96,-70.5 100.96,-67 90.96,-63.5 90.96,-70.5"/>
</g>
<!-- Node3 -->
<g id="node3" class="node">
<title>Node3</title>
<g id="a_node3"><a xlink:href="lcd_8h.html#ad235a86241458b1e7b8771688bfdaf9a" target="_top" xlink:title="Clear all data from display.">
<polygon fill="white" stroke="black" points="479,-114.5 479,-133.5 539,-133.5 539,-114.5 479,-114.5"/>
<text text-anchor="middle" x="509" y="-121.5" font-family="FreeSans" font-size="10.00">lcd_clear</text>
</a>
</g>
</g>
<!-- Node2&#45;&gt;Node3 -->
<g id="edge2" class="edge">
<title>Node2&#45;&gt;Node3</title>
<path fill="none" stroke="midnightblue" d="M154.07,-76.6C168.26,-85.71 191.12,-98.89 213,-105 301.88,-129.8 411.44,-129.14 468.78,-126.54"/>
<polygon fill="midnightblue" stroke="midnightblue" points="469.05,-130.04 478.86,-126.04 468.7,-123.04 469.05,-130.04"/>
</g>
<!-- Node5 -->
<g id="node5" class="node">
<title>Node5</title>
<g id="a_node5"><a xlink:href="lcd_8h.html#a12c915502d2f5eb5bca74e503ad88669" target="_top" xlink:title="Write char PROGMEM* string.">
<polygon fill="white" stroke="black" points="213,-76.5 213,-95.5 324,-95.5 324,-76.5 213,-76.5"/>
<text text-anchor="middle" x="268.5" y="-83.5" font-family="FreeSans" font-size="10.00">lcd_writeProgString</text>
</a>
</g>
</g>
<!-- Node2&#45;&gt;Node5 -->
<g id="edge4" class="edge">
<title>Node2&#45;&gt;Node5</title>
<path fill="none" stroke="midnightblue" d="M177.22,-72.55C185.34,-73.76 194.15,-75.07 202.99,-76.39"/>
<polygon fill="midnightblue" stroke="midnightblue" points="202.53,-79.86 212.94,-77.87 203.56,-72.93 202.53,-79.86"/>
</g>
<!-- Node9 -->
<g id="node9" class="node">
<title>Node9</title>
<g id="a_node9"><a xlink:href="os__input_8c.html#a137e8a89b9524ec791fffccedb04fef0" target="_top" xlink:title="Refreshes the button states.">
<polygon fill="white" stroke="black" points="364.5,-19.5 364.5,-38.5 438.5,-38.5 438.5,-19.5 364.5,-19.5"/>
<text text-anchor="middle" x="401.5" y="-26.5" font-family="FreeSans" font-size="10.00">os_getInput</text>
</a>
</g>
</g>
<!-- Node2&#45;&gt;Node9 -->
<g id="edge11" class="edge">
<title>Node2&#45;&gt;Node9</title>
<path fill="none" stroke="midnightblue" d="M177.05,-61.6C223.7,-54.79 303.85,-43.1 354.41,-35.72"/>
<polygon fill="midnightblue" stroke="midnightblue" points="355.03,-39.17 364.42,-34.26 354.02,-32.24 355.03,-39.17"/>
</g>
<!-- Node10 -->
<g id="node10" class="node">
<title>Node10</title>
<g id="a_node10"><a xlink:href="os__input_8c.html#ad2eb8a84abf9fcfe88654e1118b351f5" target="_top" xlink:title="Waits for all buttons to be released.">
<polygon fill="white" stroke="black" points="215,-0.5 215,-19.5 322,-19.5 322,-0.5 215,-0.5"/>
<text text-anchor="middle" x="268.5" y="-7.5" font-family="FreeSans" font-size="10.00">os_waitForNoInput</text>
</a>
</g>
</g>
<!-- Node2&#45;&gt;Node10 -->
<g id="edge12" class="edge">
<title>Node2&#45;&gt;Node10</title>
<path fill="none" stroke="midnightblue" d="M161.06,-57.41C175.63,-50.8 195.47,-41.82 213,-34 220.57,-30.62 228.74,-27.01 236.4,-23.64"/>
<polygon fill="midnightblue" stroke="midnightblue" points="237.99,-26.76 245.73,-19.53 235.17,-20.35 237.99,-26.76"/>
</g>
<!-- Node4 -->
<g id="node4" class="node">
<title>Node4</title>
<g id="a_node4"><a xlink:href="lcd_8h.html#acb116d89c358367b8fd1164120d320e3" target="_top" xlink:title="Send command to LCD.">
<polygon fill="white" stroke="black" points="575,-76.5 575,-95.5 660,-95.5 660,-76.5 575,-76.5"/>
<text text-anchor="middle" x="617.5" y="-83.5" font-family="FreeSans" font-size="10.00">lcd_command</text>
</a>
</g>
</g>
<!-- Node3&#45;&gt;Node4 -->
<g id="edge3" class="edge">
<title>Node3&#45;&gt;Node4</title>
<path fill="none" stroke="midnightblue" d="M536.87,-114.41C549.99,-109.73 565.97,-104.03 580.15,-98.97"/>
<polygon fill="midnightblue" stroke="midnightblue" points="581.39,-102.24 589.63,-95.59 579.04,-95.65 581.39,-102.24"/>
</g>
<!-- Node6 -->
<g id="node6" class="node">
<title>Node6</title>
<g id="a_node6"><a xlink:href="lcd_8h.html#a93cd5600fa3b27381a4cf57d21f27ebf" target="_top" xlink:title="Write one character.">
<polygon fill="white" stroke="black" points="360,-76.5 360,-95.5 443,-95.5 443,-76.5 360,-76.5"/>
<text text-anchor="middle" x="401.5" y="-83.5" font-family="FreeSans" font-size="10.00">lcd_writeChar</text>
</a>
</g>
</g>
<!-- Node5&#45;&gt;Node6 -->
<g id="edge5" class="edge">
<title>Node5&#45;&gt;Node6</title>
<path fill="none" stroke="midnightblue" d="M324.3,-86C332.77,-86 341.49,-86 349.87,-86"/>
<polygon fill="midnightblue" stroke="midnightblue" points="349.88,-89.5 359.88,-86 349.88,-82.5 349.88,-89.5"/>
</g>
<!-- Node6&#45;&gt;Node3 -->
<g id="edge6" class="edge">
<title>Node6&#45;&gt;Node3</title>
<path fill="none" stroke="midnightblue" d="M429.12,-95.59C441.99,-100.22 457.64,-105.86 471.59,-110.89"/>
<polygon fill="midnightblue" stroke="midnightblue" points="470.79,-114.32 481.39,-114.41 473.16,-107.73 470.79,-114.32"/>
</g>
<!-- Node7 -->
<g id="node7" class="node">
<title>Node7</title>
<g id="a_node7"><a xlink:href="lcd_8h.html#a016fe1471f1d20196b5ca3d2634c927a" target="_top" xlink:title="Next output will be written to line 1.">
<polygon fill="white" stroke="black" points="479,-76.5 479,-95.5 539,-95.5 539,-76.5 479,-76.5"/>
<text text-anchor="middle" x="509" y="-83.5" font-family="FreeSans" font-size="10.00">lcd_line1</text>
</a>
</g>
</g>
<!-- Node6&#45;&gt;Node7 -->
<g id="edge7" class="edge">
<title>Node6&#45;&gt;Node7</title>
<path fill="none" stroke="midnightblue" d="M443.29,-86C451.61,-86 460.34,-86 468.61,-86"/>
<polygon fill="midnightblue" stroke="midnightblue" points="468.76,-89.5 478.76,-86 468.76,-82.5 468.76,-89.5"/>
</g>
<!-- Node8 -->
<g id="node8" class="node">
<title>Node8</title>
<g id="a_node8"><a xlink:href="lcd_8h.html#ad9ccaf30ea478fef726c058ff4ee7dd1" target="_top" xlink:title="Next output will be written to line 2.">
<polygon fill="white" stroke="black" points="479,-38.5 479,-57.5 539,-57.5 539,-38.5 479,-38.5"/>
<text text-anchor="middle" x="509" y="-45.5" font-family="FreeSans" font-size="10.00">lcd_line2</text>
</a>
</g>
</g>
<!-- Node6&#45;&gt;Node8 -->
<g id="edge9" class="edge">
<title>Node6&#45;&gt;Node8</title>
<path fill="none" stroke="midnightblue" d="M429.12,-76.41C441.99,-71.78 457.64,-66.14 471.59,-61.11"/>
<polygon fill="midnightblue" stroke="midnightblue" points="473.16,-64.27 481.39,-57.59 470.79,-57.68 473.16,-64.27"/>
</g>
<!-- Node7&#45;&gt;Node4 -->
<g id="edge8" class="edge">
<title>Node7&#45;&gt;Node4</title>
<path fill="none" stroke="midnightblue" d="M539.1,-86C546.98,-86 555.76,-86 564.49,-86"/>
<polygon fill="midnightblue" stroke="midnightblue" points="564.66,-89.5 574.66,-86 564.66,-82.5 564.66,-89.5"/>
</g>
<!-- Node8&#45;&gt;Node4 -->
<g id="edge10" class="edge">
<title>Node8&#45;&gt;Node4</title>
<path fill="none" stroke="midnightblue" d="M536.87,-57.59C549.99,-62.27 565.97,-67.97 580.15,-73.03"/>
<polygon fill="midnightblue" stroke="midnightblue" points="579.04,-76.35 589.63,-76.41 581.39,-69.76 579.04,-76.35"/>
</g>
<!-- Node10&#45;&gt;Node9 -->
<g id="edge13" class="edge">
<title>Node10&#45;&gt;Node9</title>
<path fill="none" stroke="midnightblue" d="M322.03,-17.62C332.71,-19.17 343.86,-20.79 354.3,-22.3"/>
<polygon fill="midnightblue" stroke="midnightblue" points="354.06,-25.8 364.45,-23.77 355.06,-18.87 354.06,-25.8"/>
</g>
</g>
</svg>
