<?xml version="1.0" encoding="UTF-8" standalone="no"?>
<!DOCTYPE svg PUBLIC "-//W3C//DTD SVG 1.1//EN"
 "http://www.w3.org/Graphics/SVG/1.1/DTD/svg11.dtd">
<!-- Generated by graphviz version 2.43.0 (0)
 -->
<!-- Title: atmega644constants.h Pages: 1 -->
<svg width="1146pt" height="308pt"
 viewBox="0.00 0.00 1145.62 308.00" xmlns="http://www.w3.org/2000/svg" xmlns:xlink="http://www.w3.org/1999/xlink">
<g id="graph0" class="graph" transform="scale(1 1) rotate(0) translate(4 304)">
<title>atmega644constants.h</title>
<polygon fill="white" stroke="transparent" points="-4,4 -4,-304 1141.62,-304 1141.62,4 -4,4"/>
<!-- Node1 -->
<g id="node1" class="node">
<title>Node1</title>
<g id="a_node1"><a xlink:title="Constants for ATMega644 and EVA board. Defines several useful constants for the ATMega644.">
<polygon fill="#bfbfbf" stroke="black" points="187.5,-280.5 187.5,-299.5 315.5,-299.5 315.5,-280.5 187.5,-280.5"/>
<text text-anchor="middle" x="251.5" y="-287.5" font-family="FreeSans" font-size="10.00">atmega644constants.h</text>
</a>
</g>
</g>
<!-- Node2 -->
<g id="node2" class="node">
<title>Node2</title>
<g id="a_node2"><a xlink:href="defines_8h.html" target="_top" xlink:title="Simple definitions and assembler&#45;macros, mostly 8/16&#45;Bit values.">
<polygon fill="white" stroke="black" points="492,-224.5 492,-243.5 553,-243.5 553,-224.5 492,-224.5"/>
<text text-anchor="middle" x="522.5" y="-231.5" font-family="FreeSans" font-size="10.00">defines.h</text>
</a>
</g>
</g>
<!-- Node1&#45;&gt;Node2 -->
<g id="edge1" class="edge">
<title>Node1&#45;&gt;Node2</title>
<path fill="none" stroke="midnightblue" d="M304.51,-278.44C360.39,-267.3 446.49,-250.15 491.96,-241.09"/>
<polygon fill="midnightblue" stroke="midnightblue" points="303.56,-275.06 294.44,-280.44 304.93,-281.92 303.56,-275.06"/>
</g>
<!-- Node7 -->
<g id="node7" class="node">
<title>Node7</title>
<g id="a_node7"><a xlink:href="util_8c.html" target="_top" xlink:title=" ">
<polygon fill="white" stroke="black" points="0,-112.5 0,-131.5 41,-131.5 41,-112.5 0,-112.5"/>
<text text-anchor="middle" x="20.5" y="-119.5" font-family="FreeSans" font-size="10.00">util.c</text>
</a>
</g>
</g>
<!-- Node1&#45;&gt;Node7 -->
<g id="edge39" class="edge">
<title>Node1&#45;&gt;Node7</title>
<path fill="none" stroke="midnightblue" d="M210.36,-277.35C165.87,-262.89 95.31,-234.32 50.5,-188 34.6,-171.56 26.06,-145.18 22.51,-131.63"/>
<polygon fill="midnightblue" stroke="midnightblue" points="209.4,-280.71 219.99,-280.39 211.51,-274.04 209.4,-280.71"/>
</g>
<!-- Node3 -->
<g id="node3" class="node">
<title>Node3</title>
<g id="a_node3"><a xlink:href="lcd_8h.html" target="_top" xlink:title="Library for LCD use.">
<polygon fill="white" stroke="black" points="87.5,-168.5 87.5,-187.5 127.5,-187.5 127.5,-168.5 87.5,-168.5"/>
<text text-anchor="middle" x="107.5" y="-175.5" font-family="FreeSans" font-size="10.00">lcd.h</text>
</a>
</g>
</g>
<!-- Node2&#45;&gt;Node3 -->
<g id="edge2" class="edge">
<title>Node2&#45;&gt;Node3</title>
<path fill="none" stroke="midnightblue" d="M481.95,-227.72C394.81,-216.38 192.38,-190.05 127.73,-181.63"/>
<polygon fill="midnightblue" stroke="midnightblue" points="481.62,-231.21 491.98,-229.03 482.52,-224.27 481.62,-231.21"/>
</g>
<!-- Node4 -->
<g id="node4" class="node">
<title>Node4</title>
<g id="a_node4"><a xlink:href="os__core_8c.html" target="_top" xlink:title=" ">
<polygon fill="white" stroke="black" points="577.5,-112.5 577.5,-131.5 639.5,-131.5 639.5,-112.5 577.5,-112.5"/>
<text text-anchor="middle" x="608.5" y="-119.5" font-family="FreeSans" font-size="10.00">os_core.c</text>
</a>
</g>
</g>
<!-- Node2&#45;&gt;Node4 -->
<g id="edge22" class="edge">
<title>Node2&#45;&gt;Node4</title>
<path fill="none" stroke="midnightblue" d="M537.99,-217.06C545.9,-208.65 555.52,-198.03 563.5,-188 578.88,-168.67 594.88,-144.39 603.02,-131.67"/>
<polygon fill="midnightblue" stroke="midnightblue" points="535.4,-214.69 531.03,-224.34 540.47,-219.53 535.4,-214.69"/>
</g>
<!-- Node6 -->
<g id="node6" class="node">
<title>Node6</title>
<g id="a_node6"><a xlink:href="os__taskman_8c.html" target="_top" xlink:title=" ">
<polygon fill="white" stroke="black" points="583.5,-0.5 583.5,-19.5 667.5,-19.5 667.5,-0.5 583.5,-0.5"/>
<text text-anchor="middle" x="625.5" y="-7.5" font-family="FreeSans" font-size="10.00">os_taskman.c</text>
</a>
</g>
</g>
<!-- Node2&#45;&gt;Node6 -->
<g id="edge36" class="edge">
<title>Node2&#45;&gt;Node6</title>
<path fill="none" stroke="midnightblue" d="M563.34,-233.27C637.23,-232.71 797.34,-226.65 925.5,-188 977.64,-172.27 986.57,-157.86 1034.5,-132 1078.99,-108 1108.03,-119.67 1133.5,-76 1137.98,-68.32 1139.5,-62.56 1133.5,-56 1102.3,-21.92 784.2,-13.5 667.84,-11.55"/>
<polygon fill="midnightblue" stroke="midnightblue" points="563.06,-229.77 553.08,-233.32 563.09,-236.77 563.06,-229.77"/>
</g>
<!-- Node2&#45;&gt;Node7 -->
<g id="edge38" class="edge">
<title>Node2&#45;&gt;Node7</title>
<path fill="none" stroke="midnightblue" d="M481.8,-232.6C385.88,-231.06 148.44,-223.67 78.5,-188 53.17,-175.08 33.76,-146.08 25.24,-131.59"/>
<polygon fill="midnightblue" stroke="midnightblue" points="481.93,-236.1 491.98,-232.75 482.03,-229.1 481.93,-236.1"/>
</g>
<!-- Node8 -->
<g id="node8" class="node">
<title>Node8</title>
<g id="a_node8"><a xlink:href="os__scheduler_8h.html" target="_top" xlink:title="Scheduling module for the OS.">
<polygon fill="white" stroke="black" points="365,-168.5 365,-187.5 454,-187.5 454,-168.5 365,-168.5"/>
<text text-anchor="middle" x="409.5" y="-175.5" font-family="FreeSans" font-size="10.00">os_scheduler.h</text>
</a>
</g>
</g>
<!-- Node2&#45;&gt;Node8 -->
<g id="edge7" class="edge">
<title>Node2&#45;&gt;Node8</title>
<path fill="none" stroke="midnightblue" d="M495.5,-220.1C474.39,-210.01 445.64,-196.27 427.32,-187.52"/>
<polygon fill="midnightblue" stroke="midnightblue" points="494.06,-223.29 504.59,-224.44 497.08,-216.97 494.06,-223.29"/>
</g>
<!-- Node9 -->
<g id="node9" class="node">
<title>Node9</title>
<g id="a_node9"><a xlink:href="os__mem__drivers_8c.html" target="_top" xlink:title=" ">
<polygon fill="white" stroke="black" points="135.5,-112.5 135.5,-131.5 241.5,-131.5 241.5,-112.5 135.5,-112.5"/>
<text text-anchor="middle" x="188.5" y="-119.5" font-family="FreeSans" font-size="10.00">os_mem_drivers.c</text>
</a>
</g>
</g>
<!-- Node2&#45;&gt;Node9 -->
<g id="edge32" class="edge">
<title>Node2&#45;&gt;Node9</title>
<path fill="none" stroke="midnightblue" d="M481.95,-223.27C448.13,-214.85 398.8,-201.87 356.5,-188 302.27,-170.21 239.98,-144.75 208.68,-131.6"/>
<polygon fill="midnightblue" stroke="midnightblue" points="481.38,-226.73 491.93,-225.73 483.06,-219.94 481.38,-226.73"/>
</g>
<!-- Node13 -->
<g id="node13" class="node">
<title>Node13</title>
<g id="a_node13"><a xlink:href="os__user__privileges_8h.html" target="_top" xlink:title="User privileges specification used in part by the Taskman.">
<polygon fill="white" stroke="black" points="567.5,-56.5 567.5,-75.5 683.5,-75.5 683.5,-56.5 567.5,-56.5"/>
<text text-anchor="middle" x="625.5" y="-63.5" font-family="FreeSans" font-size="10.00">os_user_privileges.h</text>
</a>
</g>
</g>
<!-- Node2&#45;&gt;Node13 -->
<g id="edge37" class="edge">
<title>Node2&#45;&gt;Node13</title>
<path fill="none" stroke="midnightblue" d="M551.23,-220C582.09,-204.21 629.29,-174.34 648.5,-132 657.4,-112.38 642.42,-88.21 632.73,-75.6"/>
<polygon fill="midnightblue" stroke="midnightblue" points="549.64,-216.88 542.22,-224.44 552.74,-223.15 549.64,-216.88"/>
</g>
<!-- Node14 -->
<g id="node14" class="node">
<title>Node14</title>
<g id="a_node14"><a xlink:href="os__scheduling__strategies_8h.html" target="_top" xlink:title="Scheduling library for the OS.">
<polygon fill="white" stroke="black" points="335,-112.5 335,-131.5 484,-131.5 484,-112.5 335,-112.5"/>
<text text-anchor="middle" x="409.5" y="-119.5" font-family="FreeSans" font-size="10.00">os_scheduling_strategies.h</text>
</a>
</g>
</g>
<!-- Node2&#45;&gt;Node14 -->
<g id="edge34" class="edge">
<title>Node2&#45;&gt;Node14</title>
<path fill="none" stroke="midnightblue" d="M508.47,-216.29C496.88,-202.8 479.75,-183.57 463.5,-168 449.4,-154.49 431.83,-140.29 420.64,-131.54"/>
<polygon fill="midnightblue" stroke="midnightblue" points="506.08,-218.88 515.22,-224.23 511.41,-214.35 506.08,-218.88"/>
</g>
<!-- Node15 -->
<g id="node15" class="node">
<title>Node15</title>
<g id="a_node15"><a xlink:href="os__scheduling__strategies_8c.html" target="_top" xlink:title=" ">
<polygon fill="white" stroke="black" points="401.5,-56.5 401.5,-75.5 549.5,-75.5 549.5,-56.5 401.5,-56.5"/>
<text text-anchor="middle" x="475.5" y="-63.5" font-family="FreeSans" font-size="10.00">os_scheduling_strategies.c</text>
</a>
</g>
</g>
<!-- Node2&#45;&gt;Node15 -->
<g id="edge35" class="edge">
<title>Node2&#45;&gt;Node15</title>
<path fill="none" stroke="midnightblue" d="M518.95,-214.54C514.14,-190.61 504.86,-147.72 493.5,-112 489.42,-99.17 483.41,-84.8 479.47,-75.83"/>
<polygon fill="midnightblue" stroke="midnightblue" points="515.52,-215.24 520.88,-224.37 522.39,-213.89 515.52,-215.24"/>
</g>
<!-- Node16 -->
<g id="node16" class="node">
<title>Node16</title>
<g id="a_node16"><a xlink:href="os__memheap__drivers_8h.html" target="_top" xlink:title="Drivers for OS heap management.">
<polygon fill="white" stroke="black" points="734,-168.5 734,-187.5 865,-187.5 865,-168.5 734,-168.5"/>
<text text-anchor="middle" x="799.5" y="-175.5" font-family="FreeSans" font-size="10.00">os_memheap_drivers.h</text>
</a>
</g>
</g>
<!-- Node2&#45;&gt;Node16 -->
<g id="edge23" class="edge">
<title>Node2&#45;&gt;Node16</title>
<path fill="none" stroke="midnightblue" d="M563.28,-225.05C614.65,-215.04 702.58,-197.89 755.45,-187.59"/>
<polygon fill="midnightblue" stroke="midnightblue" points="562.35,-221.67 553.2,-227.01 563.69,-228.54 562.35,-221.67"/>
</g>
<!-- Node17 -->
<g id="node17" class="node">
<title>Node17</title>
<g id="a_node17"><a xlink:href="os__memheap__drivers_8c.html" target="_top" xlink:title=" ">
<polygon fill="white" stroke="black" points="994.5,-56.5 994.5,-75.5 1124.5,-75.5 1124.5,-56.5 994.5,-56.5"/>
<text text-anchor="middle" x="1059.5" y="-63.5" font-family="FreeSans" font-size="10.00">os_memheap_drivers.c</text>
</a>
</g>
</g>
<!-- Node2&#45;&gt;Node17 -->
<g id="edge33" class="edge">
<title>Node2&#45;&gt;Node17</title>
<path fill="none" stroke="midnightblue" d="M563.17,-231.24C629.4,-227.62 764.23,-217.05 874.5,-188 938.11,-171.24 959.59,-172.4 1011.5,-132 1031.87,-116.15 1047.75,-89.5 1055.08,-75.77"/>
<polygon fill="midnightblue" stroke="midnightblue" points="562.95,-227.75 553.14,-231.77 563.31,-234.74 562.95,-227.75"/>
</g>
<!-- Node3&#45;&gt;Node4 -->
<g id="edge3" class="edge">
<title>Node3&#45;&gt;Node4</title>
<path fill="none" stroke="midnightblue" d="M137.74,-173.74C226.74,-164.15 487.14,-136.08 577.32,-126.36"/>
<polygon fill="midnightblue" stroke="midnightblue" points="137.33,-170.26 127.76,-174.82 138.08,-177.22 137.33,-170.26"/>
</g>
<!-- Node5 -->
<g id="node5" class="node">
<title>Node5</title>
<g id="a_node5"><a xlink:href="os__scheduler_8c.html" target="_top" xlink:title=" ">
<polygon fill="white" stroke="black" points="295.5,-56.5 295.5,-75.5 383.5,-75.5 383.5,-56.5 295.5,-56.5"/>
<text text-anchor="middle" x="339.5" y="-63.5" font-family="FreeSans" font-size="10.00">os_scheduler.c</text>
</a>
</g>
</g>
<!-- Node3&#45;&gt;Node5 -->
<g id="edge4" class="edge">
<title>Node3&#45;&gt;Node5</title>
<path fill="none" stroke="midnightblue" d="M108.01,-158C109.45,-143.37 113.84,-123.73 126.5,-112 150.62,-89.65 240.35,-76.89 295.36,-71.01"/>
<polygon fill="midnightblue" stroke="midnightblue" points="104.49,-158.22 107.39,-168.41 111.48,-158.64 104.49,-158.22"/>
</g>
<!-- Node3&#45;&gt;Node6 -->
<g id="edge5" class="edge">
<title>Node3&#45;&gt;Node6</title>
<path fill="none" stroke="midnightblue" d="M103.16,-158.38C101.01,-144.26 100.65,-125.12 110.5,-112 156.74,-50.4 199.48,-73.43 274.5,-56 384.31,-30.49 517.04,-18.43 583.41,-13.64"/>
<polygon fill="midnightblue" stroke="midnightblue" points="99.77,-159.26 105.12,-168.41 106.64,-157.93 99.77,-159.26"/>
</g>
<!-- Node3&#45;&gt;Node7 -->
<g id="edge6" class="edge">
<title>Node3&#45;&gt;Node7</title>
<path fill="none" stroke="midnightblue" d="M84.78,-162.9C68.83,-153 48,-140.07 34.44,-131.65"/>
<polygon fill="midnightblue" stroke="midnightblue" points="83.18,-166.02 93.52,-168.32 86.87,-160.08 83.18,-166.02"/>
</g>
<!-- Node8&#45;&gt;Node5 -->
<g id="edge16" class="edge">
<title>Node8&#45;&gt;Node5</title>
<path fill="none" stroke="midnightblue" d="M367.64,-164.61C351.89,-157.69 335.6,-147.28 326.5,-132 315.79,-114 326.88,-88.74 334.18,-75.64"/>
<polygon fill="midnightblue" stroke="midnightblue" points="366.73,-168.02 377.32,-168.49 369.33,-161.52 366.73,-168.02"/>
</g>
<!-- Node8&#45;&gt;Node6 -->
<g id="edge20" class="edge">
<title>Node8&#45;&gt;Node6</title>
<path fill="none" stroke="midnightblue" d="M371.82,-164.65C353.78,-157.32 332.83,-146.57 317.5,-132 291.06,-106.87 262.46,-83.44 286.5,-56 305.79,-33.98 496.61,-19.18 583.18,-13.54"/>
<polygon fill="midnightblue" stroke="midnightblue" points="370.89,-168.04 381.48,-168.37 373.41,-161.51 370.89,-168.04"/>
</g>
<!-- Node8&#45;&gt;Node9 -->
<g id="edge8" class="edge">
<title>Node8&#45;&gt;Node9</title>
<path fill="none" stroke="midnightblue" d="M364.58,-166.02C322.83,-155.82 261.52,-140.84 223.35,-131.52"/>
<polygon fill="midnightblue" stroke="midnightblue" points="363.94,-169.47 374.48,-168.44 365.6,-162.67 363.94,-169.47"/>
</g>
<!-- Node10 -->
<g id="node10" class="node">
<title>Node10</title>
<g id="a_node10"><a xlink:href="os__memory_8h.html" target="_top" xlink:title="Library for OS memory management.">
<polygon fill="white" stroke="black" points="733.5,-112.5 733.5,-131.5 815.5,-131.5 815.5,-112.5 733.5,-112.5"/>
<text text-anchor="middle" x="774.5" y="-119.5" font-family="FreeSans" font-size="10.00">os_memory.h</text>
</a>
</g>
</g>
<!-- Node8&#45;&gt;Node10 -->
<g id="edge9" class="edge">
<title>Node8&#45;&gt;Node10</title>
<path fill="none" stroke="midnightblue" d="M464.27,-168.9C537.95,-158 667.35,-138.85 733.32,-129.09"/>
<polygon fill="midnightblue" stroke="midnightblue" points="463.64,-165.45 454.26,-170.38 464.66,-172.38 463.64,-165.45"/>
</g>
<!-- Node8&#45;&gt;Node13 -->
<g id="edge21" class="edge">
<title>Node8&#45;&gt;Node13</title>
<path fill="none" stroke="midnightblue" d="M435.55,-163.73C480.42,-140.88 571.09,-94.71 608.63,-75.59"/>
<polygon fill="midnightblue" stroke="midnightblue" points="433.77,-160.71 426.45,-168.37 436.95,-166.95 433.77,-160.71"/>
</g>
<!-- Node8&#45;&gt;Node14 -->
<g id="edge17" class="edge">
<title>Node8&#45;&gt;Node14</title>
<path fill="none" stroke="midnightblue" d="M409.5,-157.8C409.5,-148.91 409.5,-138.78 409.5,-131.75"/>
<polygon fill="midnightblue" stroke="midnightblue" points="406,-158.08 409.5,-168.08 413,-158.08 406,-158.08"/>
</g>
<!-- Node10&#45;&gt;Node5 -->
<g id="edge12" class="edge">
<title>Node10&#45;&gt;Node5</title>
<path fill="none" stroke="midnightblue" d="M723.07,-115.78C649.62,-108.14 510.47,-92.95 392.5,-76 389.64,-75.59 386.69,-75.14 383.72,-74.68"/>
<polygon fill="midnightblue" stroke="midnightblue" points="723.12,-119.31 733.43,-116.86 723.84,-112.34 723.12,-119.31"/>
</g>
<!-- Node10&#45;&gt;Node6 -->
<g id="edge15" class="edge">
<title>Node10&#45;&gt;Node6</title>
<path fill="none" stroke="midnightblue" d="M756.35,-105.94C739.94,-92.48 714.99,-72.42 692.5,-56 674.4,-42.78 652.75,-28.5 639.06,-19.66"/>
<polygon fill="midnightblue" stroke="midnightblue" points="754.15,-108.66 764.09,-112.31 758.6,-103.25 754.15,-108.66"/>
</g>
<!-- Node11 -->
<g id="node11" class="node">
<title>Node11</title>
<g id="a_node11"><a xlink:href="os__memory_8c.html" target="_top" xlink:title=" ">
<polygon fill="white" stroke="black" points="740,-56.5 740,-75.5 821,-75.5 821,-56.5 740,-56.5"/>
<text text-anchor="middle" x="780.5" y="-63.5" font-family="FreeSans" font-size="10.00">os_memory.c</text>
</a>
</g>
</g>
<!-- Node10&#45;&gt;Node11 -->
<g id="edge10" class="edge">
<title>Node10&#45;&gt;Node11</title>
<path fill="none" stroke="midnightblue" d="M776.6,-102.1C777.6,-93.14 778.74,-82.86 779.53,-75.75"/>
<polygon fill="midnightblue" stroke="midnightblue" points="773.12,-101.76 775.49,-112.08 780.07,-102.53 773.12,-101.76"/>
</g>
<!-- Node12 -->
<g id="node12" class="node">
<title>Node12</title>
<g id="a_node12"><a xlink:href="os__memory__strategies_8c.html" target="_top" xlink:title=" ">
<polygon fill="white" stroke="black" points="839,-56.5 839,-75.5 976,-75.5 976,-56.5 839,-56.5"/>
<text text-anchor="middle" x="907.5" y="-63.5" font-family="FreeSans" font-size="10.00">os_memory_strategies.c</text>
</a>
</g>
</g>
<!-- Node10&#45;&gt;Node12 -->
<g id="edge11" class="edge">
<title>Node10&#45;&gt;Node12</title>
<path fill="none" stroke="midnightblue" d="M804.95,-108.64C829.91,-98.5 864.58,-84.43 886.52,-75.52"/>
<polygon fill="midnightblue" stroke="midnightblue" points="803.52,-105.44 795.57,-112.44 806.16,-111.92 803.52,-105.44"/>
</g>
<!-- Node10&#45;&gt;Node13 -->
<g id="edge13" class="edge">
<title>Node10&#45;&gt;Node13</title>
<path fill="none" stroke="midnightblue" d="M741.13,-108.91C713.12,-98.75 673.8,-84.51 649,-75.52"/>
<polygon fill="midnightblue" stroke="midnightblue" points="740.3,-112.33 750.89,-112.44 742.68,-105.75 740.3,-112.33"/>
</g>
<!-- Node13&#45;&gt;Node6 -->
<g id="edge14" class="edge">
<title>Node13&#45;&gt;Node6</title>
<path fill="none" stroke="midnightblue" d="M625.5,-45.8C625.5,-36.91 625.5,-26.78 625.5,-19.75"/>
<polygon fill="midnightblue" stroke="midnightblue" points="622,-46.08 625.5,-56.08 629,-46.08 622,-46.08"/>
</g>
<!-- Node14&#45;&gt;Node5 -->
<g id="edge18" class="edge">
<title>Node14&#45;&gt;Node5</title>
<path fill="none" stroke="midnightblue" d="M390.19,-106.1C377.59,-96.38 361.57,-84.03 350.95,-75.83"/>
<polygon fill="midnightblue" stroke="midnightblue" points="388.2,-108.99 398.25,-112.32 392.47,-103.44 388.2,-108.99"/>
</g>
<!-- Node14&#45;&gt;Node15 -->
<g id="edge19" class="edge">
<title>Node14&#45;&gt;Node15</title>
<path fill="none" stroke="midnightblue" d="M428.05,-105.82C439.88,-96.15 454.79,-83.95 464.7,-75.83"/>
<polygon fill="midnightblue" stroke="midnightblue" points="425.63,-103.28 420.1,-112.32 430.06,-108.7 425.63,-103.28"/>
</g>
<!-- Node16&#45;&gt;Node4 -->
<g id="edge24" class="edge">
<title>Node16&#45;&gt;Node4</title>
<path fill="none" stroke="midnightblue" d="M759.53,-165.7C723.48,-155.51 671.26,-140.74 638.62,-131.52"/>
<polygon fill="midnightblue" stroke="midnightblue" points="758.66,-169.09 769.24,-168.44 760.56,-162.35 758.66,-169.09"/>
</g>
<!-- Node16&#45;&gt;Node5 -->
<g id="edge31" class="edge">
<title>Node16&#45;&gt;Node5</title>
<path fill="none" stroke="midnightblue" d="M774.14,-163.58C744.74,-148.63 694.43,-124.86 648.5,-112 537.86,-81.01 506.04,-93.62 392.5,-76 389.64,-75.56 386.7,-75.09 383.73,-74.61"/>
<polygon fill="midnightblue" stroke="midnightblue" points="772.78,-166.82 783.27,-168.29 775.98,-160.6 772.78,-166.82"/>
</g>
<!-- Node16&#45;&gt;Node10 -->
<g id="edge30" class="edge">
<title>Node16&#45;&gt;Node10</title>
<path fill="none" stroke="midnightblue" d="M791.16,-158.98C786.92,-149.82 781.95,-139.09 778.55,-131.75"/>
<polygon fill="midnightblue" stroke="midnightblue" points="787.99,-160.48 795.37,-168.08 794.35,-157.54 787.99,-160.48"/>
</g>
<!-- Node16&#45;&gt;Node17 -->
<g id="edge25" class="edge">
<title>Node16&#45;&gt;Node17</title>
<path fill="none" stroke="midnightblue" d="M875.13,-166.73C909.52,-160.02 949.94,-149.2 983.5,-132 1012.24,-117.27 1039.34,-89.63 1052.01,-75.62"/>
<polygon fill="midnightblue" stroke="midnightblue" points="874.32,-163.32 865.13,-168.6 875.6,-170.2 874.32,-163.32"/>
</g>
<!-- Node18 -->
<g id="node18" class="node">
<title>Node18</title>
<g id="a_node18"><a xlink:href="os__memory__strategies_8h.html" target="_top" xlink:title="Memory allocation library for the OS.">
<polygon fill="white" stroke="black" points="837,-112.5 837,-131.5 974,-131.5 974,-112.5 837,-112.5"/>
<text text-anchor="middle" x="905.5" y="-119.5" font-family="FreeSans" font-size="10.00">os_memory_strategies.h</text>
</a>
</g>
</g>
<!-- Node16&#45;&gt;Node18 -->
<g id="edge26" class="edge">
<title>Node16&#45;&gt;Node18</title>
<path fill="none" stroke="midnightblue" d="M825.56,-163.73C845.18,-153.73 871.53,-140.31 888.51,-131.65"/>
<polygon fill="midnightblue" stroke="midnightblue" points="823.85,-160.67 816.53,-168.32 827.03,-166.9 823.85,-160.67"/>
</g>
<!-- Node18&#45;&gt;Node11 -->
<g id="edge28" class="edge">
<title>Node18&#45;&gt;Node11</title>
<path fill="none" stroke="midnightblue" d="M876.26,-108.37C852.85,-98.26 820.66,-84.35 800.21,-75.52"/>
<polygon fill="midnightblue" stroke="midnightblue" points="875.13,-111.69 885.69,-112.44 877.9,-105.26 875.13,-111.69"/>
</g>
<!-- Node18&#45;&gt;Node12 -->
<g id="edge29" class="edge">
<title>Node18&#45;&gt;Node12</title>
<path fill="none" stroke="midnightblue" d="M906.21,-101.8C906.54,-92.91 906.92,-82.78 907.18,-75.75"/>
<polygon fill="midnightblue" stroke="midnightblue" points="902.7,-101.96 905.83,-112.08 909.7,-102.22 902.7,-101.96"/>
</g>
<!-- Node18&#45;&gt;Node17 -->
<g id="edge27" class="edge">
<title>Node18&#45;&gt;Node17</title>
<path fill="none" stroke="midnightblue" d="M939.61,-109.04C968.59,-98.88 1009.46,-84.55 1035.21,-75.52"/>
<polygon fill="midnightblue" stroke="midnightblue" points="938.18,-105.83 929.9,-112.44 940.5,-112.44 938.18,-105.83"/>
</g>
</g>
</svg>
