<?xml version="1.0" encoding="UTF-8" standalone="no"?>
<!DOCTYPE svg PUBLIC "-//W3C//DTD SVG 1.1//EN"
 "http://www.w3.org/Graphics/SVG/1.1/DTD/svg11.dtd">
<!-- Generated by graphviz version 2.43.0 (0)
 -->
<!-- Title: defines.h Pages: 1 -->
<svg width="1025pt" height="252pt"
 viewBox="0.00 0.00 1024.79 252.00" xmlns="http://www.w3.org/2000/svg" xmlns:xlink="http://www.w3.org/1999/xlink">
<g id="graph0" class="graph" transform="scale(1 1) rotate(0) translate(4 248)">
<title>defines.h</title>
<polygon fill="white" stroke="transparent" points="-4,4 -4,-248 1020.79,-248 1020.79,4 -4,4"/>
<!-- Node1 -->
<g id="node1" class="node">
<title>Node1</title>
<g id="a_node1"><a xlink:title="Simple definitions and assembler&#45;macros, mostly 8/16&#45;Bit values.">
<polygon fill="#bfbfbf" stroke="black" points="543.53,-224.5 543.53,-243.5 604.53,-243.5 604.53,-224.5 543.53,-224.5"/>
<text text-anchor="middle" x="574.03" y="-231.5" font-family="FreeSans" font-size="10.00">defines.h</text>
</a>
</g>
</g>
<!-- Node2 -->
<g id="node2" class="node">
<title>Node2</title>
<g id="a_node2"><a xlink:href="lcd_8h.html" target="_top" xlink:title="Library for LCD use.">
<polygon fill="white" stroke="black" points="104.03,-168.5 104.03,-187.5 144.03,-187.5 144.03,-168.5 104.03,-168.5"/>
<text text-anchor="middle" x="124.03" y="-175.5" font-family="FreeSans" font-size="10.00">lcd.h</text>
</a>
</g>
</g>
<!-- Node1&#45;&gt;Node2 -->
<g id="edge1" class="edge">
<title>Node1&#45;&gt;Node2</title>
<path fill="none" stroke="midnightblue" d="M533.27,-228.11C439.9,-216.9 213.27,-189.71 144.29,-181.43"/>
<polygon fill="midnightblue" stroke="midnightblue" points="533.11,-231.61 543.45,-229.33 533.94,-224.66 533.11,-231.61"/>
</g>
<!-- Node3 -->
<g id="node3" class="node">
<title>Node3</title>
<g id="a_node3"><a xlink:href="os__core_8c.html" target="_top" xlink:title=" ">
<polygon fill="white" stroke="black" points="152.03,-112.5 152.03,-131.5 214.03,-131.5 214.03,-112.5 152.03,-112.5"/>
<text text-anchor="middle" x="183.03" y="-119.5" font-family="FreeSans" font-size="10.00">os_core.c</text>
</a>
</g>
</g>
<!-- Node1&#45;&gt;Node3 -->
<g id="edge21" class="edge">
<title>Node1&#45;&gt;Node3</title>
<path fill="none" stroke="midnightblue" d="M533.19,-228.58C483.78,-222.54 398.48,-209.88 328.03,-188 279.03,-172.78 224.69,-145.36 198.63,-131.51"/>
<polygon fill="midnightblue" stroke="midnightblue" points="532.82,-232.06 543.17,-229.77 533.65,-225.11 532.82,-232.06"/>
</g>
<!-- Node5 -->
<g id="node5" class="node">
<title>Node5</title>
<g id="a_node5"><a xlink:href="os__taskman_8c.html" target="_top" xlink:title=" ">
<polygon fill="white" stroke="black" points="617.03,-0.5 617.03,-19.5 701.03,-19.5 701.03,-0.5 617.03,-0.5"/>
<text text-anchor="middle" x="659.03" y="-7.5" font-family="FreeSans" font-size="10.00">os_taskman.c</text>
</a>
</g>
</g>
<!-- Node1&#45;&gt;Node5 -->
<g id="edge35" class="edge">
<title>Node1&#45;&gt;Node5</title>
<path fill="none" stroke="midnightblue" d="M614.87,-233.21C681.22,-232.36 815.73,-225.62 922.03,-188 966.8,-172.16 989.87,-173.46 1013.03,-132 1028.57,-104.2 988.18,-59.59 983.03,-56 938.3,-24.84 778.41,-15.11 701.27,-12.19"/>
<polygon fill="midnightblue" stroke="midnightblue" points="614.78,-229.71 604.82,-233.3 614.85,-236.71 614.78,-229.71"/>
</g>
<!-- Node6 -->
<g id="node6" class="node">
<title>Node6</title>
<g id="a_node6"><a xlink:href="util_8c.html" target="_top" xlink:title=" ">
<polygon fill="white" stroke="black" points="16.53,-112.5 16.53,-131.5 57.53,-131.5 57.53,-112.5 16.53,-112.5"/>
<text text-anchor="middle" x="37.03" y="-119.5" font-family="FreeSans" font-size="10.00">util.c</text>
</a>
</g>
</g>
<!-- Node1&#45;&gt;Node6 -->
<g id="edge37" class="edge">
<title>Node1&#45;&gt;Node6</title>
<path fill="none" stroke="midnightblue" d="M533.31,-232.95C432.01,-232.23 171.35,-226.57 95.03,-188 69.65,-175.17 50.27,-146.13 41.76,-131.61"/>
<polygon fill="midnightblue" stroke="midnightblue" points="533.43,-236.45 543.45,-233.01 533.47,-229.45 533.43,-236.45"/>
</g>
<!-- Node7 -->
<g id="node7" class="node">
<title>Node7</title>
<g id="a_node7"><a xlink:href="os__scheduler_8h.html" target="_top" xlink:title="Scheduling module for the OS.">
<polygon fill="white" stroke="black" points="605.53,-168.5 605.53,-187.5 694.53,-187.5 694.53,-168.5 605.53,-168.5"/>
<text text-anchor="middle" x="650.03" y="-175.5" font-family="FreeSans" font-size="10.00">os_scheduler.h</text>
</a>
</g>
</g>
<!-- Node1&#45;&gt;Node7 -->
<g id="edge6" class="edge">
<title>Node1&#45;&gt;Node7</title>
<path fill="none" stroke="midnightblue" d="M594.61,-218.38C608.34,-208.62 625.96,-196.11 637.6,-187.83"/>
<polygon fill="midnightblue" stroke="midnightblue" points="592.37,-215.68 586.24,-224.32 596.42,-221.38 592.37,-215.68"/>
</g>
<!-- Node8 -->
<g id="node8" class="node">
<title>Node8</title>
<g id="a_node8"><a xlink:href="os__mem__drivers_8c.html" target="_top" xlink:title=" ">
<polygon fill="white" stroke="black" points="882.03,-112.5 882.03,-131.5 988.03,-131.5 988.03,-112.5 882.03,-112.5"/>
<text text-anchor="middle" x="935.03" y="-119.5" font-family="FreeSans" font-size="10.00">os_mem_drivers.c</text>
</a>
</g>
</g>
<!-- Node1&#45;&gt;Node8 -->
<g id="edge31" class="edge">
<title>Node1&#45;&gt;Node8</title>
<path fill="none" stroke="midnightblue" d="M614.55,-221.96C646.75,-213.08 692.89,-200.13 733.03,-188 796.68,-168.76 871,-144.34 909.29,-131.61"/>
<polygon fill="midnightblue" stroke="midnightblue" points="613.32,-218.67 604.61,-224.69 615.18,-225.42 613.32,-218.67"/>
</g>
<!-- Node12 -->
<g id="node12" class="node">
<title>Node12</title>
<g id="a_node12"><a xlink:href="os__user__privileges_8h.html" target="_top" xlink:title="User privileges specification used in part by the Taskman.">
<polygon fill="white" stroke="black" points="601.03,-56.5 601.03,-75.5 717.03,-75.5 717.03,-56.5 601.03,-56.5"/>
<text text-anchor="middle" x="659.03" y="-63.5" font-family="FreeSans" font-size="10.00">os_user_privileges.h</text>
</a>
</g>
</g>
<!-- Node1&#45;&gt;Node12 -->
<g id="edge36" class="edge">
<title>Node1&#45;&gt;Node12</title>
<path fill="none" stroke="midnightblue" d="M579.42,-214.55C583.56,-201.31 589.78,-183.19 597.03,-168 614.22,-131.98 640.96,-92.55 652.91,-75.56"/>
<polygon fill="midnightblue" stroke="midnightblue" points="576,-213.77 576.45,-224.36 582.7,-215.8 576,-213.77"/>
</g>
<!-- Node13 -->
<g id="node13" class="node">
<title>Node13</title>
<g id="a_node13"><a xlink:href="os__scheduling__strategies_8h.html" target="_top" xlink:title="Scheduling library for the OS.">
<polygon fill="white" stroke="black" points="715.53,-112.5 715.53,-131.5 864.53,-131.5 864.53,-112.5 715.53,-112.5"/>
<text text-anchor="middle" x="790.03" y="-119.5" font-family="FreeSans" font-size="10.00">os_scheduling_strategies.h</text>
</a>
</g>
</g>
<!-- Node1&#45;&gt;Node13 -->
<g id="edge33" class="edge">
<title>Node1&#45;&gt;Node13</title>
<path fill="none" stroke="midnightblue" d="M614.25,-222.63C640.65,-214.98 675.45,-203.26 704.03,-188 734.41,-171.79 765.55,-145.3 780.66,-131.69"/>
<polygon fill="midnightblue" stroke="midnightblue" points="613.25,-219.28 604.57,-225.36 615.15,-226.01 613.25,-219.28"/>
</g>
<!-- Node14 -->
<g id="node14" class="node">
<title>Node14</title>
<g id="a_node14"><a xlink:href="os__scheduling__strategies_8c.html" target="_top" xlink:title=" ">
<polygon fill="white" stroke="black" points="826.03,-56.5 826.03,-75.5 974.03,-75.5 974.03,-56.5 826.03,-56.5"/>
<text text-anchor="middle" x="900.03" y="-63.5" font-family="FreeSans" font-size="10.00">os_scheduling_strategies.c</text>
</a>
</g>
</g>
<!-- Node1&#45;&gt;Node14 -->
<g id="edge34" class="edge">
<title>Node1&#45;&gt;Node14</title>
<path fill="none" stroke="midnightblue" d="M614.73,-229.6C711.34,-220.59 949.98,-192.53 997.03,-132 1017.75,-105.35 970.48,-85.87 934.9,-75.51"/>
<polygon fill="midnightblue" stroke="midnightblue" points="614.39,-226.11 604.75,-230.51 615.02,-233.09 614.39,-226.11"/>
</g>
<!-- Node15 -->
<g id="node15" class="node">
<title>Node15</title>
<g id="a_node15"><a xlink:href="os__memheap__drivers_8h.html" target="_top" xlink:title="Drivers for OS heap management.">
<polygon fill="white" stroke="black" points="337.53,-168.5 337.53,-187.5 468.53,-187.5 468.53,-168.5 337.53,-168.5"/>
<text text-anchor="middle" x="403.03" y="-175.5" font-family="FreeSans" font-size="10.00">os_memheap_drivers.h</text>
</a>
</g>
</g>
<!-- Node1&#45;&gt;Node15 -->
<g id="edge22" class="edge">
<title>Node1&#45;&gt;Node15</title>
<path fill="none" stroke="midnightblue" d="M537,-221.3C504.77,-211.13 458.84,-196.62 430,-187.52"/>
<polygon fill="midnightblue" stroke="midnightblue" points="536.35,-224.77 546.94,-224.44 538.45,-218.09 536.35,-224.77"/>
</g>
<!-- Node16 -->
<g id="node16" class="node">
<title>Node16</title>
<g id="a_node16"><a xlink:href="os__memheap__drivers_8c.html" target="_top" xlink:title=" ">
<polygon fill="white" stroke="black" points="54.03,-56.5 54.03,-75.5 184.03,-75.5 184.03,-56.5 54.03,-56.5"/>
<text text-anchor="middle" x="119.03" y="-63.5" font-family="FreeSans" font-size="10.00">os_memheap_drivers.c</text>
</a>
</g>
</g>
<!-- Node1&#45;&gt;Node16 -->
<g id="edge32" class="edge">
<title>Node1&#45;&gt;Node16</title>
<path fill="none" stroke="midnightblue" d="M532.97,-232.76C427.6,-231.62 150.12,-225.08 67.03,-188 27.73,-170.46 -17.07,-147.65 7.03,-112 19.94,-92.9 42.43,-81.91 63.89,-75.58"/>
<polygon fill="midnightblue" stroke="midnightblue" points="533.16,-236.27 543.2,-232.86 533.23,-229.27 533.16,-236.27"/>
</g>
<!-- Node2&#45;&gt;Node3 -->
<g id="edge2" class="edge">
<title>Node2&#45;&gt;Node3</title>
<path fill="none" stroke="midnightblue" d="M140.93,-161.54C151.45,-151.91 164.6,-139.87 173.38,-131.83"/>
<polygon fill="midnightblue" stroke="midnightblue" points="138.52,-158.99 133.51,-168.32 143.25,-164.15 138.52,-158.99"/>
</g>
<!-- Node4 -->
<g id="node4" class="node">
<title>Node4</title>
<g id="a_node4"><a xlink:href="os__scheduler_8c.html" target="_top" xlink:title=" ">
<polygon fill="white" stroke="black" points="495.03,-56.5 495.03,-75.5 583.03,-75.5 583.03,-56.5 495.03,-56.5"/>
<text text-anchor="middle" x="539.03" y="-63.5" font-family="FreeSans" font-size="10.00">os_scheduler.c</text>
</a>
</g>
</g>
<!-- Node2&#45;&gt;Node4 -->
<g id="edge3" class="edge">
<title>Node2&#45;&gt;Node4</title>
<path fill="none" stroke="midnightblue" d="M124.21,-158.1C125.44,-143.24 129.7,-123.22 143.03,-112 149.72,-106.37 393.01,-81.55 494.88,-71.37"/>
<polygon fill="midnightblue" stroke="midnightblue" points="120.71,-158.09 123.76,-168.24 127.7,-158.4 120.71,-158.09"/>
</g>
<!-- Node2&#45;&gt;Node5 -->
<g id="edge4" class="edge">
<title>Node2&#45;&gt;Node5</title>
<path fill="none" stroke="midnightblue" d="M108.97,-160.55C87.93,-137.14 51.56,-94.93 45.03,-76 42.13,-67.6 38.98,-62.51 45.03,-56 83.82,-14.26 484.04,-10.83 616.63,-10.85"/>
<polygon fill="midnightblue" stroke="midnightblue" points="106.64,-163.19 115.95,-168.25 111.83,-158.49 106.64,-163.19"/>
</g>
<!-- Node2&#45;&gt;Node6 -->
<g id="edge5" class="edge">
<title>Node2&#45;&gt;Node6</title>
<path fill="none" stroke="midnightblue" d="M101.32,-162.9C85.36,-153 64.53,-140.07 50.97,-131.65"/>
<polygon fill="midnightblue" stroke="midnightblue" points="99.71,-166.02 110.05,-168.32 103.4,-160.08 99.71,-166.02"/>
</g>
<!-- Node7&#45;&gt;Node4 -->
<g id="edge15" class="edge">
<title>Node7&#45;&gt;Node4</title>
<path fill="none" stroke="midnightblue" d="M634.09,-161.21C610.3,-137.63 566.31,-94.03 547.7,-75.59"/>
<polygon fill="midnightblue" stroke="midnightblue" points="631.75,-163.82 641.32,-168.37 636.68,-158.84 631.75,-163.82"/>
</g>
<!-- Node7&#45;&gt;Node5 -->
<g id="edge19" class="edge">
<title>Node7&#45;&gt;Node5</title>
<path fill="none" stroke="midnightblue" d="M664.53,-160.5C684.78,-137.01 719.77,-94.72 726.03,-76 728.85,-67.57 730.21,-63.84 726.03,-56 716.74,-38.56 697.36,-26.68 681.82,-19.53"/>
<polygon fill="midnightblue" stroke="midnightblue" points="661.73,-158.38 657.81,-168.22 667.01,-162.97 661.73,-158.38"/>
</g>
<!-- Node7&#45;&gt;Node8 -->
<g id="edge7" class="edge">
<title>Node7&#45;&gt;Node8</title>
<path fill="none" stroke="midnightblue" d="M704.6,-166.66C758.39,-156.47 839.61,-141.08 889.87,-131.56"/>
<polygon fill="midnightblue" stroke="midnightblue" points="703.74,-163.26 694.56,-168.56 705.04,-170.14 703.74,-163.26"/>
</g>
<!-- Node9 -->
<g id="node9" class="node">
<title>Node9</title>
<g id="a_node9"><a xlink:href="os__memory_8h.html" target="_top" xlink:title="Library for OS memory management.">
<polygon fill="white" stroke="black" points="426.03,-112.5 426.03,-131.5 508.03,-131.5 508.03,-112.5 426.03,-112.5"/>
<text text-anchor="middle" x="467.03" y="-119.5" font-family="FreeSans" font-size="10.00">os_memory.h</text>
</a>
</g>
</g>
<!-- Node7&#45;&gt;Node9 -->
<g id="edge8" class="edge">
<title>Node7&#45;&gt;Node9</title>
<path fill="none" stroke="midnightblue" d="M611.29,-165.57C576.77,-155.38 527.03,-140.7 495.89,-131.52"/>
<polygon fill="midnightblue" stroke="midnightblue" points="610.45,-168.97 621.03,-168.44 612.43,-162.26 610.45,-168.97"/>
</g>
<!-- Node7&#45;&gt;Node12 -->
<g id="edge20" class="edge">
<title>Node7&#45;&gt;Node12</title>
<path fill="none" stroke="midnightblue" d="M651.56,-158.35C653.53,-134.25 656.88,-93.31 658.33,-75.59"/>
<polygon fill="midnightblue" stroke="midnightblue" points="648.06,-158.12 650.74,-168.37 655.04,-158.69 648.06,-158.12"/>
</g>
<!-- Node7&#45;&gt;Node13 -->
<g id="edge16" class="edge">
<title>Node7&#45;&gt;Node13</title>
<path fill="none" stroke="midnightblue" d="M681.73,-164.77C708.03,-154.63 744.75,-140.47 767.95,-131.52"/>
<polygon fill="midnightblue" stroke="midnightblue" points="680.28,-161.58 672.21,-168.44 682.8,-168.11 680.28,-161.58"/>
</g>
<!-- Node9&#45;&gt;Node4 -->
<g id="edge11" class="edge">
<title>Node9&#45;&gt;Node4</title>
<path fill="none" stroke="midnightblue" d="M486.9,-106.1C499.85,-96.38 516.33,-84.03 527.25,-75.83"/>
<polygon fill="midnightblue" stroke="midnightblue" points="484.5,-103.52 478.6,-112.32 488.7,-109.12 484.5,-103.52"/>
</g>
<!-- Node9&#45;&gt;Node5 -->
<g id="edge14" class="edge">
<title>Node9&#45;&gt;Node5</title>
<path fill="none" stroke="midnightblue" d="M467.69,-102.16C469.22,-87.62 473.65,-68.02 486.03,-56 520.88,-22.17 577.78,-12.89 616.74,-10.78"/>
<polygon fill="midnightblue" stroke="midnightblue" points="464.18,-102.28 467,-112.49 471.16,-102.75 464.18,-102.28"/>
</g>
<!-- Node10 -->
<g id="node10" class="node">
<title>Node10</title>
<g id="a_node10"><a xlink:href="os__memory_8c.html" target="_top" xlink:title=" ">
<polygon fill="white" stroke="black" points="202.53,-56.5 202.53,-75.5 283.53,-75.5 283.53,-56.5 202.53,-56.5"/>
<text text-anchor="middle" x="243.03" y="-63.5" font-family="FreeSans" font-size="10.00">os_memory.c</text>
</a>
</g>
</g>
<!-- Node9&#45;&gt;Node10 -->
<g id="edge9" class="edge">
<title>Node9&#45;&gt;Node10</title>
<path fill="none" stroke="midnightblue" d="M421.77,-110.09C379.45,-99.89 317.12,-84.86 278.36,-75.52"/>
<polygon fill="midnightblue" stroke="midnightblue" points="421,-113.5 431.54,-112.44 422.64,-106.7 421,-113.5"/>
</g>
<!-- Node11 -->
<g id="node11" class="node">
<title>Node11</title>
<g id="a_node11"><a xlink:href="os__memory__strategies_8c.html" target="_top" xlink:title=" ">
<polygon fill="white" stroke="black" points="301.53,-56.5 301.53,-75.5 438.53,-75.5 438.53,-56.5 301.53,-56.5"/>
<text text-anchor="middle" x="370.03" y="-63.5" font-family="FreeSans" font-size="10.00">os_memory_strategies.c</text>
</a>
</g>
</g>
<!-- Node9&#45;&gt;Node11 -->
<g id="edge10" class="edge">
<title>Node9&#45;&gt;Node11</title>
<path fill="none" stroke="midnightblue" d="M442.7,-107.45C424.79,-97.48 400.98,-84.23 385.58,-75.65"/>
<polygon fill="midnightblue" stroke="midnightblue" points="441.01,-110.52 451.45,-112.32 444.41,-104.4 441.01,-110.52"/>
</g>
<!-- Node9&#45;&gt;Node12 -->
<g id="edge12" class="edge">
<title>Node9&#45;&gt;Node12</title>
<path fill="none" stroke="midnightblue" d="M507.21,-109.7C543.45,-99.51 595.95,-84.74 628.75,-75.52"/>
<polygon fill="midnightblue" stroke="midnightblue" points="506.13,-106.37 497.45,-112.44 508.03,-113.11 506.13,-106.37"/>
</g>
<!-- Node12&#45;&gt;Node5 -->
<g id="edge13" class="edge">
<title>Node12&#45;&gt;Node5</title>
<path fill="none" stroke="midnightblue" d="M659.03,-45.8C659.03,-36.91 659.03,-26.78 659.03,-19.75"/>
<polygon fill="midnightblue" stroke="midnightblue" points="655.53,-46.08 659.03,-56.08 662.53,-46.08 655.53,-46.08"/>
</g>
<!-- Node13&#45;&gt;Node4 -->
<g id="edge17" class="edge">
<title>Node13&#45;&gt;Node4</title>
<path fill="none" stroke="midnightblue" d="M740.21,-110.28C692.78,-100.08 622.33,-84.92 578.62,-75.52"/>
<polygon fill="midnightblue" stroke="midnightblue" points="739.75,-113.76 750.26,-112.44 741.22,-106.92 739.75,-113.76"/>
</g>
<!-- Node13&#45;&gt;Node14 -->
<g id="edge18" class="edge">
<title>Node13&#45;&gt;Node14</title>
<path fill="none" stroke="midnightblue" d="M816.79,-107.86C837.19,-97.85 864.7,-84.35 882.4,-75.65"/>
<polygon fill="midnightblue" stroke="midnightblue" points="815.14,-104.78 807.7,-112.32 818.22,-111.06 815.14,-104.78"/>
</g>
<!-- Node15&#45;&gt;Node3 -->
<g id="edge23" class="edge">
<title>Node15&#45;&gt;Node3</title>
<path fill="none" stroke="midnightblue" d="M358.28,-166.02C315.4,-155.49 251.8,-139.88 214.17,-130.64"/>
<polygon fill="midnightblue" stroke="midnightblue" points="357.63,-169.46 368.17,-168.44 359.29,-162.66 357.63,-169.46"/>
</g>
<!-- Node15&#45;&gt;Node4 -->
<g id="edge30" class="edge">
<title>Node15&#45;&gt;Node4</title>
<path fill="none" stroke="midnightblue" d="M458.71,-165.54C479.37,-158.81 501.52,-148.3 517.03,-132 532.14,-116.12 536.9,-89.49 538.38,-75.76"/>
<polygon fill="midnightblue" stroke="midnightblue" points="457.61,-162.22 449.04,-168.46 459.63,-168.92 457.61,-162.22"/>
</g>
<!-- Node15&#45;&gt;Node9 -->
<g id="edge29" class="edge">
<title>Node15&#45;&gt;Node9</title>
<path fill="none" stroke="midnightblue" d="M421.02,-161.82C432.49,-152.15 446.94,-139.95 456.56,-131.83"/>
<polygon fill="midnightblue" stroke="midnightblue" points="418.7,-159.2 413.31,-168.32 423.21,-164.55 418.7,-159.2"/>
</g>
<!-- Node15&#45;&gt;Node16 -->
<g id="edge24" class="edge">
<title>Node15&#45;&gt;Node16</title>
<path fill="none" stroke="midnightblue" d="M360.89,-165.78C332.27,-157.64 293.8,-145.69 261.03,-132 243.42,-124.64 240.25,-120.24 223.03,-112 194.64,-98.41 161.11,-84.23 139.96,-75.5"/>
<polygon fill="midnightblue" stroke="midnightblue" points="360.01,-169.16 370.58,-168.49 361.9,-162.42 360.01,-169.16"/>
</g>
<!-- Node17 -->
<g id="node17" class="node">
<title>Node17</title>
<g id="a_node17"><a xlink:href="os__memory__strategies_8h.html" target="_top" xlink:title="Memory allocation library for the OS.">
<polygon fill="white" stroke="black" points="270.53,-112.5 270.53,-131.5 407.53,-131.5 407.53,-112.5 270.53,-112.5"/>
<text text-anchor="middle" x="339.03" y="-119.5" font-family="FreeSans" font-size="10.00">os_memory_strategies.h</text>
</a>
</g>
</g>
<!-- Node15&#45;&gt;Node17 -->
<g id="edge25" class="edge">
<title>Node15&#45;&gt;Node17</title>
<path fill="none" stroke="midnightblue" d="M385.04,-161.82C373.57,-152.15 359.12,-139.95 349.5,-131.83"/>
<polygon fill="midnightblue" stroke="midnightblue" points="382.85,-164.55 392.75,-168.32 387.36,-159.2 382.85,-164.55"/>
</g>
<!-- Node17&#45;&gt;Node10 -->
<g id="edge27" class="edge">
<title>Node17&#45;&gt;Node10</title>
<path fill="none" stroke="midnightblue" d="M314.46,-107.18C296.79,-97.24 273.52,-84.15 258.42,-75.65"/>
<polygon fill="midnightblue" stroke="midnightblue" points="313.18,-110.47 323.61,-112.32 316.61,-104.37 313.18,-110.47"/>
</g>
<!-- Node17&#45;&gt;Node11 -->
<g id="edge28" class="edge">
<title>Node17&#45;&gt;Node11</title>
<path fill="none" stroke="midnightblue" d="M349.21,-103.27C354.5,-94.05 360.75,-83.17 365.01,-75.75"/>
<polygon fill="midnightblue" stroke="midnightblue" points="346.09,-101.67 344.15,-112.08 352.16,-105.15 346.09,-101.67"/>
</g>
<!-- Node17&#45;&gt;Node16 -->
<g id="edge26" class="edge">
<title>Node17&#45;&gt;Node16</title>
<path fill="none" stroke="midnightblue" d="M294.31,-110.02C252.76,-99.82 191.72,-84.84 153.73,-75.52"/>
<polygon fill="midnightblue" stroke="midnightblue" points="293.63,-113.46 304.17,-112.44 295.29,-106.66 293.63,-113.46"/>
</g>
</g>
</svg>
