<?xml version="1.0" encoding="UTF-8" standalone="no"?>
<!DOCTYPE svg PUBLIC "-//W3C//DTD SVG 1.1//EN"
 "http://www.w3.org/Graphics/SVG/1.1/DTD/svg11.dtd">
<!-- Generated by graphviz version 2.43.0 (0)
 -->
<!-- Title: lcd_erase Pages: 1 -->
<svg width="407pt" height="132pt"
 viewBox="0.00 0.00 407.00 132.00" xmlns="http://www.w3.org/2000/svg" xmlns:xlink="http://www.w3.org/1999/xlink">
<g id="graph0" class="graph" transform="scale(1 1) rotate(0) translate(4 128)">
<title>lcd_erase</title>
<polygon fill="white" stroke="transparent" points="-4,4 -4,-128 403,-128 403,4 -4,4"/>
<!-- Node1 -->
<g id="node1" class="node">
<title>Node1</title>
<g id="a_node1"><a xlink:title="Erases one line.">
<polygon fill="#bfbfbf" stroke="black" points="0,-76.5 0,-95.5 63,-95.5 63,-76.5 0,-76.5"/>
<text text-anchor="middle" x="31.5" y="-83.5" font-family="FreeSans" font-size="10.00">lcd_erase</text>
</a>
</g>
</g>
<!-- Node2 -->
<g id="node2" class="node">
<title>Node2</title>
<g id="a_node2"><a xlink:href="lcd_8h.html#a338e21c2a6ba1044313b26bf868e13b2" target="_top" xlink:title="Next output will be written at (row, column)">
<polygon fill="white" stroke="black" points="111.5,-104.5 111.5,-123.5 169.5,-123.5 169.5,-104.5 111.5,-104.5"/>
<text text-anchor="middle" x="140.5" y="-111.5" font-family="FreeSans" font-size="10.00">lcd_goto</text>
</a>
</g>
</g>
<!-- Node1&#45;&gt;Node2 -->
<g id="edge1" class="edge">
<title>Node1&#45;&gt;Node2</title>
<path fill="none" stroke="midnightblue" d="M63.16,-94.02C75.15,-97.16 89.02,-100.79 101.62,-104.09"/>
<polygon fill="midnightblue" stroke="midnightblue" points="100.84,-107.5 111.4,-106.65 102.61,-100.73 100.84,-107.5"/>
</g>
<!-- Node4 -->
<g id="node4" class="node">
<title>Node4</title>
<g id="a_node4"><a xlink:href="lcd_8h.html#a93cd5600fa3b27381a4cf57d21f27ebf" target="_top" xlink:title="Write one character.">
<polygon fill="white" stroke="black" points="99,-57.5 99,-76.5 182,-76.5 182,-57.5 99,-57.5"/>
<text text-anchor="middle" x="140.5" y="-64.5" font-family="FreeSans" font-size="10.00">lcd_writeChar</text>
</a>
</g>
</g>
<!-- Node1&#45;&gt;Node4 -->
<g id="edge3" class="edge">
<title>Node1&#45;&gt;Node4</title>
<path fill="none" stroke="midnightblue" d="M63.16,-80.56C71.24,-79.12 80.17,-77.54 88.99,-75.97"/>
<polygon fill="midnightblue" stroke="midnightblue" points="89.62,-79.41 98.85,-74.22 88.4,-72.52 89.62,-79.41"/>
</g>
<!-- Node3 -->
<g id="node3" class="node">
<title>Node3</title>
<g id="a_node3"><a xlink:href="lcd_8h.html#acb116d89c358367b8fd1164120d320e3" target="_top" xlink:title="Send command to LCD.">
<polygon fill="white" stroke="black" points="314,-57.5 314,-76.5 399,-76.5 399,-57.5 314,-57.5"/>
<text text-anchor="middle" x="356.5" y="-64.5" font-family="FreeSans" font-size="10.00">lcd_command</text>
</a>
</g>
</g>
<!-- Node2&#45;&gt;Node3 -->
<g id="edge2" class="edge">
<title>Node2&#45;&gt;Node3</title>
<path fill="none" stroke="midnightblue" d="M169.73,-115.3C197.7,-115.85 241.52,-114.74 278,-105 296.88,-99.96 316.64,-90.19 331.48,-81.82"/>
<polygon fill="midnightblue" stroke="midnightblue" points="333.59,-84.64 340.47,-76.59 330.06,-78.6 333.59,-84.64"/>
</g>
<!-- Node5 -->
<g id="node5" class="node">
<title>Node5</title>
<g id="a_node5"><a xlink:href="lcd_8h.html#ad235a86241458b1e7b8771688bfdaf9a" target="_top" xlink:title="Clear all data from display.">
<polygon fill="white" stroke="black" points="218,-76.5 218,-95.5 278,-95.5 278,-76.5 218,-76.5"/>
<text text-anchor="middle" x="248" y="-83.5" font-family="FreeSans" font-size="10.00">lcd_clear</text>
</a>
</g>
</g>
<!-- Node4&#45;&gt;Node5 -->
<g id="edge4" class="edge">
<title>Node4&#45;&gt;Node5</title>
<path fill="none" stroke="midnightblue" d="M182.29,-74.35C190.7,-75.86 199.54,-77.45 207.88,-78.96"/>
<polygon fill="midnightblue" stroke="midnightblue" points="207.3,-82.41 217.76,-80.73 208.54,-75.52 207.3,-82.41"/>
</g>
<!-- Node6 -->
<g id="node6" class="node">
<title>Node6</title>
<g id="a_node6"><a xlink:href="lcd_8h.html#a016fe1471f1d20196b5ca3d2634c927a" target="_top" xlink:title="Next output will be written to line 1.">
<polygon fill="white" stroke="black" points="218,-38.5 218,-57.5 278,-57.5 278,-38.5 218,-38.5"/>
<text text-anchor="middle" x="248" y="-45.5" font-family="FreeSans" font-size="10.00">lcd_line1</text>
</a>
</g>
</g>
<!-- Node4&#45;&gt;Node6 -->
<g id="edge6" class="edge">
<title>Node4&#45;&gt;Node6</title>
<path fill="none" stroke="midnightblue" d="M182.29,-59.65C190.7,-58.14 199.54,-56.55 207.88,-55.04"/>
<polygon fill="midnightblue" stroke="midnightblue" points="208.54,-58.48 217.76,-53.27 207.3,-51.59 208.54,-58.48"/>
</g>
<!-- Node7 -->
<g id="node7" class="node">
<title>Node7</title>
<g id="a_node7"><a xlink:href="lcd_8h.html#ad9ccaf30ea478fef726c058ff4ee7dd1" target="_top" xlink:title="Next output will be written to line 2.">
<polygon fill="white" stroke="black" points="218,-0.5 218,-19.5 278,-19.5 278,-0.5 218,-0.5"/>
<text text-anchor="middle" x="248" y="-7.5" font-family="FreeSans" font-size="10.00">lcd_line2</text>
</a>
</g>
</g>
<!-- Node4&#45;&gt;Node7 -->
<g id="edge8" class="edge">
<title>Node4&#45;&gt;Node7</title>
<path fill="none" stroke="midnightblue" d="M159.4,-57.33C176.17,-48.27 201.45,-34.61 220.55,-24.29"/>
<polygon fill="midnightblue" stroke="midnightblue" points="222.23,-27.36 229.37,-19.53 218.91,-21.2 222.23,-27.36"/>
</g>
<!-- Node5&#45;&gt;Node3 -->
<g id="edge5" class="edge">
<title>Node5&#45;&gt;Node3</title>
<path fill="none" stroke="midnightblue" d="M278.1,-80.81C286.07,-79.39 294.95,-77.8 303.77,-76.23"/>
<polygon fill="midnightblue" stroke="midnightblue" points="304.43,-79.67 313.66,-74.46 303.2,-72.78 304.43,-79.67"/>
</g>
<!-- Node6&#45;&gt;Node3 -->
<g id="edge7" class="edge">
<title>Node6&#45;&gt;Node3</title>
<path fill="none" stroke="midnightblue" d="M278.1,-53.19C286.07,-54.61 294.95,-56.2 303.77,-57.77"/>
<polygon fill="midnightblue" stroke="midnightblue" points="303.2,-61.22 313.66,-59.54 304.43,-54.33 303.2,-61.22"/>
</g>
<!-- Node7&#45;&gt;Node3 -->
<g id="edge9" class="edge">
<title>Node7&#45;&gt;Node3</title>
<path fill="none" stroke="midnightblue" d="M267.07,-19.67C284,-28.73 309.52,-42.39 328.8,-52.71"/>
<polygon fill="midnightblue" stroke="midnightblue" points="327.23,-55.84 337.7,-57.47 330.54,-49.67 327.23,-55.84"/>
</g>
</g>
</svg>
