<?xml version="1.0" encoding="UTF-8" standalone="no"?>
<!DOCTYPE svg PUBLIC "-//W3C//DTD SVG 1.1//EN"
 "http://www.w3.org/Graphics/SVG/1.1/DTD/svg11.dtd">
<!-- Generated by graphviz version 2.43.0 (0)
 -->
<!-- Title: os_memory_strategies.h Pages: 1 -->
<svg width="272pt" height="252pt"
 viewBox="0.00 0.00 271.50 252.00" xmlns="http://www.w3.org/2000/svg" xmlns:xlink="http://www.w3.org/1999/xlink">
<g id="graph0" class="graph" transform="scale(1 1) rotate(0) translate(4 248)">
<title>os_memory_strategies.h</title>
<polygon fill="white" stroke="transparent" points="-4,4 -4,-248 267.5,-248 267.5,4 -4,4"/>
<!-- Node1 -->
<g id="node1" class="node">
<title>Node1</title>
<g id="a_node1"><a xlink:title="Memory allocation library for the OS.">
<polygon fill="#bfbfbf" stroke="black" points="90,-224.5 90,-243.5 227,-243.5 227,-224.5 90,-224.5"/>
<text text-anchor="middle" x="158.5" y="-231.5" font-family="FreeSans" font-size="10.00">os_memory_strategies.h</text>
</a>
</g>
</g>
<!-- Node2 -->
<g id="node2" class="node">
<title>Node2</title>
<g id="a_node2"><a xlink:href="os__memheap__drivers_8h.html" target="_top" xlink:title="Drivers for OS heap management.">
<polygon fill="white" stroke="black" points="93,-168.5 93,-187.5 224,-187.5 224,-168.5 93,-168.5"/>
<text text-anchor="middle" x="158.5" y="-175.5" font-family="FreeSans" font-size="10.00">os_memheap_drivers.h</text>
</a>
</g>
</g>
<!-- Node1&#45;&gt;Node2 -->
<g id="edge1" class="edge">
<title>Node1&#45;&gt;Node2</title>
<path fill="none" stroke="midnightblue" d="M158.5,-224.08C158.5,-217.01 158.5,-206.86 158.5,-197.99"/>
<polygon fill="midnightblue" stroke="midnightblue" points="162,-197.75 158.5,-187.75 155,-197.75 162,-197.75"/>
</g>
<!-- Node3 -->
<g id="node3" class="node">
<title>Node3</title>
<g id="a_node3"><a xlink:href="os__mem__drivers_8h.html" target="_top" xlink:title="Drivers for OS memory management.">
<polygon fill="white" stroke="black" points="0,-112.5 0,-131.5 107,-131.5 107,-112.5 0,-112.5"/>
<text text-anchor="middle" x="53.5" y="-119.5" font-family="FreeSans" font-size="10.00">os_mem_drivers.h</text>
</a>
</g>
</g>
<!-- Node2&#45;&gt;Node3 -->
<g id="edge2" class="edge">
<title>Node2&#45;&gt;Node3</title>
<path fill="none" stroke="midnightblue" d="M141.63,-168.32C124.79,-159.66 98.69,-146.24 79.26,-136.25"/>
<polygon fill="midnightblue" stroke="midnightblue" points="80.82,-133.12 70.33,-131.65 77.62,-139.34 80.82,-133.12"/>
</g>
<!-- Node5 -->
<g id="node5" class="node">
<title>Node5</title>
<g id="a_node5"><a xlink:href="defines_8h.html" target="_top" xlink:title="Simple definitions and assembler&#45;macros, mostly 8/16&#45;Bit values.">
<polygon fill="white" stroke="black" points="128,-112.5 128,-131.5 189,-131.5 189,-112.5 128,-112.5"/>
<text text-anchor="middle" x="158.5" y="-119.5" font-family="FreeSans" font-size="10.00">defines.h</text>
</a>
</g>
</g>
<!-- Node2&#45;&gt;Node5 -->
<g id="edge4" class="edge">
<title>Node2&#45;&gt;Node5</title>
<path fill="none" stroke="midnightblue" d="M158.5,-168.08C158.5,-161.01 158.5,-150.86 158.5,-141.99"/>
<polygon fill="midnightblue" stroke="midnightblue" points="162,-141.75 158.5,-131.75 155,-141.75 162,-141.75"/>
</g>
<!-- Node8 -->
<g id="node8" class="node">
<title>Node8</title>
<g id="a_node8"><a xlink:title=" ">
<polygon fill="white" stroke="#bfbfbf" points="207.5,-112.5 207.5,-131.5 263.5,-131.5 263.5,-112.5 207.5,-112.5"/>
<text text-anchor="middle" x="235.5" y="-119.5" font-family="FreeSans" font-size="10.00">stddef.h</text>
</a>
</g>
</g>
<!-- Node2&#45;&gt;Node8 -->
<g id="edge7" class="edge">
<title>Node2&#45;&gt;Node8</title>
<path fill="none" stroke="midnightblue" d="M170.87,-168.32C182.66,-160.06 200.63,-147.45 214.64,-137.63"/>
<polygon fill="midnightblue" stroke="midnightblue" points="216.98,-140.26 223.16,-131.65 212.96,-134.53 216.98,-140.26"/>
</g>
<!-- Node4 -->
<g id="node4" class="node">
<title>Node4</title>
<g id="a_node4"><a xlink:title=" ">
<polygon fill="white" stroke="#bfbfbf" points="15,-56.5 15,-75.5 80,-75.5 80,-56.5 15,-56.5"/>
<text text-anchor="middle" x="47.5" y="-63.5" font-family="FreeSans" font-size="10.00">inttypes.h</text>
</a>
</g>
</g>
<!-- Node3&#45;&gt;Node4 -->
<g id="edge3" class="edge">
<title>Node3&#45;&gt;Node4</title>
<path fill="none" stroke="midnightblue" d="M52.51,-112.08C51.71,-104.93 50.57,-94.64 49.58,-85.69"/>
<polygon fill="midnightblue" stroke="midnightblue" points="53.06,-85.3 48.47,-75.75 46.1,-86.08 53.06,-85.3"/>
</g>
<!-- Node6 -->
<g id="node6" class="node">
<title>Node6</title>
<g id="a_node6"><a xlink:href="atmega644constants_8h.html" target="_top" xlink:title="Constants for ATMega644 and EVA board. Defines several useful constants for the ATMega644.">
<polygon fill="white" stroke="black" points="98.5,-56.5 98.5,-75.5 226.5,-75.5 226.5,-56.5 98.5,-56.5"/>
<text text-anchor="middle" x="162.5" y="-63.5" font-family="FreeSans" font-size="10.00">atmega644constants.h</text>
</a>
</g>
</g>
<!-- Node5&#45;&gt;Node6 -->
<g id="edge5" class="edge">
<title>Node5&#45;&gt;Node6</title>
<path fill="none" stroke="midnightblue" d="M159.16,-112.08C159.68,-105.01 160.44,-94.86 161.09,-85.99"/>
<polygon fill="midnightblue" stroke="midnightblue" points="164.6,-85.98 161.85,-75.75 157.62,-85.47 164.6,-85.98"/>
</g>
<!-- Node7 -->
<g id="node7" class="node">
<title>Node7</title>
<g id="a_node7"><a xlink:title=" ">
<polygon fill="white" stroke="#bfbfbf" points="136,-0.5 136,-19.5 189,-19.5 189,-0.5 136,-0.5"/>
<text text-anchor="middle" x="162.5" y="-7.5" font-family="FreeSans" font-size="10.00">avr/io.h</text>
</a>
</g>
</g>
<!-- Node6&#45;&gt;Node7 -->
<g id="edge6" class="edge">
<title>Node6&#45;&gt;Node7</title>
<path fill="none" stroke="midnightblue" d="M162.5,-56.08C162.5,-49.01 162.5,-38.86 162.5,-29.99"/>
<polygon fill="midnightblue" stroke="midnightblue" points="166,-29.75 162.5,-19.75 159,-29.75 166,-29.75"/>
</g>
</g>
</svg>
