<?xml version="1.0" encoding="UTF-8" standalone="no"?>
<!DOCTYPE svg PUBLIC "-//W3C//DTD SVG 1.1//EN"
 "http://www.w3.org/Graphics/SVG/1.1/DTD/svg11.dtd">
<!-- Generated by graphviz version 2.43.0 (0)
 -->
<!-- Title: os_mem_drivers.c Pages: 1 -->
<svg width="722pt" height="252pt"
 viewBox="0.00 0.00 721.50 252.00" xmlns="http://www.w3.org/2000/svg" xmlns:xlink="http://www.w3.org/1999/xlink">
<g id="graph0" class="graph" transform="scale(1 1) rotate(0) translate(4 248)">
<title>os_mem_drivers.c</title>
<polygon fill="white" stroke="transparent" points="-4,4 -4,-248 717.5,-248 717.5,4 -4,4"/>
<!-- Node1 -->
<g id="node1" class="node">
<title>Node1</title>
<g id="a_node1"><a xlink:title=" ">
<polygon fill="#bfbfbf" stroke="black" points="230.5,-224.5 230.5,-243.5 336.5,-243.5 336.5,-224.5 230.5,-224.5"/>
<text text-anchor="middle" x="283.5" y="-231.5" font-family="FreeSans" font-size="10.00">os_mem_drivers.c</text>
</a>
</g>
</g>
<!-- Node2 -->
<g id="node2" class="node">
<title>Node2</title>
<g id="a_node2"><a xlink:href="os__mem__drivers_8h.html" target="_top" xlink:title="Drivers for OS memory management.">
<polygon fill="white" stroke="black" points="0,-168.5 0,-187.5 107,-187.5 107,-168.5 0,-168.5"/>
<text text-anchor="middle" x="53.5" y="-175.5" font-family="FreeSans" font-size="10.00">os_mem_drivers.h</text>
</a>
</g>
</g>
<!-- Node1&#45;&gt;Node2 -->
<g id="edge1" class="edge">
<title>Node1&#45;&gt;Node2</title>
<path fill="none" stroke="midnightblue" d="M247.06,-224.44C207.1,-215.06 142.91,-199.99 99.52,-189.8"/>
<polygon fill="midnightblue" stroke="midnightblue" points="100.31,-186.39 89.77,-187.52 98.71,-193.21 100.31,-186.39"/>
</g>
<!-- Node4 -->
<g id="node4" class="node">
<title>Node4</title>
<g id="a_node4"><a xlink:href="defines_8h.html" target="_top" xlink:title="Simple definitions and assembler&#45;macros, mostly 8/16&#45;Bit values.">
<polygon fill="white" stroke="black" points="180,-112.5 180,-131.5 241,-131.5 241,-112.5 180,-112.5"/>
<text text-anchor="middle" x="210.5" y="-119.5" font-family="FreeSans" font-size="10.00">defines.h</text>
</a>
</g>
</g>
<!-- Node1&#45;&gt;Node4 -->
<g id="edge3" class="edge">
<title>Node1&#45;&gt;Node4</title>
<path fill="none" stroke="midnightblue" d="M269.04,-224.44C256.8,-216.47 239.67,-203.51 229.5,-188 220.34,-174.02 215.49,-155.52 212.99,-141.83"/>
<polygon fill="midnightblue" stroke="midnightblue" points="216.41,-141.01 211.4,-131.67 209.49,-142.09 216.41,-141.01"/>
</g>
<!-- Node6 -->
<g id="node6" class="node">
<title>Node6</title>
<g id="a_node6"><a xlink:title=" ">
<polygon fill="white" stroke="#bfbfbf" points="201,-0.5 201,-19.5 254,-19.5 254,-0.5 201,-0.5"/>
<text text-anchor="middle" x="227.5" y="-7.5" font-family="FreeSans" font-size="10.00">avr/io.h</text>
</a>
</g>
</g>
<!-- Node1&#45;&gt;Node6 -->
<g id="edge22" class="edge">
<title>Node1&#45;&gt;Node6</title>
<path fill="none" stroke="midnightblue" d="M268.22,-224.49C254.02,-216.19 232.68,-202.7 216.5,-188 174.38,-149.75 162.39,-132.35 154.5,-76 153.27,-67.2 150.17,-63.76 154.5,-56 162.66,-41.39 177.72,-30.94 192.05,-23.8"/>
<polygon fill="midnightblue" stroke="midnightblue" points="193.65,-26.92 201.29,-19.59 190.74,-20.56 193.65,-26.92"/>
</g>
<!-- Node7 -->
<g id="node7" class="node">
<title>Node7</title>
<g id="a_node7"><a xlink:href="os__scheduler_8h.html" target="_top" xlink:title="Scheduling module for the OS.">
<polygon fill="white" stroke="black" points="239,-168.5 239,-187.5 328,-187.5 328,-168.5 239,-168.5"/>
<text text-anchor="middle" x="283.5" y="-175.5" font-family="FreeSans" font-size="10.00">os_scheduler.h</text>
</a>
</g>
</g>
<!-- Node1&#45;&gt;Node7 -->
<g id="edge6" class="edge">
<title>Node1&#45;&gt;Node7</title>
<path fill="none" stroke="midnightblue" d="M283.5,-224.08C283.5,-217.01 283.5,-206.86 283.5,-197.99"/>
<polygon fill="midnightblue" stroke="midnightblue" points="287,-197.75 283.5,-187.75 280,-197.75 287,-197.75"/>
</g>
<!-- Node11 -->
<g id="node11" class="node">
<title>Node11</title>
<g id="a_node11"><a xlink:href="os__spi_8h.html" target="_top" xlink:title="Driver for AVRs SPI module.">
<polygon fill="white" stroke="black" points="453.5,-168.5 453.5,-187.5 509.5,-187.5 509.5,-168.5 453.5,-168.5"/>
<text text-anchor="middle" x="481.5" y="-175.5" font-family="FreeSans" font-size="10.00">os_spi.h</text>
</a>
</g>
</g>
<!-- Node1&#45;&gt;Node11 -->
<g id="edge12" class="edge">
<title>Node1&#45;&gt;Node11</title>
<path fill="none" stroke="midnightblue" d="M314.87,-224.44C349.76,-214.93 406.11,-199.56 443.47,-189.37"/>
<polygon fill="midnightblue" stroke="midnightblue" points="444.75,-192.65 453.47,-186.64 442.91,-185.9 444.75,-192.65"/>
</g>
<!-- Node12 -->
<g id="node12" class="node">
<title>Node12</title>
<g id="a_node12"><a xlink:title=" ">
<polygon fill="white" stroke="#bfbfbf" points="627.5,-112.5 627.5,-131.5 713.5,-131.5 713.5,-112.5 627.5,-112.5"/>
<text text-anchor="middle" x="670.5" y="-119.5" font-family="FreeSans" font-size="10.00">avr/interrupt.h</text>
</a>
</g>
</g>
<!-- Node1&#45;&gt;Node12 -->
<g id="edge23" class="edge">
<title>Node1&#45;&gt;Node12</title>
<path fill="none" stroke="midnightblue" d="M336.56,-226.17C384.71,-219.19 457.32,-206.7 518.5,-188 564.12,-174.06 614.58,-150.82 644.36,-136.23"/>
<polygon fill="midnightblue" stroke="midnightblue" points="646.22,-139.22 653.63,-131.64 643.11,-132.94 646.22,-139.22"/>
</g>
<!-- Node14 -->
<g id="node14" class="node">
<title>Node14</title>
<g id="a_node14"><a xlink:href="util_8h.html" target="_top" xlink:title="Little helpers that don&#39;t fit elsewhere.">
<polygon fill="white" stroke="black" points="396,-112.5 396,-131.5 437,-131.5 437,-112.5 396,-112.5"/>
<text text-anchor="middle" x="416.5" y="-119.5" font-family="FreeSans" font-size="10.00">util.h</text>
</a>
</g>
</g>
<!-- Node1&#45;&gt;Node14 -->
<g id="edge21" class="edge">
<title>Node1&#45;&gt;Node14</title>
<path fill="none" stroke="midnightblue" d="M293.94,-224.37C316.47,-205.73 369.91,-161.53 398.2,-138.13"/>
<polygon fill="midnightblue" stroke="midnightblue" points="400.64,-140.66 406.11,-131.59 396.18,-135.27 400.64,-140.66"/>
</g>
<!-- Node3 -->
<g id="node3" class="node">
<title>Node3</title>
<g id="a_node3"><a xlink:title=" ">
<polygon fill="white" stroke="#bfbfbf" points="21,-112.5 21,-131.5 86,-131.5 86,-112.5 21,-112.5"/>
<text text-anchor="middle" x="53.5" y="-119.5" font-family="FreeSans" font-size="10.00">inttypes.h</text>
</a>
</g>
</g>
<!-- Node2&#45;&gt;Node3 -->
<g id="edge2" class="edge">
<title>Node2&#45;&gt;Node3</title>
<path fill="none" stroke="midnightblue" d="M53.5,-168.08C53.5,-161.01 53.5,-150.86 53.5,-141.99"/>
<polygon fill="midnightblue" stroke="midnightblue" points="57,-141.75 53.5,-131.75 50,-141.75 57,-141.75"/>
</g>
<!-- Node5 -->
<g id="node5" class="node">
<title>Node5</title>
<g id="a_node5"><a xlink:href="atmega644constants_8h.html" target="_top" xlink:title="Constants for ATMega644 and EVA board. Defines several useful constants for the ATMega644.">
<polygon fill="white" stroke="black" points="163.5,-56.5 163.5,-75.5 291.5,-75.5 291.5,-56.5 163.5,-56.5"/>
<text text-anchor="middle" x="227.5" y="-63.5" font-family="FreeSans" font-size="10.00">atmega644constants.h</text>
</a>
</g>
</g>
<!-- Node4&#45;&gt;Node5 -->
<g id="edge4" class="edge">
<title>Node4&#45;&gt;Node5</title>
<path fill="none" stroke="midnightblue" d="M213.31,-112.08C215.58,-104.85 218.87,-94.41 221.71,-85.4"/>
<polygon fill="midnightblue" stroke="midnightblue" points="225.08,-86.34 224.75,-75.75 218.4,-84.24 225.08,-86.34"/>
</g>
<!-- Node5&#45;&gt;Node6 -->
<g id="edge5" class="edge">
<title>Node5&#45;&gt;Node6</title>
<path fill="none" stroke="midnightblue" d="M227.5,-56.08C227.5,-49.01 227.5,-38.86 227.5,-29.99"/>
<polygon fill="midnightblue" stroke="midnightblue" points="231,-29.75 227.5,-19.75 224,-29.75 231,-29.75"/>
</g>
<!-- Node7&#45;&gt;Node4 -->
<g id="edge8" class="edge">
<title>Node7&#45;&gt;Node4</title>
<path fill="none" stroke="midnightblue" d="M271.77,-168.32C260.66,-160.11 243.76,-147.6 230.52,-137.81"/>
<polygon fill="midnightblue" stroke="midnightblue" points="232.56,-134.97 222.44,-131.83 228.4,-140.59 232.56,-134.97"/>
</g>
<!-- Node8 -->
<g id="node8" class="node">
<title>Node8</title>
<g id="a_node8"><a xlink:title=" ">
<polygon fill="white" stroke="#bfbfbf" points="309.5,-56.5 309.5,-75.5 371.5,-75.5 371.5,-56.5 309.5,-56.5"/>
<text text-anchor="middle" x="340.5" y="-63.5" font-family="FreeSans" font-size="10.00">stdbool.h</text>
</a>
</g>
</g>
<!-- Node7&#45;&gt;Node8 -->
<g id="edge7" class="edge">
<title>Node7&#45;&gt;Node8</title>
<path fill="none" stroke="midnightblue" d="M282.19,-168.46C280.61,-155.49 279.22,-130.39 288.5,-112 294.8,-99.51 306.23,-89.02 316.77,-81.33"/>
<polygon fill="midnightblue" stroke="midnightblue" points="318.99,-84.05 325.28,-75.53 315.05,-78.26 318.99,-84.05"/>
</g>
<!-- Node9 -->
<g id="node9" class="node">
<title>Node9</title>
<g id="a_node9"><a xlink:href="os__process_8h.html" target="_top" xlink:title="Struct specifying a process.">
<polygon fill="white" stroke="black" points="297.5,-112.5 297.5,-131.5 377.5,-131.5 377.5,-112.5 297.5,-112.5"/>
<text text-anchor="middle" x="337.5" y="-119.5" font-family="FreeSans" font-size="10.00">os_process.h</text>
</a>
</g>
</g>
<!-- Node7&#45;&gt;Node9 -->
<g id="edge9" class="edge">
<title>Node7&#45;&gt;Node9</title>
<path fill="none" stroke="midnightblue" d="M292.42,-168.08C300.28,-160.22 311.93,-148.57 321.42,-139.08"/>
<polygon fill="midnightblue" stroke="midnightblue" points="324.15,-141.3 328.75,-131.75 319.2,-136.35 324.15,-141.3"/>
</g>
<!-- Node9&#45;&gt;Node8 -->
<g id="edge11" class="edge">
<title>Node9&#45;&gt;Node8</title>
<path fill="none" stroke="midnightblue" d="M338,-112.08C338.39,-105.01 338.95,-94.86 339.45,-85.99"/>
<polygon fill="midnightblue" stroke="midnightblue" points="342.95,-85.93 340.01,-75.75 335.96,-85.54 342.95,-85.93"/>
</g>
<!-- Node10 -->
<g id="node10" class="node">
<title>Node10</title>
<g id="a_node10"><a xlink:title=" ">
<polygon fill="white" stroke="#bfbfbf" points="390,-56.5 390,-75.5 443,-75.5 443,-56.5 390,-56.5"/>
<text text-anchor="middle" x="416.5" y="-63.5" font-family="FreeSans" font-size="10.00">stdint.h</text>
</a>
</g>
</g>
<!-- Node9&#45;&gt;Node10 -->
<g id="edge10" class="edge">
<title>Node9&#45;&gt;Node10</title>
<path fill="none" stroke="midnightblue" d="M350.19,-112.32C362.4,-103.98 381.08,-91.21 395.5,-81.35"/>
<polygon fill="midnightblue" stroke="midnightblue" points="397.56,-84.19 403.84,-75.65 393.61,-78.41 397.56,-84.19"/>
</g>
<!-- Node11&#45;&gt;Node6 -->
<g id="edge14" class="edge">
<title>Node11&#45;&gt;Node6</title>
<path fill="none" stroke="midnightblue" d="M508.39,-168.45C534.78,-159.46 572.22,-144.86 580.5,-132 593.03,-112.54 579.53,-68.32 565.5,-56 521.37,-17.24 342.6,-11.53 264.41,-10.92"/>
<polygon fill="midnightblue" stroke="midnightblue" points="264.09,-7.42 254.07,-10.87 264.05,-14.42 264.09,-7.42"/>
</g>
<!-- Node11&#45;&gt;Node10 -->
<g id="edge13" class="edge">
<title>Node11&#45;&gt;Node10</title>
<path fill="none" stroke="midnightblue" d="M477.02,-168.48C470.38,-155.97 457.42,-131.93 445.5,-112 439.88,-102.61 433.3,-92.34 427.83,-83.99"/>
<polygon fill="midnightblue" stroke="midnightblue" points="430.66,-81.93 422.23,-75.52 424.82,-85.79 430.66,-81.93"/>
</g>
<!-- Node11&#45;&gt;Node12 -->
<g id="edge15" class="edge">
<title>Node11&#45;&gt;Node12</title>
<path fill="none" stroke="midnightblue" d="M509.8,-168.92C541.89,-159.74 594.47,-144.72 630.69,-134.37"/>
<polygon fill="midnightblue" stroke="midnightblue" points="631.79,-137.7 640.45,-131.59 629.87,-130.97 631.79,-137.7"/>
</g>
<!-- Node13 -->
<g id="node13" class="node">
<title>Node13</title>
<g id="a_node13"><a xlink:title=" ">
<polygon fill="white" stroke="#bfbfbf" points="493.5,-112.5 493.5,-131.5 571.5,-131.5 571.5,-112.5 493.5,-112.5"/>
<text text-anchor="middle" x="532.5" y="-119.5" font-family="FreeSans" font-size="10.00">util/atomic.h</text>
</a>
</g>
</g>
<!-- Node11&#45;&gt;Node13 -->
<g id="edge16" class="edge">
<title>Node11&#45;&gt;Node13</title>
<path fill="none" stroke="midnightblue" d="M489.92,-168.08C497.35,-160.22 508.35,-148.57 517.31,-139.08"/>
<polygon fill="midnightblue" stroke="midnightblue" points="519.91,-141.42 524.24,-131.75 514.82,-136.62 519.91,-141.42"/>
</g>
<!-- Node11&#45;&gt;Node14 -->
<g id="edge17" class="edge">
<title>Node11&#45;&gt;Node14</title>
<path fill="none" stroke="midnightblue" d="M471.06,-168.32C461.35,-160.26 446.68,-148.08 435,-138.37"/>
<polygon fill="midnightblue" stroke="midnightblue" points="437.06,-135.53 427.13,-131.83 432.59,-140.92 437.06,-135.53"/>
</g>
<!-- Node14&#45;&gt;Node8 -->
<g id="edge19" class="edge">
<title>Node14&#45;&gt;Node8</title>
<path fill="none" stroke="midnightblue" d="M404.29,-112.32C392.72,-104.11 375.12,-91.6 361.34,-81.81"/>
<polygon fill="midnightblue" stroke="midnightblue" points="363.11,-78.77 352.93,-75.83 359.06,-84.48 363.11,-78.77"/>
</g>
<!-- Node14&#45;&gt;Node10 -->
<g id="edge18" class="edge">
<title>Node14&#45;&gt;Node10</title>
<path fill="none" stroke="midnightblue" d="M416.5,-112.08C416.5,-105.01 416.5,-94.86 416.5,-85.99"/>
<polygon fill="midnightblue" stroke="midnightblue" points="420,-85.75 416.5,-75.75 413,-85.75 420,-85.75"/>
</g>
<!-- Node15 -->
<g id="node15" class="node">
<title>Node15</title>
<g id="a_node15"><a xlink:title=" ">
<polygon fill="white" stroke="#bfbfbf" points="461,-56.5 461,-75.5 556,-75.5 556,-56.5 461,-56.5"/>
<text text-anchor="middle" x="508.5" y="-63.5" font-family="FreeSans" font-size="10.00">avr/pgmspace.h</text>
</a>
</g>
</g>
<!-- Node14&#45;&gt;Node15 -->
<g id="edge20" class="edge">
<title>Node14&#45;&gt;Node15</title>
<path fill="none" stroke="midnightblue" d="M431.28,-112.32C445.77,-103.82 468.07,-90.73 484.99,-80.8"/>
<polygon fill="midnightblue" stroke="midnightblue" points="486.9,-83.74 493.76,-75.65 483.36,-77.7 486.9,-83.74"/>
</g>
</g>
</svg>
