<?xml version="1.0" encoding="UTF-8" standalone="no"?>
<!DOCTYPE svg PUBLIC "-//W3C//DTD SVG 1.1//EN"
 "http://www.w3.org/Graphics/SVG/1.1/DTD/svg11.dtd">
<!-- Generated by graphviz version 2.43.0 (0)
 -->
<!-- Title: os_core.h Pages: 1 -->
<svg width="491pt" height="84pt"
 viewBox="0.00 0.00 490.50 84.00" xmlns="http://www.w3.org/2000/svg" xmlns:xlink="http://www.w3.org/1999/xlink">
<g id="graph0" class="graph" transform="scale(1 1) rotate(0) translate(4 80)">
<title>os_core.h</title>
<polygon fill="white" stroke="transparent" points="-4,4 -4,-80 486.5,-80 486.5,4 -4,4"/>
<!-- Node1 -->
<g id="node1" class="node">
<title>Node1</title>
<g id="a_node1"><a xlink:title="Core of the OS.">
<polygon fill="#bfbfbf" stroke="black" points="216.5,-56.5 216.5,-75.5 279.5,-75.5 279.5,-56.5 216.5,-56.5"/>
<text text-anchor="middle" x="248" y="-63.5" font-family="FreeSans" font-size="10.00">os_core.h</text>
</a>
</g>
</g>
<!-- Node2 -->
<g id="node2" class="node">
<title>Node2</title>
<g id="a_node2"><a xlink:href="os__core_8c.html" target="_top" xlink:title=" ">
<polygon fill="white" stroke="black" points="0,-0.5 0,-19.5 62,-19.5 62,-0.5 0,-0.5"/>
<text text-anchor="middle" x="31" y="-7.5" font-family="FreeSans" font-size="10.00">os_core.c</text>
</a>
</g>
</g>
<!-- Node1&#45;&gt;Node2 -->
<g id="edge1" class="edge">
<title>Node1&#45;&gt;Node2</title>
<path fill="none" stroke="midnightblue" d="M206.51,-54.68C164.42,-44.2 100.21,-28.22 62.24,-18.77"/>
<polygon fill="midnightblue" stroke="midnightblue" points="205.9,-58.13 216.45,-57.15 207.59,-51.34 205.9,-58.13"/>
</g>
<!-- Node3 -->
<g id="node3" class="node">
<title>Node3</title>
<g id="a_node3"><a xlink:href="os__memory_8c.html" target="_top" xlink:title=" ">
<polygon fill="white" stroke="black" points="80.5,-0.5 80.5,-19.5 161.5,-19.5 161.5,-0.5 80.5,-0.5"/>
<text text-anchor="middle" x="121" y="-7.5" font-family="FreeSans" font-size="10.00">os_memory.c</text>
</a>
</g>
</g>
<!-- Node1&#45;&gt;Node3 -->
<g id="edge2" class="edge">
<title>Node1&#45;&gt;Node3</title>
<path fill="none" stroke="midnightblue" d="M218.61,-52.5C194.8,-42.38 161.89,-28.39 141.03,-19.52"/>
<polygon fill="midnightblue" stroke="midnightblue" points="217.3,-55.75 227.88,-56.44 220.04,-49.31 217.3,-55.75"/>
</g>
<!-- Node4 -->
<g id="node4" class="node">
<title>Node4</title>
<g id="a_node4"><a xlink:href="os__memory__strategies_8c.html" target="_top" xlink:title=" ">
<polygon fill="white" stroke="black" points="179.5,-0.5 179.5,-19.5 316.5,-19.5 316.5,-0.5 179.5,-0.5"/>
<text text-anchor="middle" x="248" y="-7.5" font-family="FreeSans" font-size="10.00">os_memory_strategies.c</text>
</a>
</g>
</g>
<!-- Node1&#45;&gt;Node4 -->
<g id="edge3" class="edge">
<title>Node1&#45;&gt;Node4</title>
<path fill="none" stroke="midnightblue" d="M248,-45.8C248,-36.91 248,-26.78 248,-19.75"/>
<polygon fill="midnightblue" stroke="midnightblue" points="244.5,-46.08 248,-56.08 251.5,-46.08 244.5,-46.08"/>
</g>
<!-- Node5 -->
<g id="node5" class="node">
<title>Node5</title>
<g id="a_node5"><a xlink:href="os__scheduler_8c.html" target="_top" xlink:title=" ">
<polygon fill="white" stroke="black" points="335,-0.5 335,-19.5 423,-19.5 423,-0.5 335,-0.5"/>
<text text-anchor="middle" x="379" y="-7.5" font-family="FreeSans" font-size="10.00">os_scheduler.c</text>
</a>
</g>
</g>
<!-- Node1&#45;&gt;Node5 -->
<g id="edge4" class="edge">
<title>Node1&#45;&gt;Node5</title>
<path fill="none" stroke="midnightblue" d="M278.32,-52.5C302.88,-42.38 336.82,-28.39 358.34,-19.52"/>
<polygon fill="midnightblue" stroke="midnightblue" points="276.67,-49.4 268.76,-56.44 279.34,-55.87 276.67,-49.4"/>
</g>
<!-- Node6 -->
<g id="node6" class="node">
<title>Node6</title>
<g id="a_node6"><a xlink:href="util_8c.html" target="_top" xlink:title=" ">
<polygon fill="white" stroke="black" points="441.5,-0.5 441.5,-19.5 482.5,-19.5 482.5,-0.5 441.5,-0.5"/>
<text text-anchor="middle" x="462" y="-7.5" font-family="FreeSans" font-size="10.00">util.c</text>
</a>
</g>
</g>
<!-- Node1&#45;&gt;Node6 -->
<g id="edge5" class="edge">
<title>Node1&#45;&gt;Node6</title>
<path fill="none" stroke="midnightblue" d="M289.73,-55.44C327.13,-46.72 383.42,-33.22 432,-20 435.04,-19.17 438.25,-18.26 441.38,-17.34"/>
<polygon fill="midnightblue" stroke="midnightblue" points="288.66,-52.1 279.71,-57.77 290.24,-58.92 288.66,-52.1"/>
</g>
</g>
</svg>
