<?xml version="1.0" encoding="UTF-8" standalone="no"?>
<!DOCTYPE svg PUBLIC "-//W3C//DTD SVG 1.1//EN"
 "http://www.w3.org/Graphics/SVG/1.1/DTD/svg11.dtd">
<!-- Generated by graphviz version 2.43.0 (0)
 -->
<!-- Title: moveChunk Pages: 1 -->
<svg width="336pt" height="142pt"
 viewBox="0.00 0.00 336.00 142.00" xmlns="http://www.w3.org/2000/svg" xmlns:xlink="http://www.w3.org/1999/xlink">
<g id="graph0" class="graph" transform="scale(1 1) rotate(0) translate(4 138)">
<title>moveChunk</title>
<polygon fill="white" stroke="transparent" points="-4,4 -4,-138 332,-138 332,4 -4,4"/>
<!-- Node1 -->
<g id="node1" class="node">
<title>Node1</title>
<g id="a_node1"><a xlink:title=" ">
<polygon fill="#bfbfbf" stroke="black" points="0,-57.5 0,-76.5 75,-76.5 75,-57.5 0,-57.5"/>
<text text-anchor="middle" x="37.5" y="-64.5" font-family="FreeSans" font-size="10.00">moveChunk</text>
</a>
</g>
</g>
<!-- Node2 -->
<g id="node2" class="node">
<title>Node2</title>
<g id="a_node2"><a xlink:href="os__memory_8c.html#a29ccc3e0a668c0be4b285bc74ef6d920" target="_top" xlink:title="Function used to get the value of a single map entry, this is made public so the allocation strategie...">
<polygon fill="white" stroke="black" points="111,-76.5 111,-95.5 206,-95.5 206,-76.5 111,-76.5"/>
<text text-anchor="middle" x="158.5" y="-83.5" font-family="FreeSans" font-size="10.00">os_getMapEntry</text>
</a>
</g>
</g>
<!-- Node1&#45;&gt;Node2 -->
<g id="edge1" class="edge">
<title>Node1&#45;&gt;Node2</title>
<path fill="none" stroke="midnightblue" d="M75.17,-72.86C83.22,-74.14 91.93,-75.53 100.57,-76.91"/>
<polygon fill="midnightblue" stroke="midnightblue" points="100.2,-80.4 110.63,-78.52 101.3,-73.48 100.2,-80.4"/>
</g>
<!-- Node5 -->
<g id="node5" class="node">
<title>Node5</title>
<g id="a_node5"><a xlink:href="os__memory_8c.html#aa0082364f445ac8cfacf8d0e873bcfb5" target="_top" xlink:title="This function is used to set a heap map entry on a specific heap.">
<polygon fill="white" stroke="black" points="119.5,-38.5 119.5,-57.5 197.5,-57.5 197.5,-38.5 119.5,-38.5"/>
<text text-anchor="middle" x="158.5" y="-45.5" font-family="FreeSans" font-size="10.00">setMapEntry</text>
</a>
</g>
</g>
<!-- Node1&#45;&gt;Node5 -->
<g id="edge4" class="edge">
<title>Node1&#45;&gt;Node5</title>
<path fill="none" stroke="midnightblue" d="M75.17,-61.14C85.84,-59.44 97.66,-57.55 108.94,-55.75"/>
<polygon fill="midnightblue" stroke="midnightblue" points="109.77,-59.17 119.09,-54.13 108.67,-52.25 109.77,-59.17"/>
</g>
<!-- Node3 -->
<g id="node3" class="node">
<title>Node3</title>
<g id="a_node3"><a xlink:href="os__memory_8c.html#ae420976ba4abbd069aff795935b9636c" target="_top" xlink:title="Reads the value of the higher nibble of the given address.">
<polygon fill="white" stroke="black" points="242,-114.5 242,-133.5 328,-133.5 328,-114.5 242,-114.5"/>
<text text-anchor="middle" x="285" y="-121.5" font-family="FreeSans" font-size="10.00">getHighNibble</text>
</a>
</g>
</g>
<!-- Node2&#45;&gt;Node3 -->
<g id="edge2" class="edge">
<title>Node2&#45;&gt;Node3</title>
<path fill="none" stroke="midnightblue" d="M190.92,-95.59C206.69,-100.4 226.01,-106.3 242.94,-111.47"/>
<polygon fill="midnightblue" stroke="midnightblue" points="242.01,-114.84 252.59,-114.41 244.05,-108.15 242.01,-114.84"/>
</g>
<!-- Node4 -->
<g id="node4" class="node">
<title>Node4</title>
<g id="a_node4"><a xlink:href="os__memory_8c.html#a01bd9b56dbbeb0af404043ceca5c8818" target="_top" xlink:title="Reads the value of the lower nibble of the given address.">
<polygon fill="white" stroke="black" points="243.5,-76.5 243.5,-95.5 326.5,-95.5 326.5,-76.5 243.5,-76.5"/>
<text text-anchor="middle" x="285" y="-83.5" font-family="FreeSans" font-size="10.00">getLowNibble</text>
</a>
</g>
</g>
<!-- Node2&#45;&gt;Node4 -->
<g id="edge3" class="edge">
<title>Node2&#45;&gt;Node4</title>
<path fill="none" stroke="midnightblue" d="M206.21,-86C214.94,-86 224.11,-86 232.96,-86"/>
<polygon fill="midnightblue" stroke="midnightblue" points="233.16,-89.5 243.16,-86 233.16,-82.5 233.16,-89.5"/>
</g>
<!-- Node6 -->
<g id="node6" class="node">
<title>Node6</title>
<g id="a_node6"><a xlink:href="os__memory_8c.html#a211f98b56ba22e7ec073c1b09b35d0ff" target="_top" xlink:title="Writes a value from 0x0 to 0xF to the higher nibble of the given address.">
<polygon fill="white" stroke="black" points="242,-38.5 242,-57.5 328,-57.5 328,-38.5 242,-38.5"/>
<text text-anchor="middle" x="285" y="-45.5" font-family="FreeSans" font-size="10.00">setHighNibble</text>
</a>
</g>
</g>
<!-- Node5&#45;&gt;Node6 -->
<g id="edge5" class="edge">
<title>Node5&#45;&gt;Node6</title>
<path fill="none" stroke="midnightblue" d="M197.53,-48C208.26,-48 220.13,-48 231.55,-48"/>
<polygon fill="midnightblue" stroke="midnightblue" points="231.86,-51.5 241.86,-48 231.86,-44.5 231.86,-51.5"/>
</g>
<!-- Node7 -->
<g id="node7" class="node">
<title>Node7</title>
<g id="a_node7"><a xlink:href="os__memory_8c.html#a79edcf2881c1b78d097495d05e7cec4f" target="_top" xlink:title="Writes a value from 0x0 to 0xF to the lower nibble of the given address.">
<polygon fill="white" stroke="black" points="243.5,-0.5 243.5,-19.5 326.5,-19.5 326.5,-0.5 243.5,-0.5"/>
<text text-anchor="middle" x="285" y="-7.5" font-family="FreeSans" font-size="10.00">setLowNibble</text>
</a>
</g>
</g>
<!-- Node5&#45;&gt;Node7 -->
<g id="edge6" class="edge">
<title>Node5&#45;&gt;Node7</title>
<path fill="none" stroke="midnightblue" d="M190.92,-38.41C206.69,-33.6 226.01,-27.7 242.94,-22.53"/>
<polygon fill="midnightblue" stroke="midnightblue" points="244.05,-25.85 252.59,-19.59 242.01,-19.16 244.05,-25.85"/>
</g>
</g>
</svg>
