<?xml version="1.0" encoding="UTF-8" standalone="no"?>
<!DOCTYPE svg PUBLIC "-//W3C//DTD SVG 1.1//EN"
 "http://www.w3.org/Graphics/SVG/1.1/DTD/svg11.dtd">
<!-- Generated by graphviz version 2.43.0 (0)
 -->
<!-- Title: os_process.h Pages: 1 -->
<svg width="725pt" height="252pt"
 viewBox="0.00 0.00 724.73 252.00" xmlns="http://www.w3.org/2000/svg" xmlns:xlink="http://www.w3.org/1999/xlink">
<g id="graph0" class="graph" transform="scale(1 1) rotate(0) translate(4 248)">
<title>os_process.h</title>
<polygon fill="white" stroke="transparent" points="-4,4 -4,-248 720.73,-248 720.73,4 -4,4"/>
<!-- Node1 -->
<g id="node1" class="node">
<title>Node1</title>
<g id="a_node1"><a xlink:title="Struct specifying a process.">
<polygon fill="#bfbfbf" stroke="black" points="522.15,-224.5 522.15,-243.5 602.15,-243.5 602.15,-224.5 522.15,-224.5"/>
<text text-anchor="middle" x="562.15" y="-231.5" font-family="FreeSans" font-size="10.00">os_process.h</text>
</a>
</g>
</g>
<!-- Node2 -->
<g id="node2" class="node">
<title>Node2</title>
<g id="a_node2"><a xlink:href="os__scheduler_8h.html" target="_top" xlink:title="Scheduling module for the OS.">
<polygon fill="white" stroke="black" points="358.65,-168.5 358.65,-187.5 447.65,-187.5 447.65,-168.5 358.65,-168.5"/>
<text text-anchor="middle" x="403.15" y="-175.5" font-family="FreeSans" font-size="10.00">os_scheduler.h</text>
</a>
</g>
</g>
<!-- Node1&#45;&gt;Node2 -->
<g id="edge1" class="edge">
<title>Node1&#45;&gt;Node2</title>
<path fill="none" stroke="midnightblue" d="M527.32,-221.17C497.38,-211 454.92,-196.59 428.22,-187.52"/>
<polygon fill="midnightblue" stroke="midnightblue" points="526.36,-224.54 536.95,-224.44 528.61,-217.91 526.36,-224.54"/>
</g>
<!-- Node9 -->
<g id="node9" class="node">
<title>Node9</title>
<g id="a_node9"><a xlink:href="os__taskman_8c.html" target="_top" xlink:title=" ">
<polygon fill="white" stroke="black" points="199.15,-0.5 199.15,-19.5 283.15,-19.5 283.15,-0.5 199.15,-0.5"/>
<text text-anchor="middle" x="241.15" y="-7.5" font-family="FreeSans" font-size="10.00">os_taskman.c</text>
</a>
</g>
</g>
<!-- Node1&#45;&gt;Node9 -->
<g id="edge16" class="edge">
<title>Node1&#45;&gt;Node9</title>
<path fill="none" stroke="midnightblue" d="M587.4,-219.43C640.74,-189.13 755.82,-114.05 703.15,-56 675.19,-25.19 391.73,-14.8 283.15,-11.94"/>
<polygon fill="midnightblue" stroke="midnightblue" points="585.54,-216.46 578.51,-224.39 588.95,-222.58 585.54,-216.46"/>
</g>
<!-- Node3 -->
<g id="node3" class="node">
<title>Node3</title>
<g id="a_node3"><a xlink:href="os__mem__drivers_8c.html" target="_top" xlink:title=" ">
<polygon fill="white" stroke="black" points="350.15,-112.5 350.15,-131.5 456.15,-131.5 456.15,-112.5 350.15,-112.5"/>
<text text-anchor="middle" x="403.15" y="-119.5" font-family="FreeSans" font-size="10.00">os_mem_drivers.c</text>
</a>
</g>
</g>
<!-- Node2&#45;&gt;Node3 -->
<g id="edge2" class="edge">
<title>Node2&#45;&gt;Node3</title>
<path fill="none" stroke="midnightblue" d="M403.15,-157.8C403.15,-148.91 403.15,-138.78 403.15,-131.75"/>
<polygon fill="midnightblue" stroke="midnightblue" points="399.65,-158.08 403.15,-168.08 406.65,-158.08 399.65,-158.08"/>
</g>
<!-- Node4 -->
<g id="node4" class="node">
<title>Node4</title>
<g id="a_node4"><a xlink:href="os__memory_8h.html" target="_top" xlink:title="Library for OS memory management.">
<polygon fill="white" stroke="black" points="250.15,-112.5 250.15,-131.5 332.15,-131.5 332.15,-112.5 250.15,-112.5"/>
<text text-anchor="middle" x="291.15" y="-119.5" font-family="FreeSans" font-size="10.00">os_memory.h</text>
</a>
</g>
</g>
<!-- Node2&#45;&gt;Node4 -->
<g id="edge3" class="edge">
<title>Node2&#45;&gt;Node4</title>
<path fill="none" stroke="midnightblue" d="M375.9,-163.86C355.13,-153.85 327.12,-140.35 309.1,-131.65"/>
<polygon fill="midnightblue" stroke="midnightblue" points="374.62,-167.13 385.15,-168.32 377.66,-160.83 374.62,-167.13"/>
</g>
<!-- Node7 -->
<g id="node7" class="node">
<title>Node7</title>
<g id="a_node7"><a xlink:href="os__scheduler_8c.html" target="_top" xlink:title=" ">
<polygon fill="white" stroke="black" points="440.15,-56.5 440.15,-75.5 528.15,-75.5 528.15,-56.5 440.15,-56.5"/>
<text text-anchor="middle" x="484.15" y="-63.5" font-family="FreeSans" font-size="10.00">os_scheduler.c</text>
</a>
</g>
</g>
<!-- Node2&#45;&gt;Node7 -->
<g id="edge10" class="edge">
<title>Node2&#45;&gt;Node7</title>
<path fill="none" stroke="midnightblue" d="M429.3,-163.42C441.78,-155.73 455.96,-145.04 465.15,-132 477.47,-114.51 481.87,-89.03 483.39,-75.77"/>
<polygon fill="midnightblue" stroke="midnightblue" points="427.49,-160.42 420.6,-168.48 431.01,-166.48 427.49,-160.42"/>
</g>
<!-- Node8 -->
<g id="node8" class="node">
<title>Node8</title>
<g id="a_node8"><a xlink:href="os__user__privileges_8h.html" target="_top" xlink:title="User privileges specification used in part by the Taskman.">
<polygon fill="white" stroke="black" points="13.15,-56.5 13.15,-75.5 129.15,-75.5 129.15,-56.5 13.15,-56.5"/>
<text text-anchor="middle" x="71.15" y="-63.5" font-family="FreeSans" font-size="10.00">os_user_privileges.h</text>
</a>
</g>
</g>
<!-- Node2&#45;&gt;Node8 -->
<g id="edge15" class="edge">
<title>Node2&#45;&gt;Node8</title>
<path fill="none" stroke="midnightblue" d="M359,-165.94C326.23,-157.44 280.59,-144.99 241.15,-132 186.37,-113.97 123.3,-88.61 91.59,-75.54"/>
<polygon fill="midnightblue" stroke="midnightblue" points="358.18,-169.34 368.73,-168.45 359.92,-162.56 358.18,-169.34"/>
</g>
<!-- Node2&#45;&gt;Node9 -->
<g id="edge14" class="edge">
<title>Node2&#45;&gt;Node9</title>
<path fill="none" stroke="midnightblue" d="M348.33,-171.59C248.74,-160.49 44.63,-131.36 4.15,-76 -1.1,-68.82 -1.52,-62.85 4.15,-56 28.42,-26.69 137.68,-16.31 199.03,-12.76"/>
<polygon fill="midnightblue" stroke="midnightblue" points="348.17,-175.1 358.5,-172.71 348.94,-168.14 348.17,-175.1"/>
</g>
<!-- Node10 -->
<g id="node10" class="node">
<title>Node10</title>
<g id="a_node10"><a xlink:href="os__scheduling__strategies_8h.html" target="_top" xlink:title="Scheduling library for the OS.">
<polygon fill="white" stroke="black" points="511.65,-112.5 511.65,-131.5 660.65,-131.5 660.65,-112.5 511.65,-112.5"/>
<text text-anchor="middle" x="586.15" y="-119.5" font-family="FreeSans" font-size="10.00">os_scheduling_strategies.h</text>
</a>
</g>
</g>
<!-- Node2&#45;&gt;Node10 -->
<g id="edge11" class="edge">
<title>Node2&#45;&gt;Node10</title>
<path fill="none" stroke="midnightblue" d="M441.89,-165.57C476.41,-155.38 526.15,-140.7 557.28,-131.52"/>
<polygon fill="midnightblue" stroke="midnightblue" points="440.74,-162.26 432.14,-168.44 442.72,-168.97 440.74,-162.26"/>
</g>
<!-- Node5 -->
<g id="node5" class="node">
<title>Node5</title>
<g id="a_node5"><a xlink:href="os__memory_8c.html" target="_top" xlink:title=" ">
<polygon fill="white" stroke="black" points="147.65,-56.5 147.65,-75.5 228.65,-75.5 228.65,-56.5 147.65,-56.5"/>
<text text-anchor="middle" x="188.15" y="-63.5" font-family="FreeSans" font-size="10.00">os_memory.c</text>
</a>
</g>
</g>
<!-- Node4&#45;&gt;Node5 -->
<g id="edge4" class="edge">
<title>Node4&#45;&gt;Node5</title>
<path fill="none" stroke="midnightblue" d="M265.57,-107.59C246.52,-97.61 221.08,-84.27 204.65,-75.65"/>
<polygon fill="midnightblue" stroke="midnightblue" points="264.12,-110.78 274.6,-112.32 267.37,-104.58 264.12,-110.78"/>
</g>
<!-- Node6 -->
<g id="node6" class="node">
<title>Node6</title>
<g id="a_node6"><a xlink:href="os__memory__strategies_8c.html" target="_top" xlink:title=" ">
<polygon fill="white" stroke="black" points="246.65,-56.5 246.65,-75.5 383.65,-75.5 383.65,-56.5 246.65,-56.5"/>
<text text-anchor="middle" x="315.15" y="-63.5" font-family="FreeSans" font-size="10.00">os_memory_strategies.c</text>
</a>
</g>
</g>
<!-- Node4&#45;&gt;Node6 -->
<g id="edge5" class="edge">
<title>Node4&#45;&gt;Node6</title>
<path fill="none" stroke="midnightblue" d="M299.28,-102.69C303.33,-93.59 308.03,-83.01 311.26,-75.75"/>
<polygon fill="midnightblue" stroke="midnightblue" points="295.97,-101.52 295.11,-112.08 302.37,-104.37 295.97,-101.52"/>
</g>
<!-- Node4&#45;&gt;Node7 -->
<g id="edge6" class="edge">
<title>Node4&#45;&gt;Node7</title>
<path fill="none" stroke="midnightblue" d="M331.54,-109.7C367.96,-99.51 420.73,-84.74 453.71,-75.52"/>
<polygon fill="midnightblue" stroke="midnightblue" points="330.41,-106.38 321.73,-112.44 332.3,-113.12 330.41,-106.38"/>
</g>
<!-- Node4&#45;&gt;Node8 -->
<g id="edge7" class="edge">
<title>Node4&#45;&gt;Node8</title>
<path fill="none" stroke="midnightblue" d="M246.43,-110.02C204.87,-99.82 143.83,-84.84 105.84,-75.52"/>
<polygon fill="midnightblue" stroke="midnightblue" points="245.74,-113.46 256.29,-112.44 247.41,-106.66 245.74,-113.46"/>
</g>
<!-- Node4&#45;&gt;Node9 -->
<g id="edge9" class="edge">
<title>Node4&#45;&gt;Node9</title>
<path fill="none" stroke="midnightblue" d="M339.21,-109.66C374.02,-99.08 411.92,-81.14 393.15,-56 368.03,-22.37 318.9,-12.84 283.28,-10.63"/>
<polygon fill="midnightblue" stroke="midnightblue" points="338.16,-106.32 329.52,-112.45 340.1,-113.05 338.16,-106.32"/>
</g>
<!-- Node8&#45;&gt;Node9 -->
<g id="edge8" class="edge">
<title>Node8&#45;&gt;Node9</title>
<path fill="none" stroke="midnightblue" d="M107.97,-53.3C140,-43.13 185.66,-28.62 214.34,-19.52"/>
<polygon fill="midnightblue" stroke="midnightblue" points="106.55,-50.08 98.08,-56.44 108.67,-56.75 106.55,-50.08"/>
</g>
<!-- Node10&#45;&gt;Node7 -->
<g id="edge12" class="edge">
<title>Node10&#45;&gt;Node7</title>
<path fill="none" stroke="midnightblue" d="M560.82,-107.59C541.96,-97.61 516.76,-84.27 500.49,-75.65"/>
<polygon fill="midnightblue" stroke="midnightblue" points="559.28,-110.74 569.76,-112.32 562.56,-104.55 559.28,-110.74"/>
</g>
<!-- Node11 -->
<g id="node11" class="node">
<title>Node11</title>
<g id="a_node11"><a xlink:href="os__scheduling__strategies_8c.html" target="_top" xlink:title=" ">
<polygon fill="white" stroke="black" points="546.15,-56.5 546.15,-75.5 694.15,-75.5 694.15,-56.5 546.15,-56.5"/>
<text text-anchor="middle" x="620.15" y="-63.5" font-family="FreeSans" font-size="10.00">os_scheduling_strategies.c</text>
</a>
</g>
</g>
<!-- Node10&#45;&gt;Node11 -->
<g id="edge13" class="edge">
<title>Node10&#45;&gt;Node11</title>
<path fill="none" stroke="midnightblue" d="M597.12,-103.57C602.97,-94.27 609.92,-83.25 614.64,-75.75"/>
<polygon fill="midnightblue" stroke="midnightblue" points="594.13,-101.76 591.76,-112.08 600.05,-105.49 594.13,-101.76"/>
</g>
</g>
</svg>
