<?xml version="1.0" encoding="UTF-8" standalone="no"?>
<!DOCTYPE svg PUBLIC "-//W3C//DTD SVG 1.1//EN"
 "http://www.w3.org/Graphics/SVG/1.1/DTD/svg11.dtd">
<!-- Generated by graphviz version 2.43.0 (0)
 -->
<!-- Title: os_scheduler.c Pages: 1 -->
<svg width="824pt" height="308pt"
 viewBox="0.00 0.00 823.50 308.00" xmlns="http://www.w3.org/2000/svg" xmlns:xlink="http://www.w3.org/1999/xlink">
<g id="graph0" class="graph" transform="scale(1 1) rotate(0) translate(4 304)">
<title>os_scheduler.c</title>
<polygon fill="white" stroke="transparent" points="-4,4 -4,-304 819.5,-304 819.5,4 -4,4"/>
<!-- Node1 -->
<g id="node1" class="node">
<title>Node1</title>
<g id="a_node1"><a xlink:title=" ">
<polygon fill="#bfbfbf" stroke="black" points="315.5,-280.5 315.5,-299.5 403.5,-299.5 403.5,-280.5 315.5,-280.5"/>
<text text-anchor="middle" x="359.5" y="-287.5" font-family="FreeSans" font-size="10.00">os_scheduler.c</text>
</a>
</g>
</g>
<!-- Node2 -->
<g id="node2" class="node">
<title>Node2</title>
<g id="a_node2"><a xlink:href="os__scheduler_8h.html" target="_top" xlink:title="Scheduling module for the OS.">
<polygon fill="white" stroke="black" points="312,-168.5 312,-187.5 401,-187.5 401,-168.5 312,-168.5"/>
<text text-anchor="middle" x="356.5" y="-175.5" font-family="FreeSans" font-size="10.00">os_scheduler.h</text>
</a>
</g>
</g>
<!-- Node1&#45;&gt;Node2 -->
<g id="edge1" class="edge">
<title>Node1&#45;&gt;Node2</title>
<path fill="none" stroke="midnightblue" d="M355.9,-280.22C352.44,-271.28 347.47,-256.94 345.5,-244 343.11,-228.26 346.56,-210.44 350.21,-197.45"/>
<polygon fill="midnightblue" stroke="midnightblue" points="353.58,-198.4 353.21,-187.82 346.9,-196.33 353.58,-198.4"/>
</g>
<!-- Node3 -->
<g id="node3" class="node">
<title>Node3</title>
<g id="a_node3"><a xlink:title=" ">
<polygon fill="white" stroke="#bfbfbf" points="154.5,-56.5 154.5,-75.5 216.5,-75.5 216.5,-56.5 154.5,-56.5"/>
<text text-anchor="middle" x="185.5" y="-63.5" font-family="FreeSans" font-size="10.00">stdbool.h</text>
</a>
</g>
</g>
<!-- Node1&#45;&gt;Node3 -->
<g id="edge38" class="edge">
<title>Node1&#45;&gt;Node3</title>
<path fill="none" stroke="midnightblue" d="M327.13,-280.49C285.64,-267.77 214.85,-239.58 179.5,-188 159.82,-159.28 151.77,-145.7 160.5,-112 163.05,-102.18 168.25,-92.21 173.26,-84.17"/>
<polygon fill="midnightblue" stroke="midnightblue" points="176.25,-85.99 178.87,-75.73 170.42,-82.11 176.25,-85.99"/>
</g>
<!-- Node9 -->
<g id="node9" class="node">
<title>Node9</title>
<g id="a_node9"><a xlink:href="util_8h.html" target="_top" xlink:title="Little helpers that don&#39;t fit elsewhere.">
<polygon fill="white" stroke="black" points="354,-112.5 354,-131.5 395,-131.5 395,-112.5 354,-112.5"/>
<text text-anchor="middle" x="374.5" y="-119.5" font-family="FreeSans" font-size="10.00">util.h</text>
</a>
</g>
</g>
<!-- Node1&#45;&gt;Node9 -->
<g id="edge9" class="edge">
<title>Node1&#45;&gt;Node9</title>
<path fill="none" stroke="midnightblue" d="M349.75,-280.29C328.39,-260.11 281.07,-208.77 303.5,-168 312.21,-152.16 329.12,-141.12 344.24,-133.93"/>
<polygon fill="midnightblue" stroke="midnightblue" points="346.06,-136.96 353.83,-129.76 343.26,-130.54 346.06,-136.96"/>
</g>
<!-- Node11 -->
<g id="node11" class="node">
<title>Node11</title>
<g id="a_node11"><a xlink:href="os__input_8h.html" target="_top" xlink:title="Input library for the OS.">
<polygon fill="white" stroke="black" points="188,-168.5 188,-187.5 255,-187.5 255,-168.5 188,-168.5"/>
<text text-anchor="middle" x="221.5" y="-175.5" font-family="FreeSans" font-size="10.00">os_input.h</text>
</a>
</g>
</g>
<!-- Node1&#45;&gt;Node11 -->
<g id="edge13" class="edge">
<title>Node1&#45;&gt;Node11</title>
<path fill="none" stroke="midnightblue" d="M335.14,-280.46C315.91,-272.91 289.15,-260.53 269.5,-244 253.45,-230.5 239.77,-210.6 231.18,-196.38"/>
<polygon fill="midnightblue" stroke="midnightblue" points="234.12,-194.48 226.07,-187.59 228.07,-197.99 234.12,-194.48"/>
</g>
<!-- Node12 -->
<g id="node12" class="node">
<title>Node12</title>
<g id="a_node12"><a xlink:href="os__scheduling__strategies_8h.html" target="_top" xlink:title="Scheduling library for the OS.">
<polygon fill="white" stroke="black" points="387,-224.5 387,-243.5 536,-243.5 536,-224.5 387,-224.5"/>
<text text-anchor="middle" x="461.5" y="-231.5" font-family="FreeSans" font-size="10.00">os_scheduling_strategies.h</text>
</a>
</g>
</g>
<!-- Node1&#45;&gt;Node12 -->
<g id="edge15" class="edge">
<title>Node1&#45;&gt;Node12</title>
<path fill="none" stroke="midnightblue" d="M375.89,-280.32C392.17,-271.7 417.37,-258.36 436.22,-248.39"/>
<polygon fill="midnightblue" stroke="midnightblue" points="437.95,-251.43 445.15,-243.65 434.68,-245.24 437.95,-251.43"/>
</g>
<!-- Node13 -->
<g id="node13" class="node">
<title>Node13</title>
<g id="a_node13"><a xlink:href="os__taskman_8h.html" target="_top" xlink:title="TaskManager library for the OS.">
<polygon fill="white" stroke="black" points="0,-224.5 0,-243.5 85,-243.5 85,-224.5 0,-224.5"/>
<text text-anchor="middle" x="42.5" y="-231.5" font-family="FreeSans" font-size="10.00">os_taskman.h</text>
</a>
</g>
</g>
<!-- Node1&#45;&gt;Node13 -->
<g id="edge18" class="edge">
<title>Node1&#45;&gt;Node13</title>
<path fill="none" stroke="midnightblue" d="M315.42,-281.49C257.73,-271.66 156.73,-254.46 95.1,-243.96"/>
<polygon fill="midnightblue" stroke="midnightblue" points="95.64,-240.5 85.19,-242.27 94.46,-247.4 95.64,-240.5"/>
</g>
<!-- Node14 -->
<g id="node14" class="node">
<title>Node14</title>
<g id="a_node14"><a xlink:href="os__core_8h.html" target="_top" xlink:title="Core of the OS.">
<polygon fill="white" stroke="black" points="532,-168.5 532,-187.5 595,-187.5 595,-168.5 532,-168.5"/>
<text text-anchor="middle" x="563.5" y="-175.5" font-family="FreeSans" font-size="10.00">os_core.h</text>
</a>
</g>
</g>
<!-- Node1&#45;&gt;Node14 -->
<g id="edge20" class="edge">
<title>Node1&#45;&gt;Node14</title>
<path fill="none" stroke="midnightblue" d="M403.65,-283.52C452.05,-276.64 525.51,-263.35 545.5,-244 557.85,-232.05 561.96,-212.44 563.21,-197.88"/>
<polygon fill="midnightblue" stroke="midnightblue" points="566.72,-197.68 563.71,-187.52 559.73,-197.34 566.72,-197.68"/>
</g>
<!-- Node15 -->
<g id="node15" class="node">
<title>Node15</title>
<g id="a_node15"><a xlink:href="lcd_8h.html" target="_top" xlink:title="Library for LCD use.">
<polygon fill="white" stroke="black" points="419.5,-168.5 419.5,-187.5 459.5,-187.5 459.5,-168.5 419.5,-168.5"/>
<text text-anchor="middle" x="439.5" y="-175.5" font-family="FreeSans" font-size="10.00">lcd.h</text>
</a>
</g>
</g>
<!-- Node1&#45;&gt;Node15 -->
<g id="edge22" class="edge">
<title>Node1&#45;&gt;Node15</title>
<path fill="none" stroke="midnightblue" d="M360.27,-280.24C361.81,-266.99 366.25,-241.54 378.5,-224 387.45,-211.19 401.22,-200.58 413.41,-192.89"/>
<polygon fill="midnightblue" stroke="midnightblue" points="415.52,-195.71 422.32,-187.59 411.94,-189.69 415.52,-195.71"/>
</g>
<!-- Node16 -->
<g id="node16" class="node">
<title>Node16</title>
<g id="a_node16"><a xlink:href="os__memheap__drivers_8h.html" target="_top" xlink:title="Drivers for OS heap management.">
<polygon fill="white" stroke="black" points="652,-168.5 652,-187.5 783,-187.5 783,-168.5 652,-168.5"/>
<text text-anchor="middle" x="717.5" y="-175.5" font-family="FreeSans" font-size="10.00">os_memheap_drivers.h</text>
</a>
</g>
</g>
<!-- Node1&#45;&gt;Node16 -->
<g id="edge28" class="edge">
<title>Node1&#45;&gt;Node16</title>
<path fill="none" stroke="midnightblue" d="M403.72,-287.7C481.4,-284.65 638.28,-274.75 682.5,-244 698.25,-233.05 707.55,-212.68 712.55,-197.66"/>
<polygon fill="midnightblue" stroke="midnightblue" points="715.97,-198.45 715.47,-187.87 709.26,-196.45 715.97,-198.45"/>
</g>
<!-- Node20 -->
<g id="node20" class="node">
<title>Node20</title>
<g id="a_node20"><a xlink:href="os__memory_8h.html" target="_top" xlink:title="Library for OS memory management.">
<polygon fill="white" stroke="black" points="591.5,-224.5 591.5,-243.5 673.5,-243.5 673.5,-224.5 591.5,-224.5"/>
<text text-anchor="middle" x="632.5" y="-231.5" font-family="FreeSans" font-size="10.00">os_memory.h</text>
</a>
</g>
</g>
<!-- Node1&#45;&gt;Node20 -->
<g id="edge33" class="edge">
<title>Node1&#45;&gt;Node20</title>
<path fill="none" stroke="midnightblue" d="M402.76,-280.44C451.25,-270.85 529.8,-255.31 581.31,-245.13"/>
<polygon fill="midnightblue" stroke="midnightblue" points="582.1,-248.54 591.23,-243.16 580.74,-241.67 582.1,-248.54"/>
</g>
<!-- Node21 -->
<g id="node21" class="node">
<title>Node21</title>
<g id="a_node21"><a xlink:title=" ">
<polygon fill="white" stroke="#bfbfbf" points="729.5,-224.5 729.5,-243.5 815.5,-243.5 815.5,-224.5 729.5,-224.5"/>
<text text-anchor="middle" x="772.5" y="-231.5" font-family="FreeSans" font-size="10.00">avr/interrupt.h</text>
</a>
</g>
</g>
<!-- Node1&#45;&gt;Node21 -->
<g id="edge37" class="edge">
<title>Node1&#45;&gt;Node21</title>
<path fill="none" stroke="midnightblue" d="M403.68,-283.86C471.03,-275.92 603.4,-259.93 715.5,-244 716.76,-243.82 718.03,-243.64 719.31,-243.45"/>
<polygon fill="midnightblue" stroke="midnightblue" points="719.89,-246.91 729.26,-241.97 718.85,-239.98 719.89,-246.91"/>
</g>
<!-- Node2&#45;&gt;Node3 -->
<g id="edge2" class="edge">
<title>Node2&#45;&gt;Node3</title>
<path fill="none" stroke="midnightblue" d="M311.79,-172.48C262.47,-166.46 187.76,-153.93 170.5,-132 159.79,-118.39 166.71,-98.51 174.31,-84.32"/>
<polygon fill="midnightblue" stroke="midnightblue" points="177.42,-85.95 179.48,-75.56 171.39,-82.4 177.42,-85.95"/>
</g>
<!-- Node4 -->
<g id="node4" class="node">
<title>Node4</title>
<g id="a_node4"><a xlink:href="defines_8h.html" target="_top" xlink:title="Simple definitions and assembler&#45;macros, mostly 8/16&#45;Bit values.">
<polygon fill="white" stroke="black" points="490,-112.5 490,-131.5 551,-131.5 551,-112.5 490,-112.5"/>
<text text-anchor="middle" x="520.5" y="-119.5" font-family="FreeSans" font-size="10.00">defines.h</text>
</a>
</g>
</g>
<!-- Node2&#45;&gt;Node4 -->
<g id="edge3" class="edge">
<title>Node2&#45;&gt;Node4</title>
<path fill="none" stroke="midnightblue" d="M382.49,-168.44C410.2,-159.32 454.25,-144.81 485.12,-134.65"/>
<polygon fill="midnightblue" stroke="midnightblue" points="486.23,-137.97 494.64,-131.52 484.04,-131.32 486.23,-137.97"/>
</g>
<!-- Node7 -->
<g id="node7" class="node">
<title>Node7</title>
<g id="a_node7"><a xlink:href="os__process_8h.html" target="_top" xlink:title="Struct specifying a process.">
<polygon fill="white" stroke="black" points="179.5,-112.5 179.5,-131.5 259.5,-131.5 259.5,-112.5 179.5,-112.5"/>
<text text-anchor="middle" x="219.5" y="-119.5" font-family="FreeSans" font-size="10.00">os_process.h</text>
</a>
</g>
</g>
<!-- Node2&#45;&gt;Node7 -->
<g id="edge6" class="edge">
<title>Node2&#45;&gt;Node7</title>
<path fill="none" stroke="midnightblue" d="M334.79,-168.44C312.15,-159.52 276.43,-145.44 250.75,-135.32"/>
<polygon fill="midnightblue" stroke="midnightblue" points="251.69,-131.93 241.11,-131.52 249.13,-138.44 251.69,-131.93"/>
</g>
<!-- Node5 -->
<g id="node5" class="node">
<title>Node5</title>
<g id="a_node5"><a xlink:href="atmega644constants_8h.html" target="_top" xlink:title="Constants for ATMega644 and EVA board. Defines several useful constants for the ATMega644.">
<polygon fill="white" stroke="black" points="483.5,-56.5 483.5,-75.5 611.5,-75.5 611.5,-56.5 483.5,-56.5"/>
<text text-anchor="middle" x="547.5" y="-63.5" font-family="FreeSans" font-size="10.00">atmega644constants.h</text>
</a>
</g>
</g>
<!-- Node4&#45;&gt;Node5 -->
<g id="edge4" class="edge">
<title>Node4&#45;&gt;Node5</title>
<path fill="none" stroke="midnightblue" d="M524.96,-112.08C528.65,-104.69 534.02,-93.95 538.59,-84.81"/>
<polygon fill="midnightblue" stroke="midnightblue" points="541.78,-86.26 543.12,-75.75 535.52,-83.13 541.78,-86.26"/>
</g>
<!-- Node6 -->
<g id="node6" class="node">
<title>Node6</title>
<g id="a_node6"><a xlink:title=" ">
<polygon fill="white" stroke="#bfbfbf" points="521,-0.5 521,-19.5 574,-19.5 574,-0.5 521,-0.5"/>
<text text-anchor="middle" x="547.5" y="-7.5" font-family="FreeSans" font-size="10.00">avr/io.h</text>
</a>
</g>
</g>
<!-- Node5&#45;&gt;Node6 -->
<g id="edge5" class="edge">
<title>Node5&#45;&gt;Node6</title>
<path fill="none" stroke="midnightblue" d="M547.5,-56.08C547.5,-49.01 547.5,-38.86 547.5,-29.99"/>
<polygon fill="midnightblue" stroke="midnightblue" points="551,-29.75 547.5,-19.75 544,-29.75 551,-29.75"/>
</g>
<!-- Node7&#45;&gt;Node3 -->
<g id="edge8" class="edge">
<title>Node7&#45;&gt;Node3</title>
<path fill="none" stroke="midnightblue" d="M213.89,-112.08C209.13,-104.53 202.18,-93.49 196.35,-84.23"/>
<polygon fill="midnightblue" stroke="midnightblue" points="199.3,-82.35 191.01,-75.75 193.38,-86.08 199.3,-82.35"/>
</g>
<!-- Node8 -->
<g id="node8" class="node">
<title>Node8</title>
<g id="a_node8"><a xlink:title=" ">
<polygon fill="white" stroke="#bfbfbf" points="299,-56.5 299,-75.5 352,-75.5 352,-56.5 299,-56.5"/>
<text text-anchor="middle" x="325.5" y="-63.5" font-family="FreeSans" font-size="10.00">stdint.h</text>
</a>
</g>
</g>
<!-- Node7&#45;&gt;Node8 -->
<g id="edge7" class="edge">
<title>Node7&#45;&gt;Node8</title>
<path fill="none" stroke="midnightblue" d="M236.53,-112.32C253.53,-103.66 279.88,-90.24 299.49,-80.25"/>
<polygon fill="midnightblue" stroke="midnightblue" points="301.19,-83.31 308.51,-75.65 298.01,-77.08 301.19,-83.31"/>
</g>
<!-- Node9&#45;&gt;Node3 -->
<g id="edge11" class="edge">
<title>Node9&#45;&gt;Node3</title>
<path fill="none" stroke="midnightblue" d="M353.91,-115.12C323.11,-106.32 264.45,-89.56 225.15,-78.33"/>
<polygon fill="midnightblue" stroke="midnightblue" points="225.93,-74.91 215.35,-75.53 224.01,-81.64 225.93,-74.91"/>
</g>
<!-- Node9&#45;&gt;Node8 -->
<g id="edge10" class="edge">
<title>Node9&#45;&gt;Node8</title>
<path fill="none" stroke="midnightblue" d="M366.41,-112.08C359.34,-104.3 348.91,-92.8 340.35,-83.37"/>
<polygon fill="midnightblue" stroke="midnightblue" points="342.75,-80.8 333.44,-75.75 337.57,-85.51 342.75,-80.8"/>
</g>
<!-- Node10 -->
<g id="node10" class="node">
<title>Node10</title>
<g id="a_node10"><a xlink:title=" ">
<polygon fill="white" stroke="#bfbfbf" points="370,-56.5 370,-75.5 465,-75.5 465,-56.5 370,-56.5"/>
<text text-anchor="middle" x="417.5" y="-63.5" font-family="FreeSans" font-size="10.00">avr/pgmspace.h</text>
</a>
</g>
</g>
<!-- Node9&#45;&gt;Node10 -->
<g id="edge12" class="edge">
<title>Node9&#45;&gt;Node10</title>
<path fill="none" stroke="midnightblue" d="M381.6,-112.08C387.74,-104.38 396.77,-93.03 404.24,-83.65"/>
<polygon fill="midnightblue" stroke="midnightblue" points="407.04,-85.75 410.53,-75.75 401.56,-81.39 407.04,-85.75"/>
</g>
<!-- Node11&#45;&gt;Node8 -->
<g id="edge14" class="edge">
<title>Node11&#45;&gt;Node8</title>
<path fill="none" stroke="midnightblue" d="M231.1,-168.27C240.77,-159.37 256,-145.06 268.5,-132 283.82,-115.99 300.43,-96.82 311.75,-83.47"/>
<polygon fill="midnightblue" stroke="midnightblue" points="314.59,-85.53 318.35,-75.62 309.23,-81.02 314.59,-85.53"/>
</g>
<!-- Node12&#45;&gt;Node2 -->
<g id="edge16" class="edge">
<title>Node12&#45;&gt;Node2</title>
<path fill="none" stroke="midnightblue" d="M444.63,-224.32C427.79,-215.66 401.69,-202.24 382.26,-192.25"/>
<polygon fill="midnightblue" stroke="midnightblue" points="383.82,-189.12 373.33,-187.65 380.62,-195.34 383.82,-189.12"/>
</g>
<!-- Node12&#45;&gt;Node4 -->
<g id="edge17" class="edge">
<title>Node12&#45;&gt;Node4</title>
<path fill="none" stroke="midnightblue" d="M466.13,-224.37C475.78,-206.38 498.21,-164.55 511.05,-140.63"/>
<polygon fill="midnightblue" stroke="midnightblue" points="514.25,-142.06 515.89,-131.59 508.08,-138.75 514.25,-142.06"/>
</g>
<!-- Node13&#45;&gt;Node3 -->
<g id="edge19" class="edge">
<title>Node13&#45;&gt;Node3</title>
<path fill="none" stroke="midnightblue" d="M44.54,-224.28C49.98,-202.73 66.71,-146.19 99.5,-112 113.35,-97.56 132.84,-86.84 149.77,-79.49"/>
<polygon fill="midnightblue" stroke="midnightblue" points="151.46,-82.58 159.38,-75.55 148.8,-76.1 151.46,-82.58"/>
</g>
<!-- Node14&#45;&gt;Node10 -->
<g id="edge21" class="edge">
<title>Node14&#45;&gt;Node10</title>
<path fill="none" stroke="midnightblue" d="M565.93,-168.38C569.18,-154.84 573.18,-128.47 560.5,-112 549.51,-97.72 508.56,-85.72 473.29,-77.71"/>
<polygon fill="midnightblue" stroke="midnightblue" points="474.04,-74.3 463.52,-75.56 472.53,-81.13 474.04,-74.3"/>
</g>
<!-- Node15&#45;&gt;Node3 -->
<g id="edge23" class="edge">
<title>Node15&#45;&gt;Node3</title>
<path fill="none" stroke="midnightblue" d="M419.57,-168.37C374.96,-149.05 266.92,-102.26 214.71,-79.65"/>
<polygon fill="midnightblue" stroke="midnightblue" points="215.91,-76.35 205.34,-75.59 213.12,-82.78 215.91,-76.35"/>
</g>
<!-- Node15&#45;&gt;Node4 -->
<g id="edge26" class="edge">
<title>Node15&#45;&gt;Node4</title>
<path fill="none" stroke="midnightblue" d="M452.51,-168.32C465.03,-159.98 484.18,-147.21 498.97,-137.35"/>
<polygon fill="midnightblue" stroke="midnightblue" points="501.14,-140.11 507.52,-131.65 497.26,-134.29 501.14,-140.11"/>
</g>
<!-- Node15&#45;&gt;Node8 -->
<g id="edge24" class="edge">
<title>Node15&#45;&gt;Node8</title>
<path fill="none" stroke="midnightblue" d="M436.66,-168.47C431.85,-155.07 420.98,-128.87 404.5,-112 391.17,-98.35 372.81,-87.55 357.14,-79.96"/>
<polygon fill="midnightblue" stroke="midnightblue" points="358.35,-76.66 347.81,-75.65 355.42,-83.02 358.35,-76.66"/>
</g>
<!-- Node15&#45;&gt;Node9 -->
<g id="edge27" class="edge">
<title>Node15&#45;&gt;Node9</title>
<path fill="none" stroke="midnightblue" d="M429.06,-168.32C419.35,-160.26 404.68,-148.08 393,-138.37"/>
<polygon fill="midnightblue" stroke="midnightblue" points="395.06,-135.53 385.13,-131.83 390.59,-140.92 395.06,-135.53"/>
</g>
<!-- Node15&#45;&gt;Node10 -->
<g id="edge25" class="edge">
<title>Node15&#45;&gt;Node10</title>
<path fill="none" stroke="midnightblue" d="M440.27,-168.45C441.17,-155.9 442.02,-131.81 437.5,-112 435.36,-102.62 431.24,-92.8 427.29,-84.73"/>
<polygon fill="midnightblue" stroke="midnightblue" points="430.27,-82.87 422.54,-75.61 424.06,-86.1 430.27,-82.87"/>
</g>
<!-- Node16&#45;&gt;Node4 -->
<g id="edge31" class="edge">
<title>Node16&#45;&gt;Node4</title>
<path fill="none" stroke="midnightblue" d="M686.28,-168.44C652.47,-159.17 598.38,-144.35 561.24,-134.17"/>
<polygon fill="midnightblue" stroke="midnightblue" points="561.81,-130.7 551.24,-131.43 559.96,-137.45 561.81,-130.7"/>
</g>
<!-- Node17 -->
<g id="node17" class="node">
<title>Node17</title>
<g id="a_node17"><a xlink:href="os__mem__drivers_8h.html" target="_top" xlink:title="Drivers for OS memory management.">
<polygon fill="white" stroke="black" points="609,-112.5 609,-131.5 716,-131.5 716,-112.5 609,-112.5"/>
<text text-anchor="middle" x="662.5" y="-119.5" font-family="FreeSans" font-size="10.00">os_mem_drivers.h</text>
</a>
</g>
</g>
<!-- Node16&#45;&gt;Node17 -->
<g id="edge29" class="edge">
<title>Node16&#45;&gt;Node17</title>
<path fill="none" stroke="midnightblue" d="M708.42,-168.08C700.33,-160.14 688.3,-148.34 678.59,-138.8"/>
<polygon fill="midnightblue" stroke="midnightblue" points="681,-136.26 671.41,-131.75 676.1,-141.25 681,-136.26"/>
</g>
<!-- Node19 -->
<g id="node19" class="node">
<title>Node19</title>
<g id="a_node19"><a xlink:title=" ">
<polygon fill="white" stroke="#bfbfbf" points="734.5,-112.5 734.5,-131.5 790.5,-131.5 790.5,-112.5 734.5,-112.5"/>
<text text-anchor="middle" x="762.5" y="-119.5" font-family="FreeSans" font-size="10.00">stddef.h</text>
</a>
</g>
</g>
<!-- Node16&#45;&gt;Node19 -->
<g id="edge32" class="edge">
<title>Node16&#45;&gt;Node19</title>
<path fill="none" stroke="midnightblue" d="M724.93,-168.08C731.35,-160.38 740.81,-149.03 748.62,-139.65"/>
<polygon fill="midnightblue" stroke="midnightblue" points="751.49,-141.67 755.21,-131.75 746.12,-137.19 751.49,-141.67"/>
</g>
<!-- Node18 -->
<g id="node18" class="node">
<title>Node18</title>
<g id="a_node18"><a xlink:title=" ">
<polygon fill="white" stroke="#bfbfbf" points="630,-56.5 630,-75.5 695,-75.5 695,-56.5 630,-56.5"/>
<text text-anchor="middle" x="662.5" y="-63.5" font-family="FreeSans" font-size="10.00">inttypes.h</text>
</a>
</g>
</g>
<!-- Node17&#45;&gt;Node18 -->
<g id="edge30" class="edge">
<title>Node17&#45;&gt;Node18</title>
<path fill="none" stroke="midnightblue" d="M662.5,-112.08C662.5,-105.01 662.5,-94.86 662.5,-85.99"/>
<polygon fill="midnightblue" stroke="midnightblue" points="666,-85.75 662.5,-75.75 659,-85.75 666,-85.75"/>
</g>
<!-- Node20&#45;&gt;Node2 -->
<g id="edge36" class="edge">
<title>Node20&#45;&gt;Node2</title>
<path fill="none" stroke="midnightblue" d="M591.48,-224.97C543.23,-215.53 463,-199.84 409.93,-189.45"/>
<polygon fill="midnightblue" stroke="midnightblue" points="410.51,-186 400.03,-187.52 409.17,-192.87 410.51,-186"/>
</g>
<!-- Node20&#45;&gt;Node16 -->
<g id="edge35" class="edge">
<title>Node20&#45;&gt;Node16</title>
<path fill="none" stroke="midnightblue" d="M646.16,-224.32C659.42,-215.9 679.77,-202.97 695.35,-193.07"/>
<polygon fill="midnightblue" stroke="midnightblue" points="697.31,-195.97 703.88,-187.65 693.56,-190.06 697.31,-195.97"/>
</g>
<!-- Node20&#45;&gt;Node17 -->
<g id="edge34" class="edge">
<title>Node20&#45;&gt;Node17</title>
<path fill="none" stroke="midnightblue" d="M633.31,-224.44C634.64,-211.88 637.74,-187.78 643.5,-168 646.17,-158.84 650.16,-149.04 653.8,-140.93"/>
<polygon fill="midnightblue" stroke="midnightblue" points="657.03,-142.28 658.09,-131.74 650.69,-139.32 657.03,-142.28"/>
</g>
</g>
</svg>
