<?xml version="1.0" encoding="UTF-8" standalone="no"?>
<!DOCTYPE svg PUBLIC "-//W3C//DTD SVG 1.1//EN"
 "http://www.w3.org/Graphics/SVG/1.1/DTD/svg11.dtd">
<!-- Generated by graphviz version 2.43.0 (0)
 -->
<!-- Title: os_freeOwnerRestricted Pages: 1 -->
<svg width="565pt" height="104pt"
 viewBox="0.00 0.00 565.00 104.00" xmlns="http://www.w3.org/2000/svg" xmlns:xlink="http://www.w3.org/1999/xlink">
<g id="graph0" class="graph" transform="scale(1 1) rotate(0) translate(4 100)">
<title>os_freeOwnerRestricted</title>
<polygon fill="white" stroke="transparent" points="-4,4 -4,-100 561,-100 561,4 -4,4"/>
<!-- Node1 -->
<g id="node1" class="node">
<title>Node1</title>
<g id="a_node1"><a xlink:title=" ">
<polygon fill="#bfbfbf" stroke="black" points="0,-38.5 0,-57.5 134,-57.5 134,-38.5 0,-38.5"/>
<text text-anchor="middle" x="67" y="-45.5" font-family="FreeSans" font-size="10.00">os_freeOwnerRestricted</text>
</a>
</g>
</g>
<!-- Node2 -->
<g id="node2" class="node">
<title>Node2</title>
<g id="a_node2"><a xlink:href="os__scheduler_8c.html#a9d27b2dbf45ce6648916ed5ceb0a38df" target="_top" xlink:title="enters a critical code section">
<polygon fill="white" stroke="black" points="172.5,-76.5 172.5,-95.5 301.5,-95.5 301.5,-76.5 172.5,-76.5"/>
<text text-anchor="middle" x="237" y="-83.5" font-family="FreeSans" font-size="10.00">os_enterCriticalSection</text>
</a>
</g>
</g>
<!-- Node1&#45;&gt;Node2 -->
<g id="edge1" class="edge">
<title>Node1&#45;&gt;Node2</title>
<path fill="none" stroke="midnightblue" d="M110.39,-57.59C132.76,-62.65 160.4,-68.9 184.05,-74.25"/>
<polygon fill="midnightblue" stroke="midnightblue" points="183.39,-77.69 193.91,-76.48 184.93,-70.86 183.39,-77.69"/>
</g>
<!-- Node3 -->
<g id="node3" class="node">
<title>Node3</title>
<g id="a_node3"><a xlink:href="os__memory_8c.html#a292385f9ee19516237f51ab76c76405e" target="_top" xlink:title="Get the address of the first byte of chunk.">
<polygon fill="white" stroke="black" points="170,-38.5 170,-57.5 304,-57.5 304,-38.5 170,-38.5"/>
<text text-anchor="middle" x="237" y="-45.5" font-family="FreeSans" font-size="10.00">os_getFirstByteOfChunk</text>
</a>
</g>
</g>
<!-- Node1&#45;&gt;Node3 -->
<g id="edge2" class="edge">
<title>Node1&#45;&gt;Node3</title>
<path fill="none" stroke="midnightblue" d="M134.4,-48C142.68,-48 151.2,-48 159.62,-48"/>
<polygon fill="midnightblue" stroke="midnightblue" points="159.81,-51.5 169.81,-48 159.81,-44.5 159.81,-51.5"/>
</g>
<!-- Node4 -->
<g id="node4" class="node">
<title>Node4</title>
<g id="a_node4"><a xlink:href="os__memory_8c.html#a29ccc3e0a668c0be4b285bc74ef6d920" target="_top" xlink:title="Function used to get the value of a single map entry, this is made public so the allocation strategie...">
<polygon fill="white" stroke="black" points="340,-19.5 340,-38.5 435,-38.5 435,-19.5 340,-19.5"/>
<text text-anchor="middle" x="387.5" y="-26.5" font-family="FreeSans" font-size="10.00">os_getMapEntry</text>
</a>
</g>
</g>
<!-- Node1&#45;&gt;Node4 -->
<g id="edge6" class="edge">
<title>Node1&#45;&gt;Node4</title>
<path fill="none" stroke="midnightblue" d="M109.44,-38.49C127.88,-34.72 149.91,-30.86 170,-29 224.05,-24.01 286.02,-24.65 329.77,-26.16"/>
<polygon fill="midnightblue" stroke="midnightblue" points="329.81,-29.66 339.93,-26.53 330.07,-22.66 329.81,-29.66"/>
</g>
<!-- Node3&#45;&gt;Node4 -->
<g id="edge3" class="edge">
<title>Node3&#45;&gt;Node4</title>
<path fill="none" stroke="midnightblue" d="M304.43,-39.5C312.89,-38.42 321.48,-37.32 329.76,-36.26"/>
<polygon fill="midnightblue" stroke="midnightblue" points="330.21,-39.73 339.68,-34.99 329.32,-32.79 330.21,-39.73"/>
</g>
<!-- Node5 -->
<g id="node5" class="node">
<title>Node5</title>
<g id="a_node5"><a xlink:href="os__memory_8c.html#ae420976ba4abbd069aff795935b9636c" target="_top" xlink:title="Reads the value of the higher nibble of the given address.">
<polygon fill="white" stroke="black" points="471,-38.5 471,-57.5 557,-57.5 557,-38.5 471,-38.5"/>
<text text-anchor="middle" x="514" y="-45.5" font-family="FreeSans" font-size="10.00">getHighNibble</text>
</a>
</g>
</g>
<!-- Node4&#45;&gt;Node5 -->
<g id="edge4" class="edge">
<title>Node4&#45;&gt;Node5</title>
<path fill="none" stroke="midnightblue" d="M435.21,-36.13C443.64,-37.42 452.48,-38.76 461.05,-40.07"/>
<polygon fill="midnightblue" stroke="midnightblue" points="460.53,-43.53 470.95,-41.58 461.59,-36.61 460.53,-43.53"/>
</g>
<!-- Node6 -->
<g id="node6" class="node">
<title>Node6</title>
<g id="a_node6"><a xlink:href="os__memory_8c.html#a01bd9b56dbbeb0af404043ceca5c8818" target="_top" xlink:title="Reads the value of the lower nibble of the given address.">
<polygon fill="white" stroke="black" points="472.5,-0.5 472.5,-19.5 555.5,-19.5 555.5,-0.5 472.5,-0.5"/>
<text text-anchor="middle" x="514" y="-7.5" font-family="FreeSans" font-size="10.00">getLowNibble</text>
</a>
</g>
</g>
<!-- Node4&#45;&gt;Node6 -->
<g id="edge5" class="edge">
<title>Node4&#45;&gt;Node6</title>
<path fill="none" stroke="midnightblue" d="M435.21,-21.87C444.04,-20.52 453.3,-19.11 462.25,-17.75"/>
<polygon fill="midnightblue" stroke="midnightblue" points="462.8,-21.2 472.16,-16.23 461.75,-14.28 462.8,-21.2"/>
</g>
</g>
</svg>
