<?xml version="1.0" encoding="UTF-8" standalone="no"?>
<!DOCTYPE svg PUBLIC "-//W3C//DTD SVG 1.1//EN"
 "http://www.w3.org/Graphics/SVG/1.1/DTD/svg11.dtd">
<!-- Generated by graphviz version 2.43.0 (0)
 -->
<!-- Title: os_realloc Pages: 1 -->
<svg width="664pt" height="313pt"
 viewBox="0.00 0.00 664.00 313.00" xmlns="http://www.w3.org/2000/svg" xmlns:xlink="http://www.w3.org/1999/xlink">
<g id="graph0" class="graph" transform="scale(1 1) rotate(0) translate(4 309)">
<title>os_realloc</title>
<polygon fill="white" stroke="transparent" points="-4,4 -4,-309 660,-309 660,4 -4,4"/>
<!-- Node1 -->
<g id="node1" class="node">
<title>Node1</title>
<g id="a_node1"><a xlink:title="Function to efficiently reallocate memory.">
<polygon fill="#bfbfbf" stroke="black" points="0,-133.5 0,-152.5 66,-152.5 66,-133.5 0,-133.5"/>
<text text-anchor="middle" x="33" y="-140.5" font-family="FreeSans" font-size="10.00">os_realloc</text>
</a>
</g>
</g>
<!-- Node2 -->
<g id="node2" class="node">
<title>Node2</title>
<g id="a_node2"><a xlink:href="os__memory_8c.html#a1c8691648bd2d5114b97de7cc2550bc2" target="_top" xlink:title=" ">
<polygon fill="white" stroke="black" points="130,-228.5 130,-247.5 205,-247.5 205,-228.5 130,-228.5"/>
<text text-anchor="middle" x="167.5" y="-235.5" font-family="FreeSans" font-size="10.00">moveChunk</text>
</a>
</g>
</g>
<!-- Node1&#45;&gt;Node2 -->
<g id="edge1" class="edge">
<title>Node1&#45;&gt;Node2</title>
<path fill="none" stroke="midnightblue" d="M40.88,-152.6C52.11,-167.62 75.76,-196.75 102,-214 108.25,-218.11 115.29,-221.64 122.37,-224.63"/>
<polygon fill="midnightblue" stroke="midnightblue" points="121.39,-228.01 131.98,-228.39 123.94,-221.49 121.39,-228.01"/>
</g>
<!-- Node3 -->
<g id="node3" class="node">
<title>Node3</title>
<g id="a_node3"><a xlink:href="os__memory_8c.html#a29ccc3e0a668c0be4b285bc74ef6d920" target="_top" xlink:title="Function used to get the value of a single map entry, this is made public so the allocation strategie...">
<polygon fill="white" stroke="black" points="439,-171.5 439,-190.5 534,-190.5 534,-171.5 439,-171.5"/>
<text text-anchor="middle" x="486.5" y="-178.5" font-family="FreeSans" font-size="10.00">os_getMapEntry</text>
</a>
</g>
</g>
<!-- Node1&#45;&gt;Node3 -->
<g id="edge14" class="edge">
<title>Node1&#45;&gt;Node3</title>
<path fill="none" stroke="midnightblue" d="M46.72,-152.59C59.8,-161.83 81.14,-175.23 102,-181 214.47,-212.1 352.68,-200.62 428.68,-190.28"/>
<polygon fill="midnightblue" stroke="midnightblue" points="429.56,-193.69 438.98,-188.83 428.59,-186.76 429.56,-193.69"/>
</g>
<!-- Node6 -->
<g id="node6" class="node">
<title>Node6</title>
<g id="a_node6"><a xlink:href="os__memory_8c.html#aa0082364f445ac8cfacf8d0e873bcfb5" target="_top" xlink:title="This function is used to set a heap map entry on a specific heap.">
<polygon fill="white" stroke="black" points="297,-266.5 297,-285.5 375,-285.5 375,-266.5 297,-266.5"/>
<text text-anchor="middle" x="336" y="-273.5" font-family="FreeSans" font-size="10.00">setMapEntry</text>
</a>
</g>
</g>
<!-- Node1&#45;&gt;Node6 -->
<g id="edge18" class="edge">
<title>Node1&#45;&gt;Node6</title>
<path fill="none" stroke="midnightblue" d="M36.53,-152.79C42.99,-175.64 62.49,-232.38 102,-257 157.91,-291.83 236.59,-290.13 286.69,-284.22"/>
<polygon fill="midnightblue" stroke="midnightblue" points="287.15,-287.69 296.62,-282.95 286.26,-280.75 287.15,-287.69"/>
</g>
<!-- Node9 -->
<g id="node9" class="node">
<title>Node9</title>
<g id="a_node9"><a xlink:href="os__scheduler_8c.html#a9d27b2dbf45ce6648916ed5ceb0a38df" target="_top" xlink:title="enters a critical code section">
<polygon fill="white" stroke="black" points="271.5,-38.5 271.5,-57.5 400.5,-57.5 400.5,-38.5 271.5,-38.5"/>
<text text-anchor="middle" x="336" y="-45.5" font-family="FreeSans" font-size="10.00">os_enterCriticalSection</text>
</a>
</g>
</g>
<!-- Node1&#45;&gt;Node9 -->
<g id="edge8" class="edge">
<title>Node1&#45;&gt;Node9</title>
<path fill="none" stroke="midnightblue" d="M64.24,-133.46C118.89,-116.21 234.09,-79.85 295.11,-60.59"/>
<polygon fill="midnightblue" stroke="midnightblue" points="296.3,-63.89 304.78,-57.54 294.19,-57.21 296.3,-63.89"/>
</g>
<!-- Node10 -->
<g id="node10" class="node">
<title>Node10</title>
<g id="a_node10"><a xlink:href="os__memory_8c.html#af4b11f1dd58f3cec9668a6be98101be4" target="_top" xlink:title="Get the size of a chunk on a given address.">
<polygon fill="white" stroke="black" points="117.5,-152.5 117.5,-171.5 217.5,-171.5 217.5,-152.5 117.5,-152.5"/>
<text text-anchor="middle" x="167.5" y="-159.5" font-family="FreeSans" font-size="10.00">os_getChunkSize</text>
</a>
</g>
</g>
<!-- Node1&#45;&gt;Node10 -->
<g id="edge9" class="edge">
<title>Node1&#45;&gt;Node10</title>
<path fill="none" stroke="midnightblue" d="M66.07,-147.6C78.46,-149.38 93.05,-151.47 107.2,-153.5"/>
<polygon fill="midnightblue" stroke="midnightblue" points="107,-157 117.39,-154.96 107.99,-150.07 107,-157"/>
</g>
<!-- Node11 -->
<g id="node11" class="node">
<title>Node11</title>
<g id="a_node11"><a xlink:href="os__memory_8c.html#a292385f9ee19516237f51ab76c76405e" target="_top" xlink:title="Get the address of the first byte of chunk.">
<polygon fill="white" stroke="black" points="269,-114.5 269,-133.5 403,-133.5 403,-114.5 269,-114.5"/>
<text text-anchor="middle" x="336" y="-121.5" font-family="FreeSans" font-size="10.00">os_getFirstByteOfChunk</text>
</a>
</g>
</g>
<!-- Node1&#45;&gt;Node11 -->
<g id="edge13" class="edge">
<title>Node1&#45;&gt;Node11</title>
<path fill="none" stroke="midnightblue" d="M66.21,-140.97C111.82,-138.09 196.6,-132.74 258.78,-128.81"/>
<polygon fill="midnightblue" stroke="midnightblue" points="259.19,-132.29 268.95,-128.17 258.75,-125.31 259.19,-132.29"/>
</g>
<!-- Node12 -->
<g id="node12" class="node">
<title>Node12</title>
<g id="a_node12"><a xlink:href="os__scheduler_8c.html#a21546fdd22e5e6818e50856a119d98e0" target="_top" xlink:title="leaves a critical code section">
<polygon fill="white" stroke="black" points="102,-38.5 102,-57.5 233,-57.5 233,-38.5 102,-38.5"/>
<text text-anchor="middle" x="167.5" y="-45.5" font-family="FreeSans" font-size="10.00">os_leaveCriticalSection</text>
</a>
</g>
</g>
<!-- Node1&#45;&gt;Node12 -->
<g id="edge15" class="edge">
<title>Node1&#45;&gt;Node12</title>
<path fill="none" stroke="midnightblue" d="M40.88,-133.4C52.11,-118.38 75.76,-89.25 102,-72 108.25,-67.89 115.29,-64.36 122.37,-61.37"/>
<polygon fill="midnightblue" stroke="midnightblue" points="123.94,-64.51 131.98,-57.61 121.39,-57.99 123.94,-64.51"/>
</g>
<!-- Node13 -->
<g id="node13" class="node">
<title>Node13</title>
<g id="a_node13"><a xlink:href="os__memory_8c.html#a5644c571680a5c019c91c30bee4d5d7e" target="_top" xlink:title="Function used to allocate private memory.">
<polygon fill="white" stroke="black" points="134.5,-0.5 134.5,-19.5 200.5,-19.5 200.5,-0.5 134.5,-0.5"/>
<text text-anchor="middle" x="167.5" y="-7.5" font-family="FreeSans" font-size="10.00">os_malloc</text>
</a>
</g>
</g>
<!-- Node1&#45;&gt;Node13 -->
<g id="edge16" class="edge">
<title>Node1&#45;&gt;Node13</title>
<path fill="none" stroke="midnightblue" d="M37,-133.41C44.35,-111.48 65.4,-57.39 102,-29 108.62,-23.86 116.61,-20.11 124.66,-17.38"/>
<polygon fill="midnightblue" stroke="midnightblue" points="125.83,-20.68 134.44,-14.51 123.86,-13.96 125.83,-20.68"/>
</g>
<!-- Node2&#45;&gt;Node3 -->
<g id="edge2" class="edge">
<title>Node2&#45;&gt;Node3</title>
<path fill="none" stroke="midnightblue" d="M205.19,-237.39C251.81,-235.9 334.45,-230.87 403,-214 421.31,-209.5 440.94,-201.77 456.46,-194.93"/>
<polygon fill="midnightblue" stroke="midnightblue" points="458.34,-197.91 466.01,-190.6 455.45,-191.54 458.34,-197.91"/>
</g>
<!-- Node2&#45;&gt;Node6 -->
<g id="edge5" class="edge">
<title>Node2&#45;&gt;Node6</title>
<path fill="none" stroke="midnightblue" d="M205.04,-246.34C229.04,-251.82 260.7,-259.04 286.76,-264.99"/>
<polygon fill="midnightblue" stroke="midnightblue" points="286.28,-268.47 296.81,-267.28 287.84,-261.65 286.28,-268.47"/>
</g>
<!-- Node4 -->
<g id="node4" class="node">
<title>Node4</title>
<g id="a_node4"><a xlink:href="os__memory_8c.html#ae420976ba4abbd069aff795935b9636c" target="_top" xlink:title="Reads the value of the higher nibble of the given address.">
<polygon fill="white" stroke="black" points="570,-190.5 570,-209.5 656,-209.5 656,-190.5 570,-190.5"/>
<text text-anchor="middle" x="613" y="-197.5" font-family="FreeSans" font-size="10.00">getHighNibble</text>
</a>
</g>
</g>
<!-- Node3&#45;&gt;Node4 -->
<g id="edge3" class="edge">
<title>Node3&#45;&gt;Node4</title>
<path fill="none" stroke="midnightblue" d="M534.21,-188.13C542.64,-189.42 551.48,-190.76 560.05,-192.07"/>
<polygon fill="midnightblue" stroke="midnightblue" points="559.53,-195.53 569.95,-193.58 560.59,-188.61 559.53,-195.53"/>
</g>
<!-- Node5 -->
<g id="node5" class="node">
<title>Node5</title>
<g id="a_node5"><a xlink:href="os__memory_8c.html#a01bd9b56dbbeb0af404043ceca5c8818" target="_top" xlink:title="Reads the value of the lower nibble of the given address.">
<polygon fill="white" stroke="black" points="571.5,-152.5 571.5,-171.5 654.5,-171.5 654.5,-152.5 571.5,-152.5"/>
<text text-anchor="middle" x="613" y="-159.5" font-family="FreeSans" font-size="10.00">getLowNibble</text>
</a>
</g>
</g>
<!-- Node3&#45;&gt;Node5 -->
<g id="edge4" class="edge">
<title>Node3&#45;&gt;Node5</title>
<path fill="none" stroke="midnightblue" d="M534.21,-173.87C543.04,-172.52 552.3,-171.11 561.25,-169.75"/>
<polygon fill="midnightblue" stroke="midnightblue" points="561.8,-173.2 571.16,-168.23 560.75,-166.28 561.8,-173.2"/>
</g>
<!-- Node7 -->
<g id="node7" class="node">
<title>Node7</title>
<g id="a_node7"><a xlink:href="os__memory_8c.html#a211f98b56ba22e7ec073c1b09b35d0ff" target="_top" xlink:title="Writes a value from 0x0 to 0xF to the higher nibble of the given address.">
<polygon fill="white" stroke="black" points="443.5,-247.5 443.5,-266.5 529.5,-266.5 529.5,-247.5 443.5,-247.5"/>
<text text-anchor="middle" x="486.5" y="-254.5" font-family="FreeSans" font-size="10.00">setHighNibble</text>
</a>
</g>
</g>
<!-- Node6&#45;&gt;Node7 -->
<g id="edge6" class="edge">
<title>Node6&#45;&gt;Node7</title>
<path fill="none" stroke="midnightblue" d="M375.24,-271.11C392.94,-268.84 414.25,-266.12 433.39,-263.67"/>
<polygon fill="midnightblue" stroke="midnightblue" points="433.99,-267.12 443.47,-262.38 433.11,-260.18 433.99,-267.12"/>
</g>
<!-- Node8 -->
<g id="node8" class="node">
<title>Node8</title>
<g id="a_node8"><a xlink:href="os__memory_8c.html#a79edcf2881c1b78d097495d05e7cec4f" target="_top" xlink:title="Writes a value from 0x0 to 0xF to the lower nibble of the given address.">
<polygon fill="white" stroke="black" points="445,-285.5 445,-304.5 528,-304.5 528,-285.5 445,-285.5"/>
<text text-anchor="middle" x="486.5" y="-292.5" font-family="FreeSans" font-size="10.00">setLowNibble</text>
</a>
</g>
</g>
<!-- Node6&#45;&gt;Node8 -->
<g id="edge7" class="edge">
<title>Node6&#45;&gt;Node8</title>
<path fill="none" stroke="midnightblue" d="M375.24,-280.89C393.39,-283.22 415.33,-286.02 434.84,-288.52"/>
<polygon fill="midnightblue" stroke="midnightblue" points="434.42,-291.99 444.79,-289.79 435.31,-285.05 434.42,-291.99"/>
</g>
<!-- Node10&#45;&gt;Node3 -->
<g id="edge12" class="edge">
<title>Node10&#45;&gt;Node3</title>
<path fill="none" stroke="midnightblue" d="M217.68,-164.95C274.73,-168.37 368.61,-173.99 428.71,-177.6"/>
<polygon fill="midnightblue" stroke="midnightblue" points="428.59,-181.1 438.79,-178.2 429.01,-174.11 428.59,-181.1"/>
</g>
<!-- Node10&#45;&gt;Node11 -->
<g id="edge10" class="edge">
<title>Node10&#45;&gt;Node11</title>
<path fill="none" stroke="midnightblue" d="M210.51,-152.41C232.68,-147.35 260.07,-141.1 283.51,-135.75"/>
<polygon fill="midnightblue" stroke="midnightblue" points="284.32,-139.16 293.29,-133.52 282.76,-132.33 284.32,-139.16"/>
</g>
<!-- Node11&#45;&gt;Node3 -->
<g id="edge11" class="edge">
<title>Node11&#45;&gt;Node3</title>
<path fill="none" stroke="midnightblue" d="M363.73,-133.5C375.76,-137.83 390.13,-143.09 403,-148 419.43,-154.27 437.59,-161.5 452.68,-167.6"/>
<polygon fill="midnightblue" stroke="midnightblue" points="451.52,-170.9 462.11,-171.41 454.15,-164.41 451.52,-170.9"/>
</g>
<!-- Node13&#45;&gt;Node9 -->
<g id="edge17" class="edge">
<title>Node13&#45;&gt;Node9</title>
<path fill="none" stroke="midnightblue" d="M200.6,-17.33C223.98,-22.66 256.15,-30 283.15,-36.17"/>
<polygon fill="midnightblue" stroke="midnightblue" points="282.69,-39.65 293.21,-38.46 284.24,-32.83 282.69,-39.65"/>
</g>
</g>
</svg>
