<?xml version="1.0" encoding="UTF-8" standalone="no"?>
<!DOCTYPE svg PUBLIC "-//W3C//DTD SVG 1.1//EN"
 "http://www.w3.org/Graphics/SVG/1.1/DTD/svg11.dtd">
<!-- Generated by graphviz version 2.43.0 (0)
 -->
<!-- Title: os_dispatcher Pages: 1 -->
<svg width="441pt" height="66pt"
 viewBox="0.00 0.00 441.00 66.00" xmlns="http://www.w3.org/2000/svg" xmlns:xlink="http://www.w3.org/1999/xlink">
<g id="graph0" class="graph" transform="scale(1 1) rotate(0) translate(4 62)">
<title>os_dispatcher</title>
<polygon fill="white" stroke="transparent" points="-4,4 -4,-62 437,-62 437,4 -4,4"/>
<!-- Node1 -->
<g id="node1" class="node">
<title>Node1</title>
<g id="a_node1"><a xlink:title=" ">
<polygon fill="#bfbfbf" stroke="black" points="0,-19.5 0,-38.5 84,-38.5 84,-19.5 0,-19.5"/>
<text text-anchor="middle" x="42" y="-26.5" font-family="FreeSans" font-size="10.00">os_dispatcher</text>
</a>
</g>
</g>
<!-- Node2 -->
<g id="node2" class="node">
<title>Node2</title>
<g id="a_node2"><a xlink:href="os__scheduler_8c.html#ac495981d4e6fbcbc04d381dd69bf62d6" target="_top" xlink:title="used to kill a running process and clear the corresponding process slot">
<polygon fill="white" stroke="black" points="170,-38.5 170,-57.5 218,-57.5 218,-38.5 170,-38.5"/>
<text text-anchor="middle" x="194" y="-45.5" font-family="FreeSans" font-size="10.00">os_kill</text>
</a>
</g>
</g>
<!-- Node1&#45;&gt;Node2 -->
<g id="edge1" class="edge">
<title>Node1&#45;&gt;Node2</title>
<path fill="none" stroke="midnightblue" d="M84.39,-34.24C108.19,-37.26 137.69,-40.99 159.94,-43.81"/>
<polygon fill="midnightblue" stroke="midnightblue" points="159.55,-47.29 169.91,-45.08 160.43,-40.35 159.55,-47.29"/>
</g>
<!-- Node4 -->
<g id="node4" class="node">
<title>Node4</title>
<g id="a_node4"><a xlink:href="os__scheduler_8c.html#a2c5878b69a424926a06297469c40f225" target="_top" xlink:title="looks up the function of a program with the passed ID (index) and returns NULL on failure">
<polygon fill="white" stroke="black" points="120,-0.5 120,-19.5 268,-19.5 268,-0.5 120,-0.5"/>
<text text-anchor="middle" x="194" y="-7.5" font-family="FreeSans" font-size="10.00">os_lookupProgramFunction</text>
</a>
</g>
</g>
<!-- Node1&#45;&gt;Node4 -->
<g id="edge3" class="edge">
<title>Node1&#45;&gt;Node4</title>
<path fill="none" stroke="midnightblue" d="M84.39,-23.76C92.39,-22.74 101.03,-21.65 109.83,-20.53"/>
<polygon fill="midnightblue" stroke="midnightblue" points="110.32,-24 119.8,-19.27 109.44,-17.06 110.32,-24"/>
</g>
<!-- Node3 -->
<g id="node3" class="node">
<title>Node3</title>
<g id="a_node3"><a xlink:href="os__scheduler_8c.html#a9d27b2dbf45ce6648916ed5ceb0a38df" target="_top" xlink:title="enters a critical code section">
<polygon fill="white" stroke="black" points="304,-38.5 304,-57.5 433,-57.5 433,-38.5 304,-38.5"/>
<text text-anchor="middle" x="368.5" y="-45.5" font-family="FreeSans" font-size="10.00">os_enterCriticalSection</text>
</a>
</g>
</g>
<!-- Node2&#45;&gt;Node3 -->
<g id="edge2" class="edge">
<title>Node2&#45;&gt;Node3</title>
<path fill="none" stroke="midnightblue" d="M218.26,-48C237.67,-48 266.44,-48 293.54,-48"/>
<polygon fill="midnightblue" stroke="midnightblue" points="293.83,-51.5 303.83,-48 293.83,-44.5 293.83,-51.5"/>
</g>
</g>
</svg>
