<?xml version="1.0" encoding="UTF-8" standalone="no"?>
<!DOCTYPE svg PUBLIC "-//W3C//DTD SVG 1.1//EN"
 "http://www.w3.org/Graphics/SVG/1.1/DTD/svg11.dtd">
<!-- Generated by graphviz version 2.43.0 (0)
 -->
<!-- Title: getOwnerOfChunk Pages: 1 -->
<svg width="537pt" height="66pt"
 viewBox="0.00 0.00 537.00 66.00" xmlns="http://www.w3.org/2000/svg" xmlns:xlink="http://www.w3.org/1999/xlink">
<g id="graph0" class="graph" transform="scale(1 1) rotate(0) translate(4 62)">
<title>getOwnerOfChunk</title>
<polygon fill="white" stroke="transparent" points="-4,4 -4,-62 533,-62 533,4 -4,4"/>
<!-- Node1 -->
<g id="node1" class="node">
<title>Node1</title>
<g id="a_node1"><a xlink:title=" ">
<polygon fill="#bfbfbf" stroke="black" points="0,-19.5 0,-38.5 106,-38.5 106,-19.5 0,-19.5"/>
<text text-anchor="middle" x="53" y="-26.5" font-family="FreeSans" font-size="10.00">getOwnerOfChunk</text>
</a>
</g>
</g>
<!-- Node2 -->
<g id="node2" class="node">
<title>Node2</title>
<g id="a_node2"><a xlink:href="os__memory_8c.html#a292385f9ee19516237f51ab76c76405e" target="_top" xlink:title="Get the address of the first byte of chunk.">
<polygon fill="white" stroke="black" points="142,-38.5 142,-57.5 276,-57.5 276,-38.5 142,-38.5"/>
<text text-anchor="middle" x="209" y="-45.5" font-family="FreeSans" font-size="10.00">os_getFirstByteOfChunk</text>
</a>
</g>
</g>
<!-- Node1&#45;&gt;Node2 -->
<g id="edge1" class="edge">
<title>Node1&#45;&gt;Node2</title>
<path fill="none" stroke="midnightblue" d="M106.14,-35.43C114.42,-36.45 123.12,-37.53 131.82,-38.6"/>
<polygon fill="midnightblue" stroke="midnightblue" points="131.64,-42.11 141.99,-39.86 132.5,-35.16 131.64,-42.11"/>
</g>
<!-- Node3 -->
<g id="node3" class="node">
<title>Node3</title>
<g id="a_node3"><a xlink:href="os__memory_8c.html#a29ccc3e0a668c0be4b285bc74ef6d920" target="_top" xlink:title="Function used to get the value of a single map entry, this is made public so the allocation strategie...">
<polygon fill="white" stroke="black" points="312,-19.5 312,-38.5 407,-38.5 407,-19.5 312,-19.5"/>
<text text-anchor="middle" x="359.5" y="-26.5" font-family="FreeSans" font-size="10.00">os_getMapEntry</text>
</a>
</g>
</g>
<!-- Node1&#45;&gt;Node3 -->
<g id="edge5" class="edge">
<title>Node1&#45;&gt;Node3</title>
<path fill="none" stroke="midnightblue" d="M106.35,-29C160.77,-29 245.69,-29 301.71,-29"/>
<polygon fill="midnightblue" stroke="midnightblue" points="301.82,-32.5 311.82,-29 301.82,-25.5 301.82,-32.5"/>
</g>
<!-- Node2&#45;&gt;Node3 -->
<g id="edge2" class="edge">
<title>Node2&#45;&gt;Node3</title>
<path fill="none" stroke="midnightblue" d="M276.43,-39.5C284.89,-38.42 293.48,-37.32 301.76,-36.26"/>
<polygon fill="midnightblue" stroke="midnightblue" points="302.21,-39.73 311.68,-34.99 301.32,-32.79 302.21,-39.73"/>
</g>
<!-- Node4 -->
<g id="node4" class="node">
<title>Node4</title>
<g id="a_node4"><a xlink:href="os__memory_8c.html#ae420976ba4abbd069aff795935b9636c" target="_top" xlink:title="Reads the value of the higher nibble of the given address.">
<polygon fill="white" stroke="black" points="443,-38.5 443,-57.5 529,-57.5 529,-38.5 443,-38.5"/>
<text text-anchor="middle" x="486" y="-45.5" font-family="FreeSans" font-size="10.00">getHighNibble</text>
</a>
</g>
</g>
<!-- Node3&#45;&gt;Node4 -->
<g id="edge3" class="edge">
<title>Node3&#45;&gt;Node4</title>
<path fill="none" stroke="midnightblue" d="M407.21,-36.13C415.64,-37.42 424.48,-38.76 433.05,-40.07"/>
<polygon fill="midnightblue" stroke="midnightblue" points="432.53,-43.53 442.95,-41.58 433.59,-36.61 432.53,-43.53"/>
</g>
<!-- Node5 -->
<g id="node5" class="node">
<title>Node5</title>
<g id="a_node5"><a xlink:href="os__memory_8c.html#a01bd9b56dbbeb0af404043ceca5c8818" target="_top" xlink:title="Reads the value of the lower nibble of the given address.">
<polygon fill="white" stroke="black" points="444.5,-0.5 444.5,-19.5 527.5,-19.5 527.5,-0.5 444.5,-0.5"/>
<text text-anchor="middle" x="486" y="-7.5" font-family="FreeSans" font-size="10.00">getLowNibble</text>
</a>
</g>
</g>
<!-- Node3&#45;&gt;Node5 -->
<g id="edge4" class="edge">
<title>Node3&#45;&gt;Node5</title>
<path fill="none" stroke="midnightblue" d="M407.21,-21.87C416.04,-20.52 425.3,-19.11 434.25,-17.75"/>
<polygon fill="midnightblue" stroke="midnightblue" points="434.8,-21.2 444.16,-16.23 433.75,-14.28 434.8,-21.2"/>
</g>
</g>
</svg>
