<?xml version="1.0" encoding="UTF-8" standalone="no"?>
<!DOCTYPE svg PUBLIC "-//W3C//DTD SVG 1.1//EN"
 "http://www.w3.org/Graphics/SVG/1.1/DTD/svg11.dtd">
<!-- Generated by graphviz version 2.43.0 (0)
 -->
<!-- Title: os_taskman.c Pages: 1 -->
<svg width="831pt" height="364pt"
 viewBox="0.00 0.00 831.00 364.00" xmlns="http://www.w3.org/2000/svg" xmlns:xlink="http://www.w3.org/1999/xlink">
<g id="graph0" class="graph" transform="scale(1 1) rotate(0) translate(4 360)">
<title>os_taskman.c</title>
<polygon fill="white" stroke="transparent" points="-4,4 -4,-360 827,-360 827,4 -4,4"/>
<!-- Node1 -->
<g id="node1" class="node">
<title>Node1</title>
<g id="a_node1"><a xlink:title=" ">
<polygon fill="#bfbfbf" stroke="black" points="298.5,-336.5 298.5,-355.5 382.5,-355.5 382.5,-336.5 298.5,-336.5"/>
<text text-anchor="middle" x="340.5" y="-343.5" font-family="FreeSans" font-size="10.00">os_taskman.c</text>
</a>
</g>
</g>
<!-- Node2 -->
<g id="node2" class="node">
<title>Node2</title>
<g id="a_node2"><a xlink:href="os__taskman_8h.html" target="_top" xlink:title="TaskManager library for the OS.">
<polygon fill="white" stroke="black" points="0,-224.5 0,-243.5 85,-243.5 85,-224.5 0,-224.5"/>
<text text-anchor="middle" x="42.5" y="-231.5" font-family="FreeSans" font-size="10.00">os_taskman.h</text>
</a>
</g>
</g>
<!-- Node1&#45;&gt;Node2 -->
<g id="edge1" class="edge">
<title>Node1&#45;&gt;Node2</title>
<path fill="none" stroke="midnightblue" d="M307.18,-336.49C276.11,-328.23 228.65,-314.81 188.5,-300 145.7,-284.21 97.65,-261.89 68.76,-247.94"/>
<polygon fill="midnightblue" stroke="midnightblue" points="70.25,-244.78 59.72,-243.56 67.19,-251.07 70.25,-244.78"/>
</g>
<!-- Node4 -->
<g id="node4" class="node">
<title>Node4</title>
<g id="a_node4"><a xlink:href="defines_8h.html" target="_top" xlink:title="Simple definitions and assembler&#45;macros, mostly 8/16&#45;Bit values.">
<polygon fill="white" stroke="black" points="492,-112.5 492,-131.5 553,-131.5 553,-112.5 492,-112.5"/>
<text text-anchor="middle" x="522.5" y="-119.5" font-family="FreeSans" font-size="10.00">defines.h</text>
</a>
</g>
</g>
<!-- Node1&#45;&gt;Node4 -->
<g id="edge3" class="edge">
<title>Node1&#45;&gt;Node4</title>
<path fill="none" stroke="midnightblue" d="M382.72,-340.45C430.69,-334.3 504.54,-321.57 521.5,-300 558.18,-253.36 540.09,-176.37 528.99,-141.36"/>
<polygon fill="midnightblue" stroke="midnightblue" points="532.2,-139.93 525.71,-131.56 525.57,-142.15 532.2,-139.93"/>
</g>
<!-- Node7 -->
<g id="node7" class="node">
<title>Node7</title>
<g id="a_node7"><a xlink:href="util_8h.html" target="_top" xlink:title="Little helpers that don&#39;t fit elsewhere.">
<polygon fill="white" stroke="black" points="180,-112.5 180,-131.5 221,-131.5 221,-112.5 180,-112.5"/>
<text text-anchor="middle" x="200.5" y="-119.5" font-family="FreeSans" font-size="10.00">util.h</text>
</a>
</g>
</g>
<!-- Node1&#45;&gt;Node7 -->
<g id="edge6" class="edge">
<title>Node1&#45;&gt;Node7</title>
<path fill="none" stroke="midnightblue" d="M331.09,-336.28C322.06,-327.62 308.38,-313.69 298.5,-300 259.39,-245.81 259.22,-226.27 226.5,-168 221.36,-158.84 215.51,-148.7 210.67,-140.37"/>
<polygon fill="midnightblue" stroke="midnightblue" points="213.61,-138.46 205.55,-131.59 207.56,-141.99 213.61,-138.46"/>
</g>
<!-- Node8 -->
<g id="node8" class="node">
<title>Node8</title>
<g id="a_node8"><a xlink:title=" ">
<polygon fill="white" stroke="#bfbfbf" points="325,-56.5 325,-75.5 378,-75.5 378,-56.5 325,-56.5"/>
<text text-anchor="middle" x="351.5" y="-63.5" font-family="FreeSans" font-size="10.00">stdint.h</text>
</a>
</g>
</g>
<!-- Node1&#45;&gt;Node8 -->
<g id="edge16" class="edge">
<title>Node1&#45;&gt;Node8</title>
<path fill="none" stroke="midnightblue" d="M338.77,-336.25C333.95,-309.98 321.95,-229.82 341.5,-168 347.37,-149.43 360.68,-150.59 366.5,-132 371.42,-116.3 366.26,-98.02 360.69,-84.84"/>
<polygon fill="midnightblue" stroke="midnightblue" points="363.74,-83.1 356.33,-75.52 357.4,-86.07 363.74,-83.1"/>
</g>
<!-- Node10 -->
<g id="node10" class="node">
<title>Node10</title>
<g id="a_node10"><a xlink:href="lcd_8h.html" target="_top" xlink:title="Library for LCD use.">
<polygon fill="white" stroke="black" points="177.5,-168.5 177.5,-187.5 217.5,-187.5 217.5,-168.5 177.5,-168.5"/>
<text text-anchor="middle" x="197.5" y="-175.5" font-family="FreeSans" font-size="10.00">lcd.h</text>
</a>
</g>
</g>
<!-- Node1&#45;&gt;Node10 -->
<g id="edge10" class="edge">
<title>Node1&#45;&gt;Node10</title>
<path fill="none" stroke="midnightblue" d="M298.25,-336.96C275.52,-330.57 248.7,-319.36 231.5,-300 205.61,-270.88 199.3,-223.51 197.85,-197.52"/>
<polygon fill="midnightblue" stroke="midnightblue" points="201.34,-197.38 197.47,-187.51 194.35,-197.64 201.34,-197.38"/>
</g>
<!-- Node11 -->
<g id="node11" class="node">
<title>Node11</title>
<g id="a_node11"><a xlink:href="os__process_8h.html" target="_top" xlink:title="Struct specifying a process.">
<polygon fill="white" stroke="black" points="277.5,-112.5 277.5,-131.5 357.5,-131.5 357.5,-112.5 277.5,-112.5"/>
<text text-anchor="middle" x="317.5" y="-119.5" font-family="FreeSans" font-size="10.00">os_process.h</text>
</a>
</g>
</g>
<!-- Node1&#45;&gt;Node11 -->
<g id="edge17" class="edge">
<title>Node1&#45;&gt;Node11</title>
<path fill="none" stroke="midnightblue" d="M331.48,-336.34C323.43,-327.93 312.2,-314.36 307.5,-300 289.43,-244.79 303.44,-174.78 312.05,-141.8"/>
<polygon fill="midnightblue" stroke="midnightblue" points="315.53,-142.33 314.81,-131.76 308.78,-140.48 315.53,-142.33"/>
</g>
<!-- Node12 -->
<g id="node12" class="node">
<title>Node12</title>
<g id="a_node12"><a xlink:href="os__scheduler_8h.html" target="_top" xlink:title="Scheduling module for the OS.">
<polygon fill="white" stroke="black" points="350,-168.5 350,-187.5 439,-187.5 439,-168.5 350,-168.5"/>
<text text-anchor="middle" x="394.5" y="-175.5" font-family="FreeSans" font-size="10.00">os_scheduler.h</text>
</a>
</g>
</g>
<!-- Node1&#45;&gt;Node12 -->
<g id="edge20" class="edge">
<title>Node1&#45;&gt;Node12</title>
<path fill="none" stroke="midnightblue" d="M343.4,-336.08C351.94,-309.83 377.08,-232.55 388.61,-197.12"/>
<polygon fill="midnightblue" stroke="midnightblue" points="391.95,-198.16 391.71,-187.57 385.29,-195.99 391.95,-198.16"/>
</g>
<!-- Node13 -->
<g id="node13" class="node">
<title>Node13</title>
<g id="a_node13"><a xlink:href="os__input_8h.html" target="_top" xlink:title="Input library for the OS.">
<polygon fill="white" stroke="black" points="570,-280.5 570,-299.5 637,-299.5 637,-280.5 570,-280.5"/>
<text text-anchor="middle" x="603.5" y="-287.5" font-family="FreeSans" font-size="10.00">os_input.h</text>
</a>
</g>
</g>
<!-- Node1&#45;&gt;Node13 -->
<g id="edge24" class="edge">
<title>Node1&#45;&gt;Node13</title>
<path fill="none" stroke="midnightblue" d="M382.17,-336.44C430.72,-326.48 510.55,-310.09 559.9,-299.95"/>
<polygon fill="midnightblue" stroke="midnightblue" points="560.86,-303.33 569.95,-297.89 559.45,-296.47 560.86,-303.33"/>
</g>
<!-- Node14 -->
<g id="node14" class="node">
<title>Node14</title>
<g id="a_node14"><a xlink:href="os__user__privileges_8h.html" target="_top" xlink:title="User privileges specification used in part by the Taskman.">
<polygon fill="white" stroke="black" points="396.5,-280.5 396.5,-299.5 512.5,-299.5 512.5,-280.5 396.5,-280.5"/>
<text text-anchor="middle" x="454.5" y="-287.5" font-family="FreeSans" font-size="10.00">os_user_privileges.h</text>
</a>
</g>
</g>
<!-- Node1&#45;&gt;Node14 -->
<g id="edge26" class="edge">
<title>Node1&#45;&gt;Node14</title>
<path fill="none" stroke="midnightblue" d="M358.56,-336.44C377.07,-327.68 406.08,-313.94 427.36,-303.86"/>
<polygon fill="midnightblue" stroke="midnightblue" points="428.98,-306.96 436.52,-299.52 425.99,-300.63 428.98,-306.96"/>
</g>
<!-- Node15 -->
<g id="node15" class="node">
<title>Node15</title>
<g id="a_node15"><a xlink:href="os__memory_8h.html" target="_top" xlink:title="Library for OS memory management.">
<polygon fill="white" stroke="black" points="624.5,-224.5 624.5,-243.5 706.5,-243.5 706.5,-224.5 624.5,-224.5"/>
<text text-anchor="middle" x="665.5" y="-231.5" font-family="FreeSans" font-size="10.00">os_memory.h</text>
</a>
</g>
</g>
<!-- Node1&#45;&gt;Node15 -->
<g id="edge39" class="edge">
<title>Node1&#45;&gt;Node15</title>
<path fill="none" stroke="midnightblue" d="M382.77,-344.26C457.31,-342.1 607.92,-333.58 646.5,-300 659.64,-288.56 663.94,-268.58 665.22,-253.78"/>
<polygon fill="midnightblue" stroke="midnightblue" points="668.72,-253.86 665.71,-243.7 661.73,-253.52 668.72,-253.86"/>
</g>
<!-- Node3 -->
<g id="node3" class="node">
<title>Node3</title>
<g id="a_node3"><a xlink:title=" ">
<polygon fill="white" stroke="#bfbfbf" points="174.5,-56.5 174.5,-75.5 236.5,-75.5 236.5,-56.5 174.5,-56.5"/>
<text text-anchor="middle" x="205.5" y="-63.5" font-family="FreeSans" font-size="10.00">stdbool.h</text>
</a>
</g>
</g>
<!-- Node2&#45;&gt;Node3 -->
<g id="edge2" class="edge">
<title>Node2&#45;&gt;Node3</title>
<path fill="none" stroke="midnightblue" d="M51.26,-224.08C77.59,-197.27 156.22,-117.19 189.9,-82.89"/>
<polygon fill="midnightblue" stroke="midnightblue" points="192.58,-85.16 197.09,-75.57 187.58,-80.25 192.58,-85.16"/>
</g>
<!-- Node5 -->
<g id="node5" class="node">
<title>Node5</title>
<g id="a_node5"><a xlink:href="atmega644constants_8h.html" target="_top" xlink:title="Constants for ATMega644 and EVA board. Defines several useful constants for the ATMega644.">
<polygon fill="white" stroke="black" points="458.5,-56.5 458.5,-75.5 586.5,-75.5 586.5,-56.5 458.5,-56.5"/>
<text text-anchor="middle" x="522.5" y="-63.5" font-family="FreeSans" font-size="10.00">atmega644constants.h</text>
</a>
</g>
</g>
<!-- Node4&#45;&gt;Node5 -->
<g id="edge4" class="edge">
<title>Node4&#45;&gt;Node5</title>
<path fill="none" stroke="midnightblue" d="M522.5,-112.08C522.5,-105.01 522.5,-94.86 522.5,-85.99"/>
<polygon fill="midnightblue" stroke="midnightblue" points="526,-85.75 522.5,-75.75 519,-85.75 526,-85.75"/>
</g>
<!-- Node6 -->
<g id="node6" class="node">
<title>Node6</title>
<g id="a_node6"><a xlink:title=" ">
<polygon fill="white" stroke="#bfbfbf" points="496,-0.5 496,-19.5 549,-19.5 549,-0.5 496,-0.5"/>
<text text-anchor="middle" x="522.5" y="-7.5" font-family="FreeSans" font-size="10.00">avr/io.h</text>
</a>
</g>
</g>
<!-- Node5&#45;&gt;Node6 -->
<g id="edge5" class="edge">
<title>Node5&#45;&gt;Node6</title>
<path fill="none" stroke="midnightblue" d="M522.5,-56.08C522.5,-49.01 522.5,-38.86 522.5,-29.99"/>
<polygon fill="midnightblue" stroke="midnightblue" points="526,-29.75 522.5,-19.75 519,-29.75 526,-29.75"/>
</g>
<!-- Node7&#45;&gt;Node3 -->
<g id="edge8" class="edge">
<title>Node7&#45;&gt;Node3</title>
<path fill="none" stroke="midnightblue" d="M201.33,-112.08C201.98,-105.01 202.92,-94.86 203.74,-85.99"/>
<polygon fill="midnightblue" stroke="midnightblue" points="207.25,-86.03 204.69,-75.75 200.28,-85.39 207.25,-86.03"/>
</g>
<!-- Node7&#45;&gt;Node8 -->
<g id="edge7" class="edge">
<title>Node7&#45;&gt;Node8</title>
<path fill="none" stroke="midnightblue" d="M221.18,-113.6C246.14,-104.68 288.45,-89.55 318.07,-78.95"/>
<polygon fill="midnightblue" stroke="midnightblue" points="319.35,-82.21 327.59,-75.55 316.99,-75.62 319.35,-82.21"/>
</g>
<!-- Node9 -->
<g id="node9" class="node">
<title>Node9</title>
<g id="a_node9"><a xlink:title=" ">
<polygon fill="white" stroke="#bfbfbf" points="61,-56.5 61,-75.5 156,-75.5 156,-56.5 61,-56.5"/>
<text text-anchor="middle" x="108.5" y="-63.5" font-family="FreeSans" font-size="10.00">avr/pgmspace.h</text>
</a>
</g>
</g>
<!-- Node7&#45;&gt;Node9 -->
<g id="edge9" class="edge">
<title>Node7&#45;&gt;Node9</title>
<path fill="none" stroke="midnightblue" d="M185.72,-112.32C171.23,-103.82 148.93,-90.73 132.01,-80.8"/>
<polygon fill="midnightblue" stroke="midnightblue" points="133.64,-77.7 123.24,-75.65 130.1,-83.74 133.64,-77.7"/>
</g>
<!-- Node10&#45;&gt;Node3 -->
<g id="edge11" class="edge">
<title>Node10&#45;&gt;Node3</title>
<path fill="none" stroke="midnightblue" d="M189.54,-168.3C179.25,-155.96 163.44,-132.57 170.5,-112 174.22,-101.16 181.73,-90.92 188.85,-82.96"/>
<polygon fill="midnightblue" stroke="midnightblue" points="191.55,-85.19 195.94,-75.55 186.5,-80.35 191.55,-85.19"/>
</g>
<!-- Node10&#45;&gt;Node4 -->
<g id="edge14" class="edge">
<title>Node10&#45;&gt;Node4</title>
<path fill="none" stroke="midnightblue" d="M217.83,-173.62C270.31,-164.9 411.1,-141.51 481.4,-129.83"/>
<polygon fill="midnightblue" stroke="midnightblue" points="482.35,-133.22 491.64,-128.13 481.2,-126.31 482.35,-133.22"/>
</g>
<!-- Node10&#45;&gt;Node7 -->
<g id="edge15" class="edge">
<title>Node10&#45;&gt;Node7</title>
<path fill="none" stroke="midnightblue" d="M198,-168.08C198.39,-161.01 198.95,-150.86 199.45,-141.99"/>
<polygon fill="midnightblue" stroke="midnightblue" points="202.95,-141.93 200.01,-131.75 195.96,-141.54 202.95,-141.93"/>
</g>
<!-- Node10&#45;&gt;Node8 -->
<g id="edge12" class="edge">
<title>Node10&#45;&gt;Node8</title>
<path fill="none" stroke="midnightblue" d="M205.66,-168.27C218.29,-155.06 243.73,-129.65 268.5,-112 285.8,-99.68 306.85,-88.3 323.42,-80.07"/>
<polygon fill="midnightblue" stroke="midnightblue" points="325.14,-83.12 332.6,-75.6 322.08,-76.83 325.14,-83.12"/>
</g>
<!-- Node10&#45;&gt;Node9 -->
<g id="edge13" class="edge">
<title>Node10&#45;&gt;Node9</title>
<path fill="none" stroke="midnightblue" d="M190.52,-168.37C175.76,-150.14 141.21,-107.43 121.99,-83.68"/>
<polygon fill="midnightblue" stroke="midnightblue" points="124.46,-81.16 115.45,-75.59 119.02,-85.57 124.46,-81.16"/>
</g>
<!-- Node11&#45;&gt;Node3 -->
<g id="edge19" class="edge">
<title>Node11&#45;&gt;Node3</title>
<path fill="none" stroke="midnightblue" d="M299.51,-112.32C281.46,-103.62 253.45,-90.12 232.7,-80.11"/>
<polygon fill="midnightblue" stroke="midnightblue" points="233.98,-76.84 223.45,-75.65 230.94,-83.15 233.98,-76.84"/>
</g>
<!-- Node11&#45;&gt;Node8 -->
<g id="edge18" class="edge">
<title>Node11&#45;&gt;Node8</title>
<path fill="none" stroke="midnightblue" d="M323.11,-112.08C327.87,-104.53 334.82,-93.49 340.65,-84.23"/>
<polygon fill="midnightblue" stroke="midnightblue" points="343.62,-86.08 345.99,-75.75 337.7,-82.35 343.62,-86.08"/>
</g>
<!-- Node12&#45;&gt;Node3 -->
<g id="edge21" class="edge">
<title>Node12&#45;&gt;Node3</title>
<path fill="none" stroke="midnightblue" d="M393.22,-168.45C390.69,-154.54 383.71,-127.04 366.5,-112 333.19,-82.88 282.45,-72.49 246.86,-68.84"/>
<polygon fill="midnightblue" stroke="midnightblue" points="247.07,-65.34 236.8,-67.95 246.45,-72.32 247.07,-65.34"/>
</g>
<!-- Node12&#45;&gt;Node4 -->
<g id="edge22" class="edge">
<title>Node12&#45;&gt;Node4</title>
<path fill="none" stroke="midnightblue" d="M414.78,-168.44C435.85,-159.56 469.02,-145.56 492.99,-135.45"/>
<polygon fill="midnightblue" stroke="midnightblue" points="494.46,-138.63 502.31,-131.52 491.74,-132.18 494.46,-138.63"/>
</g>
<!-- Node12&#45;&gt;Node11 -->
<g id="edge23" class="edge">
<title>Node12&#45;&gt;Node11</title>
<path fill="none" stroke="midnightblue" d="M382.13,-168.32C370.34,-160.06 352.37,-147.45 338.36,-137.63"/>
<polygon fill="midnightblue" stroke="midnightblue" points="340.04,-134.53 329.84,-131.65 336.02,-140.26 340.04,-134.53"/>
</g>
<!-- Node13&#45;&gt;Node8 -->
<g id="edge25" class="edge">
<title>Node13&#45;&gt;Node8</title>
<path fill="none" stroke="midnightblue" d="M604.4,-280.49C606.91,-252.07 610.87,-159.53 562.5,-112 538.21,-88.13 441.93,-75.46 388.22,-70.13"/>
<polygon fill="midnightblue" stroke="midnightblue" points="388.36,-66.63 378.07,-69.16 387.7,-73.6 388.36,-66.63"/>
</g>
<!-- Node14&#45;&gt;Node4 -->
<g id="edge30" class="edge">
<title>Node14&#45;&gt;Node4</title>
<path fill="none" stroke="midnightblue" d="M460.46,-280.34C466.36,-271.5 475.38,-257.23 481.5,-244 497.67,-209.07 510.76,-165.9 517.51,-141.71"/>
<polygon fill="midnightblue" stroke="midnightblue" points="520.97,-142.32 520.23,-131.75 514.22,-140.48 520.97,-142.32"/>
</g>
<!-- Node14&#45;&gt;Node8 -->
<g id="edge27" class="edge">
<title>Node14&#45;&gt;Node8</title>
<path fill="none" stroke="midnightblue" d="M456.06,-280.33C459.34,-259.79 465.33,-207.01 448.5,-168 432.44,-130.79 396.17,-99.21 372.81,-81.71"/>
<polygon fill="midnightblue" stroke="midnightblue" points="374.71,-78.76 364.56,-75.71 370.59,-84.42 374.71,-78.76"/>
</g>
<!-- Node14&#45;&gt;Node9 -->
<g id="edge28" class="edge">
<title>Node14&#45;&gt;Node9</title>
<path fill="none" stroke="midnightblue" d="M396.43,-281.63C333.55,-270.92 233.54,-245.61 168.5,-188 137.02,-160.11 120.2,-111.9 112.95,-85.54"/>
<polygon fill="midnightblue" stroke="midnightblue" points="116.3,-84.51 110.41,-75.7 109.52,-86.26 116.3,-84.51"/>
</g>
<!-- Node14&#45;&gt;Node12 -->
<g id="edge29" class="edge">
<title>Node14&#45;&gt;Node12</title>
<path fill="none" stroke="midnightblue" d="M449.79,-280.37C439.98,-262.38 417.16,-220.55 404.11,-196.63"/>
<polygon fill="midnightblue" stroke="midnightblue" points="407.05,-194.69 399.19,-187.59 400.9,-198.05 407.05,-194.69"/>
</g>
<!-- Node14&#45;&gt;Node15 -->
<g id="edge31" class="edge">
<title>Node14&#45;&gt;Node15</title>
<path fill="none" stroke="midnightblue" d="M487.93,-280.44C524.36,-271.12 582.73,-256.18 622.53,-246"/>
<polygon fill="midnightblue" stroke="midnightblue" points="623.4,-249.39 632.22,-243.52 621.67,-242.61 623.4,-249.39"/>
</g>
<!-- Node15&#45;&gt;Node12 -->
<g id="edge38" class="edge">
<title>Node15&#45;&gt;Node12</title>
<path fill="none" stroke="midnightblue" d="M624.34,-224.8C577.01,-215.37 499.17,-199.86 447.39,-189.54"/>
<polygon fill="midnightblue" stroke="midnightblue" points="447.88,-186.07 437.39,-187.55 446.51,-192.93 447.88,-186.07"/>
</g>
<!-- Node16 -->
<g id="node16" class="node">
<title>Node16</title>
<g id="a_node16"><a xlink:href="os__mem__drivers_8h.html" target="_top" xlink:title="Drivers for OS memory management.">
<polygon fill="white" stroke="black" points="716,-112.5 716,-131.5 823,-131.5 823,-112.5 716,-112.5"/>
<text text-anchor="middle" x="769.5" y="-119.5" font-family="FreeSans" font-size="10.00">os_mem_drivers.h</text>
</a>
</g>
</g>
<!-- Node15&#45;&gt;Node16 -->
<g id="edge32" class="edge">
<title>Node15&#45;&gt;Node16</title>
<path fill="none" stroke="midnightblue" d="M694.15,-224.36C712.72,-217.37 736.04,-205.73 750.5,-188 761.29,-174.77 765.95,-155.64 767.97,-141.56"/>
<polygon fill="midnightblue" stroke="midnightblue" points="771.45,-141.88 769.08,-131.55 764.49,-141.11 771.45,-141.88"/>
</g>
<!-- Node18 -->
<g id="node18" class="node">
<title>Node18</title>
<g id="a_node18"><a xlink:href="os__memheap__drivers_8h.html" target="_top" xlink:title="Drivers for OS heap management.">
<polygon fill="white" stroke="black" points="610,-168.5 610,-187.5 741,-187.5 741,-168.5 610,-168.5"/>
<text text-anchor="middle" x="675.5" y="-175.5" font-family="FreeSans" font-size="10.00">os_memheap_drivers.h</text>
</a>
</g>
</g>
<!-- Node15&#45;&gt;Node18 -->
<g id="edge34" class="edge">
<title>Node15&#45;&gt;Node18</title>
<path fill="none" stroke="midnightblue" d="M667.15,-224.08C668.48,-216.93 670.38,-206.64 672.04,-197.69"/>
<polygon fill="midnightblue" stroke="midnightblue" points="675.5,-198.22 673.88,-187.75 668.62,-196.95 675.5,-198.22"/>
</g>
<!-- Node17 -->
<g id="node17" class="node">
<title>Node17</title>
<g id="a_node17"><a xlink:title=" ">
<polygon fill="white" stroke="#bfbfbf" points="737,-56.5 737,-75.5 802,-75.5 802,-56.5 737,-56.5"/>
<text text-anchor="middle" x="769.5" y="-63.5" font-family="FreeSans" font-size="10.00">inttypes.h</text>
</a>
</g>
</g>
<!-- Node16&#45;&gt;Node17 -->
<g id="edge33" class="edge">
<title>Node16&#45;&gt;Node17</title>
<path fill="none" stroke="midnightblue" d="M769.5,-112.08C769.5,-105.01 769.5,-94.86 769.5,-85.99"/>
<polygon fill="midnightblue" stroke="midnightblue" points="773,-85.75 769.5,-75.75 766,-85.75 773,-85.75"/>
</g>
<!-- Node18&#45;&gt;Node4 -->
<g id="edge36" class="edge">
<title>Node18&#45;&gt;Node4</title>
<path fill="none" stroke="midnightblue" d="M651.26,-168.44C625.63,-159.4 585.01,-145.06 556.26,-134.92"/>
<polygon fill="midnightblue" stroke="midnightblue" points="557.22,-131.54 546.63,-131.52 554.89,-138.15 557.22,-131.54"/>
</g>
<!-- Node18&#45;&gt;Node16 -->
<g id="edge35" class="edge">
<title>Node18&#45;&gt;Node16</title>
<path fill="none" stroke="midnightblue" d="M690.6,-168.32C705.4,-159.82 728.19,-146.73 745.48,-136.8"/>
<polygon fill="midnightblue" stroke="midnightblue" points="747.51,-139.67 754.43,-131.65 744.02,-133.6 747.51,-139.67"/>
</g>
<!-- Node19 -->
<g id="node19" class="node">
<title>Node19</title>
<g id="a_node19"><a xlink:title=" ">
<polygon fill="white" stroke="#bfbfbf" points="641.5,-112.5 641.5,-131.5 697.5,-131.5 697.5,-112.5 641.5,-112.5"/>
<text text-anchor="middle" x="669.5" y="-119.5" font-family="FreeSans" font-size="10.00">stddef.h</text>
</a>
</g>
</g>
<!-- Node18&#45;&gt;Node19 -->
<g id="edge37" class="edge">
<title>Node18&#45;&gt;Node19</title>
<path fill="none" stroke="midnightblue" d="M674.51,-168.08C673.71,-160.93 672.57,-150.64 671.58,-141.69"/>
<polygon fill="midnightblue" stroke="midnightblue" points="675.06,-141.3 670.47,-131.75 668.1,-142.08 675.06,-141.3"/>
</g>
</g>
</svg>
