<?xml version="1.0" encoding="UTF-8" standalone="no"?>
<!DOCTYPE svg PUBLIC "-//W3C//DTD SVG 1.1//EN"
 "http://www.w3.org/Graphics/SVG/1.1/DTD/svg11.dtd">
<!-- Generated by graphviz version 2.43.0 (0)
 -->
<!-- Title: os_memheap_drivers.c Pages: 1 -->
<svg width="377pt" height="308pt"
 viewBox="0.00 0.00 377.00 308.00" xmlns="http://www.w3.org/2000/svg" xmlns:xlink="http://www.w3.org/1999/xlink">
<g id="graph0" class="graph" transform="scale(1 1) rotate(0) translate(4 304)">
<title>os_memheap_drivers.c</title>
<polygon fill="white" stroke="transparent" points="-4,4 -4,-304 373,-304 373,4 -4,4"/>
<!-- Node1 -->
<g id="node1" class="node">
<title>Node1</title>
<g id="a_node1"><a xlink:title=" ">
<polygon fill="#bfbfbf" stroke="black" points="131.5,-280.5 131.5,-299.5 261.5,-299.5 261.5,-280.5 131.5,-280.5"/>
<text text-anchor="middle" x="196.5" y="-287.5" font-family="FreeSans" font-size="10.00">os_memheap_drivers.c</text>
</a>
</g>
</g>
<!-- Node2 -->
<g id="node2" class="node">
<title>Node2</title>
<g id="a_node2"><a xlink:href="os__memheap__drivers_8h.html" target="_top" xlink:title="Drivers for OS heap management.">
<polygon fill="white" stroke="black" points="83,-168.5 83,-187.5 214,-187.5 214,-168.5 83,-168.5"/>
<text text-anchor="middle" x="148.5" y="-175.5" font-family="FreeSans" font-size="10.00">os_memheap_drivers.h</text>
</a>
</g>
</g>
<!-- Node1&#45;&gt;Node2 -->
<g id="edge1" class="edge">
<title>Node1&#45;&gt;Node2</title>
<path fill="none" stroke="midnightblue" d="M131.37,-281.31C108.27,-275.09 84.55,-263.94 70.5,-244 54.97,-221.96 85.85,-203.05 113.22,-191.4"/>
<polygon fill="midnightblue" stroke="midnightblue" points="114.7,-194.58 122.67,-187.59 112.09,-188.08 114.7,-194.58"/>
</g>
<!-- Node5 -->
<g id="node5" class="node">
<title>Node5</title>
<g id="a_node5"><a xlink:href="defines_8h.html" target="_top" xlink:title="Simple definitions and assembler&#45;macros, mostly 8/16&#45;Bit values.">
<polygon fill="white" stroke="black" points="210,-112.5 210,-131.5 271,-131.5 271,-112.5 210,-112.5"/>
<text text-anchor="middle" x="240.5" y="-119.5" font-family="FreeSans" font-size="10.00">defines.h</text>
</a>
</g>
</g>
<!-- Node1&#45;&gt;Node5 -->
<g id="edge8" class="edge">
<title>Node1&#45;&gt;Node5</title>
<path fill="none" stroke="midnightblue" d="M203.79,-280.33C210.62,-271.71 220.49,-257.81 225.5,-244 238.03,-209.46 240.46,-166.12 240.73,-141.8"/>
<polygon fill="midnightblue" stroke="midnightblue" points="244.23,-141.51 240.73,-131.51 237.23,-141.52 244.23,-141.51"/>
</g>
<!-- Node9 -->
<g id="node9" class="node">
<title>Node9</title>
<g id="a_node9"><a xlink:href="os__memory__strategies_8h.html" target="_top" xlink:title="Memory allocation library for the OS.">
<polygon fill="white" stroke="black" points="80,-224.5 80,-243.5 217,-243.5 217,-224.5 80,-224.5"/>
<text text-anchor="middle" x="148.5" y="-231.5" font-family="FreeSans" font-size="10.00">os_memory_strategies.h</text>
</a>
</g>
</g>
<!-- Node1&#45;&gt;Node9 -->
<g id="edge9" class="edge">
<title>Node1&#45;&gt;Node9</title>
<path fill="none" stroke="midnightblue" d="M188.57,-280.08C181.65,-272.3 171.43,-260.8 163.05,-251.37"/>
<polygon fill="midnightblue" stroke="midnightblue" points="165.54,-248.9 156.28,-243.75 160.31,-253.55 165.54,-248.9"/>
</g>
<!-- Node10 -->
<g id="node10" class="node">
<title>Node10</title>
<g id="a_node10"><a xlink:title=" ">
<polygon fill="white" stroke="#bfbfbf" points="274,-224.5 274,-243.5 369,-243.5 369,-224.5 274,-224.5"/>
<text text-anchor="middle" x="321.5" y="-231.5" font-family="FreeSans" font-size="10.00">avr/pgmspace.h</text>
</a>
</g>
</g>
<!-- Node1&#45;&gt;Node10 -->
<g id="edge11" class="edge">
<title>Node1&#45;&gt;Node10</title>
<path fill="none" stroke="midnightblue" d="M216.31,-280.44C236.79,-271.6 268.98,-257.69 292.36,-247.59"/>
<polygon fill="midnightblue" stroke="midnightblue" points="293.99,-250.7 301.79,-243.52 291.22,-244.27 293.99,-250.7"/>
</g>
<!-- Node3 -->
<g id="node3" class="node">
<title>Node3</title>
<g id="a_node3"><a xlink:href="os__mem__drivers_8h.html" target="_top" xlink:title="Drivers for OS memory management.">
<polygon fill="white" stroke="black" points="0,-112.5 0,-131.5 107,-131.5 107,-112.5 0,-112.5"/>
<text text-anchor="middle" x="53.5" y="-119.5" font-family="FreeSans" font-size="10.00">os_mem_drivers.h</text>
</a>
</g>
</g>
<!-- Node2&#45;&gt;Node3 -->
<g id="edge2" class="edge">
<title>Node2&#45;&gt;Node3</title>
<path fill="none" stroke="midnightblue" d="M133.24,-168.32C118.28,-159.82 95.25,-146.73 77.77,-136.8"/>
<polygon fill="midnightblue" stroke="midnightblue" points="79.15,-133.55 68.73,-131.65 75.69,-139.64 79.15,-133.55"/>
</g>
<!-- Node2&#45;&gt;Node5 -->
<g id="edge4" class="edge">
<title>Node2&#45;&gt;Node5</title>
<path fill="none" stroke="midnightblue" d="M163.28,-168.32C177.77,-159.82 200.07,-146.73 216.99,-136.8"/>
<polygon fill="midnightblue" stroke="midnightblue" points="218.9,-139.74 225.76,-131.65 215.36,-133.7 218.9,-139.74"/>
</g>
<!-- Node8 -->
<g id="node8" class="node">
<title>Node8</title>
<g id="a_node8"><a xlink:title=" ">
<polygon fill="white" stroke="#bfbfbf" points="125.5,-112.5 125.5,-131.5 181.5,-131.5 181.5,-112.5 125.5,-112.5"/>
<text text-anchor="middle" x="153.5" y="-119.5" font-family="FreeSans" font-size="10.00">stddef.h</text>
</a>
</g>
</g>
<!-- Node2&#45;&gt;Node8 -->
<g id="edge7" class="edge">
<title>Node2&#45;&gt;Node8</title>
<path fill="none" stroke="midnightblue" d="M149.33,-168.08C149.98,-161.01 150.92,-150.86 151.74,-141.99"/>
<polygon fill="midnightblue" stroke="midnightblue" points="155.25,-142.03 152.69,-131.75 148.28,-141.39 155.25,-142.03"/>
</g>
<!-- Node4 -->
<g id="node4" class="node">
<title>Node4</title>
<g id="a_node4"><a xlink:title=" ">
<polygon fill="white" stroke="#bfbfbf" points="21,-56.5 21,-75.5 86,-75.5 86,-56.5 21,-56.5"/>
<text text-anchor="middle" x="53.5" y="-63.5" font-family="FreeSans" font-size="10.00">inttypes.h</text>
</a>
</g>
</g>
<!-- Node3&#45;&gt;Node4 -->
<g id="edge3" class="edge">
<title>Node3&#45;&gt;Node4</title>
<path fill="none" stroke="midnightblue" d="M53.5,-112.08C53.5,-105.01 53.5,-94.86 53.5,-85.99"/>
<polygon fill="midnightblue" stroke="midnightblue" points="57,-85.75 53.5,-75.75 50,-85.75 57,-85.75"/>
</g>
<!-- Node6 -->
<g id="node6" class="node">
<title>Node6</title>
<g id="a_node6"><a xlink:href="atmega644constants_8h.html" target="_top" xlink:title="Constants for ATMega644 and EVA board. Defines several useful constants for the ATMega644.">
<polygon fill="white" stroke="black" points="176.5,-56.5 176.5,-75.5 304.5,-75.5 304.5,-56.5 176.5,-56.5"/>
<text text-anchor="middle" x="240.5" y="-63.5" font-family="FreeSans" font-size="10.00">atmega644constants.h</text>
</a>
</g>
</g>
<!-- Node5&#45;&gt;Node6 -->
<g id="edge5" class="edge">
<title>Node5&#45;&gt;Node6</title>
<path fill="none" stroke="midnightblue" d="M240.5,-112.08C240.5,-105.01 240.5,-94.86 240.5,-85.99"/>
<polygon fill="midnightblue" stroke="midnightblue" points="244,-85.75 240.5,-75.75 237,-85.75 244,-85.75"/>
</g>
<!-- Node7 -->
<g id="node7" class="node">
<title>Node7</title>
<g id="a_node7"><a xlink:title=" ">
<polygon fill="white" stroke="#bfbfbf" points="214,-0.5 214,-19.5 267,-19.5 267,-0.5 214,-0.5"/>
<text text-anchor="middle" x="240.5" y="-7.5" font-family="FreeSans" font-size="10.00">avr/io.h</text>
</a>
</g>
</g>
<!-- Node6&#45;&gt;Node7 -->
<g id="edge6" class="edge">
<title>Node6&#45;&gt;Node7</title>
<path fill="none" stroke="midnightblue" d="M240.5,-56.08C240.5,-49.01 240.5,-38.86 240.5,-29.99"/>
<polygon fill="midnightblue" stroke="midnightblue" points="244,-29.75 240.5,-19.75 237,-29.75 244,-29.75"/>
</g>
<!-- Node9&#45;&gt;Node2 -->
<g id="edge10" class="edge">
<title>Node9&#45;&gt;Node2</title>
<path fill="none" stroke="midnightblue" d="M148.5,-224.08C148.5,-217.01 148.5,-206.86 148.5,-197.99"/>
<polygon fill="midnightblue" stroke="midnightblue" points="152,-197.75 148.5,-187.75 145,-197.75 152,-197.75"/>
</g>
</g>
</svg>
