<?xml version="1.0" encoding="UTF-8" standalone="no"?>
<!DOCTYPE svg PUBLIC "-//W3C//DTD SVG 1.1//EN"
 "http://www.w3.org/Graphics/SVG/1.1/DTD/svg11.dtd">
<!-- Generated by graphviz version 2.43.0 (0)
 -->
<!-- Title: os_Memory_NextFit Pages: 1 -->
<svg width="523pt" height="66pt"
 viewBox="0.00 0.00 523.00 66.00" xmlns="http://www.w3.org/2000/svg" xmlns:xlink="http://www.w3.org/1999/xlink">
<g id="graph0" class="graph" transform="scale(1 1) rotate(0) translate(4 62)">
<title>os_Memory_NextFit</title>
<polygon fill="white" stroke="transparent" points="-4,4 -4,-62 519,-62 519,4 -4,4"/>
<!-- Node1 -->
<g id="node1" class="node">
<title>Node1</title>
<g id="a_node1"><a xlink:title="This function realises the next&#45;fit strategy as described in the corresponding exercise document.">
<polygon fill="#bfbfbf" stroke="black" points="0,-19.5 0,-38.5 114,-38.5 114,-19.5 0,-19.5"/>
<text text-anchor="middle" x="57" y="-26.5" font-family="FreeSans" font-size="10.00">os_Memory_NextFit</text>
</a>
</g>
</g>
<!-- Node2 -->
<g id="node2" class="node">
<title>Node2</title>
<g id="a_node2"><a xlink:href="os__memory_8c.html#a29ccc3e0a668c0be4b285bc74ef6d920" target="_top" xlink:title="Function used to get the value of a single map entry, this is made public so the allocation strategie...">
<polygon fill="white" stroke="black" points="298,-19.5 298,-38.5 393,-38.5 393,-19.5 298,-19.5"/>
<text text-anchor="middle" x="345.5" y="-26.5" font-family="FreeSans" font-size="10.00">os_getMapEntry</text>
</a>
</g>
</g>
<!-- Node1&#45;&gt;Node2 -->
<g id="edge1" class="edge">
<title>Node1&#45;&gt;Node2</title>
<path fill="none" stroke="midnightblue" d="M114.26,-29C164.42,-29 237.48,-29 287.78,-29"/>
<polygon fill="midnightblue" stroke="midnightblue" points="287.83,-32.5 297.83,-29 287.83,-25.5 287.83,-32.5"/>
</g>
<!-- Node5 -->
<g id="node5" class="node">
<title>Node5</title>
<g id="a_node5"><a xlink:href="os__memory__strategies_8c.html#a4b01ab696c0d0343e82e40dd358bc364" target="_top" xlink:title="This function realises the first&#45;fit strategy as described in the corresponding exercise document.">
<polygon fill="white" stroke="black" points="150,-0.5 150,-19.5 262,-19.5 262,-0.5 150,-0.5"/>
<text text-anchor="middle" x="206" y="-7.5" font-family="FreeSans" font-size="10.00">os_Memory_FirstFit</text>
</a>
</g>
</g>
<!-- Node1&#45;&gt;Node5 -->
<g id="edge4" class="edge">
<title>Node1&#45;&gt;Node5</title>
<path fill="none" stroke="midnightblue" d="M114.41,-21.71C122.79,-20.63 131.49,-19.5 140.03,-18.4"/>
<polygon fill="midnightblue" stroke="midnightblue" points="140.48,-21.87 149.95,-17.12 139.58,-14.93 140.48,-21.87"/>
</g>
<!-- Node3 -->
<g id="node3" class="node">
<title>Node3</title>
<g id="a_node3"><a xlink:href="os__memory_8c.html#ae420976ba4abbd069aff795935b9636c" target="_top" xlink:title="Reads the value of the higher nibble of the given address.">
<polygon fill="white" stroke="black" points="429,-38.5 429,-57.5 515,-57.5 515,-38.5 429,-38.5"/>
<text text-anchor="middle" x="472" y="-45.5" font-family="FreeSans" font-size="10.00">getHighNibble</text>
</a>
</g>
</g>
<!-- Node2&#45;&gt;Node3 -->
<g id="edge2" class="edge">
<title>Node2&#45;&gt;Node3</title>
<path fill="none" stroke="midnightblue" d="M393.21,-36.13C401.64,-37.42 410.48,-38.76 419.05,-40.07"/>
<polygon fill="midnightblue" stroke="midnightblue" points="418.53,-43.53 428.95,-41.58 419.59,-36.61 418.53,-43.53"/>
</g>
<!-- Node4 -->
<g id="node4" class="node">
<title>Node4</title>
<g id="a_node4"><a xlink:href="os__memory_8c.html#a01bd9b56dbbeb0af404043ceca5c8818" target="_top" xlink:title="Reads the value of the lower nibble of the given address.">
<polygon fill="white" stroke="black" points="430.5,-0.5 430.5,-19.5 513.5,-19.5 513.5,-0.5 430.5,-0.5"/>
<text text-anchor="middle" x="472" y="-7.5" font-family="FreeSans" font-size="10.00">getLowNibble</text>
</a>
</g>
</g>
<!-- Node2&#45;&gt;Node4 -->
<g id="edge3" class="edge">
<title>Node2&#45;&gt;Node4</title>
<path fill="none" stroke="midnightblue" d="M393.21,-21.87C402.04,-20.52 411.3,-19.11 420.25,-17.75"/>
<polygon fill="midnightblue" stroke="midnightblue" points="420.8,-21.2 430.16,-16.23 419.75,-14.28 420.8,-21.2"/>
</g>
<!-- Node5&#45;&gt;Node2 -->
<g id="edge5" class="edge">
<title>Node5&#45;&gt;Node2</title>
<path fill="none" stroke="midnightblue" d="M262.13,-17.62C270.53,-18.78 279.2,-19.98 287.63,-21.14"/>
<polygon fill="midnightblue" stroke="midnightblue" points="287.37,-24.64 297.75,-22.54 288.33,-17.7 287.37,-24.64"/>
</g>
</g>
</svg>
