<?xml version="1.0" encoding="UTF-8" standalone="no"?>
<!DOCTYPE svg PUBLIC "-//W3C//DTD SVG 1.1//EN"
 "http://www.w3.org/Graphics/SVG/1.1/DTD/svg11.dtd">
<!-- Generated by graphviz version 2.43.0 (0)
 -->
<!-- Title: os_memory_strategies.c Pages: 1 -->
<svg width="461pt" height="308pt"
 viewBox="0.00 0.00 460.50 308.00" xmlns="http://www.w3.org/2000/svg" xmlns:xlink="http://www.w3.org/1999/xlink">
<g id="graph0" class="graph" transform="scale(1 1) rotate(0) translate(4 304)">
<title>os_memory_strategies.c</title>
<polygon fill="white" stroke="transparent" points="-4,4 -4,-304 456.5,-304 456.5,4 -4,4"/>
<!-- Node1 -->
<g id="node1" class="node">
<title>Node1</title>
<g id="a_node1"><a xlink:title=" ">
<polygon fill="#bfbfbf" stroke="black" points="187.5,-280.5 187.5,-299.5 324.5,-299.5 324.5,-280.5 187.5,-280.5"/>
<text text-anchor="middle" x="256" y="-287.5" font-family="FreeSans" font-size="10.00">os_memory_strategies.c</text>
</a>
</g>
</g>
<!-- Node2 -->
<g id="node2" class="node">
<title>Node2</title>
<g id="a_node2"><a xlink:href="os__memory__strategies_8h.html" target="_top" xlink:title="Memory allocation library for the OS.">
<polygon fill="white" stroke="black" points="59.5,-224.5 59.5,-243.5 196.5,-243.5 196.5,-224.5 59.5,-224.5"/>
<text text-anchor="middle" x="128" y="-231.5" font-family="FreeSans" font-size="10.00">os_memory_strategies.h</text>
</a>
</g>
</g>
<!-- Node1&#45;&gt;Node2 -->
<g id="edge1" class="edge">
<title>Node1&#45;&gt;Node2</title>
<path fill="none" stroke="midnightblue" d="M235.72,-280.44C214.65,-271.56 181.48,-257.56 157.51,-247.45"/>
<polygon fill="midnightblue" stroke="midnightblue" points="158.76,-244.18 148.19,-243.52 156.04,-250.63 158.76,-244.18"/>
</g>
<!-- Node10 -->
<g id="node10" class="node">
<title>Node10</title>
<g id="a_node10"><a xlink:href="os__memory_8h.html" target="_top" xlink:title="Library for OS memory management.">
<polygon fill="white" stroke="black" points="215,-224.5 215,-243.5 297,-243.5 297,-224.5 215,-224.5"/>
<text text-anchor="middle" x="256" y="-231.5" font-family="FreeSans" font-size="10.00">os_memory.h</text>
</a>
</g>
</g>
<!-- Node1&#45;&gt;Node10 -->
<g id="edge9" class="edge">
<title>Node1&#45;&gt;Node10</title>
<path fill="none" stroke="midnightblue" d="M256,-280.08C256,-273.01 256,-262.86 256,-253.99"/>
<polygon fill="midnightblue" stroke="midnightblue" points="259.5,-253.75 256,-243.75 252.5,-253.75 259.5,-253.75"/>
</g>
<!-- Node15 -->
<g id="node15" class="node">
<title>Node15</title>
<g id="a_node15"><a xlink:href="os__core_8h.html" target="_top" xlink:title="Core of the OS.">
<polygon fill="white" stroke="black" points="344.5,-224.5 344.5,-243.5 407.5,-243.5 407.5,-224.5 344.5,-224.5"/>
<text text-anchor="middle" x="376" y="-231.5" font-family="FreeSans" font-size="10.00">os_core.h</text>
</a>
</g>
</g>
<!-- Node1&#45;&gt;Node15 -->
<g id="edge18" class="edge">
<title>Node1&#45;&gt;Node15</title>
<path fill="none" stroke="midnightblue" d="M275.01,-280.44C294.59,-271.64 325.31,-257.81 347.73,-247.72"/>
<polygon fill="midnightblue" stroke="midnightblue" points="349.39,-250.81 357.07,-243.52 346.52,-244.43 349.39,-250.81"/>
</g>
<!-- Node3 -->
<g id="node3" class="node">
<title>Node3</title>
<g id="a_node3"><a xlink:href="os__memheap__drivers_8h.html" target="_top" xlink:title="Drivers for OS heap management.">
<polygon fill="white" stroke="black" points="62.5,-168.5 62.5,-187.5 193.5,-187.5 193.5,-168.5 62.5,-168.5"/>
<text text-anchor="middle" x="128" y="-175.5" font-family="FreeSans" font-size="10.00">os_memheap_drivers.h</text>
</a>
</g>
</g>
<!-- Node2&#45;&gt;Node3 -->
<g id="edge2" class="edge">
<title>Node2&#45;&gt;Node3</title>
<path fill="none" stroke="midnightblue" d="M128,-224.08C128,-217.01 128,-206.86 128,-197.99"/>
<polygon fill="midnightblue" stroke="midnightblue" points="131.5,-197.75 128,-187.75 124.5,-197.75 131.5,-197.75"/>
</g>
<!-- Node4 -->
<g id="node4" class="node">
<title>Node4</title>
<g id="a_node4"><a xlink:href="os__mem__drivers_8h.html" target="_top" xlink:title="Drivers for OS memory management.">
<polygon fill="white" stroke="black" points="74.5,-112.5 74.5,-131.5 181.5,-131.5 181.5,-112.5 74.5,-112.5"/>
<text text-anchor="middle" x="128" y="-119.5" font-family="FreeSans" font-size="10.00">os_mem_drivers.h</text>
</a>
</g>
</g>
<!-- Node3&#45;&gt;Node4 -->
<g id="edge3" class="edge">
<title>Node3&#45;&gt;Node4</title>
<path fill="none" stroke="midnightblue" d="M128,-168.08C128,-161.01 128,-150.86 128,-141.99"/>
<polygon fill="midnightblue" stroke="midnightblue" points="131.5,-141.75 128,-131.75 124.5,-141.75 131.5,-141.75"/>
</g>
<!-- Node6 -->
<g id="node6" class="node">
<title>Node6</title>
<g id="a_node6"><a xlink:href="defines_8h.html" target="_top" xlink:title="Simple definitions and assembler&#45;macros, mostly 8/16&#45;Bit values.">
<polygon fill="white" stroke="black" points="199.5,-112.5 199.5,-131.5 260.5,-131.5 260.5,-112.5 199.5,-112.5"/>
<text text-anchor="middle" x="230" y="-119.5" font-family="FreeSans" font-size="10.00">defines.h</text>
</a>
</g>
</g>
<!-- Node3&#45;&gt;Node6 -->
<g id="edge5" class="edge">
<title>Node3&#45;&gt;Node6</title>
<path fill="none" stroke="midnightblue" d="M144.39,-168.32C160.67,-159.7 185.87,-146.36 204.72,-136.39"/>
<polygon fill="midnightblue" stroke="midnightblue" points="206.45,-139.43 213.65,-131.65 203.18,-133.24 206.45,-139.43"/>
</g>
<!-- Node9 -->
<g id="node9" class="node">
<title>Node9</title>
<g id="a_node9"><a xlink:title=" ">
<polygon fill="white" stroke="#bfbfbf" points="0,-112.5 0,-131.5 56,-131.5 56,-112.5 0,-112.5"/>
<text text-anchor="middle" x="28" y="-119.5" font-family="FreeSans" font-size="10.00">stddef.h</text>
</a>
</g>
</g>
<!-- Node3&#45;&gt;Node9 -->
<g id="edge8" class="edge">
<title>Node3&#45;&gt;Node9</title>
<path fill="none" stroke="midnightblue" d="M111.93,-168.32C96.04,-159.74 71.49,-146.49 53.04,-136.52"/>
<polygon fill="midnightblue" stroke="midnightblue" points="54.49,-133.33 44.03,-131.65 51.16,-139.49 54.49,-133.33"/>
</g>
<!-- Node5 -->
<g id="node5" class="node">
<title>Node5</title>
<g id="a_node5"><a xlink:title=" ">
<polygon fill="white" stroke="#bfbfbf" points="72.5,-56.5 72.5,-75.5 137.5,-75.5 137.5,-56.5 72.5,-56.5"/>
<text text-anchor="middle" x="105" y="-63.5" font-family="FreeSans" font-size="10.00">inttypes.h</text>
</a>
</g>
</g>
<!-- Node4&#45;&gt;Node5 -->
<g id="edge4" class="edge">
<title>Node4&#45;&gt;Node5</title>
<path fill="none" stroke="midnightblue" d="M124.2,-112.08C121.09,-104.77 116.58,-94.18 112.71,-85.1"/>
<polygon fill="midnightblue" stroke="midnightblue" points="115.87,-83.58 108.73,-75.75 109.43,-86.32 115.87,-83.58"/>
</g>
<!-- Node7 -->
<g id="node7" class="node">
<title>Node7</title>
<g id="a_node7"><a xlink:href="atmega644constants_8h.html" target="_top" xlink:title="Constants for ATMega644 and EVA board. Defines several useful constants for the ATMega644.">
<polygon fill="white" stroke="black" points="156,-56.5 156,-75.5 284,-75.5 284,-56.5 156,-56.5"/>
<text text-anchor="middle" x="220" y="-63.5" font-family="FreeSans" font-size="10.00">atmega644constants.h</text>
</a>
</g>
</g>
<!-- Node6&#45;&gt;Node7 -->
<g id="edge6" class="edge">
<title>Node6&#45;&gt;Node7</title>
<path fill="none" stroke="midnightblue" d="M228.35,-112.08C227.02,-104.93 225.12,-94.64 223.46,-85.69"/>
<polygon fill="midnightblue" stroke="midnightblue" points="226.88,-84.95 221.62,-75.75 220,-86.22 226.88,-84.95"/>
</g>
<!-- Node8 -->
<g id="node8" class="node">
<title>Node8</title>
<g id="a_node8"><a xlink:title=" ">
<polygon fill="white" stroke="#bfbfbf" points="193.5,-0.5 193.5,-19.5 246.5,-19.5 246.5,-0.5 193.5,-0.5"/>
<text text-anchor="middle" x="220" y="-7.5" font-family="FreeSans" font-size="10.00">avr/io.h</text>
</a>
</g>
</g>
<!-- Node7&#45;&gt;Node8 -->
<g id="edge7" class="edge">
<title>Node7&#45;&gt;Node8</title>
<path fill="none" stroke="midnightblue" d="M220,-56.08C220,-49.01 220,-38.86 220,-29.99"/>
<polygon fill="midnightblue" stroke="midnightblue" points="223.5,-29.75 220,-19.75 216.5,-29.75 223.5,-29.75"/>
</g>
<!-- Node10&#45;&gt;Node3 -->
<g id="edge11" class="edge">
<title>Node10&#45;&gt;Node3</title>
<path fill="none" stroke="midnightblue" d="M235.72,-224.44C214.65,-215.56 181.48,-201.56 157.51,-191.45"/>
<polygon fill="midnightblue" stroke="midnightblue" points="158.76,-188.18 148.19,-187.52 156.04,-194.63 158.76,-188.18"/>
</g>
<!-- Node10&#45;&gt;Node4 -->
<g id="edge10" class="edge">
<title>Node10&#45;&gt;Node4</title>
<path fill="none" stroke="midnightblue" d="M250.14,-224.22C240.98,-210.94 222.21,-185.44 202,-168 187.62,-155.59 169.41,-144.47 154.66,-136.39"/>
<polygon fill="midnightblue" stroke="midnightblue" points="156,-133.14 145.53,-131.53 152.72,-139.32 156,-133.14"/>
</g>
<!-- Node11 -->
<g id="node11" class="node">
<title>Node11</title>
<g id="a_node11"><a xlink:href="os__scheduler_8h.html" target="_top" xlink:title="Scheduling module for the OS.">
<polygon fill="white" stroke="black" points="250.5,-168.5 250.5,-187.5 339.5,-187.5 339.5,-168.5 250.5,-168.5"/>
<text text-anchor="middle" x="295" y="-175.5" font-family="FreeSans" font-size="10.00">os_scheduler.h</text>
</a>
</g>
</g>
<!-- Node10&#45;&gt;Node11 -->
<g id="edge12" class="edge">
<title>Node10&#45;&gt;Node11</title>
<path fill="none" stroke="midnightblue" d="M262.44,-224.08C267.95,-216.46 276.03,-205.26 282.76,-195.94"/>
<polygon fill="midnightblue" stroke="midnightblue" points="285.66,-197.91 288.68,-187.75 279.99,-193.81 285.66,-197.91"/>
</g>
<!-- Node11&#45;&gt;Node6 -->
<g id="edge14" class="edge">
<title>Node11&#45;&gt;Node6</title>
<path fill="none" stroke="midnightblue" d="M284.56,-168.32C274.85,-160.26 260.18,-148.08 248.5,-138.37"/>
<polygon fill="midnightblue" stroke="midnightblue" points="250.56,-135.53 240.63,-131.83 246.09,-140.92 250.56,-135.53"/>
</g>
<!-- Node12 -->
<g id="node12" class="node">
<title>Node12</title>
<g id="a_node12"><a xlink:title=" ">
<polygon fill="white" stroke="#bfbfbf" points="374,-56.5 374,-75.5 436,-75.5 436,-56.5 374,-56.5"/>
<text text-anchor="middle" x="405" y="-63.5" font-family="FreeSans" font-size="10.00">stdbool.h</text>
</a>
</g>
</g>
<!-- Node11&#45;&gt;Node12 -->
<g id="edge13" class="edge">
<title>Node11&#45;&gt;Node12</title>
<path fill="none" stroke="midnightblue" d="M320.44,-168.46C338.58,-161.24 362.41,-149.28 378,-132 389.88,-118.83 396.97,-99.69 400.88,-85.59"/>
<polygon fill="midnightblue" stroke="midnightblue" points="404.36,-86.12 403.37,-75.57 397.56,-84.43 404.36,-86.12"/>
</g>
<!-- Node13 -->
<g id="node13" class="node">
<title>Node13</title>
<g id="a_node13"><a xlink:href="os__process_8h.html" target="_top" xlink:title="Struct specifying a process.">
<polygon fill="white" stroke="black" points="289,-112.5 289,-131.5 369,-131.5 369,-112.5 289,-112.5"/>
<text text-anchor="middle" x="329" y="-119.5" font-family="FreeSans" font-size="10.00">os_process.h</text>
</a>
</g>
</g>
<!-- Node11&#45;&gt;Node13 -->
<g id="edge15" class="edge">
<title>Node11&#45;&gt;Node13</title>
<path fill="none" stroke="midnightblue" d="M300.61,-168.08C305.37,-160.53 312.32,-149.49 318.15,-140.23"/>
<polygon fill="midnightblue" stroke="midnightblue" points="321.12,-142.08 323.49,-131.75 315.2,-138.35 321.12,-142.08"/>
</g>
<!-- Node13&#45;&gt;Node12 -->
<g id="edge17" class="edge">
<title>Node13&#45;&gt;Node12</title>
<path fill="none" stroke="midnightblue" d="M341.21,-112.32C352.78,-104.11 370.38,-91.6 384.16,-81.81"/>
<polygon fill="midnightblue" stroke="midnightblue" points="386.44,-84.48 392.57,-75.83 382.39,-78.77 386.44,-84.48"/>
</g>
<!-- Node14 -->
<g id="node14" class="node">
<title>Node14</title>
<g id="a_node14"><a xlink:title=" ">
<polygon fill="white" stroke="#bfbfbf" points="302.5,-56.5 302.5,-75.5 355.5,-75.5 355.5,-56.5 302.5,-56.5"/>
<text text-anchor="middle" x="329" y="-63.5" font-family="FreeSans" font-size="10.00">stdint.h</text>
</a>
</g>
</g>
<!-- Node13&#45;&gt;Node14 -->
<g id="edge16" class="edge">
<title>Node13&#45;&gt;Node14</title>
<path fill="none" stroke="midnightblue" d="M329,-112.08C329,-105.01 329,-94.86 329,-85.99"/>
<polygon fill="midnightblue" stroke="midnightblue" points="332.5,-85.75 329,-75.75 325.5,-85.75 332.5,-85.75"/>
</g>
<!-- Node16 -->
<g id="node16" class="node">
<title>Node16</title>
<g id="a_node16"><a xlink:title=" ">
<polygon fill="white" stroke="#bfbfbf" points="357.5,-168.5 357.5,-187.5 452.5,-187.5 452.5,-168.5 357.5,-168.5"/>
<text text-anchor="middle" x="405" y="-175.5" font-family="FreeSans" font-size="10.00">avr/pgmspace.h</text>
</a>
</g>
</g>
<!-- Node15&#45;&gt;Node16 -->
<g id="edge19" class="edge">
<title>Node15&#45;&gt;Node16</title>
<path fill="none" stroke="midnightblue" d="M380.79,-224.08C384.76,-216.69 390.53,-205.95 395.43,-196.81"/>
<polygon fill="midnightblue" stroke="midnightblue" points="398.65,-198.22 400.3,-187.75 392.49,-194.91 398.65,-198.22"/>
</g>
</g>
</svg>
