<?xml version="1.0" encoding="UTF-8" standalone="no"?>
<!DOCTYPE svg PUBLIC "-//W3C//DTD SVG 1.1//EN"
 "http://www.w3.org/Graphics/SVG/1.1/DTD/svg11.dtd">
<!-- Generated by graphviz version 2.43.0 (0)
 -->
<!-- Title: util.h Pages: 1 -->
<svg width="516pt" height="140pt"
 viewBox="0.00 0.00 515.50 140.00" xmlns="http://www.w3.org/2000/svg" xmlns:xlink="http://www.w3.org/1999/xlink">
<g id="graph0" class="graph" transform="scale(1 1) rotate(0) translate(4 136)">
<title>util.h</title>
<polygon fill="white" stroke="transparent" points="-4,4 -4,-136 511.5,-136 511.5,4 -4,4"/>
<!-- Node1 -->
<g id="node1" class="node">
<title>Node1</title>
<g id="a_node1"><a xlink:title="Little helpers that don&#39;t fit elsewhere.">
<polygon fill="#bfbfbf" stroke="black" points="246.5,-112.5 246.5,-131.5 287.5,-131.5 287.5,-112.5 246.5,-112.5"/>
<text text-anchor="middle" x="267" y="-119.5" font-family="FreeSans" font-size="10.00">util.h</text>
</a>
</g>
</g>
<!-- Node2 -->
<g id="node2" class="node">
<title>Node2</title>
<g id="a_node2"><a xlink:href="lcd_8h.html" target="_top" xlink:title="Library for LCD use.">
<polygon fill="white" stroke="black" points="180,-56.5 180,-75.5 220,-75.5 220,-56.5 180,-56.5"/>
<text text-anchor="middle" x="200" y="-63.5" font-family="FreeSans" font-size="10.00">lcd.h</text>
</a>
</g>
</g>
<!-- Node1&#45;&gt;Node2 -->
<g id="edge1" class="edge">
<title>Node1&#45;&gt;Node2</title>
<path fill="none" stroke="midnightblue" d="M248.17,-105.82C236.16,-96.15 221.03,-83.95 210.96,-75.83"/>
<polygon fill="midnightblue" stroke="midnightblue" points="246.25,-108.77 256.24,-112.32 250.65,-103.32 246.25,-108.77"/>
</g>
<!-- Node3 -->
<g id="node3" class="node">
<title>Node3</title>
<g id="a_node3"><a xlink:href="os__core_8c.html" target="_top" xlink:title=" ">
<polygon fill="white" stroke="black" points="0,-0.5 0,-19.5 62,-19.5 62,-0.5 0,-0.5"/>
<text text-anchor="middle" x="31" y="-7.5" font-family="FreeSans" font-size="10.00">os_core.c</text>
</a>
</g>
</g>
<!-- Node1&#45;&gt;Node3 -->
<g id="edge6" class="edge">
<title>Node1&#45;&gt;Node3</title>
<path fill="none" stroke="midnightblue" d="M236.51,-110.69C212.4,-102.22 178.07,-89.47 149,-76 110.38,-58.1 67.03,-32.8 45.2,-19.67"/>
<polygon fill="midnightblue" stroke="midnightblue" points="235.58,-114.07 246.18,-114.05 237.88,-107.46 235.58,-114.07"/>
</g>
<!-- Node4 -->
<g id="node4" class="node">
<title>Node4</title>
<g id="a_node4"><a xlink:href="os__scheduler_8c.html" target="_top" xlink:title=" ">
<polygon fill="white" stroke="black" points="80,-0.5 80,-19.5 168,-19.5 168,-0.5 80,-0.5"/>
<text text-anchor="middle" x="124" y="-7.5" font-family="FreeSans" font-size="10.00">os_scheduler.c</text>
</a>
</g>
</g>
<!-- Node1&#45;&gt;Node4 -->
<g id="edge11" class="edge">
<title>Node1&#45;&gt;Node4</title>
<path fill="none" stroke="midnightblue" d="M236.59,-111.27C216.5,-103.82 190.41,-92.07 171,-76 151.26,-59.66 135.62,-33.23 128.38,-19.65"/>
<polygon fill="midnightblue" stroke="midnightblue" points="235.6,-114.64 246.2,-114.69 237.94,-108.04 235.6,-114.64"/>
</g>
<!-- Node5 -->
<g id="node5" class="node">
<title>Node5</title>
<g id="a_node5"><a xlink:href="os__taskman_8c.html" target="_top" xlink:title=" ">
<polygon fill="white" stroke="black" points="186,-0.5 186,-19.5 270,-19.5 270,-0.5 186,-0.5"/>
<text text-anchor="middle" x="228" y="-7.5" font-family="FreeSans" font-size="10.00">os_taskman.c</text>
</a>
</g>
</g>
<!-- Node1&#45;&gt;Node5 -->
<g id="edge12" class="edge">
<title>Node1&#45;&gt;Node5</title>
<path fill="none" stroke="midnightblue" d="M260.5,-102.67C251.98,-78.62 237.36,-37.39 231.05,-19.59"/>
<polygon fill="midnightblue" stroke="midnightblue" points="257.3,-104.11 263.94,-112.37 263.9,-101.77 257.3,-104.11"/>
</g>
<!-- Node6 -->
<g id="node6" class="node">
<title>Node6</title>
<g id="a_node6"><a xlink:href="util_8c.html" target="_top" xlink:title=" ">
<polygon fill="white" stroke="black" points="288.5,-0.5 288.5,-19.5 329.5,-19.5 329.5,-0.5 288.5,-0.5"/>
<text text-anchor="middle" x="309" y="-7.5" font-family="FreeSans" font-size="10.00">util.c</text>
</a>
</g>
</g>
<!-- Node1&#45;&gt;Node6 -->
<g id="edge13" class="edge">
<title>Node1&#45;&gt;Node6</title>
<path fill="none" stroke="midnightblue" d="M273.87,-103C283.04,-79 298.89,-37.47 305.72,-19.59"/>
<polygon fill="midnightblue" stroke="midnightblue" points="270.59,-101.78 270.3,-112.37 277.13,-104.27 270.59,-101.78"/>
</g>
<!-- Node7 -->
<g id="node7" class="node">
<title>Node7</title>
<g id="a_node7"><a xlink:href="os__spi_8h.html" target="_top" xlink:title="Driver for AVRs SPI module.">
<polygon fill="white" stroke="black" points="352,-56.5 352,-75.5 408,-75.5 408,-56.5 352,-56.5"/>
<text text-anchor="middle" x="380" y="-63.5" font-family="FreeSans" font-size="10.00">os_spi.h</text>
</a>
</g>
</g>
<!-- Node1&#45;&gt;Node7 -->
<g id="edge7" class="edge">
<title>Node1&#45;&gt;Node7</title>
<path fill="none" stroke="midnightblue" d="M294,-108.1C315.11,-98.01 343.86,-84.27 362.18,-75.52"/>
<polygon fill="midnightblue" stroke="midnightblue" points="292.42,-104.97 284.91,-112.44 295.44,-111.29 292.42,-104.97"/>
</g>
<!-- Node8 -->
<g id="node8" class="node">
<title>Node8</title>
<g id="a_node8"><a xlink:href="os__mem__drivers_8c.html" target="_top" xlink:title=" ">
<polygon fill="white" stroke="black" points="348,-0.5 348,-19.5 454,-19.5 454,-0.5 348,-0.5"/>
<text text-anchor="middle" x="401" y="-7.5" font-family="FreeSans" font-size="10.00">os_mem_drivers.c</text>
</a>
</g>
</g>
<!-- Node1&#45;&gt;Node8 -->
<g id="edge9" class="edge">
<title>Node1&#45;&gt;Node8</title>
<path fill="none" stroke="midnightblue" d="M284.35,-105.75C299.62,-92.43 322.56,-72.66 343,-56 358.81,-43.12 377.51,-28.76 389.32,-19.8"/>
<polygon fill="midnightblue" stroke="midnightblue" points="281.93,-103.22 276.71,-112.43 286.54,-108.48 281.93,-103.22"/>
</g>
<!-- Node9 -->
<g id="node9" class="node">
<title>Node9</title>
<g id="a_node9"><a xlink:href="os__memory_8c.html" target="_top" xlink:title=" ">
<polygon fill="white" stroke="black" points="426.5,-56.5 426.5,-75.5 507.5,-75.5 507.5,-56.5 426.5,-56.5"/>
<text text-anchor="middle" x="467" y="-63.5" font-family="FreeSans" font-size="10.00">os_memory.c</text>
</a>
</g>
</g>
<!-- Node1&#45;&gt;Node9 -->
<g id="edge10" class="edge">
<title>Node1&#45;&gt;Node9</title>
<path fill="none" stroke="midnightblue" d="M297.44,-112.78C334.71,-102.72 397.53,-85.76 435.34,-75.55"/>
<polygon fill="midnightblue" stroke="midnightblue" points="296.39,-109.44 287.65,-115.42 298.22,-116.2 296.39,-109.44"/>
</g>
<!-- Node2&#45;&gt;Node3 -->
<g id="edge2" class="edge">
<title>Node2&#45;&gt;Node3</title>
<path fill="none" stroke="midnightblue" d="M170.3,-55.51C138.45,-45.33 88.33,-29.32 57.69,-19.53"/>
<polygon fill="midnightblue" stroke="midnightblue" points="169.36,-58.88 179.95,-58.59 171.49,-52.22 169.36,-58.88"/>
</g>
<!-- Node2&#45;&gt;Node4 -->
<g id="edge3" class="edge">
<title>Node2&#45;&gt;Node4</title>
<path fill="none" stroke="midnightblue" d="M179.42,-50.38C165.69,-40.62 148.07,-28.11 136.43,-19.83"/>
<polygon fill="midnightblue" stroke="midnightblue" points="177.61,-53.38 187.79,-56.32 181.66,-47.68 177.61,-53.38"/>
</g>
<!-- Node2&#45;&gt;Node5 -->
<g id="edge4" class="edge">
<title>Node2&#45;&gt;Node5</title>
<path fill="none" stroke="midnightblue" d="M209.34,-46.98C214.09,-37.82 219.66,-27.09 223.46,-19.75"/>
<polygon fill="midnightblue" stroke="midnightblue" points="206.12,-45.59 204.62,-56.08 212.33,-48.82 206.12,-45.59"/>
</g>
<!-- Node2&#45;&gt;Node6 -->
<g id="edge5" class="edge">
<title>Node2&#45;&gt;Node6</title>
<path fill="none" stroke="midnightblue" d="M226.52,-51.86C246.73,-41.85 273.99,-28.35 291.53,-19.65"/>
<polygon fill="midnightblue" stroke="midnightblue" points="224.92,-48.75 217.51,-56.32 228.03,-55.02 224.92,-48.75"/>
</g>
<!-- Node7&#45;&gt;Node8 -->
<g id="edge8" class="edge">
<title>Node7&#45;&gt;Node8</title>
<path fill="none" stroke="midnightblue" d="M387.12,-46.69C390.66,-37.59 394.77,-27.01 397.6,-19.75"/>
<polygon fill="midnightblue" stroke="midnightblue" points="383.83,-45.49 383.47,-56.08 390.35,-48.03 383.83,-45.49"/>
</g>
</g>
</svg>
