<?xml version="1.0" encoding="UTF-8" standalone="no"?>
<!DOCTYPE svg PUBLIC "-//W3C//DTD SVG 1.1//EN"
 "http://www.w3.org/Graphics/SVG/1.1/DTD/svg11.dtd">
<!-- Generated by graphviz version 2.43.0 (0)
 -->
<!-- Title: lcd_home Pages: 1 -->
<svg width="287pt" height="28pt"
 viewBox="0.00 0.00 287.00 28.00" xmlns="http://www.w3.org/2000/svg" xmlns:xlink="http://www.w3.org/1999/xlink">
<g id="graph0" class="graph" transform="scale(1 1) rotate(0) translate(4 24)">
<title>lcd_home</title>
<polygon fill="white" stroke="transparent" points="-4,4 -4,-24 283,-24 283,4 -4,4"/>
<!-- Node1 -->
<g id="node1" class="node">
<title>Node1</title>
<g id="a_node1"><a xlink:title="Go to the first character in line.">
<polygon fill="#bfbfbf" stroke="black" points="0,-0.5 0,-19.5 64,-19.5 64,-0.5 0,-0.5"/>
<text text-anchor="middle" x="32" y="-7.5" font-family="FreeSans" font-size="10.00">lcd_home</text>
</a>
</g>
</g>
<!-- Node2 -->
<g id="node2" class="node">
<title>Node2</title>
<g id="a_node2"><a xlink:href="lcd_8h.html#a338e21c2a6ba1044313b26bf868e13b2" target="_top" xlink:title="Next output will be written at (row, column)">
<polygon fill="white" stroke="black" points="100,-0.5 100,-19.5 158,-19.5 158,-0.5 100,-0.5"/>
<text text-anchor="middle" x="129" y="-7.5" font-family="FreeSans" font-size="10.00">lcd_goto</text>
</a>
</g>
</g>
<!-- Node1&#45;&gt;Node2 -->
<g id="edge1" class="edge">
<title>Node1&#45;&gt;Node2</title>
<path fill="none" stroke="midnightblue" d="M64.11,-10C72.26,-10 81.15,-10 89.64,-10"/>
<polygon fill="midnightblue" stroke="midnightblue" points="89.71,-13.5 99.71,-10 89.71,-6.5 89.71,-13.5"/>
</g>
<!-- Node3 -->
<g id="node3" class="node">
<title>Node3</title>
<g id="a_node3"><a xlink:href="lcd_8h.html#acb116d89c358367b8fd1164120d320e3" target="_top" xlink:title="Send command to LCD.">
<polygon fill="white" stroke="black" points="194,-0.5 194,-19.5 279,-19.5 279,-0.5 194,-0.5"/>
<text text-anchor="middle" x="236.5" y="-7.5" font-family="FreeSans" font-size="10.00">lcd_command</text>
</a>
</g>
</g>
<!-- Node2&#45;&gt;Node3 -->
<g id="edge2" class="edge">
<title>Node2&#45;&gt;Node3</title>
<path fill="none" stroke="midnightblue" d="M158.27,-10C166.08,-10 174.81,-10 183.51,-10"/>
<polygon fill="midnightblue" stroke="midnightblue" points="183.65,-13.5 193.65,-10 183.65,-6.5 183.65,-13.5"/>
</g>
</g>
</svg>
