<?xml version="1.0" encoding="UTF-8" standalone="no"?>
<!DOCTYPE svg PUBLIC "-//W3C//DTD SVG 1.1//EN"
 "http://www.w3.org/Graphics/SVG/1.1/DTD/svg11.dtd">
<!-- Generated by graphviz version 2.43.0 (0)
 -->
<!-- Title: os_getChunkSize Pages: 1 -->
<svg width="531pt" height="66pt"
 viewBox="0.00 0.00 531.00 66.00" xmlns="http://www.w3.org/2000/svg" xmlns:xlink="http://www.w3.org/1999/xlink">
<g id="graph0" class="graph" transform="scale(1 1) rotate(0) translate(4 62)">
<title>os_getChunkSize</title>
<polygon fill="white" stroke="transparent" points="-4,4 -4,-62 527,-62 527,4 -4,4"/>
<!-- Node1 -->
<g id="node1" class="node">
<title>Node1</title>
<g id="a_node1"><a xlink:title="Get the size of a chunk on a given address.">
<polygon fill="#bfbfbf" stroke="black" points="0,-19.5 0,-38.5 100,-38.5 100,-19.5 0,-19.5"/>
<text text-anchor="middle" x="50" y="-26.5" font-family="FreeSans" font-size="10.00">os_getChunkSize</text>
</a>
</g>
</g>
<!-- Node2 -->
<g id="node2" class="node">
<title>Node2</title>
<g id="a_node2"><a xlink:href="os__memory_8c.html#a292385f9ee19516237f51ab76c76405e" target="_top" xlink:title="Get the address of the first byte of chunk.">
<polygon fill="white" stroke="black" points="136,-38.5 136,-57.5 270,-57.5 270,-38.5 136,-38.5"/>
<text text-anchor="middle" x="203" y="-45.5" font-family="FreeSans" font-size="10.00">os_getFirstByteOfChunk</text>
</a>
</g>
</g>
<!-- Node1&#45;&gt;Node2 -->
<g id="edge1" class="edge">
<title>Node1&#45;&gt;Node2</title>
<path fill="none" stroke="midnightblue" d="M100.03,-35.17C108.35,-36.22 117.16,-37.32 125.98,-38.43"/>
<polygon fill="midnightblue" stroke="midnightblue" points="125.56,-41.91 135.92,-39.69 126.44,-34.96 125.56,-41.91"/>
</g>
<!-- Node3 -->
<g id="node3" class="node">
<title>Node3</title>
<g id="a_node3"><a xlink:href="os__memory_8c.html#a29ccc3e0a668c0be4b285bc74ef6d920" target="_top" xlink:title="Function used to get the value of a single map entry, this is made public so the allocation strategie...">
<polygon fill="white" stroke="black" points="306,-19.5 306,-38.5 401,-38.5 401,-19.5 306,-19.5"/>
<text text-anchor="middle" x="353.5" y="-26.5" font-family="FreeSans" font-size="10.00">os_getMapEntry</text>
</a>
</g>
</g>
<!-- Node1&#45;&gt;Node3 -->
<g id="edge5" class="edge">
<title>Node1&#45;&gt;Node3</title>
<path fill="none" stroke="midnightblue" d="M100.11,-29C153.68,-29 239.29,-29 295.71,-29"/>
<polygon fill="midnightblue" stroke="midnightblue" points="295.89,-32.5 305.89,-29 295.89,-25.5 295.89,-32.5"/>
</g>
<!-- Node2&#45;&gt;Node3 -->
<g id="edge2" class="edge">
<title>Node2&#45;&gt;Node3</title>
<path fill="none" stroke="midnightblue" d="M270.43,-39.5C278.89,-38.42 287.48,-37.32 295.76,-36.26"/>
<polygon fill="midnightblue" stroke="midnightblue" points="296.21,-39.73 305.68,-34.99 295.32,-32.79 296.21,-39.73"/>
</g>
<!-- Node4 -->
<g id="node4" class="node">
<title>Node4</title>
<g id="a_node4"><a xlink:href="os__memory_8c.html#ae420976ba4abbd069aff795935b9636c" target="_top" xlink:title="Reads the value of the higher nibble of the given address.">
<polygon fill="white" stroke="black" points="437,-38.5 437,-57.5 523,-57.5 523,-38.5 437,-38.5"/>
<text text-anchor="middle" x="480" y="-45.5" font-family="FreeSans" font-size="10.00">getHighNibble</text>
</a>
</g>
</g>
<!-- Node3&#45;&gt;Node4 -->
<g id="edge3" class="edge">
<title>Node3&#45;&gt;Node4</title>
<path fill="none" stroke="midnightblue" d="M401.21,-36.13C409.64,-37.42 418.48,-38.76 427.05,-40.07"/>
<polygon fill="midnightblue" stroke="midnightblue" points="426.53,-43.53 436.95,-41.58 427.59,-36.61 426.53,-43.53"/>
</g>
<!-- Node5 -->
<g id="node5" class="node">
<title>Node5</title>
<g id="a_node5"><a xlink:href="os__memory_8c.html#a01bd9b56dbbeb0af404043ceca5c8818" target="_top" xlink:title="Reads the value of the lower nibble of the given address.">
<polygon fill="white" stroke="black" points="438.5,-0.5 438.5,-19.5 521.5,-19.5 521.5,-0.5 438.5,-0.5"/>
<text text-anchor="middle" x="480" y="-7.5" font-family="FreeSans" font-size="10.00">getLowNibble</text>
</a>
</g>
</g>
<!-- Node3&#45;&gt;Node5 -->
<g id="edge4" class="edge">
<title>Node3&#45;&gt;Node5</title>
<path fill="none" stroke="midnightblue" d="M401.21,-21.87C410.04,-20.52 419.3,-19.11 428.25,-17.75"/>
<polygon fill="midnightblue" stroke="midnightblue" points="428.8,-21.2 438.16,-16.23 427.75,-14.28 428.8,-21.2"/>
</g>
</g>
</svg>
