<?xml version="1.0" encoding="UTF-8" standalone="no"?>
<!DOCTYPE svg PUBLIC "-//W3C//DTD SVG 1.1//EN"
 "http://www.w3.org/Graphics/SVG/1.1/DTD/svg11.dtd">
<!-- Generated by graphviz version 2.43.0 (0)
 -->
<!-- Title: os_memory.h Pages: 1 -->
<svg width="427pt" height="252pt"
 viewBox="0.00 0.00 427.00 252.00" xmlns="http://www.w3.org/2000/svg" xmlns:xlink="http://www.w3.org/1999/xlink">
<g id="graph0" class="graph" transform="scale(1 1) rotate(0) translate(4 248)">
<title>os_memory.h</title>
<polygon fill="white" stroke="transparent" points="-4,4 -4,-248 423,-248 423,4 -4,4"/>
<!-- Node1 -->
<g id="node1" class="node">
<title>Node1</title>
<g id="a_node1"><a xlink:title="Library for OS memory management.">
<polygon fill="#bfbfbf" stroke="black" points="112.5,-224.5 112.5,-243.5 194.5,-243.5 194.5,-224.5 112.5,-224.5"/>
<text text-anchor="middle" x="153.5" y="-231.5" font-family="FreeSans" font-size="10.00">os_memory.h</text>
</a>
</g>
</g>
<!-- Node2 -->
<g id="node2" class="node">
<title>Node2</title>
<g id="a_node2"><a xlink:href="os__mem__drivers_8h.html" target="_top" xlink:title="Drivers for OS memory management.">
<polygon fill="white" stroke="black" points="0,-112.5 0,-131.5 107,-131.5 107,-112.5 0,-112.5"/>
<text text-anchor="middle" x="53.5" y="-119.5" font-family="FreeSans" font-size="10.00">os_mem_drivers.h</text>
</a>
</g>
</g>
<!-- Node1&#45;&gt;Node2 -->
<g id="edge1" class="edge">
<title>Node1&#45;&gt;Node2</title>
<path fill="none" stroke="midnightblue" d="M131.42,-224.46C114.84,-217.06 92.66,-204.86 78.5,-188 67.33,-174.71 60.83,-155.87 57.27,-141.9"/>
<polygon fill="midnightblue" stroke="midnightblue" points="60.63,-140.91 55.01,-131.93 53.8,-142.46 60.63,-140.91"/>
</g>
<!-- Node4 -->
<g id="node4" class="node">
<title>Node4</title>
<g id="a_node4"><a xlink:href="os__memheap__drivers_8h.html" target="_top" xlink:title="Drivers for OS heap management.">
<polygon fill="white" stroke="black" points="88,-168.5 88,-187.5 219,-187.5 219,-168.5 88,-168.5"/>
<text text-anchor="middle" x="153.5" y="-175.5" font-family="FreeSans" font-size="10.00">os_memheap_drivers.h</text>
</a>
</g>
</g>
<!-- Node1&#45;&gt;Node4 -->
<g id="edge3" class="edge">
<title>Node1&#45;&gt;Node4</title>
<path fill="none" stroke="midnightblue" d="M153.5,-224.08C153.5,-217.01 153.5,-206.86 153.5,-197.99"/>
<polygon fill="midnightblue" stroke="midnightblue" points="157,-197.75 153.5,-187.75 150,-197.75 157,-197.75"/>
</g>
<!-- Node9 -->
<g id="node9" class="node">
<title>Node9</title>
<g id="a_node9"><a xlink:href="os__scheduler_8h.html" target="_top" xlink:title="Scheduling module for the OS.">
<polygon fill="white" stroke="black" points="241,-168.5 241,-187.5 330,-187.5 330,-168.5 241,-168.5"/>
<text text-anchor="middle" x="285.5" y="-175.5" font-family="FreeSans" font-size="10.00">os_scheduler.h</text>
</a>
</g>
</g>
<!-- Node1&#45;&gt;Node9 -->
<g id="edge9" class="edge">
<title>Node1&#45;&gt;Node9</title>
<path fill="none" stroke="midnightblue" d="M174.42,-224.44C196.24,-215.52 230.65,-201.44 255.39,-191.32"/>
<polygon fill="midnightblue" stroke="midnightblue" points="256.75,-194.54 264.68,-187.52 254.1,-188.06 256.75,-194.54"/>
</g>
<!-- Node3 -->
<g id="node3" class="node">
<title>Node3</title>
<g id="a_node3"><a xlink:title=" ">
<polygon fill="white" stroke="#bfbfbf" points="21,-56.5 21,-75.5 86,-75.5 86,-56.5 21,-56.5"/>
<text text-anchor="middle" x="53.5" y="-63.5" font-family="FreeSans" font-size="10.00">inttypes.h</text>
</a>
</g>
</g>
<!-- Node2&#45;&gt;Node3 -->
<g id="edge2" class="edge">
<title>Node2&#45;&gt;Node3</title>
<path fill="none" stroke="midnightblue" d="M53.5,-112.08C53.5,-105.01 53.5,-94.86 53.5,-85.99"/>
<polygon fill="midnightblue" stroke="midnightblue" points="57,-85.75 53.5,-75.75 50,-85.75 57,-85.75"/>
</g>
<!-- Node4&#45;&gt;Node2 -->
<g id="edge4" class="edge">
<title>Node4&#45;&gt;Node2</title>
<path fill="none" stroke="midnightblue" d="M137.43,-168.32C121.54,-159.74 96.99,-146.49 78.54,-136.52"/>
<polygon fill="midnightblue" stroke="midnightblue" points="79.99,-133.33 69.53,-131.65 76.66,-139.49 79.99,-133.33"/>
</g>
<!-- Node5 -->
<g id="node5" class="node">
<title>Node5</title>
<g id="a_node5"><a xlink:href="defines_8h.html" target="_top" xlink:title="Simple definitions and assembler&#45;macros, mostly 8/16&#45;Bit values.">
<polygon fill="white" stroke="black" points="200,-112.5 200,-131.5 261,-131.5 261,-112.5 200,-112.5"/>
<text text-anchor="middle" x="230.5" y="-119.5" font-family="FreeSans" font-size="10.00">defines.h</text>
</a>
</g>
</g>
<!-- Node4&#45;&gt;Node5 -->
<g id="edge5" class="edge">
<title>Node4&#45;&gt;Node5</title>
<path fill="none" stroke="midnightblue" d="M165.87,-168.32C177.66,-160.06 195.63,-147.45 209.64,-137.63"/>
<polygon fill="midnightblue" stroke="midnightblue" points="211.98,-140.26 218.16,-131.65 207.96,-134.53 211.98,-140.26"/>
</g>
<!-- Node8 -->
<g id="node8" class="node">
<title>Node8</title>
<g id="a_node8"><a xlink:title=" ">
<polygon fill="white" stroke="#bfbfbf" points="125.5,-112.5 125.5,-131.5 181.5,-131.5 181.5,-112.5 125.5,-112.5"/>
<text text-anchor="middle" x="153.5" y="-119.5" font-family="FreeSans" font-size="10.00">stddef.h</text>
</a>
</g>
</g>
<!-- Node4&#45;&gt;Node8 -->
<g id="edge8" class="edge">
<title>Node4&#45;&gt;Node8</title>
<path fill="none" stroke="midnightblue" d="M153.5,-168.08C153.5,-161.01 153.5,-150.86 153.5,-141.99"/>
<polygon fill="midnightblue" stroke="midnightblue" points="157,-141.75 153.5,-131.75 150,-141.75 157,-141.75"/>
</g>
<!-- Node6 -->
<g id="node6" class="node">
<title>Node6</title>
<g id="a_node6"><a xlink:href="atmega644constants_8h.html" target="_top" xlink:title="Constants for ATMega644 and EVA board. Defines several useful constants for the ATMega644.">
<polygon fill="white" stroke="black" points="139.5,-56.5 139.5,-75.5 267.5,-75.5 267.5,-56.5 139.5,-56.5"/>
<text text-anchor="middle" x="203.5" y="-63.5" font-family="FreeSans" font-size="10.00">atmega644constants.h</text>
</a>
</g>
</g>
<!-- Node5&#45;&gt;Node6 -->
<g id="edge6" class="edge">
<title>Node5&#45;&gt;Node6</title>
<path fill="none" stroke="midnightblue" d="M226.04,-112.08C222.35,-104.69 216.98,-93.95 212.41,-84.81"/>
<polygon fill="midnightblue" stroke="midnightblue" points="215.48,-83.13 207.88,-75.75 209.22,-86.26 215.48,-83.13"/>
</g>
<!-- Node7 -->
<g id="node7" class="node">
<title>Node7</title>
<g id="a_node7"><a xlink:title=" ">
<polygon fill="white" stroke="#bfbfbf" points="177,-0.5 177,-19.5 230,-19.5 230,-0.5 177,-0.5"/>
<text text-anchor="middle" x="203.5" y="-7.5" font-family="FreeSans" font-size="10.00">avr/io.h</text>
</a>
</g>
</g>
<!-- Node6&#45;&gt;Node7 -->
<g id="edge7" class="edge">
<title>Node6&#45;&gt;Node7</title>
<path fill="none" stroke="midnightblue" d="M203.5,-56.08C203.5,-49.01 203.5,-38.86 203.5,-29.99"/>
<polygon fill="midnightblue" stroke="midnightblue" points="207,-29.75 203.5,-19.75 200,-29.75 207,-29.75"/>
</g>
<!-- Node9&#45;&gt;Node5 -->
<g id="edge11" class="edge">
<title>Node9&#45;&gt;Node5</title>
<path fill="none" stroke="midnightblue" d="M276.42,-168.08C268.33,-160.14 256.3,-148.34 246.59,-138.8"/>
<polygon fill="midnightblue" stroke="midnightblue" points="249,-136.26 239.41,-131.75 244.1,-141.25 249,-136.26"/>
</g>
<!-- Node10 -->
<g id="node10" class="node">
<title>Node10</title>
<g id="a_node10"><a xlink:title=" ">
<polygon fill="white" stroke="#bfbfbf" points="285.5,-56.5 285.5,-75.5 347.5,-75.5 347.5,-56.5 285.5,-56.5"/>
<text text-anchor="middle" x="316.5" y="-63.5" font-family="FreeSans" font-size="10.00">stdbool.h</text>
</a>
</g>
</g>
<!-- Node9&#45;&gt;Node10 -->
<g id="edge10" class="edge">
<title>Node9&#45;&gt;Node10</title>
<path fill="none" stroke="midnightblue" d="M287.93,-168.37C292.96,-150.54 304.58,-109.3 311.35,-85.27"/>
<polygon fill="midnightblue" stroke="midnightblue" points="314.73,-86.17 314.08,-75.59 308,-84.27 314.73,-86.17"/>
</g>
<!-- Node11 -->
<g id="node11" class="node">
<title>Node11</title>
<g id="a_node11"><a xlink:href="os__process_8h.html" target="_top" xlink:title="Struct specifying a process.">
<polygon fill="white" stroke="black" points="317.5,-112.5 317.5,-131.5 397.5,-131.5 397.5,-112.5 317.5,-112.5"/>
<text text-anchor="middle" x="357.5" y="-119.5" font-family="FreeSans" font-size="10.00">os_process.h</text>
</a>
</g>
</g>
<!-- Node9&#45;&gt;Node11 -->
<g id="edge12" class="edge">
<title>Node9&#45;&gt;Node11</title>
<path fill="none" stroke="midnightblue" d="M297.07,-168.32C307.92,-160.18 324.38,-147.84 337.38,-138.09"/>
<polygon fill="midnightblue" stroke="midnightblue" points="339.82,-140.63 345.72,-131.83 335.62,-135.03 339.82,-140.63"/>
</g>
<!-- Node11&#45;&gt;Node10 -->
<g id="edge14" class="edge">
<title>Node11&#45;&gt;Node10</title>
<path fill="none" stroke="midnightblue" d="M350.73,-112.08C344.94,-104.46 336.44,-93.26 329.36,-83.94"/>
<polygon fill="midnightblue" stroke="midnightblue" points="331.98,-81.6 323.14,-75.75 326.4,-85.83 331.98,-81.6"/>
</g>
<!-- Node12 -->
<g id="node12" class="node">
<title>Node12</title>
<g id="a_node12"><a xlink:title=" ">
<polygon fill="white" stroke="#bfbfbf" points="366,-56.5 366,-75.5 419,-75.5 419,-56.5 366,-56.5"/>
<text text-anchor="middle" x="392.5" y="-63.5" font-family="FreeSans" font-size="10.00">stdint.h</text>
</a>
</g>
</g>
<!-- Node11&#45;&gt;Node12 -->
<g id="edge13" class="edge">
<title>Node11&#45;&gt;Node12</title>
<path fill="none" stroke="midnightblue" d="M363.28,-112.08C368.17,-104.53 375.33,-93.49 381.33,-84.23"/>
<polygon fill="midnightblue" stroke="midnightblue" points="384.33,-86.05 386.83,-75.75 378.45,-82.24 384.33,-86.05"/>
</g>
</g>
</svg>
