<?xml version="1.0" encoding="UTF-8" standalone="no"?>
<!DOCTYPE svg PUBLIC "-//W3C//DTD SVG 1.1//EN"
 "http://www.w3.org/Graphics/SVG/1.1/DTD/svg11.dtd">
<!-- Generated by graphviz version 2.43.0 (0)
 -->
<!-- Title: pqueue_removePID Pages: 1 -->
<svg width="391pt" height="142pt"
 viewBox="0.00 0.00 391.00 142.00" xmlns="http://www.w3.org/2000/svg" xmlns:xlink="http://www.w3.org/1999/xlink">
<g id="graph0" class="graph" transform="scale(1 1) rotate(0) translate(4 138)">
<title>pqueue_removePID</title>
<polygon fill="white" stroke="transparent" points="-4,4 -4,-138 387,-138 387,4 -4,4"/>
<!-- Node1 -->
<g id="node1" class="node">
<title>Node1</title>
<g id="a_node1"><a xlink:title=" ">
<polygon fill="#bfbfbf" stroke="black" points="0,-57.5 0,-76.5 112,-76.5 112,-57.5 0,-57.5"/>
<text text-anchor="middle" x="56" y="-64.5" font-family="FreeSans" font-size="10.00">pqueue_removePID</text>
</a>
</g>
</g>
<!-- Node2 -->
<g id="node2" class="node">
<title>Node2</title>
<g id="a_node2"><a xlink:href="os__scheduling__strategies_8c.html#a3ae034c3452457a90dd7c074ca5c3aaf" target="_top" xlink:title="Appends a ProcessID to the given ProcessQueue.">
<polygon fill="white" stroke="black" points="151.5,-114.5 151.5,-133.5 245.5,-133.5 245.5,-114.5 151.5,-114.5"/>
<text text-anchor="middle" x="198.5" y="-121.5" font-family="FreeSans" font-size="10.00">pqueue_append</text>
</a>
</g>
</g>
<!-- Node1&#45;&gt;Node2 -->
<g id="edge1" class="edge">
<title>Node1&#45;&gt;Node2</title>
<path fill="none" stroke="midnightblue" d="M79.36,-76.55C97.74,-84.35 124.48,-95.58 148,-105 152.79,-106.92 157.86,-108.91 162.85,-110.85"/>
<polygon fill="midnightblue" stroke="midnightblue" points="161.67,-114.14 172.26,-114.48 164.19,-107.61 161.67,-114.14"/>
</g>
<!-- Node3 -->
<g id="node3" class="node">
<title>Node3</title>
<g id="a_node3"><a xlink:href="os__scheduling__strategies_8c.html#af2fe5737d2380feb249f6798c75279e0" target="_top" xlink:title="Drops the first ProcessID of the given ProcessQueue.">
<polygon fill="white" stroke="black" points="148,-76.5 148,-95.5 249,-95.5 249,-76.5 148,-76.5"/>
<text text-anchor="middle" x="198.5" y="-83.5" font-family="FreeSans" font-size="10.00">pqueue_dropFirst</text>
</a>
</g>
</g>
<!-- Node1&#45;&gt;Node3 -->
<g id="edge2" class="edge">
<title>Node1&#45;&gt;Node3</title>
<path fill="none" stroke="midnightblue" d="M112.13,-74.45C120.43,-75.58 129.04,-76.74 137.44,-77.88"/>
<polygon fill="midnightblue" stroke="midnightblue" points="137.18,-81.38 147.56,-79.25 138.12,-74.44 137.18,-81.38"/>
</g>
<!-- Node4 -->
<g id="node4" class="node">
<title>Node4</title>
<g id="a_node4"><a xlink:href="os__scheduling__strategies_8c.html#a7e2b52989067e26dde40df65a79ab934" target="_top" xlink:title="Checks whether there is next a ProcessID.">
<polygon fill="white" stroke="black" points="285,-38.5 285,-57.5 383,-57.5 383,-38.5 285,-38.5"/>
<text text-anchor="middle" x="334" y="-45.5" font-family="FreeSans" font-size="10.00">pqueue_hasNext</text>
</a>
</g>
</g>
<!-- Node1&#45;&gt;Node4 -->
<g id="edge6" class="edge">
<title>Node1&#45;&gt;Node4</title>
<path fill="none" stroke="midnightblue" d="M112.19,-63.2C159.23,-59.96 226.66,-55.32 274.6,-52.02"/>
<polygon fill="midnightblue" stroke="midnightblue" points="275.09,-55.5 284.82,-51.32 274.61,-48.51 275.09,-55.5"/>
</g>
<!-- Node5 -->
<g id="node5" class="node">
<title>Node5</title>
<g id="a_node5"><a xlink:href="os__scheduling__strategies_8c.html#ad6b26362a90e689ff188d2492a616eef" target="_top" xlink:title="Returns the first ProcessID of the given ProcessQueue.">
<polygon fill="white" stroke="black" points="151,-0.5 151,-19.5 246,-19.5 246,-0.5 151,-0.5"/>
<text text-anchor="middle" x="198.5" y="-7.5" font-family="FreeSans" font-size="10.00">pqueue_getFirst</text>
</a>
</g>
</g>
<!-- Node1&#45;&gt;Node5 -->
<g id="edge4" class="edge">
<title>Node1&#45;&gt;Node5</title>
<path fill="none" stroke="midnightblue" d="M80.52,-57.46C103.51,-48.13 138.74,-33.84 164.53,-23.38"/>
<polygon fill="midnightblue" stroke="midnightblue" points="165.96,-26.57 173.91,-19.57 163.32,-20.09 165.96,-26.57"/>
</g>
<!-- Node3&#45;&gt;Node4 -->
<g id="edge3" class="edge">
<title>Node3&#45;&gt;Node4</title>
<path fill="none" stroke="midnightblue" d="M233.19,-76.41C250.26,-71.55 271.2,-65.59 289.48,-60.39"/>
<polygon fill="midnightblue" stroke="midnightblue" points="290.66,-63.69 299.32,-57.59 288.75,-56.96 290.66,-63.69"/>
</g>
<!-- Node5&#45;&gt;Node4 -->
<g id="edge5" class="edge">
<title>Node5&#45;&gt;Node4</title>
<path fill="none" stroke="midnightblue" d="M233.19,-19.59C250.26,-24.45 271.2,-30.41 289.48,-35.61"/>
<polygon fill="midnightblue" stroke="midnightblue" points="288.75,-39.04 299.32,-38.41 290.66,-32.31 288.75,-39.04"/>
</g>
</g>
</svg>
