<?xml version="1.0" encoding="UTF-8" standalone="no"?>
<!DOCTYPE svg PUBLIC "-//W3C//DTD SVG 1.1//EN"
 "http://www.w3.org/Graphics/SVG/1.1/DTD/svg11.dtd">
<!-- Generated by graphviz version 2.43.0 (0)
 -->
<!-- Title: os_resetProcessSchedulingInformation Pages: 1 -->
<svg width="342pt" height="218pt"
 viewBox="0.00 0.00 342.00 218.00" xmlns="http://www.w3.org/2000/svg" xmlns:xlink="http://www.w3.org/1999/xlink">
<g id="graph0" class="graph" transform="scale(1 1) rotate(0) translate(4 214)">
<title>os_resetProcessSchedulingInformation</title>
<polygon fill="white" stroke="transparent" points="-4,4 -4,-214 338,-214 338,4 -4,4"/>
<!-- Node1 -->
<g id="node1" class="node">
<title>Node1</title>
<g id="a_node1"><a xlink:title="Used to reset the SchedulingInfo for one process.">
<polygon fill="#bfbfbf" stroke="black" points="0,-90 0,-120 149,-120 149,-90 0,-90"/>
<text text-anchor="start" x="8" y="-108" font-family="FreeSans" font-size="10.00">os_resetProcessScheduling</text>
<text text-anchor="middle" x="74.5" y="-97" font-family="FreeSans" font-size="10.00">Information</text>
</a>
</g>
</g>
<!-- Node2 -->
<g id="node2" class="node">
<title>Node2</title>
<g id="a_node2"><a xlink:href="os__scheduling__strategies_8c.html#aced6f1a87294783a6fa0d14cd72f96b0" target="_top" xlink:title="Returns the default number of timeslices for a specific ProcessQueue/priority class.">
<polygon fill="white" stroke="black" points="185,-190.5 185,-209.5 334,-209.5 334,-190.5 185,-190.5"/>
<text text-anchor="middle" x="259.5" y="-197.5" font-family="FreeSans" font-size="10.00">MLFQ_getDefaultTimeslice</text>
</a>
</g>
</g>
<!-- Node1&#45;&gt;Node2 -->
<g id="edge1" class="edge">
<title>Node1&#45;&gt;Node2</title>
<path fill="none" stroke="midnightblue" d="M92.89,-120.02C113.55,-137.13 149.66,-164.8 185,-181 190.3,-183.43 195.95,-185.58 201.69,-187.49"/>
<polygon fill="midnightblue" stroke="midnightblue" points="200.79,-190.87 211.37,-190.46 202.84,-184.18 200.79,-190.87"/>
</g>
<!-- Node3 -->
<g id="node3" class="node">
<title>Node3</title>
<g id="a_node3"><a xlink:href="os__scheduling__strategies_8c.html#abb8b69e7ca8b2c9fb5a9d77cdb493a84" target="_top" xlink:title="Returns a pointer to the ProcessQueue with index queueID.">
<polygon fill="white" stroke="black" points="211,-152.5 211,-171.5 308,-171.5 308,-152.5 211,-152.5"/>
<text text-anchor="middle" x="259.5" y="-159.5" font-family="FreeSans" font-size="10.00">MLFQ_getQueue</text>
</a>
</g>
</g>
<!-- Node1&#45;&gt;Node3 -->
<g id="edge2" class="edge">
<title>Node1&#45;&gt;Node3</title>
<path fill="none" stroke="midnightblue" d="M116.32,-120.05C136.81,-127.37 162.08,-136.07 185,-143 192.8,-145.36 201.13,-147.69 209.26,-149.86"/>
<polygon fill="midnightblue" stroke="midnightblue" points="208.49,-153.28 219.05,-152.43 210.26,-146.5 208.49,-153.28"/>
</g>
<!-- Node4 -->
<g id="node4" class="node">
<title>Node4</title>
<g id="a_node4"><a xlink:href="os__scheduling__strategies_8c.html#a95d2cb3869eb1152b7f3a1e3e42f24e5" target="_top" xlink:title="Maps a process&#45;priority to a priority class.">
<polygon fill="white" stroke="black" points="203,-114.5 203,-133.5 316,-133.5 316,-114.5 203,-114.5"/>
<text text-anchor="middle" x="259.5" y="-121.5" font-family="FreeSans" font-size="10.00">MLFQ_MapToQueue</text>
</a>
</g>
</g>
<!-- Node1&#45;&gt;Node4 -->
<g id="edge3" class="edge">
<title>Node1&#45;&gt;Node4</title>
<path fill="none" stroke="midnightblue" d="M149.14,-112.65C163.53,-114.14 178.53,-115.7 192.64,-117.16"/>
<polygon fill="midnightblue" stroke="midnightblue" points="192.43,-120.66 202.74,-118.21 193.15,-113.7 192.43,-120.66"/>
</g>
<!-- Node5 -->
<g id="node5" class="node">
<title>Node5</title>
<g id="a_node5"><a xlink:href="os__scheduling__strategies_8c.html#afec6e9db0f495ab73d7b28f2158d8c5f" target="_top" xlink:title="Function that removes the given ProcessID from the ProcessQueues.">
<polygon fill="white" stroke="black" points="207.5,-76.5 207.5,-95.5 311.5,-95.5 311.5,-76.5 207.5,-76.5"/>
<text text-anchor="middle" x="259.5" y="-83.5" font-family="FreeSans" font-size="10.00">MLFQ_removePID</text>
</a>
</g>
</g>
<!-- Node1&#45;&gt;Node5 -->
<g id="edge4" class="edge">
<title>Node1&#45;&gt;Node5</title>
<path fill="none" stroke="midnightblue" d="M149.14,-97.35C165.19,-95.69 182,-93.94 197.5,-92.33"/>
<polygon fill="midnightblue" stroke="midnightblue" points="197.89,-95.81 207.47,-91.3 197.16,-88.85 197.89,-95.81"/>
</g>
<!-- Node6 -->
<g id="node6" class="node">
<title>Node6</title>
<g id="a_node6"><a xlink:href="os__scheduler_8c.html#aceff964882db0b41f7e2258ca4d16579" target="_top" xlink:title="get a pointer to the process structure by process ID">
<polygon fill="white" stroke="black" points="207,-38.5 207,-57.5 312,-57.5 312,-38.5 207,-38.5"/>
<text text-anchor="middle" x="259.5" y="-45.5" font-family="FreeSans" font-size="10.00">os_getProcessSlot</text>
</a>
</g>
</g>
<!-- Node1&#45;&gt;Node6 -->
<g id="edge5" class="edge">
<title>Node1&#45;&gt;Node6</title>
<path fill="none" stroke="midnightblue" d="M116.32,-89.95C136.81,-82.63 162.08,-73.93 185,-67 192.8,-64.64 201.13,-62.31 209.26,-60.14"/>
<polygon fill="midnightblue" stroke="midnightblue" points="210.26,-63.5 219.05,-57.57 208.49,-56.72 210.26,-63.5"/>
</g>
<!-- Node7 -->
<g id="node7" class="node">
<title>Node7</title>
<g id="a_node7"><a xlink:href="os__scheduling__strategies_8c.html#a3ae034c3452457a90dd7c074ca5c3aaf" target="_top" xlink:title="Appends a ProcessID to the given ProcessQueue.">
<polygon fill="white" stroke="black" points="212.5,-0.5 212.5,-19.5 306.5,-19.5 306.5,-0.5 212.5,-0.5"/>
<text text-anchor="middle" x="259.5" y="-7.5" font-family="FreeSans" font-size="10.00">pqueue_append</text>
</a>
</g>
</g>
<!-- Node1&#45;&gt;Node7 -->
<g id="edge6" class="edge">
<title>Node1&#45;&gt;Node7</title>
<path fill="none" stroke="midnightblue" d="M92.89,-89.98C113.55,-72.87 149.66,-45.2 185,-29 190.45,-26.5 196.28,-24.29 202.19,-22.35"/>
<polygon fill="midnightblue" stroke="midnightblue" points="203.6,-25.57 212.15,-19.32 201.57,-18.88 203.6,-25.57"/>
</g>
</g>
</svg>
