<?xml version="1.0" encoding="UTF-8" standalone="no"?>
<!DOCTYPE svg PUBLIC "-//W3C//DTD SVG 1.1//EN"
 "http://www.w3.org/Graphics/SVG/1.1/DTD/svg11.dtd">
<!-- Generated by graphviz version 2.43.0 (0)
 -->
<!-- Title: os_memory.c Pages: 1 -->
<svg width="595pt" height="308pt"
 viewBox="0.00 0.00 595.00 308.00" xmlns="http://www.w3.org/2000/svg" xmlns:xlink="http://www.w3.org/1999/xlink">
<g id="graph0" class="graph" transform="scale(1 1) rotate(0) translate(4 304)">
<title>os_memory.c</title>
<polygon fill="white" stroke="transparent" points="-4,4 -4,-304 591,-304 591,4 -4,4"/>
<!-- Node1 -->
<g id="node1" class="node">
<title>Node1</title>
<g id="a_node1"><a xlink:title=" ">
<polygon fill="#bfbfbf" stroke="black" points="335,-280.5 335,-299.5 416,-299.5 416,-280.5 335,-280.5"/>
<text text-anchor="middle" x="375.5" y="-287.5" font-family="FreeSans" font-size="10.00">os_memory.c</text>
</a>
</g>
</g>
<!-- Node2 -->
<g id="node2" class="node">
<title>Node2</title>
<g id="a_node2"><a xlink:href="os__memory_8h.html" target="_top" xlink:title="Library for OS memory management.">
<polygon fill="white" stroke="black" points="139.5,-224.5 139.5,-243.5 221.5,-243.5 221.5,-224.5 139.5,-224.5"/>
<text text-anchor="middle" x="180.5" y="-231.5" font-family="FreeSans" font-size="10.00">os_memory.h</text>
</a>
</g>
</g>
<!-- Node1&#45;&gt;Node2 -->
<g id="edge1" class="edge">
<title>Node1&#45;&gt;Node2</title>
<path fill="none" stroke="midnightblue" d="M344.6,-280.44C311.23,-271.2 257.91,-256.44 221.15,-246.26"/>
<polygon fill="midnightblue" stroke="midnightblue" points="221.83,-242.81 211.25,-243.52 219.96,-249.56 221.83,-242.81"/>
</g>
<!-- Node14 -->
<g id="node14" class="node">
<title>Node14</title>
<g id="a_node14"><a xlink:href="os__memory__strategies_8h.html" target="_top" xlink:title="Memory allocation library for the OS.">
<polygon fill="white" stroke="black" points="254,-224.5 254,-243.5 391,-243.5 391,-224.5 254,-224.5"/>
<text text-anchor="middle" x="322.5" y="-231.5" font-family="FreeSans" font-size="10.00">os_memory_strategies.h</text>
</a>
</g>
</g>
<!-- Node1&#45;&gt;Node14 -->
<g id="edge16" class="edge">
<title>Node1&#45;&gt;Node14</title>
<path fill="none" stroke="midnightblue" d="M366.75,-280.08C359.03,-272.22 347.6,-260.57 338.28,-251.08"/>
<polygon fill="midnightblue" stroke="midnightblue" points="340.59,-248.44 331.09,-243.75 335.6,-253.34 340.59,-248.44"/>
</g>
<!-- Node15 -->
<g id="node15" class="node">
<title>Node15</title>
<g id="a_node15"><a xlink:href="util_8h.html" target="_top" xlink:title="Little helpers that don&#39;t fit elsewhere.">
<polygon fill="white" stroke="black" points="416,-224.5 416,-243.5 457,-243.5 457,-224.5 416,-224.5"/>
<text text-anchor="middle" x="436.5" y="-231.5" font-family="FreeSans" font-size="10.00">util.h</text>
</a>
</g>
</g>
<!-- Node1&#45;&gt;Node15 -->
<g id="edge18" class="edge">
<title>Node1&#45;&gt;Node15</title>
<path fill="none" stroke="midnightblue" d="M385.3,-280.32C394.32,-272.34 407.91,-260.31 418.82,-250.65"/>
<polygon fill="midnightblue" stroke="midnightblue" points="421.35,-253.08 426.52,-243.83 416.71,-247.84 421.35,-253.08"/>
</g>
<!-- Node17 -->
<g id="node17" class="node">
<title>Node17</title>
<g id="a_node17"><a xlink:href="os__core_8h.html" target="_top" xlink:title="Core of the OS.">
<polygon fill="white" stroke="black" points="497,-224.5 497,-243.5 560,-243.5 560,-224.5 497,-224.5"/>
<text text-anchor="middle" x="528.5" y="-231.5" font-family="FreeSans" font-size="10.00">os_core.h</text>
</a>
</g>
</g>
<!-- Node1&#45;&gt;Node17 -->
<g id="edge22" class="edge">
<title>Node1&#45;&gt;Node17</title>
<path fill="none" stroke="midnightblue" d="M399.74,-280.44C425.37,-271.4 465.99,-257.06 494.74,-246.92"/>
<polygon fill="midnightblue" stroke="midnightblue" points="496.11,-250.15 504.37,-243.52 493.78,-243.54 496.11,-250.15"/>
</g>
<!-- Node3 -->
<g id="node3" class="node">
<title>Node3</title>
<g id="a_node3"><a xlink:href="os__mem__drivers_8h.html" target="_top" xlink:title="Drivers for OS memory management.">
<polygon fill="white" stroke="black" points="0,-112.5 0,-131.5 107,-131.5 107,-112.5 0,-112.5"/>
<text text-anchor="middle" x="53.5" y="-119.5" font-family="FreeSans" font-size="10.00">os_mem_drivers.h</text>
</a>
</g>
</g>
<!-- Node2&#45;&gt;Node3 -->
<g id="edge2" class="edge">
<title>Node2&#45;&gt;Node3</title>
<path fill="none" stroke="midnightblue" d="M150.82,-224.41C130.66,-217.33 104.49,-205.57 86.5,-188 73.23,-175.03 64.33,-155.6 59.16,-141.36"/>
<polygon fill="midnightblue" stroke="midnightblue" points="62.41,-140.04 55.91,-131.67 55.77,-142.26 62.41,-140.04"/>
</g>
<!-- Node5 -->
<g id="node5" class="node">
<title>Node5</title>
<g id="a_node5"><a xlink:href="os__memheap__drivers_8h.html" target="_top" xlink:title="Drivers for OS heap management.">
<polygon fill="white" stroke="black" points="96,-168.5 96,-187.5 227,-187.5 227,-168.5 96,-168.5"/>
<text text-anchor="middle" x="161.5" y="-175.5" font-family="FreeSans" font-size="10.00">os_memheap_drivers.h</text>
</a>
</g>
</g>
<!-- Node2&#45;&gt;Node5 -->
<g id="edge4" class="edge">
<title>Node2&#45;&gt;Node5</title>
<path fill="none" stroke="midnightblue" d="M177.36,-224.08C174.82,-216.85 171.14,-206.41 167.97,-197.4"/>
<polygon fill="midnightblue" stroke="midnightblue" points="171.2,-196.02 164.58,-187.75 164.6,-198.35 171.2,-196.02"/>
</g>
<!-- Node10 -->
<g id="node10" class="node">
<title>Node10</title>
<g id="a_node10"><a xlink:href="os__scheduler_8h.html" target="_top" xlink:title="Scheduling module for the OS.">
<polygon fill="white" stroke="black" points="245,-168.5 245,-187.5 334,-187.5 334,-168.5 245,-168.5"/>
<text text-anchor="middle" x="289.5" y="-175.5" font-family="FreeSans" font-size="10.00">os_scheduler.h</text>
</a>
</g>
</g>
<!-- Node2&#45;&gt;Node10 -->
<g id="edge10" class="edge">
<title>Node2&#45;&gt;Node10</title>
<path fill="none" stroke="midnightblue" d="M198.01,-224.32C215.57,-215.62 242.83,-202.12 263.03,-192.11"/>
<polygon fill="midnightblue" stroke="midnightblue" points="264.62,-195.23 272.03,-187.65 261.52,-188.96 264.62,-195.23"/>
</g>
<!-- Node4 -->
<g id="node4" class="node">
<title>Node4</title>
<g id="a_node4"><a xlink:title=" ">
<polygon fill="white" stroke="#bfbfbf" points="21,-56.5 21,-75.5 86,-75.5 86,-56.5 21,-56.5"/>
<text text-anchor="middle" x="53.5" y="-63.5" font-family="FreeSans" font-size="10.00">inttypes.h</text>
</a>
</g>
</g>
<!-- Node3&#45;&gt;Node4 -->
<g id="edge3" class="edge">
<title>Node3&#45;&gt;Node4</title>
<path fill="none" stroke="midnightblue" d="M53.5,-112.08C53.5,-105.01 53.5,-94.86 53.5,-85.99"/>
<polygon fill="midnightblue" stroke="midnightblue" points="57,-85.75 53.5,-75.75 50,-85.75 57,-85.75"/>
</g>
<!-- Node5&#45;&gt;Node3 -->
<g id="edge5" class="edge">
<title>Node5&#45;&gt;Node3</title>
<path fill="none" stroke="midnightblue" d="M144.15,-168.32C126.83,-159.66 99.98,-146.24 80,-136.25"/>
<polygon fill="midnightblue" stroke="midnightblue" points="81.32,-133 70.81,-131.65 78.19,-139.26 81.32,-133"/>
</g>
<!-- Node6 -->
<g id="node6" class="node">
<title>Node6</title>
<g id="a_node6"><a xlink:href="defines_8h.html" target="_top" xlink:title="Simple definitions and assembler&#45;macros, mostly 8/16&#45;Bit values.">
<polygon fill="white" stroke="black" points="200,-112.5 200,-131.5 261,-131.5 261,-112.5 200,-112.5"/>
<text text-anchor="middle" x="230.5" y="-119.5" font-family="FreeSans" font-size="10.00">defines.h</text>
</a>
</g>
</g>
<!-- Node5&#45;&gt;Node6 -->
<g id="edge6" class="edge">
<title>Node5&#45;&gt;Node6</title>
<path fill="none" stroke="midnightblue" d="M172.59,-168.32C182.99,-160.18 198.76,-147.84 211.22,-138.09"/>
<polygon fill="midnightblue" stroke="midnightblue" points="213.49,-140.75 219.21,-131.83 209.18,-135.24 213.49,-140.75"/>
</g>
<!-- Node9 -->
<g id="node9" class="node">
<title>Node9</title>
<g id="a_node9"><a xlink:title=" ">
<polygon fill="white" stroke="#bfbfbf" points="125.5,-112.5 125.5,-131.5 181.5,-131.5 181.5,-112.5 125.5,-112.5"/>
<text text-anchor="middle" x="153.5" y="-119.5" font-family="FreeSans" font-size="10.00">stddef.h</text>
</a>
</g>
</g>
<!-- Node5&#45;&gt;Node9 -->
<g id="edge9" class="edge">
<title>Node5&#45;&gt;Node9</title>
<path fill="none" stroke="midnightblue" d="M160.18,-168.08C159.12,-160.93 157.59,-150.64 156.27,-141.69"/>
<polygon fill="midnightblue" stroke="midnightblue" points="159.72,-141.13 154.8,-131.75 152.8,-142.16 159.72,-141.13"/>
</g>
<!-- Node7 -->
<g id="node7" class="node">
<title>Node7</title>
<g id="a_node7"><a xlink:href="atmega644constants_8h.html" target="_top" xlink:title="Constants for ATMega644 and EVA board. Defines several useful constants for the ATMega644.">
<polygon fill="white" stroke="black" points="166.5,-56.5 166.5,-75.5 294.5,-75.5 294.5,-56.5 166.5,-56.5"/>
<text text-anchor="middle" x="230.5" y="-63.5" font-family="FreeSans" font-size="10.00">atmega644constants.h</text>
</a>
</g>
</g>
<!-- Node6&#45;&gt;Node7 -->
<g id="edge7" class="edge">
<title>Node6&#45;&gt;Node7</title>
<path fill="none" stroke="midnightblue" d="M230.5,-112.08C230.5,-105.01 230.5,-94.86 230.5,-85.99"/>
<polygon fill="midnightblue" stroke="midnightblue" points="234,-85.75 230.5,-75.75 227,-85.75 234,-85.75"/>
</g>
<!-- Node8 -->
<g id="node8" class="node">
<title>Node8</title>
<g id="a_node8"><a xlink:title=" ">
<polygon fill="white" stroke="#bfbfbf" points="204,-0.5 204,-19.5 257,-19.5 257,-0.5 204,-0.5"/>
<text text-anchor="middle" x="230.5" y="-7.5" font-family="FreeSans" font-size="10.00">avr/io.h</text>
</a>
</g>
</g>
<!-- Node7&#45;&gt;Node8 -->
<g id="edge8" class="edge">
<title>Node7&#45;&gt;Node8</title>
<path fill="none" stroke="midnightblue" d="M230.5,-56.08C230.5,-49.01 230.5,-38.86 230.5,-29.99"/>
<polygon fill="midnightblue" stroke="midnightblue" points="234,-29.75 230.5,-19.75 227,-29.75 234,-29.75"/>
</g>
<!-- Node10&#45;&gt;Node6 -->
<g id="edge12" class="edge">
<title>Node10&#45;&gt;Node6</title>
<path fill="none" stroke="midnightblue" d="M280.02,-168.32C271.3,-160.34 258.16,-148.31 247.6,-138.65"/>
<polygon fill="midnightblue" stroke="midnightblue" points="249.89,-136 240.15,-131.83 245.17,-141.17 249.89,-136"/>
</g>
<!-- Node11 -->
<g id="node11" class="node">
<title>Node11</title>
<g id="a_node11"><a xlink:title=" ">
<polygon fill="white" stroke="#bfbfbf" points="326.5,-56.5 326.5,-75.5 388.5,-75.5 388.5,-56.5 326.5,-56.5"/>
<text text-anchor="middle" x="357.5" y="-63.5" font-family="FreeSans" font-size="10.00">stdbool.h</text>
</a>
</g>
</g>
<!-- Node10&#45;&gt;Node11 -->
<g id="edge11" class="edge">
<title>Node10&#45;&gt;Node11</title>
<path fill="none" stroke="midnightblue" d="M290.51,-168.4C292.37,-155.36 297.2,-130.17 308.5,-112 315.76,-100.32 326.87,-89.76 336.68,-81.82"/>
<polygon fill="midnightblue" stroke="midnightblue" points="339.04,-84.42 344.83,-75.54 334.77,-78.87 339.04,-84.42"/>
</g>
<!-- Node12 -->
<g id="node12" class="node">
<title>Node12</title>
<g id="a_node12"><a xlink:href="os__process_8h.html" target="_top" xlink:title="Struct specifying a process.">
<polygon fill="white" stroke="black" points="317.5,-112.5 317.5,-131.5 397.5,-131.5 397.5,-112.5 317.5,-112.5"/>
<text text-anchor="middle" x="357.5" y="-119.5" font-family="FreeSans" font-size="10.00">os_process.h</text>
</a>
</g>
</g>
<!-- Node10&#45;&gt;Node12 -->
<g id="edge13" class="edge">
<title>Node10&#45;&gt;Node12</title>
<path fill="none" stroke="midnightblue" d="M300.43,-168.32C310.67,-160.18 326.22,-147.84 338.5,-138.09"/>
<polygon fill="midnightblue" stroke="midnightblue" points="340.72,-140.79 346.38,-131.83 336.37,-135.31 340.72,-140.79"/>
</g>
<!-- Node12&#45;&gt;Node11 -->
<g id="edge15" class="edge">
<title>Node12&#45;&gt;Node11</title>
<path fill="none" stroke="midnightblue" d="M357.5,-112.08C357.5,-105.01 357.5,-94.86 357.5,-85.99"/>
<polygon fill="midnightblue" stroke="midnightblue" points="361,-85.75 357.5,-75.75 354,-85.75 361,-85.75"/>
</g>
<!-- Node13 -->
<g id="node13" class="node">
<title>Node13</title>
<g id="a_node13"><a xlink:title=" ">
<polygon fill="white" stroke="#bfbfbf" points="422,-56.5 422,-75.5 475,-75.5 475,-56.5 422,-56.5"/>
<text text-anchor="middle" x="448.5" y="-63.5" font-family="FreeSans" font-size="10.00">stdint.h</text>
</a>
</g>
</g>
<!-- Node12&#45;&gt;Node13 -->
<g id="edge14" class="edge">
<title>Node12&#45;&gt;Node13</title>
<path fill="none" stroke="midnightblue" d="M372.12,-112.32C386.45,-103.82 408.51,-90.73 425.25,-80.8"/>
<polygon fill="midnightblue" stroke="midnightblue" points="427.1,-83.77 433.92,-75.65 423.53,-77.75 427.1,-83.77"/>
</g>
<!-- Node14&#45;&gt;Node5 -->
<g id="edge17" class="edge">
<title>Node14&#45;&gt;Node5</title>
<path fill="none" stroke="midnightblue" d="M296.99,-224.44C269.9,-215.36 226.91,-200.94 196.63,-190.78"/>
<polygon fill="midnightblue" stroke="midnightblue" points="197.49,-187.38 186.89,-187.52 195.26,-194.01 197.49,-187.38"/>
</g>
<!-- Node15&#45;&gt;Node11 -->
<g id="edge20" class="edge">
<title>Node15&#45;&gt;Node11</title>
<path fill="none" stroke="midnightblue" d="M436.06,-224.45C434.65,-203.73 428.92,-149.79 406.5,-112 399.57,-100.32 388.67,-89.88 378.91,-82"/>
<polygon fill="midnightblue" stroke="midnightblue" points="380.83,-79.06 370.75,-75.77 376.58,-84.62 380.83,-79.06"/>
</g>
<!-- Node15&#45;&gt;Node13 -->
<g id="edge19" class="edge">
<title>Node15&#45;&gt;Node13</title>
<path fill="none" stroke="midnightblue" d="M437.15,-224.08C439.03,-197.95 444.58,-121.21 447.16,-85.58"/>
<polygon fill="midnightblue" stroke="midnightblue" points="450.65,-85.79 447.88,-75.57 443.67,-85.29 450.65,-85.79"/>
</g>
<!-- Node16 -->
<g id="node16" class="node">
<title>Node16</title>
<g id="a_node16"><a xlink:title=" ">
<polygon fill="white" stroke="#bfbfbf" points="492,-168.5 492,-187.5 587,-187.5 587,-168.5 492,-168.5"/>
<text text-anchor="middle" x="539.5" y="-175.5" font-family="FreeSans" font-size="10.00">avr/pgmspace.h</text>
</a>
</g>
</g>
<!-- Node15&#45;&gt;Node16 -->
<g id="edge21" class="edge">
<title>Node15&#45;&gt;Node16</title>
<path fill="none" stroke="midnightblue" d="M453.05,-224.32C469.49,-215.7 494.93,-202.36 513.97,-192.39"/>
<polygon fill="midnightblue" stroke="midnightblue" points="515.76,-195.4 522.99,-187.65 512.51,-189.2 515.76,-195.4"/>
</g>
<!-- Node17&#45;&gt;Node16 -->
<g id="edge23" class="edge">
<title>Node17&#45;&gt;Node16</title>
<path fill="none" stroke="midnightblue" d="M530.32,-224.08C531.77,-216.93 533.87,-206.64 535.69,-197.69"/>
<polygon fill="midnightblue" stroke="midnightblue" points="539.15,-198.25 537.72,-187.75 532.29,-196.85 539.15,-198.25"/>
</g>
</g>
</svg>
