<?xml version="1.0" encoding="UTF-8" standalone="no"?>
<!DOCTYPE svg PUBLIC "-//W3C//DTD SVG 1.1//EN"
 "http://www.w3.org/Graphics/SVG/1.1/DTD/svg11.dtd">
<!-- Generated by graphviz version 2.43.0 (0)
 -->
<!-- Title: os_realloc Pages: 1 -->
<svg width="698pt" height="303pt"
 viewBox="0.00 0.00 698.00 303.00" xmlns="http://www.w3.org/2000/svg" xmlns:xlink="http://www.w3.org/1999/xlink">
<g id="graph0" class="graph" transform="scale(1 1) rotate(0) translate(4 299)">
<title>os_realloc</title>
<polygon fill="white" stroke="transparent" points="-4,4 -4,-299 694,-299 694,4 -4,4"/>
<!-- Node1 -->
<g id="node1" class="node">
<title>Node1</title>
<g id="a_node1"><a xlink:title="Function to efficiently reallocate memory.">
<polygon fill="#bfbfbf" stroke="black" points="0,-133.5 0,-152.5 66,-152.5 66,-133.5 0,-133.5"/>
<text text-anchor="middle" x="33" y="-140.5" font-family="FreeSans" font-size="10.00">os_realloc</text>
</a>
</g>
</g>
<!-- Node2 -->
<g id="node2" class="node">
<title>Node2</title>
<g id="a_node2"><a xlink:href="os__memory_8c.html#a1c8691648bd2d5114b97de7cc2550bc2" target="_top" xlink:title=" ">
<polygon fill="white" stroke="black" points="130,-228.5 130,-247.5 205,-247.5 205,-228.5 130,-228.5"/>
<text text-anchor="middle" x="167.5" y="-235.5" font-family="FreeSans" font-size="10.00">moveChunk</text>
</a>
</g>
</g>
<!-- Node1&#45;&gt;Node2 -->
<g id="edge1" class="edge">
<title>Node1&#45;&gt;Node2</title>
<path fill="none" stroke="midnightblue" d="M40.88,-152.6C52.11,-167.62 75.76,-196.75 102,-214 108.25,-218.11 115.29,-221.64 122.37,-224.63"/>
<polygon fill="midnightblue" stroke="midnightblue" points="121.39,-228.01 131.98,-228.39 123.94,-221.49 121.39,-228.01"/>
</g>
<!-- Node3 -->
<g id="node3" class="node">
<title>Node3</title>
<g id="a_node3"><a xlink:href="os__memory_8c.html#a29ccc3e0a668c0be4b285bc74ef6d920" target="_top" xlink:title="Function used to get the value of a single map entry, this is made public so the allocation strategie...">
<polygon fill="white" stroke="black" points="456,-180.5 456,-199.5 551,-199.5 551,-180.5 456,-180.5"/>
<text text-anchor="middle" x="503.5" y="-187.5" font-family="FreeSans" font-size="10.00">os_getMapEntry</text>
</a>
</g>
</g>
<!-- Node1&#45;&gt;Node3 -->
<g id="edge14" class="edge">
<title>Node1&#45;&gt;Node3</title>
<path fill="none" stroke="midnightblue" d="M46.72,-152.59C59.8,-161.83 81.14,-175.23 102,-181 220.68,-213.82 366.77,-205.55 445.59,-197.32"/>
<polygon fill="midnightblue" stroke="midnightblue" points="446.22,-200.78 455.79,-196.22 445.47,-193.82 446.22,-200.78"/>
</g>
<!-- Node6 -->
<g id="node6" class="node">
<title>Node6</title>
<g id="a_node6"><a xlink:href="os__memory_8c.html#aa0082364f445ac8cfacf8d0e873bcfb5" target="_top" xlink:title="This function is used to set a heap map entry on a specific heap.">
<polygon fill="white" stroke="black" points="297,-266.5 297,-285.5 375,-285.5 375,-266.5 297,-266.5"/>
<text text-anchor="middle" x="336" y="-273.5" font-family="FreeSans" font-size="10.00">setMapEntry</text>
</a>
</g>
</g>
<!-- Node1&#45;&gt;Node6 -->
<g id="edge20" class="edge">
<title>Node1&#45;&gt;Node6</title>
<path fill="none" stroke="midnightblue" d="M36.53,-152.79C42.99,-175.64 62.49,-232.38 102,-257 157.91,-291.83 236.59,-290.13 286.69,-284.22"/>
<polygon fill="midnightblue" stroke="midnightblue" points="287.15,-287.69 296.62,-282.95 286.26,-280.75 287.15,-287.69"/>
</g>
<!-- Node9 -->
<g id="node9" class="node">
<title>Node9</title>
<g id="a_node9"><a xlink:href="os__scheduler_8c.html#a9d27b2dbf45ce6648916ed5ceb0a38df" target="_top" xlink:title="enters a critical code section">
<polygon fill="white" stroke="black" points="439,-38.5 439,-57.5 568,-57.5 568,-38.5 439,-38.5"/>
<text text-anchor="middle" x="503.5" y="-45.5" font-family="FreeSans" font-size="10.00">os_enterCriticalSection</text>
</a>
</g>
</g>
<!-- Node1&#45;&gt;Node9 -->
<g id="edge8" class="edge">
<title>Node1&#45;&gt;Node9</title>
<path fill="none" stroke="midnightblue" d="M66.09,-134.61C77.41,-131.75 90.24,-128.61 102,-126 134.83,-118.7 339.39,-79.3 442.79,-59.45"/>
<polygon fill="midnightblue" stroke="midnightblue" points="443.62,-62.85 452.78,-57.53 442.3,-55.98 443.62,-62.85"/>
</g>
<!-- Node10 -->
<g id="node10" class="node">
<title>Node10</title>
<g id="a_node10"><a xlink:href="os__memory_8c.html#af4b11f1dd58f3cec9668a6be98101be4" target="_top" xlink:title="Get the size of a chunk on a given address.">
<polygon fill="white" stroke="black" points="117.5,-152.5 117.5,-171.5 217.5,-171.5 217.5,-152.5 117.5,-152.5"/>
<text text-anchor="middle" x="167.5" y="-159.5" font-family="FreeSans" font-size="10.00">os_getChunkSize</text>
</a>
</g>
</g>
<!-- Node1&#45;&gt;Node10 -->
<g id="edge9" class="edge">
<title>Node1&#45;&gt;Node10</title>
<path fill="none" stroke="midnightblue" d="M66.07,-147.6C78.46,-149.38 93.05,-151.47 107.2,-153.5"/>
<polygon fill="midnightblue" stroke="midnightblue" points="107,-157 117.39,-154.96 107.99,-150.07 107,-157"/>
</g>
<!-- Node11 -->
<g id="node11" class="node">
<title>Node11</title>
<g id="a_node11"><a xlink:href="os__memory_8c.html#a292385f9ee19516237f51ab76c76405e" target="_top" xlink:title="Get the address of the first byte of chunk.">
<polygon fill="white" stroke="black" points="269,-114.5 269,-133.5 403,-133.5 403,-114.5 269,-114.5"/>
<text text-anchor="middle" x="336" y="-121.5" font-family="FreeSans" font-size="10.00">os_getFirstByteOfChunk</text>
</a>
</g>
</g>
<!-- Node1&#45;&gt;Node11 -->
<g id="edge13" class="edge">
<title>Node1&#45;&gt;Node11</title>
<path fill="none" stroke="midnightblue" d="M66.21,-140.97C111.82,-138.09 196.6,-132.74 258.78,-128.81"/>
<polygon fill="midnightblue" stroke="midnightblue" points="259.19,-132.29 268.95,-128.17 258.75,-125.31 259.19,-132.29"/>
</g>
<!-- Node12 -->
<g id="node12" class="node">
<title>Node12</title>
<g id="a_node12"><a xlink:href="os__scheduler_8c.html#a21546fdd22e5e6818e50856a119d98e0" target="_top" xlink:title="leaves a critical code section">
<polygon fill="white" stroke="black" points="102,-38.5 102,-57.5 233,-57.5 233,-38.5 102,-38.5"/>
<text text-anchor="middle" x="167.5" y="-45.5" font-family="FreeSans" font-size="10.00">os_leaveCriticalSection</text>
</a>
</g>
</g>
<!-- Node1&#45;&gt;Node12 -->
<g id="edge15" class="edge">
<title>Node1&#45;&gt;Node12</title>
<path fill="none" stroke="midnightblue" d="M40.88,-133.4C52.11,-118.38 75.76,-89.25 102,-72 108.25,-67.89 115.29,-64.36 122.37,-61.37"/>
<polygon fill="midnightblue" stroke="midnightblue" points="123.94,-64.51 131.98,-57.61 121.39,-57.99 123.94,-64.51"/>
</g>
<!-- Node13 -->
<g id="node13" class="node">
<title>Node13</title>
<g id="a_node13"><a xlink:href="os__memory_8c.html#a5644c571680a5c019c91c30bee4d5d7e" target="_top" xlink:title="Function used to allocate private memory.">
<polygon fill="white" stroke="black" points="134.5,-0.5 134.5,-19.5 200.5,-19.5 200.5,-0.5 134.5,-0.5"/>
<text text-anchor="middle" x="167.5" y="-7.5" font-family="FreeSans" font-size="10.00">os_malloc</text>
</a>
</g>
</g>
<!-- Node1&#45;&gt;Node13 -->
<g id="edge16" class="edge">
<title>Node1&#45;&gt;Node13</title>
<path fill="none" stroke="midnightblue" d="M37,-133.41C44.35,-111.48 65.4,-57.39 102,-29 108.62,-23.86 116.61,-20.11 124.66,-17.38"/>
<polygon fill="midnightblue" stroke="midnightblue" points="125.83,-20.68 134.44,-14.51 123.86,-13.96 125.83,-20.68"/>
</g>
<!-- Node2&#45;&gt;Node3 -->
<g id="edge2" class="edge">
<title>Node2&#45;&gt;Node3</title>
<path fill="none" stroke="midnightblue" d="M205.26,-235.78C251.61,-232.62 333.62,-225.86 403,-214 421.16,-210.9 440.92,-206.37 458.02,-202.08"/>
<polygon fill="midnightblue" stroke="midnightblue" points="458.92,-205.47 467.74,-199.6 457.19,-198.68 458.92,-205.47"/>
</g>
<!-- Node2&#45;&gt;Node6 -->
<g id="edge5" class="edge">
<title>Node2&#45;&gt;Node6</title>
<path fill="none" stroke="midnightblue" d="M205.04,-246.34C229.04,-251.82 260.7,-259.04 286.76,-264.99"/>
<polygon fill="midnightblue" stroke="midnightblue" points="286.28,-268.47 296.81,-267.28 287.84,-261.65 286.28,-268.47"/>
</g>
<!-- Node4 -->
<g id="node4" class="node">
<title>Node4</title>
<g id="a_node4"><a xlink:href="os__memory_8c.html#ae420976ba4abbd069aff795935b9636c" target="_top" xlink:title="Reads the value of the higher nibble of the given address.">
<polygon fill="white" stroke="black" points="604,-199.5 604,-218.5 690,-218.5 690,-199.5 604,-199.5"/>
<text text-anchor="middle" x="647" y="-206.5" font-family="FreeSans" font-size="10.00">getHighNibble</text>
</a>
</g>
</g>
<!-- Node3&#45;&gt;Node4 -->
<g id="edge3" class="edge">
<title>Node3&#45;&gt;Node4</title>
<path fill="none" stroke="midnightblue" d="M551.22,-196.27C564.83,-198.1 579.78,-200.11 593.7,-201.98"/>
<polygon fill="midnightblue" stroke="midnightblue" points="593.24,-205.45 603.62,-203.31 594.18,-198.51 593.24,-205.45"/>
</g>
<!-- Node5 -->
<g id="node5" class="node">
<title>Node5</title>
<g id="a_node5"><a xlink:href="os__memory_8c.html#a01bd9b56dbbeb0af404043ceca5c8818" target="_top" xlink:title="Reads the value of the lower nibble of the given address.">
<polygon fill="white" stroke="black" points="605.5,-161.5 605.5,-180.5 688.5,-180.5 688.5,-161.5 605.5,-161.5"/>
<text text-anchor="middle" x="647" y="-168.5" font-family="FreeSans" font-size="10.00">getLowNibble</text>
</a>
</g>
</g>
<!-- Node3&#45;&gt;Node5 -->
<g id="edge4" class="edge">
<title>Node3&#45;&gt;Node5</title>
<path fill="none" stroke="midnightblue" d="M551.22,-183.73C565.35,-181.83 580.92,-179.74 595.29,-177.81"/>
<polygon fill="midnightblue" stroke="midnightblue" points="596.05,-181.24 605.5,-176.44 595.12,-174.3 596.05,-181.24"/>
</g>
<!-- Node7 -->
<g id="node7" class="node">
<title>Node7</title>
<g id="a_node7"><a xlink:href="os__memory_8c.html#a211f98b56ba22e7ec073c1b09b35d0ff" target="_top" xlink:title="Writes a value from 0x0 to 0xF to the higher nibble of the given address.">
<polygon fill="white" stroke="black" points="460.5,-275.5 460.5,-294.5 546.5,-294.5 546.5,-275.5 460.5,-275.5"/>
<text text-anchor="middle" x="503.5" y="-282.5" font-family="FreeSans" font-size="10.00">setHighNibble</text>
</a>
</g>
</g>
<!-- Node6&#45;&gt;Node7 -->
<g id="edge6" class="edge">
<title>Node6&#45;&gt;Node7</title>
<path fill="none" stroke="midnightblue" d="M375.39,-278.09C397.61,-279.3 425.9,-280.83 450.14,-282.15"/>
<polygon fill="midnightblue" stroke="midnightblue" points="450.08,-285.65 460.26,-282.7 450.46,-278.66 450.08,-285.65"/>
</g>
<!-- Node8 -->
<g id="node8" class="node">
<title>Node8</title>
<g id="a_node8"><a xlink:href="os__memory_8c.html#a79edcf2881c1b78d097495d05e7cec4f" target="_top" xlink:title="Writes a value from 0x0 to 0xF to the lower nibble of the given address.">
<polygon fill="white" stroke="black" points="462,-237.5 462,-256.5 545,-256.5 545,-237.5 462,-237.5"/>
<text text-anchor="middle" x="503.5" y="-244.5" font-family="FreeSans" font-size="10.00">setLowNibble</text>
</a>
</g>
</g>
<!-- Node6&#45;&gt;Node8 -->
<g id="edge7" class="edge">
<title>Node6&#45;&gt;Node8</title>
<path fill="none" stroke="midnightblue" d="M375.39,-269.27C398.13,-265.29 427.22,-260.19 451.83,-255.88"/>
<polygon fill="midnightblue" stroke="midnightblue" points="452.48,-259.32 461.72,-254.15 451.27,-252.42 452.48,-259.32"/>
</g>
<!-- Node10&#45;&gt;Node3 -->
<g id="edge12" class="edge">
<title>Node10&#45;&gt;Node3</title>
<path fill="none" stroke="midnightblue" d="M217.78,-166.13C278.55,-171.23 381.61,-179.87 445.66,-185.23"/>
<polygon fill="midnightblue" stroke="midnightblue" points="445.72,-188.75 455.98,-186.1 446.31,-181.78 445.72,-188.75"/>
</g>
<!-- Node10&#45;&gt;Node11 -->
<g id="edge10" class="edge">
<title>Node10&#45;&gt;Node11</title>
<path fill="none" stroke="midnightblue" d="M210.51,-152.41C232.68,-147.35 260.07,-141.1 283.51,-135.75"/>
<polygon fill="midnightblue" stroke="midnightblue" points="284.32,-139.16 293.29,-133.52 282.76,-132.33 284.32,-139.16"/>
</g>
<!-- Node11&#45;&gt;Node3 -->
<g id="edge11" class="edge">
<title>Node11&#45;&gt;Node3</title>
<path fill="none" stroke="midnightblue" d="M364.09,-133.5C376.07,-137.79 390.29,-143.01 403,-148 425.99,-157.03 451.67,-167.89 471.18,-176.3"/>
<polygon fill="midnightblue" stroke="midnightblue" points="469.93,-179.57 480.5,-180.34 472.72,-173.15 469.93,-179.57"/>
</g>
<!-- Node14 -->
<g id="node14" class="node">
<title>Node14</title>
<g id="a_node14"><a xlink:href="os__scheduler_8c.html#a917313bbbb324677f26dfdf2ad80de3d" target="_top" xlink:title="returns the currently active process">
<polygon fill="white" stroke="black" points="283,-38.5 283,-57.5 389,-57.5 389,-38.5 283,-38.5"/>
<text text-anchor="middle" x="336" y="-45.5" font-family="FreeSans" font-size="10.00">os_getCurrentProc</text>
</a>
</g>
</g>
<!-- Node13&#45;&gt;Node14 -->
<g id="edge17" class="edge">
<title>Node13&#45;&gt;Node14</title>
<path fill="none" stroke="midnightblue" d="M200.6,-17.33C223.98,-22.66 256.15,-30 283.15,-36.17"/>
<polygon fill="midnightblue" stroke="midnightblue" points="282.69,-39.65 293.21,-38.46 284.24,-32.83 282.69,-39.65"/>
</g>
<!-- Node15 -->
<g id="node15" class="node">
<title>Node15</title>
<g id="a_node15"><a xlink:href="os__memory_8c.html#a5898dee5872eb916998a582be5531506" target="_top" xlink:title=" ">
<polygon fill="white" stroke="black" points="287,-0.5 287,-19.5 385,-19.5 385,-0.5 287,-0.5"/>
<text text-anchor="middle" x="336" y="-7.5" font-family="FreeSans" font-size="10.00">os_mallocOwner</text>
</a>
</g>
</g>
<!-- Node13&#45;&gt;Node15 -->
<g id="edge18" class="edge">
<title>Node13&#45;&gt;Node15</title>
<path fill="none" stroke="midnightblue" d="M200.6,-10C222.11,-10 251.06,-10 276.59,-10"/>
<polygon fill="midnightblue" stroke="midnightblue" points="276.91,-13.5 286.91,-10 276.91,-6.5 276.91,-13.5"/>
</g>
<!-- Node15&#45;&gt;Node9 -->
<g id="edge19" class="edge">
<title>Node15&#45;&gt;Node9</title>
<path fill="none" stroke="midnightblue" d="M378.76,-19.59C400.7,-24.63 427.78,-30.84 451.01,-36.18"/>
<polygon fill="midnightblue" stroke="midnightblue" points="450.51,-39.65 461.04,-38.48 452.07,-32.83 450.51,-39.65"/>
</g>
</g>
</svg>
