<?xml version="1.0" encoding="UTF-8" standalone="no"?>
<!DOCTYPE svg PUBLIC "-//W3C//DTD SVG 1.1//EN"
 "http://www.w3.org/Graphics/SVG/1.1/DTD/svg11.dtd">
<!-- Generated by graphviz version 2.43.0 (0)
 -->
<!-- Title: os_scheduler.h Pages: 1 -->
<svg width="712pt" height="196pt"
 viewBox="0.00 0.00 712.36 196.00" xmlns="http://www.w3.org/2000/svg" xmlns:xlink="http://www.w3.org/1999/xlink">
<g id="graph0" class="graph" transform="scale(1 1) rotate(0) translate(4 192)">
<title>os_scheduler.h</title>
<polygon fill="white" stroke="transparent" points="-4,4 -4,-192 708.36,-192 708.36,4 -4,4"/>
<!-- Node1 -->
<g id="node1" class="node">
<title>Node1</title>
<g id="a_node1"><a xlink:title="Scheduling module for the OS.">
<polygon fill="#bfbfbf" stroke="black" points="353.5,-168.5 353.5,-187.5 442.5,-187.5 442.5,-168.5 353.5,-168.5"/>
<text text-anchor="middle" x="398" y="-175.5" font-family="FreeSans" font-size="10.00">os_scheduler.h</text>
</a>
</g>
</g>
<!-- Node2 -->
<g id="node2" class="node">
<title>Node2</title>
<g id="a_node2"><a xlink:href="os__mem__drivers_8c.html" target="_top" xlink:title=" ">
<polygon fill="white" stroke="black" points="161,-112.5 161,-131.5 267,-131.5 267,-112.5 161,-112.5"/>
<text text-anchor="middle" x="214" y="-119.5" font-family="FreeSans" font-size="10.00">os_mem_drivers.c</text>
</a>
</g>
</g>
<!-- Node1&#45;&gt;Node2 -->
<g id="edge1" class="edge">
<title>Node1&#45;&gt;Node2</title>
<path fill="none" stroke="midnightblue" d="M359.05,-165.57C324.34,-155.38 274.32,-140.7 243.02,-131.52"/>
<polygon fill="midnightblue" stroke="midnightblue" points="358.26,-168.99 368.84,-168.44 360.23,-162.27 358.26,-168.99"/>
</g>
<!-- Node3 -->
<g id="node3" class="node">
<title>Node3</title>
<g id="a_node3"><a xlink:href="os__memory_8h.html" target="_top" xlink:title="Library for OS memory management.">
<polygon fill="white" stroke="black" points="323,-112.5 323,-131.5 405,-131.5 405,-112.5 323,-112.5"/>
<text text-anchor="middle" x="364" y="-119.5" font-family="FreeSans" font-size="10.00">os_memory.h</text>
</a>
</g>
</g>
<!-- Node1&#45;&gt;Node3 -->
<g id="edge2" class="edge">
<title>Node1&#45;&gt;Node3</title>
<path fill="none" stroke="midnightblue" d="M387.02,-159.57C381.17,-150.27 374.23,-139.25 369.51,-131.75"/>
<polygon fill="midnightblue" stroke="midnightblue" points="384.1,-161.49 392.39,-168.08 390.02,-157.76 384.1,-161.49"/>
</g>
<!-- Node6 -->
<g id="node6" class="node">
<title>Node6</title>
<g id="a_node6"><a xlink:href="os__scheduler_8c.html" target="_top" xlink:title=" ">
<polygon fill="white" stroke="black" points="427,-56.5 427,-75.5 515,-75.5 515,-56.5 427,-56.5"/>
<text text-anchor="middle" x="471" y="-63.5" font-family="FreeSans" font-size="10.00">os_scheduler.c</text>
</a>
</g>
</g>
<!-- Node1&#45;&gt;Node6 -->
<g id="edge9" class="edge">
<title>Node1&#45;&gt;Node6</title>
<path fill="none" stroke="midnightblue" d="M409.31,-159.96C425.13,-136.12 453.28,-93.71 465.3,-75.59"/>
<polygon fill="midnightblue" stroke="midnightblue" points="406.34,-158.1 403.73,-168.37 412.17,-161.97 406.34,-158.1"/>
</g>
<!-- Node7 -->
<g id="node7" class="node">
<title>Node7</title>
<g id="a_node7"><a xlink:href="os__user__privileges_8h.html" target="_top" xlink:title="User privileges specification used in part by the Taskman.">
<polygon fill="white" stroke="black" points="0,-56.5 0,-75.5 116,-75.5 116,-56.5 0,-56.5"/>
<text text-anchor="middle" x="58" y="-63.5" font-family="FreeSans" font-size="10.00">os_user_privileges.h</text>
</a>
</g>
</g>
<!-- Node1&#45;&gt;Node7 -->
<g id="edge14" class="edge">
<title>Node1&#45;&gt;Node7</title>
<path fill="none" stroke="midnightblue" d="M372.5,-163.36C337.12,-144.43 277.27,-112.46 276,-112 245.65,-101.04 162.13,-85.23 107.72,-75.56"/>
<polygon fill="midnightblue" stroke="midnightblue" points="371.3,-166.68 381.77,-168.31 374.6,-160.51 371.3,-166.68"/>
</g>
<!-- Node8 -->
<g id="node8" class="node">
<title>Node8</title>
<g id="a_node8"><a xlink:href="os__taskman_8c.html" target="_top" xlink:title=" ">
<polygon fill="white" stroke="black" points="357,-0.5 357,-19.5 441,-19.5 441,-0.5 357,-0.5"/>
<text text-anchor="middle" x="399" y="-7.5" font-family="FreeSans" font-size="10.00">os_taskman.c</text>
</a>
</g>
</g>
<!-- Node1&#45;&gt;Node8 -->
<g id="edge13" class="edge">
<title>Node1&#45;&gt;Node8</title>
<path fill="none" stroke="midnightblue" d="M452.76,-173.41C555.19,-164.73 759.4,-136.96 690,-56 658.43,-19.18 513.79,-12.22 441.04,-11.08"/>
<polygon fill="midnightblue" stroke="midnightblue" points="452.27,-169.94 442.58,-174.24 452.83,-176.92 452.27,-169.94"/>
</g>
<!-- Node9 -->
<g id="node9" class="node">
<title>Node9</title>
<g id="a_node9"><a xlink:href="os__scheduling__strategies_8h.html" target="_top" xlink:title="Scheduling library for the OS.">
<polygon fill="white" stroke="black" points="460.5,-112.5 460.5,-131.5 609.5,-131.5 609.5,-112.5 460.5,-112.5"/>
<text text-anchor="middle" x="535" y="-119.5" font-family="FreeSans" font-size="10.00">os_scheduling_strategies.h</text>
</a>
</g>
</g>
<!-- Node1&#45;&gt;Node9 -->
<g id="edge10" class="edge">
<title>Node1&#45;&gt;Node9</title>
<path fill="none" stroke="midnightblue" d="M429.02,-164.77C454.76,-154.63 490.69,-140.47 513.39,-131.52"/>
<polygon fill="midnightblue" stroke="midnightblue" points="427.73,-161.52 419.71,-168.44 430.29,-168.03 427.73,-161.52"/>
</g>
<!-- Node4 -->
<g id="node4" class="node">
<title>Node4</title>
<g id="a_node4"><a xlink:href="os__memory_8c.html" target="_top" xlink:title=" ">
<polygon fill="white" stroke="black" points="289.5,-56.5 289.5,-75.5 370.5,-75.5 370.5,-56.5 289.5,-56.5"/>
<text text-anchor="middle" x="330" y="-63.5" font-family="FreeSans" font-size="10.00">os_memory.c</text>
</a>
</g>
</g>
<!-- Node3&#45;&gt;Node4 -->
<g id="edge3" class="edge">
<title>Node3&#45;&gt;Node4</title>
<path fill="none" stroke="midnightblue" d="M353.02,-103.57C347.17,-94.27 340.23,-83.25 335.51,-75.75"/>
<polygon fill="midnightblue" stroke="midnightblue" points="350.1,-105.49 358.39,-112.08 356.02,-101.76 350.1,-105.49"/>
</g>
<!-- Node5 -->
<g id="node5" class="node">
<title>Node5</title>
<g id="a_node5"><a xlink:href="os__memory__strategies_8c.html" target="_top" xlink:title=" ">
<polygon fill="white" stroke="black" points="134.5,-56.5 134.5,-75.5 271.5,-75.5 271.5,-56.5 134.5,-56.5"/>
<text text-anchor="middle" x="203" y="-63.5" font-family="FreeSans" font-size="10.00">os_memory_strategies.c</text>
</a>
</g>
</g>
<!-- Node3&#45;&gt;Node5 -->
<g id="edge4" class="edge">
<title>Node3&#45;&gt;Node5</title>
<path fill="none" stroke="midnightblue" d="M328.74,-109.17C298.42,-99 255.43,-84.59 228.39,-75.52"/>
<polygon fill="midnightblue" stroke="midnightblue" points="327.9,-112.58 338.49,-112.44 330.12,-105.95 327.9,-112.58"/>
</g>
<!-- Node3&#45;&gt;Node6 -->
<g id="edge5" class="edge">
<title>Node3&#45;&gt;Node6</title>
<path fill="none" stroke="midnightblue" d="M390.3,-107.73C410.11,-97.73 436.71,-84.31 453.85,-75.65"/>
<polygon fill="midnightblue" stroke="midnightblue" points="388.54,-104.69 381.19,-112.32 391.7,-110.94 388.54,-104.69"/>
</g>
<!-- Node3&#45;&gt;Node7 -->
<g id="edge6" class="edge">
<title>Node3&#45;&gt;Node7</title>
<path fill="none" stroke="midnightblue" d="M312.77,-111.96C255.29,-101.82 162.73,-85.48 106.42,-75.54"/>
<polygon fill="midnightblue" stroke="midnightblue" points="312.28,-115.43 322.73,-113.72 313.49,-108.53 312.28,-115.43"/>
</g>
<!-- Node3&#45;&gt;Node8 -->
<g id="edge8" class="edge">
<title>Node3&#45;&gt;Node8</title>
<path fill="none" stroke="midnightblue" d="M370.18,-102.78C372.93,-94.61 376.17,-84.83 379,-76 385.41,-55.99 392.58,-32.38 396.35,-19.85"/>
<polygon fill="midnightblue" stroke="midnightblue" points="366.82,-101.8 366.94,-112.39 373.45,-104.04 366.82,-101.8"/>
</g>
<!-- Node7&#45;&gt;Node8 -->
<g id="edge7" class="edge">
<title>Node7&#45;&gt;Node8</title>
<path fill="none" stroke="midnightblue" d="M122.3,-54.82C191.03,-43.93 298.02,-26.99 356.79,-17.68"/>
<polygon fill="midnightblue" stroke="midnightblue" points="121.36,-51.42 112.03,-56.44 122.46,-58.34 121.36,-51.42"/>
</g>
<!-- Node9&#45;&gt;Node6 -->
<g id="edge11" class="edge">
<title>Node9&#45;&gt;Node6</title>
<path fill="none" stroke="midnightblue" d="M517.01,-105.82C505.54,-96.15 491.09,-83.95 481.47,-75.83"/>
<polygon fill="midnightblue" stroke="midnightblue" points="514.82,-108.55 524.72,-112.32 519.33,-103.2 514.82,-108.55"/>
</g>
<!-- Node10 -->
<g id="node10" class="node">
<title>Node10</title>
<g id="a_node10"><a xlink:href="os__scheduling__strategies_8c.html" target="_top" xlink:title=" ">
<polygon fill="white" stroke="black" points="533,-56.5 533,-75.5 681,-75.5 681,-56.5 533,-56.5"/>
<text text-anchor="middle" x="607" y="-63.5" font-family="FreeSans" font-size="10.00">os_scheduling_strategies.c</text>
</a>
</g>
</g>
<!-- Node9&#45;&gt;Node10 -->
<g id="edge12" class="edge">
<title>Node9&#45;&gt;Node10</title>
<path fill="none" stroke="midnightblue" d="M554.87,-106.1C567.82,-96.38 584.3,-84.03 595.22,-75.83"/>
<polygon fill="midnightblue" stroke="midnightblue" points="552.47,-103.52 546.57,-112.32 556.67,-109.12 552.47,-103.52"/>
</g>
</g>
</svg>
