<?xml version="1.0" encoding="UTF-8" standalone="no"?>
<!DOCTYPE svg PUBLIC "-//W3C//DTD SVG 1.1//EN"
 "http://www.w3.org/Graphics/SVG/1.1/DTD/svg11.dtd">
<!-- Generated by graphviz version 2.43.0 (0)
 -->
<!-- Title: os_spi.h Pages: 1 -->
<svg width="410pt" height="140pt"
 viewBox="0.00 0.00 410.47 140.00" xmlns="http://www.w3.org/2000/svg" xmlns:xlink="http://www.w3.org/1999/xlink">
<g id="graph0" class="graph" transform="scale(1 1) rotate(0) translate(4 136)">
<title>os_spi.h</title>
<polygon fill="white" stroke="transparent" points="-4,4 -4,-136 406.47,-136 406.47,4 -4,4"/>
<!-- Node1 -->
<g id="node1" class="node">
<title>Node1</title>
<g id="a_node1"><a xlink:title="Driver for AVRs SPI module.">
<polygon fill="#bfbfbf" stroke="black" points="100.97,-112.5 100.97,-131.5 156.97,-131.5 156.97,-112.5 100.97,-112.5"/>
<text text-anchor="middle" x="128.97" y="-119.5" font-family="FreeSans" font-size="10.00">os_spi.h</text>
</a>
</g>
</g>
<!-- Node2 -->
<g id="node2" class="node">
<title>Node2</title>
<g id="a_node2"><a xlink:title=" ">
<polygon fill="white" stroke="#bfbfbf" points="81.47,-0.5 81.47,-19.5 134.47,-19.5 134.47,-0.5 81.47,-0.5"/>
<text text-anchor="middle" x="107.97" y="-7.5" font-family="FreeSans" font-size="10.00">stdint.h</text>
</a>
</g>
</g>
<!-- Node1&#45;&gt;Node2 -->
<g id="edge1" class="edge">
<title>Node1&#45;&gt;Node2</title>
<path fill="none" stroke="midnightblue" d="M100.79,-119.66C71.35,-116.57 26.52,-106.76 4.97,-76 -15.17,-47.27 34.05,-28.48 71.19,-18.81"/>
<polygon fill="midnightblue" stroke="midnightblue" points="72.41,-22.12 81.28,-16.33 70.73,-15.32 72.41,-22.12"/>
</g>
<!-- Node3 -->
<g id="node3" class="node">
<title>Node3</title>
<g id="a_node3"><a xlink:title=" ">
<polygon fill="white" stroke="#bfbfbf" points="14.47,-56.5 14.47,-75.5 67.47,-75.5 67.47,-56.5 14.47,-56.5"/>
<text text-anchor="middle" x="40.97" y="-63.5" font-family="FreeSans" font-size="10.00">avr/io.h</text>
</a>
</g>
</g>
<!-- Node1&#45;&gt;Node3 -->
<g id="edge2" class="edge">
<title>Node1&#45;&gt;Node3</title>
<path fill="none" stroke="midnightblue" d="M114.83,-112.32C101.1,-103.9 80.03,-90.97 63.9,-81.07"/>
<polygon fill="midnightblue" stroke="midnightblue" points="65.42,-77.9 55.07,-75.65 61.76,-83.87 65.42,-77.9"/>
</g>
<!-- Node4 -->
<g id="node4" class="node">
<title>Node4</title>
<g id="a_node4"><a xlink:title=" ">
<polygon fill="white" stroke="#bfbfbf" points="85.97,-56.5 85.97,-75.5 171.97,-75.5 171.97,-56.5 85.97,-56.5"/>
<text text-anchor="middle" x="128.97" y="-63.5" font-family="FreeSans" font-size="10.00">avr/interrupt.h</text>
</a>
</g>
</g>
<!-- Node1&#45;&gt;Node4 -->
<g id="edge3" class="edge">
<title>Node1&#45;&gt;Node4</title>
<path fill="none" stroke="midnightblue" d="M128.97,-112.08C128.97,-105.01 128.97,-94.86 128.97,-85.99"/>
<polygon fill="midnightblue" stroke="midnightblue" points="132.47,-85.75 128.97,-75.75 125.47,-85.75 132.47,-85.75"/>
</g>
<!-- Node5 -->
<g id="node5" class="node">
<title>Node5</title>
<g id="a_node5"><a xlink:title=" ">
<polygon fill="white" stroke="#bfbfbf" points="189.97,-56.5 189.97,-75.5 267.97,-75.5 267.97,-56.5 189.97,-56.5"/>
<text text-anchor="middle" x="228.97" y="-63.5" font-family="FreeSans" font-size="10.00">util/atomic.h</text>
</a>
</g>
</g>
<!-- Node1&#45;&gt;Node5 -->
<g id="edge4" class="edge">
<title>Node1&#45;&gt;Node5</title>
<path fill="none" stroke="midnightblue" d="M145.03,-112.32C160.92,-103.74 185.47,-90.49 203.93,-80.52"/>
<polygon fill="midnightblue" stroke="midnightblue" points="205.8,-83.49 212.94,-75.65 202.48,-77.33 205.8,-83.49"/>
</g>
<!-- Node6 -->
<g id="node6" class="node">
<title>Node6</title>
<g id="a_node6"><a xlink:href="util_8h.html" target="_top" xlink:title="Little helpers that don&#39;t fit elsewhere.">
<polygon fill="white" stroke="black" points="286.47,-56.5 286.47,-75.5 327.47,-75.5 327.47,-56.5 286.47,-56.5"/>
<text text-anchor="middle" x="306.97" y="-63.5" font-family="FreeSans" font-size="10.00">util.h</text>
</a>
</g>
</g>
<!-- Node1&#45;&gt;Node6 -->
<g id="edge5" class="edge">
<title>Node1&#45;&gt;Node6</title>
<path fill="none" stroke="midnightblue" d="M157.17,-112.44C189.78,-102.55 243.23,-86.34 276.69,-76.19"/>
<polygon fill="midnightblue" stroke="midnightblue" points="277.83,-79.5 286.39,-73.24 275.8,-72.8 277.83,-79.5"/>
</g>
<!-- Node6&#45;&gt;Node2 -->
<g id="edge6" class="edge">
<title>Node6&#45;&gt;Node2</title>
<path fill="none" stroke="midnightblue" d="M286.34,-58.72C283.2,-57.79 280,-56.86 276.97,-56 231.56,-43.15 179,-29.31 144.7,-20.43"/>
<polygon fill="midnightblue" stroke="midnightblue" points="145.23,-16.95 134.67,-17.84 143.48,-23.73 145.23,-16.95"/>
</g>
<!-- Node7 -->
<g id="node7" class="node">
<title>Node7</title>
<g id="a_node7"><a xlink:title=" ">
<polygon fill="white" stroke="#bfbfbf" points="226.97,-0.5 226.97,-19.5 288.97,-19.5 288.97,-0.5 226.97,-0.5"/>
<text text-anchor="middle" x="257.97" y="-7.5" font-family="FreeSans" font-size="10.00">stdbool.h</text>
</a>
</g>
</g>
<!-- Node6&#45;&gt;Node7 -->
<g id="edge7" class="edge">
<title>Node6&#45;&gt;Node7</title>
<path fill="none" stroke="midnightblue" d="M298.88,-56.08C291.81,-48.3 281.38,-36.8 272.82,-27.37"/>
<polygon fill="midnightblue" stroke="midnightblue" points="275.22,-24.8 265.91,-19.75 270.04,-29.51 275.22,-24.8"/>
</g>
<!-- Node8 -->
<g id="node8" class="node">
<title>Node8</title>
<g id="a_node8"><a xlink:title=" ">
<polygon fill="white" stroke="#bfbfbf" points="307.47,-0.5 307.47,-19.5 402.47,-19.5 402.47,-0.5 307.47,-0.5"/>
<text text-anchor="middle" x="354.97" y="-7.5" font-family="FreeSans" font-size="10.00">avr/pgmspace.h</text>
</a>
</g>
</g>
<!-- Node6&#45;&gt;Node8 -->
<g id="edge8" class="edge">
<title>Node6&#45;&gt;Node8</title>
<path fill="none" stroke="midnightblue" d="M314.89,-56.08C321.81,-48.3 332.03,-36.8 340.42,-27.37"/>
<polygon fill="midnightblue" stroke="midnightblue" points="343.16,-29.55 347.19,-19.75 337.93,-24.9 343.16,-29.55"/>
</g>
</g>
</svg>
