<?xml version="1.0" encoding="UTF-8" standalone="no"?>
<!DOCTYPE svg PUBLIC "-//W3C//DTD SVG 1.1//EN"
 "http://www.w3.org/Graphics/SVG/1.1/DTD/svg11.dtd">
<!-- Generated by graphviz version 2.43.0 (0)
 -->
<!-- Title: os_sh_write Pages: 1 -->
<svg width="806pt" height="180pt"
 viewBox="0.00 0.00 806.00 180.00" xmlns="http://www.w3.org/2000/svg" xmlns:xlink="http://www.w3.org/1999/xlink">
<g id="graph0" class="graph" transform="scale(1 1) rotate(0) translate(4 176)">
<title>os_sh_write</title>
<polygon fill="white" stroke="transparent" points="-4,4 -4,-176 802,-176 802,4 -4,4"/>
<!-- Node1 -->
<g id="node1" class="node">
<title>Node1</title>
<g id="a_node1"><a xlink:title="Function used to write to shared memory.">
<polygon fill="#bfbfbf" stroke="black" points="0,-95.5 0,-114.5 74,-114.5 74,-95.5 0,-95.5"/>
<text text-anchor="middle" x="37" y="-102.5" font-family="FreeSans" font-size="10.00">os_sh_write</text>
</a>
</g>
</g>
<!-- Node2 -->
<g id="node2" class="node">
<title>Node2</title>
<g id="a_node2"><a xlink:href="os__memory_8c.html#af4b11f1dd58f3cec9668a6be98101be4" target="_top" xlink:title="Get the size of a chunk on a given address.">
<polygon fill="white" stroke="black" points="260.5,-152.5 260.5,-171.5 360.5,-171.5 360.5,-152.5 260.5,-152.5"/>
<text text-anchor="middle" x="310.5" y="-159.5" font-family="FreeSans" font-size="10.00">os_getChunkSize</text>
</a>
</g>
</g>
<!-- Node1&#45;&gt;Node2 -->
<g id="edge1" class="edge">
<title>Node1&#45;&gt;Node2</title>
<path fill="none" stroke="midnightblue" d="M54.89,-114.56C69.12,-122.17 90.28,-132.44 110,-138 156.02,-150.97 209.95,-156.93 250.13,-159.67"/>
<polygon fill="midnightblue" stroke="midnightblue" points="250.1,-163.18 260.3,-160.32 250.54,-156.19 250.1,-163.18"/>
</g>
<!-- Node3 -->
<g id="node3" class="node">
<title>Node3</title>
<g id="a_node3"><a xlink:href="os__memory_8c.html#a292385f9ee19516237f51ab76c76405e" target="_top" xlink:title="Get the address of the first byte of chunk.">
<polygon fill="white" stroke="black" points="411,-95.5 411,-114.5 545,-114.5 545,-95.5 411,-95.5"/>
<text text-anchor="middle" x="478" y="-102.5" font-family="FreeSans" font-size="10.00">os_getFirstByteOfChunk</text>
</a>
</g>
</g>
<!-- Node1&#45;&gt;Node3 -->
<g id="edge7" class="edge">
<title>Node1&#45;&gt;Node3</title>
<path fill="none" stroke="midnightblue" d="M74.41,-106.18C136.21,-108.02 265.61,-111.14 375,-109 383.34,-108.84 392.06,-108.6 400.75,-108.32"/>
<polygon fill="midnightblue" stroke="midnightblue" points="401.02,-111.81 410.89,-107.97 400.78,-104.81 401.02,-111.81"/>
</g>
<!-- Node7 -->
<g id="node7" class="node">
<title>Node7</title>
<g id="a_node7"><a xlink:href="os__memory_8c.html#ab9125c3a1039f2e78695c58e2ea677b4" target="_top" xlink:title="Function that should be private but is used by some Testtasks.">
<polygon fill="white" stroke="black" points="122.5,-76.5 122.5,-95.5 197.5,-95.5 197.5,-76.5 122.5,-76.5"/>
<text text-anchor="middle" x="160" y="-83.5" font-family="FreeSans" font-size="10.00">os_sh_close</text>
</a>
</g>
</g>
<!-- Node1&#45;&gt;Node7 -->
<g id="edge8" class="edge">
<title>Node1&#45;&gt;Node7</title>
<path fill="none" stroke="midnightblue" d="M74.3,-99.3C86.28,-97.42 99.77,-95.3 112.4,-93.32"/>
<polygon fill="midnightblue" stroke="midnightblue" points="112.97,-96.77 122.3,-91.76 111.88,-89.86 112.97,-96.77"/>
</g>
<!-- Node10 -->
<g id="node10" class="node">
<title>Node10</title>
<g id="a_node10"><a xlink:href="os__memory_8c.html#ad57af15912c724e047eee33b134d8d19" target="_top" xlink:title="Function that should be private but is used by some Testtasks.">
<polygon fill="white" stroke="black" points="110,-38.5 110,-57.5 210,-57.5 210,-38.5 110,-38.5"/>
<text text-anchor="middle" x="160" y="-45.5" font-family="FreeSans" font-size="10.00">os_sh_writeOpen</text>
</a>
</g>
</g>
<!-- Node1&#45;&gt;Node10 -->
<g id="edge14" class="edge">
<title>Node1&#45;&gt;Node10</title>
<path fill="none" stroke="midnightblue" d="M54.89,-95.37C69.31,-87.33 90.71,-75.8 110,-67 114.22,-65.07 118.7,-63.16 123.17,-61.34"/>
<polygon fill="midnightblue" stroke="midnightblue" points="124.83,-64.45 132.83,-57.5 122.24,-57.94 124.83,-64.45"/>
</g>
<!-- Node2&#45;&gt;Node3 -->
<g id="edge2" class="edge">
<title>Node2&#45;&gt;Node3</title>
<path fill="none" stroke="midnightblue" d="M339.2,-152.46C366.65,-143.01 408.88,-128.46 439.36,-117.96"/>
<polygon fill="midnightblue" stroke="midnightblue" points="440.89,-121.14 449.21,-114.57 438.61,-114.52 440.89,-121.14"/>
</g>
<!-- Node4 -->
<g id="node4" class="node">
<title>Node4</title>
<g id="a_node4"><a xlink:href="os__memory_8c.html#a29ccc3e0a668c0be4b285bc74ef6d920" target="_top" xlink:title="Function used to get the value of a single map entry, this is made public so the allocation strategie...">
<polygon fill="white" stroke="black" points="581,-95.5 581,-114.5 676,-114.5 676,-95.5 581,-95.5"/>
<text text-anchor="middle" x="628.5" y="-102.5" font-family="FreeSans" font-size="10.00">os_getMapEntry</text>
</a>
</g>
</g>
<!-- Node2&#45;&gt;Node4 -->
<g id="edge6" class="edge">
<title>Node2&#45;&gt;Node4</title>
<path fill="none" stroke="midnightblue" d="M360.86,-154.92C408.24,-147.9 481.73,-136.42 545,-124 555.93,-121.85 567.62,-119.31 578.66,-116.8"/>
<polygon fill="midnightblue" stroke="midnightblue" points="579.63,-120.17 588.58,-114.51 578.05,-113.35 579.63,-120.17"/>
</g>
<!-- Node3&#45;&gt;Node4 -->
<g id="edge3" class="edge">
<title>Node3&#45;&gt;Node4</title>
<path fill="none" stroke="midnightblue" d="M545.43,-105C553.79,-105 562.29,-105 570.49,-105"/>
<polygon fill="midnightblue" stroke="midnightblue" points="570.68,-108.5 580.68,-105 570.68,-101.5 570.68,-108.5"/>
</g>
<!-- Node5 -->
<g id="node5" class="node">
<title>Node5</title>
<g id="a_node5"><a xlink:href="os__memory_8c.html#ae420976ba4abbd069aff795935b9636c" target="_top" xlink:title="Reads the value of the higher nibble of the given address.">
<polygon fill="white" stroke="black" points="712,-114.5 712,-133.5 798,-133.5 798,-114.5 712,-114.5"/>
<text text-anchor="middle" x="755" y="-121.5" font-family="FreeSans" font-size="10.00">getHighNibble</text>
</a>
</g>
</g>
<!-- Node4&#45;&gt;Node5 -->
<g id="edge4" class="edge">
<title>Node4&#45;&gt;Node5</title>
<path fill="none" stroke="midnightblue" d="M676.21,-112.13C684.64,-113.42 693.48,-114.76 702.05,-116.07"/>
<polygon fill="midnightblue" stroke="midnightblue" points="701.53,-119.53 711.95,-117.58 702.59,-112.61 701.53,-119.53"/>
</g>
<!-- Node6 -->
<g id="node6" class="node">
<title>Node6</title>
<g id="a_node6"><a xlink:href="os__memory_8c.html#a01bd9b56dbbeb0af404043ceca5c8818" target="_top" xlink:title="Reads the value of the lower nibble of the given address.">
<polygon fill="white" stroke="black" points="713.5,-76.5 713.5,-95.5 796.5,-95.5 796.5,-76.5 713.5,-76.5"/>
<text text-anchor="middle" x="755" y="-83.5" font-family="FreeSans" font-size="10.00">getLowNibble</text>
</a>
</g>
</g>
<!-- Node4&#45;&gt;Node6 -->
<g id="edge5" class="edge">
<title>Node4&#45;&gt;Node6</title>
<path fill="none" stroke="midnightblue" d="M676.21,-97.87C685.04,-96.52 694.3,-95.11 703.25,-93.75"/>
<polygon fill="midnightblue" stroke="midnightblue" points="703.8,-97.2 713.16,-92.23 702.75,-90.28 703.8,-97.2"/>
</g>
<!-- Node7&#45;&gt;Node3 -->
<g id="edge13" class="edge">
<title>Node7&#45;&gt;Node3</title>
<path fill="none" stroke="midnightblue" d="M197.56,-88.2C246.98,-91.17 336.33,-96.54 400.71,-100.41"/>
<polygon fill="midnightblue" stroke="midnightblue" points="400.63,-103.91 410.82,-101.02 401.05,-96.93 400.63,-103.91"/>
</g>
<!-- Node8 -->
<g id="node8" class="node">
<title>Node8</title>
<g id="a_node8"><a xlink:href="os__memory_8c.html#ab493cf6ec58f933b4751b0d2a2f77c4a" target="_top" xlink:title=" ">
<polygon fill="white" stroke="black" points="257.5,-0.5 257.5,-19.5 363.5,-19.5 363.5,-0.5 257.5,-0.5"/>
<text text-anchor="middle" x="310.5" y="-7.5" font-family="FreeSans" font-size="10.00">getOwnerOfChunk</text>
</a>
</g>
</g>
<!-- Node7&#45;&gt;Node8 -->
<g id="edge9" class="edge">
<title>Node7&#45;&gt;Node8</title>
<path fill="none" stroke="midnightblue" d="M191.84,-76.44C198.11,-73.85 204.47,-70.71 210,-67 229.32,-54.03 226.19,-41.19 246,-29 249.43,-26.89 253.11,-25 256.91,-23.31"/>
<polygon fill="midnightblue" stroke="midnightblue" points="258.49,-26.45 266.51,-19.52 255.92,-19.94 258.49,-26.45"/>
</g>
<!-- Node9 -->
<g id="node9" class="node">
<title>Node9</title>
<g id="a_node9"><a xlink:href="os__scheduler_8c.html#a9d27b2dbf45ce6648916ed5ceb0a38df" target="_top" xlink:title="enters a critical code section">
<polygon fill="white" stroke="black" points="246,-38.5 246,-57.5 375,-57.5 375,-38.5 246,-38.5"/>
<text text-anchor="middle" x="310.5" y="-45.5" font-family="FreeSans" font-size="10.00">os_enterCriticalSection</text>
</a>
</g>
</g>
<!-- Node7&#45;&gt;Node9 -->
<g id="edge12" class="edge">
<title>Node7&#45;&gt;Node9</title>
<path fill="none" stroke="midnightblue" d="M197.71,-76.61C217.19,-71.62 241.36,-65.44 262.24,-60.09"/>
<polygon fill="midnightblue" stroke="midnightblue" points="263.36,-63.42 272.18,-57.55 261.63,-56.64 263.36,-63.42"/>
</g>
<!-- Node8&#45;&gt;Node3 -->
<g id="edge10" class="edge">
<title>Node8&#45;&gt;Node3</title>
<path fill="none" stroke="midnightblue" d="M353.26,-19.55C360.75,-22.08 368.3,-25.19 375,-29 393.88,-39.72 393.85,-48.7 411,-62 424.04,-72.12 439.46,-82.25 452.11,-90.14"/>
<polygon fill="midnightblue" stroke="midnightblue" points="450.41,-93.2 460.76,-95.45 454.07,-87.24 450.41,-93.2"/>
</g>
<!-- Node8&#45;&gt;Node4 -->
<g id="edge11" class="edge">
<title>Node8&#45;&gt;Node4</title>
<path fill="none" stroke="midnightblue" d="M343.48,-19.56C353.57,-22.58 364.75,-25.92 375,-29 449.25,-51.28 535.75,-77.34 585.81,-92.43"/>
<polygon fill="midnightblue" stroke="midnightblue" points="585.03,-95.85 595.62,-95.39 587.05,-89.15 585.03,-95.85"/>
</g>
<!-- Node10&#45;&gt;Node8 -->
<g id="edge15" class="edge">
<title>Node10&#45;&gt;Node8</title>
<path fill="none" stroke="midnightblue" d="M198.47,-38.41C217.89,-33.44 241.8,-27.32 262.45,-22.04"/>
<polygon fill="midnightblue" stroke="midnightblue" points="263.48,-25.39 272.3,-19.52 261.74,-18.61 263.48,-25.39"/>
</g>
<!-- Node10&#45;&gt;Node9 -->
<g id="edge16" class="edge">
<title>Node10&#45;&gt;Node9</title>
<path fill="none" stroke="midnightblue" d="M210.04,-48C218.29,-48 227.02,-48 235.75,-48"/>
<polygon fill="midnightblue" stroke="midnightblue" points="235.95,-51.5 245.95,-48 235.95,-44.5 235.95,-51.5"/>
</g>
</g>
</svg>
