<?xml version="1.0" encoding="UTF-8" standalone="no"?>
<!DOCTYPE svg PUBLIC "-//W3C//DTD SVG 1.1//EN"
 "http://www.w3.org/Graphics/SVG/1.1/DTD/svg11.dtd">
<!-- Generated by graphviz version 2.43.0 (0)
 -->
<!-- Title: os_malloc Pages: 1 -->
<svg width="381pt" height="66pt"
 viewBox="0.00 0.00 381.00 66.00" xmlns="http://www.w3.org/2000/svg" xmlns:xlink="http://www.w3.org/1999/xlink">
<g id="graph0" class="graph" transform="scale(1 1) rotate(0) translate(4 62)">
<title>os_malloc</title>
<polygon fill="white" stroke="transparent" points="-4,4 -4,-62 377,-62 377,4 -4,4"/>
<!-- Node1 -->
<g id="node1" class="node">
<title>Node1</title>
<g id="a_node1"><a xlink:title="Function used to allocate private memory.">
<polygon fill="#bfbfbf" stroke="black" points="0,-19.5 0,-38.5 66,-38.5 66,-19.5 0,-19.5"/>
<text text-anchor="middle" x="33" y="-26.5" font-family="FreeSans" font-size="10.00">os_malloc</text>
</a>
</g>
</g>
<!-- Node2 -->
<g id="node2" class="node">
<title>Node2</title>
<g id="a_node2"><a xlink:href="os__scheduler_8c.html#a917313bbbb324677f26dfdf2ad80de3d" target="_top" xlink:title="returns the currently active process">
<polygon fill="white" stroke="black" points="102,-38.5 102,-57.5 208,-57.5 208,-38.5 102,-38.5"/>
<text text-anchor="middle" x="155" y="-45.5" font-family="FreeSans" font-size="10.00">os_getCurrentProc</text>
</a>
</g>
</g>
<!-- Node1&#45;&gt;Node2 -->
<g id="edge1" class="edge">
<title>Node1&#45;&gt;Node2</title>
<path fill="none" stroke="midnightblue" d="M66.16,-34.09C74.13,-35.35 82.94,-36.75 91.82,-38.15"/>
<polygon fill="midnightblue" stroke="midnightblue" points="91.4,-41.63 101.82,-39.74 92.49,-34.72 91.4,-41.63"/>
</g>
<!-- Node3 -->
<g id="node3" class="node">
<title>Node3</title>
<g id="a_node3"><a xlink:href="os__memory_8c.html#a5898dee5872eb916998a582be5531506" target="_top" xlink:title=" ">
<polygon fill="white" stroke="black" points="106,-0.5 106,-19.5 204,-19.5 204,-0.5 106,-0.5"/>
<text text-anchor="middle" x="155" y="-7.5" font-family="FreeSans" font-size="10.00">os_mallocOwner</text>
</a>
</g>
</g>
<!-- Node1&#45;&gt;Node3 -->
<g id="edge2" class="edge">
<title>Node1&#45;&gt;Node3</title>
<path fill="none" stroke="midnightblue" d="M66.16,-23.91C75.32,-22.46 85.6,-20.83 95.81,-19.21"/>
<polygon fill="midnightblue" stroke="midnightblue" points="96.62,-22.63 105.95,-17.61 95.52,-15.72 96.62,-22.63"/>
</g>
<!-- Node4 -->
<g id="node4" class="node">
<title>Node4</title>
<g id="a_node4"><a xlink:href="os__scheduler_8c.html#a9d27b2dbf45ce6648916ed5ceb0a38df" target="_top" xlink:title="enters a critical code section">
<polygon fill="white" stroke="black" points="244,-0.5 244,-19.5 373,-19.5 373,-0.5 244,-0.5"/>
<text text-anchor="middle" x="308.5" y="-7.5" font-family="FreeSans" font-size="10.00">os_enterCriticalSection</text>
</a>
</g>
</g>
<!-- Node3&#45;&gt;Node4 -->
<g id="edge3" class="edge">
<title>Node3&#45;&gt;Node4</title>
<path fill="none" stroke="midnightblue" d="M204.35,-10C213.67,-10 223.63,-10 233.55,-10"/>
<polygon fill="midnightblue" stroke="midnightblue" points="233.84,-13.5 243.84,-10 233.84,-6.5 233.84,-13.5"/>
</g>
</g>
</svg>
