<?xml version="1.0" encoding="UTF-8" standalone="no"?>
<!DOCTYPE svg PUBLIC "-//W3C//DTD SVG 1.1//EN"
 "http://www.w3.org/Graphics/SVG/1.1/DTD/svg11.dtd">
<!-- Generated by graphviz version 2.43.0 (0)
 -->
<!-- Title: os_sh_close Pages: 1 -->
<svg width="671pt" height="104pt"
 viewBox="0.00 0.00 671.00 104.00" xmlns="http://www.w3.org/2000/svg" xmlns:xlink="http://www.w3.org/1999/xlink">
<g id="graph0" class="graph" transform="scale(1 1) rotate(0) translate(4 100)">
<title>os_sh_close</title>
<polygon fill="white" stroke="transparent" points="-4,4 -4,-100 667,-100 667,4 -4,4"/>
<!-- Node1 -->
<g id="node1" class="node">
<title>Node1</title>
<g id="a_node1"><a xlink:title="Function that should be private but is used by some Testtasks.">
<polygon fill="#bfbfbf" stroke="black" points="0,-38.5 0,-57.5 75,-57.5 75,-38.5 0,-38.5"/>
<text text-anchor="middle" x="37.5" y="-45.5" font-family="FreeSans" font-size="10.00">os_sh_close</text>
</a>
</g>
</g>
<!-- Node2 -->
<g id="node2" class="node">
<title>Node2</title>
<g id="a_node2"><a xlink:href="os__memory_8c.html#ab493cf6ec58f933b4751b0d2a2f77c4a" target="_top" xlink:title=" ">
<polygon fill="white" stroke="black" points="122.5,-38.5 122.5,-57.5 228.5,-57.5 228.5,-38.5 122.5,-38.5"/>
<text text-anchor="middle" x="175.5" y="-45.5" font-family="FreeSans" font-size="10.00">getOwnerOfChunk</text>
</a>
</g>
</g>
<!-- Node1&#45;&gt;Node2 -->
<g id="edge1" class="edge">
<title>Node1&#45;&gt;Node2</title>
<path fill="none" stroke="midnightblue" d="M75.3,-48C86.72,-48 99.65,-48 112.3,-48"/>
<polygon fill="midnightblue" stroke="midnightblue" points="112.35,-51.5 122.35,-48 112.35,-44.5 112.35,-51.5"/>
</g>
<!-- Node3 -->
<g id="node3" class="node">
<title>Node3</title>
<g id="a_node3"><a xlink:href="os__memory_8c.html#a292385f9ee19516237f51ab76c76405e" target="_top" xlink:title="Get the address of the first byte of chunk.">
<polygon fill="white" stroke="black" points="276,-76.5 276,-95.5 410,-95.5 410,-76.5 276,-76.5"/>
<text text-anchor="middle" x="343" y="-83.5" font-family="FreeSans" font-size="10.00">os_getFirstByteOfChunk</text>
</a>
</g>
</g>
<!-- Node1&#45;&gt;Node3 -->
<g id="edge8" class="edge">
<title>Node1&#45;&gt;Node3</title>
<path fill="none" stroke="midnightblue" d="M70,-57.53C82.64,-61.02 97.4,-64.68 111,-67 162.26,-75.76 220.63,-80.51 265.87,-83.08"/>
<polygon fill="midnightblue" stroke="midnightblue" points="265.73,-86.58 275.9,-83.62 266.11,-79.59 265.73,-86.58"/>
</g>
<!-- Node7 -->
<g id="node7" class="node">
<title>Node7</title>
<g id="a_node7"><a xlink:href="os__scheduler_8c.html#a9d27b2dbf45ce6648916ed5ceb0a38df" target="_top" xlink:title="enters a critical code section">
<polygon fill="white" stroke="black" points="111,-0.5 111,-19.5 240,-19.5 240,-0.5 111,-0.5"/>
<text text-anchor="middle" x="175.5" y="-7.5" font-family="FreeSans" font-size="10.00">os_enterCriticalSection</text>
</a>
</g>
</g>
<!-- Node1&#45;&gt;Node7 -->
<g id="edge7" class="edge">
<title>Node1&#45;&gt;Node7</title>
<path fill="none" stroke="midnightblue" d="M72.82,-38.41C90.29,-33.53 111.74,-27.54 130.43,-22.32"/>
<polygon fill="midnightblue" stroke="midnightblue" points="131.5,-25.65 140.19,-19.59 129.62,-18.91 131.5,-25.65"/>
</g>
<!-- Node2&#45;&gt;Node3 -->
<g id="edge2" class="edge">
<title>Node2&#45;&gt;Node3</title>
<path fill="none" stroke="midnightblue" d="M218.26,-57.59C240.2,-62.63 267.28,-68.84 290.51,-74.18"/>
<polygon fill="midnightblue" stroke="midnightblue" points="290.01,-77.65 300.54,-76.48 291.57,-70.83 290.01,-77.65"/>
</g>
<!-- Node4 -->
<g id="node4" class="node">
<title>Node4</title>
<g id="a_node4"><a xlink:href="os__memory_8c.html#a29ccc3e0a668c0be4b285bc74ef6d920" target="_top" xlink:title="Function used to get the value of a single map entry, this is made public so the allocation strategie...">
<polygon fill="white" stroke="black" points="446,-57.5 446,-76.5 541,-76.5 541,-57.5 446,-57.5"/>
<text text-anchor="middle" x="493.5" y="-64.5" font-family="FreeSans" font-size="10.00">os_getMapEntry</text>
</a>
</g>
</g>
<!-- Node2&#45;&gt;Node4 -->
<g id="edge6" class="edge">
<title>Node2&#45;&gt;Node4</title>
<path fill="none" stroke="midnightblue" d="M228.68,-51.14C285.73,-54.57 376.85,-60.05 435.68,-63.58"/>
<polygon fill="midnightblue" stroke="midnightblue" points="435.72,-67.09 445.91,-64.2 436.14,-60.1 435.72,-67.09"/>
</g>
<!-- Node3&#45;&gt;Node4 -->
<g id="edge3" class="edge">
<title>Node3&#45;&gt;Node4</title>
<path fill="none" stroke="midnightblue" d="M410.43,-77.5C418.89,-76.42 427.48,-75.32 435.76,-74.26"/>
<polygon fill="midnightblue" stroke="midnightblue" points="436.21,-77.73 445.68,-72.99 435.32,-70.79 436.21,-77.73"/>
</g>
<!-- Node5 -->
<g id="node5" class="node">
<title>Node5</title>
<g id="a_node5"><a xlink:href="os__memory_8c.html#ae420976ba4abbd069aff795935b9636c" target="_top" xlink:title="Reads the value of the higher nibble of the given address.">
<polygon fill="white" stroke="black" points="577,-76.5 577,-95.5 663,-95.5 663,-76.5 577,-76.5"/>
<text text-anchor="middle" x="620" y="-83.5" font-family="FreeSans" font-size="10.00">getHighNibble</text>
</a>
</g>
</g>
<!-- Node4&#45;&gt;Node5 -->
<g id="edge4" class="edge">
<title>Node4&#45;&gt;Node5</title>
<path fill="none" stroke="midnightblue" d="M541.21,-74.13C549.64,-75.42 558.48,-76.76 567.05,-78.07"/>
<polygon fill="midnightblue" stroke="midnightblue" points="566.53,-81.53 576.95,-79.58 567.59,-74.61 566.53,-81.53"/>
</g>
<!-- Node6 -->
<g id="node6" class="node">
<title>Node6</title>
<g id="a_node6"><a xlink:href="os__memory_8c.html#a01bd9b56dbbeb0af404043ceca5c8818" target="_top" xlink:title="Reads the value of the lower nibble of the given address.">
<polygon fill="white" stroke="black" points="578.5,-38.5 578.5,-57.5 661.5,-57.5 661.5,-38.5 578.5,-38.5"/>
<text text-anchor="middle" x="620" y="-45.5" font-family="FreeSans" font-size="10.00">getLowNibble</text>
</a>
</g>
</g>
<!-- Node4&#45;&gt;Node6 -->
<g id="edge5" class="edge">
<title>Node4&#45;&gt;Node6</title>
<path fill="none" stroke="midnightblue" d="M541.21,-59.87C550.04,-58.52 559.3,-57.11 568.25,-55.75"/>
<polygon fill="midnightblue" stroke="midnightblue" points="568.8,-59.2 578.16,-54.23 567.75,-52.28 568.8,-59.2"/>
</g>
</g>
</svg>
