<?xml version="1.0" encoding="UTF-8" standalone="no"?>
<!DOCTYPE svg PUBLIC "-//W3C//DTD SVG 1.1//EN"
 "http://www.w3.org/Graphics/SVG/1.1/DTD/svg11.dtd">
<!-- Generated by graphviz version 2.43.0 (0)
 -->
<!-- Title: writeSRAM_external Pages: 1 -->
<svg width="289pt" height="104pt"
 viewBox="0.00 0.00 289.00 104.00" xmlns="http://www.w3.org/2000/svg" xmlns:xlink="http://www.w3.org/1999/xlink">
<g id="graph0" class="graph" transform="scale(1 1) rotate(0) translate(4 100)">
<title>writeSRAM_external</title>
<polygon fill="white" stroke="transparent" points="-4,4 -4,-100 285,-100 285,4 -4,4"/>
<!-- Node1 -->
<g id="node1" class="node">
<title>Node1</title>
<g id="a_node1"><a xlink:title="Private function to write a single byte to the external SRAM It will not check if its call is valid....">
<polygon fill="#bfbfbf" stroke="black" points="0,-38.5 0,-57.5 116,-57.5 116,-38.5 0,-38.5"/>
<text text-anchor="middle" x="58" y="-45.5" font-family="FreeSans" font-size="10.00">writeSRAM_external</text>
</a>
</g>
</g>
<!-- Node2 -->
<g id="node2" class="node">
<title>Node2</title>
<g id="a_node2"><a xlink:href="os__scheduler_8c.html#a9d27b2dbf45ce6648916ed5ceb0a38df" target="_top" xlink:title="enters a critical code section">
<polygon fill="white" stroke="black" points="152,-76.5 152,-95.5 281,-95.5 281,-76.5 152,-76.5"/>
<text text-anchor="middle" x="216.5" y="-83.5" font-family="FreeSans" font-size="10.00">os_enterCriticalSection</text>
</a>
</g>
</g>
<!-- Node1&#45;&gt;Node2 -->
<g id="edge1" class="edge">
<title>Node1&#45;&gt;Node2</title>
<path fill="none" stroke="midnightblue" d="M98.49,-57.59C119.14,-62.6 144.61,-68.79 166.51,-74.11"/>
<polygon fill="midnightblue" stroke="midnightblue" points="165.75,-77.52 176.29,-76.48 167.4,-70.72 165.75,-77.52"/>
</g>
<!-- Node3 -->
<g id="node3" class="node">
<title>Node3</title>
<g id="a_node3"><a xlink:href="os__spi_8h.html#aa2ecb64d76ce8721fdab1a60e6061ebd" target="_top" xlink:title="Performs a SPI send This method blocks until the data exchange is completed. Additionally,...">
<polygon fill="white" stroke="black" points="178.5,-38.5 178.5,-57.5 254.5,-57.5 254.5,-38.5 178.5,-38.5"/>
<text text-anchor="middle" x="216.5" y="-45.5" font-family="FreeSans" font-size="10.00">os_spi_send</text>
</a>
</g>
</g>
<!-- Node1&#45;&gt;Node3 -->
<g id="edge2" class="edge">
<title>Node1&#45;&gt;Node3</title>
<path fill="none" stroke="midnightblue" d="M116.39,-48C133.27,-48 151.56,-48 167.78,-48"/>
<polygon fill="midnightblue" stroke="midnightblue" points="168.1,-51.5 178.1,-48 168.1,-44.5 168.1,-51.5"/>
</g>
<!-- Node4 -->
<g id="node4" class="node">
<title>Node4</title>
<g id="a_node4"><a xlink:href="os__mem__drivers_8c.html#a586e4c730a90597fa3b966b59204f8f3" target="_top" xlink:title="Activates the external SRAM as SPI slave.">
<polygon fill="white" stroke="black" points="170.5,-0.5 170.5,-19.5 262.5,-19.5 262.5,-0.5 170.5,-0.5"/>
<text text-anchor="middle" x="216.5" y="-7.5" font-family="FreeSans" font-size="10.00">select_memory</text>
</a>
</g>
</g>
<!-- Node1&#45;&gt;Node4 -->
<g id="edge3" class="edge">
<title>Node1&#45;&gt;Node4</title>
<path fill="none" stroke="midnightblue" d="M98.49,-38.41C119.14,-33.4 144.61,-27.21 166.51,-21.89"/>
<polygon fill="midnightblue" stroke="midnightblue" points="167.4,-25.28 176.29,-19.52 165.75,-18.48 167.4,-25.28"/>
</g>
</g>
</svg>
