<?xml version="1.0" encoding="UTF-8" standalone="no"?>
<!DOCTYPE svg PUBLIC "-//W3C//DTD SVG 1.1//EN"
 "http://www.w3.org/Graphics/SVG/1.1/DTD/svg11.dtd">
<!-- Generated by graphviz version 2.43.0 (0)
 -->
<!-- Title: os_core.c Pages: 1 -->
<svg width="595pt" height="252pt"
 viewBox="0.00 0.00 594.50 252.00" xmlns="http://www.w3.org/2000/svg" xmlns:xlink="http://www.w3.org/1999/xlink">
<g id="graph0" class="graph" transform="scale(1 1) rotate(0) translate(4 248)">
<title>os_core.c</title>
<polygon fill="white" stroke="transparent" points="-4,4 -4,-248 590.5,-248 590.5,4 -4,4"/>
<!-- Node1 -->
<g id="node1" class="node">
<title>Node1</title>
<g id="a_node1"><a xlink:title=" ">
<polygon fill="#bfbfbf" stroke="black" points="229.5,-224.5 229.5,-243.5 291.5,-243.5 291.5,-224.5 229.5,-224.5"/>
<text text-anchor="middle" x="260.5" y="-231.5" font-family="FreeSans" font-size="10.00">os_core.c</text>
</a>
</g>
</g>
<!-- Node2 -->
<g id="node2" class="node">
<title>Node2</title>
<g id="a_node2"><a xlink:href="os__core_8h.html" target="_top" xlink:title="Core of the OS.">
<polygon fill="white" stroke="black" points="0,-112.5 0,-131.5 63,-131.5 63,-112.5 0,-112.5"/>
<text text-anchor="middle" x="31.5" y="-119.5" font-family="FreeSans" font-size="10.00">os_core.h</text>
</a>
</g>
</g>
<!-- Node1&#45;&gt;Node2 -->
<g id="edge1" class="edge">
<title>Node1&#45;&gt;Node2</title>
<path fill="none" stroke="midnightblue" d="M235.38,-224.36C211.78,-215.97 175.68,-202.41 145.5,-188 112.61,-172.29 76.32,-150.84 53.71,-136.95"/>
<polygon fill="midnightblue" stroke="midnightblue" points="55.54,-133.96 45.19,-131.67 51.85,-139.91 55.54,-133.96"/>
</g>
<!-- Node4 -->
<g id="node4" class="node">
<title>Node4</title>
<g id="a_node4"><a xlink:href="defines_8h.html" target="_top" xlink:title="Simple definitions and assembler&#45;macros, mostly 8/16&#45;Bit values.">
<polygon fill="white" stroke="black" points="300,-112.5 300,-131.5 361,-131.5 361,-112.5 300,-112.5"/>
<text text-anchor="middle" x="330.5" y="-119.5" font-family="FreeSans" font-size="10.00">defines.h</text>
</a>
</g>
</g>
<!-- Node1&#45;&gt;Node4 -->
<g id="edge3" class="edge">
<title>Node1&#45;&gt;Node4</title>
<path fill="none" stroke="midnightblue" d="M270.84,-224.23C280.34,-215.74 294.29,-202.12 303.5,-188 312.98,-173.47 320.26,-155.05 324.85,-141.54"/>
<polygon fill="midnightblue" stroke="midnightblue" points="328.21,-142.51 327.95,-131.91 321.55,-140.36 328.21,-142.51"/>
</g>
<!-- Node7 -->
<g id="node7" class="node">
<title>Node7</title>
<g id="a_node7"><a xlink:href="util_8h.html" target="_top" xlink:title="Little helpers that don&#39;t fit elsewhere.">
<polygon fill="white" stroke="black" points="120,-112.5 120,-131.5 161,-131.5 161,-112.5 120,-112.5"/>
<text text-anchor="middle" x="140.5" y="-119.5" font-family="FreeSans" font-size="10.00">util.h</text>
</a>
</g>
</g>
<!-- Node1&#45;&gt;Node7 -->
<g id="edge6" class="edge">
<title>Node1&#45;&gt;Node7</title>
<path fill="none" stroke="midnightblue" d="M229.39,-226.52C206.96,-220.29 177.56,-208.67 159.5,-188 148.27,-175.14 143.67,-155.96 141.79,-141.77"/>
<polygon fill="midnightblue" stroke="midnightblue" points="145.25,-141.27 140.79,-131.67 138.29,-141.96 145.25,-141.27"/>
</g>
<!-- Node10 -->
<g id="node10" class="node">
<title>Node10</title>
<g id="a_node10"><a xlink:href="lcd_8h.html" target="_top" xlink:title="Library for LCD use.">
<polygon fill="white" stroke="black" points="168.5,-168.5 168.5,-187.5 208.5,-187.5 208.5,-168.5 168.5,-168.5"/>
<text text-anchor="middle" x="188.5" y="-175.5" font-family="FreeSans" font-size="10.00">lcd.h</text>
</a>
</g>
</g>
<!-- Node1&#45;&gt;Node10 -->
<g id="edge10" class="edge">
<title>Node1&#45;&gt;Node10</title>
<path fill="none" stroke="midnightblue" d="M248.93,-224.32C238.08,-216.18 221.62,-203.84 208.62,-194.09"/>
<polygon fill="midnightblue" stroke="midnightblue" points="210.38,-191.03 200.28,-187.83 206.18,-196.63 210.38,-191.03"/>
</g>
<!-- Node11 -->
<g id="node11" class="node">
<title>Node11</title>
<g id="a_node11"><a xlink:href="os__input_8h.html" target="_top" xlink:title="Input library for the OS.">
<polygon fill="white" stroke="black" points="227,-168.5 227,-187.5 294,-187.5 294,-168.5 227,-168.5"/>
<text text-anchor="middle" x="260.5" y="-175.5" font-family="FreeSans" font-size="10.00">os_input.h</text>
</a>
</g>
</g>
<!-- Node1&#45;&gt;Node11 -->
<g id="edge16" class="edge">
<title>Node1&#45;&gt;Node11</title>
<path fill="none" stroke="midnightblue" d="M260.5,-224.08C260.5,-217.01 260.5,-206.86 260.5,-197.99"/>
<polygon fill="midnightblue" stroke="midnightblue" points="264,-197.75 260.5,-187.75 257,-197.75 264,-197.75"/>
</g>
<!-- Node12 -->
<g id="node12" class="node">
<title>Node12</title>
<g id="a_node12"><a xlink:href="os__memheap__drivers_8h.html" target="_top" xlink:title="Drivers for OS heap management.">
<polygon fill="white" stroke="black" points="351,-168.5 351,-187.5 482,-187.5 482,-168.5 351,-168.5"/>
<text text-anchor="middle" x="416.5" y="-175.5" font-family="FreeSans" font-size="10.00">os_memheap_drivers.h</text>
</a>
</g>
</g>
<!-- Node1&#45;&gt;Node12 -->
<g id="edge18" class="edge">
<title>Node1&#45;&gt;Node12</title>
<path fill="none" stroke="midnightblue" d="M285.22,-224.44C311.35,-215.4 352.76,-201.06 382.08,-190.92"/>
<polygon fill="midnightblue" stroke="midnightblue" points="383.59,-194.1 391.9,-187.52 381.3,-187.48 383.59,-194.1"/>
</g>
<!-- Node16 -->
<g id="node16" class="node">
<title>Node16</title>
<g id="a_node16"><a xlink:title=" ">
<polygon fill="white" stroke="#bfbfbf" points="500.5,-168.5 500.5,-187.5 586.5,-187.5 586.5,-168.5 500.5,-168.5"/>
<text text-anchor="middle" x="543.5" y="-175.5" font-family="FreeSans" font-size="10.00">avr/interrupt.h</text>
</a>
</g>
</g>
<!-- Node1&#45;&gt;Node16 -->
<g id="edge23" class="edge">
<title>Node1&#45;&gt;Node16</title>
<path fill="none" stroke="midnightblue" d="M291.6,-227.07C339.41,-217.94 431.59,-200.35 490.2,-189.17"/>
<polygon fill="midnightblue" stroke="midnightblue" points="491.21,-192.54 500.37,-187.23 489.89,-185.67 491.21,-192.54"/>
</g>
<!-- Node3 -->
<g id="node3" class="node">
<title>Node3</title>
<g id="a_node3"><a xlink:title=" ">
<polygon fill="white" stroke="#bfbfbf" points="7,-56.5 7,-75.5 102,-75.5 102,-56.5 7,-56.5"/>
<text text-anchor="middle" x="54.5" y="-63.5" font-family="FreeSans" font-size="10.00">avr/pgmspace.h</text>
</a>
</g>
</g>
<!-- Node2&#45;&gt;Node3 -->
<g id="edge2" class="edge">
<title>Node2&#45;&gt;Node3</title>
<path fill="none" stroke="midnightblue" d="M35.3,-112.08C38.41,-104.77 42.92,-94.18 46.79,-85.1"/>
<polygon fill="midnightblue" stroke="midnightblue" points="50.07,-86.32 50.77,-75.75 43.63,-83.58 50.07,-86.32"/>
</g>
<!-- Node5 -->
<g id="node5" class="node">
<title>Node5</title>
<g id="a_node5"><a xlink:href="atmega644constants_8h.html" target="_top" xlink:title="Constants for ATMega644 and EVA board. Defines several useful constants for the ATMega644.">
<polygon fill="white" stroke="black" points="272.5,-56.5 272.5,-75.5 400.5,-75.5 400.5,-56.5 272.5,-56.5"/>
<text text-anchor="middle" x="336.5" y="-63.5" font-family="FreeSans" font-size="10.00">atmega644constants.h</text>
</a>
</g>
</g>
<!-- Node4&#45;&gt;Node5 -->
<g id="edge4" class="edge">
<title>Node4&#45;&gt;Node5</title>
<path fill="none" stroke="midnightblue" d="M331.49,-112.08C332.29,-104.93 333.43,-94.64 334.42,-85.69"/>
<polygon fill="midnightblue" stroke="midnightblue" points="337.9,-86.08 335.53,-75.75 330.94,-85.3 337.9,-86.08"/>
</g>
<!-- Node6 -->
<g id="node6" class="node">
<title>Node6</title>
<g id="a_node6"><a xlink:title=" ">
<polygon fill="white" stroke="#bfbfbf" points="310,-0.5 310,-19.5 363,-19.5 363,-0.5 310,-0.5"/>
<text text-anchor="middle" x="336.5" y="-7.5" font-family="FreeSans" font-size="10.00">avr/io.h</text>
</a>
</g>
</g>
<!-- Node5&#45;&gt;Node6 -->
<g id="edge5" class="edge">
<title>Node5&#45;&gt;Node6</title>
<path fill="none" stroke="midnightblue" d="M336.5,-56.08C336.5,-49.01 336.5,-38.86 336.5,-29.99"/>
<polygon fill="midnightblue" stroke="midnightblue" points="340,-29.75 336.5,-19.75 333,-29.75 340,-29.75"/>
</g>
<!-- Node7&#45;&gt;Node3 -->
<g id="edge9" class="edge">
<title>Node7&#45;&gt;Node3</title>
<path fill="none" stroke="midnightblue" d="M126.68,-112.32C113.27,-103.9 92.68,-90.97 76.91,-81.07"/>
<polygon fill="midnightblue" stroke="midnightblue" points="78.61,-78.01 68.28,-75.65 74.89,-83.94 78.61,-78.01"/>
</g>
<!-- Node8 -->
<g id="node8" class="node">
<title>Node8</title>
<g id="a_node8"><a xlink:title=" ">
<polygon fill="white" stroke="#bfbfbf" points="201,-56.5 201,-75.5 254,-75.5 254,-56.5 201,-56.5"/>
<text text-anchor="middle" x="227.5" y="-63.5" font-family="FreeSans" font-size="10.00">stdint.h</text>
</a>
</g>
</g>
<!-- Node7&#45;&gt;Node8 -->
<g id="edge7" class="edge">
<title>Node7&#45;&gt;Node8</title>
<path fill="none" stroke="midnightblue" d="M154.48,-112.32C168.05,-103.9 188.88,-90.97 204.82,-81.07"/>
<polygon fill="midnightblue" stroke="midnightblue" points="206.91,-83.9 213.56,-75.65 203.21,-77.95 206.91,-83.9"/>
</g>
<!-- Node9 -->
<g id="node9" class="node">
<title>Node9</title>
<g id="a_node9"><a xlink:title=" ">
<polygon fill="white" stroke="#bfbfbf" points="120.5,-56.5 120.5,-75.5 182.5,-75.5 182.5,-56.5 120.5,-56.5"/>
<text text-anchor="middle" x="151.5" y="-63.5" font-family="FreeSans" font-size="10.00">stdbool.h</text>
</a>
</g>
</g>
<!-- Node7&#45;&gt;Node9 -->
<g id="edge8" class="edge">
<title>Node7&#45;&gt;Node9</title>
<path fill="none" stroke="midnightblue" d="M142.32,-112.08C143.77,-104.93 145.87,-94.64 147.69,-85.69"/>
<polygon fill="midnightblue" stroke="midnightblue" points="151.15,-86.25 149.72,-75.75 144.29,-84.85 151.15,-86.25"/>
</g>
<!-- Node10&#45;&gt;Node3 -->
<g id="edge13" class="edge">
<title>Node10&#45;&gt;Node3</title>
<path fill="none" stroke="midnightblue" d="M169.73,-168.42C153.19,-160.35 128.93,-147.25 110.5,-132 93.37,-117.82 77.17,-98.07 66.65,-84.07"/>
<polygon fill="midnightblue" stroke="midnightblue" points="69.33,-81.82 60.6,-75.82 63.69,-85.95 69.33,-81.82"/>
</g>
<!-- Node10&#45;&gt;Node4 -->
<g id="edge14" class="edge">
<title>Node10&#45;&gt;Node4</title>
<path fill="none" stroke="midnightblue" d="M208.54,-169.38C231.83,-160.52 270.57,-145.79 298.14,-135.31"/>
<polygon fill="midnightblue" stroke="midnightblue" points="299.64,-138.48 307.74,-131.65 297.15,-131.94 299.64,-138.48"/>
</g>
<!-- Node10&#45;&gt;Node7 -->
<g id="edge15" class="edge">
<title>Node10&#45;&gt;Node7</title>
<path fill="none" stroke="midnightblue" d="M180.57,-168.08C173.65,-160.3 163.43,-148.8 155.05,-139.37"/>
<polygon fill="midnightblue" stroke="midnightblue" points="157.54,-136.9 148.28,-131.75 152.31,-141.55 157.54,-136.9"/>
</g>
<!-- Node10&#45;&gt;Node8 -->
<g id="edge12" class="edge">
<title>Node10&#45;&gt;Node8</title>
<path fill="none" stroke="midnightblue" d="M191.56,-168.37C197.88,-150.54 212.5,-109.3 221.02,-85.27"/>
<polygon fill="midnightblue" stroke="midnightblue" points="224.41,-86.19 224.45,-75.59 217.81,-83.85 224.41,-86.19"/>
</g>
<!-- Node10&#45;&gt;Node9 -->
<g id="edge11" class="edge">
<title>Node10&#45;&gt;Node9</title>
<path fill="none" stroke="midnightblue" d="M186.19,-168.08C182.85,-155.48 176.33,-131.78 169.5,-112 166.37,-102.94 162.46,-93.03 159.09,-84.83"/>
<polygon fill="midnightblue" stroke="midnightblue" points="162.29,-83.41 155.2,-75.53 155.83,-86.11 162.29,-83.41"/>
</g>
<!-- Node11&#45;&gt;Node8 -->
<g id="edge17" class="edge">
<title>Node11&#45;&gt;Node8</title>
<path fill="none" stroke="midnightblue" d="M257.97,-168.15C254.37,-155.63 247.54,-132.04 241.5,-112 238.84,-103.18 235.81,-93.41 233.25,-85.23"/>
<polygon fill="midnightblue" stroke="midnightblue" points="236.56,-84.1 230.23,-75.61 229.89,-86.2 236.56,-84.1"/>
</g>
<!-- Node12&#45;&gt;Node4 -->
<g id="edge21" class="edge">
<title>Node12&#45;&gt;Node4</title>
<path fill="none" stroke="midnightblue" d="M402.68,-168.32C389.27,-159.9 368.68,-146.97 352.91,-137.07"/>
<polygon fill="midnightblue" stroke="midnightblue" points="354.61,-134.01 344.28,-131.65 350.89,-139.94 354.61,-134.01"/>
</g>
<!-- Node13 -->
<g id="node13" class="node">
<title>Node13</title>
<g id="a_node13"><a xlink:href="os__mem__drivers_8h.html" target="_top" xlink:title="Drivers for OS memory management.">
<polygon fill="white" stroke="black" points="455,-112.5 455,-131.5 562,-131.5 562,-112.5 455,-112.5"/>
<text text-anchor="middle" x="508.5" y="-119.5" font-family="FreeSans" font-size="10.00">os_mem_drivers.h</text>
</a>
</g>
</g>
<!-- Node12&#45;&gt;Node13 -->
<g id="edge19" class="edge">
<title>Node12&#45;&gt;Node13</title>
<path fill="none" stroke="midnightblue" d="M431.28,-168.32C445.77,-159.82 468.07,-146.73 484.99,-136.8"/>
<polygon fill="midnightblue" stroke="midnightblue" points="486.9,-139.74 493.76,-131.65 483.36,-133.7 486.9,-139.74"/>
</g>
<!-- Node15 -->
<g id="node15" class="node">
<title>Node15</title>
<g id="a_node15"><a xlink:title=" ">
<polygon fill="white" stroke="#bfbfbf" points="380.5,-112.5 380.5,-131.5 436.5,-131.5 436.5,-112.5 380.5,-112.5"/>
<text text-anchor="middle" x="408.5" y="-119.5" font-family="FreeSans" font-size="10.00">stddef.h</text>
</a>
</g>
</g>
<!-- Node12&#45;&gt;Node15 -->
<g id="edge22" class="edge">
<title>Node12&#45;&gt;Node15</title>
<path fill="none" stroke="midnightblue" d="M415.18,-168.08C414.12,-160.93 412.59,-150.64 411.27,-141.69"/>
<polygon fill="midnightblue" stroke="midnightblue" points="414.72,-141.13 409.8,-131.75 407.8,-142.16 414.72,-141.13"/>
</g>
<!-- Node14 -->
<g id="node14" class="node">
<title>Node14</title>
<g id="a_node14"><a xlink:title=" ">
<polygon fill="white" stroke="#bfbfbf" points="476,-56.5 476,-75.5 541,-75.5 541,-56.5 476,-56.5"/>
<text text-anchor="middle" x="508.5" y="-63.5" font-family="FreeSans" font-size="10.00">inttypes.h</text>
</a>
</g>
</g>
<!-- Node13&#45;&gt;Node14 -->
<g id="edge20" class="edge">
<title>Node13&#45;&gt;Node14</title>
<path fill="none" stroke="midnightblue" d="M508.5,-112.08C508.5,-105.01 508.5,-94.86 508.5,-85.99"/>
<polygon fill="midnightblue" stroke="midnightblue" points="512,-85.75 508.5,-75.75 505,-85.75 512,-85.75"/>
</g>
</g>
</svg>
