<?xml version="1.0" encoding="UTF-8" standalone="no"?>
<!DOCTYPE svg PUBLIC "-//W3C//DTD SVG 1.1//EN"
 "http://www.w3.org/Graphics/SVG/1.1/DTD/svg11.dtd">
<!-- Generated by graphviz version 2.43.0 (0)
 -->
<!-- Title: os_sh_readOpen Pages: 1 -->
<svg width="693pt" height="85pt"
 viewBox="0.00 0.00 693.00 85.00" xmlns="http://www.w3.org/2000/svg" xmlns:xlink="http://www.w3.org/1999/xlink">
<g id="graph0" class="graph" transform="scale(1 1) rotate(0) translate(4 81)">
<title>os_sh_readOpen</title>
<polygon fill="white" stroke="transparent" points="-4,4 -4,-81 689,-81 689,4 -4,4"/>
<!-- Node1 -->
<g id="node1" class="node">
<title>Node1</title>
<g id="a_node1"><a xlink:title="Function that should be private but is used by some Testtasks.">
<polygon fill="#bfbfbf" stroke="black" points="0,-19.5 0,-38.5 97,-38.5 97,-19.5 0,-19.5"/>
<text text-anchor="middle" x="48.5" y="-26.5" font-family="FreeSans" font-size="10.00">os_sh_readOpen</text>
</a>
</g>
</g>
<!-- Node2 -->
<g id="node2" class="node">
<title>Node2</title>
<g id="a_node2"><a xlink:href="os__memory_8c.html#ab493cf6ec58f933b4751b0d2a2f77c4a" target="_top" xlink:title=" ">
<polygon fill="white" stroke="black" points="144.5,-38.5 144.5,-57.5 250.5,-57.5 250.5,-38.5 144.5,-38.5"/>
<text text-anchor="middle" x="197.5" y="-45.5" font-family="FreeSans" font-size="10.00">getOwnerOfChunk</text>
</a>
</g>
</g>
<!-- Node1&#45;&gt;Node2 -->
<g id="edge1" class="edge">
<title>Node1&#45;&gt;Node2</title>
<path fill="none" stroke="midnightblue" d="M97.23,-35.17C109.02,-36.69 121.82,-38.35 134.19,-39.95"/>
<polygon fill="midnightblue" stroke="midnightblue" points="134.08,-43.46 144.44,-41.27 134.97,-36.52 134.08,-43.46"/>
</g>
<!-- Node7 -->
<g id="node7" class="node">
<title>Node7</title>
<g id="a_node7"><a xlink:href="os__scheduler_8c.html#a9d27b2dbf45ce6648916ed5ceb0a38df" target="_top" xlink:title="enters a critical code section">
<polygon fill="white" stroke="black" points="133,-0.5 133,-19.5 262,-19.5 262,-0.5 133,-0.5"/>
<text text-anchor="middle" x="197.5" y="-7.5" font-family="FreeSans" font-size="10.00">os_enterCriticalSection</text>
</a>
</g>
</g>
<!-- Node1&#45;&gt;Node7 -->
<g id="edge7" class="edge">
<title>Node1&#45;&gt;Node7</title>
<path fill="none" stroke="midnightblue" d="M97.23,-22.83C105.42,-21.77 114.11,-20.65 122.79,-19.53"/>
<polygon fill="midnightblue" stroke="midnightblue" points="123.5,-22.97 132.97,-18.21 122.6,-16.02 123.5,-22.97"/>
</g>
<!-- Node3 -->
<g id="node3" class="node">
<title>Node3</title>
<g id="a_node3"><a xlink:href="os__memory_8c.html#a292385f9ee19516237f51ab76c76405e" target="_top" xlink:title="Get the address of the first byte of chunk.">
<polygon fill="white" stroke="black" points="298,-57.5 298,-76.5 432,-76.5 432,-57.5 298,-57.5"/>
<text text-anchor="middle" x="365" y="-64.5" font-family="FreeSans" font-size="10.00">os_getFirstByteOfChunk</text>
</a>
</g>
</g>
<!-- Node2&#45;&gt;Node3 -->
<g id="edge2" class="edge">
<title>Node2&#45;&gt;Node3</title>
<path fill="none" stroke="midnightblue" d="M250.87,-54.01C262.67,-55.37 275.44,-56.83 287.99,-58.27"/>
<polygon fill="midnightblue" stroke="midnightblue" points="287.66,-61.76 298,-59.42 288.46,-54.8 287.66,-61.76"/>
</g>
<!-- Node4 -->
<g id="node4" class="node">
<title>Node4</title>
<g id="a_node4"><a xlink:href="os__memory_8c.html#a29ccc3e0a668c0be4b285bc74ef6d920" target="_top" xlink:title="Function used to get the value of a single map entry, this is made public so the allocation strategie...">
<polygon fill="white" stroke="black" points="468,-38.5 468,-57.5 563,-57.5 563,-38.5 468,-38.5"/>
<text text-anchor="middle" x="515.5" y="-45.5" font-family="FreeSans" font-size="10.00">os_getMapEntry</text>
</a>
</g>
</g>
<!-- Node2&#45;&gt;Node4 -->
<g id="edge6" class="edge">
<title>Node2&#45;&gt;Node4</title>
<path fill="none" stroke="midnightblue" d="M250.68,-48C307.73,-48 398.85,-48 457.68,-48"/>
<polygon fill="midnightblue" stroke="midnightblue" points="457.91,-51.5 467.91,-48 457.91,-44.5 457.91,-51.5"/>
</g>
<!-- Node3&#45;&gt;Node4 -->
<g id="edge3" class="edge">
<title>Node3&#45;&gt;Node4</title>
<path fill="none" stroke="midnightblue" d="M432.43,-58.5C440.89,-57.42 449.48,-56.32 457.76,-55.26"/>
<polygon fill="midnightblue" stroke="midnightblue" points="458.21,-58.73 467.68,-53.99 457.32,-51.79 458.21,-58.73"/>
</g>
<!-- Node5 -->
<g id="node5" class="node">
<title>Node5</title>
<g id="a_node5"><a xlink:href="os__memory_8c.html#ae420976ba4abbd069aff795935b9636c" target="_top" xlink:title="Reads the value of the higher nibble of the given address.">
<polygon fill="white" stroke="black" points="599,-57.5 599,-76.5 685,-76.5 685,-57.5 599,-57.5"/>
<text text-anchor="middle" x="642" y="-64.5" font-family="FreeSans" font-size="10.00">getHighNibble</text>
</a>
</g>
</g>
<!-- Node4&#45;&gt;Node5 -->
<g id="edge4" class="edge">
<title>Node4&#45;&gt;Node5</title>
<path fill="none" stroke="midnightblue" d="M563.21,-55.13C571.64,-56.42 580.48,-57.76 589.05,-59.07"/>
<polygon fill="midnightblue" stroke="midnightblue" points="588.53,-62.53 598.95,-60.58 589.59,-55.61 588.53,-62.53"/>
</g>
<!-- Node6 -->
<g id="node6" class="node">
<title>Node6</title>
<g id="a_node6"><a xlink:href="os__memory_8c.html#a01bd9b56dbbeb0af404043ceca5c8818" target="_top" xlink:title="Reads the value of the lower nibble of the given address.">
<polygon fill="white" stroke="black" points="600.5,-19.5 600.5,-38.5 683.5,-38.5 683.5,-19.5 600.5,-19.5"/>
<text text-anchor="middle" x="642" y="-26.5" font-family="FreeSans" font-size="10.00">getLowNibble</text>
</a>
</g>
</g>
<!-- Node4&#45;&gt;Node6 -->
<g id="edge5" class="edge">
<title>Node4&#45;&gt;Node6</title>
<path fill="none" stroke="midnightblue" d="M563.21,-40.87C572.04,-39.52 581.3,-38.11 590.25,-36.75"/>
<polygon fill="midnightblue" stroke="midnightblue" points="590.8,-40.2 600.16,-35.23 589.75,-33.28 590.8,-40.2"/>
</g>
</g>
</svg>
