<?xml version="1.0" encoding="UTF-8" standalone="no"?>
<!DOCTYPE svg PUBLIC "-//W3C//DTD SVG 1.1//EN"
 "http://www.w3.org/Graphics/SVG/1.1/DTD/svg11.dtd">
<!-- Generated by graphviz version 2.43.0 (0)
 -->
<!-- Title: os_freeProcessMemory Pages: 1 -->
<svg width="732pt" height="180pt"
 viewBox="0.00 0.00 732.00 180.00" xmlns="http://www.w3.org/2000/svg" xmlns:xlink="http://www.w3.org/1999/xlink">
<g id="graph0" class="graph" transform="scale(1 1) rotate(0) translate(4 176)">
<title>os_freeProcessMemory</title>
<polygon fill="white" stroke="transparent" points="-4,4 -4,-176 728,-176 728,4 -4,4"/>
<!-- Node1 -->
<g id="node1" class="node">
<title>Node1</title>
<g id="a_node1"><a xlink:title="Function that realises the garbage collection.">
<polygon fill="#bfbfbf" stroke="black" points="0,-76.5 0,-95.5 131,-95.5 131,-76.5 0,-76.5"/>
<text text-anchor="middle" x="65.5" y="-83.5" font-family="FreeSans" font-size="10.00">os_freeProcessMemory</text>
</a>
</g>
</g>
<!-- Node2 -->
<g id="node2" class="node">
<title>Node2</title>
<g id="a_node2"><a xlink:href="os__scheduler_8c.html#a9d27b2dbf45ce6648916ed5ceb0a38df" target="_top" xlink:title="enters a critical code section">
<polygon fill="white" stroke="black" points="339.5,-152.5 339.5,-171.5 468.5,-171.5 468.5,-152.5 339.5,-152.5"/>
<text text-anchor="middle" x="404" y="-159.5" font-family="FreeSans" font-size="10.00">os_enterCriticalSection</text>
</a>
</g>
</g>
<!-- Node1&#45;&gt;Node2 -->
<g id="edge1" class="edge">
<title>Node1&#45;&gt;Node2</title>
<path fill="none" stroke="midnightblue" d="M97.11,-95.56C116.93,-101.57 143.36,-109.25 167,-115 224.6,-129.02 290.86,-141.94 338.48,-150.67"/>
<polygon fill="midnightblue" stroke="midnightblue" points="337.88,-154.12 348.35,-152.47 339.14,-147.23 337.88,-154.12"/>
</g>
<!-- Node3 -->
<g id="node3" class="node">
<title>Node3</title>
<g id="a_node3"><a xlink:href="os__memory_8c.html#ae30934b438eca830815f445a1144a8c2" target="_top" xlink:title=" ">
<polygon fill="white" stroke="black" points="167,-86.5 167,-105.5 301,-105.5 301,-86.5 167,-86.5"/>
<text text-anchor="middle" x="234" y="-93.5" font-family="FreeSans" font-size="10.00">os_freeOwnerRestricted</text>
</a>
</g>
</g>
<!-- Node1&#45;&gt;Node3 -->
<g id="edge2" class="edge">
<title>Node1&#45;&gt;Node3</title>
<path fill="none" stroke="midnightblue" d="M131.35,-89.89C139.66,-90.39 148.23,-90.91 156.7,-91.42"/>
<polygon fill="midnightblue" stroke="midnightblue" points="156.76,-94.93 166.96,-92.03 157.18,-87.94 156.76,-94.93"/>
</g>
<!-- Node5 -->
<g id="node5" class="node">
<title>Node5</title>
<g id="a_node5"><a xlink:href="os__memory_8c.html#a29ccc3e0a668c0be4b285bc74ef6d920" target="_top" xlink:title="Function used to get the value of a single map entry, this is made public so the allocation strategie...">
<polygon fill="white" stroke="black" points="507,-76.5 507,-95.5 602,-95.5 602,-76.5 507,-76.5"/>
<text text-anchor="middle" x="554.5" y="-83.5" font-family="FreeSans" font-size="10.00">os_getMapEntry</text>
</a>
</g>
</g>
<!-- Node1&#45;&gt;Node5 -->
<g id="edge9" class="edge">
<title>Node1&#45;&gt;Node5</title>
<path fill="none" stroke="midnightblue" d="M131.05,-79.36C142.99,-78.38 155.36,-77.52 167,-77 284.03,-71.77 421.14,-77.86 496.55,-82.26"/>
<polygon fill="midnightblue" stroke="midnightblue" points="496.58,-85.77 506.78,-82.87 497,-78.78 496.58,-85.77"/>
</g>
<!-- Node8 -->
<g id="node8" class="node">
<title>Node8</title>
<g id="a_node8"><a xlink:href="os__scheduler_8c.html#a21546fdd22e5e6818e50856a119d98e0" target="_top" xlink:title="leaves a critical code section">
<polygon fill="white" stroke="black" points="168.5,-0.5 168.5,-19.5 299.5,-19.5 299.5,-0.5 168.5,-0.5"/>
<text text-anchor="middle" x="234" y="-7.5" font-family="FreeSans" font-size="10.00">os_leaveCriticalSection</text>
</a>
</g>
</g>
<!-- Node1&#45;&gt;Node8 -->
<g id="edge10" class="edge">
<title>Node1&#45;&gt;Node8</title>
<path fill="none" stroke="midnightblue" d="M83.25,-76.49C102.94,-65.5 136.77,-47.25 167,-34 175.77,-30.15 185.38,-26.41 194.48,-23.06"/>
<polygon fill="midnightblue" stroke="midnightblue" points="195.87,-26.28 204.09,-19.6 193.5,-19.7 195.87,-26.28"/>
</g>
<!-- Node3&#45;&gt;Node2 -->
<g id="edge3" class="edge">
<title>Node3&#45;&gt;Node2</title>
<path fill="none" stroke="midnightblue" d="M253.44,-105.53C273.6,-115.7 307.03,-131.85 337,-143 343.09,-145.26 349.57,-147.42 356.01,-149.42"/>
<polygon fill="midnightblue" stroke="midnightblue" points="355.44,-152.91 366.02,-152.42 357.45,-146.2 355.44,-152.91"/>
</g>
<!-- Node4 -->
<g id="node4" class="node">
<title>Node4</title>
<g id="a_node4"><a xlink:href="os__memory_8c.html#a292385f9ee19516237f51ab76c76405e" target="_top" xlink:title="Get the address of the first byte of chunk.">
<polygon fill="white" stroke="black" points="337,-114.5 337,-133.5 471,-133.5 471,-114.5 337,-114.5"/>
<text text-anchor="middle" x="404" y="-121.5" font-family="FreeSans" font-size="10.00">os_getFirstByteOfChunk</text>
</a>
</g>
</g>
<!-- Node3&#45;&gt;Node4 -->
<g id="edge4" class="edge">
<title>Node3&#45;&gt;Node4</title>
<path fill="none" stroke="midnightblue" d="M292.35,-105.56C306.4,-107.9 321.57,-110.43 336.03,-112.84"/>
<polygon fill="midnightblue" stroke="midnightblue" points="335.47,-116.29 345.91,-114.49 336.62,-109.39 335.47,-116.29"/>
</g>
<!-- Node3&#45;&gt;Node5 -->
<g id="edge8" class="edge">
<title>Node3&#45;&gt;Node5</title>
<path fill="none" stroke="midnightblue" d="M301.38,-93.92C359.1,-92.1 441.84,-89.51 496.58,-87.79"/>
<polygon fill="midnightblue" stroke="midnightblue" points="496.92,-91.28 506.81,-87.47 496.7,-84.28 496.92,-91.28"/>
</g>
<!-- Node4&#45;&gt;Node5 -->
<g id="edge5" class="edge">
<title>Node4&#45;&gt;Node5</title>
<path fill="none" stroke="midnightblue" d="M442.47,-114.41C461.89,-109.44 485.8,-103.32 506.45,-98.04"/>
<polygon fill="midnightblue" stroke="midnightblue" points="507.48,-101.39 516.3,-95.52 505.74,-94.61 507.48,-101.39"/>
</g>
<!-- Node6 -->
<g id="node6" class="node">
<title>Node6</title>
<g id="a_node6"><a xlink:href="os__memory_8c.html#ae420976ba4abbd069aff795935b9636c" target="_top" xlink:title="Reads the value of the higher nibble of the given address.">
<polygon fill="white" stroke="black" points="638,-95.5 638,-114.5 724,-114.5 724,-95.5 638,-95.5"/>
<text text-anchor="middle" x="681" y="-102.5" font-family="FreeSans" font-size="10.00">getHighNibble</text>
</a>
</g>
</g>
<!-- Node5&#45;&gt;Node6 -->
<g id="edge6" class="edge">
<title>Node5&#45;&gt;Node6</title>
<path fill="none" stroke="midnightblue" d="M602.21,-93.13C610.64,-94.42 619.48,-95.76 628.05,-97.07"/>
<polygon fill="midnightblue" stroke="midnightblue" points="627.53,-100.53 637.95,-98.58 628.59,-93.61 627.53,-100.53"/>
</g>
<!-- Node7 -->
<g id="node7" class="node">
<title>Node7</title>
<g id="a_node7"><a xlink:href="os__memory_8c.html#a01bd9b56dbbeb0af404043ceca5c8818" target="_top" xlink:title="Reads the value of the lower nibble of the given address.">
<polygon fill="white" stroke="black" points="639.5,-57.5 639.5,-76.5 722.5,-76.5 722.5,-57.5 639.5,-57.5"/>
<text text-anchor="middle" x="681" y="-64.5" font-family="FreeSans" font-size="10.00">getLowNibble</text>
</a>
</g>
</g>
<!-- Node5&#45;&gt;Node7 -->
<g id="edge7" class="edge">
<title>Node5&#45;&gt;Node7</title>
<path fill="none" stroke="midnightblue" d="M602.21,-78.87C611.04,-77.52 620.3,-76.11 629.25,-74.75"/>
<polygon fill="midnightblue" stroke="midnightblue" points="629.8,-78.2 639.16,-73.23 628.75,-71.28 629.8,-78.2"/>
</g>
</g>
</svg>
