<?xml version="1.0" encoding="UTF-8" standalone="no"?>
<!DOCTYPE svg PUBLIC "-//W3C//DTD SVG 1.1//EN"
 "http://www.w3.org/Graphics/SVG/1.1/DTD/svg11.dtd">
<!-- Generated by graphviz version 2.43.0 (0)
 -->
<!-- Title: os_sh_read Pages: 1 -->
<svg width="800pt" height="180pt"
 viewBox="0.00 0.00 800.00 180.00" xmlns="http://www.w3.org/2000/svg" xmlns:xlink="http://www.w3.org/1999/xlink">
<g id="graph0" class="graph" transform="scale(1 1) rotate(0) translate(4 176)">
<title>os_sh_read</title>
<polygon fill="white" stroke="transparent" points="-4,4 -4,-176 796,-176 796,4 -4,4"/>
<!-- Node1 -->
<g id="node1" class="node">
<title>Node1</title>
<g id="a_node1"><a xlink:title="Function used to read from shared memory.">
<polygon fill="#bfbfbf" stroke="black" points="0,-95.5 0,-114.5 71,-114.5 71,-95.5 0,-95.5"/>
<text text-anchor="middle" x="35.5" y="-102.5" font-family="FreeSans" font-size="10.00">os_sh_read</text>
</a>
</g>
</g>
<!-- Node2 -->
<g id="node2" class="node">
<title>Node2</title>
<g id="a_node2"><a xlink:href="os__memory_8c.html#af4b11f1dd58f3cec9668a6be98101be4" target="_top" xlink:title="Get the size of a chunk on a given address.">
<polygon fill="white" stroke="black" points="254.5,-152.5 254.5,-171.5 354.5,-171.5 354.5,-152.5 254.5,-152.5"/>
<text text-anchor="middle" x="304.5" y="-159.5" font-family="FreeSans" font-size="10.00">os_getChunkSize</text>
</a>
</g>
</g>
<!-- Node1&#45;&gt;Node2 -->
<g id="edge1" class="edge">
<title>Node1&#45;&gt;Node2</title>
<path fill="none" stroke="midnightblue" d="M53.01,-114.56C66.94,-122.17 87.65,-132.44 107,-138 151.97,-150.92 204.69,-156.88 244.19,-159.64"/>
<polygon fill="midnightblue" stroke="midnightblue" points="243.99,-163.13 254.19,-160.29 244.44,-156.15 243.99,-163.13"/>
</g>
<!-- Node3 -->
<g id="node3" class="node">
<title>Node3</title>
<g id="a_node3"><a xlink:href="os__memory_8c.html#a292385f9ee19516237f51ab76c76405e" target="_top" xlink:title="Get the address of the first byte of chunk.">
<polygon fill="white" stroke="black" points="405,-95.5 405,-114.5 539,-114.5 539,-95.5 405,-95.5"/>
<text text-anchor="middle" x="472" y="-102.5" font-family="FreeSans" font-size="10.00">os_getFirstByteOfChunk</text>
</a>
</g>
</g>
<!-- Node1&#45;&gt;Node3 -->
<g id="edge7" class="edge">
<title>Node1&#45;&gt;Node3</title>
<path fill="none" stroke="midnightblue" d="M71.45,-105.86C132.03,-107.23 260.48,-109.6 369,-108 377.34,-107.88 386.06,-107.7 394.74,-107.49"/>
<polygon fill="midnightblue" stroke="midnightblue" points="394.98,-110.98 404.89,-107.23 394.8,-103.99 394.98,-110.98"/>
</g>
<!-- Node7 -->
<g id="node7" class="node">
<title>Node7</title>
<g id="a_node7"><a xlink:href="os__memory_8c.html#ab9125c3a1039f2e78695c58e2ea677b4" target="_top" xlink:title="Function that should be private but is used by some Testtasks.">
<polygon fill="white" stroke="black" points="118,-76.5 118,-95.5 193,-95.5 193,-76.5 118,-76.5"/>
<text text-anchor="middle" x="155.5" y="-83.5" font-family="FreeSans" font-size="10.00">os_sh_close</text>
</a>
</g>
</g>
<!-- Node1&#45;&gt;Node7 -->
<g id="edge8" class="edge">
<title>Node1&#45;&gt;Node7</title>
<path fill="none" stroke="midnightblue" d="M71.27,-99.4C82.74,-97.55 95.69,-95.47 107.9,-93.5"/>
<polygon fill="midnightblue" stroke="midnightblue" points="108.62,-96.93 117.93,-91.89 107.5,-90.02 108.62,-96.93"/>
</g>
<!-- Node10 -->
<g id="node10" class="node">
<title>Node10</title>
<g id="a_node10"><a xlink:href="os__memory_8c.html#ab6c191363e0b7832ece936079d0aabf0" target="_top" xlink:title="Function that should be private but is used by some Testtasks.">
<polygon fill="white" stroke="black" points="107,-38.5 107,-57.5 204,-57.5 204,-38.5 107,-38.5"/>
<text text-anchor="middle" x="155.5" y="-45.5" font-family="FreeSans" font-size="10.00">os_sh_readOpen</text>
</a>
</g>
</g>
<!-- Node1&#45;&gt;Node10 -->
<g id="edge14" class="edge">
<title>Node1&#45;&gt;Node10</title>
<path fill="none" stroke="midnightblue" d="M53.03,-95.39C67.15,-87.36 88.11,-75.84 107,-67 111.09,-65.09 115.44,-63.18 119.77,-61.36"/>
<polygon fill="midnightblue" stroke="midnightblue" points="121.2,-64.56 129.13,-57.53 118.55,-58.08 121.2,-64.56"/>
</g>
<!-- Node2&#45;&gt;Node3 -->
<g id="edge2" class="edge">
<title>Node2&#45;&gt;Node3</title>
<path fill="none" stroke="midnightblue" d="M333.2,-152.46C360.65,-143.01 402.88,-128.46 433.36,-117.96"/>
<polygon fill="midnightblue" stroke="midnightblue" points="434.89,-121.14 443.21,-114.57 432.61,-114.52 434.89,-121.14"/>
</g>
<!-- Node4 -->
<g id="node4" class="node">
<title>Node4</title>
<g id="a_node4"><a xlink:href="os__memory_8c.html#a29ccc3e0a668c0be4b285bc74ef6d920" target="_top" xlink:title="Function used to get the value of a single map entry, this is made public so the allocation strategie...">
<polygon fill="white" stroke="black" points="575,-95.5 575,-114.5 670,-114.5 670,-95.5 575,-95.5"/>
<text text-anchor="middle" x="622.5" y="-102.5" font-family="FreeSans" font-size="10.00">os_getMapEntry</text>
</a>
</g>
</g>
<!-- Node2&#45;&gt;Node4 -->
<g id="edge6" class="edge">
<title>Node2&#45;&gt;Node4</title>
<path fill="none" stroke="midnightblue" d="M354.86,-154.92C402.24,-147.9 475.73,-136.42 539,-124 549.93,-121.85 561.62,-119.31 572.66,-116.8"/>
<polygon fill="midnightblue" stroke="midnightblue" points="573.63,-120.17 582.58,-114.51 572.05,-113.35 573.63,-120.17"/>
</g>
<!-- Node3&#45;&gt;Node4 -->
<g id="edge3" class="edge">
<title>Node3&#45;&gt;Node4</title>
<path fill="none" stroke="midnightblue" d="M539.43,-105C547.79,-105 556.29,-105 564.49,-105"/>
<polygon fill="midnightblue" stroke="midnightblue" points="564.68,-108.5 574.68,-105 564.68,-101.5 564.68,-108.5"/>
</g>
<!-- Node5 -->
<g id="node5" class="node">
<title>Node5</title>
<g id="a_node5"><a xlink:href="os__memory_8c.html#ae420976ba4abbd069aff795935b9636c" target="_top" xlink:title="Reads the value of the higher nibble of the given address.">
<polygon fill="white" stroke="black" points="706,-114.5 706,-133.5 792,-133.5 792,-114.5 706,-114.5"/>
<text text-anchor="middle" x="749" y="-121.5" font-family="FreeSans" font-size="10.00">getHighNibble</text>
</a>
</g>
</g>
<!-- Node4&#45;&gt;Node5 -->
<g id="edge4" class="edge">
<title>Node4&#45;&gt;Node5</title>
<path fill="none" stroke="midnightblue" d="M670.21,-112.13C678.64,-113.42 687.48,-114.76 696.05,-116.07"/>
<polygon fill="midnightblue" stroke="midnightblue" points="695.53,-119.53 705.95,-117.58 696.59,-112.61 695.53,-119.53"/>
</g>
<!-- Node6 -->
<g id="node6" class="node">
<title>Node6</title>
<g id="a_node6"><a xlink:href="os__memory_8c.html#a01bd9b56dbbeb0af404043ceca5c8818" target="_top" xlink:title="Reads the value of the lower nibble of the given address.">
<polygon fill="white" stroke="black" points="707.5,-76.5 707.5,-95.5 790.5,-95.5 790.5,-76.5 707.5,-76.5"/>
<text text-anchor="middle" x="749" y="-83.5" font-family="FreeSans" font-size="10.00">getLowNibble</text>
</a>
</g>
</g>
<!-- Node4&#45;&gt;Node6 -->
<g id="edge5" class="edge">
<title>Node4&#45;&gt;Node6</title>
<path fill="none" stroke="midnightblue" d="M670.21,-97.87C679.04,-96.52 688.3,-95.11 697.25,-93.75"/>
<polygon fill="midnightblue" stroke="midnightblue" points="697.8,-97.2 707.16,-92.23 696.75,-90.28 697.8,-97.2"/>
</g>
<!-- Node7&#45;&gt;Node3 -->
<g id="edge13" class="edge">
<title>Node7&#45;&gt;Node3</title>
<path fill="none" stroke="midnightblue" d="M193.19,-88.22C242.41,-91.19 331.01,-96.54 394.94,-100.4"/>
<polygon fill="midnightblue" stroke="midnightblue" points="394.78,-103.9 404.97,-101.01 395.2,-96.91 394.78,-103.9"/>
</g>
<!-- Node8 -->
<g id="node8" class="node">
<title>Node8</title>
<g id="a_node8"><a xlink:href="os__memory_8c.html#ab493cf6ec58f933b4751b0d2a2f77c4a" target="_top" xlink:title=" ">
<polygon fill="white" stroke="black" points="251.5,-0.5 251.5,-19.5 357.5,-19.5 357.5,-0.5 251.5,-0.5"/>
<text text-anchor="middle" x="304.5" y="-7.5" font-family="FreeSans" font-size="10.00">getOwnerOfChunk</text>
</a>
</g>
</g>
<!-- Node7&#45;&gt;Node8 -->
<g id="edge9" class="edge">
<title>Node7&#45;&gt;Node8</title>
<path fill="none" stroke="midnightblue" d="M186.14,-76.44C192.3,-73.84 198.56,-70.69 204,-67 223.25,-53.93 220.19,-41.19 240,-29 243.43,-26.89 247.11,-25 250.91,-23.31"/>
<polygon fill="midnightblue" stroke="midnightblue" points="252.49,-26.45 260.51,-19.52 249.92,-19.94 252.49,-26.45"/>
</g>
<!-- Node9 -->
<g id="node9" class="node">
<title>Node9</title>
<g id="a_node9"><a xlink:href="os__scheduler_8c.html#a9d27b2dbf45ce6648916ed5ceb0a38df" target="_top" xlink:title="enters a critical code section">
<polygon fill="white" stroke="black" points="240,-38.5 240,-57.5 369,-57.5 369,-38.5 240,-38.5"/>
<text text-anchor="middle" x="304.5" y="-45.5" font-family="FreeSans" font-size="10.00">os_enterCriticalSection</text>
</a>
</g>
</g>
<!-- Node7&#45;&gt;Node9 -->
<g id="edge12" class="edge">
<title>Node7&#45;&gt;Node9</title>
<path fill="none" stroke="midnightblue" d="M193.22,-76.51C212.51,-71.52 236.36,-65.36 256.94,-60.04"/>
<polygon fill="midnightblue" stroke="midnightblue" points="257.94,-63.39 266.74,-57.5 256.19,-56.62 257.94,-63.39"/>
</g>
<!-- Node8&#45;&gt;Node3 -->
<g id="edge10" class="edge">
<title>Node8&#45;&gt;Node3</title>
<path fill="none" stroke="midnightblue" d="M347.26,-19.55C354.75,-22.08 362.3,-25.19 369,-29 387.88,-39.72 387.85,-48.7 405,-62 418.04,-72.12 433.46,-82.25 446.11,-90.14"/>
<polygon fill="midnightblue" stroke="midnightblue" points="444.41,-93.2 454.76,-95.45 448.07,-87.24 444.41,-93.2"/>
</g>
<!-- Node8&#45;&gt;Node4 -->
<g id="edge11" class="edge">
<title>Node8&#45;&gt;Node4</title>
<path fill="none" stroke="midnightblue" d="M337.48,-19.56C347.57,-22.58 358.75,-25.92 369,-29 443.25,-51.28 529.75,-77.34 579.81,-92.43"/>
<polygon fill="midnightblue" stroke="midnightblue" points="579.03,-95.85 589.62,-95.39 581.05,-89.15 579.03,-95.85"/>
</g>
<!-- Node10&#45;&gt;Node8 -->
<g id="edge15" class="edge">
<title>Node10&#45;&gt;Node8</title>
<path fill="none" stroke="midnightblue" d="M193.59,-38.41C212.82,-33.44 236.49,-27.32 256.93,-22.04"/>
<polygon fill="midnightblue" stroke="midnightblue" points="257.87,-25.41 266.67,-19.52 256.11,-18.63 257.87,-25.41"/>
</g>
<!-- Node10&#45;&gt;Node9 -->
<g id="edge16" class="edge">
<title>Node10&#45;&gt;Node9</title>
<path fill="none" stroke="midnightblue" d="M204.23,-48C212.42,-48 221.11,-48 229.79,-48"/>
<polygon fill="midnightblue" stroke="midnightblue" points="229.97,-51.5 239.97,-48 229.97,-44.5 229.97,-51.5"/>
</g>
</g>
</svg>
