<?xml version="1.0" encoding="UTF-8" standalone="no"?>
<!DOCTYPE svg PUBLIC "-//W3C//DTD SVG 1.1//EN"
 "http://www.w3.org/Graphics/SVG/1.1/DTD/svg11.dtd">
<!-- Generated by graphviz version 2.43.0 (0)
 -->
<!-- Title: readSRAM_external Pages: 1 -->
<svg width="286pt" height="104pt"
 viewBox="0.00 0.00 286.00 104.00" xmlns="http://www.w3.org/2000/svg" xmlns:xlink="http://www.w3.org/1999/xlink">
<g id="graph0" class="graph" transform="scale(1 1) rotate(0) translate(4 100)">
<title>readSRAM_external</title>
<polygon fill="white" stroke="transparent" points="-4,4 -4,-100 282,-100 282,4 -4,4"/>
<!-- Node1 -->
<g id="node1" class="node">
<title>Node1</title>
<g id="a_node1"><a xlink:title="Private function to read a single byte to the external SRAM It will not check if its call is valid....">
<polygon fill="#bfbfbf" stroke="black" points="0,-38.5 0,-57.5 113,-57.5 113,-38.5 0,-38.5"/>
<text text-anchor="middle" x="56.5" y="-45.5" font-family="FreeSans" font-size="10.00">readSRAM_external</text>
</a>
</g>
</g>
<!-- Node2 -->
<g id="node2" class="node">
<title>Node2</title>
<g id="a_node2"><a xlink:href="os__scheduler_8c.html#a9d27b2dbf45ce6648916ed5ceb0a38df" target="_top" xlink:title="enters a critical code section">
<polygon fill="white" stroke="black" points="149,-76.5 149,-95.5 278,-95.5 278,-76.5 149,-76.5"/>
<text text-anchor="middle" x="213.5" y="-83.5" font-family="FreeSans" font-size="10.00">os_enterCriticalSection</text>
</a>
</g>
</g>
<!-- Node1&#45;&gt;Node2 -->
<g id="edge1" class="edge">
<title>Node1&#45;&gt;Node2</title>
<path fill="none" stroke="midnightblue" d="M96.61,-57.59C116.97,-62.58 142.07,-68.73 163.69,-74.03"/>
<polygon fill="midnightblue" stroke="midnightblue" points="163.12,-77.5 173.67,-76.48 164.79,-70.7 163.12,-77.5"/>
</g>
<!-- Node3 -->
<g id="node3" class="node">
<title>Node3</title>
<g id="a_node3"><a xlink:href="os__spi_8h.html#aa2ecb64d76ce8721fdab1a60e6061ebd" target="_top" xlink:title="Performs a SPI send This method blocks until the data exchange is completed. Additionally,...">
<polygon fill="white" stroke="black" points="175.5,-38.5 175.5,-57.5 251.5,-57.5 251.5,-38.5 175.5,-38.5"/>
<text text-anchor="middle" x="213.5" y="-45.5" font-family="FreeSans" font-size="10.00">os_spi_send</text>
</a>
</g>
</g>
<!-- Node1&#45;&gt;Node3 -->
<g id="edge2" class="edge">
<title>Node1&#45;&gt;Node3</title>
<path fill="none" stroke="midnightblue" d="M113.02,-48C129.98,-48 148.47,-48 164.86,-48"/>
<polygon fill="midnightblue" stroke="midnightblue" points="165.29,-51.5 175.29,-48 165.29,-44.5 165.29,-51.5"/>
</g>
<!-- Node4 -->
<g id="node4" class="node">
<title>Node4</title>
<g id="a_node4"><a xlink:href="os__mem__drivers_8c.html#a586e4c730a90597fa3b966b59204f8f3" target="_top" xlink:title="Activates the external SRAM as SPI slave.">
<polygon fill="white" stroke="black" points="167.5,-0.5 167.5,-19.5 259.5,-19.5 259.5,-0.5 167.5,-0.5"/>
<text text-anchor="middle" x="213.5" y="-7.5" font-family="FreeSans" font-size="10.00">select_memory</text>
</a>
</g>
</g>
<!-- Node1&#45;&gt;Node4 -->
<g id="edge3" class="edge">
<title>Node1&#45;&gt;Node4</title>
<path fill="none" stroke="midnightblue" d="M96.61,-38.41C116.97,-33.42 142.07,-27.27 163.69,-21.97"/>
<polygon fill="midnightblue" stroke="midnightblue" points="164.79,-25.3 173.67,-19.52 163.12,-18.5 164.79,-25.3"/>
</g>
</g>
</svg>
