<?xml version="1.0" encoding="UTF-8" standalone="no"?>
<!DOCTYPE svg PUBLIC "-//W3C//DTD SVG 1.1//EN"
 "http://www.w3.org/Graphics/SVG/1.1/DTD/svg11.dtd">
<!-- Generated by graphviz version 2.43.0 (0)
 -->
<!-- Title: os_user_privileges.h Pages: 1 -->
<svg width="463pt" height="308pt"
 viewBox="0.00 0.00 463.00 308.00" xmlns="http://www.w3.org/2000/svg" xmlns:xlink="http://www.w3.org/1999/xlink">
<g id="graph0" class="graph" transform="scale(1 1) rotate(0) translate(4 304)">
<title>os_user_privileges.h</title>
<polygon fill="white" stroke="transparent" points="-4,4 -4,-304 459,-304 459,4 -4,4"/>
<!-- Node1 -->
<g id="node1" class="node">
<title>Node1</title>
<g id="a_node1"><a xlink:title="User privileges specification used in part by the Taskman.">
<polygon fill="#bfbfbf" stroke="black" points="155.5,-280.5 155.5,-299.5 271.5,-299.5 271.5,-280.5 155.5,-280.5"/>
<text text-anchor="middle" x="213.5" y="-287.5" font-family="FreeSans" font-size="10.00">os_user_privileges.h</text>
</a>
</g>
</g>
<!-- Node2 -->
<g id="node2" class="node">
<title>Node2</title>
<g id="a_node2"><a xlink:title=" ">
<polygon fill="white" stroke="#bfbfbf" points="0,-56.5 0,-75.5 53,-75.5 53,-56.5 0,-56.5"/>
<text text-anchor="middle" x="26.5" y="-63.5" font-family="FreeSans" font-size="10.00">stdint.h</text>
</a>
</g>
</g>
<!-- Node1&#45;&gt;Node2 -->
<g id="edge1" class="edge">
<title>Node1&#45;&gt;Node2</title>
<path fill="none" stroke="midnightblue" d="M198.25,-280.42C163.56,-259.95 79.01,-204.52 43.5,-132 36.29,-117.27 31.87,-99.11 29.35,-85.73"/>
<polygon fill="midnightblue" stroke="midnightblue" points="32.79,-85.07 27.66,-75.8 25.89,-86.24 32.79,-85.07"/>
</g>
<!-- Node3 -->
<g id="node3" class="node">
<title>Node3</title>
<g id="a_node3"><a xlink:title=" ">
<polygon fill="white" stroke="#bfbfbf" points="342,-224.5 342,-243.5 437,-243.5 437,-224.5 342,-224.5"/>
<text text-anchor="middle" x="389.5" y="-231.5" font-family="FreeSans" font-size="10.00">avr/pgmspace.h</text>
</a>
</g>
</g>
<!-- Node1&#45;&gt;Node3 -->
<g id="edge2" class="edge">
<title>Node1&#45;&gt;Node3</title>
<path fill="none" stroke="midnightblue" d="M241.39,-280.44C271.25,-271.28 318.81,-256.69 351.96,-246.52"/>
<polygon fill="midnightblue" stroke="midnightblue" points="353.21,-249.8 361.74,-243.52 351.16,-243.1 353.21,-249.8"/>
</g>
<!-- Node4 -->
<g id="node4" class="node">
<title>Node4</title>
<g id="a_node4"><a xlink:href="os__scheduler_8h.html" target="_top" xlink:title="Scheduling module for the OS.">
<polygon fill="white" stroke="black" points="96,-168.5 96,-187.5 185,-187.5 185,-168.5 96,-168.5"/>
<text text-anchor="middle" x="140.5" y="-175.5" font-family="FreeSans" font-size="10.00">os_scheduler.h</text>
</a>
</g>
</g>
<!-- Node1&#45;&gt;Node4 -->
<g id="edge3" class="edge">
<title>Node1&#45;&gt;Node4</title>
<path fill="none" stroke="midnightblue" d="M207.77,-280.37C195.72,-262.22 167.58,-219.8 151.78,-195.99"/>
<polygon fill="midnightblue" stroke="midnightblue" points="154.65,-193.99 146.2,-187.59 148.81,-197.86 154.65,-193.99"/>
</g>
<!-- Node6 -->
<g id="node6" class="node">
<title>Node6</title>
<g id="a_node6"><a xlink:href="defines_8h.html" target="_top" xlink:title="Simple definitions and assembler&#45;macros, mostly 8/16&#45;Bit values.">
<polygon fill="white" stroke="black" points="189,-112.5 189,-131.5 250,-131.5 250,-112.5 189,-112.5"/>
<text text-anchor="middle" x="219.5" y="-119.5" font-family="FreeSans" font-size="10.00">defines.h</text>
</a>
</g>
</g>
<!-- Node1&#45;&gt;Node6 -->
<g id="edge11" class="edge">
<title>Node1&#45;&gt;Node6</title>
<path fill="none" stroke="midnightblue" d="M213.82,-280.08C214.77,-253.95 217.54,-177.21 218.83,-141.58"/>
<polygon fill="midnightblue" stroke="midnightblue" points="222.33,-141.69 219.19,-131.57 215.33,-141.44 222.33,-141.69"/>
</g>
<!-- Node10 -->
<g id="node10" class="node">
<title>Node10</title>
<g id="a_node10"><a xlink:href="os__memory_8h.html" target="_top" xlink:title="Library for OS memory management.">
<polygon fill="white" stroke="black" points="241.5,-224.5 241.5,-243.5 323.5,-243.5 323.5,-224.5 241.5,-224.5"/>
<text text-anchor="middle" x="282.5" y="-231.5" font-family="FreeSans" font-size="10.00">os_memory.h</text>
</a>
</g>
</g>
<!-- Node1&#45;&gt;Node10 -->
<g id="edge12" class="edge">
<title>Node1&#45;&gt;Node10</title>
<path fill="none" stroke="midnightblue" d="M224.59,-280.32C234.99,-272.18 250.76,-259.84 263.22,-250.09"/>
<polygon fill="midnightblue" stroke="midnightblue" points="265.49,-252.75 271.21,-243.83 261.18,-247.24 265.49,-252.75"/>
</g>
<!-- Node5 -->
<g id="node5" class="node">
<title>Node5</title>
<g id="a_node5"><a xlink:title=" ">
<polygon fill="white" stroke="#bfbfbf" points="74.5,-56.5 74.5,-75.5 136.5,-75.5 136.5,-56.5 74.5,-56.5"/>
<text text-anchor="middle" x="105.5" y="-63.5" font-family="FreeSans" font-size="10.00">stdbool.h</text>
</a>
</g>
</g>
<!-- Node4&#45;&gt;Node5 -->
<g id="edge4" class="edge">
<title>Node4&#45;&gt;Node5</title>
<path fill="none" stroke="midnightblue" d="M142.49,-168.28C145,-155.52 148.22,-131.17 141.5,-112 137.71,-101.21 130.13,-91.08 122.9,-83.18"/>
<polygon fill="midnightblue" stroke="midnightblue" points="125.17,-80.49 115.66,-75.81 120.17,-85.4 125.17,-80.49"/>
</g>
<!-- Node4&#45;&gt;Node6 -->
<g id="edge5" class="edge">
<title>Node4&#45;&gt;Node6</title>
<path fill="none" stroke="midnightblue" d="M153.19,-168.32C165.4,-159.98 184.08,-147.21 198.5,-137.35"/>
<polygon fill="midnightblue" stroke="midnightblue" points="200.56,-140.19 206.84,-131.65 196.61,-134.41 200.56,-140.19"/>
</g>
<!-- Node9 -->
<g id="node9" class="node">
<title>Node9</title>
<g id="a_node9"><a xlink:href="os__process_8h.html" target="_top" xlink:title="Struct specifying a process.">
<polygon fill="white" stroke="black" points="52.5,-112.5 52.5,-131.5 132.5,-131.5 132.5,-112.5 52.5,-112.5"/>
<text text-anchor="middle" x="92.5" y="-119.5" font-family="FreeSans" font-size="10.00">os_process.h</text>
</a>
</g>
</g>
<!-- Node4&#45;&gt;Node9 -->
<g id="edge8" class="edge">
<title>Node4&#45;&gt;Node9</title>
<path fill="none" stroke="midnightblue" d="M132.57,-168.08C125.65,-160.3 115.43,-148.8 107.05,-139.37"/>
<polygon fill="midnightblue" stroke="midnightblue" points="109.54,-136.9 100.28,-131.75 104.31,-141.55 109.54,-136.9"/>
</g>
<!-- Node7 -->
<g id="node7" class="node">
<title>Node7</title>
<g id="a_node7"><a xlink:href="atmega644constants_8h.html" target="_top" xlink:title="Constants for ATMega644 and EVA board. Defines several useful constants for the ATMega644.">
<polygon fill="white" stroke="black" points="155.5,-56.5 155.5,-75.5 283.5,-75.5 283.5,-56.5 155.5,-56.5"/>
<text text-anchor="middle" x="219.5" y="-63.5" font-family="FreeSans" font-size="10.00">atmega644constants.h</text>
</a>
</g>
</g>
<!-- Node6&#45;&gt;Node7 -->
<g id="edge6" class="edge">
<title>Node6&#45;&gt;Node7</title>
<path fill="none" stroke="midnightblue" d="M219.5,-112.08C219.5,-105.01 219.5,-94.86 219.5,-85.99"/>
<polygon fill="midnightblue" stroke="midnightblue" points="223,-85.75 219.5,-75.75 216,-85.75 223,-85.75"/>
</g>
<!-- Node8 -->
<g id="node8" class="node">
<title>Node8</title>
<g id="a_node8"><a xlink:title=" ">
<polygon fill="white" stroke="#bfbfbf" points="193,-0.5 193,-19.5 246,-19.5 246,-0.5 193,-0.5"/>
<text text-anchor="middle" x="219.5" y="-7.5" font-family="FreeSans" font-size="10.00">avr/io.h</text>
</a>
</g>
</g>
<!-- Node7&#45;&gt;Node8 -->
<g id="edge7" class="edge">
<title>Node7&#45;&gt;Node8</title>
<path fill="none" stroke="midnightblue" d="M219.5,-56.08C219.5,-49.01 219.5,-38.86 219.5,-29.99"/>
<polygon fill="midnightblue" stroke="midnightblue" points="223,-29.75 219.5,-19.75 216,-29.75 223,-29.75"/>
</g>
<!-- Node9&#45;&gt;Node2 -->
<g id="edge9" class="edge">
<title>Node9&#45;&gt;Node2</title>
<path fill="none" stroke="midnightblue" d="M81.9,-112.32C72.04,-104.26 57.15,-92.08 45.28,-82.37"/>
<polygon fill="midnightblue" stroke="midnightblue" points="47.25,-79.46 37.3,-75.83 42.82,-84.88 47.25,-79.46"/>
</g>
<!-- Node9&#45;&gt;Node5 -->
<g id="edge10" class="edge">
<title>Node9&#45;&gt;Node5</title>
<path fill="none" stroke="midnightblue" d="M94.65,-112.08C96.37,-104.93 98.85,-94.64 101,-85.69"/>
<polygon fill="midnightblue" stroke="midnightblue" points="104.46,-86.29 103.39,-75.75 97.65,-84.65 104.46,-86.29"/>
</g>
<!-- Node10&#45;&gt;Node4 -->
<g id="edge19" class="edge">
<title>Node10&#45;&gt;Node4</title>
<path fill="none" stroke="midnightblue" d="M260,-224.44C236.42,-215.48 199.18,-201.31 172.54,-191.18"/>
<polygon fill="midnightblue" stroke="midnightblue" points="173.49,-187.8 162.9,-187.52 171,-194.34 173.49,-187.8"/>
</g>
<!-- Node11 -->
<g id="node11" class="node">
<title>Node11</title>
<g id="a_node11"><a xlink:href="os__mem__drivers_8h.html" target="_top" xlink:title="Drivers for OS memory management.">
<polygon fill="white" stroke="black" points="348,-112.5 348,-131.5 455,-131.5 455,-112.5 348,-112.5"/>
<text text-anchor="middle" x="401.5" y="-119.5" font-family="FreeSans" font-size="10.00">os_mem_drivers.h</text>
</a>
</g>
</g>
<!-- Node10&#45;&gt;Node11 -->
<g id="edge13" class="edge">
<title>Node10&#45;&gt;Node11</title>
<path fill="none" stroke="midnightblue" d="M320.01,-224.44C341.11,-217.81 366.38,-206.53 382.5,-188 393.71,-175.12 398.31,-155.95 400.2,-141.76"/>
<polygon fill="midnightblue" stroke="midnightblue" points="403.7,-141.96 401.21,-131.66 396.73,-141.26 403.7,-141.96"/>
</g>
<!-- Node13 -->
<g id="node13" class="node">
<title>Node13</title>
<g id="a_node13"><a xlink:href="os__memheap__drivers_8h.html" target="_top" xlink:title="Drivers for OS heap management.">
<polygon fill="white" stroke="black" points="242,-168.5 242,-187.5 373,-187.5 373,-168.5 242,-168.5"/>
<text text-anchor="middle" x="307.5" y="-175.5" font-family="FreeSans" font-size="10.00">os_memheap_drivers.h</text>
</a>
</g>
</g>
<!-- Node10&#45;&gt;Node13 -->
<g id="edge15" class="edge">
<title>Node10&#45;&gt;Node13</title>
<path fill="none" stroke="midnightblue" d="M286.63,-224.08C290.01,-216.77 294.92,-206.18 299.12,-197.1"/>
<polygon fill="midnightblue" stroke="midnightblue" points="302.42,-198.3 303.45,-187.75 296.07,-195.36 302.42,-198.3"/>
</g>
<!-- Node12 -->
<g id="node12" class="node">
<title>Node12</title>
<g id="a_node12"><a xlink:title=" ">
<polygon fill="white" stroke="#bfbfbf" points="369,-56.5 369,-75.5 434,-75.5 434,-56.5 369,-56.5"/>
<text text-anchor="middle" x="401.5" y="-63.5" font-family="FreeSans" font-size="10.00">inttypes.h</text>
</a>
</g>
</g>
<!-- Node11&#45;&gt;Node12 -->
<g id="edge14" class="edge">
<title>Node11&#45;&gt;Node12</title>
<path fill="none" stroke="midnightblue" d="M401.5,-112.08C401.5,-105.01 401.5,-94.86 401.5,-85.99"/>
<polygon fill="midnightblue" stroke="midnightblue" points="405,-85.75 401.5,-75.75 398,-85.75 405,-85.75"/>
</g>
<!-- Node13&#45;&gt;Node6 -->
<g id="edge17" class="edge">
<title>Node13&#45;&gt;Node6</title>
<path fill="none" stroke="midnightblue" d="M293.36,-168.32C279.63,-159.9 258.56,-146.97 242.44,-137.07"/>
<polygon fill="midnightblue" stroke="midnightblue" points="243.96,-133.9 233.6,-131.65 240.3,-139.87 243.96,-133.9"/>
</g>
<!-- Node13&#45;&gt;Node11 -->
<g id="edge16" class="edge">
<title>Node13&#45;&gt;Node11</title>
<path fill="none" stroke="midnightblue" d="M322.6,-168.32C337.4,-159.82 360.19,-146.73 377.48,-136.8"/>
<polygon fill="midnightblue" stroke="midnightblue" points="379.51,-139.67 386.43,-131.65 376.02,-133.6 379.51,-139.67"/>
</g>
<!-- Node14 -->
<g id="node14" class="node">
<title>Node14</title>
<g id="a_node14"><a xlink:title=" ">
<polygon fill="white" stroke="#bfbfbf" points="273.5,-112.5 273.5,-131.5 329.5,-131.5 329.5,-112.5 273.5,-112.5"/>
<text text-anchor="middle" x="301.5" y="-119.5" font-family="FreeSans" font-size="10.00">stddef.h</text>
</a>
</g>
</g>
<!-- Node13&#45;&gt;Node14 -->
<g id="edge18" class="edge">
<title>Node13&#45;&gt;Node14</title>
<path fill="none" stroke="midnightblue" d="M306.51,-168.08C305.71,-160.93 304.57,-150.64 303.58,-141.69"/>
<polygon fill="midnightblue" stroke="midnightblue" points="307.06,-141.3 302.47,-131.75 300.1,-142.08 307.06,-141.3"/>
</g>
</g>
</svg>
