<?xml version="1.0" encoding="UTF-8" standalone="no"?>
<!DOCTYPE svg PUBLIC "-//W3C//DTD SVG 1.1//EN"
 "http://www.w3.org/Graphics/SVG/1.1/DTD/svg11.dtd">
<!-- Generated by graphviz version 2.43.0 (0)
 -->
<!-- Title: os_scheduling_strategies.c Pages: 1 -->
<svg width="382pt" height="308pt"
 viewBox="0.00 0.00 381.50 308.00" xmlns="http://www.w3.org/2000/svg" xmlns:xlink="http://www.w3.org/1999/xlink">
<g id="graph0" class="graph" transform="scale(1 1) rotate(0) translate(4 304)">
<title>os_scheduling_strategies.c</title>
<polygon fill="white" stroke="transparent" points="-4,4 -4,-304 377.5,-304 377.5,4 -4,4"/>
<!-- Node1 -->
<g id="node1" class="node">
<title>Node1</title>
<g id="a_node1"><a xlink:title=" ">
<polygon fill="#bfbfbf" stroke="black" points="137,-280.5 137,-299.5 285,-299.5 285,-280.5 137,-280.5"/>
<text text-anchor="middle" x="211" y="-287.5" font-family="FreeSans" font-size="10.00">os_scheduling_strategies.c</text>
</a>
</g>
</g>
<!-- Node2 -->
<g id="node2" class="node">
<title>Node2</title>
<g id="a_node2"><a xlink:href="os__scheduling__strategies_8h.html" target="_top" xlink:title="Scheduling library for the OS.">
<polygon fill="white" stroke="black" points="34.5,-224.5 34.5,-243.5 183.5,-243.5 183.5,-224.5 34.5,-224.5"/>
<text text-anchor="middle" x="109" y="-231.5" font-family="FreeSans" font-size="10.00">os_scheduling_strategies.h</text>
</a>
</g>
</g>
<!-- Node1&#45;&gt;Node2 -->
<g id="edge1" class="edge">
<title>Node1&#45;&gt;Node2</title>
<path fill="none" stroke="midnightblue" d="M194.61,-280.32C178.33,-271.7 153.13,-258.36 134.28,-248.39"/>
<polygon fill="midnightblue" stroke="midnightblue" points="135.82,-245.24 125.35,-243.65 132.55,-251.43 135.82,-245.24"/>
</g>
<!-- Node4 -->
<g id="node4" class="node">
<title>Node4</title>
<g id="a_node4"><a xlink:title=" ">
<polygon fill="white" stroke="#bfbfbf" points="0,-56.5 0,-75.5 62,-75.5 62,-56.5 0,-56.5"/>
<text text-anchor="middle" x="31" y="-63.5" font-family="FreeSans" font-size="10.00">stdbool.h</text>
</a>
</g>
</g>
<!-- Node1&#45;&gt;Node4 -->
<g id="edge14" class="edge">
<title>Node1&#45;&gt;Node4</title>
<path fill="none" stroke="midnightblue" d="M136.92,-280.46C91.35,-273.51 39.07,-261.88 25,-244 -11.88,-197.14 10.56,-119.7 23.61,-84.9"/>
<polygon fill="midnightblue" stroke="midnightblue" points="26.88,-86.14 27.28,-75.55 20.37,-83.58 26.88,-86.14"/>
</g>
<!-- Node5 -->
<g id="node5" class="node">
<title>Node5</title>
<g id="a_node5"><a xlink:href="defines_8h.html" target="_top" xlink:title="Simple definitions and assembler&#45;macros, mostly 8/16&#45;Bit values.">
<polygon fill="white" stroke="black" points="179.5,-112.5 179.5,-131.5 240.5,-131.5 240.5,-112.5 179.5,-112.5"/>
<text text-anchor="middle" x="210" y="-119.5" font-family="FreeSans" font-size="10.00">defines.h</text>
</a>
</g>
</g>
<!-- Node1&#45;&gt;Node5 -->
<g id="edge11" class="edge">
<title>Node1&#45;&gt;Node5</title>
<path fill="none" stroke="midnightblue" d="M210.95,-280.08C210.79,-253.95 210.33,-177.21 210.11,-141.58"/>
<polygon fill="midnightblue" stroke="midnightblue" points="213.61,-141.55 210.05,-131.57 206.61,-141.59 213.61,-141.55"/>
</g>
<!-- Node10 -->
<g id="node10" class="node">
<title>Node10</title>
<g id="a_node10"><a xlink:href="os__core_8h.html" target="_top" xlink:title="Core of the OS.">
<polygon fill="white" stroke="black" points="239.5,-224.5 239.5,-243.5 302.5,-243.5 302.5,-224.5 239.5,-224.5"/>
<text text-anchor="middle" x="271" y="-231.5" font-family="FreeSans" font-size="10.00">os_core.h</text>
</a>
</g>
</g>
<!-- Node1&#45;&gt;Node10 -->
<g id="edge12" class="edge">
<title>Node1&#45;&gt;Node10</title>
<path fill="none" stroke="midnightblue" d="M220.64,-280.32C229.51,-272.34 242.87,-260.31 253.61,-250.65"/>
<polygon fill="midnightblue" stroke="midnightblue" points="256.09,-253.13 261.18,-243.83 251.41,-247.92 256.09,-253.13"/>
</g>
<!-- Node12 -->
<g id="node12" class="node">
<title>Node12</title>
<g id="a_node12"><a xlink:title=" ">
<polygon fill="white" stroke="#bfbfbf" points="320.5,-224.5 320.5,-243.5 373.5,-243.5 373.5,-224.5 320.5,-224.5"/>
<text text-anchor="middle" x="347" y="-231.5" font-family="FreeSans" font-size="10.00">stdlib.h</text>
</a>
</g>
</g>
<!-- Node1&#45;&gt;Node12 -->
<g id="edge15" class="edge">
<title>Node1&#45;&gt;Node12</title>
<path fill="none" stroke="midnightblue" d="M232.55,-280.44C255.03,-271.52 290.49,-257.44 315.98,-247.32"/>
<polygon fill="midnightblue" stroke="midnightblue" points="317.55,-250.46 325.55,-243.52 314.97,-243.95 317.55,-250.46"/>
</g>
<!-- Node3 -->
<g id="node3" class="node">
<title>Node3</title>
<g id="a_node3"><a xlink:href="os__scheduler_8h.html" target="_top" xlink:title="Scheduling module for the OS.">
<polygon fill="white" stroke="black" points="55.5,-168.5 55.5,-187.5 144.5,-187.5 144.5,-168.5 55.5,-168.5"/>
<text text-anchor="middle" x="100" y="-175.5" font-family="FreeSans" font-size="10.00">os_scheduler.h</text>
</a>
</g>
</g>
<!-- Node2&#45;&gt;Node3 -->
<g id="edge2" class="edge">
<title>Node2&#45;&gt;Node3</title>
<path fill="none" stroke="midnightblue" d="M107.51,-224.08C106.32,-216.93 104.61,-206.64 103.12,-197.69"/>
<polygon fill="midnightblue" stroke="midnightblue" points="106.55,-197.04 101.46,-187.75 99.65,-198.19 106.55,-197.04"/>
</g>
<!-- Node2&#45;&gt;Node5 -->
<g id="edge10" class="edge">
<title>Node2&#45;&gt;Node5</title>
<path fill="none" stroke="midnightblue" d="M117.91,-224.17C126.9,-215.2 141.12,-200.83 153,-188 168.06,-171.74 184.71,-152.61 196.1,-139.34"/>
<polygon fill="midnightblue" stroke="midnightblue" points="198.93,-141.42 202.77,-131.54 193.61,-136.87 198.93,-141.42"/>
</g>
<!-- Node3&#45;&gt;Node4 -->
<g id="edge3" class="edge">
<title>Node3&#45;&gt;Node4</title>
<path fill="none" stroke="midnightblue" d="M89.91,-168.18C80.65,-159.66 67.03,-146.01 58,-132 48.6,-117.41 41.32,-99 36.7,-85.5"/>
<polygon fill="midnightblue" stroke="midnightblue" points="40,-84.32 33.58,-75.9 33.34,-86.49 40,-84.32"/>
</g>
<!-- Node3&#45;&gt;Node5 -->
<g id="edge4" class="edge">
<title>Node3&#45;&gt;Node5</title>
<path fill="none" stroke="midnightblue" d="M117.67,-168.32C135.39,-159.62 162.9,-146.12 183.29,-136.11"/>
<polygon fill="midnightblue" stroke="midnightblue" points="184.94,-139.2 192.37,-131.65 181.85,-132.92 184.94,-139.2"/>
</g>
<!-- Node8 -->
<g id="node8" class="node">
<title>Node8</title>
<g id="a_node8"><a xlink:href="os__process_8h.html" target="_top" xlink:title="Struct specifying a process.">
<polygon fill="white" stroke="black" points="67,-112.5 67,-131.5 147,-131.5 147,-112.5 67,-112.5"/>
<text text-anchor="middle" x="107" y="-119.5" font-family="FreeSans" font-size="10.00">os_process.h</text>
</a>
</g>
</g>
<!-- Node3&#45;&gt;Node8 -->
<g id="edge7" class="edge">
<title>Node3&#45;&gt;Node8</title>
<path fill="none" stroke="midnightblue" d="M101.16,-168.08C102.08,-160.93 103.42,-150.64 104.58,-141.69"/>
<polygon fill="midnightblue" stroke="midnightblue" points="108.05,-142.12 105.87,-131.75 101.11,-141.22 108.05,-142.12"/>
</g>
<!-- Node6 -->
<g id="node6" class="node">
<title>Node6</title>
<g id="a_node6"><a xlink:href="atmega644constants_8h.html" target="_top" xlink:title="Constants for ATMega644 and EVA board. Defines several useful constants for the ATMega644.">
<polygon fill="white" stroke="black" points="152,-56.5 152,-75.5 280,-75.5 280,-56.5 152,-56.5"/>
<text text-anchor="middle" x="216" y="-63.5" font-family="FreeSans" font-size="10.00">atmega644constants.h</text>
</a>
</g>
</g>
<!-- Node5&#45;&gt;Node6 -->
<g id="edge5" class="edge">
<title>Node5&#45;&gt;Node6</title>
<path fill="none" stroke="midnightblue" d="M210.99,-112.08C211.79,-104.93 212.93,-94.64 213.92,-85.69"/>
<polygon fill="midnightblue" stroke="midnightblue" points="217.4,-86.08 215.03,-75.75 210.44,-85.3 217.4,-86.08"/>
</g>
<!-- Node7 -->
<g id="node7" class="node">
<title>Node7</title>
<g id="a_node7"><a xlink:title=" ">
<polygon fill="white" stroke="#bfbfbf" points="189.5,-0.5 189.5,-19.5 242.5,-19.5 242.5,-0.5 189.5,-0.5"/>
<text text-anchor="middle" x="216" y="-7.5" font-family="FreeSans" font-size="10.00">avr/io.h</text>
</a>
</g>
</g>
<!-- Node6&#45;&gt;Node7 -->
<g id="edge6" class="edge">
<title>Node6&#45;&gt;Node7</title>
<path fill="none" stroke="midnightblue" d="M216,-56.08C216,-49.01 216,-38.86 216,-29.99"/>
<polygon fill="midnightblue" stroke="midnightblue" points="219.5,-29.75 216,-19.75 212.5,-29.75 219.5,-29.75"/>
</g>
<!-- Node8&#45;&gt;Node4 -->
<g id="edge9" class="edge">
<title>Node8&#45;&gt;Node4</title>
<path fill="none" stroke="midnightblue" d="M94.79,-112.32C83.22,-104.11 65.62,-91.6 51.84,-81.81"/>
<polygon fill="midnightblue" stroke="midnightblue" points="53.61,-78.77 43.43,-75.83 49.56,-84.48 53.61,-78.77"/>
</g>
<!-- Node9 -->
<g id="node9" class="node">
<title>Node9</title>
<g id="a_node9"><a xlink:title=" ">
<polygon fill="white" stroke="#bfbfbf" points="80.5,-56.5 80.5,-75.5 133.5,-75.5 133.5,-56.5 80.5,-56.5"/>
<text text-anchor="middle" x="107" y="-63.5" font-family="FreeSans" font-size="10.00">stdint.h</text>
</a>
</g>
</g>
<!-- Node8&#45;&gt;Node9 -->
<g id="edge8" class="edge">
<title>Node8&#45;&gt;Node9</title>
<path fill="none" stroke="midnightblue" d="M107,-112.08C107,-105.01 107,-94.86 107,-85.99"/>
<polygon fill="midnightblue" stroke="midnightblue" points="110.5,-85.75 107,-75.75 103.5,-85.75 110.5,-85.75"/>
</g>
<!-- Node11 -->
<g id="node11" class="node">
<title>Node11</title>
<g id="a_node11"><a xlink:title=" ">
<polygon fill="white" stroke="#bfbfbf" points="239.5,-168.5 239.5,-187.5 334.5,-187.5 334.5,-168.5 239.5,-168.5"/>
<text text-anchor="middle" x="287" y="-175.5" font-family="FreeSans" font-size="10.00">avr/pgmspace.h</text>
</a>
</g>
</g>
<!-- Node10&#45;&gt;Node11 -->
<g id="edge13" class="edge">
<title>Node10&#45;&gt;Node11</title>
<path fill="none" stroke="midnightblue" d="M273.64,-224.08C275.79,-216.85 278.88,-206.41 281.55,-197.4"/>
<polygon fill="midnightblue" stroke="midnightblue" points="284.92,-198.33 284.41,-187.75 278.21,-196.34 284.92,-198.33"/>
</g>
</g>
</svg>
