<?xml version="1.0" encoding="UTF-8" standalone="no"?>
<!DOCTYPE svg PUBLIC "-//W3C//DTD SVG 1.1//EN"
 "http://www.w3.org/Graphics/SVG/1.1/DTD/svg11.dtd">
<!-- Generated by graphviz version 2.43.0 (0)
 -->
<!-- Title: os_free Pages: 1 -->
<svg width="654pt" height="104pt"
 viewBox="0.00 0.00 654.00 104.00" xmlns="http://www.w3.org/2000/svg" xmlns:xlink="http://www.w3.org/1999/xlink">
<g id="graph0" class="graph" transform="scale(1 1) rotate(0) translate(4 100)">
<title>os_free</title>
<polygon fill="white" stroke="transparent" points="-4,4 -4,-100 650,-100 650,4 -4,4"/>
<!-- Node1 -->
<g id="node1" class="node">
<title>Node1</title>
<g id="a_node1"><a xlink:title="Function used by processes to free their own allocated memory.">
<polygon fill="#bfbfbf" stroke="black" points="0,-19.5 0,-38.5 53,-38.5 53,-19.5 0,-19.5"/>
<text text-anchor="middle" x="26.5" y="-26.5" font-family="FreeSans" font-size="10.00">os_free</text>
</a>
</g>
</g>
<!-- Node2 -->
<g id="node2" class="node">
<title>Node2</title>
<g id="a_node2"><a xlink:href="os__memory_8c.html#ae30934b438eca830815f445a1144a8c2" target="_top" xlink:title=" ">
<polygon fill="white" stroke="black" points="89,-38.5 89,-57.5 223,-57.5 223,-38.5 89,-38.5"/>
<text text-anchor="middle" x="156" y="-45.5" font-family="FreeSans" font-size="10.00">os_freeOwnerRestricted</text>
</a>
</g>
</g>
<!-- Node1&#45;&gt;Node2 -->
<g id="edge1" class="edge">
<title>Node1&#45;&gt;Node2</title>
<path fill="none" stroke="midnightblue" d="M53.3,-32.84C61.54,-34.07 71.11,-35.5 81.02,-36.98"/>
<polygon fill="midnightblue" stroke="midnightblue" points="80.6,-40.45 91.01,-38.46 81.63,-33.53 80.6,-40.45"/>
</g>
<!-- Node8 -->
<g id="node8" class="node">
<title>Node8</title>
<g id="a_node8"><a xlink:href="os__scheduler_8c.html#a917313bbbb324677f26dfdf2ad80de3d" target="_top" xlink:title="returns the currently active process">
<polygon fill="white" stroke="black" points="103,-0.5 103,-19.5 209,-19.5 209,-0.5 103,-0.5"/>
<text text-anchor="middle" x="156" y="-7.5" font-family="FreeSans" font-size="10.00">os_getCurrentProc</text>
</a>
</g>
</g>
<!-- Node1&#45;&gt;Node8 -->
<g id="edge8" class="edge">
<title>Node1&#45;&gt;Node8</title>
<path fill="none" stroke="midnightblue" d="M53.3,-25.16C64.78,-23.44 78.83,-21.35 92.79,-19.27"/>
<polygon fill="midnightblue" stroke="midnightblue" points="93.52,-22.7 102.9,-17.76 92.49,-15.78 93.52,-22.7"/>
</g>
<!-- Node3 -->
<g id="node3" class="node">
<title>Node3</title>
<g id="a_node3"><a xlink:href="os__scheduler_8c.html#a9d27b2dbf45ce6648916ed5ceb0a38df" target="_top" xlink:title="enters a critical code section">
<polygon fill="white" stroke="black" points="261.5,-76.5 261.5,-95.5 390.5,-95.5 390.5,-76.5 261.5,-76.5"/>
<text text-anchor="middle" x="326" y="-83.5" font-family="FreeSans" font-size="10.00">os_enterCriticalSection</text>
</a>
</g>
</g>
<!-- Node2&#45;&gt;Node3 -->
<g id="edge2" class="edge">
<title>Node2&#45;&gt;Node3</title>
<path fill="none" stroke="midnightblue" d="M199.39,-57.59C221.76,-62.65 249.4,-68.9 273.05,-74.25"/>
<polygon fill="midnightblue" stroke="midnightblue" points="272.39,-77.69 282.91,-76.48 273.93,-70.86 272.39,-77.69"/>
</g>
<!-- Node4 -->
<g id="node4" class="node">
<title>Node4</title>
<g id="a_node4"><a xlink:href="os__memory_8c.html#a292385f9ee19516237f51ab76c76405e" target="_top" xlink:title="Get the address of the first byte of chunk.">
<polygon fill="white" stroke="black" points="259,-38.5 259,-57.5 393,-57.5 393,-38.5 259,-38.5"/>
<text text-anchor="middle" x="326" y="-45.5" font-family="FreeSans" font-size="10.00">os_getFirstByteOfChunk</text>
</a>
</g>
</g>
<!-- Node2&#45;&gt;Node4 -->
<g id="edge3" class="edge">
<title>Node2&#45;&gt;Node4</title>
<path fill="none" stroke="midnightblue" d="M223.4,-48C231.68,-48 240.2,-48 248.62,-48"/>
<polygon fill="midnightblue" stroke="midnightblue" points="248.81,-51.5 258.81,-48 248.81,-44.5 248.81,-51.5"/>
</g>
<!-- Node5 -->
<g id="node5" class="node">
<title>Node5</title>
<g id="a_node5"><a xlink:href="os__memory_8c.html#a29ccc3e0a668c0be4b285bc74ef6d920" target="_top" xlink:title="Function used to get the value of a single map entry, this is made public so the allocation strategie...">
<polygon fill="white" stroke="black" points="429,-19.5 429,-38.5 524,-38.5 524,-19.5 429,-19.5"/>
<text text-anchor="middle" x="476.5" y="-26.5" font-family="FreeSans" font-size="10.00">os_getMapEntry</text>
</a>
</g>
</g>
<!-- Node2&#45;&gt;Node5 -->
<g id="edge7" class="edge">
<title>Node2&#45;&gt;Node5</title>
<path fill="none" stroke="midnightblue" d="M198.44,-38.49C216.88,-34.72 238.91,-30.86 259,-29 313.05,-24.01 375.02,-24.65 418.77,-26.16"/>
<polygon fill="midnightblue" stroke="midnightblue" points="418.81,-29.66 428.93,-26.53 419.07,-22.66 418.81,-29.66"/>
</g>
<!-- Node4&#45;&gt;Node5 -->
<g id="edge4" class="edge">
<title>Node4&#45;&gt;Node5</title>
<path fill="none" stroke="midnightblue" d="M393.43,-39.5C401.89,-38.42 410.48,-37.32 418.76,-36.26"/>
<polygon fill="midnightblue" stroke="midnightblue" points="419.21,-39.73 428.68,-34.99 418.32,-32.79 419.21,-39.73"/>
</g>
<!-- Node6 -->
<g id="node6" class="node">
<title>Node6</title>
<g id="a_node6"><a xlink:href="os__memory_8c.html#ae420976ba4abbd069aff795935b9636c" target="_top" xlink:title="Reads the value of the higher nibble of the given address.">
<polygon fill="white" stroke="black" points="560,-38.5 560,-57.5 646,-57.5 646,-38.5 560,-38.5"/>
<text text-anchor="middle" x="603" y="-45.5" font-family="FreeSans" font-size="10.00">getHighNibble</text>
</a>
</g>
</g>
<!-- Node5&#45;&gt;Node6 -->
<g id="edge5" class="edge">
<title>Node5&#45;&gt;Node6</title>
<path fill="none" stroke="midnightblue" d="M524.21,-36.13C532.64,-37.42 541.48,-38.76 550.05,-40.07"/>
<polygon fill="midnightblue" stroke="midnightblue" points="549.53,-43.53 559.95,-41.58 550.59,-36.61 549.53,-43.53"/>
</g>
<!-- Node7 -->
<g id="node7" class="node">
<title>Node7</title>
<g id="a_node7"><a xlink:href="os__memory_8c.html#a01bd9b56dbbeb0af404043ceca5c8818" target="_top" xlink:title="Reads the value of the lower nibble of the given address.">
<polygon fill="white" stroke="black" points="561.5,-0.5 561.5,-19.5 644.5,-19.5 644.5,-0.5 561.5,-0.5"/>
<text text-anchor="middle" x="603" y="-7.5" font-family="FreeSans" font-size="10.00">getLowNibble</text>
</a>
</g>
</g>
<!-- Node5&#45;&gt;Node7 -->
<g id="edge6" class="edge">
<title>Node5&#45;&gt;Node7</title>
<path fill="none" stroke="midnightblue" d="M524.21,-21.87C533.04,-20.52 542.3,-19.11 551.25,-17.75"/>
<polygon fill="midnightblue" stroke="midnightblue" points="551.8,-21.2 561.16,-16.23 550.75,-14.28 551.8,-21.2"/>
</g>
</g>
</svg>
