<?xml version="1.0" encoding="UTF-8" standalone="no"?>
<!DOCTYPE svg PUBLIC "-//W3C//DTD SVG 1.1//EN"
 "http://www.w3.org/Graphics/SVG/1.1/DTD/svg11.dtd">
<!-- Generated by graphviz version 2.43.0 (0)
 -->
<!-- Title: os_core.h Pages: 1 -->
<svg width="657pt" height="84pt"
 viewBox="0.00 0.00 656.50 84.00" xmlns="http://www.w3.org/2000/svg" xmlns:xlink="http://www.w3.org/1999/xlink">
<g id="graph0" class="graph" transform="scale(1 1) rotate(0) translate(4 80)">
<title>os_core.h</title>
<polygon fill="white" stroke="transparent" points="-4,4 -4,-80 652.5,-80 652.5,4 -4,4"/>
<!-- Node1 -->
<g id="node1" class="node">
<title>Node1</title>
<g id="a_node1"><a xlink:title="Core of the OS.">
<polygon fill="#bfbfbf" stroke="black" points="281.5,-56.5 281.5,-75.5 344.5,-75.5 344.5,-56.5 281.5,-56.5"/>
<text text-anchor="middle" x="313" y="-63.5" font-family="FreeSans" font-size="10.00">os_core.h</text>
</a>
</g>
</g>
<!-- Node2 -->
<g id="node2" class="node">
<title>Node2</title>
<g id="a_node2"><a xlink:href="os__core_8c.html" target="_top" xlink:title=" ">
<polygon fill="white" stroke="black" points="0,-0.5 0,-19.5 62,-19.5 62,-0.5 0,-0.5"/>
<text text-anchor="middle" x="31" y="-7.5" font-family="FreeSans" font-size="10.00">os_core.c</text>
</a>
</g>
</g>
<!-- Node1&#45;&gt;Node2 -->
<g id="edge1" class="edge">
<title>Node1&#45;&gt;Node2</title>
<path fill="none" stroke="midnightblue" d="M271.14,-57.71C222.82,-49.17 141,-34.38 71,-20 68.21,-19.43 65.32,-18.81 62.42,-18.19"/>
<polygon fill="midnightblue" stroke="midnightblue" points="270.76,-61.19 281.21,-59.48 271.97,-54.3 270.76,-61.19"/>
</g>
<!-- Node3 -->
<g id="node3" class="node">
<title>Node3</title>
<g id="a_node3"><a xlink:href="os__memory_8c.html" target="_top" xlink:title=" ">
<polygon fill="white" stroke="black" points="80.5,-0.5 80.5,-19.5 161.5,-19.5 161.5,-0.5 80.5,-0.5"/>
<text text-anchor="middle" x="121" y="-7.5" font-family="FreeSans" font-size="10.00">os_memory.c</text>
</a>
</g>
</g>
<!-- Node1&#45;&gt;Node3 -->
<g id="edge2" class="edge">
<title>Node1&#45;&gt;Node3</title>
<path fill="none" stroke="midnightblue" d="M272.82,-53.7C236.58,-43.51 184.09,-28.74 151.28,-19.52"/>
<polygon fill="midnightblue" stroke="midnightblue" points="272,-57.11 282.58,-56.44 273.9,-50.37 272,-57.11"/>
</g>
<!-- Node4 -->
<g id="node4" class="node">
<title>Node4</title>
<g id="a_node4"><a xlink:href="os__memory__strategies_8c.html" target="_top" xlink:title=" ">
<polygon fill="white" stroke="black" points="179.5,-0.5 179.5,-19.5 316.5,-19.5 316.5,-0.5 179.5,-0.5"/>
<text text-anchor="middle" x="248" y="-7.5" font-family="FreeSans" font-size="10.00">os_memory_strategies.c</text>
</a>
</g>
</g>
<!-- Node1&#45;&gt;Node4 -->
<g id="edge3" class="edge">
<title>Node1&#45;&gt;Node4</title>
<path fill="none" stroke="midnightblue" d="M294.73,-49.82C283.08,-40.15 268.4,-27.95 258.63,-19.83"/>
<polygon fill="midnightblue" stroke="midnightblue" points="292.63,-52.63 302.56,-56.32 297.1,-47.24 292.63,-52.63"/>
</g>
<!-- Node5 -->
<g id="node5" class="node">
<title>Node5</title>
<g id="a_node5"><a xlink:href="os__scheduler_8c.html" target="_top" xlink:title=" ">
<polygon fill="white" stroke="black" points="335,-0.5 335,-19.5 423,-19.5 423,-0.5 335,-0.5"/>
<text text-anchor="middle" x="379" y="-7.5" font-family="FreeSans" font-size="10.00">os_scheduler.c</text>
</a>
</g>
</g>
<!-- Node1&#45;&gt;Node5 -->
<g id="edge4" class="edge">
<title>Node1&#45;&gt;Node5</title>
<path fill="none" stroke="midnightblue" d="M331.55,-49.82C343.38,-40.15 358.29,-27.95 368.2,-19.83"/>
<polygon fill="midnightblue" stroke="midnightblue" points="329.13,-47.28 323.6,-56.32 333.56,-52.7 329.13,-47.28"/>
</g>
<!-- Node6 -->
<g id="node6" class="node">
<title>Node6</title>
<g id="a_node6"><a xlink:href="os__scheduling__strategies_8c.html" target="_top" xlink:title=" ">
<polygon fill="white" stroke="black" points="441,-0.5 441,-19.5 589,-19.5 589,-0.5 441,-0.5"/>
<text text-anchor="middle" x="515" y="-7.5" font-family="FreeSans" font-size="10.00">os_scheduling_strategies.c</text>
</a>
</g>
</g>
<!-- Node1&#45;&gt;Node6 -->
<g id="edge5" class="edge">
<title>Node1&#45;&gt;Node6</title>
<path fill="none" stroke="midnightblue" d="M354.33,-53.95C392.42,-43.77 448.18,-28.86 482.99,-19.56"/>
<polygon fill="midnightblue" stroke="midnightblue" points="353.32,-50.6 344.56,-56.56 355.13,-57.36 353.32,-50.6"/>
</g>
<!-- Node7 -->
<g id="node7" class="node">
<title>Node7</title>
<g id="a_node7"><a xlink:href="util_8c.html" target="_top" xlink:title=" ">
<polygon fill="white" stroke="black" points="607.5,-0.5 607.5,-19.5 648.5,-19.5 648.5,-0.5 607.5,-0.5"/>
<text text-anchor="middle" x="628" y="-7.5" font-family="FreeSans" font-size="10.00">util.c</text>
</a>
</g>
</g>
<!-- Node1&#45;&gt;Node7 -->
<g id="edge6" class="edge">
<title>Node1&#45;&gt;Node7</title>
<path fill="none" stroke="midnightblue" d="M355.12,-60.15C411.04,-53.31 512.66,-39.45 598,-20 601.08,-19.3 604.3,-18.45 607.44,-17.57"/>
<polygon fill="midnightblue" stroke="midnightblue" points="354.4,-56.72 344.9,-61.39 355.24,-63.66 354.4,-56.72"/>
</g>
</g>
</svg>
