<?xml version="1.0" encoding="UTF-8" standalone="no"?>
<!DOCTYPE svg PUBLIC "-//W3C//DTD SVG 1.1//EN"
 "http://www.w3.org/Graphics/SVG/1.1/DTD/svg11.dtd">
<!-- Generated by graphviz version 2.43.0 (0)
 -->
<!-- Title: os_sh_free Pages: 1 -->
<svg width="665pt" height="85pt"
 viewBox="0.00 0.00 665.00 85.00" xmlns="http://www.w3.org/2000/svg" xmlns:xlink="http://www.w3.org/1999/xlink">
<g id="graph0" class="graph" transform="scale(1 1) rotate(0) translate(4 81)">
<title>os_sh_free</title>
<polygon fill="white" stroke="transparent" points="-4,4 -4,-81 661,-81 661,4 -4,4"/>
<!-- Node1 -->
<g id="node1" class="node">
<title>Node1</title>
<g id="a_node1"><a xlink:title="Function used by processes to free shared memory.">
<polygon fill="#bfbfbf" stroke="black" points="0,-19.5 0,-38.5 69,-38.5 69,-19.5 0,-19.5"/>
<text text-anchor="middle" x="34.5" y="-26.5" font-family="FreeSans" font-size="10.00">os_sh_free</text>
</a>
</g>
</g>
<!-- Node2 -->
<g id="node2" class="node">
<title>Node2</title>
<g id="a_node2"><a xlink:href="os__memory_8c.html#ab493cf6ec58f933b4751b0d2a2f77c4a" target="_top" xlink:title=" ">
<polygon fill="white" stroke="black" points="116.5,-38.5 116.5,-57.5 222.5,-57.5 222.5,-38.5 116.5,-38.5"/>
<text text-anchor="middle" x="169.5" y="-45.5" font-family="FreeSans" font-size="10.00">getOwnerOfChunk</text>
</a>
</g>
</g>
<!-- Node1&#45;&gt;Node2 -->
<g id="edge1" class="edge">
<title>Node1&#45;&gt;Node2</title>
<path fill="none" stroke="midnightblue" d="M69.06,-33.79C80.36,-35.41 93.35,-37.26 106.13,-39.09"/>
<polygon fill="midnightblue" stroke="midnightblue" points="105.91,-42.59 116.3,-40.54 106.9,-35.66 105.91,-42.59"/>
</g>
<!-- Node7 -->
<g id="node7" class="node">
<title>Node7</title>
<g id="a_node7"><a xlink:href="os__scheduler_8c.html#a9d27b2dbf45ce6648916ed5ceb0a38df" target="_top" xlink:title="enters a critical code section">
<polygon fill="white" stroke="black" points="105,-0.5 105,-19.5 234,-19.5 234,-0.5 105,-0.5"/>
<text text-anchor="middle" x="169.5" y="-7.5" font-family="FreeSans" font-size="10.00">os_enterCriticalSection</text>
</a>
</g>
</g>
<!-- Node1&#45;&gt;Node7 -->
<g id="edge7" class="edge">
<title>Node1&#45;&gt;Node7</title>
<path fill="none" stroke="midnightblue" d="M69.06,-24.21C77,-23.07 85.78,-21.82 94.73,-20.54"/>
<polygon fill="midnightblue" stroke="midnightblue" points="95.48,-23.97 104.89,-19.09 94.49,-17.04 95.48,-23.97"/>
</g>
<!-- Node3 -->
<g id="node3" class="node">
<title>Node3</title>
<g id="a_node3"><a xlink:href="os__memory_8c.html#a292385f9ee19516237f51ab76c76405e" target="_top" xlink:title="Get the address of the first byte of chunk.">
<polygon fill="white" stroke="black" points="270,-57.5 270,-76.5 404,-76.5 404,-57.5 270,-57.5"/>
<text text-anchor="middle" x="337" y="-64.5" font-family="FreeSans" font-size="10.00">os_getFirstByteOfChunk</text>
</a>
</g>
</g>
<!-- Node2&#45;&gt;Node3 -->
<g id="edge2" class="edge">
<title>Node2&#45;&gt;Node3</title>
<path fill="none" stroke="midnightblue" d="M222.87,-54.01C234.67,-55.37 247.44,-56.83 259.99,-58.27"/>
<polygon fill="midnightblue" stroke="midnightblue" points="259.66,-61.76 270,-59.42 260.46,-54.8 259.66,-61.76"/>
</g>
<!-- Node4 -->
<g id="node4" class="node">
<title>Node4</title>
<g id="a_node4"><a xlink:href="os__memory_8c.html#a29ccc3e0a668c0be4b285bc74ef6d920" target="_top" xlink:title="Function used to get the value of a single map entry, this is made public so the allocation strategie...">
<polygon fill="white" stroke="black" points="440,-38.5 440,-57.5 535,-57.5 535,-38.5 440,-38.5"/>
<text text-anchor="middle" x="487.5" y="-45.5" font-family="FreeSans" font-size="10.00">os_getMapEntry</text>
</a>
</g>
</g>
<!-- Node2&#45;&gt;Node4 -->
<g id="edge6" class="edge">
<title>Node2&#45;&gt;Node4</title>
<path fill="none" stroke="midnightblue" d="M222.68,-48C279.73,-48 370.85,-48 429.68,-48"/>
<polygon fill="midnightblue" stroke="midnightblue" points="429.91,-51.5 439.91,-48 429.91,-44.5 429.91,-51.5"/>
</g>
<!-- Node3&#45;&gt;Node4 -->
<g id="edge3" class="edge">
<title>Node3&#45;&gt;Node4</title>
<path fill="none" stroke="midnightblue" d="M404.43,-58.5C412.89,-57.42 421.48,-56.32 429.76,-55.26"/>
<polygon fill="midnightblue" stroke="midnightblue" points="430.21,-58.73 439.68,-53.99 429.32,-51.79 430.21,-58.73"/>
</g>
<!-- Node5 -->
<g id="node5" class="node">
<title>Node5</title>
<g id="a_node5"><a xlink:href="os__memory_8c.html#ae420976ba4abbd069aff795935b9636c" target="_top" xlink:title="Reads the value of the higher nibble of the given address.">
<polygon fill="white" stroke="black" points="571,-57.5 571,-76.5 657,-76.5 657,-57.5 571,-57.5"/>
<text text-anchor="middle" x="614" y="-64.5" font-family="FreeSans" font-size="10.00">getHighNibble</text>
</a>
</g>
</g>
<!-- Node4&#45;&gt;Node5 -->
<g id="edge4" class="edge">
<title>Node4&#45;&gt;Node5</title>
<path fill="none" stroke="midnightblue" d="M535.21,-55.13C543.64,-56.42 552.48,-57.76 561.05,-59.07"/>
<polygon fill="midnightblue" stroke="midnightblue" points="560.53,-62.53 570.95,-60.58 561.59,-55.61 560.53,-62.53"/>
</g>
<!-- Node6 -->
<g id="node6" class="node">
<title>Node6</title>
<g id="a_node6"><a xlink:href="os__memory_8c.html#a01bd9b56dbbeb0af404043ceca5c8818" target="_top" xlink:title="Reads the value of the lower nibble of the given address.">
<polygon fill="white" stroke="black" points="572.5,-19.5 572.5,-38.5 655.5,-38.5 655.5,-19.5 572.5,-19.5"/>
<text text-anchor="middle" x="614" y="-26.5" font-family="FreeSans" font-size="10.00">getLowNibble</text>
</a>
</g>
</g>
<!-- Node4&#45;&gt;Node6 -->
<g id="edge5" class="edge">
<title>Node4&#45;&gt;Node6</title>
<path fill="none" stroke="midnightblue" d="M535.21,-40.87C544.04,-39.52 553.3,-38.11 562.25,-36.75"/>
<polygon fill="midnightblue" stroke="midnightblue" points="562.8,-40.2 572.16,-35.23 561.75,-33.28 562.8,-40.2"/>
</g>
</g>
</svg>
