<?xml version="1.0" encoding="UTF-8" standalone="no"?>
<!DOCTYPE svg PUBLIC "-//W3C//DTD SVG 1.1//EN"
 "http://www.w3.org/Graphics/SVG/1.1/DTD/svg11.dtd">
<!-- Generated by graphviz version 2.43.0 (0)
 -->
<!-- Title: os_mem_drivers.h Pages: 1 -->
<svg width="671pt" height="252pt"
 viewBox="0.00 0.00 671.00 252.00" xmlns="http://www.w3.org/2000/svg" xmlns:xlink="http://www.w3.org/1999/xlink">
<g id="graph0" class="graph" transform="scale(1 1) rotate(0) translate(4 248)">
<title>os_mem_drivers.h</title>
<polygon fill="white" stroke="transparent" points="-4,4 -4,-248 667,-248 667,4 -4,4"/>
<!-- Node1 -->
<g id="node1" class="node">
<title>Node1</title>
<g id="a_node1"><a xlink:title="Drivers for OS memory management.">
<polygon fill="#bfbfbf" stroke="black" points="264.5,-224.5 264.5,-243.5 371.5,-243.5 371.5,-224.5 264.5,-224.5"/>
<text text-anchor="middle" x="318" y="-231.5" font-family="FreeSans" font-size="10.00">os_mem_drivers.h</text>
</a>
</g>
</g>
<!-- Node2 -->
<g id="node2" class="node">
<title>Node2</title>
<g id="a_node2"><a xlink:href="os__memheap__drivers_8h.html" target="_top" xlink:title="Drivers for OS heap management.">
<polygon fill="white" stroke="black" points="158.5,-168.5 158.5,-187.5 289.5,-187.5 289.5,-168.5 158.5,-168.5"/>
<text text-anchor="middle" x="224" y="-175.5" font-family="FreeSans" font-size="10.00">os_memheap_drivers.h</text>
</a>
</g>
</g>
<!-- Node1&#45;&gt;Node2 -->
<g id="edge1" class="edge">
<title>Node1&#45;&gt;Node2</title>
<path fill="none" stroke="midnightblue" d="M293.94,-219.18C276.64,-209.24 253.85,-196.15 239.07,-187.65"/>
<polygon fill="midnightblue" stroke="midnightblue" points="292.48,-222.38 302.9,-224.32 295.97,-216.31 292.48,-222.38"/>
</g>
<!-- Node8 -->
<g id="node8" class="node">
<title>Node8</title>
<g id="a_node8"><a xlink:href="os__memory_8h.html" target="_top" xlink:title="Library for OS memory management.">
<polygon fill="white" stroke="black" points="228,-112.5 228,-131.5 310,-131.5 310,-112.5 228,-112.5"/>
<text text-anchor="middle" x="269" y="-119.5" font-family="FreeSans" font-size="10.00">os_memory.h</text>
</a>
</g>
</g>
<!-- Node1&#45;&gt;Node8 -->
<g id="edge17" class="edge">
<title>Node1&#45;&gt;Node8</title>
<path fill="none" stroke="midnightblue" d="M314.16,-214.42C311.03,-201.12 305.99,-182.99 299,-168 292.73,-154.55 282.77,-140.56 276.07,-131.82"/>
<polygon fill="midnightblue" stroke="midnightblue" points="310.76,-215.28 316.33,-224.29 317.6,-213.77 310.76,-215.28"/>
</g>
<!-- Node12 -->
<g id="node12" class="node">
<title>Node12</title>
<g id="a_node12"><a xlink:href="os__mem__drivers_8c.html" target="_top" xlink:title=" ">
<polygon fill="white" stroke="black" points="346,-168.5 346,-187.5 452,-187.5 452,-168.5 346,-168.5"/>
<text text-anchor="middle" x="399" y="-175.5" font-family="FreeSans" font-size="10.00">os_mem_drivers.c</text>
</a>
</g>
</g>
<!-- Node1&#45;&gt;Node12 -->
<g id="edge16" class="edge">
<title>Node1&#45;&gt;Node12</title>
<path fill="none" stroke="midnightblue" d="M339.57,-218.62C354.36,-208.76 373.51,-195.99 386.02,-187.65"/>
<polygon fill="midnightblue" stroke="midnightblue" points="337.39,-215.86 331.01,-224.32 341.28,-221.69 337.39,-215.86"/>
</g>
<!-- Node3 -->
<g id="node3" class="node">
<title>Node3</title>
<g id="a_node3"><a xlink:href="os__core_8c.html" target="_top" xlink:title=" ">
<polygon fill="white" stroke="black" points="148,-112.5 148,-131.5 210,-131.5 210,-112.5 148,-112.5"/>
<text text-anchor="middle" x="179" y="-119.5" font-family="FreeSans" font-size="10.00">os_core.c</text>
</a>
</g>
</g>
<!-- Node2&#45;&gt;Node3 -->
<g id="edge2" class="edge">
<title>Node2&#45;&gt;Node3</title>
<path fill="none" stroke="midnightblue" d="M209.95,-160.14C202.11,-150.74 192.67,-139.4 186.29,-131.75"/>
<polygon fill="midnightblue" stroke="midnightblue" points="207.48,-162.64 216.57,-168.08 212.86,-158.16 207.48,-162.64"/>
</g>
<!-- Node4 -->
<g id="node4" class="node">
<title>Node4</title>
<g id="a_node4"><a xlink:href="os__memheap__drivers_8c.html" target="_top" xlink:title=" ">
<polygon fill="white" stroke="black" points="533,-56.5 533,-75.5 663,-75.5 663,-56.5 533,-56.5"/>
<text text-anchor="middle" x="598" y="-63.5" font-family="FreeSans" font-size="10.00">os_memheap_drivers.c</text>
</a>
</g>
</g>
<!-- Node2&#45;&gt;Node4 -->
<g id="edge3" class="edge">
<title>Node2&#45;&gt;Node4</title>
<path fill="none" stroke="midnightblue" d="M299.87,-170.44C375.06,-163.07 484.41,-149.78 523,-132 552.11,-118.59 578.51,-90.35 590.77,-75.91"/>
<polygon fill="midnightblue" stroke="midnightblue" points="299.12,-166.99 289.5,-171.44 299.79,-173.96 299.12,-166.99"/>
</g>
<!-- Node5 -->
<g id="node5" class="node">
<title>Node5</title>
<g id="a_node5"><a xlink:href="os__memory__strategies_8h.html" target="_top" xlink:title="Memory allocation library for the OS.">
<polygon fill="white" stroke="black" points="376.5,-112.5 376.5,-131.5 513.5,-131.5 513.5,-112.5 376.5,-112.5"/>
<text text-anchor="middle" x="445" y="-119.5" font-family="FreeSans" font-size="10.00">os_memory_strategies.h</text>
</a>
</g>
</g>
<!-- Node2&#45;&gt;Node5 -->
<g id="edge4" class="edge">
<title>Node2&#45;&gt;Node5</title>
<path fill="none" stroke="midnightblue" d="M268.92,-166.02C310.67,-155.82 371.98,-140.84 410.15,-131.52"/>
<polygon fill="midnightblue" stroke="midnightblue" points="267.9,-162.67 259.02,-168.44 269.56,-169.47 267.9,-162.67"/>
</g>
<!-- Node2&#45;&gt;Node8 -->
<g id="edge8" class="edge">
<title>Node2&#45;&gt;Node8</title>
<path fill="none" stroke="midnightblue" d="M238.05,-160.14C245.89,-150.74 255.33,-139.4 261.71,-131.75"/>
<polygon fill="midnightblue" stroke="midnightblue" points="235.14,-158.16 231.43,-168.08 240.52,-162.64 235.14,-158.16"/>
</g>
<!-- Node9 -->
<g id="node9" class="node">
<title>Node9</title>
<g id="a_node9"><a xlink:href="os__scheduler_8c.html" target="_top" xlink:title=" ">
<polygon fill="white" stroke="black" points="0,-56.5 0,-75.5 88,-75.5 88,-56.5 0,-56.5"/>
<text text-anchor="middle" x="44" y="-63.5" font-family="FreeSans" font-size="10.00">os_scheduler.c</text>
</a>
</g>
</g>
<!-- Node2&#45;&gt;Node9 -->
<g id="edge15" class="edge">
<title>Node2&#45;&gt;Node9</title>
<path fill="none" stroke="midnightblue" d="M197.12,-163.75C180.18,-155.17 158,-143.48 139,-132 108.04,-113.3 73.37,-88.55 55.71,-75.65"/>
<polygon fill="midnightblue" stroke="midnightblue" points="195.92,-167.07 206.42,-168.43 199.06,-160.81 195.92,-167.07"/>
</g>
<!-- Node5&#45;&gt;Node4 -->
<g id="edge5" class="edge">
<title>Node5&#45;&gt;Node4</title>
<path fill="none" stroke="midnightblue" d="M478.89,-109.04C507.68,-98.88 548.29,-84.55 573.87,-75.52"/>
<polygon fill="midnightblue" stroke="midnightblue" points="477.51,-105.81 469.24,-112.44 479.84,-112.42 477.51,-105.81"/>
</g>
<!-- Node6 -->
<g id="node6" class="node">
<title>Node6</title>
<g id="a_node6"><a xlink:href="os__memory_8c.html" target="_top" xlink:title=" ">
<polygon fill="white" stroke="black" points="433.5,-56.5 433.5,-75.5 514.5,-75.5 514.5,-56.5 433.5,-56.5"/>
<text text-anchor="middle" x="474" y="-63.5" font-family="FreeSans" font-size="10.00">os_memory.c</text>
</a>
</g>
</g>
<!-- Node5&#45;&gt;Node6 -->
<g id="edge6" class="edge">
<title>Node5&#45;&gt;Node6</title>
<path fill="none" stroke="midnightblue" d="M454.68,-102.98C459.6,-93.82 465.36,-83.09 469.3,-75.75"/>
<polygon fill="midnightblue" stroke="midnightblue" points="451.44,-101.62 449.79,-112.08 457.6,-104.93 451.44,-101.62"/>
</g>
<!-- Node7 -->
<g id="node7" class="node">
<title>Node7</title>
<g id="a_node7"><a xlink:href="os__memory__strategies_8c.html" target="_top" xlink:title=" ">
<polygon fill="white" stroke="black" points="278.5,-56.5 278.5,-75.5 415.5,-75.5 415.5,-56.5 278.5,-56.5"/>
<text text-anchor="middle" x="347" y="-63.5" font-family="FreeSans" font-size="10.00">os_memory_strategies.c</text>
</a>
</g>
</g>
<!-- Node5&#45;&gt;Node7 -->
<g id="edge7" class="edge">
<title>Node5&#45;&gt;Node7</title>
<path fill="none" stroke="midnightblue" d="M420.41,-107.45C402.32,-97.48 378.27,-84.23 362.71,-75.65"/>
<polygon fill="midnightblue" stroke="midnightblue" points="418.81,-110.56 429.25,-112.32 422.19,-104.43 418.81,-110.56"/>
</g>
<!-- Node8&#45;&gt;Node6 -->
<g id="edge9" class="edge">
<title>Node8&#45;&gt;Node6</title>
<path fill="none" stroke="midnightblue" d="M311.41,-109.83C350.11,-99.63 406.49,-84.78 441.67,-75.52"/>
<polygon fill="midnightblue" stroke="midnightblue" points="310.26,-106.51 301.48,-112.44 312.04,-113.28 310.26,-106.51"/>
</g>
<!-- Node8&#45;&gt;Node7 -->
<g id="edge10" class="edge">
<title>Node8&#45;&gt;Node7</title>
<path fill="none" stroke="midnightblue" d="M289.77,-106.62C304.02,-96.76 322.46,-83.99 334.5,-75.65"/>
<polygon fill="midnightblue" stroke="midnightblue" points="287.76,-103.75 281.53,-112.32 291.75,-109.51 287.76,-103.75"/>
</g>
<!-- Node8&#45;&gt;Node9 -->
<g id="edge11" class="edge">
<title>Node8&#45;&gt;Node9</title>
<path fill="none" stroke="midnightblue" d="M223.53,-110.09C181.03,-99.89 118.42,-84.86 79.49,-75.52"/>
<polygon fill="midnightblue" stroke="midnightblue" points="222.81,-113.51 233.35,-112.44 224.44,-106.71 222.81,-113.51"/>
</g>
<!-- Node10 -->
<g id="node10" class="node">
<title>Node10</title>
<g id="a_node10"><a xlink:href="os__user__privileges_8h.html" target="_top" xlink:title="User privileges specification used in part by the Taskman.">
<polygon fill="white" stroke="black" points="106,-56.5 106,-75.5 222,-75.5 222,-56.5 106,-56.5"/>
<text text-anchor="middle" x="164" y="-63.5" font-family="FreeSans" font-size="10.00">os_user_privileges.h</text>
</a>
</g>
</g>
<!-- Node8&#45;&gt;Node10 -->
<g id="edge12" class="edge">
<title>Node8&#45;&gt;Node10</title>
<path fill="none" stroke="midnightblue" d="M243.19,-107.73C223.75,-97.73 197.65,-84.31 180.83,-75.65"/>
<polygon fill="midnightblue" stroke="midnightblue" points="241.64,-110.86 252.13,-112.32 244.84,-104.64 241.64,-110.86"/>
</g>
<!-- Node11 -->
<g id="node11" class="node">
<title>Node11</title>
<g id="a_node11"><a xlink:href="os__taskman_8c.html" target="_top" xlink:title=" ">
<polygon fill="white" stroke="black" points="165,-0.5 165,-19.5 249,-19.5 249,-0.5 165,-0.5"/>
<text text-anchor="middle" x="207" y="-7.5" font-family="FreeSans" font-size="10.00">os_taskman.c</text>
</a>
</g>
</g>
<!-- Node8&#45;&gt;Node11 -->
<g id="edge14" class="edge">
<title>Node8&#45;&gt;Node11</title>
<path fill="none" stroke="midnightblue" d="M259.22,-103.64C245.75,-79.74 222.01,-37.63 211.84,-19.59"/>
<polygon fill="midnightblue" stroke="midnightblue" points="256.18,-105.38 264.13,-112.37 262.27,-101.94 256.18,-105.38"/>
</g>
<!-- Node10&#45;&gt;Node11 -->
<g id="edge13" class="edge">
<title>Node10&#45;&gt;Node11</title>
<path fill="none" stroke="midnightblue" d="M177.42,-48.14C184.91,-38.74 193.94,-27.4 200.03,-19.75"/>
<polygon fill="midnightblue" stroke="midnightblue" points="174.59,-46.08 171.1,-56.08 180.07,-50.44 174.59,-46.08"/>
</g>
</g>
</svg>
