<?xml version="1.0" encoding="UTF-8" standalone="no"?>
<!DOCTYPE svg PUBLIC "-//W3C//DTD SVG 1.1//EN"
 "http://www.w3.org/Graphics/SVG/1.1/DTD/svg11.dtd">
<!-- Generated by graphviz version 2.43.0 (0)
 -->
<!-- Title: os_sh_writeOpen Pages: 1 -->
<svg width="696pt" height="85pt"
 viewBox="0.00 0.00 696.00 85.00" xmlns="http://www.w3.org/2000/svg" xmlns:xlink="http://www.w3.org/1999/xlink">
<g id="graph0" class="graph" transform="scale(1 1) rotate(0) translate(4 81)">
<title>os_sh_writeOpen</title>
<polygon fill="white" stroke="transparent" points="-4,4 -4,-81 692,-81 692,4 -4,4"/>
<!-- Node1 -->
<g id="node1" class="node">
<title>Node1</title>
<g id="a_node1"><a xlink:title="Function that should be private but is used by some Testtasks.">
<polygon fill="#bfbfbf" stroke="black" points="0,-19.5 0,-38.5 100,-38.5 100,-19.5 0,-19.5"/>
<text text-anchor="middle" x="50" y="-26.5" font-family="FreeSans" font-size="10.00">os_sh_writeOpen</text>
</a>
</g>
</g>
<!-- Node2 -->
<g id="node2" class="node">
<title>Node2</title>
<g id="a_node2"><a xlink:href="os__memory_8c.html#ab493cf6ec58f933b4751b0d2a2f77c4a" target="_top" xlink:title=" ">
<polygon fill="white" stroke="black" points="147.5,-38.5 147.5,-57.5 253.5,-57.5 253.5,-38.5 147.5,-38.5"/>
<text text-anchor="middle" x="200.5" y="-45.5" font-family="FreeSans" font-size="10.00">getOwnerOfChunk</text>
</a>
</g>
</g>
<!-- Node1&#45;&gt;Node2 -->
<g id="edge1" class="edge">
<title>Node1&#45;&gt;Node2</title>
<path fill="none" stroke="midnightblue" d="M100.04,-35.27C111.92,-36.79 124.77,-38.44 137.18,-40.03"/>
<polygon fill="midnightblue" stroke="midnightblue" points="137.09,-43.54 147.45,-41.34 137.98,-36.6 137.09,-43.54"/>
</g>
<!-- Node7 -->
<g id="node7" class="node">
<title>Node7</title>
<g id="a_node7"><a xlink:href="os__scheduler_8c.html#a9d27b2dbf45ce6648916ed5ceb0a38df" target="_top" xlink:title="enters a critical code section">
<polygon fill="white" stroke="black" points="136,-0.5 136,-19.5 265,-19.5 265,-0.5 136,-0.5"/>
<text text-anchor="middle" x="200.5" y="-7.5" font-family="FreeSans" font-size="10.00">os_enterCriticalSection</text>
</a>
</g>
</g>
<!-- Node1&#45;&gt;Node7 -->
<g id="edge7" class="edge">
<title>Node1&#45;&gt;Node7</title>
<path fill="none" stroke="midnightblue" d="M100.04,-22.73C108.38,-21.66 117.21,-20.53 126.03,-19.4"/>
<polygon fill="midnightblue" stroke="midnightblue" points="126.48,-22.87 135.95,-18.13 125.59,-15.93 126.48,-22.87"/>
</g>
<!-- Node3 -->
<g id="node3" class="node">
<title>Node3</title>
<g id="a_node3"><a xlink:href="os__memory_8c.html#a292385f9ee19516237f51ab76c76405e" target="_top" xlink:title="Get the address of the first byte of chunk.">
<polygon fill="white" stroke="black" points="301,-57.5 301,-76.5 435,-76.5 435,-57.5 301,-57.5"/>
<text text-anchor="middle" x="368" y="-64.5" font-family="FreeSans" font-size="10.00">os_getFirstByteOfChunk</text>
</a>
</g>
</g>
<!-- Node2&#45;&gt;Node3 -->
<g id="edge2" class="edge">
<title>Node2&#45;&gt;Node3</title>
<path fill="none" stroke="midnightblue" d="M253.87,-54.01C265.67,-55.37 278.44,-56.83 290.99,-58.27"/>
<polygon fill="midnightblue" stroke="midnightblue" points="290.66,-61.76 301,-59.42 291.46,-54.8 290.66,-61.76"/>
</g>
<!-- Node4 -->
<g id="node4" class="node">
<title>Node4</title>
<g id="a_node4"><a xlink:href="os__memory_8c.html#a29ccc3e0a668c0be4b285bc74ef6d920" target="_top" xlink:title="Function used to get the value of a single map entry, this is made public so the allocation strategie...">
<polygon fill="white" stroke="black" points="471,-38.5 471,-57.5 566,-57.5 566,-38.5 471,-38.5"/>
<text text-anchor="middle" x="518.5" y="-45.5" font-family="FreeSans" font-size="10.00">os_getMapEntry</text>
</a>
</g>
</g>
<!-- Node2&#45;&gt;Node4 -->
<g id="edge6" class="edge">
<title>Node2&#45;&gt;Node4</title>
<path fill="none" stroke="midnightblue" d="M253.68,-48C310.73,-48 401.85,-48 460.68,-48"/>
<polygon fill="midnightblue" stroke="midnightblue" points="460.91,-51.5 470.91,-48 460.91,-44.5 460.91,-51.5"/>
</g>
<!-- Node3&#45;&gt;Node4 -->
<g id="edge3" class="edge">
<title>Node3&#45;&gt;Node4</title>
<path fill="none" stroke="midnightblue" d="M435.43,-58.5C443.89,-57.42 452.48,-56.32 460.76,-55.26"/>
<polygon fill="midnightblue" stroke="midnightblue" points="461.21,-58.73 470.68,-53.99 460.32,-51.79 461.21,-58.73"/>
</g>
<!-- Node5 -->
<g id="node5" class="node">
<title>Node5</title>
<g id="a_node5"><a xlink:href="os__memory_8c.html#ae420976ba4abbd069aff795935b9636c" target="_top" xlink:title="Reads the value of the higher nibble of the given address.">
<polygon fill="white" stroke="black" points="602,-57.5 602,-76.5 688,-76.5 688,-57.5 602,-57.5"/>
<text text-anchor="middle" x="645" y="-64.5" font-family="FreeSans" font-size="10.00">getHighNibble</text>
</a>
</g>
</g>
<!-- Node4&#45;&gt;Node5 -->
<g id="edge4" class="edge">
<title>Node4&#45;&gt;Node5</title>
<path fill="none" stroke="midnightblue" d="M566.21,-55.13C574.64,-56.42 583.48,-57.76 592.05,-59.07"/>
<polygon fill="midnightblue" stroke="midnightblue" points="591.53,-62.53 601.95,-60.58 592.59,-55.61 591.53,-62.53"/>
</g>
<!-- Node6 -->
<g id="node6" class="node">
<title>Node6</title>
<g id="a_node6"><a xlink:href="os__memory_8c.html#a01bd9b56dbbeb0af404043ceca5c8818" target="_top" xlink:title="Reads the value of the lower nibble of the given address.">
<polygon fill="white" stroke="black" points="603.5,-19.5 603.5,-38.5 686.5,-38.5 686.5,-19.5 603.5,-19.5"/>
<text text-anchor="middle" x="645" y="-26.5" font-family="FreeSans" font-size="10.00">getLowNibble</text>
</a>
</g>
</g>
<!-- Node4&#45;&gt;Node6 -->
<g id="edge5" class="edge">
<title>Node4&#45;&gt;Node6</title>
<path fill="none" stroke="midnightblue" d="M566.21,-40.87C575.04,-39.52 584.3,-38.11 593.25,-36.75"/>
<polygon fill="midnightblue" stroke="midnightblue" points="593.8,-40.2 603.16,-35.23 592.75,-33.28 593.8,-40.2"/>
</g>
</g>
</svg>
