<?xml version="1.0" encoding="UTF-8" standalone="no"?>
<!DOCTYPE svg PUBLIC "-//W3C//DTD SVG 1.1//EN"
 "http://www.w3.org/Graphics/SVG/1.1/DTD/svg11.dtd">
<!-- Generated by graphviz version 2.43.0 (0)
 -->
<!-- Title: atmega644constants.h Pages: 1 -->
<svg width="669pt" height="252pt"
 viewBox="0.00 0.00 668.95 252.00" xmlns="http://www.w3.org/2000/svg" xmlns:xlink="http://www.w3.org/1999/xlink">
<g id="graph0" class="graph" transform="scale(1 1) rotate(0) translate(4 248)">
<title>atmega644constants.h</title>
<polygon fill="white" stroke="transparent" points="-4,4 -4,-248 664.95,-248 664.95,4 -4,4"/>
<!-- Node1 -->
<g id="node1" class="node">
<title>Node1</title>
<g id="a_node1"><a xlink:title="Constants for ATMega644 and EVA board. Defines several useful constants for the ATMega644.">
<polygon fill="#bfbfbf" stroke="black" points="484,-224.5 484,-243.5 612,-243.5 612,-224.5 484,-224.5"/>
<text text-anchor="middle" x="548" y="-231.5" font-family="FreeSans" font-size="10.00">atmega644constants.h</text>
</a>
</g>
</g>
<!-- Node2 -->
<g id="node2" class="node">
<title>Node2</title>
<g id="a_node2"><a xlink:href="defines_8h.html" target="_top" xlink:title="Simple definitions and assembler&#45;macros, mostly 8/16&#45;Bit values.">
<polygon fill="white" stroke="black" points="444.5,-168.5 444.5,-187.5 505.5,-187.5 505.5,-168.5 444.5,-168.5"/>
<text text-anchor="middle" x="475" y="-175.5" font-family="FreeSans" font-size="10.00">defines.h</text>
</a>
</g>
</g>
<!-- Node1&#45;&gt;Node2 -->
<g id="edge1" class="edge">
<title>Node1&#45;&gt;Node2</title>
<path fill="none" stroke="midnightblue" d="M527.86,-218.1C514.72,-208.38 498.02,-196.03 486.94,-187.83"/>
<polygon fill="midnightblue" stroke="midnightblue" points="526.15,-221.19 536.27,-224.32 530.31,-215.56 526.15,-221.19"/>
</g>
<!-- Node7 -->
<g id="node7" class="node">
<title>Node7</title>
<g id="a_node7"><a xlink:href="util_8c.html" target="_top" xlink:title=" ">
<polygon fill="white" stroke="black" points="600.5,-56.5 600.5,-75.5 641.5,-75.5 641.5,-56.5 600.5,-56.5"/>
<text text-anchor="middle" x="621" y="-63.5" font-family="FreeSans" font-size="10.00">util.c</text>
</a>
</g>
</g>
<!-- Node1&#45;&gt;Node7 -->
<g id="edge21" class="edge">
<title>Node1&#45;&gt;Node7</title>
<path fill="none" stroke="midnightblue" d="M555.98,-214.86C571.64,-179.25 605.85,-101.45 617.23,-75.57"/>
<polygon fill="midnightblue" stroke="midnightblue" points="552.75,-213.51 551.92,-224.08 559.15,-216.33 552.75,-213.51"/>
</g>
<!-- Node3 -->
<g id="node3" class="node">
<title>Node3</title>
<g id="a_node3"><a xlink:href="lcd_8h.html" target="_top" xlink:title="Library for LCD use.">
<polygon fill="white" stroke="black" points="514,-112.5 514,-131.5 554,-131.5 554,-112.5 514,-112.5"/>
<text text-anchor="middle" x="534" y="-119.5" font-family="FreeSans" font-size="10.00">lcd.h</text>
</a>
</g>
</g>
<!-- Node2&#45;&gt;Node3 -->
<g id="edge2" class="edge">
<title>Node2&#45;&gt;Node3</title>
<path fill="none" stroke="midnightblue" d="M491.89,-161.54C502.41,-151.91 515.57,-139.87 524.35,-131.83"/>
<polygon fill="midnightblue" stroke="midnightblue" points="489.49,-158.99 484.48,-168.32 494.22,-164.15 489.49,-158.99"/>
</g>
<!-- Node4 -->
<g id="node4" class="node">
<title>Node4</title>
<g id="a_node4"><a xlink:href="os__core_8c.html" target="_top" xlink:title=" ">
<polygon fill="white" stroke="black" points="444,-56.5 444,-75.5 506,-75.5 506,-56.5 444,-56.5"/>
<text text-anchor="middle" x="475" y="-63.5" font-family="FreeSans" font-size="10.00">os_core.c</text>
</a>
</g>
</g>
<!-- Node2&#45;&gt;Node4 -->
<g id="edge15" class="edge">
<title>Node2&#45;&gt;Node4</title>
<path fill="none" stroke="midnightblue" d="M475,-158.35C475,-134.25 475,-93.31 475,-75.59"/>
<polygon fill="midnightblue" stroke="midnightblue" points="471.5,-158.37 475,-168.37 478.5,-158.37 471.5,-158.37"/>
</g>
<!-- Node6 -->
<g id="node6" class="node">
<title>Node6</title>
<g id="a_node6"><a xlink:href="os__taskman_8c.html" target="_top" xlink:title=" ">
<polygon fill="white" stroke="black" points="428,-0.5 428,-19.5 512,-19.5 512,-0.5 428,-0.5"/>
<text text-anchor="middle" x="470" y="-7.5" font-family="FreeSans" font-size="10.00">os_taskman.c</text>
</a>
</g>
</g>
<!-- Node2&#45;&gt;Node6 -->
<g id="edge18" class="edge">
<title>Node2&#45;&gt;Node6</title>
<path fill="none" stroke="midnightblue" d="M515.78,-167.27C580.12,-150.01 693.71,-110.63 651,-56 634.1,-34.38 560.23,-21.66 512.24,-15.54"/>
<polygon fill="midnightblue" stroke="midnightblue" points="514.7,-163.94 505.91,-169.85 516.47,-170.71 514.7,-163.94"/>
</g>
<!-- Node2&#45;&gt;Node7 -->
<g id="edge20" class="edge">
<title>Node2&#45;&gt;Node7</title>
<path fill="none" stroke="midnightblue" d="M506.21,-164.46C523.82,-156.57 545.7,-145.36 563,-132 584.79,-115.18 604.91,-89.42 614.72,-75.94"/>
<polygon fill="midnightblue" stroke="midnightblue" points="504.7,-161.3 496.92,-168.49 507.48,-167.72 504.7,-161.3"/>
</g>
<!-- Node8 -->
<g id="node8" class="node">
<title>Node8</title>
<g id="a_node8"><a xlink:href="os__scheduler_8h.html" target="_top" xlink:title="Scheduling module for the OS.">
<polygon fill="white" stroke="black" points="237.5,-112.5 237.5,-131.5 326.5,-131.5 326.5,-112.5 237.5,-112.5"/>
<text text-anchor="middle" x="282" y="-119.5" font-family="FreeSans" font-size="10.00">os_scheduler.h</text>
</a>
</g>
</g>
<!-- Node2&#45;&gt;Node8 -->
<g id="edge7" class="edge">
<title>Node2&#45;&gt;Node8</title>
<path fill="none" stroke="midnightblue" d="M434.61,-165.7C398.18,-155.51 345.41,-140.74 312.44,-131.52"/>
<polygon fill="midnightblue" stroke="midnightblue" points="433.85,-169.12 444.42,-168.44 435.73,-162.38 433.85,-169.12"/>
</g>
<!-- Node9 -->
<g id="node9" class="node">
<title>Node9</title>
<g id="a_node9"><a xlink:href="os__scheduling__strategies_8h.html" target="_top" xlink:title="Scheduling library for the OS.">
<polygon fill="white" stroke="black" points="67.5,-56.5 67.5,-75.5 216.5,-75.5 216.5,-56.5 67.5,-56.5"/>
<text text-anchor="middle" x="142" y="-63.5" font-family="FreeSans" font-size="10.00">os_scheduling_strategies.h</text>
</a>
</g>
</g>
<!-- Node2&#45;&gt;Node9 -->
<g id="edge16" class="edge">
<title>Node2&#45;&gt;Node9</title>
<path fill="none" stroke="midnightblue" d="M434.24,-175.34C383.85,-172.01 296.37,-162.02 228,-132 196.13,-118.01 165.17,-90.03 150.62,-75.78"/>
<polygon fill="midnightblue" stroke="midnightblue" points="434.22,-178.84 444.41,-175.95 434.64,-171.86 434.22,-178.84"/>
</g>
<!-- Node10 -->
<g id="node10" class="node">
<title>Node10</title>
<g id="a_node10"><a xlink:href="os__scheduling__strategies_8c.html" target="_top" xlink:title=" ">
<polygon fill="white" stroke="black" points="0,-0.5 0,-19.5 148,-19.5 148,-0.5 0,-0.5"/>
<text text-anchor="middle" x="74" y="-7.5" font-family="FreeSans" font-size="10.00">os_scheduling_strategies.c</text>
</a>
</g>
</g>
<!-- Node2&#45;&gt;Node10 -->
<g id="edge17" class="edge">
<title>Node2&#45;&gt;Node10</title>
<path fill="none" stroke="midnightblue" d="M434.02,-173.64C378.21,-168.35 275.56,-156.12 191,-132 129.32,-114.41 93.48,-129.43 58,-76 46.3,-58.38 59.32,-32.96 67.83,-19.74"/>
<polygon fill="midnightblue" stroke="midnightblue" points="433.94,-177.14 444.21,-174.57 434.58,-170.17 433.94,-177.14"/>
</g>
<!-- Node11 -->
<g id="node11" class="node">
<title>Node11</title>
<g id="a_node11"><a xlink:href="os__user__privileges_8h.html" target="_top" xlink:title="User privileges specification used in part by the Taskman.">
<polygon fill="white" stroke="black" points="310,-56.5 310,-75.5 426,-75.5 426,-56.5 310,-56.5"/>
<text text-anchor="middle" x="368" y="-63.5" font-family="FreeSans" font-size="10.00">os_user_privileges.h</text>
</a>
</g>
</g>
<!-- Node2&#45;&gt;Node11 -->
<g id="edge19" class="edge">
<title>Node2&#45;&gt;Node11</title>
<path fill="none" stroke="midnightblue" d="M459.34,-160.9C436.33,-137.25 394.21,-93.95 376.36,-75.59"/>
<polygon fill="midnightblue" stroke="midnightblue" points="457.12,-163.64 466.6,-168.37 462.14,-158.76 457.12,-163.64"/>
</g>
<!-- Node3&#45;&gt;Node4 -->
<g id="edge3" class="edge">
<title>Node3&#45;&gt;Node4</title>
<path fill="none" stroke="midnightblue" d="M517.11,-105.54C506.59,-95.91 493.43,-83.87 484.65,-75.83"/>
<polygon fill="midnightblue" stroke="midnightblue" points="514.78,-108.15 524.52,-112.32 519.51,-102.99 514.78,-108.15"/>
</g>
<!-- Node5 -->
<g id="node5" class="node">
<title>Node5</title>
<g id="a_node5"><a xlink:href="os__scheduler_8c.html" target="_top" xlink:title=" ">
<polygon fill="white" stroke="black" points="200,-0.5 200,-19.5 288,-19.5 288,-0.5 200,-0.5"/>
<text text-anchor="middle" x="244" y="-7.5" font-family="FreeSans" font-size="10.00">os_scheduler.c</text>
</a>
</g>
</g>
<!-- Node3&#45;&gt;Node5 -->
<g id="edge4" class="edge">
<title>Node3&#45;&gt;Node5</title>
<path fill="none" stroke="midnightblue" d="M533.67,-102.28C532.35,-87.52 528.04,-67.56 515,-56 482.13,-26.85 356.19,-16.35 288.18,-12.75"/>
<polygon fill="midnightblue" stroke="midnightblue" points="530.17,-102.53 534.18,-112.33 537.16,-102.17 530.17,-102.53"/>
</g>
<!-- Node3&#45;&gt;Node6 -->
<g id="edge5" class="edge">
<title>Node3&#45;&gt;Node6</title>
<path fill="none" stroke="midnightblue" d="M544.14,-103.52C550.65,-89.8 556.46,-70.64 548,-56 537.52,-37.86 516.64,-26.38 499.12,-19.56"/>
<polygon fill="midnightblue" stroke="midnightblue" points="541.03,-101.93 539.47,-112.41 547.22,-105.19 541.03,-101.93"/>
</g>
<!-- Node3&#45;&gt;Node7 -->
<g id="edge6" class="edge">
<title>Node3&#45;&gt;Node7</title>
<path fill="none" stroke="midnightblue" d="M556.72,-106.9C572.67,-97 593.5,-84.07 607.06,-75.65"/>
<polygon fill="midnightblue" stroke="midnightblue" points="554.63,-104.08 547.98,-112.32 558.32,-110.02 554.63,-104.08"/>
</g>
<!-- Node8&#45;&gt;Node5 -->
<g id="edge8" class="edge">
<title>Node8&#45;&gt;Node5</title>
<path fill="none" stroke="midnightblue" d="M275.67,-102.67C267.36,-78.62 253.12,-37.39 246.97,-19.59"/>
<polygon fill="midnightblue" stroke="midnightblue" points="272.44,-104.06 279.02,-112.37 279.06,-101.77 272.44,-104.06"/>
</g>
<!-- Node8&#45;&gt;Node6 -->
<g id="edge12" class="edge">
<title>Node8&#45;&gt;Node6</title>
<path fill="none" stroke="midnightblue" d="M282.73,-101.71C284.31,-87.23 288.79,-67.92 301,-56 334.79,-23.02 389.88,-13.5 427.93,-11.11"/>
<polygon fill="midnightblue" stroke="midnightblue" points="279.21,-101.83 281.99,-112.05 286.2,-102.33 279.21,-101.83"/>
</g>
<!-- Node8&#45;&gt;Node9 -->
<g id="edge9" class="edge">
<title>Node8&#45;&gt;Node9</title>
<path fill="none" stroke="midnightblue" d="M250.3,-108.77C224,-98.63 187.28,-84.47 164.08,-75.52"/>
<polygon fill="midnightblue" stroke="midnightblue" points="249.23,-112.11 259.82,-112.44 251.75,-105.58 249.23,-112.11"/>
</g>
<!-- Node8&#45;&gt;Node11 -->
<g id="edge13" class="edge">
<title>Node8&#45;&gt;Node11</title>
<path fill="none" stroke="midnightblue" d="M304.45,-106.9C320.22,-97 340.81,-84.07 354.22,-75.65"/>
<polygon fill="midnightblue" stroke="midnightblue" points="302.43,-104.04 295.82,-112.32 306.15,-109.97 302.43,-104.04"/>
</g>
<!-- Node9&#45;&gt;Node5 -->
<g id="edge10" class="edge">
<title>Node9&#45;&gt;Node5</title>
<path fill="none" stroke="midnightblue" d="M167.33,-51.59C186.19,-41.61 211.38,-28.27 227.65,-19.65"/>
<polygon fill="midnightblue" stroke="midnightblue" points="165.59,-48.55 158.39,-56.32 168.86,-54.74 165.59,-48.55"/>
</g>
<!-- Node9&#45;&gt;Node10 -->
<g id="edge11" class="edge">
<title>Node9&#45;&gt;Node10</title>
<path fill="none" stroke="midnightblue" d="M123.24,-50.1C111,-40.38 95.44,-28.03 85.12,-19.83"/>
<polygon fill="midnightblue" stroke="midnightblue" points="121.07,-52.85 131.07,-56.32 125.42,-47.36 121.07,-52.85"/>
</g>
<!-- Node11&#45;&gt;Node6 -->
<g id="edge14" class="edge">
<title>Node11&#45;&gt;Node6</title>
<path fill="none" stroke="midnightblue" d="M393.33,-51.59C412.19,-41.61 437.38,-28.27 453.65,-19.65"/>
<polygon fill="midnightblue" stroke="midnightblue" points="391.59,-48.55 384.39,-56.32 394.86,-54.74 391.59,-48.55"/>
</g>
</g>
</svg>
