<?xml version="1.0" encoding="UTF-8" standalone="no"?>
<!DOCTYPE svg PUBLIC "-//W3C//DTD SVG 1.1//EN"
 "http://www.w3.org/Graphics/SVG/1.1/DTD/svg11.dtd">
<!-- Generated by graphviz version 2.43.0 (0)
 -->
<!-- Title: defines.h Pages: 1 -->
<svg width="670pt" height="196pt"
 viewBox="0.00 0.00 670.30 196.00" xmlns="http://www.w3.org/2000/svg" xmlns:xlink="http://www.w3.org/1999/xlink">
<g id="graph0" class="graph" transform="scale(1 1) rotate(0) translate(4 192)">
<title>defines.h</title>
<polygon fill="white" stroke="transparent" points="-4,4 -4,-192 666.3,-192 666.3,4 -4,4"/>
<!-- Node1 -->
<g id="node1" class="node">
<title>Node1</title>
<g id="a_node1"><a xlink:title="Simple definitions and assembler&#45;macros, mostly 8/16&#45;Bit values.">
<polygon fill="#bfbfbf" stroke="black" points="201.8,-168.5 201.8,-187.5 262.8,-187.5 262.8,-168.5 201.8,-168.5"/>
<text text-anchor="middle" x="232.3" y="-175.5" font-family="FreeSans" font-size="10.00">defines.h</text>
</a>
</g>
</g>
<!-- Node2 -->
<g id="node2" class="node">
<title>Node2</title>
<g id="a_node2"><a xlink:href="lcd_8h.html" target="_top" xlink:title="Library for LCD use.">
<polygon fill="white" stroke="black" points="150.3,-112.5 150.3,-131.5 190.3,-131.5 190.3,-112.5 150.3,-112.5"/>
<text text-anchor="middle" x="170.3" y="-119.5" font-family="FreeSans" font-size="10.00">lcd.h</text>
</a>
</g>
</g>
<!-- Node1&#45;&gt;Node2 -->
<g id="edge1" class="edge">
<title>Node1&#45;&gt;Node2</title>
<path fill="none" stroke="midnightblue" d="M214.55,-161.54C203.5,-151.91 189.67,-139.87 180.45,-131.83"/>
<polygon fill="midnightblue" stroke="midnightblue" points="212.5,-164.4 222.34,-168.32 217.1,-159.12 212.5,-164.4"/>
</g>
<!-- Node3 -->
<g id="node3" class="node">
<title>Node3</title>
<g id="a_node3"><a xlink:href="os__core_8c.html" target="_top" xlink:title=" ">
<polygon fill="white" stroke="black" points="20.3,-56.5 20.3,-75.5 82.3,-75.5 82.3,-56.5 20.3,-56.5"/>
<text text-anchor="middle" x="51.3" y="-63.5" font-family="FreeSans" font-size="10.00">os_core.c</text>
</a>
</g>
</g>
<!-- Node1&#45;&gt;Node3 -->
<g id="edge14" class="edge">
<title>Node1&#45;&gt;Node3</title>
<path fill="none" stroke="midnightblue" d="M196.32,-164.93C175.13,-157.06 148.27,-145.7 126.3,-132 99.41,-115.22 72.43,-88.98 59.38,-75.55"/>
<polygon fill="midnightblue" stroke="midnightblue" points="195.33,-168.29 205.92,-168.41 197.71,-161.71 195.33,-168.29"/>
</g>
<!-- Node5 -->
<g id="node5" class="node">
<title>Node5</title>
<g id="a_node5"><a xlink:href="os__taskman_8c.html" target="_top" xlink:title=" ">
<polygon fill="white" stroke="black" points="190.3,-0.5 190.3,-19.5 274.3,-19.5 274.3,-0.5 190.3,-0.5"/>
<text text-anchor="middle" x="232.3" y="-7.5" font-family="FreeSans" font-size="10.00">os_taskman.c</text>
</a>
</g>
</g>
<!-- Node1&#45;&gt;Node5 -->
<g id="edge17" class="edge">
<title>Node1&#45;&gt;Node5</title>
<path fill="none" stroke="midnightblue" d="M191.73,-170.96C114.19,-157.77 -42.72,-122.14 11.3,-56 33.41,-28.94 132.14,-17.74 189.88,-13.43"/>
<polygon fill="midnightblue" stroke="midnightblue" points="191.23,-174.43 201.67,-172.6 192.37,-167.52 191.23,-174.43"/>
</g>
<!-- Node6 -->
<g id="node6" class="node">
<title>Node6</title>
<g id="a_node6"><a xlink:href="util_8c.html" target="_top" xlink:title=" ">
<polygon fill="white" stroke="black" points="100.8,-56.5 100.8,-75.5 141.8,-75.5 141.8,-56.5 100.8,-56.5"/>
<text text-anchor="middle" x="121.3" y="-63.5" font-family="FreeSans" font-size="10.00">util.c</text>
</a>
</g>
</g>
<!-- Node1&#45;&gt;Node6 -->
<g id="edge19" class="edge">
<title>Node1&#45;&gt;Node6</title>
<path fill="none" stroke="midnightblue" d="M192.12,-165.24C174.34,-158.19 154.51,-147.52 141.3,-132 127.23,-115.45 123.05,-89.11 121.82,-75.61"/>
<polygon fill="midnightblue" stroke="midnightblue" points="191.14,-168.61 201.74,-168.79 193.57,-162.04 191.14,-168.61"/>
</g>
<!-- Node7 -->
<g id="node7" class="node">
<title>Node7</title>
<g id="a_node7"><a xlink:href="os__scheduler_8h.html" target="_top" xlink:title="Scheduling module for the OS.">
<polygon fill="white" stroke="black" points="335.8,-112.5 335.8,-131.5 424.8,-131.5 424.8,-112.5 335.8,-112.5"/>
<text text-anchor="middle" x="380.3" y="-119.5" font-family="FreeSans" font-size="10.00">os_scheduler.h</text>
</a>
</g>
</g>
<!-- Node1&#45;&gt;Node7 -->
<g id="edge6" class="edge">
<title>Node1&#45;&gt;Node7</title>
<path fill="none" stroke="midnightblue" d="M265.45,-164.91C293.28,-154.75 332.32,-140.51 356.96,-131.52"/>
<polygon fill="midnightblue" stroke="midnightblue" points="263.95,-161.73 255.75,-168.44 266.35,-168.3 263.95,-161.73"/>
</g>
<!-- Node8 -->
<g id="node8" class="node">
<title>Node8</title>
<g id="a_node8"><a xlink:href="os__scheduling__strategies_8h.html" target="_top" xlink:title="Scheduling library for the OS.">
<polygon fill="white" stroke="black" points="445.8,-56.5 445.8,-75.5 594.8,-75.5 594.8,-56.5 445.8,-56.5"/>
<text text-anchor="middle" x="520.3" y="-63.5" font-family="FreeSans" font-size="10.00">os_scheduling_strategies.h</text>
</a>
</g>
</g>
<!-- Node1&#45;&gt;Node8 -->
<g id="edge15" class="edge">
<title>Node1&#45;&gt;Node8</title>
<path fill="none" stroke="midnightblue" d="M273.16,-173.07C315.17,-167.87 381.69,-156.33 434.3,-132 465.9,-117.39 496.98,-89.7 511.62,-75.64"/>
<polygon fill="midnightblue" stroke="midnightblue" points="272.56,-169.62 263.04,-174.26 273.38,-176.57 272.56,-169.62"/>
</g>
<!-- Node9 -->
<g id="node9" class="node">
<title>Node9</title>
<g id="a_node9"><a xlink:href="os__scheduling__strategies_8c.html" target="_top" xlink:title=" ">
<polygon fill="white" stroke="black" points="514.3,-0.5 514.3,-19.5 662.3,-19.5 662.3,-0.5 514.3,-0.5"/>
<text text-anchor="middle" x="588.3" y="-7.5" font-family="FreeSans" font-size="10.00">os_scheduling_strategies.c</text>
</a>
</g>
</g>
<!-- Node1&#45;&gt;Node9 -->
<g id="edge16" class="edge">
<title>Node1&#45;&gt;Node9</title>
<path fill="none" stroke="midnightblue" d="M272.75,-172.54C361.17,-161.84 566.82,-131.37 604.3,-76 616.16,-58.49 603.07,-33.02 594.51,-19.76"/>
<polygon fill="midnightblue" stroke="midnightblue" points="272.33,-169.07 262.81,-173.72 273.16,-176.02 272.33,-169.07"/>
</g>
<!-- Node10 -->
<g id="node10" class="node">
<title>Node10</title>
<g id="a_node10"><a xlink:href="os__user__privileges_8h.html" target="_top" xlink:title="User privileges specification used in part by the Taskman.">
<polygon fill="white" stroke="black" points="236.3,-56.5 236.3,-75.5 352.3,-75.5 352.3,-56.5 236.3,-56.5"/>
<text text-anchor="middle" x="294.3" y="-63.5" font-family="FreeSans" font-size="10.00">os_user_privileges.h</text>
</a>
</g>
</g>
<!-- Node1&#45;&gt;Node10 -->
<g id="edge18" class="edge">
<title>Node1&#45;&gt;Node10</title>
<path fill="none" stroke="midnightblue" d="M242.09,-159.64C255.56,-135.74 279.29,-93.63 289.46,-75.59"/>
<polygon fill="midnightblue" stroke="midnightblue" points="239.03,-157.94 237.17,-168.37 245.13,-161.38 239.03,-157.94"/>
</g>
<!-- Node2&#45;&gt;Node3 -->
<g id="edge2" class="edge">
<title>Node2&#45;&gt;Node3</title>
<path fill="none" stroke="midnightblue" d="M142.17,-108.23C119.91,-98.13 89.45,-84.31 70.07,-75.52"/>
<polygon fill="midnightblue" stroke="midnightblue" points="140.9,-111.5 151.45,-112.44 143.79,-105.12 140.9,-111.5"/>
</g>
<!-- Node4 -->
<g id="node4" class="node">
<title>Node4</title>
<g id="a_node4"><a xlink:href="os__scheduler_8c.html" target="_top" xlink:title=" ">
<polygon fill="white" stroke="black" points="374.3,-0.5 374.3,-19.5 462.3,-19.5 462.3,-0.5 374.3,-0.5"/>
<text text-anchor="middle" x="418.3" y="-7.5" font-family="FreeSans" font-size="10.00">os_scheduler.c</text>
</a>
</g>
</g>
<!-- Node2&#45;&gt;Node4 -->
<g id="edge3" class="edge">
<title>Node2&#45;&gt;Node4</title>
<path fill="none" stroke="midnightblue" d="M181.09,-103.52C191.2,-88.62 207.68,-67.8 227.3,-56 272.71,-28.71 333.43,-17.97 374.1,-13.74"/>
<polygon fill="midnightblue" stroke="midnightblue" points="177.89,-102.01 175.39,-112.3 183.77,-105.82 177.89,-102.01"/>
</g>
<!-- Node2&#45;&gt;Node5 -->
<g id="edge4" class="edge">
<title>Node2&#45;&gt;Node5</title>
<path fill="none" stroke="midnightblue" d="M175.35,-102.2C179.39,-88.79 185.79,-70.62 194.3,-56 202.44,-42.04 215.01,-28.17 223.44,-19.6"/>
<polygon fill="midnightblue" stroke="midnightblue" points="171.88,-101.59 172.51,-112.16 178.61,-103.5 171.88,-101.59"/>
</g>
<!-- Node2&#45;&gt;Node6 -->
<g id="edge5" class="edge">
<title>Node2&#45;&gt;Node6</title>
<path fill="none" stroke="midnightblue" d="M155.27,-104.43C146.68,-94.97 136.26,-83.48 129.24,-75.75"/>
<polygon fill="midnightblue" stroke="midnightblue" points="152.9,-107.03 162.21,-112.08 158.08,-102.33 152.9,-107.03"/>
</g>
<!-- Node7&#45;&gt;Node4 -->
<g id="edge7" class="edge">
<title>Node7&#45;&gt;Node4</title>
<path fill="none" stroke="midnightblue" d="M386.63,-102.67C394.94,-78.62 409.19,-37.39 415.34,-19.59"/>
<polygon fill="midnightblue" stroke="midnightblue" points="383.24,-101.77 383.29,-112.37 389.86,-104.06 383.24,-101.77"/>
</g>
<!-- Node7&#45;&gt;Node5 -->
<g id="edge11" class="edge">
<title>Node7&#45;&gt;Node5</title>
<path fill="none" stroke="midnightblue" d="M379.31,-101.96C377.59,-87.62 373.06,-68.38 361.3,-56 338.68,-32.18 302.78,-20.97 274.59,-15.69"/>
<polygon fill="midnightblue" stroke="midnightblue" points="375.85,-102.52 380.18,-112.19 382.82,-101.93 375.85,-102.52"/>
</g>
<!-- Node7&#45;&gt;Node8 -->
<g id="edge8" class="edge">
<title>Node7&#45;&gt;Node8</title>
<path fill="none" stroke="midnightblue" d="M412.01,-108.77C438.3,-98.63 475.02,-84.47 498.22,-75.52"/>
<polygon fill="midnightblue" stroke="midnightblue" points="410.56,-105.58 402.49,-112.44 413.08,-112.11 410.56,-105.58"/>
</g>
<!-- Node7&#45;&gt;Node10 -->
<g id="edge12" class="edge">
<title>Node7&#45;&gt;Node10</title>
<path fill="none" stroke="midnightblue" d="M357.85,-106.9C342.08,-97 321.49,-84.07 308.09,-75.65"/>
<polygon fill="midnightblue" stroke="midnightblue" points="356.16,-109.97 366.49,-112.32 359.88,-104.04 356.16,-109.97"/>
</g>
<!-- Node8&#45;&gt;Node4 -->
<g id="edge9" class="edge">
<title>Node8&#45;&gt;Node4</title>
<path fill="none" stroke="midnightblue" d="M494.97,-51.59C476.11,-41.61 450.92,-28.27 434.65,-19.65"/>
<polygon fill="midnightblue" stroke="midnightblue" points="493.44,-54.74 503.92,-56.32 496.72,-48.55 493.44,-54.74"/>
</g>
<!-- Node8&#45;&gt;Node9 -->
<g id="edge10" class="edge">
<title>Node8&#45;&gt;Node9</title>
<path fill="none" stroke="midnightblue" d="M539.07,-50.1C551.3,-40.38 566.86,-28.03 577.18,-19.83"/>
<polygon fill="midnightblue" stroke="midnightblue" points="536.88,-47.36 531.23,-56.32 541.24,-52.85 536.88,-47.36"/>
</g>
<!-- Node10&#45;&gt;Node5 -->
<g id="edge13" class="edge">
<title>Node10&#45;&gt;Node5</title>
<path fill="none" stroke="midnightblue" d="M276.55,-49.54C265.5,-39.91 251.67,-27.87 242.45,-19.83"/>
<polygon fill="midnightblue" stroke="midnightblue" points="274.5,-52.4 284.34,-56.32 279.1,-47.12 274.5,-52.4"/>
</g>
</g>
</svg>
