<?xml version="1.0" encoding="UTF-8" standalone="no"?>
<!DOCTYPE svg PUBLIC "-//W3C//DTD SVG 1.1//EN"
 "http://www.w3.org/Graphics/SVG/1.1/DTD/svg11.dtd">
<!-- Generated by graphviz version 2.43.0 (0)
 -->
<!-- Title: lcd_writeString Pages: 1 -->
<svg width="433pt" height="104pt"
 viewBox="0.00 0.00 433.00 104.00" xmlns="http://www.w3.org/2000/svg" xmlns:xlink="http://www.w3.org/1999/xlink">
<g id="graph0" class="graph" transform="scale(1 1) rotate(0) translate(4 100)">
<title>lcd_writeString</title>
<polygon fill="white" stroke="transparent" points="-4,4 -4,-100 429,-100 429,4 -4,4"/>
<!-- Node1 -->
<g id="node1" class="node">
<title>Node1</title>
<g id="a_node1"><a xlink:title="Write text string.">
<polygon fill="#bfbfbf" stroke="black" points="0,-38.5 0,-57.5 89,-57.5 89,-38.5 0,-38.5"/>
<text text-anchor="middle" x="44.5" y="-45.5" font-family="FreeSans" font-size="10.00">lcd_writeString</text>
</a>
</g>
</g>
<!-- Node2 -->
<g id="node2" class="node">
<title>Node2</title>
<g id="a_node2"><a xlink:href="lcd_8h.html#a93cd5600fa3b27381a4cf57d21f27ebf" target="_top" xlink:title="Write one character.">
<polygon fill="white" stroke="black" points="125,-38.5 125,-57.5 208,-57.5 208,-38.5 125,-38.5"/>
<text text-anchor="middle" x="166.5" y="-45.5" font-family="FreeSans" font-size="10.00">lcd_writeChar</text>
</a>
</g>
</g>
<!-- Node1&#45;&gt;Node2 -->
<g id="edge1" class="edge">
<title>Node1&#45;&gt;Node2</title>
<path fill="none" stroke="midnightblue" d="M89.16,-48C97.45,-48 106.19,-48 114.68,-48"/>
<polygon fill="midnightblue" stroke="midnightblue" points="114.86,-51.5 124.86,-48 114.86,-44.5 114.86,-51.5"/>
</g>
<!-- Node3 -->
<g id="node3" class="node">
<title>Node3</title>
<g id="a_node3"><a xlink:href="lcd_8h.html#ad235a86241458b1e7b8771688bfdaf9a" target="_top" xlink:title="Clear all data from display.">
<polygon fill="white" stroke="black" points="244,-76.5 244,-95.5 304,-95.5 304,-76.5 244,-76.5"/>
<text text-anchor="middle" x="274" y="-83.5" font-family="FreeSans" font-size="10.00">lcd_clear</text>
</a>
</g>
</g>
<!-- Node2&#45;&gt;Node3 -->
<g id="edge2" class="edge">
<title>Node2&#45;&gt;Node3</title>
<path fill="none" stroke="midnightblue" d="M194.12,-57.59C206.99,-62.22 222.64,-67.86 236.59,-72.89"/>
<polygon fill="midnightblue" stroke="midnightblue" points="235.79,-76.32 246.39,-76.41 238.16,-69.73 235.79,-76.32"/>
</g>
<!-- Node5 -->
<g id="node5" class="node">
<title>Node5</title>
<g id="a_node5"><a xlink:href="lcd_8h.html#a016fe1471f1d20196b5ca3d2634c927a" target="_top" xlink:title="Next output will be written to line 1.">
<polygon fill="white" stroke="black" points="244,-38.5 244,-57.5 304,-57.5 304,-38.5 244,-38.5"/>
<text text-anchor="middle" x="274" y="-45.5" font-family="FreeSans" font-size="10.00">lcd_line1</text>
</a>
</g>
</g>
<!-- Node2&#45;&gt;Node5 -->
<g id="edge4" class="edge">
<title>Node2&#45;&gt;Node5</title>
<path fill="none" stroke="midnightblue" d="M208.29,-48C216.61,-48 225.34,-48 233.61,-48"/>
<polygon fill="midnightblue" stroke="midnightblue" points="233.76,-51.5 243.76,-48 233.76,-44.5 233.76,-51.5"/>
</g>
<!-- Node6 -->
<g id="node6" class="node">
<title>Node6</title>
<g id="a_node6"><a xlink:href="lcd_8h.html#ad9ccaf30ea478fef726c058ff4ee7dd1" target="_top" xlink:title="Next output will be written to line 2.">
<polygon fill="white" stroke="black" points="244,-0.5 244,-19.5 304,-19.5 304,-0.5 244,-0.5"/>
<text text-anchor="middle" x="274" y="-7.5" font-family="FreeSans" font-size="10.00">lcd_line2</text>
</a>
</g>
</g>
<!-- Node2&#45;&gt;Node6 -->
<g id="edge6" class="edge">
<title>Node2&#45;&gt;Node6</title>
<path fill="none" stroke="midnightblue" d="M194.12,-38.41C206.99,-33.78 222.64,-28.14 236.59,-23.11"/>
<polygon fill="midnightblue" stroke="midnightblue" points="238.16,-26.27 246.39,-19.59 235.79,-19.68 238.16,-26.27"/>
</g>
<!-- Node4 -->
<g id="node4" class="node">
<title>Node4</title>
<g id="a_node4"><a xlink:href="lcd_8h.html#acb116d89c358367b8fd1164120d320e3" target="_top" xlink:title="Send command to LCD.">
<polygon fill="white" stroke="black" points="340,-38.5 340,-57.5 425,-57.5 425,-38.5 340,-38.5"/>
<text text-anchor="middle" x="382.5" y="-45.5" font-family="FreeSans" font-size="10.00">lcd_command</text>
</a>
</g>
</g>
<!-- Node3&#45;&gt;Node4 -->
<g id="edge3" class="edge">
<title>Node3&#45;&gt;Node4</title>
<path fill="none" stroke="midnightblue" d="M301.87,-76.41C314.99,-71.73 330.97,-66.03 345.15,-60.97"/>
<polygon fill="midnightblue" stroke="midnightblue" points="346.39,-64.24 354.63,-57.59 344.04,-57.65 346.39,-64.24"/>
</g>
<!-- Node5&#45;&gt;Node4 -->
<g id="edge5" class="edge">
<title>Node5&#45;&gt;Node4</title>
<path fill="none" stroke="midnightblue" d="M304.1,-48C311.98,-48 320.76,-48 329.49,-48"/>
<polygon fill="midnightblue" stroke="midnightblue" points="329.66,-51.5 339.66,-48 329.66,-44.5 329.66,-51.5"/>
</g>
<!-- Node6&#45;&gt;Node4 -->
<g id="edge7" class="edge">
<title>Node6&#45;&gt;Node4</title>
<path fill="none" stroke="midnightblue" d="M301.87,-19.59C314.99,-24.27 330.97,-29.97 345.15,-35.03"/>
<polygon fill="midnightblue" stroke="midnightblue" points="344.04,-38.35 354.63,-38.41 346.39,-31.76 344.04,-38.35"/>
</g>
</g>
</svg>
