<?xml version="1.0" encoding="UTF-8" standalone="no"?>
<!DOCTYPE svg PUBLIC "-//W3C//DTD SVG 1.1//EN"
 "http://www.w3.org/Graphics/SVG/1.1/DTD/svg11.dtd">
<!-- Generated by graphviz version 2.43.0 (0)
 -->
<!-- Title: lcd_writeDec Pages: 1 -->
<svg width="424pt" height="104pt"
 viewBox="0.00 0.00 424.00 104.00" xmlns="http://www.w3.org/2000/svg" xmlns:xlink="http://www.w3.org/1999/xlink">
<g id="graph0" class="graph" transform="scale(1 1) rotate(0) translate(4 100)">
<title>lcd_writeDec</title>
<polygon fill="white" stroke="transparent" points="-4,4 -4,-100 420,-100 420,4 -4,4"/>
<!-- Node1 -->
<g id="node1" class="node">
<title>Node1</title>
<g id="a_node1"><a xlink:title="Write a byte as a decimal number without prefixes.">
<polygon fill="#bfbfbf" stroke="black" points="0,-38.5 0,-57.5 80,-57.5 80,-38.5 0,-38.5"/>
<text text-anchor="middle" x="40" y="-45.5" font-family="FreeSans" font-size="10.00">lcd_writeDec</text>
</a>
</g>
</g>
<!-- Node2 -->
<g id="node2" class="node">
<title>Node2</title>
<g id="a_node2"><a xlink:href="lcd_8h.html#a93cd5600fa3b27381a4cf57d21f27ebf" target="_top" xlink:title="Write one character.">
<polygon fill="white" stroke="black" points="116,-38.5 116,-57.5 199,-57.5 199,-38.5 116,-38.5"/>
<text text-anchor="middle" x="157.5" y="-45.5" font-family="FreeSans" font-size="10.00">lcd_writeChar</text>
</a>
</g>
</g>
<!-- Node1&#45;&gt;Node2 -->
<g id="edge1" class="edge">
<title>Node1&#45;&gt;Node2</title>
<path fill="none" stroke="midnightblue" d="M80.1,-48C88.29,-48 97.04,-48 105.59,-48"/>
<polygon fill="midnightblue" stroke="midnightblue" points="105.86,-51.5 115.86,-48 105.86,-44.5 105.86,-51.5"/>
</g>
<!-- Node3 -->
<g id="node3" class="node">
<title>Node3</title>
<g id="a_node3"><a xlink:href="lcd_8h.html#ad235a86241458b1e7b8771688bfdaf9a" target="_top" xlink:title="Clear all data from display.">
<polygon fill="white" stroke="black" points="235,-76.5 235,-95.5 295,-95.5 295,-76.5 235,-76.5"/>
<text text-anchor="middle" x="265" y="-83.5" font-family="FreeSans" font-size="10.00">lcd_clear</text>
</a>
</g>
</g>
<!-- Node2&#45;&gt;Node3 -->
<g id="edge2" class="edge">
<title>Node2&#45;&gt;Node3</title>
<path fill="none" stroke="midnightblue" d="M185.12,-57.59C197.99,-62.22 213.64,-67.86 227.59,-72.89"/>
<polygon fill="midnightblue" stroke="midnightblue" points="226.79,-76.32 237.39,-76.41 229.16,-69.73 226.79,-76.32"/>
</g>
<!-- Node5 -->
<g id="node5" class="node">
<title>Node5</title>
<g id="a_node5"><a xlink:href="lcd_8h.html#a016fe1471f1d20196b5ca3d2634c927a" target="_top" xlink:title="Next output will be written to line 1.">
<polygon fill="white" stroke="black" points="235,-38.5 235,-57.5 295,-57.5 295,-38.5 235,-38.5"/>
<text text-anchor="middle" x="265" y="-45.5" font-family="FreeSans" font-size="10.00">lcd_line1</text>
</a>
</g>
</g>
<!-- Node2&#45;&gt;Node5 -->
<g id="edge4" class="edge">
<title>Node2&#45;&gt;Node5</title>
<path fill="none" stroke="midnightblue" d="M199.29,-48C207.61,-48 216.34,-48 224.61,-48"/>
<polygon fill="midnightblue" stroke="midnightblue" points="224.76,-51.5 234.76,-48 224.76,-44.5 224.76,-51.5"/>
</g>
<!-- Node6 -->
<g id="node6" class="node">
<title>Node6</title>
<g id="a_node6"><a xlink:href="lcd_8h.html#ad9ccaf30ea478fef726c058ff4ee7dd1" target="_top" xlink:title="Next output will be written to line 2.">
<polygon fill="white" stroke="black" points="235,-0.5 235,-19.5 295,-19.5 295,-0.5 235,-0.5"/>
<text text-anchor="middle" x="265" y="-7.5" font-family="FreeSans" font-size="10.00">lcd_line2</text>
</a>
</g>
</g>
<!-- Node2&#45;&gt;Node6 -->
<g id="edge6" class="edge">
<title>Node2&#45;&gt;Node6</title>
<path fill="none" stroke="midnightblue" d="M185.12,-38.41C197.99,-33.78 213.64,-28.14 227.59,-23.11"/>
<polygon fill="midnightblue" stroke="midnightblue" points="229.16,-26.27 237.39,-19.59 226.79,-19.68 229.16,-26.27"/>
</g>
<!-- Node4 -->
<g id="node4" class="node">
<title>Node4</title>
<g id="a_node4"><a xlink:href="lcd_8h.html#acb116d89c358367b8fd1164120d320e3" target="_top" xlink:title="Send command to LCD.">
<polygon fill="white" stroke="black" points="331,-38.5 331,-57.5 416,-57.5 416,-38.5 331,-38.5"/>
<text text-anchor="middle" x="373.5" y="-45.5" font-family="FreeSans" font-size="10.00">lcd_command</text>
</a>
</g>
</g>
<!-- Node3&#45;&gt;Node4 -->
<g id="edge3" class="edge">
<title>Node3&#45;&gt;Node4</title>
<path fill="none" stroke="midnightblue" d="M292.87,-76.41C305.99,-71.73 321.97,-66.03 336.15,-60.97"/>
<polygon fill="midnightblue" stroke="midnightblue" points="337.39,-64.24 345.63,-57.59 335.04,-57.65 337.39,-64.24"/>
</g>
<!-- Node5&#45;&gt;Node4 -->
<g id="edge5" class="edge">
<title>Node5&#45;&gt;Node4</title>
<path fill="none" stroke="midnightblue" d="M295.1,-48C302.98,-48 311.76,-48 320.49,-48"/>
<polygon fill="midnightblue" stroke="midnightblue" points="320.66,-51.5 330.66,-48 320.66,-44.5 320.66,-51.5"/>
</g>
<!-- Node6&#45;&gt;Node4 -->
<g id="edge7" class="edge">
<title>Node6&#45;&gt;Node4</title>
<path fill="none" stroke="midnightblue" d="M292.87,-19.59C305.99,-24.27 321.97,-29.97 336.15,-35.03"/>
<polygon fill="midnightblue" stroke="midnightblue" points="335.04,-38.35 345.63,-38.41 337.39,-31.76 335.04,-38.35"/>
</g>
</g>
</svg>
