<?xml version="1.0" encoding="UTF-8" standalone="no"?>
<!DOCTYPE svg PUBLIC "-//W3C//DTD SVG 1.1//EN"
 "http://www.w3.org/Graphics/SVG/1.1/DTD/svg11.dtd">
<!-- Generated by graphviz version 2.43.0 (0)
 -->
<!-- Title: lcd_writeProgString Pages: 1 -->
<svg width="455pt" height="104pt"
 viewBox="0.00 0.00 455.00 104.00" xmlns="http://www.w3.org/2000/svg" xmlns:xlink="http://www.w3.org/1999/xlink">
<g id="graph0" class="graph" transform="scale(1 1) rotate(0) translate(4 100)">
<title>lcd_writeProgString</title>
<polygon fill="white" stroke="transparent" points="-4,4 -4,-100 451,-100 451,4 -4,4"/>
<!-- Node1 -->
<g id="node1" class="node">
<title>Node1</title>
<g id="a_node1"><a xlink:title="Write char PROGMEM* string.">
<polygon fill="#bfbfbf" stroke="black" points="0,-38.5 0,-57.5 111,-57.5 111,-38.5 0,-38.5"/>
<text text-anchor="middle" x="55.5" y="-45.5" font-family="FreeSans" font-size="10.00">lcd_writeProgString</text>
</a>
</g>
</g>
<!-- Node2 -->
<g id="node2" class="node">
<title>Node2</title>
<g id="a_node2"><a xlink:href="lcd_8h.html#a93cd5600fa3b27381a4cf57d21f27ebf" target="_top" xlink:title="Write one character.">
<polygon fill="white" stroke="black" points="147,-38.5 147,-57.5 230,-57.5 230,-38.5 147,-38.5"/>
<text text-anchor="middle" x="188.5" y="-45.5" font-family="FreeSans" font-size="10.00">lcd_writeChar</text>
</a>
</g>
</g>
<!-- Node1&#45;&gt;Node2 -->
<g id="edge1" class="edge">
<title>Node1&#45;&gt;Node2</title>
<path fill="none" stroke="midnightblue" d="M111.3,-48C119.77,-48 128.49,-48 136.87,-48"/>
<polygon fill="midnightblue" stroke="midnightblue" points="136.88,-51.5 146.88,-48 136.88,-44.5 136.88,-51.5"/>
</g>
<!-- Node3 -->
<g id="node3" class="node">
<title>Node3</title>
<g id="a_node3"><a xlink:href="lcd_8h.html#ad235a86241458b1e7b8771688bfdaf9a" target="_top" xlink:title="Clear all data from display.">
<polygon fill="white" stroke="black" points="266,-76.5 266,-95.5 326,-95.5 326,-76.5 266,-76.5"/>
<text text-anchor="middle" x="296" y="-83.5" font-family="FreeSans" font-size="10.00">lcd_clear</text>
</a>
</g>
</g>
<!-- Node2&#45;&gt;Node3 -->
<g id="edge2" class="edge">
<title>Node2&#45;&gt;Node3</title>
<path fill="none" stroke="midnightblue" d="M216.12,-57.59C228.99,-62.22 244.64,-67.86 258.59,-72.89"/>
<polygon fill="midnightblue" stroke="midnightblue" points="257.79,-76.32 268.39,-76.41 260.16,-69.73 257.79,-76.32"/>
</g>
<!-- Node5 -->
<g id="node5" class="node">
<title>Node5</title>
<g id="a_node5"><a xlink:href="lcd_8h.html#a016fe1471f1d20196b5ca3d2634c927a" target="_top" xlink:title="Next output will be written to line 1.">
<polygon fill="white" stroke="black" points="266,-38.5 266,-57.5 326,-57.5 326,-38.5 266,-38.5"/>
<text text-anchor="middle" x="296" y="-45.5" font-family="FreeSans" font-size="10.00">lcd_line1</text>
</a>
</g>
</g>
<!-- Node2&#45;&gt;Node5 -->
<g id="edge4" class="edge">
<title>Node2&#45;&gt;Node5</title>
<path fill="none" stroke="midnightblue" d="M230.29,-48C238.61,-48 247.34,-48 255.61,-48"/>
<polygon fill="midnightblue" stroke="midnightblue" points="255.76,-51.5 265.76,-48 255.76,-44.5 255.76,-51.5"/>
</g>
<!-- Node6 -->
<g id="node6" class="node">
<title>Node6</title>
<g id="a_node6"><a xlink:href="lcd_8h.html#ad9ccaf30ea478fef726c058ff4ee7dd1" target="_top" xlink:title="Next output will be written to line 2.">
<polygon fill="white" stroke="black" points="266,-0.5 266,-19.5 326,-19.5 326,-0.5 266,-0.5"/>
<text text-anchor="middle" x="296" y="-7.5" font-family="FreeSans" font-size="10.00">lcd_line2</text>
</a>
</g>
</g>
<!-- Node2&#45;&gt;Node6 -->
<g id="edge6" class="edge">
<title>Node2&#45;&gt;Node6</title>
<path fill="none" stroke="midnightblue" d="M216.12,-38.41C228.99,-33.78 244.64,-28.14 258.59,-23.11"/>
<polygon fill="midnightblue" stroke="midnightblue" points="260.16,-26.27 268.39,-19.59 257.79,-19.68 260.16,-26.27"/>
</g>
<!-- Node4 -->
<g id="node4" class="node">
<title>Node4</title>
<g id="a_node4"><a xlink:href="lcd_8h.html#acb116d89c358367b8fd1164120d320e3" target="_top" xlink:title="Send command to LCD.">
<polygon fill="white" stroke="black" points="362,-38.5 362,-57.5 447,-57.5 447,-38.5 362,-38.5"/>
<text text-anchor="middle" x="404.5" y="-45.5" font-family="FreeSans" font-size="10.00">lcd_command</text>
</a>
</g>
</g>
<!-- Node3&#45;&gt;Node4 -->
<g id="edge3" class="edge">
<title>Node3&#45;&gt;Node4</title>
<path fill="none" stroke="midnightblue" d="M323.87,-76.41C336.99,-71.73 352.97,-66.03 367.15,-60.97"/>
<polygon fill="midnightblue" stroke="midnightblue" points="368.39,-64.24 376.63,-57.59 366.04,-57.65 368.39,-64.24"/>
</g>
<!-- Node5&#45;&gt;Node4 -->
<g id="edge5" class="edge">
<title>Node5&#45;&gt;Node4</title>
<path fill="none" stroke="midnightblue" d="M326.1,-48C333.98,-48 342.76,-48 351.49,-48"/>
<polygon fill="midnightblue" stroke="midnightblue" points="351.66,-51.5 361.66,-48 351.66,-44.5 351.66,-51.5"/>
</g>
<!-- Node6&#45;&gt;Node4 -->
<g id="edge7" class="edge">
<title>Node6&#45;&gt;Node4</title>
<path fill="none" stroke="midnightblue" d="M323.87,-19.59C336.99,-24.27 352.97,-29.97 367.15,-35.03"/>
<polygon fill="midnightblue" stroke="midnightblue" points="366.04,-38.35 376.63,-38.41 368.39,-31.76 366.04,-38.35"/>
</g>
</g>
</svg>
