<?xml version="1.0" encoding="UTF-8" standalone="no"?>
<!DOCTYPE svg PUBLIC "-//W3C//DTD SVG 1.1//EN"
 "http://www.w3.org/Graphics/SVG/1.1/DTD/svg11.dtd">
<!-- Generated by graphviz version 2.43.0 (0)
 -->
<!-- Title: lcd_writeHexWord Pages: 1 -->
<svg width="736pt" height="104pt"
 viewBox="0.00 0.00 736.00 104.00" xmlns="http://www.w3.org/2000/svg" xmlns:xlink="http://www.w3.org/1999/xlink">
<g id="graph0" class="graph" transform="scale(1 1) rotate(0) translate(4 100)">
<title>lcd_writeHexWord</title>
<polygon fill="white" stroke="transparent" points="-4,4 -4,-100 732,-100 732,4 -4,4"/>
<!-- Node1 -->
<g id="node1" class="node">
<title>Node1</title>
<g id="a_node1"><a xlink:title="Write one hexadecimal word.">
<polygon fill="#bfbfbf" stroke="black" points="0,-38.5 0,-57.5 105,-57.5 105,-38.5 0,-38.5"/>
<text text-anchor="middle" x="52.5" y="-45.5" font-family="FreeSans" font-size="10.00">lcd_writeHexWord</text>
</a>
</g>
</g>
<!-- Node2 -->
<g id="node2" class="node">
<title>Node2</title>
<g id="a_node2"><a xlink:href="lcd_8h.html#ac474e7328f850a8b9af9de57df93e2f3" target="_top" xlink:title="Write one hexadecimal byte.">
<polygon fill="white" stroke="black" points="141,-38.5 141,-57.5 244,-57.5 244,-38.5 141,-38.5"/>
<text text-anchor="middle" x="192.5" y="-45.5" font-family="FreeSans" font-size="10.00">lcd_writeHexByte</text>
</a>
</g>
</g>
<!-- Node1&#45;&gt;Node2 -->
<g id="edge1" class="edge">
<title>Node1&#45;&gt;Node2</title>
<path fill="none" stroke="midnightblue" d="M105.28,-48C113.54,-48 122.16,-48 130.61,-48"/>
<polygon fill="midnightblue" stroke="midnightblue" points="130.81,-51.5 140.81,-48 130.81,-44.5 130.81,-51.5"/>
</g>
<!-- Node3 -->
<g id="node3" class="node">
<title>Node3</title>
<g id="a_node3"><a xlink:href="lcd_8h.html#a01b53b89b0c268d2324d86f3fe33405d" target="_top" xlink:title="Write a half&#45;byte (a nibble)">
<polygon fill="white" stroke="black" points="280,-38.5 280,-57.5 392,-57.5 392,-38.5 280,-38.5"/>
<text text-anchor="middle" x="336" y="-45.5" font-family="FreeSans" font-size="10.00">lcd_writeHexNibble</text>
</a>
</g>
</g>
<!-- Node2&#45;&gt;Node3 -->
<g id="edge2" class="edge">
<title>Node2&#45;&gt;Node3</title>
<path fill="none" stroke="midnightblue" d="M244.19,-48C252.51,-48 261.23,-48 269.85,-48"/>
<polygon fill="midnightblue" stroke="midnightblue" points="269.88,-51.5 279.88,-48 269.88,-44.5 269.88,-51.5"/>
</g>
<!-- Node4 -->
<g id="node4" class="node">
<title>Node4</title>
<g id="a_node4"><a xlink:href="lcd_8h.html#a93cd5600fa3b27381a4cf57d21f27ebf" target="_top" xlink:title="Write one character.">
<polygon fill="white" stroke="black" points="428,-38.5 428,-57.5 511,-57.5 511,-38.5 428,-38.5"/>
<text text-anchor="middle" x="469.5" y="-45.5" font-family="FreeSans" font-size="10.00">lcd_writeChar</text>
</a>
</g>
</g>
<!-- Node3&#45;&gt;Node4 -->
<g id="edge3" class="edge">
<title>Node3&#45;&gt;Node4</title>
<path fill="none" stroke="midnightblue" d="M392.01,-48C400.51,-48 409.26,-48 417.67,-48"/>
<polygon fill="midnightblue" stroke="midnightblue" points="417.72,-51.5 427.72,-48 417.72,-44.5 417.72,-51.5"/>
</g>
<!-- Node5 -->
<g id="node5" class="node">
<title>Node5</title>
<g id="a_node5"><a xlink:href="lcd_8h.html#ad235a86241458b1e7b8771688bfdaf9a" target="_top" xlink:title="Clear all data from display.">
<polygon fill="white" stroke="black" points="547,-76.5 547,-95.5 607,-95.5 607,-76.5 547,-76.5"/>
<text text-anchor="middle" x="577" y="-83.5" font-family="FreeSans" font-size="10.00">lcd_clear</text>
</a>
</g>
</g>
<!-- Node4&#45;&gt;Node5 -->
<g id="edge4" class="edge">
<title>Node4&#45;&gt;Node5</title>
<path fill="none" stroke="midnightblue" d="M497.12,-57.59C509.99,-62.22 525.64,-67.86 539.59,-72.89"/>
<polygon fill="midnightblue" stroke="midnightblue" points="538.79,-76.32 549.39,-76.41 541.16,-69.73 538.79,-76.32"/>
</g>
<!-- Node7 -->
<g id="node7" class="node">
<title>Node7</title>
<g id="a_node7"><a xlink:href="lcd_8h.html#a016fe1471f1d20196b5ca3d2634c927a" target="_top" xlink:title="Next output will be written to line 1.">
<polygon fill="white" stroke="black" points="547,-38.5 547,-57.5 607,-57.5 607,-38.5 547,-38.5"/>
<text text-anchor="middle" x="577" y="-45.5" font-family="FreeSans" font-size="10.00">lcd_line1</text>
</a>
</g>
</g>
<!-- Node4&#45;&gt;Node7 -->
<g id="edge6" class="edge">
<title>Node4&#45;&gt;Node7</title>
<path fill="none" stroke="midnightblue" d="M511.29,-48C519.61,-48 528.34,-48 536.61,-48"/>
<polygon fill="midnightblue" stroke="midnightblue" points="536.76,-51.5 546.76,-48 536.76,-44.5 536.76,-51.5"/>
</g>
<!-- Node8 -->
<g id="node8" class="node">
<title>Node8</title>
<g id="a_node8"><a xlink:href="lcd_8h.html#ad9ccaf30ea478fef726c058ff4ee7dd1" target="_top" xlink:title="Next output will be written to line 2.">
<polygon fill="white" stroke="black" points="547,-0.5 547,-19.5 607,-19.5 607,-0.5 547,-0.5"/>
<text text-anchor="middle" x="577" y="-7.5" font-family="FreeSans" font-size="10.00">lcd_line2</text>
</a>
</g>
</g>
<!-- Node4&#45;&gt;Node8 -->
<g id="edge8" class="edge">
<title>Node4&#45;&gt;Node8</title>
<path fill="none" stroke="midnightblue" d="M497.12,-38.41C509.99,-33.78 525.64,-28.14 539.59,-23.11"/>
<polygon fill="midnightblue" stroke="midnightblue" points="541.16,-26.27 549.39,-19.59 538.79,-19.68 541.16,-26.27"/>
</g>
<!-- Node6 -->
<g id="node6" class="node">
<title>Node6</title>
<g id="a_node6"><a xlink:href="lcd_8h.html#acb116d89c358367b8fd1164120d320e3" target="_top" xlink:title="Send command to LCD.">
<polygon fill="white" stroke="black" points="643,-38.5 643,-57.5 728,-57.5 728,-38.5 643,-38.5"/>
<text text-anchor="middle" x="685.5" y="-45.5" font-family="FreeSans" font-size="10.00">lcd_command</text>
</a>
</g>
</g>
<!-- Node5&#45;&gt;Node6 -->
<g id="edge5" class="edge">
<title>Node5&#45;&gt;Node6</title>
<path fill="none" stroke="midnightblue" d="M604.87,-76.41C617.99,-71.73 633.97,-66.03 648.15,-60.97"/>
<polygon fill="midnightblue" stroke="midnightblue" points="649.39,-64.24 657.63,-57.59 647.04,-57.65 649.39,-64.24"/>
</g>
<!-- Node7&#45;&gt;Node6 -->
<g id="edge7" class="edge">
<title>Node7&#45;&gt;Node6</title>
<path fill="none" stroke="midnightblue" d="M607.1,-48C614.98,-48 623.76,-48 632.49,-48"/>
<polygon fill="midnightblue" stroke="midnightblue" points="632.66,-51.5 642.66,-48 632.66,-44.5 632.66,-51.5"/>
</g>
<!-- Node8&#45;&gt;Node6 -->
<g id="edge9" class="edge">
<title>Node8&#45;&gt;Node6</title>
<path fill="none" stroke="midnightblue" d="M604.87,-19.59C617.99,-24.27 633.97,-29.97 648.15,-35.03"/>
<polygon fill="midnightblue" stroke="midnightblue" points="647.04,-38.35 657.63,-38.41 649.39,-31.76 647.04,-38.35"/>
</g>
</g>
</svg>
