<?xml version="1.0" encoding="UTF-8" standalone="no"?>
<!DOCTYPE svg PUBLIC "-//W3C//DTD SVG 1.1//EN"
 "http://www.w3.org/Graphics/SVG/1.1/DTD/svg11.dtd">
<!-- Generated by graphviz version 2.43.0 (0)
 -->
<!-- Title: lcd_writeHexByte Pages: 1 -->
<svg width="595pt" height="104pt"
 viewBox="0.00 0.00 595.00 104.00" xmlns="http://www.w3.org/2000/svg" xmlns:xlink="http://www.w3.org/1999/xlink">
<g id="graph0" class="graph" transform="scale(1 1) rotate(0) translate(4 100)">
<title>lcd_writeHexByte</title>
<polygon fill="white" stroke="transparent" points="-4,4 -4,-100 591,-100 591,4 -4,4"/>
<!-- Node1 -->
<g id="node1" class="node">
<title>Node1</title>
<g id="a_node1"><a xlink:title="Write one hexadecimal byte.">
<polygon fill="#bfbfbf" stroke="black" points="0,-38.5 0,-57.5 103,-57.5 103,-38.5 0,-38.5"/>
<text text-anchor="middle" x="51.5" y="-45.5" font-family="FreeSans" font-size="10.00">lcd_writeHexByte</text>
</a>
</g>
</g>
<!-- Node2 -->
<g id="node2" class="node">
<title>Node2</title>
<g id="a_node2"><a xlink:href="lcd_8h.html#a01b53b89b0c268d2324d86f3fe33405d" target="_top" xlink:title="Write a half&#45;byte (a nibble)">
<polygon fill="white" stroke="black" points="139,-38.5 139,-57.5 251,-57.5 251,-38.5 139,-38.5"/>
<text text-anchor="middle" x="195" y="-45.5" font-family="FreeSans" font-size="10.00">lcd_writeHexNibble</text>
</a>
</g>
</g>
<!-- Node1&#45;&gt;Node2 -->
<g id="edge1" class="edge">
<title>Node1&#45;&gt;Node2</title>
<path fill="none" stroke="midnightblue" d="M103.19,-48C111.51,-48 120.23,-48 128.85,-48"/>
<polygon fill="midnightblue" stroke="midnightblue" points="128.88,-51.5 138.88,-48 128.88,-44.5 128.88,-51.5"/>
</g>
<!-- Node3 -->
<g id="node3" class="node">
<title>Node3</title>
<g id="a_node3"><a xlink:href="lcd_8h.html#a93cd5600fa3b27381a4cf57d21f27ebf" target="_top" xlink:title="Write one character.">
<polygon fill="white" stroke="black" points="287,-38.5 287,-57.5 370,-57.5 370,-38.5 287,-38.5"/>
<text text-anchor="middle" x="328.5" y="-45.5" font-family="FreeSans" font-size="10.00">lcd_writeChar</text>
</a>
</g>
</g>
<!-- Node2&#45;&gt;Node3 -->
<g id="edge2" class="edge">
<title>Node2&#45;&gt;Node3</title>
<path fill="none" stroke="midnightblue" d="M251.01,-48C259.51,-48 268.26,-48 276.67,-48"/>
<polygon fill="midnightblue" stroke="midnightblue" points="276.72,-51.5 286.72,-48 276.72,-44.5 276.72,-51.5"/>
</g>
<!-- Node4 -->
<g id="node4" class="node">
<title>Node4</title>
<g id="a_node4"><a xlink:href="lcd_8h.html#ad235a86241458b1e7b8771688bfdaf9a" target="_top" xlink:title="Clear all data from display.">
<polygon fill="white" stroke="black" points="406,-76.5 406,-95.5 466,-95.5 466,-76.5 406,-76.5"/>
<text text-anchor="middle" x="436" y="-83.5" font-family="FreeSans" font-size="10.00">lcd_clear</text>
</a>
</g>
</g>
<!-- Node3&#45;&gt;Node4 -->
<g id="edge3" class="edge">
<title>Node3&#45;&gt;Node4</title>
<path fill="none" stroke="midnightblue" d="M356.12,-57.59C368.99,-62.22 384.64,-67.86 398.59,-72.89"/>
<polygon fill="midnightblue" stroke="midnightblue" points="397.79,-76.32 408.39,-76.41 400.16,-69.73 397.79,-76.32"/>
</g>
<!-- Node6 -->
<g id="node6" class="node">
<title>Node6</title>
<g id="a_node6"><a xlink:href="lcd_8h.html#a016fe1471f1d20196b5ca3d2634c927a" target="_top" xlink:title="Next output will be written to line 1.">
<polygon fill="white" stroke="black" points="406,-38.5 406,-57.5 466,-57.5 466,-38.5 406,-38.5"/>
<text text-anchor="middle" x="436" y="-45.5" font-family="FreeSans" font-size="10.00">lcd_line1</text>
</a>
</g>
</g>
<!-- Node3&#45;&gt;Node6 -->
<g id="edge5" class="edge">
<title>Node3&#45;&gt;Node6</title>
<path fill="none" stroke="midnightblue" d="M370.29,-48C378.61,-48 387.34,-48 395.61,-48"/>
<polygon fill="midnightblue" stroke="midnightblue" points="395.76,-51.5 405.76,-48 395.76,-44.5 395.76,-51.5"/>
</g>
<!-- Node7 -->
<g id="node7" class="node">
<title>Node7</title>
<g id="a_node7"><a xlink:href="lcd_8h.html#ad9ccaf30ea478fef726c058ff4ee7dd1" target="_top" xlink:title="Next output will be written to line 2.">
<polygon fill="white" stroke="black" points="406,-0.5 406,-19.5 466,-19.5 466,-0.5 406,-0.5"/>
<text text-anchor="middle" x="436" y="-7.5" font-family="FreeSans" font-size="10.00">lcd_line2</text>
</a>
</g>
</g>
<!-- Node3&#45;&gt;Node7 -->
<g id="edge7" class="edge">
<title>Node3&#45;&gt;Node7</title>
<path fill="none" stroke="midnightblue" d="M356.12,-38.41C368.99,-33.78 384.64,-28.14 398.59,-23.11"/>
<polygon fill="midnightblue" stroke="midnightblue" points="400.16,-26.27 408.39,-19.59 397.79,-19.68 400.16,-26.27"/>
</g>
<!-- Node5 -->
<g id="node5" class="node">
<title>Node5</title>
<g id="a_node5"><a xlink:href="lcd_8h.html#acb116d89c358367b8fd1164120d320e3" target="_top" xlink:title="Send command to LCD.">
<polygon fill="white" stroke="black" points="502,-38.5 502,-57.5 587,-57.5 587,-38.5 502,-38.5"/>
<text text-anchor="middle" x="544.5" y="-45.5" font-family="FreeSans" font-size="10.00">lcd_command</text>
</a>
</g>
</g>
<!-- Node4&#45;&gt;Node5 -->
<g id="edge4" class="edge">
<title>Node4&#45;&gt;Node5</title>
<path fill="none" stroke="midnightblue" d="M463.87,-76.41C476.99,-71.73 492.97,-66.03 507.15,-60.97"/>
<polygon fill="midnightblue" stroke="midnightblue" points="508.39,-64.24 516.63,-57.59 506.04,-57.65 508.39,-64.24"/>
</g>
<!-- Node6&#45;&gt;Node5 -->
<g id="edge6" class="edge">
<title>Node6&#45;&gt;Node5</title>
<path fill="none" stroke="midnightblue" d="M466.1,-48C473.98,-48 482.76,-48 491.49,-48"/>
<polygon fill="midnightblue" stroke="midnightblue" points="491.66,-51.5 501.66,-48 491.66,-44.5 491.66,-51.5"/>
</g>
<!-- Node7&#45;&gt;Node5 -->
<g id="edge8" class="edge">
<title>Node7&#45;&gt;Node5</title>
<path fill="none" stroke="midnightblue" d="M463.87,-19.59C476.99,-24.27 492.97,-29.97 507.15,-35.03"/>
<polygon fill="midnightblue" stroke="midnightblue" points="506.04,-38.35 516.63,-38.41 508.39,-31.76 506.04,-38.35"/>
</g>
</g>
</svg>
