<?xml version="1.0" encoding="UTF-8" standalone="no"?>
<!DOCTYPE svg PUBLIC "-//W3C//DTD SVG 1.1//EN"
 "http://www.w3.org/Graphics/SVG/1.1/DTD/svg11.dtd">
<!-- Generated by graphviz version 2.43.0 (0)
 -->
<!-- Title: lcd.h Pages: 1 -->
<svg width="401pt" height="196pt"
 viewBox="0.00 0.00 401.00 196.00" xmlns="http://www.w3.org/2000/svg" xmlns:xlink="http://www.w3.org/1999/xlink">
<g id="graph0" class="graph" transform="scale(1 1) rotate(0) translate(4 192)">
<title>lcd.h</title>
<polygon fill="white" stroke="transparent" points="-4,4 -4,-192 397,-192 397,4 -4,4"/>
<!-- Node1 -->
<g id="node1" class="node">
<title>Node1</title>
<g id="a_node1"><a xlink:title="Library for LCD use.">
<polygon fill="#bfbfbf" stroke="black" points="130,-168.5 130,-187.5 170,-187.5 170,-168.5 130,-168.5"/>
<text text-anchor="middle" x="150" y="-175.5" font-family="FreeSans" font-size="10.00">lcd.h</text>
</a>
</g>
</g>
<!-- Node2 -->
<g id="node2" class="node">
<title>Node2</title>
<g id="a_node2"><a xlink:title=" ">
<polygon fill="white" stroke="#bfbfbf" points="0,-56.5 0,-75.5 62,-75.5 62,-56.5 0,-56.5"/>
<text text-anchor="middle" x="31" y="-63.5" font-family="FreeSans" font-size="10.00">stdbool.h</text>
</a>
</g>
</g>
<!-- Node1&#45;&gt;Node2 -->
<g id="edge1" class="edge">
<title>Node1&#45;&gt;Node2</title>
<path fill="none" stroke="midnightblue" d="M140.66,-168.37C120.59,-149.81 73.1,-105.91 47.7,-82.44"/>
<polygon fill="midnightblue" stroke="midnightblue" points="50.01,-79.81 40.29,-75.59 45.26,-84.95 50.01,-79.81"/>
</g>
<!-- Node3 -->
<g id="node3" class="node">
<title>Node3</title>
<g id="a_node3"><a xlink:title=" ">
<polygon fill="white" stroke="#bfbfbf" points="80.5,-56.5 80.5,-75.5 133.5,-75.5 133.5,-56.5 80.5,-56.5"/>
<text text-anchor="middle" x="107" y="-63.5" font-family="FreeSans" font-size="10.00">stdint.h</text>
</a>
</g>
</g>
<!-- Node1&#45;&gt;Node3 -->
<g id="edge2" class="edge">
<title>Node1&#45;&gt;Node3</title>
<path fill="none" stroke="midnightblue" d="M142.67,-168.29C135.77,-159.64 125.68,-145.71 120,-132 113.87,-117.2 110.56,-99.27 108.82,-86"/>
<polygon fill="midnightblue" stroke="midnightblue" points="112.26,-85.27 107.66,-75.72 105.3,-86.05 112.26,-85.27"/>
</g>
<!-- Node4 -->
<g id="node4" class="node">
<title>Node4</title>
<g id="a_node4"><a xlink:title=" ">
<polygon fill="white" stroke="#bfbfbf" points="151.5,-56.5 151.5,-75.5 246.5,-75.5 246.5,-56.5 151.5,-56.5"/>
<text text-anchor="middle" x="199" y="-63.5" font-family="FreeSans" font-size="10.00">avr/pgmspace.h</text>
</a>
</g>
</g>
<!-- Node1&#45;&gt;Node4 -->
<g id="edge3" class="edge">
<title>Node1&#45;&gt;Node4</title>
<path fill="none" stroke="midnightblue" d="M156.53,-168.45C162.97,-159.69 172.73,-145.48 179,-132 186,-116.95 191.35,-98.82 194.74,-85.53"/>
<polygon fill="midnightblue" stroke="midnightblue" points="198.17,-86.23 197.13,-75.69 191.37,-84.58 198.17,-86.23"/>
</g>
<!-- Node5 -->
<g id="node5" class="node">
<title>Node5</title>
<g id="a_node5"><a xlink:href="defines_8h.html" target="_top" xlink:title="Simple definitions and assembler&#45;macros, mostly 8/16&#45;Bit values.">
<polygon fill="white" stroke="black" points="262.5,-112.5 262.5,-131.5 323.5,-131.5 323.5,-112.5 262.5,-112.5"/>
<text text-anchor="middle" x="293" y="-119.5" font-family="FreeSans" font-size="10.00">defines.h</text>
</a>
</g>
</g>
<!-- Node1&#45;&gt;Node5 -->
<g id="edge4" class="edge">
<title>Node1&#45;&gt;Node5</title>
<path fill="none" stroke="midnightblue" d="M170.19,-169.38C193.64,-160.52 232.65,-145.79 260.41,-135.31"/>
<polygon fill="midnightblue" stroke="midnightblue" points="261.96,-138.46 270.08,-131.65 259.49,-131.91 261.96,-138.46"/>
</g>
<!-- Node8 -->
<g id="node8" class="node">
<title>Node8</title>
<g id="a_node8"><a xlink:href="util_8h.html" target="_top" xlink:title="Little helpers that don&#39;t fit elsewhere.">
<polygon fill="white" stroke="black" points="129.5,-112.5 129.5,-131.5 170.5,-131.5 170.5,-112.5 129.5,-112.5"/>
<text text-anchor="middle" x="150" y="-119.5" font-family="FreeSans" font-size="10.00">util.h</text>
</a>
</g>
</g>
<!-- Node1&#45;&gt;Node8 -->
<g id="edge7" class="edge">
<title>Node1&#45;&gt;Node8</title>
<path fill="none" stroke="midnightblue" d="M150,-168.08C150,-161.01 150,-150.86 150,-141.99"/>
<polygon fill="midnightblue" stroke="midnightblue" points="153.5,-141.75 150,-131.75 146.5,-141.75 153.5,-141.75"/>
</g>
<!-- Node6 -->
<g id="node6" class="node">
<title>Node6</title>
<g id="a_node6"><a xlink:href="atmega644constants_8h.html" target="_top" xlink:title="Constants for ATMega644 and EVA board. Defines several useful constants for the ATMega644.">
<polygon fill="white" stroke="black" points="265,-56.5 265,-75.5 393,-75.5 393,-56.5 265,-56.5"/>
<text text-anchor="middle" x="329" y="-63.5" font-family="FreeSans" font-size="10.00">atmega644constants.h</text>
</a>
</g>
</g>
<!-- Node5&#45;&gt;Node6 -->
<g id="edge5" class="edge">
<title>Node5&#45;&gt;Node6</title>
<path fill="none" stroke="midnightblue" d="M298.94,-112.08C303.98,-104.53 311.34,-93.49 317.51,-84.23"/>
<polygon fill="midnightblue" stroke="midnightblue" points="320.53,-86.01 323.17,-75.75 314.71,-82.13 320.53,-86.01"/>
</g>
<!-- Node7 -->
<g id="node7" class="node">
<title>Node7</title>
<g id="a_node7"><a xlink:title=" ">
<polygon fill="white" stroke="#bfbfbf" points="302.5,-0.5 302.5,-19.5 355.5,-19.5 355.5,-0.5 302.5,-0.5"/>
<text text-anchor="middle" x="329" y="-7.5" font-family="FreeSans" font-size="10.00">avr/io.h</text>
</a>
</g>
</g>
<!-- Node6&#45;&gt;Node7 -->
<g id="edge6" class="edge">
<title>Node6&#45;&gt;Node7</title>
<path fill="none" stroke="midnightblue" d="M329,-56.08C329,-49.01 329,-38.86 329,-29.99"/>
<polygon fill="midnightblue" stroke="midnightblue" points="332.5,-29.75 329,-19.75 325.5,-29.75 332.5,-29.75"/>
</g>
<!-- Node8&#45;&gt;Node2 -->
<g id="edge9" class="edge">
<title>Node8&#45;&gt;Node2</title>
<path fill="none" stroke="midnightblue" d="M131.14,-112.44C111.73,-103.64 81.27,-89.81 59.04,-79.72"/>
<polygon fill="midnightblue" stroke="midnightblue" points="60.32,-76.46 49.77,-75.52 57.43,-82.84 60.32,-76.46"/>
</g>
<!-- Node8&#45;&gt;Node3 -->
<g id="edge8" class="edge">
<title>Node8&#45;&gt;Node3</title>
<path fill="none" stroke="midnightblue" d="M142.9,-112.08C136.76,-104.38 127.73,-93.03 120.26,-83.65"/>
<polygon fill="midnightblue" stroke="midnightblue" points="122.94,-81.39 113.97,-75.75 117.46,-85.75 122.94,-81.39"/>
</g>
<!-- Node8&#45;&gt;Node4 -->
<g id="edge10" class="edge">
<title>Node8&#45;&gt;Node4</title>
<path fill="none" stroke="midnightblue" d="M158.09,-112.08C165.16,-104.3 175.59,-92.8 184.15,-83.37"/>
<polygon fill="midnightblue" stroke="midnightblue" points="186.93,-85.51 191.06,-75.75 181.75,-80.8 186.93,-85.51"/>
</g>
</g>
</svg>
