<?xml version="1.0" encoding="UTF-8" standalone="no"?>
<!DOCTYPE svg PUBLIC "-//W3C//DTD SVG 1.1//EN"
 "http://www.w3.org/Graphics/SVG/1.1/DTD/svg11.dtd">
<!-- Generated by graphviz version 2.43.0 (0)
 -->
<!-- Title: lcd_drawBar Pages: 1 -->
<svg width="421pt" height="104pt"
 viewBox="0.00 0.00 421.00 104.00" xmlns="http://www.w3.org/2000/svg" xmlns:xlink="http://www.w3.org/1999/xlink">
<g id="graph0" class="graph" transform="scale(1 1) rotate(0) translate(4 100)">
<title>lcd_drawBar</title>
<polygon fill="white" stroke="transparent" points="-4,4 -4,-100 417,-100 417,4 -4,4"/>
<!-- Node1 -->
<g id="node1" class="node">
<title>Node1</title>
<g id="a_node1"><a xlink:title="Write a drawbar.">
<polygon fill="#bfbfbf" stroke="black" points="0,-57.5 0,-76.5 77,-76.5 77,-57.5 0,-57.5"/>
<text text-anchor="middle" x="38.5" y="-64.5" font-family="FreeSans" font-size="10.00">lcd_drawBar</text>
</a>
</g>
</g>
<!-- Node2 -->
<g id="node2" class="node">
<title>Node2</title>
<g id="a_node2"><a xlink:href="lcd_8h.html#ad235a86241458b1e7b8771688bfdaf9a" target="_top" xlink:title="Clear all data from display.">
<polygon fill="white" stroke="black" points="232,-76.5 232,-95.5 292,-95.5 292,-76.5 232,-76.5"/>
<text text-anchor="middle" x="262" y="-83.5" font-family="FreeSans" font-size="10.00">lcd_clear</text>
</a>
</g>
</g>
<!-- Node1&#45;&gt;Node2 -->
<g id="edge1" class="edge">
<title>Node1&#45;&gt;Node2</title>
<path fill="none" stroke="midnightblue" d="M77.07,-70.22C117.27,-73.67 180.74,-79.12 221.62,-82.62"/>
<polygon fill="midnightblue" stroke="midnightblue" points="221.48,-86.12 231.75,-83.49 222.08,-79.15 221.48,-86.12"/>
</g>
<!-- Node4 -->
<g id="node4" class="node">
<title>Node4</title>
<g id="a_node4"><a xlink:href="lcd_8h.html#a93cd5600fa3b27381a4cf57d21f27ebf" target="_top" xlink:title="Write one character.">
<polygon fill="white" stroke="black" points="113,-38.5 113,-57.5 196,-57.5 196,-38.5 113,-38.5"/>
<text text-anchor="middle" x="154.5" y="-45.5" font-family="FreeSans" font-size="10.00">lcd_writeChar</text>
</a>
</g>
</g>
<!-- Node1&#45;&gt;Node4 -->
<g id="edge3" class="edge">
<title>Node1&#45;&gt;Node4</title>
<path fill="none" stroke="midnightblue" d="M77.14,-60.73C85.35,-59.36 94.16,-57.89 102.78,-56.45"/>
<polygon fill="midnightblue" stroke="midnightblue" points="103.47,-59.89 112.76,-54.79 102.32,-52.98 103.47,-59.89"/>
</g>
<!-- Node3 -->
<g id="node3" class="node">
<title>Node3</title>
<g id="a_node3"><a xlink:href="lcd_8h.html#acb116d89c358367b8fd1164120d320e3" target="_top" xlink:title="Send command to LCD.">
<polygon fill="white" stroke="black" points="328,-38.5 328,-57.5 413,-57.5 413,-38.5 328,-38.5"/>
<text text-anchor="middle" x="370.5" y="-45.5" font-family="FreeSans" font-size="10.00">lcd_command</text>
</a>
</g>
</g>
<!-- Node2&#45;&gt;Node3 -->
<g id="edge2" class="edge">
<title>Node2&#45;&gt;Node3</title>
<path fill="none" stroke="midnightblue" d="M289.87,-76.41C302.99,-71.73 318.97,-66.03 333.15,-60.97"/>
<polygon fill="midnightblue" stroke="midnightblue" points="334.39,-64.24 342.63,-57.59 332.04,-57.65 334.39,-64.24"/>
</g>
<!-- Node4&#45;&gt;Node2 -->
<g id="edge4" class="edge">
<title>Node4&#45;&gt;Node2</title>
<path fill="none" stroke="midnightblue" d="M182.12,-57.59C194.99,-62.22 210.64,-67.86 224.59,-72.89"/>
<polygon fill="midnightblue" stroke="midnightblue" points="223.79,-76.32 234.39,-76.41 226.16,-69.73 223.79,-76.32"/>
</g>
<!-- Node5 -->
<g id="node5" class="node">
<title>Node5</title>
<g id="a_node5"><a xlink:href="lcd_8h.html#a016fe1471f1d20196b5ca3d2634c927a" target="_top" xlink:title="Next output will be written to line 1.">
<polygon fill="white" stroke="black" points="232,-38.5 232,-57.5 292,-57.5 292,-38.5 232,-38.5"/>
<text text-anchor="middle" x="262" y="-45.5" font-family="FreeSans" font-size="10.00">lcd_line1</text>
</a>
</g>
</g>
<!-- Node4&#45;&gt;Node5 -->
<g id="edge5" class="edge">
<title>Node4&#45;&gt;Node5</title>
<path fill="none" stroke="midnightblue" d="M196.29,-48C204.61,-48 213.34,-48 221.61,-48"/>
<polygon fill="midnightblue" stroke="midnightblue" points="221.76,-51.5 231.76,-48 221.76,-44.5 221.76,-51.5"/>
</g>
<!-- Node6 -->
<g id="node6" class="node">
<title>Node6</title>
<g id="a_node6"><a xlink:href="lcd_8h.html#ad9ccaf30ea478fef726c058ff4ee7dd1" target="_top" xlink:title="Next output will be written to line 2.">
<polygon fill="white" stroke="black" points="232,-0.5 232,-19.5 292,-19.5 292,-0.5 232,-0.5"/>
<text text-anchor="middle" x="262" y="-7.5" font-family="FreeSans" font-size="10.00">lcd_line2</text>
</a>
</g>
</g>
<!-- Node4&#45;&gt;Node6 -->
<g id="edge7" class="edge">
<title>Node4&#45;&gt;Node6</title>
<path fill="none" stroke="midnightblue" d="M182.12,-38.41C194.99,-33.78 210.64,-28.14 224.59,-23.11"/>
<polygon fill="midnightblue" stroke="midnightblue" points="226.16,-26.27 234.39,-19.59 223.79,-19.68 226.16,-26.27"/>
</g>
<!-- Node5&#45;&gt;Node3 -->
<g id="edge6" class="edge">
<title>Node5&#45;&gt;Node3</title>
<path fill="none" stroke="midnightblue" d="M292.1,-48C299.98,-48 308.76,-48 317.49,-48"/>
<polygon fill="midnightblue" stroke="midnightblue" points="317.66,-51.5 327.66,-48 317.66,-44.5 317.66,-51.5"/>
</g>
<!-- Node6&#45;&gt;Node3 -->
<g id="edge8" class="edge">
<title>Node6&#45;&gt;Node3</title>
<path fill="none" stroke="midnightblue" d="M289.87,-19.59C302.99,-24.27 318.97,-29.97 333.15,-35.03"/>
<polygon fill="midnightblue" stroke="midnightblue" points="332.04,-38.35 342.63,-38.41 334.39,-31.76 332.04,-38.35"/>
</g>
</g>
</svg>
