<?xml version="1.0" encoding="UTF-8" standalone="no"?>
<!DOCTYPE svg PUBLIC "-//W3C//DTD SVG 1.1//EN"
 "http://www.w3.org/Graphics/SVG/1.1/DTD/svg11.dtd">
<!-- Generated by graphviz version 2.43.0 (0)
 -->
<!-- Title: os_init Pages: 1 -->
<svg width="855pt" height="332pt"
 viewBox="0.00 0.00 855.00 332.00" xmlns="http://www.w3.org/2000/svg" xmlns:xlink="http://www.w3.org/1999/xlink">
<g id="graph0" class="graph" transform="scale(1 1) rotate(0) translate(4 328)">
<title>os_init</title>
<polygon fill="white" stroke="transparent" points="-4,4 -4,-328 851,-328 851,4 -4,4"/>
<!-- Node1 -->
<g id="node1" class="node">
<title>Node1</title>
<g id="a_node1"><a xlink:title="Initializes OS.">
<polygon fill="#bfbfbf" stroke="black" points="0,-95.5 0,-114.5 49,-114.5 49,-95.5 0,-95.5"/>
<text text-anchor="middle" x="24.5" y="-102.5" font-family="FreeSans" font-size="10.00">os_init</text>
</a>
</g>
</g>
<!-- Node2 -->
<g id="node2" class="node">
<title>Node2</title>
<g id="a_node2"><a xlink:href="lcd_8h.html#a6842775ba83d166f02b8fef8bb63b1e6" target="_top" xlink:title="Initialize LCD.">
<polygon fill="white" stroke="black" points="260.5,-209.5 260.5,-228.5 312.5,-228.5 312.5,-209.5 260.5,-209.5"/>
<text text-anchor="middle" x="286.5" y="-216.5" font-family="FreeSans" font-size="10.00">lcd_init</text>
</a>
</g>
</g>
<!-- Node1&#45;&gt;Node2 -->
<g id="edge1" class="edge">
<title>Node1&#45;&gt;Node2</title>
<path fill="none" stroke="midnightblue" d="M30.03,-114.51C38.41,-130.95 57.95,-164.53 85,-181 136.47,-212.34 208.05,-218.81 250.3,-219.62"/>
<polygon fill="midnightblue" stroke="midnightblue" points="250.35,-223.12 260.38,-219.72 250.41,-216.12 250.35,-223.12"/>
</g>
<!-- Node10 -->
<g id="node10" class="node">
<title>Node10</title>
<g id="a_node10"><a xlink:href="lcd_8h.html#a12c915502d2f5eb5bca74e503ad88669" target="_top" xlink:title="Write char PROGMEM* string.">
<polygon fill="white" stroke="black" points="91.5,-152.5 91.5,-171.5 202.5,-171.5 202.5,-152.5 91.5,-152.5"/>
<text text-anchor="middle" x="147" y="-159.5" font-family="FreeSans" font-size="10.00">lcd_writeProgString</text>
</a>
</g>
</g>
<!-- Node1&#45;&gt;Node10 -->
<g id="edge11" class="edge">
<title>Node1&#45;&gt;Node10</title>
<path fill="none" stroke="midnightblue" d="M38.16,-114.5C49.83,-122.91 67.88,-135.04 85,-143 89.72,-145.19 94.76,-147.22 99.84,-149.07"/>
<polygon fill="midnightblue" stroke="midnightblue" points="99,-152.48 109.6,-152.4 101.26,-145.86 99,-152.48"/>
</g>
<!-- Node14 -->
<g id="node14" class="node">
<title>Node14</title>
<g id="a_node14"><a xlink:href="os__core_8c.html#a6e2cb65995e0266255572244baf860f3" target="_top" xlink:title="Initializes timers.">
<polygon fill="white" stroke="black" points="107,-114.5 107,-133.5 187,-133.5 187,-114.5 107,-114.5"/>
<text text-anchor="middle" x="147" y="-121.5" font-family="FreeSans" font-size="10.00">os_init_timer</text>
</a>
</g>
</g>
<!-- Node1&#45;&gt;Node14 -->
<g id="edge18" class="edge">
<title>Node1&#45;&gt;Node14</title>
<path fill="none" stroke="midnightblue" d="M49.02,-108.71C62.63,-110.85 80.29,-113.64 96.8,-116.24"/>
<polygon fill="midnightblue" stroke="midnightblue" points="96.46,-119.73 106.89,-117.83 97.55,-112.82 96.46,-119.73"/>
</g>
<!-- Node15 -->
<g id="node15" class="node">
<title>Node15</title>
<g id="a_node15"><a xlink:href="os__input_8c.html#a47d043a57e87cffbb40be4e33609175a" target="_top" xlink:title="Initializes PIN and PORT for input.">
<polygon fill="white" stroke="black" points="110,-76.5 110,-95.5 184,-95.5 184,-76.5 110,-76.5"/>
<text text-anchor="middle" x="147" y="-83.5" font-family="FreeSans" font-size="10.00">os_initInput</text>
</a>
</g>
</g>
<!-- Node1&#45;&gt;Node15 -->
<g id="edge19" class="edge">
<title>Node1&#45;&gt;Node15</title>
<path fill="none" stroke="midnightblue" d="M49.02,-101.29C63.45,-99.02 82.42,-96.03 99.76,-93.29"/>
<polygon fill="midnightblue" stroke="midnightblue" points="100.39,-96.73 109.73,-91.72 99.3,-89.82 100.39,-96.73"/>
</g>
<!-- Node16 -->
<g id="node16" class="node">
<title>Node16</title>
<g id="a_node16"><a xlink:href="os__core_8c.html#afcd3b8ded93499847533d52c2b08772a" target="_top" xlink:title=" ">
<polygon fill="white" stroke="black" points="98.5,-38.5 98.5,-57.5 195.5,-57.5 195.5,-38.5 98.5,-38.5"/>
<text text-anchor="middle" x="147" y="-45.5" font-family="FreeSans" font-size="10.00">os_initScheduler</text>
</a>
</g>
</g>
<!-- Node1&#45;&gt;Node16 -->
<g id="edge20" class="edge">
<title>Node1&#45;&gt;Node16</title>
<path fill="none" stroke="midnightblue" d="M38.16,-95.5C49.83,-87.09 67.88,-74.96 85,-67 89.72,-64.81 94.76,-62.78 99.84,-60.93"/>
<polygon fill="midnightblue" stroke="midnightblue" points="101.26,-64.14 109.6,-57.6 99,-57.52 101.26,-64.14"/>
</g>
<!-- Node17 -->
<g id="node17" class="node">
<title>Node17</title>
<g id="a_node17"><a xlink:href="util_8c.html#a6370606c3e897e0d3064a0f154a536a2" target="_top" xlink:title="Resets system time back to 0.">
<polygon fill="white" stroke="black" points="85,-0.5 85,-19.5 209,-19.5 209,-0.5 85,-0.5"/>
<text text-anchor="middle" x="147" y="-7.5" font-family="FreeSans" font-size="10.00">os_systemTime_reset</text>
</a>
</g>
</g>
<!-- Node1&#45;&gt;Node17 -->
<g id="edge21" class="edge">
<title>Node1&#45;&gt;Node17</title>
<path fill="none" stroke="midnightblue" d="M30.52,-95.29C39.35,-79.15 59.21,-46.8 85,-29 87.87,-27.02 90.96,-25.24 94.16,-23.63"/>
<polygon fill="midnightblue" stroke="midnightblue" points="95.67,-26.8 103.43,-19.59 92.87,-20.38 95.67,-26.8"/>
</g>
<!-- Node3 -->
<g id="node3" class="node">
<title>Node3</title>
<g id="a_node3"><a xlink:href="util_8c.html#a6203c4722e9cbe1542b6ccbe98362dd2" target="_top" xlink:title="Waits for some milliseconds.">
<polygon fill="white" stroke="black" points="402,-304.5 402,-323.5 460,-323.5 460,-304.5 402,-304.5"/>
<text text-anchor="middle" x="431" y="-311.5" font-family="FreeSans" font-size="10.00">delayMs</text>
</a>
</g>
</g>
<!-- Node2&#45;&gt;Node3 -->
<g id="edge2" class="edge">
<title>Node2&#45;&gt;Node3</title>
<path fill="none" stroke="midnightblue" d="M295.5,-228.56C308.48,-243.54 335.55,-272.62 364,-290 372.65,-295.28 382.64,-299.67 392.19,-303.18"/>
<polygon fill="midnightblue" stroke="midnightblue" points="391.31,-306.58 401.91,-306.52 393.59,-299.96 391.31,-306.58"/>
</g>
<!-- Node6 -->
<g id="node6" class="node">
<title>Node6</title>
<g id="a_node6"><a xlink:href="lcd_8h.html#ad235a86241458b1e7b8771688bfdaf9a" target="_top" xlink:title="Clear all data from display.">
<polygon fill="white" stroke="black" points="401,-152.5 401,-171.5 461,-171.5 461,-152.5 401,-152.5"/>
<text text-anchor="middle" x="431" y="-159.5" font-family="FreeSans" font-size="10.00">lcd_clear</text>
</a>
</g>
</g>
<!-- Node2&#45;&gt;Node6 -->
<g id="edge5" class="edge">
<title>Node2&#45;&gt;Node6</title>
<path fill="none" stroke="midnightblue" d="M304.42,-209.49C319.66,-201.19 342.85,-189.22 364,-181 372.56,-177.67 381.94,-174.63 390.88,-172"/>
<polygon fill="midnightblue" stroke="midnightblue" points="392.04,-175.31 400.71,-169.21 390.13,-168.57 392.04,-175.31"/>
</g>
<!-- Node7 -->
<g id="node7" class="node">
<title>Node7</title>
<g id="a_node7"><a xlink:href="lcd_8h.html#acb116d89c358367b8fd1164120d320e3" target="_top" xlink:title="Send command to LCD.">
<polygon fill="white" stroke="black" points="558.5,-152.5 558.5,-171.5 643.5,-171.5 643.5,-152.5 558.5,-152.5"/>
<text text-anchor="middle" x="601" y="-159.5" font-family="FreeSans" font-size="10.00">lcd_command</text>
</a>
</g>
</g>
<!-- Node2&#45;&gt;Node7 -->
<g id="edge7" class="edge">
<title>Node2&#45;&gt;Node7</title>
<path fill="none" stroke="midnightblue" d="M301.68,-228.56C316.49,-237.92 340.76,-251.54 364,-257 421.98,-270.61 442.58,-278.81 498,-257 537.36,-241.51 570.52,-202.88 587.6,-179.94"/>
<polygon fill="midnightblue" stroke="midnightblue" points="590.52,-181.88 593.53,-171.72 584.84,-177.78 590.52,-181.88"/>
</g>
<!-- Node8 -->
<g id="node8" class="node">
<title>Node8</title>
<g id="a_node8"><a xlink:href="lcd_8h.html#aca4a9d0155c7c7ec0c5ce4c2f5347847" target="_top" xlink:title="Enable LCD.">
<polygon fill="white" stroke="black" points="396.5,-228.5 396.5,-247.5 465.5,-247.5 465.5,-228.5 396.5,-228.5"/>
<text text-anchor="middle" x="431" y="-235.5" font-family="FreeSans" font-size="10.00">lcd_enable</text>
</a>
</g>
</g>
<!-- Node2&#45;&gt;Node8 -->
<g id="edge8" class="edge">
<title>Node2&#45;&gt;Node8</title>
<path fill="none" stroke="midnightblue" d="M312.65,-222.35C332.99,-225.07 362.13,-228.95 386.27,-232.17"/>
<polygon fill="midnightblue" stroke="midnightblue" points="385.9,-235.65 396.28,-233.5 386.83,-228.71 385.9,-235.65"/>
</g>
<!-- Node9 -->
<g id="node9" class="node">
<title>Node9</title>
<g id="a_node9"><a xlink:href="lcd_8h.html#a9145ad7b7dd6a45f9a84cf3d424c5cf2" target="_top" xlink:title="Register a customly designed character with the LCD.">
<polygon fill="white" stroke="black" points="364,-190.5 364,-209.5 498,-209.5 498,-190.5 364,-190.5"/>
<text text-anchor="middle" x="431" y="-197.5" font-family="FreeSans" font-size="10.00">lcd_registerCustomChar</text>
</a>
</g>
</g>
<!-- Node2&#45;&gt;Node9 -->
<g id="edge9" class="edge">
<title>Node2&#45;&gt;Node9</title>
<path fill="none" stroke="midnightblue" d="M312.65,-215.65C324.27,-214.1 338.76,-212.17 353.54,-210.19"/>
<polygon fill="midnightblue" stroke="midnightblue" points="354.35,-213.62 363.8,-208.83 353.42,-206.68 354.35,-213.62"/>
</g>
<!-- Node4 -->
<g id="node4" class="node">
<title>Node4</title>
<g id="a_node4"><a xlink:href="util_8c.html#a0ed4ceac216999d297c20ed56cd2f2e0" target="_top" xlink:title="Precise system time in ms.">
<polygon fill="white" stroke="black" points="534,-304.5 534,-323.5 668,-323.5 668,-304.5 534,-304.5"/>
<text text-anchor="middle" x="601" y="-311.5" font-family="FreeSans" font-size="10.00">os_systemTime_precise</text>
</a>
</g>
</g>
<!-- Node3&#45;&gt;Node4 -->
<g id="edge3" class="edge">
<title>Node3&#45;&gt;Node4</title>
<path fill="none" stroke="midnightblue" d="M460.12,-314C477.54,-314 500.82,-314 523.38,-314"/>
<polygon fill="midnightblue" stroke="midnightblue" points="523.67,-317.5 533.67,-314 523.67,-310.5 523.67,-317.5"/>
</g>
<!-- Node5 -->
<g id="node5" class="node">
<title>Node5</title>
<g id="a_node5"><a xlink:href="util_8c.html#aa7568de3711b151bbc57bb3517a5cb0a" target="_top" xlink:title=" ">
<polygon fill="white" stroke="black" points="704,-304.5 704,-323.5 847,-323.5 847,-304.5 704,-304.5"/>
<text text-anchor="middle" x="775.5" y="-311.5" font-family="FreeSans" font-size="10.00">os_systemTime_augment</text>
</a>
</g>
</g>
<!-- Node4&#45;&gt;Node5 -->
<g id="edge4" class="edge">
<title>Node4&#45;&gt;Node5</title>
<path fill="none" stroke="midnightblue" d="M668.2,-314C676.6,-314 685.27,-314 693.86,-314"/>
<polygon fill="midnightblue" stroke="midnightblue" points="693.89,-317.5 703.89,-314 693.89,-310.5 693.89,-317.5"/>
</g>
<!-- Node6&#45;&gt;Node7 -->
<g id="edge6" class="edge">
<title>Node6&#45;&gt;Node7</title>
<path fill="none" stroke="midnightblue" d="M461.26,-162C485.21,-162 519.67,-162 548.25,-162"/>
<polygon fill="midnightblue" stroke="midnightblue" points="548.49,-165.5 558.49,-162 548.49,-158.5 548.49,-165.5"/>
</g>
<!-- Node9&#45;&gt;Node7 -->
<g id="edge10" class="edge">
<title>Node9&#45;&gt;Node7</title>
<path fill="none" stroke="midnightblue" d="M474.39,-190.41C496.93,-185.31 524.82,-179.01 548.59,-173.63"/>
<polygon fill="midnightblue" stroke="midnightblue" points="549.51,-177.01 558.49,-171.39 547.97,-170.18 549.51,-177.01"/>
</g>
<!-- Node11 -->
<g id="node11" class="node">
<title>Node11</title>
<g id="a_node11"><a xlink:href="lcd_8h.html#a93cd5600fa3b27381a4cf57d21f27ebf" target="_top" xlink:title="Write one character.">
<polygon fill="white" stroke="black" points="245,-133.5 245,-152.5 328,-152.5 328,-133.5 245,-133.5"/>
<text text-anchor="middle" x="286.5" y="-140.5" font-family="FreeSans" font-size="10.00">lcd_writeChar</text>
</a>
</g>
</g>
<!-- Node10&#45;&gt;Node11 -->
<g id="edge12" class="edge">
<title>Node10&#45;&gt;Node11</title>
<path fill="none" stroke="midnightblue" d="M202.74,-154.44C213.3,-152.98 224.32,-151.45 234.74,-150.01"/>
<polygon fill="midnightblue" stroke="midnightblue" points="235.51,-153.44 244.93,-148.61 234.55,-146.51 235.51,-153.44"/>
</g>
<!-- Node11&#45;&gt;Node6 -->
<g id="edge13" class="edge">
<title>Node11&#45;&gt;Node6</title>
<path fill="none" stroke="midnightblue" d="M328.33,-148.44C347.99,-151.07 371.46,-154.19 390.89,-156.78"/>
<polygon fill="midnightblue" stroke="midnightblue" points="390.55,-160.27 400.93,-158.12 391.48,-153.33 390.55,-160.27"/>
</g>
<!-- Node12 -->
<g id="node12" class="node">
<title>Node12</title>
<g id="a_node12"><a xlink:href="lcd_8h.html#a016fe1471f1d20196b5ca3d2634c927a" target="_top" xlink:title="Next output will be written to line 1.">
<polygon fill="white" stroke="black" points="401,-114.5 401,-133.5 461,-133.5 461,-114.5 401,-114.5"/>
<text text-anchor="middle" x="431" y="-121.5" font-family="FreeSans" font-size="10.00">lcd_line1</text>
</a>
</g>
</g>
<!-- Node11&#45;&gt;Node12 -->
<g id="edge14" class="edge">
<title>Node11&#45;&gt;Node12</title>
<path fill="none" stroke="midnightblue" d="M328.33,-137.56C347.99,-134.93 371.46,-131.81 390.89,-129.22"/>
<polygon fill="midnightblue" stroke="midnightblue" points="391.48,-132.67 400.93,-127.88 390.55,-125.73 391.48,-132.67"/>
</g>
<!-- Node13 -->
<g id="node13" class="node">
<title>Node13</title>
<g id="a_node13"><a xlink:href="lcd_8h.html#ad9ccaf30ea478fef726c058ff4ee7dd1" target="_top" xlink:title="Next output will be written to line 2.">
<polygon fill="white" stroke="black" points="401,-76.5 401,-95.5 461,-95.5 461,-76.5 401,-76.5"/>
<text text-anchor="middle" x="431" y="-83.5" font-family="FreeSans" font-size="10.00">lcd_line2</text>
</a>
</g>
</g>
<!-- Node11&#45;&gt;Node13 -->
<g id="edge16" class="edge">
<title>Node11&#45;&gt;Node13</title>
<path fill="none" stroke="midnightblue" d="M304.42,-133.49C319.66,-125.19 342.85,-113.22 364,-105 372.56,-101.67 381.94,-98.63 390.88,-96"/>
<polygon fill="midnightblue" stroke="midnightblue" points="392.04,-99.31 400.71,-93.21 390.13,-92.57 392.04,-99.31"/>
</g>
<!-- Node12&#45;&gt;Node7 -->
<g id="edge15" class="edge">
<title>Node12&#45;&gt;Node7</title>
<path fill="none" stroke="midnightblue" d="M461.26,-130.62C485.31,-136.06 519.97,-143.9 548.63,-150.38"/>
<polygon fill="midnightblue" stroke="midnightblue" points="547.96,-153.82 558.49,-152.61 549.5,-146.99 547.96,-153.82"/>
</g>
<!-- Node13&#45;&gt;Node7 -->
<g id="edge17" class="edge">
<title>Node13&#45;&gt;Node7</title>
<path fill="none" stroke="midnightblue" d="M461.08,-92.83C472.76,-95.97 486.22,-100.09 498,-105 526.25,-116.78 556.64,-134.47 576.82,-147.02"/>
<polygon fill="midnightblue" stroke="midnightblue" points="575.01,-150.01 585.34,-152.38 578.74,-144.09 575.01,-150.01"/>
</g>
</g>
</svg>
