<?xml version="1.0" encoding="UTF-8" standalone="no"?>
<!DOCTYPE svg PUBLIC "-//W3C//DTD SVG 1.1//EN"
 "http://www.w3.org/Graphics/SVG/1.1/DTD/svg11.dtd">
<!-- Generated by graphviz version 2.43.0 (0)
 -->
<!-- Title: os_process.h Pages: 1 -->
<svg width="412pt" height="196pt"
 viewBox="0.00 0.00 411.73 196.00" xmlns="http://www.w3.org/2000/svg" xmlns:xlink="http://www.w3.org/1999/xlink">
<g id="graph0" class="graph" transform="scale(1 1) rotate(0) translate(4 192)">
<title>os_process.h</title>
<polygon fill="white" stroke="transparent" points="-4,4 -4,-192 407.73,-192 407.73,4 -4,4"/>
<!-- Node1 -->
<g id="node1" class="node">
<title>Node1</title>
<g id="a_node1"><a xlink:title="Struct specifying a process.">
<polygon fill="#bfbfbf" stroke="black" points="294,-168.5 294,-187.5 374,-187.5 374,-168.5 294,-168.5"/>
<text text-anchor="middle" x="334" y="-175.5" font-family="FreeSans" font-size="10.00">os_process.h</text>
</a>
</g>
</g>
<!-- Node2 -->
<g id="node2" class="node">
<title>Node2</title>
<g id="a_node2"><a xlink:href="os__scheduler_8h.html" target="_top" xlink:title="Scheduling module for the OS.">
<polygon fill="white" stroke="black" points="203.5,-112.5 203.5,-131.5 292.5,-131.5 292.5,-112.5 203.5,-112.5"/>
<text text-anchor="middle" x="248" y="-119.5" font-family="FreeSans" font-size="10.00">os_scheduler.h</text>
</a>
</g>
</g>
<!-- Node1&#45;&gt;Node2 -->
<g id="edge1" class="edge">
<title>Node1&#45;&gt;Node2</title>
<path fill="none" stroke="midnightblue" d="M311.55,-162.9C295.78,-153 275.19,-140.07 261.78,-131.65"/>
<polygon fill="midnightblue" stroke="midnightblue" points="309.85,-165.97 320.18,-168.32 313.57,-160.04 309.85,-165.97"/>
</g>
<!-- Node6 -->
<g id="node6" class="node">
<title>Node6</title>
<g id="a_node6"><a xlink:href="os__taskman_8c.html" target="_top" xlink:title=" ">
<polygon fill="white" stroke="black" points="292,-0.5 292,-19.5 376,-19.5 376,-0.5 292,-0.5"/>
<text text-anchor="middle" x="334" y="-7.5" font-family="FreeSans" font-size="10.00">os_taskman.c</text>
</a>
</g>
</g>
<!-- Node1&#45;&gt;Node6 -->
<g id="edge9" class="edge">
<title>Node1&#45;&gt;Node6</title>
<path fill="none" stroke="midnightblue" d="M349.13,-160.9C365.59,-142.18 390.89,-109.54 401,-76 403.57,-67.49 405.18,-63.84 401,-56 391.71,-38.56 372.33,-26.68 356.79,-19.53"/>
<polygon fill="midnightblue" stroke="midnightblue" points="346.39,-158.71 342.28,-168.47 351.59,-163.4 346.39,-158.71"/>
</g>
<!-- Node3 -->
<g id="node3" class="node">
<title>Node3</title>
<g id="a_node3"><a xlink:href="os__scheduler_8c.html" target="_top" xlink:title=" ">
<polygon fill="white" stroke="black" points="0,-0.5 0,-19.5 88,-19.5 88,-0.5 0,-0.5"/>
<text text-anchor="middle" x="44" y="-7.5" font-family="FreeSans" font-size="10.00">os_scheduler.c</text>
</a>
</g>
</g>
<!-- Node2&#45;&gt;Node3 -->
<g id="edge2" class="edge">
<title>Node2&#45;&gt;Node3</title>
<path fill="none" stroke="midnightblue" d="M193.09,-113.79C145.53,-106.48 81.54,-93.71 63,-76 47.19,-60.89 44.32,-33.43 43.94,-19.53"/>
<polygon fill="midnightblue" stroke="midnightblue" points="192.86,-117.3 203.27,-115.31 193.9,-110.37 192.86,-117.3"/>
</g>
<!-- Node4 -->
<g id="node4" class="node">
<title>Node4</title>
<g id="a_node4"><a xlink:href="os__scheduling__strategies_8h.html" target="_top" xlink:title="Scheduling library for the OS.">
<polygon fill="white" stroke="black" points="71.5,-56.5 71.5,-75.5 220.5,-75.5 220.5,-56.5 71.5,-56.5"/>
<text text-anchor="middle" x="146" y="-63.5" font-family="FreeSans" font-size="10.00">os_scheduling_strategies.h</text>
</a>
</g>
</g>
<!-- Node2&#45;&gt;Node4 -->
<g id="edge3" class="edge">
<title>Node2&#45;&gt;Node4</title>
<path fill="none" stroke="midnightblue" d="M222.67,-107.59C203.81,-97.61 178.62,-84.27 162.35,-75.65"/>
<polygon fill="midnightblue" stroke="midnightblue" points="221.14,-110.74 231.61,-112.32 224.41,-104.55 221.14,-110.74"/>
</g>
<!-- Node2&#45;&gt;Node6 -->
<g id="edge6" class="edge">
<title>Node2&#45;&gt;Node6</title>
<path fill="none" stroke="midnightblue" d="M250.07,-101.88C252.36,-88.05 257.13,-69.49 267,-56 279.08,-39.49 299.18,-27.18 314.21,-19.64"/>
<polygon fill="midnightblue" stroke="midnightblue" points="246.55,-101.79 248.68,-112.17 253.49,-102.74 246.55,-101.79"/>
</g>
<!-- Node7 -->
<g id="node7" class="node">
<title>Node7</title>
<g id="a_node7"><a xlink:href="os__user__privileges_8h.html" target="_top" xlink:title="User privileges specification used in part by the Taskman.">
<polygon fill="white" stroke="black" points="276,-56.5 276,-75.5 392,-75.5 392,-56.5 276,-56.5"/>
<text text-anchor="middle" x="334" y="-63.5" font-family="FreeSans" font-size="10.00">os_user_privileges.h</text>
</a>
</g>
</g>
<!-- Node2&#45;&gt;Node7 -->
<g id="edge7" class="edge">
<title>Node2&#45;&gt;Node7</title>
<path fill="none" stroke="midnightblue" d="M270.45,-106.9C286.22,-97 306.81,-84.07 320.22,-75.65"/>
<polygon fill="midnightblue" stroke="midnightblue" points="268.43,-104.04 261.82,-112.32 272.15,-109.97 268.43,-104.04"/>
</g>
<!-- Node4&#45;&gt;Node3 -->
<g id="edge4" class="edge">
<title>Node4&#45;&gt;Node3</title>
<path fill="none" stroke="midnightblue" d="M120.67,-51.59C101.81,-41.61 76.62,-28.27 60.35,-19.65"/>
<polygon fill="midnightblue" stroke="midnightblue" points="119.14,-54.74 129.61,-56.32 122.41,-48.55 119.14,-54.74"/>
</g>
<!-- Node5 -->
<g id="node5" class="node">
<title>Node5</title>
<g id="a_node5"><a xlink:href="os__scheduling__strategies_8c.html" target="_top" xlink:title=" ">
<polygon fill="white" stroke="black" points="106,-0.5 106,-19.5 254,-19.5 254,-0.5 106,-0.5"/>
<text text-anchor="middle" x="180" y="-7.5" font-family="FreeSans" font-size="10.00">os_scheduling_strategies.c</text>
</a>
</g>
</g>
<!-- Node4&#45;&gt;Node5 -->
<g id="edge5" class="edge">
<title>Node4&#45;&gt;Node5</title>
<path fill="none" stroke="midnightblue" d="M156.98,-47.57C162.83,-38.27 169.77,-27.25 174.49,-19.75"/>
<polygon fill="midnightblue" stroke="midnightblue" points="153.98,-45.76 151.61,-56.08 159.9,-49.49 153.98,-45.76"/>
</g>
<!-- Node7&#45;&gt;Node6 -->
<g id="edge8" class="edge">
<title>Node7&#45;&gt;Node6</title>
<path fill="none" stroke="midnightblue" d="M334,-45.8C334,-36.91 334,-26.78 334,-19.75"/>
<polygon fill="midnightblue" stroke="midnightblue" points="330.5,-46.08 334,-56.08 337.5,-46.08 330.5,-46.08"/>
</g>
</g>
</svg>
