<?xml version="1.0" encoding="UTF-8" standalone="no"?>
<!DOCTYPE svg PUBLIC "-//W3C//DTD SVG 1.1//EN"
 "http://www.w3.org/Graphics/SVG/1.1/DTD/svg11.dtd">
<!-- Generated by graphviz version 2.43.0 (0)
 -->
<!-- Title: os_scheduling_strategies.h Pages: 1 -->
<svg width="288pt" height="252pt"
 viewBox="0.00 0.00 288.00 252.00" xmlns="http://www.w3.org/2000/svg" xmlns:xlink="http://www.w3.org/1999/xlink">
<g id="graph0" class="graph" transform="scale(1 1) rotate(0) translate(4 248)">
<title>os_scheduling_strategies.h</title>
<polygon fill="white" stroke="transparent" points="-4,4 -4,-248 284,-248 284,4 -4,4"/>
<!-- Node1 -->
<g id="node1" class="node">
<title>Node1</title>
<g id="a_node1"><a xlink:title="Scheduling library for the OS.">
<polygon fill="#bfbfbf" stroke="black" points="74.5,-224.5 74.5,-243.5 223.5,-243.5 223.5,-224.5 74.5,-224.5"/>
<text text-anchor="middle" x="149" y="-231.5" font-family="FreeSans" font-size="10.00">os_scheduling_strategies.h</text>
</a>
</g>
</g>
<!-- Node2 -->
<g id="node2" class="node">
<title>Node2</title>
<g id="a_node2"><a xlink:href="os__scheduler_8h.html" target="_top" xlink:title="Scheduling module for the OS.">
<polygon fill="white" stroke="black" points="68.5,-168.5 68.5,-187.5 157.5,-187.5 157.5,-168.5 68.5,-168.5"/>
<text text-anchor="middle" x="113" y="-175.5" font-family="FreeSans" font-size="10.00">os_scheduler.h</text>
</a>
</g>
</g>
<!-- Node1&#45;&gt;Node2 -->
<g id="edge1" class="edge">
<title>Node1&#45;&gt;Node2</title>
<path fill="none" stroke="midnightblue" d="M143.06,-224.08C138.02,-216.53 130.66,-205.49 124.49,-196.23"/>
<polygon fill="midnightblue" stroke="midnightblue" points="127.29,-194.13 118.83,-187.75 121.47,-198.01 127.29,-194.13"/>
</g>
<!-- Node4 -->
<g id="node4" class="node">
<title>Node4</title>
<g id="a_node4"><a xlink:href="defines_8h.html" target="_top" xlink:title="Simple definitions and assembler&#45;macros, mostly 8/16&#45;Bit values.">
<polygon fill="white" stroke="black" points="163.5,-112.5 163.5,-131.5 224.5,-131.5 224.5,-112.5 163.5,-112.5"/>
<text text-anchor="middle" x="194" y="-119.5" font-family="FreeSans" font-size="10.00">defines.h</text>
</a>
</g>
</g>
<!-- Node1&#45;&gt;Node4 -->
<g id="edge9" class="edge">
<title>Node1&#45;&gt;Node4</title>
<path fill="none" stroke="midnightblue" d="M152.53,-224.37C159.86,-206.46 176.85,-164.92 186.66,-140.95"/>
<polygon fill="midnightblue" stroke="midnightblue" points="189.94,-142.17 190.49,-131.59 183.46,-139.52 189.94,-142.17"/>
</g>
<!-- Node3 -->
<g id="node3" class="node">
<title>Node3</title>
<g id="a_node3"><a xlink:title=" ">
<polygon fill="white" stroke="#bfbfbf" points="0,-56.5 0,-75.5 62,-75.5 62,-56.5 0,-56.5"/>
<text text-anchor="middle" x="31" y="-63.5" font-family="FreeSans" font-size="10.00">stdbool.h</text>
</a>
</g>
</g>
<!-- Node2&#45;&gt;Node3 -->
<g id="edge2" class="edge">
<title>Node2&#45;&gt;Node3</title>
<path fill="none" stroke="midnightblue" d="M98.05,-168.39C85.33,-160.4 67.37,-147.43 56,-132 45.7,-118.02 39.09,-99.27 35.27,-85.5"/>
<polygon fill="midnightblue" stroke="midnightblue" points="38.64,-84.54 32.79,-75.71 31.85,-86.27 38.64,-84.54"/>
</g>
<!-- Node2&#45;&gt;Node4 -->
<g id="edge3" class="edge">
<title>Node2&#45;&gt;Node4</title>
<path fill="none" stroke="midnightblue" d="M126.01,-168.32C138.53,-159.98 157.68,-147.21 172.47,-137.35"/>
<polygon fill="midnightblue" stroke="midnightblue" points="174.64,-140.11 181.02,-131.65 170.76,-134.29 174.64,-140.11"/>
</g>
<!-- Node7 -->
<g id="node7" class="node">
<title>Node7</title>
<g id="a_node7"><a xlink:href="os__process_8h.html" target="_top" xlink:title="Struct specifying a process.">
<polygon fill="white" stroke="black" points="65,-112.5 65,-131.5 145,-131.5 145,-112.5 65,-112.5"/>
<text text-anchor="middle" x="105" y="-119.5" font-family="FreeSans" font-size="10.00">os_process.h</text>
</a>
</g>
</g>
<!-- Node2&#45;&gt;Node7 -->
<g id="edge6" class="edge">
<title>Node2&#45;&gt;Node7</title>
<path fill="none" stroke="midnightblue" d="M111.68,-168.08C110.62,-160.93 109.09,-150.64 107.77,-141.69"/>
<polygon fill="midnightblue" stroke="midnightblue" points="111.22,-141.13 106.3,-131.75 104.3,-142.16 111.22,-141.13"/>
</g>
<!-- Node5 -->
<g id="node5" class="node">
<title>Node5</title>
<g id="a_node5"><a xlink:href="atmega644constants_8h.html" target="_top" xlink:title="Constants for ATMega644 and EVA board. Defines several useful constants for the ATMega644.">
<polygon fill="white" stroke="black" points="152,-56.5 152,-75.5 280,-75.5 280,-56.5 152,-56.5"/>
<text text-anchor="middle" x="216" y="-63.5" font-family="FreeSans" font-size="10.00">atmega644constants.h</text>
</a>
</g>
</g>
<!-- Node4&#45;&gt;Node5 -->
<g id="edge4" class="edge">
<title>Node4&#45;&gt;Node5</title>
<path fill="none" stroke="midnightblue" d="M197.63,-112.08C200.61,-104.77 204.93,-94.18 208.62,-85.1"/>
<polygon fill="midnightblue" stroke="midnightblue" points="211.9,-86.33 212.43,-75.75 205.42,-83.69 211.9,-86.33"/>
</g>
<!-- Node6 -->
<g id="node6" class="node">
<title>Node6</title>
<g id="a_node6"><a xlink:title=" ">
<polygon fill="white" stroke="#bfbfbf" points="189.5,-0.5 189.5,-19.5 242.5,-19.5 242.5,-0.5 189.5,-0.5"/>
<text text-anchor="middle" x="216" y="-7.5" font-family="FreeSans" font-size="10.00">avr/io.h</text>
</a>
</g>
</g>
<!-- Node5&#45;&gt;Node6 -->
<g id="edge5" class="edge">
<title>Node5&#45;&gt;Node6</title>
<path fill="none" stroke="midnightblue" d="M216,-56.08C216,-49.01 216,-38.86 216,-29.99"/>
<polygon fill="midnightblue" stroke="midnightblue" points="219.5,-29.75 216,-19.75 212.5,-29.75 219.5,-29.75"/>
</g>
<!-- Node7&#45;&gt;Node3 -->
<g id="edge8" class="edge">
<title>Node7&#45;&gt;Node3</title>
<path fill="none" stroke="midnightblue" d="M93.11,-112.32C81.85,-104.11 64.71,-91.6 51.29,-81.81"/>
<polygon fill="midnightblue" stroke="midnightblue" points="53.25,-78.9 43.11,-75.83 49.12,-84.56 53.25,-78.9"/>
</g>
<!-- Node8 -->
<g id="node8" class="node">
<title>Node8</title>
<g id="a_node8"><a xlink:title=" ">
<polygon fill="white" stroke="#bfbfbf" points="80.5,-56.5 80.5,-75.5 133.5,-75.5 133.5,-56.5 80.5,-56.5"/>
<text text-anchor="middle" x="107" y="-63.5" font-family="FreeSans" font-size="10.00">stdint.h</text>
</a>
</g>
</g>
<!-- Node7&#45;&gt;Node8 -->
<g id="edge7" class="edge">
<title>Node7&#45;&gt;Node8</title>
<path fill="none" stroke="midnightblue" d="M105.33,-112.08C105.59,-105.01 105.97,-94.86 106.3,-85.99"/>
<polygon fill="midnightblue" stroke="midnightblue" points="109.8,-85.87 106.68,-75.75 102.81,-85.61 109.8,-85.87"/>
</g>
</g>
</svg>
