<?xml version="1.0" encoding="UTF-8" standalone="no"?>
<!DOCTYPE svg PUBLIC "-//W3C//DTD SVG 1.1//EN"
 "http://www.w3.org/Graphics/SVG/1.1/DTD/svg11.dtd">
<!-- Generated by graphviz version 2.43.0 (0)
 -->
<!-- Title: os_scheduler.h Pages: 1 -->
<svg width="400pt" height="140pt"
 viewBox="0.00 0.00 400.00 140.00" xmlns="http://www.w3.org/2000/svg" xmlns:xlink="http://www.w3.org/1999/xlink">
<g id="graph0" class="graph" transform="scale(1 1) rotate(0) translate(4 136)">
<title>os_scheduler.h</title>
<polygon fill="white" stroke="transparent" points="-4,4 -4,-136 396,-136 396,4 -4,4"/>
<!-- Node1 -->
<g id="node1" class="node">
<title>Node1</title>
<g id="a_node1"><a xlink:title="Scheduling module for the OS.">
<polygon fill="#bfbfbf" stroke="black" points="152.5,-112.5 152.5,-131.5 241.5,-131.5 241.5,-112.5 152.5,-112.5"/>
<text text-anchor="middle" x="197" y="-119.5" font-family="FreeSans" font-size="10.00">os_scheduler.h</text>
</a>
</g>
</g>
<!-- Node2 -->
<g id="node2" class="node">
<title>Node2</title>
<g id="a_node2"><a xlink:href="os__scheduler_8c.html" target="_top" xlink:title=" ">
<polygon fill="white" stroke="black" points="0,-0.5 0,-19.5 88,-19.5 88,-0.5 0,-0.5"/>
<text text-anchor="middle" x="44" y="-7.5" font-family="FreeSans" font-size="10.00">os_scheduler.c</text>
</a>
</g>
</g>
<!-- Node1&#45;&gt;Node2 -->
<g id="edge1" class="edge">
<title>Node1&#45;&gt;Node2</title>
<path fill="none" stroke="midnightblue" d="M142.65,-114.73C115.39,-108.9 83.83,-97.67 63,-76 48.01,-60.4 44.75,-33.65 44.11,-19.83"/>
<polygon fill="midnightblue" stroke="midnightblue" points="141.99,-118.16 152.48,-116.64 143.33,-111.29 141.99,-118.16"/>
</g>
<!-- Node3 -->
<g id="node3" class="node">
<title>Node3</title>
<g id="a_node3"><a xlink:href="os__scheduling__strategies_8h.html" target="_top" xlink:title="Scheduling library for the OS.">
<polygon fill="white" stroke="black" points="71.5,-56.5 71.5,-75.5 220.5,-75.5 220.5,-56.5 71.5,-56.5"/>
<text text-anchor="middle" x="146" y="-63.5" font-family="FreeSans" font-size="10.00">os_scheduling_strategies.h</text>
</a>
</g>
</g>
<!-- Node1&#45;&gt;Node3 -->
<g id="edge2" class="edge">
<title>Node1&#45;&gt;Node3</title>
<path fill="none" stroke="midnightblue" d="M181.62,-104.72C172.63,-95.2 161.64,-83.56 154.26,-75.75"/>
<polygon fill="midnightblue" stroke="midnightblue" points="179.17,-107.22 188.58,-112.08 184.26,-102.41 179.17,-107.22"/>
</g>
<!-- Node5 -->
<g id="node5" class="node">
<title>Node5</title>
<g id="a_node5"><a xlink:href="os__taskman_8c.html" target="_top" xlink:title=" ">
<polygon fill="white" stroke="black" points="282,-0.5 282,-19.5 366,-19.5 366,-0.5 282,-0.5"/>
<text text-anchor="middle" x="324" y="-7.5" font-family="FreeSans" font-size="10.00">os_taskman.c</text>
</a>
</g>
</g>
<!-- Node1&#45;&gt;Node5 -->
<g id="edge5" class="edge">
<title>Node1&#45;&gt;Node5</title>
<path fill="none" stroke="midnightblue" d="M213.22,-105.25C227.19,-91.84 248.05,-72.23 267,-56 282.32,-42.88 300.76,-28.58 312.43,-19.7"/>
<polygon fill="midnightblue" stroke="midnightblue" points="210.62,-102.89 205.85,-112.35 215.48,-107.93 210.62,-102.89"/>
</g>
<!-- Node6 -->
<g id="node6" class="node">
<title>Node6</title>
<g id="a_node6"><a xlink:href="os__user__privileges_8h.html" target="_top" xlink:title="User privileges specification used in part by the Taskman.">
<polygon fill="white" stroke="black" points="276,-56.5 276,-75.5 392,-75.5 392,-56.5 276,-56.5"/>
<text text-anchor="middle" x="334" y="-63.5" font-family="FreeSans" font-size="10.00">os_user_privileges.h</text>
</a>
</g>
</g>
<!-- Node1&#45;&gt;Node6 -->
<g id="edge6" class="edge">
<title>Node1&#45;&gt;Node6</title>
<path fill="none" stroke="midnightblue" d="M228.02,-108.77C253.76,-98.63 289.69,-84.47 312.39,-75.52"/>
<polygon fill="midnightblue" stroke="midnightblue" points="226.73,-105.52 218.71,-112.44 229.29,-112.03 226.73,-105.52"/>
</g>
<!-- Node3&#45;&gt;Node2 -->
<g id="edge3" class="edge">
<title>Node3&#45;&gt;Node2</title>
<path fill="none" stroke="midnightblue" d="M120.67,-51.59C101.81,-41.61 76.62,-28.27 60.35,-19.65"/>
<polygon fill="midnightblue" stroke="midnightblue" points="119.14,-54.74 129.61,-56.32 122.41,-48.55 119.14,-54.74"/>
</g>
<!-- Node4 -->
<g id="node4" class="node">
<title>Node4</title>
<g id="a_node4"><a xlink:href="os__scheduling__strategies_8c.html" target="_top" xlink:title=" ">
<polygon fill="white" stroke="black" points="106,-0.5 106,-19.5 254,-19.5 254,-0.5 106,-0.5"/>
<text text-anchor="middle" x="180" y="-7.5" font-family="FreeSans" font-size="10.00">os_scheduling_strategies.c</text>
</a>
</g>
</g>
<!-- Node3&#45;&gt;Node4 -->
<g id="edge4" class="edge">
<title>Node3&#45;&gt;Node4</title>
<path fill="none" stroke="midnightblue" d="M156.98,-47.57C162.83,-38.27 169.77,-27.25 174.49,-19.75"/>
<polygon fill="midnightblue" stroke="midnightblue" points="153.98,-45.76 151.61,-56.08 159.9,-49.49 153.98,-45.76"/>
</g>
<!-- Node6&#45;&gt;Node5 -->
<g id="edge7" class="edge">
<title>Node6&#45;&gt;Node5</title>
<path fill="none" stroke="midnightblue" d="M330.5,-46.1C328.84,-37.14 326.94,-26.86 325.62,-19.75"/>
<polygon fill="midnightblue" stroke="midnightblue" points="327.09,-46.89 332.35,-56.08 333.97,-45.61 327.09,-46.89"/>
</g>
</g>
</svg>
