<?xml version="1.0" encoding="UTF-8" standalone="no"?>
<!DOCTYPE svg PUBLIC "-//W3C//DTD SVG 1.1//EN"
 "http://www.w3.org/Graphics/SVG/1.1/DTD/svg11.dtd">
<!-- Generated by graphviz version 2.43.0 (0)
 -->
<!-- Title: os_user_privileges.h Pages: 1 -->
<svg width="329pt" height="252pt"
 viewBox="0.00 0.00 328.50 252.00" xmlns="http://www.w3.org/2000/svg" xmlns:xlink="http://www.w3.org/1999/xlink">
<g id="graph0" class="graph" transform="scale(1 1) rotate(0) translate(4 248)">
<title>os_user_privileges.h</title>
<polygon fill="white" stroke="transparent" points="-4,4 -4,-248 324.5,-248 324.5,4 -4,4"/>
<!-- Node1 -->
<g id="node1" class="node">
<title>Node1</title>
<g id="a_node1"><a xlink:title="User privileges specification used in part by the Taskman.">
<polygon fill="#bfbfbf" stroke="black" points="77.5,-224.5 77.5,-243.5 193.5,-243.5 193.5,-224.5 77.5,-224.5"/>
<text text-anchor="middle" x="135.5" y="-231.5" font-family="FreeSans" font-size="10.00">os_user_privileges.h</text>
</a>
</g>
</g>
<!-- Node2 -->
<g id="node2" class="node">
<title>Node2</title>
<g id="a_node2"><a xlink:title=" ">
<polygon fill="white" stroke="#bfbfbf" points="0,-56.5 0,-75.5 53,-75.5 53,-56.5 0,-56.5"/>
<text text-anchor="middle" x="26.5" y="-63.5" font-family="FreeSans" font-size="10.00">stdint.h</text>
</a>
</g>
</g>
<!-- Node1&#45;&gt;Node2 -->
<g id="edge1" class="edge">
<title>Node1&#45;&gt;Node2</title>
<path fill="none" stroke="midnightblue" d="M80.36,-224.42C58.9,-218.09 36.41,-207.1 23.5,-188 2.59,-157.06 12.15,-110.77 19.96,-85.35"/>
<polygon fill="midnightblue" stroke="midnightblue" points="23.38,-86.15 23.21,-75.55 16.74,-83.94 23.38,-86.15"/>
</g>
<!-- Node3 -->
<g id="node3" class="node">
<title>Node3</title>
<g id="a_node3"><a xlink:title=" ">
<polygon fill="white" stroke="#bfbfbf" points="33,-168.5 33,-187.5 128,-187.5 128,-168.5 33,-168.5"/>
<text text-anchor="middle" x="80.5" y="-175.5" font-family="FreeSans" font-size="10.00">avr/pgmspace.h</text>
</a>
</g>
</g>
<!-- Node1&#45;&gt;Node3 -->
<g id="edge2" class="edge">
<title>Node1&#45;&gt;Node3</title>
<path fill="none" stroke="midnightblue" d="M126.42,-224.08C118.33,-216.14 106.3,-204.34 96.59,-194.8"/>
<polygon fill="midnightblue" stroke="midnightblue" points="99,-192.26 89.41,-187.75 94.1,-197.25 99,-192.26"/>
</g>
<!-- Node4 -->
<g id="node4" class="node">
<title>Node4</title>
<g id="a_node4"><a xlink:href="os__scheduler_8h.html" target="_top" xlink:title="Scheduling module for the OS.">
<polygon fill="white" stroke="black" points="146,-168.5 146,-187.5 235,-187.5 235,-168.5 146,-168.5"/>
<text text-anchor="middle" x="190.5" y="-175.5" font-family="FreeSans" font-size="10.00">os_scheduler.h</text>
</a>
</g>
</g>
<!-- Node1&#45;&gt;Node4 -->
<g id="edge3" class="edge">
<title>Node1&#45;&gt;Node4</title>
<path fill="none" stroke="midnightblue" d="M144.58,-224.08C152.67,-216.14 164.7,-204.34 174.41,-194.8"/>
<polygon fill="midnightblue" stroke="midnightblue" points="176.9,-197.25 181.59,-187.75 172,-192.26 176.9,-197.25"/>
</g>
<!-- Node6 -->
<g id="node6" class="node">
<title>Node6</title>
<g id="a_node6"><a xlink:href="defines_8h.html" target="_top" xlink:title="Simple definitions and assembler&#45;macros, mostly 8/16&#45;Bit values.">
<polygon fill="white" stroke="black" points="226,-112.5 226,-131.5 287,-131.5 287,-112.5 226,-112.5"/>
<text text-anchor="middle" x="256.5" y="-119.5" font-family="FreeSans" font-size="10.00">defines.h</text>
</a>
</g>
</g>
<!-- Node1&#45;&gt;Node6 -->
<g id="edge11" class="edge">
<title>Node1&#45;&gt;Node6</title>
<path fill="none" stroke="midnightblue" d="M181.2,-224.43C203.14,-218.01 227.98,-206.93 243.5,-188 254.09,-175.08 256.85,-155.91 257.26,-141.73"/>
<polygon fill="midnightblue" stroke="midnightblue" points="260.76,-141.62 257.18,-131.65 253.76,-141.67 260.76,-141.62"/>
</g>
<!-- Node5 -->
<g id="node5" class="node">
<title>Node5</title>
<g id="a_node5"><a xlink:title=" ">
<polygon fill="white" stroke="#bfbfbf" points="102.5,-56.5 102.5,-75.5 164.5,-75.5 164.5,-56.5 102.5,-56.5"/>
<text text-anchor="middle" x="133.5" y="-63.5" font-family="FreeSans" font-size="10.00">stdbool.h</text>
</a>
</g>
</g>
<!-- Node4&#45;&gt;Node5 -->
<g id="edge4" class="edge">
<title>Node4&#45;&gt;Node5</title>
<path fill="none" stroke="midnightblue" d="M189.12,-168.14C186.84,-155.2 181.51,-130.64 171.5,-112 165.84,-101.46 157.42,-91.15 149.94,-83.07"/>
<polygon fill="midnightblue" stroke="midnightblue" points="152.38,-80.56 142.91,-75.8 147.34,-85.42 152.38,-80.56"/>
</g>
<!-- Node4&#45;&gt;Node6 -->
<g id="edge5" class="edge">
<title>Node4&#45;&gt;Node6</title>
<path fill="none" stroke="midnightblue" d="M201.1,-168.32C210.96,-160.26 225.85,-148.08 237.72,-138.37"/>
<polygon fill="midnightblue" stroke="midnightblue" points="240.18,-140.88 245.7,-131.83 235.75,-135.46 240.18,-140.88"/>
</g>
<!-- Node9 -->
<g id="node9" class="node">
<title>Node9</title>
<g id="a_node9"><a xlink:href="os__process_8h.html" target="_top" xlink:title="Struct specifying a process.">
<polygon fill="white" stroke="black" points="82.5,-112.5 82.5,-131.5 162.5,-131.5 162.5,-112.5 82.5,-112.5"/>
<text text-anchor="middle" x="122.5" y="-119.5" font-family="FreeSans" font-size="10.00">os_process.h</text>
</a>
</g>
</g>
<!-- Node4&#45;&gt;Node9 -->
<g id="edge8" class="edge">
<title>Node4&#45;&gt;Node9</title>
<path fill="none" stroke="midnightblue" d="M179.57,-168.32C169.33,-160.18 153.78,-147.84 141.5,-138.09"/>
<polygon fill="midnightblue" stroke="midnightblue" points="143.63,-135.31 133.62,-131.83 139.28,-140.79 143.63,-135.31"/>
</g>
<!-- Node7 -->
<g id="node7" class="node">
<title>Node7</title>
<g id="a_node7"><a xlink:href="atmega644constants_8h.html" target="_top" xlink:title="Constants for ATMega644 and EVA board. Defines several useful constants for the ATMega644.">
<polygon fill="white" stroke="black" points="192.5,-56.5 192.5,-75.5 320.5,-75.5 320.5,-56.5 192.5,-56.5"/>
<text text-anchor="middle" x="256.5" y="-63.5" font-family="FreeSans" font-size="10.00">atmega644constants.h</text>
</a>
</g>
</g>
<!-- Node6&#45;&gt;Node7 -->
<g id="edge6" class="edge">
<title>Node6&#45;&gt;Node7</title>
<path fill="none" stroke="midnightblue" d="M256.5,-112.08C256.5,-105.01 256.5,-94.86 256.5,-85.99"/>
<polygon fill="midnightblue" stroke="midnightblue" points="260,-85.75 256.5,-75.75 253,-85.75 260,-85.75"/>
</g>
<!-- Node8 -->
<g id="node8" class="node">
<title>Node8</title>
<g id="a_node8"><a xlink:title=" ">
<polygon fill="white" stroke="#bfbfbf" points="230,-0.5 230,-19.5 283,-19.5 283,-0.5 230,-0.5"/>
<text text-anchor="middle" x="256.5" y="-7.5" font-family="FreeSans" font-size="10.00">avr/io.h</text>
</a>
</g>
</g>
<!-- Node7&#45;&gt;Node8 -->
<g id="edge7" class="edge">
<title>Node7&#45;&gt;Node8</title>
<path fill="none" stroke="midnightblue" d="M256.5,-56.08C256.5,-49.01 256.5,-38.86 256.5,-29.99"/>
<polygon fill="midnightblue" stroke="midnightblue" points="260,-29.75 256.5,-19.75 253,-29.75 260,-29.75"/>
</g>
<!-- Node9&#45;&gt;Node2 -->
<g id="edge9" class="edge">
<title>Node9&#45;&gt;Node2</title>
<path fill="none" stroke="midnightblue" d="M107.08,-112.32C91.96,-103.82 68.68,-90.73 51.03,-80.8"/>
<polygon fill="midnightblue" stroke="midnightblue" points="52.32,-77.51 41.89,-75.65 48.89,-83.61 52.32,-77.51"/>
</g>
<!-- Node9&#45;&gt;Node5 -->
<g id="edge10" class="edge">
<title>Node9&#45;&gt;Node5</title>
<path fill="none" stroke="midnightblue" d="M124.32,-112.08C125.77,-104.93 127.87,-94.64 129.69,-85.69"/>
<polygon fill="midnightblue" stroke="midnightblue" points="133.15,-86.25 131.72,-75.75 126.29,-84.85 133.15,-86.25"/>
</g>
</g>
</svg>
