<?xml version="1.0" encoding="UTF-8" standalone="no"?>
<!DOCTYPE svg PUBLIC "-//W3C//DTD SVG 1.1//EN"
 "http://www.w3.org/Graphics/SVG/1.1/DTD/svg11.dtd">
<!-- Generated by graphviz version 2.43.0 (0)
 -->
<!-- Title: os_taskman.c Pages: 1 -->
<svg width="630pt" height="308pt"
 viewBox="0.00 0.00 629.66 308.00" xmlns="http://www.w3.org/2000/svg" xmlns:xlink="http://www.w3.org/1999/xlink">
<g id="graph0" class="graph" transform="scale(1 1) rotate(0) translate(4 304)">
<title>os_taskman.c</title>
<polygon fill="white" stroke="transparent" points="-4,4 -4,-304 625.66,-304 625.66,4 -4,4"/>
<!-- Node1 -->
<g id="node1" class="node">
<title>Node1</title>
<g id="a_node1"><a xlink:title=" ">
<polygon fill="#bfbfbf" stroke="black" points="261.5,-280.5 261.5,-299.5 345.5,-299.5 345.5,-280.5 261.5,-280.5"/>
<text text-anchor="middle" x="303.5" y="-287.5" font-family="FreeSans" font-size="10.00">os_taskman.c</text>
</a>
</g>
</g>
<!-- Node2 -->
<g id="node2" class="node">
<title>Node2</title>
<g id="a_node2"><a xlink:href="os__taskman_8h.html" target="_top" xlink:title="TaskManager library for the OS.">
<polygon fill="white" stroke="black" points="0,-168.5 0,-187.5 85,-187.5 85,-168.5 0,-168.5"/>
<text text-anchor="middle" x="42.5" y="-175.5" font-family="FreeSans" font-size="10.00">os_taskman.h</text>
</a>
</g>
</g>
<!-- Node1&#45;&gt;Node2 -->
<g id="edge1" class="edge">
<title>Node1&#45;&gt;Node2</title>
<path fill="none" stroke="midnightblue" d="M261.36,-284.74C222.07,-279.45 162.74,-267.98 116.5,-244 92.68,-231.64 70.25,-210.01 56.47,-195.12"/>
<polygon fill="midnightblue" stroke="midnightblue" points="59.03,-192.73 49.74,-187.64 53.82,-197.41 59.03,-192.73"/>
</g>
<!-- Node4 -->
<g id="node4" class="node">
<title>Node4</title>
<g id="a_node4"><a xlink:href="defines_8h.html" target="_top" xlink:title="Simple definitions and assembler&#45;macros, mostly 8/16&#45;Bit values.">
<polygon fill="white" stroke="black" points="414,-112.5 414,-131.5 475,-131.5 475,-112.5 414,-112.5"/>
<text text-anchor="middle" x="444.5" y="-119.5" font-family="FreeSans" font-size="10.00">defines.h</text>
</a>
</g>
</g>
<!-- Node1&#45;&gt;Node4 -->
<g id="edge3" class="edge">
<title>Node1&#45;&gt;Node4</title>
<path fill="none" stroke="midnightblue" d="M345.55,-282.38C386.07,-275.04 443.15,-261.85 456.5,-244 479.18,-213.69 464.2,-166.49 453.19,-140.92"/>
<polygon fill="midnightblue" stroke="midnightblue" points="456.31,-139.32 448.98,-131.68 449.95,-142.23 456.31,-139.32"/>
</g>
<!-- Node7 -->
<g id="node7" class="node">
<title>Node7</title>
<g id="a_node7"><a xlink:href="util_8h.html" target="_top" xlink:title="Little helpers that don&#39;t fit elsewhere.">
<polygon fill="white" stroke="black" points="104,-112.5 104,-131.5 145,-131.5 145,-112.5 104,-112.5"/>
<text text-anchor="middle" x="124.5" y="-119.5" font-family="FreeSans" font-size="10.00">util.h</text>
</a>
</g>
</g>
<!-- Node1&#45;&gt;Node7 -->
<g id="edge6" class="edge">
<title>Node1&#45;&gt;Node7</title>
<path fill="none" stroke="midnightblue" d="M276.81,-280.4C256.05,-272.88 227.24,-260.57 205.5,-244 169.12,-216.26 143.7,-167.27 131.92,-140.94"/>
<polygon fill="midnightblue" stroke="midnightblue" points="135.13,-139.55 127.96,-131.75 128.7,-142.32 135.13,-139.55"/>
</g>
<!-- Node8 -->
<g id="node8" class="node">
<title>Node8</title>
<g id="a_node8"><a xlink:title=" ">
<polygon fill="white" stroke="#bfbfbf" points="281,-56.5 281,-75.5 334,-75.5 334,-56.5 281,-56.5"/>
<text text-anchor="middle" x="307.5" y="-63.5" font-family="FreeSans" font-size="10.00">stdint.h</text>
</a>
</g>
</g>
<!-- Node1&#45;&gt;Node8 -->
<g id="edge16" class="edge">
<title>Node1&#45;&gt;Node8</title>
<path fill="none" stroke="midnightblue" d="M345.5,-288.65C416.22,-287.08 554.29,-279.43 584.5,-244 620.63,-201.62 666.8,-218.5 522.5,-112 508.27,-101.5 401.82,-82.6 344.24,-72.98"/>
<polygon fill="midnightblue" stroke="midnightblue" points="344.53,-69.48 334.09,-71.29 343.38,-76.38 344.53,-69.48"/>
</g>
<!-- Node10 -->
<g id="node10" class="node">
<title>Node10</title>
<g id="a_node10"><a xlink:href="lcd_8h.html" target="_top" xlink:title="Library for LCD use.">
<polygon fill="white" stroke="black" points="167.5,-168.5 167.5,-187.5 207.5,-187.5 207.5,-168.5 167.5,-168.5"/>
<text text-anchor="middle" x="187.5" y="-175.5" font-family="FreeSans" font-size="10.00">lcd.h</text>
</a>
</g>
</g>
<!-- Node1&#45;&gt;Node10 -->
<g id="edge10" class="edge">
<title>Node1&#45;&gt;Node10</title>
<path fill="none" stroke="midnightblue" d="M282.33,-280.44C265.41,-272.81 241.91,-260.31 225.5,-244 211.91,-230.49 201.42,-211.13 194.94,-197.06"/>
<polygon fill="midnightblue" stroke="midnightblue" points="197.98,-195.28 190.78,-187.51 191.57,-198.07 197.98,-195.28"/>
</g>
<!-- Node11 -->
<g id="node11" class="node">
<title>Node11</title>
<g id="a_node11"><a xlink:href="os__process_8h.html" target="_top" xlink:title="Struct specifying a process.">
<polygon fill="white" stroke="black" points="239.5,-112.5 239.5,-131.5 319.5,-131.5 319.5,-112.5 239.5,-112.5"/>
<text text-anchor="middle" x="279.5" y="-119.5" font-family="FreeSans" font-size="10.00">os_process.h</text>
</a>
</g>
</g>
<!-- Node1&#45;&gt;Node11 -->
<g id="edge17" class="edge">
<title>Node1&#45;&gt;Node11</title>
<path fill="none" stroke="midnightblue" d="M298.34,-280.49C288.43,-263.6 267.07,-224.33 259.5,-188 257.69,-179.3 257.65,-176.7 259.5,-168 261.5,-158.59 265.6,-148.76 269.57,-140.7"/>
<polygon fill="midnightblue" stroke="midnightblue" points="272.81,-142.07 274.37,-131.59 266.61,-138.81 272.81,-142.07"/>
</g>
<!-- Node12 -->
<g id="node12" class="node">
<title>Node12</title>
<g id="a_node12"><a xlink:href="os__scheduler_8h.html" target="_top" xlink:title="Scheduling module for the OS.">
<polygon fill="white" stroke="black" points="268,-168.5 268,-187.5 357,-187.5 357,-168.5 268,-168.5"/>
<text text-anchor="middle" x="312.5" y="-175.5" font-family="FreeSans" font-size="10.00">os_scheduler.h</text>
</a>
</g>
</g>
<!-- Node1&#45;&gt;Node12 -->
<g id="edge20" class="edge">
<title>Node1&#45;&gt;Node12</title>
<path fill="none" stroke="midnightblue" d="M304.21,-280.37C305.66,-262.62 309.01,-221.67 310.98,-197.6"/>
<polygon fill="midnightblue" stroke="midnightblue" points="314.47,-197.84 311.8,-187.59 307.49,-197.27 314.47,-197.84"/>
</g>
<!-- Node13 -->
<g id="node13" class="node">
<title>Node13</title>
<g id="a_node13"><a xlink:href="os__input_8h.html" target="_top" xlink:title="Input library for the OS.">
<polygon fill="white" stroke="black" points="508,-224.5 508,-243.5 575,-243.5 575,-224.5 508,-224.5"/>
<text text-anchor="middle" x="541.5" y="-231.5" font-family="FreeSans" font-size="10.00">os_input.h</text>
</a>
</g>
</g>
<!-- Node1&#45;&gt;Node13 -->
<g id="edge24" class="edge">
<title>Node1&#45;&gt;Node13</title>
<path fill="none" stroke="midnightblue" d="M341.21,-280.44C383.77,-270.79 452.91,-255.1 497.79,-244.92"/>
<polygon fill="midnightblue" stroke="midnightblue" points="498.84,-248.27 507.81,-242.64 497.29,-241.44 498.84,-248.27"/>
</g>
<!-- Node14 -->
<g id="node14" class="node">
<title>Node14</title>
<g id="a_node14"><a xlink:href="os__user__privileges_8h.html" target="_top" xlink:title="User privileges specification used in part by the Taskman.">
<polygon fill="white" stroke="black" points="331.5,-224.5 331.5,-243.5 447.5,-243.5 447.5,-224.5 331.5,-224.5"/>
<text text-anchor="middle" x="389.5" y="-231.5" font-family="FreeSans" font-size="10.00">os_user_privileges.h</text>
</a>
</g>
</g>
<!-- Node1&#45;&gt;Node14 -->
<g id="edge26" class="edge">
<title>Node1&#45;&gt;Node14</title>
<path fill="none" stroke="midnightblue" d="M317.32,-280.32C330.73,-271.9 351.32,-258.97 367.09,-249.07"/>
<polygon fill="midnightblue" stroke="midnightblue" points="369.11,-251.94 375.72,-243.65 365.39,-246.01 369.11,-251.94"/>
</g>
<!-- Node3 -->
<g id="node3" class="node">
<title>Node3</title>
<g id="a_node3"><a xlink:title=" ">
<polygon fill="white" stroke="#bfbfbf" points="66.5,-56.5 66.5,-75.5 128.5,-75.5 128.5,-56.5 66.5,-56.5"/>
<text text-anchor="middle" x="97.5" y="-63.5" font-family="FreeSans" font-size="10.00">stdbool.h</text>
</a>
</g>
</g>
<!-- Node2&#45;&gt;Node3 -->
<g id="edge2" class="edge">
<title>Node2&#45;&gt;Node3</title>
<path fill="none" stroke="midnightblue" d="M43.95,-168.18C46.31,-155.28 51.74,-130.78 61.5,-112 66.91,-101.59 74.92,-91.28 82.01,-83.15"/>
<polygon fill="midnightblue" stroke="midnightblue" points="84.77,-85.32 88.92,-75.57 79.6,-80.6 84.77,-85.32"/>
</g>
<!-- Node5 -->
<g id="node5" class="node">
<title>Node5</title>
<g id="a_node5"><a xlink:href="atmega644constants_8h.html" target="_top" xlink:title="Constants for ATMega644 and EVA board. Defines several useful constants for the ATMega644.">
<polygon fill="white" stroke="black" points="380.5,-56.5 380.5,-75.5 508.5,-75.5 508.5,-56.5 380.5,-56.5"/>
<text text-anchor="middle" x="444.5" y="-63.5" font-family="FreeSans" font-size="10.00">atmega644constants.h</text>
</a>
</g>
</g>
<!-- Node4&#45;&gt;Node5 -->
<g id="edge4" class="edge">
<title>Node4&#45;&gt;Node5</title>
<path fill="none" stroke="midnightblue" d="M444.5,-112.08C444.5,-105.01 444.5,-94.86 444.5,-85.99"/>
<polygon fill="midnightblue" stroke="midnightblue" points="448,-85.75 444.5,-75.75 441,-85.75 448,-85.75"/>
</g>
<!-- Node6 -->
<g id="node6" class="node">
<title>Node6</title>
<g id="a_node6"><a xlink:title=" ">
<polygon fill="white" stroke="#bfbfbf" points="418,-0.5 418,-19.5 471,-19.5 471,-0.5 418,-0.5"/>
<text text-anchor="middle" x="444.5" y="-7.5" font-family="FreeSans" font-size="10.00">avr/io.h</text>
</a>
</g>
</g>
<!-- Node5&#45;&gt;Node6 -->
<g id="edge5" class="edge">
<title>Node5&#45;&gt;Node6</title>
<path fill="none" stroke="midnightblue" d="M444.5,-56.08C444.5,-49.01 444.5,-38.86 444.5,-29.99"/>
<polygon fill="midnightblue" stroke="midnightblue" points="448,-29.75 444.5,-19.75 441,-29.75 448,-29.75"/>
</g>
<!-- Node7&#45;&gt;Node3 -->
<g id="edge8" class="edge">
<title>Node7&#45;&gt;Node3</title>
<path fill="none" stroke="midnightblue" d="M120.04,-112.08C116.35,-104.69 110.98,-93.95 106.41,-84.81"/>
<polygon fill="midnightblue" stroke="midnightblue" points="109.48,-83.13 101.88,-75.75 103.22,-86.26 109.48,-83.13"/>
</g>
<!-- Node7&#45;&gt;Node8 -->
<g id="edge7" class="edge">
<title>Node7&#45;&gt;Node8</title>
<path fill="none" stroke="midnightblue" d="M145.14,-114.91C175.68,-105.9 233.38,-88.87 271.13,-77.73"/>
<polygon fill="midnightblue" stroke="midnightblue" points="272.13,-81.09 280.73,-74.9 270.15,-74.37 272.13,-81.09"/>
</g>
<!-- Node9 -->
<g id="node9" class="node">
<title>Node9</title>
<g id="a_node9"><a xlink:title=" ">
<polygon fill="white" stroke="#bfbfbf" points="147,-56.5 147,-75.5 242,-75.5 242,-56.5 147,-56.5"/>
<text text-anchor="middle" x="194.5" y="-63.5" font-family="FreeSans" font-size="10.00">avr/pgmspace.h</text>
</a>
</g>
</g>
<!-- Node7&#45;&gt;Node9 -->
<g id="edge9" class="edge">
<title>Node7&#45;&gt;Node9</title>
<path fill="none" stroke="midnightblue" d="M135.75,-112.32C146.3,-104.18 162.3,-91.84 174.94,-82.09"/>
<polygon fill="midnightblue" stroke="midnightblue" points="177.27,-84.71 183.05,-75.83 172.99,-79.17 177.27,-84.71"/>
</g>
<!-- Node10&#45;&gt;Node3 -->
<g id="edge11" class="edge">
<title>Node10&#45;&gt;Node3</title>
<path fill="none" stroke="midnightblue" d="M167.36,-173.67C145.14,-168.8 110.41,-157.38 94.5,-132 85.88,-118.26 87.88,-99.48 91.29,-85.64"/>
<polygon fill="midnightblue" stroke="midnightblue" points="94.72,-86.37 94.15,-75.79 88,-84.41 94.72,-86.37"/>
</g>
<!-- Node10&#45;&gt;Node4 -->
<g id="edge14" class="edge">
<title>Node10&#45;&gt;Node4</title>
<path fill="none" stroke="midnightblue" d="M207.67,-172.76C249.89,-163.89 348.27,-143.22 404.04,-131.5"/>
<polygon fill="midnightblue" stroke="midnightblue" points="404.87,-134.9 413.94,-129.42 403.43,-128.05 404.87,-134.9"/>
</g>
<!-- Node10&#45;&gt;Node7 -->
<g id="edge15" class="edge">
<title>Node10&#45;&gt;Node7</title>
<path fill="none" stroke="midnightblue" d="M177.38,-168.32C167.97,-160.26 153.76,-148.08 142.43,-138.37"/>
<polygon fill="midnightblue" stroke="midnightblue" points="144.68,-135.68 134.81,-131.83 140.12,-141 144.68,-135.68"/>
</g>
<!-- Node10&#45;&gt;Node8 -->
<g id="edge12" class="edge">
<title>Node10&#45;&gt;Node8</title>
<path fill="none" stroke="midnightblue" d="M191.72,-168.09C198.42,-154.64 212.61,-128.92 230.5,-112 244.47,-98.78 263.01,-87.8 278.4,-79.99"/>
<polygon fill="midnightblue" stroke="midnightblue" points="280.05,-83.08 287.51,-75.55 276.98,-76.79 280.05,-83.08"/>
</g>
<!-- Node10&#45;&gt;Node9 -->
<g id="edge13" class="edge">
<title>Node10&#45;&gt;Node9</title>
<path fill="none" stroke="midnightblue" d="M188.05,-168.37C189.18,-150.62 191.78,-109.67 193.32,-85.6"/>
<polygon fill="midnightblue" stroke="midnightblue" points="196.81,-85.79 193.95,-75.59 189.83,-85.35 196.81,-85.79"/>
</g>
<!-- Node11&#45;&gt;Node3 -->
<g id="edge19" class="edge">
<title>Node11&#45;&gt;Node3</title>
<path fill="none" stroke="midnightblue" d="M250.66,-112.44C219.64,-103.24 170.17,-88.56 135.88,-78.39"/>
<polygon fill="midnightblue" stroke="midnightblue" points="136.79,-75.01 126.2,-75.52 134.79,-81.72 136.79,-75.01"/>
</g>
<!-- Node11&#45;&gt;Node8 -->
<g id="edge18" class="edge">
<title>Node11&#45;&gt;Node8</title>
<path fill="none" stroke="midnightblue" d="M284.12,-112.08C287.96,-104.69 293.52,-93.95 298.26,-84.81"/>
<polygon fill="midnightblue" stroke="midnightblue" points="301.47,-86.24 302.96,-75.75 295.25,-83.02 301.47,-86.24"/>
</g>
<!-- Node12&#45;&gt;Node3 -->
<g id="edge21" class="edge">
<title>Node12&#45;&gt;Node3</title>
<path fill="none" stroke="midnightblue" d="M318.82,-168.37C327.91,-154.84 342.15,-128.46 328.5,-112 302.6,-80.76 194.12,-84.16 138.9,-75.93"/>
<polygon fill="midnightblue" stroke="midnightblue" points="139.37,-72.46 128.92,-74.18 138.17,-79.35 139.37,-72.46"/>
</g>
<!-- Node12&#45;&gt;Node4 -->
<g id="edge22" class="edge">
<title>Node12&#45;&gt;Node4</title>
<path fill="none" stroke="midnightblue" d="M333.42,-168.44C355.24,-159.52 389.65,-145.44 414.39,-135.32"/>
<polygon fill="midnightblue" stroke="midnightblue" points="415.75,-138.54 423.68,-131.52 413.1,-132.06 415.75,-138.54"/>
</g>
<!-- Node12&#45;&gt;Node11 -->
<g id="edge23" class="edge">
<title>Node12&#45;&gt;Node11</title>
<path fill="none" stroke="midnightblue" d="M307.05,-168.08C302.49,-160.61 295.83,-149.72 290.21,-140.52"/>
<polygon fill="midnightblue" stroke="midnightblue" points="293.05,-138.46 284.85,-131.75 287.08,-142.11 293.05,-138.46"/>
</g>
<!-- Node13&#45;&gt;Node8 -->
<g id="edge25" class="edge">
<title>Node13&#45;&gt;Node8</title>
<path fill="none" stroke="midnightblue" d="M541.37,-224.47C540.55,-202.35 535.17,-142.72 501.5,-112 489.92,-101.43 397.34,-83.24 344.36,-73.54"/>
<polygon fill="midnightblue" stroke="midnightblue" points="344.8,-70.06 334.33,-71.72 343.55,-76.95 344.8,-70.06"/>
</g>
<!-- Node14&#45;&gt;Node4 -->
<g id="edge30" class="edge">
<title>Node14&#45;&gt;Node4</title>
<path fill="none" stroke="midnightblue" d="M393.82,-224.37C402.81,-206.38 423.72,-164.55 435.69,-140.63"/>
<polygon fill="midnightblue" stroke="midnightblue" points="438.86,-142.1 440.2,-131.59 432.6,-138.97 438.86,-142.1"/>
</g>
<!-- Node14&#45;&gt;Node8 -->
<g id="edge27" class="edge">
<title>Node14&#45;&gt;Node8</title>
<path fill="none" stroke="midnightblue" d="M405.59,-224.37C440.48,-204.55 517.37,-154.27 484.5,-112 475.82,-100.84 393.36,-83.39 344.11,-73.83"/>
<polygon fill="midnightblue" stroke="midnightblue" points="344.62,-70.37 334.14,-71.92 343.3,-77.24 344.62,-70.37"/>
</g>
<!-- Node14&#45;&gt;Node9 -->
<g id="edge28" class="edge">
<title>Node14&#45;&gt;Node9</title>
<path fill="none" stroke="midnightblue" d="M388.88,-224.21C386.83,-201.99 378.31,-143.11 344.5,-112 319.43,-88.92 282.95,-77.66 252.25,-72.17"/>
<polygon fill="midnightblue" stroke="midnightblue" points="252.51,-68.66 242.08,-70.52 251.39,-75.57 252.51,-68.66"/>
</g>
<!-- Node14&#45;&gt;Node12 -->
<g id="edge29" class="edge">
<title>Node14&#45;&gt;Node12</title>
<path fill="none" stroke="midnightblue" d="M377.13,-224.32C365.34,-216.06 347.37,-203.45 333.36,-193.63"/>
<polygon fill="midnightblue" stroke="midnightblue" points="335.04,-190.53 324.84,-187.65 331.02,-196.26 335.04,-190.53"/>
</g>
</g>
</svg>
