<?xml version="1.0" encoding="UTF-8" standalone="no"?>
<!DOCTYPE svg PUBLIC "-//W3C//DTD SVG 1.1//EN"
 "http://www.w3.org/Graphics/SVG/1.1/DTD/svg11.dtd">
<!-- Generated by graphviz version 2.43.0 (0)
 -->
<!-- Title: os_scheduler.c Pages: 1 -->
<svg width="619pt" height="308pt"
 viewBox="0.00 0.00 619.00 308.00" xmlns="http://www.w3.org/2000/svg" xmlns:xlink="http://www.w3.org/1999/xlink">
<g id="graph0" class="graph" transform="scale(1 1) rotate(0) translate(4 304)">
<title>os_scheduler.c</title>
<polygon fill="white" stroke="transparent" points="-4,4 -4,-304 615,-304 615,4 -4,4"/>
<!-- Node1 -->
<g id="node1" class="node">
<title>Node1</title>
<g id="a_node1"><a xlink:title=" ">
<polygon fill="#bfbfbf" stroke="black" points="332.5,-280.5 332.5,-299.5 420.5,-299.5 420.5,-280.5 332.5,-280.5"/>
<text text-anchor="middle" x="376.5" y="-287.5" font-family="FreeSans" font-size="10.00">os_scheduler.c</text>
</a>
</g>
</g>
<!-- Node2 -->
<g id="node2" class="node">
<title>Node2</title>
<g id="a_node2"><a xlink:href="os__scheduler_8h.html" target="_top" xlink:title="Scheduling module for the OS.">
<polygon fill="white" stroke="black" points="175,-168.5 175,-187.5 264,-187.5 264,-168.5 175,-168.5"/>
<text text-anchor="middle" x="219.5" y="-175.5" font-family="FreeSans" font-size="10.00">os_scheduler.h</text>
</a>
</g>
</g>
<!-- Node1&#45;&gt;Node2 -->
<g id="edge1" class="edge">
<title>Node1&#45;&gt;Node2</title>
<path fill="none" stroke="midnightblue" d="M332.23,-284.53C282.91,-278.53 207.81,-266 190.5,-244 178.87,-229.23 191.31,-209.05 203.31,-195.12"/>
<polygon fill="midnightblue" stroke="midnightblue" points="205.93,-197.44 210.15,-187.72 200.79,-192.69 205.93,-197.44"/>
</g>
<!-- Node3 -->
<g id="node3" class="node">
<title>Node3</title>
<g id="a_node3"><a xlink:title=" ">
<polygon fill="white" stroke="#bfbfbf" points="142.5,-56.5 142.5,-75.5 204.5,-75.5 204.5,-56.5 142.5,-56.5"/>
<text text-anchor="middle" x="173.5" y="-63.5" font-family="FreeSans" font-size="10.00">stdbool.h</text>
</a>
</g>
</g>
<!-- Node1&#45;&gt;Node3 -->
<g id="edge29" class="edge">
<title>Node1&#45;&gt;Node3</title>
<path fill="none" stroke="midnightblue" d="M332.35,-283.91C282.01,-277.25 203.9,-264.02 182.5,-244 138.72,-203.05 156.37,-121.9 167.3,-85.47"/>
<polygon fill="midnightblue" stroke="midnightblue" points="170.71,-86.28 170.4,-75.69 164.04,-84.16 170.71,-86.28"/>
</g>
<!-- Node9 -->
<g id="node9" class="node">
<title>Node9</title>
<g id="a_node9"><a xlink:href="util_8h.html" target="_top" xlink:title="Little helpers that don&#39;t fit elsewhere.">
<polygon fill="white" stroke="black" points="396,-112.5 396,-131.5 437,-131.5 437,-112.5 396,-112.5"/>
<text text-anchor="middle" x="416.5" y="-119.5" font-family="FreeSans" font-size="10.00">util.h</text>
</a>
</g>
</g>
<!-- Node1&#45;&gt;Node9 -->
<g id="edge9" class="edge">
<title>Node1&#45;&gt;Node9</title>
<path fill="none" stroke="midnightblue" d="M377.03,-280.31C378.43,-260.16 383.02,-208.88 395.5,-168 398.36,-158.62 402.83,-148.69 406.91,-140.55"/>
<polygon fill="midnightblue" stroke="midnightblue" points="410.02,-142.16 411.55,-131.67 403.82,-138.91 410.02,-142.16"/>
</g>
<!-- Node11 -->
<g id="node11" class="node">
<title>Node11</title>
<g id="a_node11"><a xlink:href="os__input_8h.html" target="_top" xlink:title="Input library for the OS.">
<polygon fill="white" stroke="black" points="463,-168.5 463,-187.5 530,-187.5 530,-168.5 463,-168.5"/>
<text text-anchor="middle" x="496.5" y="-175.5" font-family="FreeSans" font-size="10.00">os_input.h</text>
</a>
</g>
</g>
<!-- Node1&#45;&gt;Node11 -->
<g id="edge13" class="edge">
<title>Node1&#45;&gt;Node11</title>
<path fill="none" stroke="midnightblue" d="M385.92,-280.37C406.16,-261.81 454.05,-217.91 479.66,-194.44"/>
<polygon fill="midnightblue" stroke="midnightblue" points="482.12,-196.93 487.13,-187.59 477.39,-191.77 482.12,-196.93"/>
</g>
<!-- Node12 -->
<g id="node12" class="node">
<title>Node12</title>
<g id="a_node12"><a xlink:href="os__scheduling__strategies_8h.html" target="_top" xlink:title="Scheduling library for the OS.">
<polygon fill="white" stroke="black" points="200,-224.5 200,-243.5 349,-243.5 349,-224.5 200,-224.5"/>
<text text-anchor="middle" x="274.5" y="-231.5" font-family="FreeSans" font-size="10.00">os_scheduling_strategies.h</text>
</a>
</g>
</g>
<!-- Node1&#45;&gt;Node12 -->
<g id="edge15" class="edge">
<title>Node1&#45;&gt;Node12</title>
<path fill="none" stroke="midnightblue" d="M360.11,-280.32C343.83,-271.7 318.63,-258.36 299.78,-248.39"/>
<polygon fill="midnightblue" stroke="midnightblue" points="301.32,-245.24 290.85,-243.65 298.05,-251.43 301.32,-245.24"/>
</g>
<!-- Node13 -->
<g id="node13" class="node">
<title>Node13</title>
<g id="a_node13"><a xlink:href="os__taskman_8h.html" target="_top" xlink:title="TaskManager library for the OS.">
<polygon fill="white" stroke="black" points="0,-224.5 0,-243.5 85,-243.5 85,-224.5 0,-224.5"/>
<text text-anchor="middle" x="42.5" y="-231.5" font-family="FreeSans" font-size="10.00">os_taskman.h</text>
</a>
</g>
</g>
<!-- Node1&#45;&gt;Node13 -->
<g id="edge18" class="edge">
<title>Node1&#45;&gt;Node13</title>
<path fill="none" stroke="midnightblue" d="M332.49,-281.88C271.29,-271.99 160.63,-254.1 95.13,-243.51"/>
<polygon fill="midnightblue" stroke="midnightblue" points="95.45,-240.02 85.02,-241.87 94.33,-246.93 95.45,-240.02"/>
</g>
<!-- Node14 -->
<g id="node14" class="node">
<title>Node14</title>
<g id="a_node14"><a xlink:href="os__core_8h.html" target="_top" xlink:title="Core of the OS.">
<polygon fill="white" stroke="black" points="548,-168.5 548,-187.5 611,-187.5 611,-168.5 548,-168.5"/>
<text text-anchor="middle" x="579.5" y="-175.5" font-family="FreeSans" font-size="10.00">os_core.h</text>
</a>
</g>
</g>
<!-- Node1&#45;&gt;Node14 -->
<g id="edge20" class="edge">
<title>Node1&#45;&gt;Node14</title>
<path fill="none" stroke="midnightblue" d="M392.43,-280.37C427.71,-261.25 512.64,-215.23 554.84,-192.36"/>
<polygon fill="midnightblue" stroke="midnightblue" points="556.52,-195.43 563.64,-187.59 553.19,-189.28 556.52,-195.43"/>
</g>
<!-- Node15 -->
<g id="node15" class="node">
<title>Node15</title>
<g id="a_node15"><a xlink:href="lcd_8h.html" target="_top" xlink:title="Library for LCD use.">
<polygon fill="white" stroke="black" points="404.5,-168.5 404.5,-187.5 444.5,-187.5 444.5,-168.5 404.5,-168.5"/>
<text text-anchor="middle" x="424.5" y="-175.5" font-family="FreeSans" font-size="10.00">lcd.h</text>
</a>
</g>
</g>
<!-- Node1&#45;&gt;Node15 -->
<g id="edge22" class="edge">
<title>Node1&#45;&gt;Node15</title>
<path fill="none" stroke="midnightblue" d="M380.27,-280.37C388.08,-262.46 406.21,-220.92 416.67,-196.95"/>
<polygon fill="midnightblue" stroke="midnightblue" points="419.96,-198.16 420.75,-187.59 413.54,-195.36 419.96,-198.16"/>
</g>
<!-- Node16 -->
<g id="node16" class="node">
<title>Node16</title>
<g id="a_node16"><a xlink:title=" ">
<polygon fill="white" stroke="#bfbfbf" points="518.5,-224.5 518.5,-243.5 604.5,-243.5 604.5,-224.5 518.5,-224.5"/>
<text text-anchor="middle" x="561.5" y="-231.5" font-family="FreeSans" font-size="10.00">avr/interrupt.h</text>
</a>
</g>
</g>
<!-- Node1&#45;&gt;Node16 -->
<g id="edge28" class="edge">
<title>Node1&#45;&gt;Node16</title>
<path fill="none" stroke="midnightblue" d="M405.81,-280.44C437.34,-271.24 487.63,-256.56 522.49,-246.39"/>
<polygon fill="midnightblue" stroke="midnightblue" points="523.7,-249.68 532.32,-243.52 521.74,-242.96 523.7,-249.68"/>
</g>
<!-- Node2&#45;&gt;Node3 -->
<g id="edge2" class="edge">
<title>Node2&#45;&gt;Node3</title>
<path fill="none" stroke="midnightblue" d="M204.84,-168.4C193.09,-160.58 177.47,-147.86 170.5,-132 164.11,-117.46 165.65,-99.28 168.33,-85.84"/>
<polygon fill="midnightblue" stroke="midnightblue" points="171.79,-86.4 170.7,-75.86 164.98,-84.78 171.79,-86.4"/>
</g>
<!-- Node4 -->
<g id="node4" class="node">
<title>Node4</title>
<g id="a_node4"><a xlink:href="defines_8h.html" target="_top" xlink:title="Simple definitions and assembler&#45;macros, mostly 8/16&#45;Bit values.">
<polygon fill="white" stroke="black" points="278,-112.5 278,-131.5 339,-131.5 339,-112.5 278,-112.5"/>
<text text-anchor="middle" x="308.5" y="-119.5" font-family="FreeSans" font-size="10.00">defines.h</text>
</a>
</g>
</g>
<!-- Node2&#45;&gt;Node4 -->
<g id="edge3" class="edge">
<title>Node2&#45;&gt;Node4</title>
<path fill="none" stroke="midnightblue" d="M233.8,-168.32C247.68,-159.9 268.99,-146.97 285.3,-137.07"/>
<polygon fill="midnightblue" stroke="midnightblue" points="287.5,-139.83 294.24,-131.65 283.87,-133.85 287.5,-139.83"/>
</g>
<!-- Node7 -->
<g id="node7" class="node">
<title>Node7</title>
<g id="a_node7"><a xlink:href="os__process_8h.html" target="_top" xlink:title="Struct specifying a process.">
<polygon fill="white" stroke="black" points="179.5,-112.5 179.5,-131.5 259.5,-131.5 259.5,-112.5 179.5,-112.5"/>
<text text-anchor="middle" x="219.5" y="-119.5" font-family="FreeSans" font-size="10.00">os_process.h</text>
</a>
</g>
</g>
<!-- Node2&#45;&gt;Node7 -->
<g id="edge6" class="edge">
<title>Node2&#45;&gt;Node7</title>
<path fill="none" stroke="midnightblue" d="M219.5,-168.08C219.5,-161.01 219.5,-150.86 219.5,-141.99"/>
<polygon fill="midnightblue" stroke="midnightblue" points="223,-141.75 219.5,-131.75 216,-141.75 223,-141.75"/>
</g>
<!-- Node5 -->
<g id="node5" class="node">
<title>Node5</title>
<g id="a_node5"><a xlink:href="atmega644constants_8h.html" target="_top" xlink:title="Constants for ATMega644 and EVA board. Defines several useful constants for the ATMega644.">
<polygon fill="white" stroke="black" points="244.5,-56.5 244.5,-75.5 372.5,-75.5 372.5,-56.5 244.5,-56.5"/>
<text text-anchor="middle" x="308.5" y="-63.5" font-family="FreeSans" font-size="10.00">atmega644constants.h</text>
</a>
</g>
</g>
<!-- Node4&#45;&gt;Node5 -->
<g id="edge4" class="edge">
<title>Node4&#45;&gt;Node5</title>
<path fill="none" stroke="midnightblue" d="M308.5,-112.08C308.5,-105.01 308.5,-94.86 308.5,-85.99"/>
<polygon fill="midnightblue" stroke="midnightblue" points="312,-85.75 308.5,-75.75 305,-85.75 312,-85.75"/>
</g>
<!-- Node6 -->
<g id="node6" class="node">
<title>Node6</title>
<g id="a_node6"><a xlink:title=" ">
<polygon fill="white" stroke="#bfbfbf" points="282,-0.5 282,-19.5 335,-19.5 335,-0.5 282,-0.5"/>
<text text-anchor="middle" x="308.5" y="-7.5" font-family="FreeSans" font-size="10.00">avr/io.h</text>
</a>
</g>
</g>
<!-- Node5&#45;&gt;Node6 -->
<g id="edge5" class="edge">
<title>Node5&#45;&gt;Node6</title>
<path fill="none" stroke="midnightblue" d="M308.5,-56.08C308.5,-49.01 308.5,-38.86 308.5,-29.99"/>
<polygon fill="midnightblue" stroke="midnightblue" points="312,-29.75 308.5,-19.75 305,-29.75 312,-29.75"/>
</g>
<!-- Node7&#45;&gt;Node3 -->
<g id="edge8" class="edge">
<title>Node7&#45;&gt;Node3</title>
<path fill="none" stroke="midnightblue" d="M211.9,-112.08C205.27,-104.3 195.48,-92.8 187.44,-83.37"/>
<polygon fill="midnightblue" stroke="midnightblue" points="190.1,-81.09 180.95,-75.75 184.77,-85.63 190.1,-81.09"/>
</g>
<!-- Node8 -->
<g id="node8" class="node">
<title>Node8</title>
<g id="a_node8"><a xlink:title=" ">
<polygon fill="white" stroke="#bfbfbf" points="407,-56.5 407,-75.5 460,-75.5 460,-56.5 407,-56.5"/>
<text text-anchor="middle" x="433.5" y="-63.5" font-family="FreeSans" font-size="10.00">stdint.h</text>
</a>
</g>
</g>
<!-- Node7&#45;&gt;Node8 -->
<g id="edge7" class="edge">
<title>Node7&#45;&gt;Node8</title>
<path fill="none" stroke="midnightblue" d="M253.41,-112.44C292.55,-102.57 356.68,-86.38 396.92,-76.23"/>
<polygon fill="midnightblue" stroke="midnightblue" points="398.01,-79.57 406.85,-73.73 396.3,-72.78 398.01,-79.57"/>
</g>
<!-- Node9&#45;&gt;Node3 -->
<g id="edge11" class="edge">
<title>Node9&#45;&gt;Node3</title>
<path fill="none" stroke="midnightblue" d="M395.8,-115.54C391.11,-114.34 386.14,-113.1 381.5,-112 323.71,-98.32 256.48,-84.08 214.46,-75.37"/>
<polygon fill="midnightblue" stroke="midnightblue" points="215.1,-71.93 204.6,-73.34 213.68,-78.79 215.1,-71.93"/>
</g>
<!-- Node9&#45;&gt;Node8 -->
<g id="edge10" class="edge">
<title>Node9&#45;&gt;Node8</title>
<path fill="none" stroke="midnightblue" d="M419.31,-112.08C421.58,-104.85 424.87,-94.41 427.71,-85.4"/>
<polygon fill="midnightblue" stroke="midnightblue" points="431.08,-86.34 430.75,-75.75 424.4,-84.24 431.08,-86.34"/>
</g>
<!-- Node10 -->
<g id="node10" class="node">
<title>Node10</title>
<g id="a_node10"><a xlink:title=" ">
<polygon fill="white" stroke="#bfbfbf" points="494,-56.5 494,-75.5 589,-75.5 589,-56.5 494,-56.5"/>
<text text-anchor="middle" x="541.5" y="-63.5" font-family="FreeSans" font-size="10.00">avr/pgmspace.h</text>
</a>
</g>
</g>
<!-- Node9&#45;&gt;Node10 -->
<g id="edge12" class="edge">
<title>Node9&#45;&gt;Node10</title>
<path fill="none" stroke="midnightblue" d="M436.31,-112.44C456.79,-103.6 488.98,-89.69 512.36,-79.59"/>
<polygon fill="midnightblue" stroke="midnightblue" points="513.99,-82.7 521.79,-75.52 511.22,-76.27 513.99,-82.7"/>
</g>
<!-- Node11&#45;&gt;Node8 -->
<g id="edge14" class="edge">
<title>Node11&#45;&gt;Node8</title>
<path fill="none" stroke="midnightblue" d="M491.71,-168.11C484.89,-155.55 471.97,-131.89 460.5,-112 455.2,-102.81 449.14,-92.67 444.1,-84.35"/>
<polygon fill="midnightblue" stroke="midnightblue" points="446.95,-82.3 438.77,-75.57 440.97,-85.94 446.95,-82.3"/>
</g>
<!-- Node12&#45;&gt;Node2 -->
<g id="edge16" class="edge">
<title>Node12&#45;&gt;Node2</title>
<path fill="none" stroke="midnightblue" d="M265.42,-224.08C257.33,-216.14 245.3,-204.34 235.59,-194.8"/>
<polygon fill="midnightblue" stroke="midnightblue" points="238,-192.26 228.41,-187.75 233.1,-197.25 238,-192.26"/>
</g>
<!-- Node12&#45;&gt;Node4 -->
<g id="edge17" class="edge">
<title>Node12&#45;&gt;Node4</title>
<path fill="none" stroke="midnightblue" d="M277.17,-224.37C282.68,-206.54 295.43,-165.3 302.85,-141.27"/>
<polygon fill="midnightblue" stroke="midnightblue" points="306.24,-142.18 305.84,-131.59 299.55,-140.11 306.24,-142.18"/>
</g>
<!-- Node13&#45;&gt;Node3 -->
<g id="edge19" class="edge">
<title>Node13&#45;&gt;Node3</title>
<path fill="none" stroke="midnightblue" d="M44.68,-224.41C50.44,-203.15 67.83,-147.23 99.5,-112 111.62,-98.52 128.74,-87.75 143.46,-80.14"/>
<polygon fill="midnightblue" stroke="midnightblue" points="145.29,-83.14 152.72,-75.59 142.2,-76.86 145.29,-83.14"/>
</g>
<!-- Node14&#45;&gt;Node10 -->
<g id="edge21" class="edge">
<title>Node14&#45;&gt;Node10</title>
<path fill="none" stroke="midnightblue" d="M576.52,-168.37C570.36,-150.54 556.11,-109.3 547.81,-85.27"/>
<polygon fill="midnightblue" stroke="midnightblue" points="551.04,-83.9 544.47,-75.59 544.43,-86.19 551.04,-83.9"/>
</g>
<!-- Node15&#45;&gt;Node3 -->
<g id="edge23" class="edge">
<title>Node15&#45;&gt;Node3</title>
<path fill="none" stroke="midnightblue" d="M416.86,-168.43C403.96,-154.48 376.41,-126.94 347.5,-112 305.12,-90.09 251.29,-78.3 214.81,-72.36"/>
<polygon fill="midnightblue" stroke="midnightblue" points="214.96,-68.84 204.54,-70.76 213.88,-75.76 214.96,-68.84"/>
</g>
<!-- Node15&#45;&gt;Node4 -->
<g id="edge26" class="edge">
<title>Node15&#45;&gt;Node4</title>
<path fill="none" stroke="midnightblue" d="M406.12,-168.44C387.28,-159.68 357.77,-145.94 336.12,-135.86"/>
<polygon fill="midnightblue" stroke="midnightblue" points="337.34,-132.56 326.79,-131.52 334.38,-138.91 337.34,-132.56"/>
</g>
<!-- Node15&#45;&gt;Node8 -->
<g id="edge24" class="edge">
<title>Node15&#45;&gt;Node8</title>
<path fill="none" stroke="midnightblue" d="M430.14,-168.48C435.55,-159.74 443.36,-145.56 446.5,-132 450.11,-116.41 445.96,-98.58 441.42,-85.54"/>
<polygon fill="midnightblue" stroke="midnightblue" points="444.55,-83.93 437.67,-75.87 438.02,-86.46 444.55,-83.93"/>
</g>
<!-- Node15&#45;&gt;Node9 -->
<g id="edge27" class="edge">
<title>Node15&#45;&gt;Node9</title>
<path fill="none" stroke="midnightblue" d="M423.18,-168.08C422.12,-160.93 420.59,-150.64 419.27,-141.69"/>
<polygon fill="midnightblue" stroke="midnightblue" points="422.72,-141.13 417.8,-131.75 415.8,-142.16 422.72,-141.13"/>
</g>
<!-- Node15&#45;&gt;Node10 -->
<g id="edge25" class="edge">
<title>Node15&#45;&gt;Node10</title>
<path fill="none" stroke="midnightblue" d="M433.68,-168.37C453.33,-149.89 499.71,-106.29 524.75,-82.74"/>
<polygon fill="midnightblue" stroke="midnightblue" points="527.47,-84.99 532.36,-75.59 522.68,-79.89 527.47,-84.99"/>
</g>
</g>
</svg>
