<?xml version="1.0" encoding="UTF-8" standalone="no"?>
<!DOCTYPE svg PUBLIC "-//W3C//DTD SVG 1.1//EN"
 "http://www.w3.org/Graphics/SVG/1.1/DTD/svg11.dtd">
<!-- Generated by graphviz version 2.43.0 (0)
 -->
<!-- Title: os_core.h Pages: 1 -->
<svg width="236pt" height="84pt"
 viewBox="0.00 0.00 235.50 84.00" xmlns="http://www.w3.org/2000/svg" xmlns:xlink="http://www.w3.org/1999/xlink">
<g id="graph0" class="graph" transform="scale(1 1) rotate(0) translate(4 80)">
<title>os_core.h</title>
<polygon fill="white" stroke="transparent" points="-4,4 -4,-80 231.5,-80 231.5,4 -4,4"/>
<!-- Node1 -->
<g id="node1" class="node">
<title>Node1</title>
<g id="a_node1"><a xlink:title="Core of the OS.">
<polygon fill="#bfbfbf" stroke="black" points="92.5,-56.5 92.5,-75.5 155.5,-75.5 155.5,-56.5 92.5,-56.5"/>
<text text-anchor="middle" x="124" y="-63.5" font-family="FreeSans" font-size="10.00">os_core.h</text>
</a>
</g>
</g>
<!-- Node2 -->
<g id="node2" class="node">
<title>Node2</title>
<g id="a_node2"><a xlink:href="os__core_8c.html" target="_top" xlink:title=" ">
<polygon fill="white" stroke="black" points="0,-0.5 0,-19.5 62,-19.5 62,-0.5 0,-0.5"/>
<text text-anchor="middle" x="31" y="-7.5" font-family="FreeSans" font-size="10.00">os_core.c</text>
</a>
</g>
</g>
<!-- Node1&#45;&gt;Node2 -->
<g id="edge1" class="edge">
<title>Node1&#45;&gt;Node2</title>
<path fill="none" stroke="midnightblue" d="M100.19,-51.18C83.08,-41.24 60.53,-28.15 45.9,-19.65"/>
<polygon fill="midnightblue" stroke="midnightblue" points="98.65,-54.33 109.06,-56.32 102.17,-48.28 98.65,-54.33"/>
</g>
<!-- Node3 -->
<g id="node3" class="node">
<title>Node3</title>
<g id="a_node3"><a xlink:href="os__scheduler_8c.html" target="_top" xlink:title=" ">
<polygon fill="white" stroke="black" points="80,-0.5 80,-19.5 168,-19.5 168,-0.5 80,-0.5"/>
<text text-anchor="middle" x="124" y="-7.5" font-family="FreeSans" font-size="10.00">os_scheduler.c</text>
</a>
</g>
</g>
<!-- Node1&#45;&gt;Node3 -->
<g id="edge2" class="edge">
<title>Node1&#45;&gt;Node3</title>
<path fill="none" stroke="midnightblue" d="M124,-45.8C124,-36.91 124,-26.78 124,-19.75"/>
<polygon fill="midnightblue" stroke="midnightblue" points="120.5,-46.08 124,-56.08 127.5,-46.08 120.5,-46.08"/>
</g>
<!-- Node4 -->
<g id="node4" class="node">
<title>Node4</title>
<g id="a_node4"><a xlink:href="util_8c.html" target="_top" xlink:title=" ">
<polygon fill="white" stroke="black" points="186.5,-0.5 186.5,-19.5 227.5,-19.5 227.5,-0.5 186.5,-0.5"/>
<text text-anchor="middle" x="207" y="-7.5" font-family="FreeSans" font-size="10.00">util.c</text>
</a>
</g>
</g>
<!-- Node1&#45;&gt;Node4 -->
<g id="edge3" class="edge">
<title>Node1&#45;&gt;Node4</title>
<path fill="none" stroke="midnightblue" d="M146.1,-50.62C161.26,-40.76 180.88,-27.99 193.7,-19.65"/>
<polygon fill="midnightblue" stroke="midnightblue" points="143.81,-47.94 137.34,-56.32 147.63,-53.8 143.81,-47.94"/>
</g>
</g>
</svg>
