<?xml version="1.0" encoding="UTF-8" standalone="no"?>
<!DOCTYPE svg PUBLIC "-//W3C//DTD SVG 1.1//EN"
 "http://www.w3.org/Graphics/SVG/1.1/DTD/svg11.dtd">
<!-- Generated by graphviz version 2.43.0 (0)
 -->
<!-- Title: os_scheduling_strategies.c Pages: 1 -->
<svg width="301pt" height="308pt"
 viewBox="0.00 0.00 300.50 308.00" xmlns="http://www.w3.org/2000/svg" xmlns:xlink="http://www.w3.org/1999/xlink">
<g id="graph0" class="graph" transform="scale(1 1) rotate(0) translate(4 304)">
<title>os_scheduling_strategies.c</title>
<polygon fill="white" stroke="transparent" points="-4,4 -4,-304 296.5,-304 296.5,4 -4,4"/>
<!-- Node1 -->
<g id="node1" class="node">
<title>Node1</title>
<g id="a_node1"><a xlink:title=" ">
<polygon fill="#bfbfbf" stroke="black" points="86,-280.5 86,-299.5 234,-299.5 234,-280.5 86,-280.5"/>
<text text-anchor="middle" x="160" y="-287.5" font-family="FreeSans" font-size="10.00">os_scheduling_strategies.c</text>
</a>
</g>
</g>
<!-- Node2 -->
<g id="node2" class="node">
<title>Node2</title>
<g id="a_node2"><a xlink:href="os__scheduling__strategies_8h.html" target="_top" xlink:title="Scheduling library for the OS.">
<polygon fill="white" stroke="black" points="34.5,-224.5 34.5,-243.5 183.5,-243.5 183.5,-224.5 34.5,-224.5"/>
<text text-anchor="middle" x="109" y="-231.5" font-family="FreeSans" font-size="10.00">os_scheduling_strategies.h</text>
</a>
</g>
</g>
<!-- Node1&#45;&gt;Node2 -->
<g id="edge1" class="edge">
<title>Node1&#45;&gt;Node2</title>
<path fill="none" stroke="midnightblue" d="M151.58,-280.08C144.15,-272.22 133.15,-260.57 124.19,-251.08"/>
<polygon fill="midnightblue" stroke="midnightblue" points="126.68,-248.62 117.26,-243.75 121.59,-253.42 126.68,-248.62"/>
</g>
<!-- Node4 -->
<g id="node4" class="node">
<title>Node4</title>
<g id="a_node4"><a xlink:title=" ">
<polygon fill="white" stroke="#bfbfbf" points="0,-56.5 0,-75.5 62,-75.5 62,-56.5 0,-56.5"/>
<text text-anchor="middle" x="31" y="-63.5" font-family="FreeSans" font-size="10.00">stdbool.h</text>
</a>
</g>
</g>
<!-- Node1&#45;&gt;Node4 -->
<g id="edge12" class="edge">
<title>Node1&#45;&gt;Node4</title>
<path fill="none" stroke="midnightblue" d="M85.74,-281.28C62.49,-274.95 39.23,-263.74 25,-244 -9.55,-196.06 11.16,-120.34 23.63,-85.57"/>
<polygon fill="midnightblue" stroke="midnightblue" points="27.06,-86.4 27.31,-75.81 20.51,-83.93 27.06,-86.4"/>
</g>
<!-- Node5 -->
<g id="node5" class="node">
<title>Node5</title>
<g id="a_node5"><a xlink:href="defines_8h.html" target="_top" xlink:title="Simple definitions and assembler&#45;macros, mostly 8/16&#45;Bit values.">
<polygon fill="white" stroke="black" points="179.5,-112.5 179.5,-131.5 240.5,-131.5 240.5,-112.5 179.5,-112.5"/>
<text text-anchor="middle" x="210" y="-119.5" font-family="FreeSans" font-size="10.00">defines.h</text>
</a>
</g>
</g>
<!-- Node1&#45;&gt;Node5 -->
<g id="edge11" class="edge">
<title>Node1&#45;&gt;Node5</title>
<path fill="none" stroke="midnightblue" d="M167.99,-280.44C175.48,-271.9 186.34,-258.05 192,-244 205.84,-209.65 209.18,-165.95 209.9,-141.58"/>
<polygon fill="midnightblue" stroke="midnightblue" points="213.4,-141.63 210.07,-131.57 206.4,-141.5 213.4,-141.63"/>
</g>
<!-- Node10 -->
<g id="node10" class="node">
<title>Node10</title>
<g id="a_node10"><a xlink:title=" ">
<polygon fill="white" stroke="#bfbfbf" points="239.5,-224.5 239.5,-243.5 292.5,-243.5 292.5,-224.5 239.5,-224.5"/>
<text text-anchor="middle" x="266" y="-231.5" font-family="FreeSans" font-size="10.00">stdlib.h</text>
</a>
</g>
</g>
<!-- Node1&#45;&gt;Node10 -->
<g id="edge13" class="edge">
<title>Node1&#45;&gt;Node10</title>
<path fill="none" stroke="midnightblue" d="M177.03,-280.32C194.03,-271.66 220.38,-258.24 239.99,-248.25"/>
<polygon fill="midnightblue" stroke="midnightblue" points="241.69,-251.31 249.01,-243.65 238.51,-245.08 241.69,-251.31"/>
</g>
<!-- Node3 -->
<g id="node3" class="node">
<title>Node3</title>
<g id="a_node3"><a xlink:href="os__scheduler_8h.html" target="_top" xlink:title="Scheduling module for the OS.">
<polygon fill="white" stroke="black" points="55.5,-168.5 55.5,-187.5 144.5,-187.5 144.5,-168.5 55.5,-168.5"/>
<text text-anchor="middle" x="100" y="-175.5" font-family="FreeSans" font-size="10.00">os_scheduler.h</text>
</a>
</g>
</g>
<!-- Node2&#45;&gt;Node3 -->
<g id="edge2" class="edge">
<title>Node2&#45;&gt;Node3</title>
<path fill="none" stroke="midnightblue" d="M107.51,-224.08C106.32,-216.93 104.61,-206.64 103.12,-197.69"/>
<polygon fill="midnightblue" stroke="midnightblue" points="106.55,-197.04 101.46,-187.75 99.65,-198.19 106.55,-197.04"/>
</g>
<!-- Node2&#45;&gt;Node5 -->
<g id="edge10" class="edge">
<title>Node2&#45;&gt;Node5</title>
<path fill="none" stroke="midnightblue" d="M117.91,-224.17C126.9,-215.2 141.12,-200.83 153,-188 168.06,-171.74 184.71,-152.61 196.1,-139.34"/>
<polygon fill="midnightblue" stroke="midnightblue" points="198.93,-141.42 202.77,-131.54 193.61,-136.87 198.93,-141.42"/>
</g>
<!-- Node3&#45;&gt;Node4 -->
<g id="edge3" class="edge">
<title>Node3&#45;&gt;Node4</title>
<path fill="none" stroke="midnightblue" d="M89.91,-168.18C80.65,-159.66 67.03,-146.01 58,-132 48.6,-117.41 41.32,-99 36.7,-85.5"/>
<polygon fill="midnightblue" stroke="midnightblue" points="40,-84.32 33.58,-75.9 33.34,-86.49 40,-84.32"/>
</g>
<!-- Node3&#45;&gt;Node5 -->
<g id="edge4" class="edge">
<title>Node3&#45;&gt;Node5</title>
<path fill="none" stroke="midnightblue" d="M117.67,-168.32C135.39,-159.62 162.9,-146.12 183.29,-136.11"/>
<polygon fill="midnightblue" stroke="midnightblue" points="184.94,-139.2 192.37,-131.65 181.85,-132.92 184.94,-139.2"/>
</g>
<!-- Node8 -->
<g id="node8" class="node">
<title>Node8</title>
<g id="a_node8"><a xlink:href="os__process_8h.html" target="_top" xlink:title="Struct specifying a process.">
<polygon fill="white" stroke="black" points="67,-112.5 67,-131.5 147,-131.5 147,-112.5 67,-112.5"/>
<text text-anchor="middle" x="107" y="-119.5" font-family="FreeSans" font-size="10.00">os_process.h</text>
</a>
</g>
</g>
<!-- Node3&#45;&gt;Node8 -->
<g id="edge7" class="edge">
<title>Node3&#45;&gt;Node8</title>
<path fill="none" stroke="midnightblue" d="M101.16,-168.08C102.08,-160.93 103.42,-150.64 104.58,-141.69"/>
<polygon fill="midnightblue" stroke="midnightblue" points="108.05,-142.12 105.87,-131.75 101.11,-141.22 108.05,-142.12"/>
</g>
<!-- Node6 -->
<g id="node6" class="node">
<title>Node6</title>
<g id="a_node6"><a xlink:href="atmega644constants_8h.html" target="_top" xlink:title="Constants for ATMega644 and EVA board. Defines several useful constants for the ATMega644.">
<polygon fill="white" stroke="black" points="152,-56.5 152,-75.5 280,-75.5 280,-56.5 152,-56.5"/>
<text text-anchor="middle" x="216" y="-63.5" font-family="FreeSans" font-size="10.00">atmega644constants.h</text>
</a>
</g>
</g>
<!-- Node5&#45;&gt;Node6 -->
<g id="edge5" class="edge">
<title>Node5&#45;&gt;Node6</title>
<path fill="none" stroke="midnightblue" d="M210.99,-112.08C211.79,-104.93 212.93,-94.64 213.92,-85.69"/>
<polygon fill="midnightblue" stroke="midnightblue" points="217.4,-86.08 215.03,-75.75 210.44,-85.3 217.4,-86.08"/>
</g>
<!-- Node7 -->
<g id="node7" class="node">
<title>Node7</title>
<g id="a_node7"><a xlink:title=" ">
<polygon fill="white" stroke="#bfbfbf" points="189.5,-0.5 189.5,-19.5 242.5,-19.5 242.5,-0.5 189.5,-0.5"/>
<text text-anchor="middle" x="216" y="-7.5" font-family="FreeSans" font-size="10.00">avr/io.h</text>
</a>
</g>
</g>
<!-- Node6&#45;&gt;Node7 -->
<g id="edge6" class="edge">
<title>Node6&#45;&gt;Node7</title>
<path fill="none" stroke="midnightblue" d="M216,-56.08C216,-49.01 216,-38.86 216,-29.99"/>
<polygon fill="midnightblue" stroke="midnightblue" points="219.5,-29.75 216,-19.75 212.5,-29.75 219.5,-29.75"/>
</g>
<!-- Node8&#45;&gt;Node4 -->
<g id="edge9" class="edge">
<title>Node8&#45;&gt;Node4</title>
<path fill="none" stroke="midnightblue" d="M94.79,-112.32C83.22,-104.11 65.62,-91.6 51.84,-81.81"/>
<polygon fill="midnightblue" stroke="midnightblue" points="53.61,-78.77 43.43,-75.83 49.56,-84.48 53.61,-78.77"/>
</g>
<!-- Node9 -->
<g id="node9" class="node">
<title>Node9</title>
<g id="a_node9"><a xlink:title=" ">
<polygon fill="white" stroke="#bfbfbf" points="80.5,-56.5 80.5,-75.5 133.5,-75.5 133.5,-56.5 80.5,-56.5"/>
<text text-anchor="middle" x="107" y="-63.5" font-family="FreeSans" font-size="10.00">stdint.h</text>
</a>
</g>
</g>
<!-- Node8&#45;&gt;Node9 -->
<g id="edge8" class="edge">
<title>Node8&#45;&gt;Node9</title>
<path fill="none" stroke="midnightblue" d="M107,-112.08C107,-105.01 107,-94.86 107,-85.99"/>
<polygon fill="midnightblue" stroke="midnightblue" points="110.5,-85.75 107,-75.75 103.5,-85.75 110.5,-85.75"/>
</g>
</g>
</svg>
