<?xml version="1.0" encoding="UTF-8" standalone="no"?>
<!DOCTYPE svg PUBLIC "-//W3C//DTD SVG 1.1//EN"
 "http://www.w3.org/Graphics/SVG/1.1/DTD/svg11.dtd">
<!-- Generated by graphviz version 2.43.0 (0)
 -->
<!-- Title: util.c Pages: 1 -->
<svg width="581pt" height="252pt"
 viewBox="0.00 0.00 580.50 252.00" xmlns="http://www.w3.org/2000/svg" xmlns:xlink="http://www.w3.org/1999/xlink">
<g id="graph0" class="graph" transform="scale(1 1) rotate(0) translate(4 248)">
<title>util.c</title>
<polygon fill="white" stroke="transparent" points="-4,4 -4,-248 576.5,-248 576.5,4 -4,4"/>
<!-- Node1 -->
<g id="node1" class="node">
<title>Node1</title>
<g id="a_node1"><a xlink:title=" ">
<polygon fill="#bfbfbf" stroke="black" points="288,-224.5 288,-243.5 329,-243.5 329,-224.5 288,-224.5"/>
<text text-anchor="middle" x="308.5" y="-231.5" font-family="FreeSans" font-size="10.00">util.c</text>
</a>
</g>
</g>
<!-- Node2 -->
<g id="node2" class="node">
<title>Node2</title>
<g id="a_node2"><a xlink:href="util_8h.html" target="_top" xlink:title="Little helpers that don&#39;t fit elsewhere.">
<polygon fill="white" stroke="black" points="124,-112.5 124,-131.5 165,-131.5 165,-112.5 124,-112.5"/>
<text text-anchor="middle" x="144.5" y="-119.5" font-family="FreeSans" font-size="10.00">util.h</text>
</a>
</g>
</g>
<!-- Node1&#45;&gt;Node2 -->
<g id="edge1" class="edge">
<title>Node1&#45;&gt;Node2</title>
<path fill="none" stroke="midnightblue" d="M287.78,-229.95C261.11,-225.11 214.5,-213.48 183.5,-188 168.45,-175.63 157.76,-155.82 151.42,-141.32"/>
<polygon fill="midnightblue" stroke="midnightblue" points="154.59,-139.83 147.58,-131.88 148.11,-142.47 154.59,-139.83"/>
</g>
<!-- Node6 -->
<g id="node6" class="node">
<title>Node6</title>
<g id="a_node6"><a xlink:href="atmega644constants_8h.html" target="_top" xlink:title="Constants for ATMega644 and EVA board. Defines several useful constants for the ATMega644.">
<polygon fill="white" stroke="black" points="302.5,-56.5 302.5,-75.5 430.5,-75.5 430.5,-56.5 302.5,-56.5"/>
<text text-anchor="middle" x="366.5" y="-63.5" font-family="FreeSans" font-size="10.00">atmega644constants.h</text>
</a>
</g>
</g>
<!-- Node1&#45;&gt;Node6 -->
<g id="edge5" class="edge">
<title>Node1&#45;&gt;Node6</title>
<path fill="none" stroke="midnightblue" d="M329.22,-226.03C345.87,-219.2 368.12,-207.02 378.5,-188 396.39,-155.24 383.84,-110 374.37,-85.16"/>
<polygon fill="midnightblue" stroke="midnightblue" points="377.48,-83.52 370.47,-75.57 370.99,-86.16 377.48,-83.52"/>
</g>
<!-- Node7 -->
<g id="node7" class="node">
<title>Node7</title>
<g id="a_node7"><a xlink:title=" ">
<polygon fill="white" stroke="#bfbfbf" points="386,-0.5 386,-19.5 439,-19.5 439,-0.5 386,-0.5"/>
<text text-anchor="middle" x="412.5" y="-7.5" font-family="FreeSans" font-size="10.00">avr/io.h</text>
</a>
</g>
</g>
<!-- Node1&#45;&gt;Node7 -->
<g id="edge19" class="edge">
<title>Node1&#45;&gt;Node7</title>
<path fill="none" stroke="midnightblue" d="M329.35,-227.13C349.1,-220.58 378.37,-208.16 396.5,-188 437.75,-142.12 455.97,-115.46 439.5,-56 436.71,-45.92 430.99,-35.83 425.53,-27.77"/>
<polygon fill="midnightblue" stroke="midnightblue" points="428.35,-25.69 419.65,-19.64 422.68,-29.79 428.35,-25.69"/>
</g>
<!-- Node8 -->
<g id="node8" class="node">
<title>Node8</title>
<g id="a_node8"><a xlink:href="defines_8h.html" target="_top" xlink:title="Simple definitions and assembler&#45;macros, mostly 8/16&#45;Bit values.">
<polygon fill="white" stroke="black" points="260,-112.5 260,-131.5 321,-131.5 321,-112.5 260,-112.5"/>
<text text-anchor="middle" x="290.5" y="-119.5" font-family="FreeSans" font-size="10.00">defines.h</text>
</a>
</g>
</g>
<!-- Node1&#45;&gt;Node8 -->
<g id="edge7" class="edge">
<title>Node1&#45;&gt;Node8</title>
<path fill="none" stroke="midnightblue" d="M306.05,-224.44C303.56,-215.44 299.75,-200.83 297.5,-188 294.8,-172.61 292.98,-154.97 291.88,-141.96"/>
<polygon fill="midnightblue" stroke="midnightblue" points="295.36,-141.58 291.08,-131.88 288.38,-142.13 295.36,-141.58"/>
</g>
<!-- Node9 -->
<g id="node9" class="node">
<title>Node9</title>
<g id="a_node9"><a xlink:href="os__core_8h.html" target="_top" xlink:title="Core of the OS.">
<polygon fill="white" stroke="black" points="307,-168.5 307,-187.5 370,-187.5 370,-168.5 307,-168.5"/>
<text text-anchor="middle" x="338.5" y="-175.5" font-family="FreeSans" font-size="10.00">os_core.h</text>
</a>
</g>
</g>
<!-- Node1&#45;&gt;Node9 -->
<g id="edge9" class="edge">
<title>Node1&#45;&gt;Node9</title>
<path fill="none" stroke="midnightblue" d="M313.45,-224.08C317.6,-216.61 323.65,-205.72 328.77,-196.52"/>
<polygon fill="midnightblue" stroke="midnightblue" points="331.84,-198.19 333.64,-187.75 325.72,-194.79 331.84,-198.19"/>
</g>
<!-- Node10 -->
<g id="node10" class="node">
<title>Node10</title>
<g id="a_node10"><a xlink:href="os__input_8h.html" target="_top" xlink:title="Input library for the OS.">
<polygon fill="white" stroke="black" points="0,-112.5 0,-131.5 67,-131.5 67,-112.5 0,-112.5"/>
<text text-anchor="middle" x="33.5" y="-119.5" font-family="FreeSans" font-size="10.00">os_input.h</text>
</a>
</g>
</g>
<!-- Node1&#45;&gt;Node10 -->
<g id="edge11" class="edge">
<title>Node1&#45;&gt;Node10</title>
<path fill="none" stroke="midnightblue" d="M287.96,-227.76C259.53,-220.25 206.79,-205.4 163.5,-188 125.51,-172.73 83.45,-150.7 57.74,-136.62"/>
<polygon fill="midnightblue" stroke="midnightblue" points="59.18,-133.41 48.73,-131.64 55.79,-139.54 59.18,-133.41"/>
</g>
<!-- Node11 -->
<g id="node11" class="node">
<title>Node11</title>
<g id="a_node11"><a xlink:href="lcd_8h.html" target="_top" xlink:title="Library for LCD use.">
<polygon fill="white" stroke="black" points="192.5,-168.5 192.5,-187.5 232.5,-187.5 232.5,-168.5 192.5,-168.5"/>
<text text-anchor="middle" x="212.5" y="-175.5" font-family="FreeSans" font-size="10.00">lcd.h</text>
</a>
</g>
</g>
<!-- Node1&#45;&gt;Node11 -->
<g id="edge13" class="edge">
<title>Node1&#45;&gt;Node11</title>
<path fill="none" stroke="midnightblue" d="M293.08,-224.32C277.96,-215.82 254.68,-202.73 237.03,-192.8"/>
<polygon fill="midnightblue" stroke="midnightblue" points="238.32,-189.51 227.89,-187.65 234.89,-195.61 238.32,-189.51"/>
</g>
<!-- Node12 -->
<g id="node12" class="node">
<title>Node12</title>
<g id="a_node12"><a xlink:title=" ">
<polygon fill="white" stroke="#bfbfbf" points="486.5,-168.5 486.5,-187.5 572.5,-187.5 572.5,-168.5 486.5,-168.5"/>
<text text-anchor="middle" x="529.5" y="-175.5" font-family="FreeSans" font-size="10.00">avr/interrupt.h</text>
</a>
</g>
</g>
<!-- Node1&#45;&gt;Node12 -->
<g id="edge20" class="edge">
<title>Node1&#45;&gt;Node12</title>
<path fill="none" stroke="midnightblue" d="M329.29,-227.92C364.63,-219.29 437.17,-201.56 484.55,-189.98"/>
<polygon fill="midnightblue" stroke="midnightblue" points="485.66,-193.32 494.54,-187.54 484,-186.52 485.66,-193.32"/>
</g>
<!-- Node3 -->
<g id="node3" class="node">
<title>Node3</title>
<g id="a_node3"><a xlink:title=" ">
<polygon fill="white" stroke="#bfbfbf" points="37,-56.5 37,-75.5 90,-75.5 90,-56.5 37,-56.5"/>
<text text-anchor="middle" x="63.5" y="-63.5" font-family="FreeSans" font-size="10.00">stdint.h</text>
</a>
</g>
</g>
<!-- Node2&#45;&gt;Node3 -->
<g id="edge2" class="edge">
<title>Node2&#45;&gt;Node3</title>
<path fill="none" stroke="midnightblue" d="M131.49,-112.32C118.97,-103.98 99.82,-91.21 85.03,-81.35"/>
<polygon fill="midnightblue" stroke="midnightblue" points="86.74,-78.29 76.48,-75.65 82.86,-84.11 86.74,-78.29"/>
</g>
<!-- Node4 -->
<g id="node4" class="node">
<title>Node4</title>
<g id="a_node4"><a xlink:title=" ">
<polygon fill="white" stroke="#bfbfbf" points="108.5,-56.5 108.5,-75.5 170.5,-75.5 170.5,-56.5 108.5,-56.5"/>
<text text-anchor="middle" x="139.5" y="-63.5" font-family="FreeSans" font-size="10.00">stdbool.h</text>
</a>
</g>
</g>
<!-- Node2&#45;&gt;Node4 -->
<g id="edge3" class="edge">
<title>Node2&#45;&gt;Node4</title>
<path fill="none" stroke="midnightblue" d="M143.67,-112.08C143.02,-105.01 142.08,-94.86 141.26,-85.99"/>
<polygon fill="midnightblue" stroke="midnightblue" points="144.72,-85.39 140.31,-75.75 137.75,-86.03 144.72,-85.39"/>
</g>
<!-- Node5 -->
<g id="node5" class="node">
<title>Node5</title>
<g id="a_node5"><a xlink:title=" ">
<polygon fill="white" stroke="#bfbfbf" points="189,-56.5 189,-75.5 284,-75.5 284,-56.5 189,-56.5"/>
<text text-anchor="middle" x="236.5" y="-63.5" font-family="FreeSans" font-size="10.00">avr/pgmspace.h</text>
</a>
</g>
</g>
<!-- Node2&#45;&gt;Node5 -->
<g id="edge4" class="edge">
<title>Node2&#45;&gt;Node5</title>
<path fill="none" stroke="midnightblue" d="M159.28,-112.32C173.77,-103.82 196.07,-90.73 212.99,-80.8"/>
<polygon fill="midnightblue" stroke="midnightblue" points="214.9,-83.74 221.76,-75.65 211.36,-77.7 214.9,-83.74"/>
</g>
<!-- Node6&#45;&gt;Node7 -->
<g id="edge6" class="edge">
<title>Node6&#45;&gt;Node7</title>
<path fill="none" stroke="midnightblue" d="M374.1,-56.08C380.73,-48.3 390.52,-36.8 398.56,-27.37"/>
<polygon fill="midnightblue" stroke="midnightblue" points="401.23,-29.63 405.05,-19.75 395.9,-25.09 401.23,-29.63"/>
</g>
<!-- Node8&#45;&gt;Node6 -->
<g id="edge8" class="edge">
<title>Node8&#45;&gt;Node6</title>
<path fill="none" stroke="midnightblue" d="M302.71,-112.32C314.28,-104.11 331.88,-91.6 345.66,-81.81"/>
<polygon fill="midnightblue" stroke="midnightblue" points="347.94,-84.48 354.07,-75.83 343.89,-78.77 347.94,-84.48"/>
</g>
<!-- Node9&#45;&gt;Node5 -->
<g id="edge10" class="edge">
<title>Node9&#45;&gt;Node5</title>
<path fill="none" stroke="midnightblue" d="M339.69,-168.49C341.09,-155.11 341.83,-128.95 329.5,-112 318.11,-96.33 299.77,-85.88 282.38,-79.02"/>
<polygon fill="midnightblue" stroke="midnightblue" points="283.47,-75.69 272.87,-75.57 281.08,-82.27 283.47,-75.69"/>
</g>
<!-- Node10&#45;&gt;Node3 -->
<g id="edge12" class="edge">
<title>Node10&#45;&gt;Node3</title>
<path fill="none" stroke="midnightblue" d="M38.45,-112.08C42.6,-104.61 48.65,-93.72 53.77,-84.52"/>
<polygon fill="midnightblue" stroke="midnightblue" points="56.84,-86.19 58.64,-75.75 50.72,-82.79 56.84,-86.19"/>
</g>
<!-- Node11&#45;&gt;Node2 -->
<g id="edge18" class="edge">
<title>Node11&#45;&gt;Node2</title>
<path fill="none" stroke="midnightblue" d="M201.57,-168.32C191.33,-160.18 175.78,-147.84 163.5,-138.09"/>
<polygon fill="midnightblue" stroke="midnightblue" points="165.63,-135.31 155.62,-131.83 161.28,-140.79 165.63,-135.31"/>
</g>
<!-- Node11&#45;&gt;Node3 -->
<g id="edge15" class="edge">
<title>Node11&#45;&gt;Node3</title>
<path fill="none" stroke="midnightblue" d="M192.2,-170.85C171.23,-163.82 138.31,-150.79 114.5,-132 97.67,-118.72 83.1,-98.78 73.89,-84.49"/>
<polygon fill="midnightblue" stroke="midnightblue" points="76.66,-82.31 68.42,-75.65 70.71,-86 76.66,-82.31"/>
</g>
<!-- Node11&#45;&gt;Node4 -->
<g id="edge14" class="edge">
<title>Node11&#45;&gt;Node4</title>
<path fill="none" stroke="midnightblue" d="M207.73,-168.41C200.65,-155.79 186.75,-131.63 173.5,-112 167.06,-102.46 159.37,-92.2 152.94,-83.89"/>
<polygon fill="midnightblue" stroke="midnightblue" points="155.49,-81.47 146.56,-75.76 149.98,-85.79 155.49,-81.47"/>
</g>
<!-- Node11&#45;&gt;Node5 -->
<g id="edge16" class="edge">
<title>Node11&#45;&gt;Node5</title>
<path fill="none" stroke="midnightblue" d="M214.38,-168.37C218.26,-150.62 227.19,-109.67 232.44,-85.6"/>
<polygon fill="midnightblue" stroke="midnightblue" points="235.91,-86.11 234.63,-75.59 229.07,-84.62 235.91,-86.11"/>
</g>
<!-- Node11&#45;&gt;Node8 -->
<g id="edge17" class="edge">
<title>Node11&#45;&gt;Node8</title>
<path fill="none" stroke="midnightblue" d="M225.03,-168.32C237.09,-159.98 255.53,-147.21 269.77,-137.35"/>
<polygon fill="midnightblue" stroke="midnightblue" points="271.77,-140.22 278,-131.65 267.78,-134.47 271.77,-140.22"/>
</g>
</g>
</svg>
