<?xml version="1.0" encoding="UTF-8" standalone="no"?>
<!DOCTYPE svg PUBLIC "-//W3C//DTD SVG 1.1//EN"
 "http://www.w3.org/Graphics/SVG/1.1/DTD/svg11.dtd">
<!-- Generated by graphviz version 2.43.0 (0)
 -->
<!-- Title: util.h Pages: 1 -->
<svg width="338pt" height="140pt"
 viewBox="0.00 0.00 337.50 140.00" xmlns="http://www.w3.org/2000/svg" xmlns:xlink="http://www.w3.org/1999/xlink">
<g id="graph0" class="graph" transform="scale(1 1) rotate(0) translate(4 136)">
<title>util.h</title>
<polygon fill="white" stroke="transparent" points="-4,4 -4,-136 333.5,-136 333.5,4 -4,4"/>
<!-- Node1 -->
<g id="node1" class="node">
<title>Node1</title>
<g id="a_node1"><a xlink:title="Little helpers that don&#39;t fit elsewhere.">
<polygon fill="#bfbfbf" stroke="black" points="156.5,-112.5 156.5,-131.5 197.5,-131.5 197.5,-112.5 156.5,-112.5"/>
<text text-anchor="middle" x="177" y="-119.5" font-family="FreeSans" font-size="10.00">util.h</text>
</a>
</g>
</g>
<!-- Node2 -->
<g id="node2" class="node">
<title>Node2</title>
<g id="a_node2"><a xlink:href="lcd_8h.html" target="_top" xlink:title="Library for LCD use.">
<polygon fill="white" stroke="black" points="157,-56.5 157,-75.5 197,-75.5 197,-56.5 157,-56.5"/>
<text text-anchor="middle" x="177" y="-63.5" font-family="FreeSans" font-size="10.00">lcd.h</text>
</a>
</g>
</g>
<!-- Node1&#45;&gt;Node2 -->
<g id="edge1" class="edge">
<title>Node1&#45;&gt;Node2</title>
<path fill="none" stroke="midnightblue" d="M177,-101.8C177,-92.91 177,-82.78 177,-75.75"/>
<polygon fill="midnightblue" stroke="midnightblue" points="173.5,-102.08 177,-112.08 180.5,-102.08 173.5,-102.08"/>
</g>
<!-- Node3 -->
<g id="node3" class="node">
<title>Node3</title>
<g id="a_node3"><a xlink:href="os__core_8c.html" target="_top" xlink:title=" ">
<polygon fill="white" stroke="black" points="0,-0.5 0,-19.5 62,-19.5 62,-0.5 0,-0.5"/>
<text text-anchor="middle" x="31" y="-7.5" font-family="FreeSans" font-size="10.00">os_core.c</text>
</a>
</g>
</g>
<!-- Node1&#45;&gt;Node3 -->
<g id="edge6" class="edge">
<title>Node1&#45;&gt;Node3</title>
<path fill="none" stroke="midnightblue" d="M157.25,-106.12C126.26,-82.77 67.19,-38.27 42.4,-19.59"/>
<polygon fill="midnightblue" stroke="midnightblue" points="155.45,-109.15 165.54,-112.37 159.66,-103.56 155.45,-109.15"/>
</g>
<!-- Node4 -->
<g id="node4" class="node">
<title>Node4</title>
<g id="a_node4"><a xlink:href="os__scheduler_8c.html" target="_top" xlink:title=" ">
<polygon fill="white" stroke="black" points="80,-0.5 80,-19.5 168,-19.5 168,-0.5 80,-0.5"/>
<text text-anchor="middle" x="124" y="-7.5" font-family="FreeSans" font-size="10.00">os_scheduler.c</text>
</a>
</g>
</g>
<!-- Node1&#45;&gt;Node4 -->
<g id="edge7" class="edge">
<title>Node1&#45;&gt;Node4</title>
<path fill="none" stroke="midnightblue" d="M164.82,-104.05C159.25,-95.83 152.83,-85.67 148,-76 138.33,-56.63 130.39,-32.36 126.53,-19.66"/>
<polygon fill="midnightblue" stroke="midnightblue" points="162.04,-106.17 170.63,-112.37 167.78,-102.17 162.04,-106.17"/>
</g>
<!-- Node5 -->
<g id="node5" class="node">
<title>Node5</title>
<g id="a_node5"><a xlink:href="os__taskman_8c.html" target="_top" xlink:title=" ">
<polygon fill="white" stroke="black" points="186,-0.5 186,-19.5 270,-19.5 270,-0.5 186,-0.5"/>
<text text-anchor="middle" x="228" y="-7.5" font-family="FreeSans" font-size="10.00">os_taskman.c</text>
</a>
</g>
</g>
<!-- Node1&#45;&gt;Node5 -->
<g id="edge8" class="edge">
<title>Node1&#45;&gt;Node5</title>
<path fill="none" stroke="midnightblue" d="M189.29,-104.11C194.9,-95.9 201.31,-85.73 206,-76 215.32,-56.68 222.41,-32.4 225.8,-19.68"/>
<polygon fill="midnightblue" stroke="midnightblue" points="186.34,-102.22 183.45,-112.41 192.07,-106.25 186.34,-102.22"/>
</g>
<!-- Node6 -->
<g id="node6" class="node">
<title>Node6</title>
<g id="a_node6"><a xlink:href="util_8c.html" target="_top" xlink:title=" ">
<polygon fill="white" stroke="black" points="288.5,-0.5 288.5,-19.5 329.5,-19.5 329.5,-0.5 288.5,-0.5"/>
<text text-anchor="middle" x="309" y="-7.5" font-family="FreeSans" font-size="10.00">util.c</text>
</a>
</g>
</g>
<!-- Node1&#45;&gt;Node6 -->
<g id="edge9" class="edge">
<title>Node1&#45;&gt;Node6</title>
<path fill="none" stroke="midnightblue" d="M195.22,-105.82C223.34,-82.39 276.37,-38.19 298.69,-19.59"/>
<polygon fill="midnightblue" stroke="midnightblue" points="192.8,-103.28 187.36,-112.37 197.28,-108.66 192.8,-103.28"/>
</g>
<!-- Node2&#45;&gt;Node3 -->
<g id="edge2" class="edge">
<title>Node2&#45;&gt;Node3</title>
<path fill="none" stroke="midnightblue" d="M147.17,-53.97C119.59,-43.77 79.18,-28.82 54.01,-19.51"/>
<polygon fill="midnightblue" stroke="midnightblue" points="146.11,-57.31 156.7,-57.49 148.53,-50.74 146.11,-57.31"/>
</g>
<!-- Node2&#45;&gt;Node4 -->
<g id="edge3" class="edge">
<title>Node2&#45;&gt;Node4</title>
<path fill="none" stroke="midnightblue" d="M161.02,-48.72C151.68,-39.2 140.25,-27.56 132.59,-19.75"/>
<polygon fill="midnightblue" stroke="midnightblue" points="158.75,-51.4 168.25,-56.08 163.74,-46.49 158.75,-51.4"/>
</g>
<!-- Node2&#45;&gt;Node5 -->
<g id="edge4" class="edge">
<title>Node2&#45;&gt;Node5</title>
<path fill="none" stroke="midnightblue" d="M192.38,-48.72C201.37,-39.2 212.36,-27.56 219.74,-19.75"/>
<polygon fill="midnightblue" stroke="midnightblue" points="189.74,-46.41 185.42,-56.08 194.83,-51.22 189.74,-46.41"/>
</g>
<!-- Node2&#45;&gt;Node6 -->
<g id="edge5" class="edge">
<title>Node2&#45;&gt;Node6</title>
<path fill="none" stroke="midnightblue" d="M206.37,-52.99C231.25,-42.81 266.3,-28.47 288.33,-19.46"/>
<polygon fill="midnightblue" stroke="midnightblue" points="204.98,-49.77 197.05,-56.8 207.63,-56.25 204.98,-49.77"/>
</g>
</g>
</svg>
